<?xml version="1.0" encoding="utf-8"?>
<!-- Generator: Adobe Illustrator 18.0.0, SVG Export Plug-In . SVG Version: 6.00 Build 0)  -->
<!DOCTYPE svg PUBLIC "-//W3C//DTD SVG 1.1//EN" "http://www.w3.org/Graphics/SVG/1.1/DTD/svg11.dtd" [
	<!ENTITY ns_flows "http://ns.adobe.com/Flows/1.0/">
	<!ENTITY ns_extend "http://ns.adobe.com/Extensibility/1.0/">
	<!ENTITY ns_ai "http://ns.adobe.com/AdobeIllustrator/10.0/">
	<!ENTITY ns_graphs "http://ns.adobe.com/Graphs/1.0/">
]>
<svg version="1.1" id="Layer_1" xmlns:x="&ns_extend;" xmlns:i="&ns_ai;" xmlns:graph="&ns_graphs;"
	 xmlns="http://www.w3.org/2000/svg" xmlns:xlink="http://www.w3.org/1999/xlink" xmlns:a="http://ns.adobe.com/AdobeSVGViewerExtensions/3.0/"
	 x="0px" y="0px" viewBox="0 0 2800 2800" enable-background="new 0 0 2800 2800" xml:space="preserve">
<g>
	<defs>
		<rect id="SVGID_1_" width="2800" height="2800"/>
	</defs>
	<clipPath id="SVGID_2_">
		<use xlink:href="#SVGID_1_"  overflow="visible"/>
	</clipPath>
	<g clip-path="url(#SVGID_2_)">
		<rect fill="#8BCED3" width="2800" height="2800"/>
		<g>
			<path fill="#5DBBBD" d="M2250.3,2800c15.5,0,30.9,0,46.4,0c-35.3-933.3,35.3-1866.7,0-2800c-15.5,0-30.9,0-46.4,0
				C2285.5,933.3,2215,1866.7,2250.3,2800z"/>
			<path fill="#5DBBBD" d="M496.2,2800c-15.5,0-30.9,0-46.4,0c35.3-933.3-35.3-1866.7,0-2800c15.5,0,30.9,0,46.4,0
				C460.9,933.3,531.4,1866.7,496.2,2800z"/>
			<path fill="#5DBBBD" d="M1350,0c15.5,0,30.9,0,46.4,0c-35.3,933.3,35.3,1866.7,0,2800c-15.5,0-30.9,0-46.4,0
				C1385.3,1866.7,1314.7,933.3,1350,0z"/>
		</g>
		<g opacity="0.7">
			<path fill="#B4DFDD" d="M868.9,132.9c-6.6,146.1-23.2,195.8-56.4,222.4s-146.1,92.9-252.3,99.6s-235.7,92.9-265.5,86.3
				c-29.9-6.6-122.8-199.2-169.3-229C86.6,287.3,20.8,246.2,0,233.3v44.6c24.7,8.9,113.6,45.9,161.8,133.9
				c43,78.3,78.2,145.1,120.4,168.1c-12.8,32.7-41.5,102.5-57.8,113.4c-21.4,14.3-57.1,32.1-82.1,55.3
				c-21.5,20-116.5,79.7-142.4,95.9v69.5c12.1-23,39.1-69.6,65.6-81.5c35.7-16.1,99.9-83.9,114.2-87.4
				c37.5-3.6,126.4,73.3,145.1,86.6c18.7,13.3-22,79.7-35.3,95.4c-13.3,15.7-31.5,112-34.9,122s-33.2,94.6-56.4,142.7
				c-23.2,48.1-43.2,101.2-41.5,122.8c1.7,21.6,16.6,102.9,19.9,131.1c3.3,28.2-6.6,89.6-5,124.5c1.5,31.9,10.3,100.4,0.1,132.9
				c-17.6,2.1-33.2,3.4-45.1,3.4c-51,0-107.9,0-126.8,0v21.8c22.2-1.9,97.5-8.4,166.5-13.8c-18.2,27.2-77.1,62.3-104.2,83.1
				c-21.3,16.3-49.7,24.1-62.3,26.9v29.7c5.1-2.1,13.7-5.1,27.4-8.5c26.6-6.6,122.8-66.4,144.4-112.9c2.6-5.6,4.8-12.1,6.6-19.3
				c43.4-3.4,82.8-6.2,102.9-7.1c37.7-1.6,89.4-3.2,127.9-8.5c0,0,0,0,0,0c-14,2.2-30,66.4-53.5,96.3s-3,101.2,0,116.2
				c3,14.9,31.9,36.5,37.4,66.4s62.5,66.4,70.8,73c4.4,3.5,29.9,7.9,58.5,8.9c11.2,47.3,36.6,168.7,31.4,283
				c-6.6,146.1-23.2,195.8-56.4,222.4c-33.2,26.6-146.1,92.9-252.3,99.6c-89.8,5.6-196.3,68.2-245.1,83.4v52.9h29.1
				c-2-2.3-4-4.6-5.8-6.7c59.1-18,123.6-87.1,225.1-96.3c104.3-9.5,178.5-70.2,211.2-84.5c-10.7,26.7-28.6,72.9-28.6,84.5
				c0,11.3-24.8,53.7-42.7,98.5c-2.5,1.4-5.2,3-8,4.5h36c11.3-35.1,25.1-71.8,34.6-109.7c16.6-66.4,49.9-97.2,49.9-97.2h0
				c23.8-14.3,51.4-36.7,67-67.6c31.1,50.2,120,65,181.8,81.8c73,19.9,119.5,96.3,212.4,156c14.6,9.4,26.5,22,36.2,36.7h63.7
				c-0.1-0.9-0.2-1.8-0.3-2.7c-5.9-43.1-34.3-71.7-68.2-95.5c23.5-8.2,58.8-2.2,79.4-9.8c41.8-15.3,77.8-49.5,114.2-73.6
				c15.1-10,28-18.1,44.8-25.2c19.2-8.1,48.8-9.4,66.1-20.3c18-11.4,19.4-28.8,35.2-42.2c22.2-18.7,56.6-29.2,78.2-12.1
				c17.1,13.6,35.3,52.5,31,74.4c-5,25.3-72.2,155.5-97.1,178.8c-3.9,3.7-12.5,13.8-24.2,28.1h33.3c16.8-18,32.3-34.1,44.3-46.4
				c17.6,11.7,45.1,29.8,70.7,46.4h34.3c-45.1-33.1-92.8-58.7-92.8-58.7c5.4-5.4,9.4-9.2,11.5-10.9c14.9-12.4,57.3-112,69.7-117
				c3.4-1.4,2.7-13.8-0.8-32c77.4-0.1,196-47.1,225.8-67.1c11-7.4,21.2-12.4,31.3-16c0,0,57.3,27.6,72.2,61.4
				c14.9,33.8,52.3,96,47.3,120.9c-3.4,17.1-7.6,79.7-6,119.4h24.4c-2.2-10-2.8-21.1-1-33.3c10-68.6,7.5-117.7-10-123.4
				c-17.4-5.7-34.9-87.1-42.3-102.1c-4.7-9.5,1-42.7,5.9-65.8c4.6-3.3,8.9-7.3,13-11.8c5.7,3.9,17,3.6,23.7,5.6
				c9.7,3,17.7,5.8,27.9,6.4c10.2,0.6,21.6,0.9,31.8,0c11-0.9,18.7-5.7,28.8-7.8c24.8-5.1,49.1,12.1,71.4,20
				c15,5.3,29.6,12.6,43.5,20.4c47.3,26.5,88.7,64.3,115,112.1c-0.2,0.4-0.4,0.7-0.6,1.1c-8.2,13.2-15.3,17.3-16.5,32.7
				c-1,12.1-4.7,23.9-9.8,35c-10.7,23.2-28.5,45.6-51.7,57.2c-15.6,7.8-34.3,8.5-50.7,15.8c-14.1,6.3-29.4,13-42.7,22.7
				c-6.6,4.8-13.7,9.9-20.7,15.2h70.4c12.6-7.9,25.1-15.9,37.1-24.7c13.9-10.1,27.9-18.1,39.3-30.3c11.2-12,20.4-24.4,31.6-36.9
				c19.3-21.7,35.4-15.6,56.1-13c26,44.1,50.9,78.4,78.7,93.6c-1.3,3.4-2.8,7.2-4.5,11.3h22.3c0.5-1.5,1-2.9,1.4-4
				c2.2,0.5,4.4,0.8,6.7,1c0.9,1,1.8,2,2.7,3h33.4c-2-2.3-4-4.6-5.8-6.7c59.1-18,123.6-87.1,225.1-96.3
				c97.4-8.9,168.5-62.3,204.1-81v-22.2c-51.2,29.5-131,65.2-207.4,70c-106.2,6.6-235.7,92.9-265.5,86.3
				c-29.8-6.6-122.2-197.8-168.8-228.7c17.7-98.5,115.8-145.6,160.2-227.5c42.2-78,50.7-172.2,3.1-246.9
				c-9.9-15.5-20.9-34.4-33-53.9c8.5-13.8,24.7-25,36.1-35.8c20.6-19.6,43.2-33.4,63.6-52.8c14.7-14,29.5-27.4,47.3-37.6
				c22.4-12.8,35.9-32.5,50.9-52.9c13.3-18.1,16.7-40.3,27.7-58.5c6.7-11,14.9-28.1,16.3-42.1c41.6-3.2,79-5.9,98.4-6.7
				c37.7-1.6,89.4-3.2,127.9-8.5c0,0,0,0,0,0c-14,2.2-30,66.4-53.5,96.3c-23.6,29.9-3,101.2,0,116.2c3,14.9,31.9,36.5,37.4,66.4
				c4.3,23.3,40,50.7,59.4,64.7v-33.9c-21.3-7.5-18.8-44.8-45-88.9c-31.5-53.1-1.7-112.9,0-154.3c1.2-31.1,20.2-59.4,29.6-71.6
				c6.1-1.6,11.3-3.4,15.4-5.4v-86.6c-18,25.7-49.7,61.9-71.8,65.9c-21.3,3.9-125.3,25.8-199.8,35.4c10.2-52.9,5.8-128.5,5.8-128.5
				s1.7-33.2,5-94.6c3.3-61.4-19.9-141.1-19.9-164.3s31.5-69.7,38.2-102.9c6.6-33.2,84.6-227.4,83-239.4
				c-1.7-12,53.1-107.5,63.1-119.1c10-11.6,31.5-14.9,43.2-16.6c5.1-0.7,27.1-4,53.3-7.7v-15.3c-30.3,1.9-64.1,6-111.4-0.3
				c-49.8-6.6-119.5-93.4-119.5-93.4c13.6-10.1,27-21.4,35-30.2c15.4-17,38.8-84.5,44.9-102.6c2.2,0.5,4.4,0.8,6.7,1
				c23.4,26,56.4,61.2,74.4,74.2c14.6,10.6,42.4,18.3,69.9,23.1v-15.8c-48.3-14.9-90.4-57.2-114.1-85.3
				c34.2-10.4,70.2-37.9,114.1-61.1v-42.3c-72.7,27.1-137.8,64.6-157.9,60.2c-29.9-6.6-122.8-199.2-169.3-229
				c-33.4-21.5-72-56-112.2-62c-19.5-2.9-38,2.1-55.8-8c-18-10.2-40-14.7-60.3-18.3c-10.5-1.9-21-2.1-31-5.7
				c-6.7-2.4-10.9-7.4-15.4-12c6.2-12.6,11.2-24.6,15.1-33.4c13.3-29.9,66.2-152.7,66.2-152.7V0h-46.5
				c-18.9,45.8-36.3,90.6-36.3,99.7c0,18.2-58.1,133.2-78.3,143.5c-1.2,0.2-2.4,0.4-3.5,0.6c-0.4-0.1-0.8-0.3-1.1-0.7
				c-13.3-12.6-92.9,29.2-162.6,72.4c-52,32.2-118.9,36-149.4,35.9c-12.5-49.8-38.1-119.8-61.6-142.5c-37.3-35.9-5-147.9-12.4-180.3
				c-1.5-6.4-4.7-16.5-8.9-28.7h-21.8c5.4,20.6,8,39.4,5.8,53.6c-10,64.7-10,167.6-29.9,189.6s-112,84.2-146.9,79.3
				c-34.9-5-165.2-47.7-165.2-47.7c21.3-47.6,36.3-109.5,40.7-131.5c7.5-37.3,37.3-69.7,48.4-102.1c4.4-12.9,7.9-26.2,11.1-41.1
				h-36.3c-2.3,12-5.7,22.7-10.7,31.2c-32.4,54.8-22.4,72.2-84.6,212C1267,383,1136.4,396.8,1136.4,396.8
				c-32.5-11.9-74.3-23.8-134.8-38.2c-80.1-19.1-103.3-49.3-108.5-71.5c1.8-9,2.6-18.5,2.1-28.5l0,0l0,0c-0.4-7.3-1.4-14.9-3.1-22.8
				C880.7,185.5,881.3,87.3,884.8,0h-21.2C868.2,42.1,870.9,88.1,868.9,132.9z M563.5,488.1c104.3-9.5,178.5-70.2,211.2-84.5
				c-10.7,26.7-28.6,72.9-28.6,84.5c0,11.3-24.8,53.7-42.7,98.5c-34.8,19.7-95.7,54-105,57.5c-13.3,5-66.4,48.1-142.7,26.6
				c-49.6-14-93-57.5-117.2-86.2C397.5,566.4,462,497.3,563.5,488.1z M221.6,720L221.6,720c13.6-10.1,27-21.4,35-30.2
				c15.4-17,38.8-84.5,44.9-102.6c2.2,0.5,4.4,0.8,6.7,1c23.4,26,56.4,61.2,74.4,74.2c29.9,21.6,114.5,31.5,140.2,28.2
				c25.7-3.3,88.8-38.2,120.3-44.8c15.9-3.4,31.8-3.3,43.7-2.5c-0.2,1.4-0.4,2.8-0.5,4.1c-6.6,59.7-36.5,63.1-53.1,126.1
				c-0.1,0.3-0.1,0.5-0.2,0.8c-47.2,12-151.5,37.8-175.7,39.1c-31.5,1.7-66.4,6.6-116.2,0C291.3,806.8,221.6,720,221.6,720z
				 M380.7,1666.7c-21.3,3.9-125.3,25.8-199.8,35.4c10.2-52.9,5.8-128.5,5.8-128.5s1.7-33.2,5-94.6s-19.9-141.1-19.9-164.3
				s31.5-69.7,38.2-102.9c6.6-33.2,84.6-227.4,83-239.4s53.1-107.5,63.1-119.1c10-11.6,31.5-14.9,43.2-16.6
				C410.8,835,512,820,546.9,816.8c22.9-2.2,62.8-4.4,87.7-5.6c2.8,8.6,7,16.9,12.1,24.7c-11.4,25.6-34.1,66-74.2,101.5
				c-64.7,57.3-92.1,137.5-94.6,175.8s-37.3,120.5-27.4,137.9c10,17.4,43.5,97.1,54.1,166.8s-29.2,144.4-41.7,166.8
				C450.4,1606.9,408.1,1661.7,380.7,1666.7z M1065.3,1323.1c-2.5-24.9,0.3-176.7,0.3-176.7l-5.1-34.5
				c62.4,4.2,137.3-3.2,170.2-16.3c49.8-19.9,119.5-76.3,149.4-106.2c11.4-11.4,21.6-24.2,29.8-35.6c7.9,11.3,13.3,18.6,13.3,18.6
				s33,119.3,47.9,189s104.6,179.2,141.9,199.2c37.3,19.9,64.7,44.8,84.6,63.6c19.9,18.8,37.3,185.4,34.9,230.2
				c-2.5,44.8-24.9,122-74.7,181.7c-49.8,59.7-69.7,54.8-134.4,97.1c-64.7,42.3-94.6,99.6-131.9,109.5c-37.3,10-67.2-44.8-127-109.5
				c-59.7-64.7-54.8-97.1-128-136.9c-73.2-39.8-129.1-82-129.3-82.1c5.1-18.6,8.3-39.7,10.9-52.3c5-24.9,20.2-159.3,28.8-199.2
				S1067.8,1348,1065.3,1323.1z M1772.3,1728.9c-0.8-3.2-2.4-19.1-5.1-42.7c36.1-18.1,131.2-67,140.6-84.4
				c6.7-12.5,12.4-42.9,16.9-68.8c0,0,102.2,56.4,107.6,87c5.4,30.6,59.7,76.3,74.7,107.9s71.4,51.4,81.3,81.3
				c7,21,3.3,56.7,0.5,76.1c-29.9-10.5-73.3,14.1-100.1,25.1c-28.2,11.6-48.1,28.2-119.5,53.1c-71.3,24.9-113.5,65.8-113.6,65.9
				c-5.8-22.6-11.7-43.6-15.8-54.3c-11.6-29.9-44.8-103.8-49-111.6c-3.2-6-32.1-47.3-45.5-70.1
				C1764.1,1763.6,1773.6,1734.2,1772.3,1728.9z M1924.7,1532.6c1.5-8.9,3-17.3,4.2-24.2L1924.7,1532.6z M1881.3,1600.1
				c-13.3,29.4-87.8,55.5-116.5,64.6c-6.1-50.6-16.1-122.8-32-187.2c-12.1-48.6-24.3-76.2-37.6-93.5c0,0,49.8-11.3,86.4-37.8
				c36.6-26.6,81.4-88.4,106.3-119.7c7.9-10,15.5-18.6,22.5-26.5c6,27.9,4.1,89.8,4.1,89.8s8.3,39.8,14.9,111.2
				C1936,1472.3,1897.9,1563.6,1881.3,1600.1z M1672.8,1363.4c-10.7-6.9-22.2-11.5-34.9-17.8c-39.8-19.9-52.3-42.3-92.1-97.1
				c-39.8-54.8-47.3-146.9-54.8-179.2c-0.8-3.5-1.9-7.6-3.2-12.2c23.1-14.9,94.5-60,115.3-60c24.9,0,89.6,12.4,104.6,19.9
				c14.9,7.5,99.6,34.9,124.5,44.8c9.7,3.9,24.8,6.3,40.6,7.1c0,0.3,5.4,41.7,21.9,76.5c16.6,34.9-38.2,86.3-46.5,96.3
				c-8.3,10-94.5,117.8-123.6,121.2C1704.1,1365.1,1683.4,1364.2,1672.8,1363.4z M1929.3,1079.4c-3.1-8.4-5.4-13.9-5.4-13.9
				c4.1-1,7.6-2.3,10.2-3.7c17.4-10,62.2-47.3,64.7-77.2c2.5-29.9-10-87.6-29.9-112.3c-19.9-24.7-54.8-84.4-59.7-91.9
				c-3.1-4.7-1.3-32.2,0.4-51.9c29.8,23.3,79,51.9,116.2,51.9c42,0,47.6,39.8,89.9,47.3c16.5,2.9,32.1-2.8,46.6-13.2
				c8,5.2,23.6,16.2,53,39.8c18.2,14.5,42.2,19.5,65.7,22.1c4.9,14.6,10.3,29.7,9.7,44.3c-1.1,25.4-20.1,45.8-36.9,62.2
				c-18.8,18.3-26.8,46.3-40.4,68.2c-13.5,21.8-25.2,38.9-46.3,54.1c-14.6,10.4-30.1,14.3-46,22.7c-25.5,13.4-48.9,12.2-73.5-2.5
				c-14.1-8.4-26.5-19.2-41.4-25.4c-11.7-4.9-23.8-6.3-36.3-8.9c-11.1-2.3-24.2-4.4-34.6-8.6
				C1933.3,1081.7,1931.2,1080.6,1929.3,1079.4z M1911.7,828.4c61.8,51.9,75.5,158.7,75.5,158.7s-53.1,74.7-120.4,62.2
				c-67.2-12.4-84.6-44.8-156.8-64.7c-72.2-19.9-62.2-27.4-62.2-27.4s19.9-44.8,27.4-59.7c7.5-14.9,34.9-52.3,34.9-52.3
				S1849.9,776.5,1911.7,828.4z M1861.9,770.5c-27.4,17.4-112,29.4-131.9,39.6c-19.9,10.2-54.8,27.6-79.7,74.9
				c-24.9,47.3-24.9,90-47.3,87.3c-16.7-2-94.1,21.1-132.1,32.9c-10.6-30.7-21.2-59.1-21.2-59.1s0,0-18.6-25.7v0l0,0
				c-6-8.3-14-19.4-24.6-34.1c-3.7-5.1-6.9-11.1-9.7-17.6c20.9-16.3,108.7-86.2,158.8-148.8c44-54.9,118.9-135.3,158-175.2
				c32.2,21.3,97.5,64.3,123.3,79.7c25.4,15.1,32.3,46,44.7,71C1881,717.8,1882.2,757.6,1861.9,770.5z M1476.1,1020.2
				C1476.1,1020.2,1476.1,1020.2,1476.1,1020.2L1476.1,1020.2L1476.1,1020.2z M1037,1410.3c-3.7,34.3-27.2,161.3-40.6,206.7
				c-12.4-16.3-36.4-43.7-72.8-68.3c-56.4-38.2-129.5-94.6-151-97.9c-18.9-2.9-169.4,18.4-223.9,13.7c0.8-3.6,1.3-6.7,1.3-9.3
				c0-27.4-43.6-191.7-45.5-226.5s33-181.7,33-181.7s44.8-67.2,62.2-87.1c17.4-19.9,102.5-38.7,116.4-56.7
				c13.3,13.3,212.4,166,265.5,192.5c12.4,6.2,29.8,10.6,49.8,13.4c0.9,25.3,3.8,84.5,11.4,132
				C1052.9,1303.2,1041.1,1372.9,1037,1410.3z M971.8,1663.1c-17,22.1-38.8,40.9-53.4,40.9c-22.4,0-82.1-22.4-124.5-17.4
				c-42.3,5-164.3-2.5-211.6-10c-32.4-5.1-82.5-16.1-110.7-22.5c4.7-25.4,3.7-57.2,13.6-67.1c9.3-9.3,32.2-47.8,48.1-82
				c28.6-14.1,74.4-34.5,106.4-37.7c49.8-5,103.7-8.3,118.2,0c14.6,8.3,79.3,36.5,99.2,51.4s76.3,71.4,86.3,92.9
				C949.2,1623.9,961.8,1646,971.8,1663.1z M468.9,2008.4c-39.8,6.6-29.9-36.5-61.4-89.6s-1.7-112.9,0-154.3
				c1.2-31.1,20.2-59.4,29.6-71.6c9.2-2.4,16.4-5.2,20.8-8.7c3.9-3,6.8-7.6,9.1-13c28.9,7.7,89.2,23.7,127.8,32.9
				c52.3,12.4,176.7,2.5,231.5,14.9c34.6,7.9,81.2,21.7,115.8,28.9c-34.8,17.8-114.9,58.2-138,64.6c-12.8,3.6-19.8,8-25.7,14.7
				c-7.9,8.9-13.9,21.8-29.1,41.7c-26.6,34.9-49.8,44.8-73,58.1c-23.2,13.3-56.4,64.7-88,82C556.8,2026.3,508.7,2001.7,468.9,2008.4
				z M1387.5,2262.4c-10,64.7-10,167.6-29.9,189.6c-44.9,49.6-112.2,66.9-160.3,111.9c-28.4,26.6-56.5,56.7-89.3,78
				c-25.1,16.3-52,26.5-80.9,30.7c-18.2,2.6-50.2-4.6-62.3,10.7c-14.4-8.9-29-17.4-42.6-26.2c-56.4-36.5-96.3-56.4-235.7-89.6
				c-80.1-19.1-103.3-49.3-108.5-71.5c1.8-9,2.6-18.5,2.1-28.5l0,0l0,0c-0.4-7.3-1.4-14.9-3.1-22.8c-20-88.5-3.1-325.7,2-390.1
				c5.3-1.3,10.2-2.8,14.4-4.7c36.5-16.6,44.8-43.2,63.1-63.1c18.3-19.9,33.2-34.9,46.5-41.5c13.3-6.6,46.5-36.5,55.1-51.4
				s31.2-49.8,39.5-58.1c8.3-8.3,51.4-18.3,89.6-44.8c32.3-22.4,80.4-35.3,94.5-38.7c1.5-0.2,2.9-0.5,4-0.9c0,0,122,72.2,150.8,79.7
				c28.8,7.5,93.2,94.6,125.5,139.4c13.2,18.2,28.8,36.5,47.3,52.4l0,0C1309.3,2022.8,1397.5,2197.7,1387.5,2262.4z M1803.2,2452.1
				c-1.2,0.2-2.4,0.4-3.5,0.6c-0.4-0.1-0.8-0.3-1.1-0.7c-13.3-12.6-92.9,29.2-162.6,72.4c-52,32.2-118.9,36-149.4,35.9
				c-12.5-49.8-38.1-119.8-61.6-142.5c-37.3-35.9-5-147.9-12.4-180.3c-7.5-32.4-59.7-161.8-62.2-174.3c-1-4.9-2-9.8-2.8-14
				c18.3,10,38.8,17.3,61.5,20.7c67.2,10,89.6-82.1,129.4-102.1s72.9-86.6,136.9-110.6c19-7.1,35.5-20.4,49.2-35.8
				c21.8,20.1,55.7,52.6,65.6,69c14.9,24.9,54.8,117.8,54.8,142.7s0,82,0,82s36.8,173.4,36.8,193.3
				C1881.5,2326.8,1823.4,2441.8,1803.2,2452.1z M2257.2,2329.9c-26,54-111.2,114.3-123.4,174.7c-27.4-19.4-57.4-40.9-88.3-45.6
				c-19.5-2.9-38,2.1-55.8-8c-18-10.2-40-14.7-60.3-18.3c-10.5-1.9-21-2.1-31-5.7c-6.7-2.4-10.9-7.4-15.4-12
				c6.2-12.6,11.2-24.6,15.1-33.4c13.3-29.9-21.8-266.3-21.8-266.3s-8.1-36-17.3-72.5c24.2-11.9,71.8-35.7,85.2-43.8
				c18.2-11,44.9-30.5,76.4-40.5c31.5-10,58.1-18.3,77.6-31.5c19.5-13.3,58.5-18.3,80-18.3s54.8,36.5,91.3,104.6
				C2324.1,2114.8,2306.6,2227.3,2257.2,2329.9z M2493.4,1743.4c-6.7,12.9-14,25.4-21.2,38.2c-13.8,24.4-27.9,60.6-52.2,77.2
				c-7.6,5.2-17.6,6.7-25.1,11.3c-12.2,7.5-19.3,21.1-28.7,31.8c-23.2,26.4-53.5,52-85.3,66.9c-2.2,1-4,2.1-6,2.9
				c-16.6-25-35.2-49.3-55.6-66.8c0.8-19.2,2.8-92.2-14.4-112.3c-19.9-23.2-66.4-59.7-89.6-83c-13.7-13.7-21.7-28.6-35.1-49.8
				c6.2-0.2,12.3-0.8,16.8,0c12.7,2.3,23.1,16.2,33.2,24.1c16,12.6,35,15.9,53.9,22.7c21.6,7.7,47.6,14,70.1,18.5
				c21.6,4.3,45.1,4.4,67.4,4.4c12.2,0,34.9,2.2,48.6-3.2c32.7-2.8,88.1-7.5,140.4-11.6C2503.5,1723.2,2498.1,1734.3,2493.4,1743.4z
				 M2602.3,1049.1c-3.3,10-33.2,94.6-56.4,142.7c-23.2,48.1-43.2,101.2-41.5,122.8s16.6,102.9,19.9,131.1
				c3.3,28.2-6.6,89.6-5,124.5c1.5,31.9,10.3,100.4,0.1,132.9c-17.6,2.1-33.2,3.4-45,3.4c-33.2,0-69,0-95.1,0
				c-7.8-5.4-27.4-4.6-35.5-4.6c-24,0.1-51.1,6.6-73.3-1.9c-6.9-2.7-13.6-6.7-20.9-8.8c-9.3-2.7-18.8-0.5-28.3-1.3
				c-16.8-1.5-33.7-4.5-50.3-6.9c-16.2-2.4-32.4-8.3-45.9-17.7c-17.9-12.4-38.1-29.4-61.2-29.7c-6.4-9.1-14-19.1-23.2-30.3
				c-44.8-54.8-111.6-96.6-111.6-96.6c1.4-7.5,2.6-13.3,3.7-16.2c5-13.3,13.3-73,18.3-91.3c5-18.3,5-131.1,6.6-157.7
				c1.7-26.6-13.4-109.5-13.4-109.5s-0.2,0.1-0.5,0.4c-0.5-4.8-1.4-10-2.6-15.2c4.4-1.6,8.8-3,13.1-3.5c11.5-1.3,23.9,0.1,35.5,0
				c23.7-0.1,45.9,14.2,65.5,25.4c19.6,11.2,39.3,21.8,63.1,13.3c23-8.2,40.7-26,59.7-40.7c8.3-6.4,17.8-12.9,27-19.9
				c12.9,3.1,25.2,4.1,38,11.1c15.4,8.3,29.2,16.8,48.8,13.1c17.1-3.3,32.3-20.5,46.6-29.7c17.2-11,36.1-14.5,55.4-19.4
				c44.6-11.2,86.6-20.3,125.9-45.3c7.9-5.1,14.9-13,23-17.5c7.7-4.3,19.8-4.9,29-6.3c10.7-1.7,22.1-6.8,33-6.9
				c4.3-0.1,7.3,2,9.7,4.5C2608.5,1021.9,2603.8,1044.5,2602.3,1049.1z M2672.5,831.7c18.7,13.3-22,79.7-35.3,95.4
				c-4.5,5.3-9.6,19.9-14.4,37.3c-14.8,2.7-26.4,14.6-42.4,17c-16.2,2.4-27.4,1.4-42.2,10.3c-14.1,8.5-24,21.6-37.6,30.9
				c-15.3,10.5-32.4,12.4-49.5,18.8c-14.7,5.6-27.3,7.6-42.9,9.1c-36.4,3.4-66.8,18-95.1,41c-15.1,12.2-35.6,17-53.4,5.9
				c-11.4-7.1-18.4-20-27.2-30.2c2.3-3.2,4.3-6.5,6-10c4.7-9.8,4.9-21.2,8.8-31.2c3.6-9.3,8-18.5,12.7-27.4
				c6.4-12,16.7-20.9,26.3-29.7c9.6-8.8,16.6-18.2,25.5-28.1c13.1-14.7,17.5-34.6,22.6-53.4c5.2,0.4,9.5-1.7,17.5-8
				c9.5-7.5,21.3-11.3,30.2-19.4c10.5-9.6,17.6-21.2,31.1-27.3c35.7-16.1,99.9-83.9,114.2-87.4
				C2564.8,741.5,2653.7,818.4,2672.5,831.7z M2551,486.3c26,44.1,50.9,78.4,78.7,93.6c-12.8,32.7-41.5,102.5-57.8,113.4
				c-21.4,14.3-57.1,32.1-82.1,55.3c-21,19.5-112.3,77.1-140.5,94.7c-30.9,11.1-68.7-4.5-93.9-5.6c-19.5-0.9-61.2-24.2-79.1-34.7
				c25.4-24,46.6-59.1,62.1-78.8c22.9-29.2,51.2-59.1,79.3-84.2c32.1-28.8,71.3-48.1,106.3-73.5c13.9-10.1,27.9-18.1,39.3-30.3
				c11.2-12,20.4-24.4,31.6-36.9C2514.3,477.6,2530.3,483.7,2551,486.3z M2154.1,266.6c4.6-3.3,8.9-7.3,13-11.8
				c5.7,3.9,17,3.6,23.7,5.6c9.7,3,17.7,5.8,27.9,6.4c10.2,0.6,21.6,0.9,31.8,0c11-0.9,18.7-5.7,28.8-7.8
				c24.8-5.1,49.1,12.1,71.4,20c15,5.3,29.6,12.6,43.5,20.4c47.3,26.5,88.7,64.3,115,112.1c-0.2,0.4-0.4,0.7-0.6,1.1
				c-8.2,13.2-15.3,17.3-16.5,32.7c-1,12.1-4.7,23.9-9.8,35c-10.7,23.2-28.5,45.6-51.7,57.2c-15.6,7.8-34.3,8.5-50.7,15.8
				c-14.1,6.3-29.4,13-42.7,22.7c-25.9,18.9-57.9,40.9-75.4,68.3c-3.1,4.8-6,9.6-8.9,14.4c-11.9-7.1-61.1-40.5-52.4-100.9
				c10-68.6,7.5-117.7-10-123.4c-17.4-5.7-34.9-87.1-42.3-102.1C2143.5,322.9,2149.2,289.7,2154.1,266.6z M1807.2,404.6
				c3.4-1.4,2.7-13.8-0.8-32c77.4-0.1,196-47.1,225.8-67.1c11-7.4,21.2-12.4,31.3-16c0,0,57.3,27.6,72.2,61.4
				c14.9,33.8,52.3,96,47.3,120.9c-5,24.9-11.5,146.2,0.5,152.7c8.5,4.6,34.5,44.4,49.1,67.4c-3.6,5.5-7.2,11-11.2,16.3
				c-12.6,17.2-58.5,94.6-85.6,89.6c-27.4-5-109.5-32.4-136.9-32.4c-27.4,0-74.7-52.3-112-109.5c-37.3-57.3-160.9-123.5-160.9-123.5
				c5.4-5.4,9.4-9.2,11.5-10.9C1752.4,509.1,1794.7,409.5,1807.2,404.6z M1156.4,404.6c0,0,104.4-67.2,152.1-69.7
				c14.4-0.8,27.9-15.1,39.9-35.8c33.5,7.1,102.2,22.3,132.1,33.4c40.4,14.9,95.1-5,130,0c34.9,5,89.6-49.8,107-32.4
				c17.4,17.4,44.8,59,39.8,84.3c-5,25.3-72.2,155.5-97.1,178.8c-22.9,21.4-199.5,259-270.3,285.1c-19.6-74.7-5-199.6-13.3-259.7
				c-10-72.2-83-103.7-139.4-140.2C1210.7,431,1187.7,417.5,1156.4,404.6L1156.4,404.6z M882.9,316.7c31.1,50.2,120,65,181.8,81.8
				c73,19.9,119.5,96.3,212.4,156c92.9,59.7,76.3,249,73,282.1c-1.3,13.2,10,37.4,24,61.7v0c0,0-4.1,44.5-17.4,74
				s-99.6,103.3-156,106.6s-99.6,16.6-142.7,16.6s-189.2-79.7-242.2-123.2c-53-43.5-73.2-66-119.6-135.7
				c-46.5-69.7,10-112.9,16.6-169.3c6.6-56.4,36.5-119.5,53.1-185.9c16.6-66.4,49.9-97.2,49.9-97.2h0
				C839.7,370,867.2,347.6,882.9,316.7z"/>
			<path fill="#B4DFDD" d="M2797.9,1251c0.6,1.1,1.3,2.3,2.1,3.8v-38.5C2796.3,1232.3,2794.7,1245.2,2797.9,1251z"/>
			<path fill="#B4DFDD" d="M2735.8,2795.5c-2.5,1.4-5.2,3-8,4.5h36c11.3-35.1,25.1-71.8,34.6-109.7c0.5-2.1,1.1-4.1,1.6-6.2v-53.8
				c-10.1,25.9-21.5,57.3-21.5,66.6C2778.5,2708.3,2753.6,2750.7,2735.8,2795.5z"/>
		</g>
		<path opacity="0.53" fill="#56ADBA" d="M2363.2,744.1c-188.6,0-341.5,152.9-341.5,341.5s152.9,341.5,341.5,341.5
			c188.6,0,341.5-152.9,341.5-341.5S2551.8,744.1,2363.2,744.1z M2363.2,924.6c88.9,0,160.9,72.1,160.9,160.9
			c0,88.9-72.1,160.9-160.9,160.9c-88.9,0-160.9-72.1-160.9-160.9C2202.2,996.7,2274.3,924.6,2363.2,924.6z"/>
		<path opacity="0.53" fill="#56ADBA" d="M935.7-98C747.1-98,594.2,54.9,594.2,243.5c0,188.6,152.9,341.5,341.5,341.5
			c188.6,0,341.5-152.9,341.5-341.5C1277.2,54.9,1124.3-98,935.7-98z M935.7,82.5c88.9,0,160.9,72.1,160.9,160.9
			c0,88.9-72.1,160.9-160.9,160.9c-88.9,0-160.9-72.1-160.9-160.9C774.8,154.6,846.8,82.5,935.7,82.5z"/>
		<path opacity="0.53" fill="#56ADBA" d="M431.7,507.7c-188.6,0-341.5,152.9-341.5,341.5c0,188.6,152.9,341.5,341.5,341.5
			s341.5-152.9,341.5-341.5C773.2,660.6,620.3,507.7,431.7,507.7z M431.7,688.2c88.9,0,160.9,72.1,160.9,160.9
			c0,88.9-72.1,160.9-160.9,160.9c-88.9,0-160.9-72.1-160.9-160.9C270.7,760.3,342.8,688.2,431.7,688.2z"/>
		<path fill="#FFFFFF" d="M2377.2,2377.2H422.8V422.8h1954.4V2377.2z M462.8,2337.2h1874.4V462.8H462.8V2337.2z"/>
		<path opacity="0.76" fill-rule="evenodd" clip-rule="evenodd" fill="#56ADBA" d="M2014,2671.6l-17-44.4
			c-7.5-19.1-15.8-40-25.5-58.2c-16.2-30.4-22.9-58.2-37.5-88.9c-10.8-22.8-7.7-13.8-14.6-26.2c4-18.6,10-27.3-2-43.9
			c-1-12.2,4.6-17.6,7.3-29.7c7.2-32.7,1.7-70.8-6.6-102.8c-10-38.5-30.9-73.4-48.6-104.6c-16.3-28.7-25.2-35.9-42.3-72.1
			c-4.9-10.3-5.2-18.4-13.5-25.2c-31.3-25.3-54-67.7-84.2-68.5c-3.6-12.4-13.6-13.9-17.9-29.6c-3.7-13.6-7.5-23.5-15.3-31.5
			c-4.2-4.4-8.6-7.2-12.9-10V1650h-511.2v281.5c-4.5,1.5-9.1,2.8-13.2,5.1c-30.9,5-34.6,38.9-64.6,56.9c-6.9,4.1-6.4,1.7-9.5,9.1
			c-16.8,7.2-28.7,13.9-36.7,27.9l-19.9,4.6c-0.5,0.2-1,0.6-1.4,0.8l-2.6,2c-16.9,9.7-32.3,9.6-47.8,25.5
			c-8.1,8.3-21.7,37.3-20.6,55.1c8.5,140.1-48.5,141.4-28.3,257.2c4.7,27.1,8.1,33.7,17.8,55.7c7.6,17.3,10.3,39.8,20.3,55
			c0,21.3-13.9,22.8-0.1,51.3c2.7,5.6,3.9,11.3,7.6,15.5l-31.8,79.6c-10.1,29.8-16.7,56.6-21.1,88.7c-6.7,48.7-24.1,48.8,13.1,75
			c22.7,15.9,38,31.3,63.3,46.9c114.5,70.9,239.3,70.1,367.8,65.5c63.2-2.3,135.2-13.6,197.2-23.6c88.7-14.3,88.2-11.1,182.5-38.4
			c32.8-9.5,48.8-16.2,79.7-30.4c26.6-12.2,50.8-21.1,72.6-37.6c22.4-16.9,118.4-78.2,125.2-92.9
			C2019,2679.6,2017.5,2679.5,2014,2671.6z"/>
		<g>
			<g>
				<polygon fill-rule="evenodd" clip-rule="evenodd" fill="#F4F5F3" points="1172.2,1718.1 1683.4,1718.1 1683.4,2327.4 
					1172.2,2327.4 1172.2,1718.1 				"/>
				<path fill-rule="evenodd" clip-rule="evenodd" fill="#D9DAD8" d="M1332,1849.1l14.1,140.2c0,0-8.9,39.4,17.8,60.9
					c26.8,21.6,115.9,23,126.3-10.4c10.4-33.4,20.1-84.7,20.1-84.7l24.3-127.9l76.8,171.7v328.4h-399.8l-7.1-330.3L1332,1849.1
					L1332,1849.1z"/>
			</g>
			<g>
				<path fill-rule="evenodd" clip-rule="evenodd" fill="#F6CAA3" d="M1103.6,2514.2l-40.6,18.1c-37.4,20.1-49.2,21.2-66.1,50.2
					c-4.9,8.5-17.4,29.9-18.1,39l-5.5-0.2l-31.8,79.6c-10.1,29.8-16.7,56.6-21.1,88.7c-6.7,48.7-24.1,48.8,13.1,75
					c22.7,15.9,38,31.3,63.3,46.9c114.5,70.9,239.3,70.1,367.8,65.5c63.2-2.3,135.2-13.6,197.2-23.6c88.7-14.3,88.2-11.1,182.5-38.4
					c32.8-9.5,48.8-16.2,79.7-30.4c26.6-12.2,50.8-21.1,72.6-37.6c22.4-16.9,157.7,26.6,164.6,11.8c-2.7-6.5-43.5-111.4-47-119.3
					l-17-44.4c-7.5-19.1-15.8-40-25.5-58.2c-16.2-30.4-22.9-58.2-37.5-88.9c-10.8-22.8-7.7-13.8-14.6-26.2c-11.5,0-13-6.7-19.2-13.7
					c-29.6-33.5-114.9-62.4-156-70.9c-16.2-3.3-37.7-8.8-55.1-9.8c-20.9-1.1-42.2,1.8-61.6-1.8c-31.1-5.7-90.9-7.5-124.5-4.4
					c-0.9,0.4-50.6,5.4-56.9,5.9c-19.2,1.4-36.5,4.7-54.5,7.5c-76.7,12-174,27.7-245.2,60.9
					C1133.3,2501.9,1117.7,2510.1,1103.6,2514.2L1103.6,2514.2z"/>
				<path fill-rule="evenodd" clip-rule="evenodd" fill="#E4AF83" d="M1060.3,2712.2c8.2-5.1,3.1-6.3,5.5-27.7
					c14.1-128.8,73.3-141,72.4-169.1c-17-2.3-30.8,17.5-39.9,29.7c-9.2,12.3-19.1,28.6-25.7,45.9c-13,34-15.6,51.6-15.6,87.6
					C1056.9,2695.7,1053.9,2707.3,1060.3,2712.2L1060.3,2712.2z"/>
				<path fill-rule="evenodd" clip-rule="evenodd" fill="#E4AF83" d="M1696.1,2450.5c0.2,10.1,17.9,22.5,29.3,36.8
					c25.8,32.4,44,81.9,44.8,124c0.3,14-1,21.7,10.9,24.2c9.9-21.2-8.5-96.1-18.9-115.6c-8-14.9-18.4-28.7-27.4-42.1
					C1725.1,2463.4,1718.4,2439.1,1696.1,2450.5L1696.1,2450.5z"/>
				<path fill-rule="evenodd" clip-rule="evenodd" fill="#E3AE82" d="M1472,2570.5c-18.3-12.9-47.5-0.9-38.7,14.5
					c3.4,6.1,17.2,9.3,26.9,7.7C1471.5,2590.8,1472.2,2583,1472,2570.5L1472,2570.5z"/>
			</g>
			<g>
				<path fill="#EF5D5D" d="M1918.2,2345.6c-10-38.5-30.9-73.4-48.6-104.6c-16.3-28.7-25.2-35.9-42.3-72.1
					c-4.9-10.3-5.2-18.4-13.5-25.2c-31.3-25.3-54-67.7-84.2-68.5c-75.1-9.1-127.7,39.9-144.5,46c-11.5,4.1-17.4,5.1-27.4,11.3
					c-16.4,10.2-26.5,25.8-39.9,35.7c-2.2,4.8-3.5,6.1-6.3,10.1c-3.7,5.4-4.1,4.8-5,10.7c-11,7.1-36,16.5-41.6,24.4
					c-4.9,6.9-3.1,18.1-5.3,27.5c-2.2,9.4-8,15.1-11.4,23.3c-15.8,5.4-35.6-2.7-51.6,5.2l-4.8-1.3c-3.8-10.5-12.2-24.1-18.5-30.3
					c-5.3-6.3-11.9-12.7-11.9-12.7c-4.4-11.5-13.3-25.3-18.6-37.2c-5.9-13.1-10.9-25.9-15.6-40.6c-1.7-3.3-3.2-4.7-4.9-7.1
					c-20.3-10.1-23.2-23.2-37.9-36.8c-12.4-11.5-23-22.8-42.9-31.1c-2.4-0.6-5.9-1.6-7.5-2.3l-4.3-2.8c-29.2-5.2-38.4-15.1-75.4-11
					c-11.9,1.3-25,3.5-35.7,6.9c-16.3,5.3-13.8,6.6-33.7,7.5c-16.8,7.2-28.7,13.9-36.7,27.9c-23.5,5.1-23.9,7.4-23.9,7.4
					c-16.9,9.7-32.3,9.6-47.8,25.5c-8.1,8.3-21.7,37.3-20.6,55.1c8.5,140.1-48.5,141.4-28.3,257.2c4.7,27.1,8.1,33.7,17.8,55.7
					c7.6,17.3,10.3,39.8,20.3,55c0,0,0.2,6.6-1.9,12.9s-7.2,17-1.9,29.6c5.4,12.6,7.8,20.9,11.3,24.3l5.5,0.2c0,0,1.3-11,15.6-34.8
					c14.4-23.8,21.1-30.1,39.6-39.5c17.8-9.1,41.8-21.5,69.8-33.1c14.1-4.1,29.6-12.3,42.8-18.5c71.2-33.2,168.5-48.9,245.2-60.9
					c17.9-2.8,35.2-6.1,54.5-7.5c6.3-0.4,56-5.5,56.9-5.9c8.6-0.8,18.9-1.3,30-1.4c0,0,0,0,0,0c0,0,0,0,0,0h0c0,0,0.1,0,0.1,0
					c0.6,0.1,1.2,0.1,1.8,0.2c0,0,0.1,0,0.1,0c4.3,0.4,8.1,0.5,11.3-0.3c0,0,0,0,0,0c0,0,0,0,0,0c0.3-0.1,0.6-0.2,1-0.3
					c-0.3,0.1-0.6,0.2-1,0.3c29.2,0.2,61.1,2.2,81.2,5.9c19.4,3.6,40.7,0.7,61.6,1.8c17.4,0.9,38.9,6.4,55.1,9.8
					c41.1,8.5,126.4,37.5,156,70.9c6.2,7,7.6,13.7,19.2,13.7c4-18.6,10-27.3-2-43.9c-1-12.2,4.6-17.6,7.3-29.7
					C1932,2415.7,1926.5,2377.6,1918.2,2345.6z M1529.5,2419.6c-0.2,0-0.5,0-0.7-0.1C1529,2419.5,1529.3,2419.5,1529.5,2419.6z
					 M1527.5,2419.4c-0.3,0-0.5,0-0.8-0.1C1527,2419.3,1527.3,2419.3,1527.5,2419.4z M1525.6,2419.2c-0.3,0-0.6,0-0.8-0.1
					C1525,2419.1,1525.3,2419.2,1525.6,2419.2z M1523.6,2419c-0.3,0-0.6,0-0.9-0.1C1523.1,2419,1523.4,2419,1523.6,2419z
					 M1521.7,2418.9c-0.3,0-0.6,0-0.9,0C1521.1,2418.9,1521.4,2418.9,1521.7,2418.9z M1519.7,2418.8c-0.3,0-0.6,0-0.9,0
					C1519.1,2418.8,1519.4,2418.8,1519.7,2418.8z M1517.7,2418.8c-0.3,0-0.6,0-0.9,0C1517.1,2418.8,1517.4,2418.8,1517.7,2418.8z
					 M1511.7,2419.2c-0.3,0-0.6,0.1-0.9,0.1C1511.1,2419.2,1511.4,2419.2,1511.7,2419.2z M1515.7,2418.8c-0.3,0-0.6,0-0.9,0
					C1515.1,2418.9,1515.4,2418.8,1515.7,2418.8z M1513.7,2419c-0.3,0-0.6,0-0.9,0.1C1513.1,2419,1513.4,2419,1513.7,2419z
					 M1509.7,2419.5c-0.3,0.1-0.6,0.1-0.8,0.2C1509.1,2419.6,1509.4,2419.5,1509.7,2419.5z M1507.7,2419.9c-0.3,0.1-0.5,0.1-0.8,0.2
					C1507.2,2420,1507.4,2420,1507.7,2419.9z M1505.7,2420.5c-0.2,0.1-0.4,0.1-0.6,0.2C1505.2,2420.6,1505.4,2420.5,1505.7,2420.5z
					 M1531.3,2419.7c0.4,0,0.9,0.1,1.3,0.1C1532.1,2419.8,1531.7,2419.8,1531.3,2419.7z M1547.8,2419.5c0.3-0.1,0.6-0.2,0.9-0.4
					C1548.5,2419.2,1548.1,2419.4,1547.8,2419.5z M1549.1,2419c0.3-0.1,0.6-0.3,0.9-0.5C1549.7,2418.6,1549.4,2418.8,1549.1,2419z
					 M1550.2,2418.3c0.3-0.2,0.5-0.4,0.8-0.6C1550.7,2417.9,1550.5,2418.1,1550.2,2418.3z M1551.1,2417.6c0.3-0.2,0.5-0.5,0.7-0.7
					C1551.6,2417.1,1551.4,2417.3,1551.1,2417.6z M1554.1,2412.8c0.1-0.5,0.3-1,0.4-1.5C1554.3,2411.8,1554.2,2412.3,1554.1,2412.8z
					 M1552,2416.7c0.2-0.3,0.5-0.6,0.7-0.9C1552.5,2416.1,1552.3,2416.4,1552,2416.7z M1552.8,2415.5c0.2-0.3,0.4-0.7,0.6-1.1
					C1553.2,2414.8,1553,2415.2,1552.8,2415.5z M1553.5,2414.2c0.2-0.4,0.3-0.8,0.5-1.3C1553.9,2413.4,1553.7,2413.8,1553.5,2414.2z
					"/>
				<path fill-rule="evenodd" clip-rule="evenodd" fill="#F3F8F9" d="M1406.5,2393.3c-12.3-1.9-22.9-7.2-35.8-7.8
					c-13.8-0.6-26.6-0.4-40.7-1.8c-7-0.7-26.4-7.7-31.2-10.9c-18.7-12.5,28.4-53,65.6-22.7C1375.3,2359,1401.6,2382.7,1406.5,2393.3
					L1406.5,2393.3z M1429.8,2379.4c1.6-20.1,3-34.3,13.5-46.7c5.3-6.2,28-26.5,39.1-14.7
					C1496.4,2332.8,1442.5,2374.9,1429.8,2379.4L1429.8,2379.4z M1284.4,2313.2c7.7,3.5,31.3-0.6,43.2,0.4
					c26.1,2.2,79.2,20.6,77.3,64.7c-10.5-7.2-14.4-15.8-24.4-23.9c-7.1-5.7-20.8-18.3-29.7-20.9c-29.3-8.9-63.4,13-64.8,34.8
					c4.8,24.9,79.4,23,85.9,23.9c9.8,1.4,36.4,11,42.2,9.2c24.5-7.3,27.3-2.2,45.5-9.3c26.7-10.4,42-32,63.4-47.1
					c10.9-7.7,21.6-15.4,39.5-15.6c11-0.1,46,7.1,50.5-4c-4.8-3.5-49.2-3.3-58.5-2.4c-44.1,4.2-70.8,69.4-123.4,66.2
					c6.9-8.4,24.9-15,41.9-33c45-47.7-3.8-68.1-37.2-24.9c-15.9,20.6-5,46.9-22.8,53.9c-1-36.4-14.8-54-42.5-65.8
					c-23.2-9.9-51.4-17.9-77.5-12.4C1283.4,2309,1286.5,2307.4,1284.4,2313.2L1284.4,2313.2z"/>
				<g>
					<g>
						<path fill-rule="evenodd" clip-rule="evenodd" fill="#C74D4D" d="M1879.2,2480.6l6.6,0.5c-0.5-7.7-1.9-4.9,1.4-10.2
							c5.6,1.2,11.3,4.3,14.7,7.2c0.3,0.3,0.7,0.7,1,1l5,4.2c1.9,0.9,13.6-4.2,7.7,27.9c-8.2-1.8-11.7-9.4-18.1-14.4
							C1890,2491,1884.3,2486.9,1879.2,2480.6L1879.2,2480.6z M1879.2,2480.6c-6-1.8-43.8-24.1-62.9-27.1c1.1-11.3-0.5-8.1-4.6-19.5
							c7.1,1.4,15.1,5.6,22,8.3c13.2,5.2,8.7,6,14.1,16.2c6.6-2.3,5.2-5.2,6.7-7.5l28,11C1879.9,2471,1876.9,2467.4,1879.2,2480.6
							L1879.2,2480.6z M1503.1,2421.4c33.6-3.1,93.4-1.4,124.5,4.4c19.4,3.6,40.7,0.7,61.6,1.8c17.4,0.9,38.9,6.4,55.1,9.8
							c41.1,8.5,126.4,37.5,156,70.9c6.2,7,7.6,13.7,19.2,13.7c4-18.6,10-27.3-2-43.9c-15.5-18.8-92-47.3-120.9-59.9l-47.2-20.2
							c-5.2-1.7-47.7-10.2-54.4-9.3l-34.2,0.5c-7.5-2-1.5-1.3-8.4-4.9c-9,5.6-1.3,5.3-16.3,5.2c-6.1,0-11.9-1.5-17.2,1.2
							c1.6,8.5,14.2,7.2,31,6.4l0.4,15.2c10.4-6.8,2.9-5.7,8.2-14.6l42.7-0.5c12.7,21.5-0.9,13.8,10.7,18.4
							c1.8-6.7,1.4-11.2-1.2-17.6c7.2,0.2,21.2,3.9,28.5,5.9c21.6,6,7.3,14.6,17.2,21.9c5.1-3.3,1.2,0.4,3.6-5l2.1-6.8
							c0.1-0.5,0.2-1.2,0.5-1.8c22.5,5.8,41.1,15.3,46.7,36.6c-10.1-1.1-35.4-11.1-45.9-14.1c-15.8-4.5-33.1-8.2-48.1-11.1
							c-38.6-7.6-54.9-1.9-83.3-4.2c-9.6-0.8-16.2-3.4-27.1-3.9c3.7-9.4,12.2-14.9,6.6-22.7c-6,1.9-12.4,15.4-15.3,21.1l-41.8-2.7
							C1550.6,2430,1523.6,2412.8,1503.1,2421.4L1503.1,2421.4z"/>
						<path fill-rule="evenodd" clip-rule="evenodd" fill="#C74D4D" d="M965.7,2554.6c0,21.3-13.9,22.8-0.1,51.3
							c2.7,5.6,3.9,11.3,7.6,15.5l5.5,0.2c0.7-9.1,13.2-30.6,18.1-39c16.8-29,28.6-30.1,66.1-50.2l40.6-18.1
							c-5.1-1.7-2.1,0.9-4.8-2.9c10.3-1.4,5.7,0,7.7-11.6c2.8-16.2,14.7-22.2,15.9-33.9c-16.2,3.4-21.7,23.7-24.3,40.5l-19.1,8.3
							c-0.3-17.4,12.2-18,15-32.7c-15.7,3-21.1,18.8-22.8,36.5c-8.4,5-30.8,17.1-40.5,20.4c0.6-14.4,9.5-20.7,5.1-27.3
							c-10.7,5.3-12.8,19.9-11.1,33.7c-10.3,4.2-14.6,13.9-22.6,14.3c-0.8-12.9,5.9-13.6,4.4-22.9c-18,2-8.1,28.4-11.4,35.8
							c-5.8,12.8-12.9,19.1-17.8,35.7l-7.1-8.6c-11.6-22.9,7.5-48.1,21.1-61.5c40-39.5,70.2-58.8,125.5-78.6
							c12.2-4.4,26.3-8.6,38.6-12.3c14.3-4.4,32.7-7.1,35.3-15.5c-9.8-4.8-115,35.2-128.7,42.4c-20,10.5-58.8,41.6-75.3,57.4
							C974.2,2543.3,972.1,2551.6,965.7,2554.6L965.7,2554.6z"/>
						<path fill-rule="evenodd" clip-rule="evenodd" fill="#C74D4D" d="M1506.7,2191.1c-8.9,14-14,30.3-22.4,44
							c-6.4,10.4-22.6,26-36.2,29.2l2.4,7.8c15.5,1.9,16.6-4.9,26.1,0.6l4.3,3.2c28.4-8.7,60.2-9.9,90-19.4
							c13.8-4.4,71.3-26.1,74.8-35.1c-6.7-4.6-24.8,7.2-33.3,10.9c-12.1,5.3-24.5,10.6-36.2,14.7c-14.6,5.1-67.5,18.9-81.7,17.9
							c19.3,1.2,55.3-36.7,66.3-49.4c10-11.6,15.5-21.7,24.1-35.1c10.9-17,24.2-29.4,25.8-37.3c-20.3,3.9-37,48.1-59.4,73.1
							c-17.8,19.9-45.7,45.5-84.3,47.3c9.7-10.7,16.4-8.9,29.8-36.7c4.3-8.9,5.8-13.4,10.3-22.2c6.2-12,12.2-10.2,13.8-22.8
							c-10.1,1.9-1.9-1.1-8.7,3.7C1509.7,2187,1508.7,2189,1506.7,2191.1L1506.7,2191.1z"/>
						<path fill-rule="evenodd" clip-rule="evenodd" fill="#C74D4D" d="M1396.5,2269.5l-4.8-1.3c-10.2-3.6-24.9-23.1-38.3-31.6
							c-31.3-19.8-61.5-32.2-91-50.1c-9.6-5.8-38.7-25.1-46.8-20.3c3.6,9.5,119.1,66.1,133.8,76.4c11.9,8.3,29.3,28.5,38.3,32.7
							c-2,46.1-54.5-16.2-144.6-6.7l-41.2,6.9c-8.1,2.3-6.6,0.1-8.5,7.1c27.8,4.7,37.9-22.8,144.4,6.4
							C1377.6,2299.9,1388.9,2315.2,1396.5,2269.5L1396.5,2269.5z"/>
						<path fill-rule="evenodd" clip-rule="evenodd" fill="#C74D4D" d="M1373.2,2237.9c-3.2-5.4-8-8.8-11.9-12.7
							c-8.3-3-63.2-48.5-72.3-57c-10.6-10-24.2-19.9-32-31.2c-6.2-9-21.8-32.3-32.6-31.5c0.9,9.1,9,12.7,14.4,19
							c20.9,24.5,7.8,18.9,51.8,54.4l78,63.5C1374.6,2240.6,1371.2,2243.2,1373.2,2237.9L1373.2,2237.9z"/>
						<path fill-rule="evenodd" clip-rule="evenodd" fill="#C74D4D" d="M1048.2,2098.6l-19.9,4.6c-0.5,0.2-1,0.6-1.4,0.8l-2.6,2
							c4.2,15.7,69.6-20.2,107.2-8.9c4.7,1.4,10.4,3.5,14.9,5.5c6.6,2.9,10.7,6.4,16.6,2.4c-7.2-12-39-18.2-55.7-17.5
							C1088.8,2088.2,1056.8,2102.3,1048.2,2098.6L1048.2,2098.6z"/>
						<path fill-rule="evenodd" clip-rule="evenodd" fill="#C74D4D" d="M1479.7,2284.6c6,4.3,78.1,6.8,93.3,4.9
							c9.4-1.2,7.3,0.4,10-4.9c-9.9-5.4-38.9-1.1-52.7-2.6l-41.6-1.7C1475.9,2281,1481.9,2282.8,1479.7,2284.6L1479.7,2284.6z"/>
					</g>
				</g>
			</g>
			<g>
				<g>
					<path fill-rule="evenodd" clip-rule="evenodd" fill="#F6CAA3" d="M1539,1978.2c-1.7,9.1-5.1,14-7.3,24.3
						c-1.7,8.1-4,18.1-5,27.2c-2.1,18.2,3.1,41.2,7.7,56.8l-1.7,4.7c-0.5,1.6-0.7,3.1-1.3,5.1c-7,24.8-9.7,14.6-10.7,51.7
						c-0.3,10.8-2.7,11.3-3.1,20.3c13.4-9.9,23.5-25.5,39.9-35.7c10-6.2,15.9-7.2,27.4-11.3c16.9-6,69.4-55.1,144.5-46
						c-3.6-12.4-13.6-13.9-17.9-29.6c-3.7-13.6-7.5-23.5-15.3-31.5c-8.8-9-17.8-11.4-26.4-20.5c-44.8-47.7-55.4-44.9-39.5-92.4
						c6.6-19.6,8.7-12,8.7-39.3c0-19.2,6.6-25.3-4.5-40.9c-7.6,0.6-6.8-0.5-10,5.5c-2-16.8-1.8-16.5-16.4-12.1
						c-2.3-7.2-2-6.7-6.8-11.4c-9,0.1-6.5-0.9-10.6,5.4c-8.2-15.7-18.2-11-22.4,10.6l-1.7,6.4c-0.8-17.1,3.9-23.6-8.1-33
						c-18.3-1.8-24.9,17-21,33.5c6.4,26.8-7.3,22.6-2.6,49.7c5.8,32.9,8.8,39.9,4.2,75.4C1537.4,1963.8,1540.5,1967.9,1539,1978.2
						L1539,1978.2z"/>
					<path fill-rule="evenodd" clip-rule="evenodd" fill="#E4AF83" d="M1539,1978.2c-1.7,9.1-5.1,14-7.3,24.3
						c-1.7,8.1-4,18.1-5,27.2c-2.1,18.2,3.1,41.2,7.7,56.8l1.4,10.6c5.3-1.9,3.3-0.7,7.8-11.1c4.2-9.6,19.3-30.9,10.8-42.2
						c-11.2,0.1-1.7-2.7-13.6,15.9c-5-16.8-7.5-34.8,1.9-50.2l3.9-5.6c0.3,7.3,0.5,32.1,5.8,38.3c7.6-9-0.5-28.4,5.7-58.7
						c4-19.7,4.3-33.7,22.9-40.4l4.4,8.5c9.7,23.3,18.5,44.8,8.9,66.6c-5.9,13.3-11.6,16.5-15.3,34.2c-2.5,12.1,1.4,33.2,12.1,37.7
						c5.3-8.2-9.1-15.9-5-37.5c4.7-24.7,31.5-42.7,16.7-76c-2.6-6-15.1-29.5-11.8-36.1c20.1-5.2,18.5,5.3,29.8,6.3
						c2.4-19.6-36.2-50-60-45.4C1545.1,1918.7,1554.9,1962.2,1539,1978.2L1539,1978.2z"/>
				</g>
				<g>
					<path fill-rule="evenodd" clip-rule="evenodd" fill="#F6CAA3" d="M1229.6,2067.3l4.3,2.8c1.6,0.7,5.1,1.7,7.5,2.3
						c19.8,8.3,30.5,19.6,42.9,31.1c14.7,13.6,17.6,26.7,37.9,36.8c1.8,2.3,3.2,3.8,4.9,7.1c6.2-42,5.1-15.4,2.6-58.9
						c-0.6-9.6-3.7-21.2-3.4-28.4c0.8-19.4,12.9-29.3,5.1-86.8c-1.5-11.3,1.1-19.7,1.8-29.6c0.8-11.2-0.6-20.9-0.5-31.9
						c0.4-14.5-2.3-26.1-1.8-41.9c0.5-12.9,2.8-25.5,4.2-38.3c6.6-60.4-22.5-48.5-27.4-38.7c-12.6-4.9-15-7.7-24.8,5.4
						c-5.5-3.5-3.9-4.9-12.2-5.6c-5.2,4.9-4.3,4.1-6,12.3c-12.2-14.1-8.9-3.2-21.7-2.7c-4.4,0.2-2.1-1.8-9.2,0.5
						c-2.4,5.2-4.2,63.8-2.7,72.4c4,22.7,11.1,39.2,9.9,65.3c-3.4,12-23.8,30-34.8,38.7c-6,4.8-13.7,10.1-21.7,15.2
						c-7.9,5-17.5,5.9-25.4,10.3c-30.9,5-34.6,38.9-64.6,56.9c-6.9,4.1-6.4,1.7-9.5,9.1c19.9-0.9,17.3-2.2,33.7-7.5
						c10.7-3.5,23.8-5.6,35.7-6.9C1191.2,2052.2,1200.4,2062.1,1229.6,2067.3L1229.6,2067.3z"/>
					<path fill-rule="evenodd" clip-rule="evenodd" fill="#E4AF83" d="M1240.9,1940.5c-3.4,12-23.8,30-34.8,38.7
						c-6,4.8-13.7,10.1-21.7,15.2c-7.9,5-17.5,5.9-25.4,10.3c-0.7,6.8-1.9,2.5,0.4,6c14.6-3.2,34.6-16.3,48.2-8.1
						c5.5,3.4,4.8,3.3,10.1,6c20.4,10,14.7,15.8,24.2,20.3c5.7-8.5-4.8-18.1-9.4-22.9c-7.6-7.9-13.1-7-17.7-17.4
						c2.5-5,39.6-49.3,52-50.5c10.1-1,7.7,1.2,13.1,4.3c0.4,0.2,0.9,0.5,1.3,0.8c8.6,4.5,14.1,3.8,27.6,19.3
						c17.6,20.4,12.2,60.1,9,82.2c-12.4-4.3-6.9-14.5-24.9-16c1.8,13.5,19.7,29.3,24.8,47.4c5.5,19.5,6.3,43.2,4.2,64.3
						c1.8,2.3,3.2,3.8,4.9,7.1c6.2-42,5.1-15.4,2.6-58.9c-0.6-9.6-3.7-21.2-3.4-28.4c0.8-19.4,12.9-29.3,5.1-86.8
						c-1.5-11.3,1.1-19.7,1.8-29.6c0.8-11.2-0.6-20.9-0.5-31.9c-11.5-1.6-3.2-1.6-7.1,1.1c-0.2,11.1,2.5,12.3-3.7,21.5
						c-12.4-0.8-23.6-26.5-43.3-29.8C1249,1899.8,1250,1931,1240.9,1940.5L1240.9,1940.5z"/>
					<path fill-rule="evenodd" clip-rule="evenodd" fill="#E6B186" d="M1229.6,2067.3l4.3,2.8c1.6,0.7,5.1,1.7,7.5,2.3
						c-4.7-2.3-1.5-0.2-3.9-4.2c3.3-7.5,8.2-17.4,8.5-26.5c-10.7,1-2.1-0.2-9.7,6.3c-0.9-8.2-0.3-13.1-6.6-17.7
						c-1.5,2.8-1.2,1-1.8,5.3C1226.4,2047.3,1236.1,2053.9,1229.6,2067.3L1229.6,2067.3z"/>
				</g>
			</g>
		</g>
		<g>
			<path fill="#F7EE33" d="M1309.5,45.8c-160.8-98.6-371-48.3-469.7,112.5c-98.6,160.8-48.3,371,112.5,469.7s371,48.3,469.7-112.5
				C1520.7,354.7,1470.3,144.5,1309.5,45.8z M1046.8,474.1c-75.8-46.5-99.5-145.6-53-221.3c46.5-75.8,145.6-99.5,221.3-53
				c75.8,46.5,99.5,145.6,53,221.3S1122.6,520.6,1046.8,474.1z"/>
			<g>
				<path fill="#E9545E" d="M1067.6,1.4l391.2,240c-16-55-45.8-106-88-147.6L1239,12.9C1182.9-5.9,1123.9-9.3,1067.6,1.4z"/>
				<path fill="#E9545E" d="M899.8,85.5l168.4,103.3c46.2-19.6,100.9-17.3,147,11c46.1,28.3,72.9,76,76.4,126.1l168.4,103.3
					c7.9-28.3,12.1-57.1,12.6-85.9L970.6,35.3C945.2,48.8,921.4,65.6,899.8,85.5z"/>
				<path fill="#E9545E" d="M1268.1,421.1c-12.3,20.1-28.3,36.5-46.6,48.9l160.5,98.5c14.7-16,28.2-33.7,40-52.9
					c2.4-3.9,4.7-7.9,7-11.9L1274.8,409C1272.8,413.1,1270.6,417.1,1268.1,421.1z"/>
				<path fill="#E9545E" d="M993.8,252.8c2.4-4,5-7.8,7.7-11.4l-154.2-94.6c-2.5,3.8-5,7.7-7.4,11.6c-11.8,19.3-21.5,39.2-29.1,59.6
					l160.5,98.5C974.1,294.5,981.5,272.8,993.8,252.8z"/>
				<path fill="#E9545E" d="M1046.8,474.1c-20.9-12.8-37.8-29.6-50.4-48.8l-205-125.8c-3.5,32-2.4,64.1,3,95.5l437.2,268.2
					c30.4-9.4,59.5-23,86.5-40.6l-205-125.8C1090.3,494.4,1067.6,486.9,1046.8,474.1z"/>
				<path fill="#E9545E" d="M952.4,628c47,28.8,98.3,44.9,149.8,49.3L840.6,516.8C867.8,560.8,905.3,599.2,952.4,628z"/>
			</g>
			<path fill="#F9D52D" d="M1223.9,185.3c71.9,44.1,100.4,132.3,71.9,208.5c41.6-78.9,15.3-177.6-61.9-224.9
				c-77.1-47.3-177-26-228.5,46.8C1060.5,155.8,1152,141.2,1223.9,185.3z"/>
			<path fill="#F9D52D" d="M1438.6,408.3c-4.5,9.2-9.5,18.3-15,27.2c-95.3,155.3-298.3,203.9-453.6,108.7
				c-86.4-53-139.8-139.5-153.8-232.5c-9.1,114.6,44.9,230.1,149.7,294.4c148.6,91.2,343,44.6,434.2-104
				C1418.3,472.2,1431.1,440.6,1438.6,408.3z"/>
			<path fill="#FFFFFF" d="M1301.6,91.4c18.3,11.2,35.1,24,50.4,38c-20.8-31-48.5-58.1-82.4-78.9c-126.6-77.7-292.2-38-369.8,88.6
				c-0.6,1-1.2,2-1.8,3C1001.7,35,1169.3,10.2,1301.6,91.4z"/>
			<path fill="#FFFFFF" d="M1081.3,519.8c-10.6-2.6-20.7-6.2-30.3-10.6c14.9,11.7,32.5,20.5,52.1,25.3c73.2,17.9,147.1-27,165-100.2
				c0.1-0.6,0.3-1.2,0.4-1.7C1235,500.5,1157.9,538.5,1081.3,519.8z"/>
			<g>
				<path fill="none" d="M1223.9,185.3c-11.7-7.2-23.9-12.8-36.3-16.9l67.9,41.6C1246.1,200.8,1235.6,192.5,1223.9,185.3z"/>
				<path fill="#D14B54" d="M1295.8,234.8l-40.3-24.7c33.7,33.4,51.7,78.9,51.3,125.1l6.9,4.2C1319,303.4,1312.6,266.7,1295.8,234.8
					z"/>
				<path fill="#D14B54" d="M1187.6,168.5l-40.3-24.7c-36-0.5-71.7,10.4-101.3,31.4l6.9,4.2C1093.8,158.1,1142.5,153.5,1187.6,168.5
					z"/>
				<path fill="#D14B54" d="M816.2,311.7c-0.1,1-0.1,2-0.2,3l0.7,0.5C816.5,314,816.4,312.8,816.2,311.7z"/>
				<path fill="#D14B54" d="M1438.6,408.3c-1,2-2,3.9-3,5.9l1.3,0.8C1437.5,412.8,1438,410.5,1438.6,408.3z"/>
				<path fill="#D14B54" d="M1400,502c2.4-3.9,4.7-7.9,6.9-11.9l-16.2-10c-18.6,21.4-39.6,39.9-62.4,55.4l31.2,19.2
					C1374.6,538.9,1388.2,521.3,1400,502z"/>
				<path fill="#D14B54" d="M1115.2,591.8l86.2,52.9c32.3-7.4,63.5-19.9,92.2-37.1l-50-30.6C1202.4,590.2,1158.7,595.4,1115.2,591.8
					z"/>
				<path fill="#D14B54" d="M816.7,315.1l-0.7-0.5c-2.3,33.4,0.7,66.8,8.7,99l37,22.7C838.8,399.1,823.6,357.8,816.7,315.1z"/>
				<path fill="#D14B54" d="M965.9,606c23.9,14.7,49,25.8,74.7,33.4l-138.3-84.8C920.7,574,942,591.4,965.9,606z"/>
			</g>
		</g>
		<g>
			<path fill="#C565A9" d="M390.9,720.7c-179.8,56.9-279.4,248.8-222.5,428.6c56.9,179.8,248.8,279.4,428.6,222.5
				c179.8-56.9,279.4-248.8,222.5-428.6C762.6,763.4,570.7,663.8,390.9,720.7z M542.5,1199.7c-84.7,26.8-175.2-20.1-202-104.9
				c-26.8-84.7,20.1-175.2,104.9-202c84.7-26.8,175.2,20.1,202,104.9C674.2,1082.5,627.2,1172.9,542.5,1199.7z"/>
			<path fill="#A94A8C" d="M440.3,876.8c80.5-25.5,165.7,10.7,204.7,82.2c-32.4-83.1-124.2-127.8-210.5-100.5
				c-86.2,27.3-135.6,116.7-114.3,203.3C310.9,980.9,359.8,902.2,440.3,876.8z"/>
			<path fill="#A94A8C" d="M749.3,860.6c4,9.5,7.6,19.2,10.7,29.2c55,173.7-41.3,359-214.9,414c-96.7,30.6-197,14.3-276.4-36.1
				c80.7,81.9,203.3,116.7,320.5,79.6c166.2-52.6,258.3-230,205.7-396.3C784.4,917.7,768.8,887.4,749.3,860.6z"/>
			<path fill="#FFFFFF" d="M420.1,756.5c20.5-6.5,41.2-10.8,61.8-13.2c-37.1-4.5-75.7-1.4-113.6,10.6
				c-141.6,44.8-220,195.9-175.2,337.5c0.4,1.1,0.7,2.2,1.1,3.3C181.1,946.3,272.1,803.4,420.1,756.5z"/>
			<path fill="#FFFFFF" d="M599.6,1203.6c-8.9,6.3-18.2,11.6-27.8,15.9c18.6-3.6,36.8-11.1,53.2-22.8c61.5-43.6,76-128.8,32.3-190.3
				c-0.3-0.5-0.7-1-1-1.4C685.7,1074.8,663.9,1158,599.6,1203.6z"/>
		</g>
		<g>
			<path fill="#A8D232" d="M2807.4,1194.8c-39.3-184.5-220.7-302.2-405.1-262.9c-184.5,39.3-302.2,220.7-262.9,405.1
				s220.7,302.2,405.1,262.9C2729,1560.7,2846.7,1379.3,2807.4,1194.8z M2316,1299.5c-18.5-86.9,37-172.4,123.9-190.9
				s172.4,37,190.9,123.9s-37,172.4-123.9,190.9C2420,1441.9,2334.5,1386.4,2316,1299.5z"/>
			<path fill="#6EA22E" d="M2647.4,1228.9c17.6,82.6-26.7,163.9-101.5,195.8c85.8-24.2,139.2-111.3,120.4-199.8
				c-18.8-88.5-103.1-146.2-191.3-133.4C2556.2,1090.1,2629.8,1146.4,2647.4,1228.9z"/>
			<path fill="#6EA22E" d="M2633.6,1538.1c-9.8,3.1-19.8,5.7-30.1,7.9c-178.2,37.9-353.4-75.7-391.3-253.9
				c-21.1-99.2,4.7-197.5,62.6-271.6c-89.3,72.4-135.8,191.1-110.2,311.3c36.3,170.5,204,279.3,374.5,243
				C2573.4,1567.5,2605.1,1554.9,2633.6,1538.1z"/>
			<path fill="#FFFFFF" d="M2769,1220.5c4.5,21,6.8,42,7.2,62.7c8.1-36.4,8.7-75.2,0.4-114.1c-30.9-145.3-173.8-237.9-319-207
				c-1.1,0.2-2.3,0.5-3.4,0.8C2603.1,964.3,2736.6,1068.6,2769,1220.5z"/>
			<path fill="#FFFFFF" d="M2306.7,1356c-5.4-9.5-9.8-19.3-13.2-29.2c1.7,18.9,7.5,37.7,17.5,55.2c37.5,65.4,120.9,88,186.3,50.6
				c0.5-0.3,1-0.6,1.5-0.9C2426.6,1454.1,2345.9,1424.4,2306.7,1356z"/>
		</g>
		<rect x="2337.2" y="1317.6" fill="#FFFFFF" width="40" height="528.1"/>
		<rect x="422.8" y="1028" fill="#FFFFFF" width="40" height="453.6"/>
		<rect x="1152.7" y="422.8" fill="#FFFFFF" width="441" height="40"/>
	</g>
</g>
</svg>
