<?xml version="1.0" encoding="utf-8"?>
<!-- Generator: Adobe Illustrator 22.0.1, SVG Export Plug-In . SVG Version: 6.00 Build 0)  -->
<svg version="1.1" id="Calque_1" xmlns="http://www.w3.org/2000/svg" xmlns:xlink="http://www.w3.org/1999/xlink" x="0px" y="0px"
	 viewBox="0 0 380 380" style="enable-background:new 0 0 380 380;" xml:space="preserve">
<style type="text/css">
	.st0{opacity:0.81;}
	.st1{clip-path:url(#SVGID_2_);fill:#D9841E;}
	.st2{opacity:0.43;clip-path:url(#SVGID_4_);fill:#F1CC08;enable-background:new    ;}
	.st3{clip-path:url(#SVGID_6_);fill:#F1CC08;}
	.st4{clip-path:url(#SVGID_8_);fill:#2698B7;}
	.st5{clip-path:url(#SVGID_10_);fill:#43B3CE;}
	.st6{clip-path:url(#SVGID_12_);fill:#255561;}
	.st7{clip-path:url(#SVGID_14_);fill:#D9841E;}
	.st8{clip-path:url(#SVGID_16_);fill:#D9841E;}
	.st9{clip-path:url(#SVGID_18_);fill:#D9841E;}
	.st10{clip-path:url(#SVGID_20_);fill:#D9841E;}
	.st11{clip-path:url(#SVGID_22_);fill:#D9841E;}
	.st12{clip-path:url(#SVGID_24_);fill:#D9841E;}
	.st13{clip-path:url(#SVGID_26_);fill:#D9841E;}
	.st14{clip-path:url(#SVGID_28_);fill:#D9841E;}
	.st15{clip-path:url(#SVGID_30_);fill:#D9841E;}
	.st16{clip-path:url(#SVGID_32_);fill:#D9841E;}
	.st17{clip-path:url(#SVGID_34_);fill:#255561;}
	.st18{clip-path:url(#SVGID_36_);fill:#255561;}
	.st19{clip-path:url(#SVGID_38_);fill:#E28C2D;}
	.st20{clip-path:url(#SVGID_40_);fill:#D9841E;}
	.st21{clip-path:url(#SVGID_42_);fill:#D9841E;}
	.st22{clip-path:url(#SVGID_44_);fill:#E28C2D;}
	.st23{clip-path:url(#SVGID_46_);fill:#E28C2D;}
	.st24{clip-path:url(#SVGID_48_);fill:#E28C2D;}
	.st25{clip-path:url(#SVGID_50_);fill:#E28C2D;}
	.st26{clip-path:url(#SVGID_52_);fill:#255561;}
	.st27{clip-path:url(#SVGID_54_);}
	.st28{fill:#E94E33;}
	.st29{fill:#F4EFDA;}
	.st30{opacity:0.47;fill:#72302C;enable-background:new    ;}
	.st31{opacity:0.24;fill:#A9A9AA;enable-background:new    ;}
	.st32{fill:none;}
	.st33{opacity:0.57;fill:#72302C;enable-background:new    ;}
	.st34{opacity:0.57;fill:#8F7B79;enable-background:new    ;}
	.st35{opacity:0.17;fill:#797167;enable-background:new    ;}
	.st36{fill:#14131B;}
	.st37{fill:none;stroke:#14131B;stroke-width:1.3564;stroke-miterlimit:10;}
	.st38{fill:#081821;}
	.st39{fill:#0C2030;}
	.st40{clip-path:url(#SVGID_56_);fill:#D5916B;}
	.st41{clip-path:url(#SVGID_58_);fill:#E9B093;}
	.st42{clip-path:url(#SVGID_60_);fill:#E9B093;}
	.st43{clip-path:url(#SVGID_62_);fill:#E9B093;}
	.st44{clip-path:url(#SVGID_64_);fill:#E9B093;}
	.st45{opacity:0.36;clip-path:url(#SVGID_66_);fill:#7D685E;enable-background:new    ;}
	.st46{clip-path:url(#SVGID_68_);fill:#E9B093;}
	.st47{clip-path:url(#SVGID_70_);fill:#D5916B;}
	.st48{clip-path:url(#SVGID_72_);fill:#D5916B;}
	.st49{clip-path:url(#SVGID_74_);fill:#D5916B;}
	.st50{clip-path:url(#SVGID_76_);fill:#8D7429;}
	.st51{clip-path:url(#SVGID_78_);fill:#8D7429;}
	.st52{clip-path:url(#SVGID_80_);fill:#8D7429;}
	.st53{clip-path:url(#SVGID_82_);fill:#8D7429;}
	.st54{clip-path:url(#SVGID_84_);fill:#8D7429;}
	.st55{clip-path:url(#SVGID_86_);fill:#8D7429;}
	.st56{clip-path:url(#SVGID_88_);fill:#8D7429;}
	.st57{clip-path:url(#SVGID_90_);fill:#8D7429;}
	.st58{clip-path:url(#SVGID_92_);fill:#8D7429;}
	.st59{clip-path:url(#SVGID_94_);fill:#806926;}
	.st60{clip-path:url(#SVGID_96_);fill:#806926;}
	.st61{clip-path:url(#SVGID_98_);fill:#8D7429;}
	.st62{clip-path:url(#SVGID_100_);fill:#806926;}
	.st63{clip-path:url(#SVGID_102_);fill:#8D7429;}
	.st64{clip-path:url(#SVGID_104_);fill:#806926;}
	.st65{clip-path:url(#SVGID_106_);fill:#967C32;}
	.st66{clip-path:url(#SVGID_108_);fill:#967C32;}
	.st67{clip-path:url(#SVGID_110_);fill:#675426;}
	.st68{clip-path:url(#SVGID_112_);fill:#5C4A22;}
	.st69{clip-path:url(#SVGID_114_);fill:#5C4A22;}
	.st70{clip-path:url(#SVGID_116_);fill:#5C4A22;}
	.st71{clip-path:url(#SVGID_118_);fill:#5C4A22;}
	.st72{clip-path:url(#SVGID_120_);fill:#5C4A22;}
	.st73{clip-path:url(#SVGID_122_);fill:#5C4A22;}
	.st74{clip-path:url(#SVGID_124_);fill:#5C4A22;}
	.st75{clip-path:url(#SVGID_126_);fill:#5C4A22;}
	.st76{clip-path:url(#SVGID_128_);fill:#5C4A22;}
	.st77{opacity:0.36;clip-path:url(#SVGID_130_);fill:#272528;enable-background:new    ;}
	.st78{clip-path:url(#SVGID_132_);}
	.st79{fill:#493828;}
	.st80{clip-path:url(#SVGID_134_);fill:#765F2F;}
	.st81{clip-path:url(#SVGID_136_);fill:#675426;}
	.st82{clip-path:url(#SVGID_138_);fill:#675426;}
	.st83{clip-path:url(#SVGID_140_);fill:#675426;}
	.st84{clip-path:url(#SVGID_142_);fill:#675426;}
	.st85{clip-path:url(#SVGID_144_);fill:#79612C;}
	.st86{clip-path:url(#SVGID_146_);fill:#675426;}
	.st87{clip-path:url(#SVGID_148_);fill:#675426;}
	.st88{clip-path:url(#SVGID_150_);fill:#675426;}
	.st89{clip-path:url(#SVGID_152_);fill:#675426;}
	.st90{clip-path:url(#SVGID_154_);fill:#675426;}
	.st91{clip-path:url(#SVGID_156_);fill:#5A481F;}
	.st92{clip-path:url(#SVGID_158_);fill:#675426;}
	.st93{clip-path:url(#SVGID_160_);fill:#806926;}
	.st94{clip-path:url(#SVGID_162_);fill:#967C32;}
	.st95{clip-path:url(#SVGID_164_);fill:#5A481F;}
	.st96{clip-path:url(#SVGID_166_);fill:#806926;}
	.st97{clip-path:url(#SVGID_168_);fill:#806926;}
	.st98{clip-path:url(#SVGID_170_);fill:#806926;}
	.st99{clip-path:url(#SVGID_172_);fill:#967C32;}
	.st100{clip-path:url(#SVGID_174_);fill:#5A481F;}
	.st101{clip-path:url(#SVGID_176_);fill:#806926;}
	.st102{clip-path:url(#SVGID_178_);fill:#967C32;}
	.st103{clip-path:url(#SVGID_180_);fill:#806926;}
	.st104{clip-path:url(#SVGID_182_);fill:#806926;}
	.st105{clip-path:url(#SVGID_184_);fill:#806926;}
	.st106{clip-path:url(#SVGID_186_);fill:#5A481F;}
	.st107{clip-path:url(#SVGID_188_);fill:#0F3849;}
</style>
<g class="st0">
	<g>
		<defs>
			<rect id="SVGID_1_" x="0" width="379.8" height="379.8"/>
		</defs>
		<clipPath id="SVGID_2_">
			<use xlink:href="#SVGID_1_"  style="overflow:visible;"/>
		</clipPath>
		<rect x="0" class="st1" width="379.8" height="379.8"/>
	</g>
	<g>
		<defs>
			<rect id="SVGID_3_" x="0" width="379.8" height="379.8"/>
		</defs>
		<clipPath id="SVGID_4_">
			<use xlink:href="#SVGID_3_"  style="overflow:visible;"/>
		</clipPath>
		<circle class="st2" cx="249.6" cy="229.6" r="57.4"/>
	</g>
	<g>
		<defs>
			<rect id="SVGID_5_" x="0" width="379.8" height="379.8"/>
		</defs>
		<clipPath id="SVGID_6_">
			<use xlink:href="#SVGID_5_"  style="overflow:visible;"/>
		</clipPath>
		
			<ellipse transform="matrix(0.1602 -0.9871 0.9871 0.1602 -17.0282 439.2675)" class="st3" cx="249.6" cy="229.6" rx="44.4" ry="44.4"/>
	</g>
	<g>
		<defs>
			<rect id="SVGID_7_" x="0" width="379.8" height="379.8"/>
		</defs>
		<clipPath id="SVGID_8_">
			<use xlink:href="#SVGID_7_"  style="overflow:visible;"/>
		</clipPath>
		<rect x="35.2" y="244.7" class="st4" width="372" height="146.5"/>
	</g>
	<g>
		<defs>
			<rect id="SVGID_9_" x="0" width="379.8" height="379.8"/>
		</defs>
		<clipPath id="SVGID_10_">
			<use xlink:href="#SVGID_9_"  style="overflow:visible;"/>
		</clipPath>
		<polygon class="st5" points="35.2,244.7 407.1,244.7 268.8,249.6 410.4,252.9 410.4,275.7 279.3,275.7 370.5,269.1 175.2,269.1 
			369.7,258.6 145.1,258.6 241.9,249.6 		"/>
	</g>
	<g>
		<defs>
			<rect id="SVGID_11_" x="0" width="379.8" height="379.8"/>
		</defs>
		<clipPath id="SVGID_12_">
			<use xlink:href="#SVGID_11_"  style="overflow:visible;"/>
		</clipPath>
		<path class="st6" d="M-10.4,99c12.4,3,25,1.8,38.3,2.4c14.7,0.7,28.6,2.6,43.9,1.5c-0.5-0.2-1.4-0.5-2.3-0.8
			c3.1-1.8,7.2-2.2,11.2-2.4c0-4.3,3.9-3.9,6.7-5.6c-3.7-3.8-9.5-5.3-13-8.8c16.4-1.1,33.2,0,49.5-1.1c-1.6-1.2-3.6-3.1-5.6-3.7
			c2-0.1,4.2-0.4,6.2-0.2c-0.2,0-1.7-0.3-0.7,0c21.7,0,43.2-0.8,65-0.8c-4,0.4-7.9,0.6-11.1,2.3c1.4,0.2,2.4,0.7,3.8,1
			c-1.5,0.1-3,0.7-4.6,0.9c1.7,1.4,3.7,2.8,6.4,3.3c-5,3.1-19.5,2.9-25.7,2.2c20.6,0.1,41.3,7.8,61.3,9.8c-3.1-1.8-6.6-2.8-8.6-5.6
			c1.5,0,3.1-0.3,4.6-0.1c-2.6-0.5-5.1-1.1-7.7-1.7c22,0.3,43.4,5.5,65.8,4.9c-0.4,0-4.5,1.9-5.9,2.4c1,0.1,2.9,0.9,4.7,0.8
			c-2.9,1.5-6.3,1.8-8.6,4c15,2,30.3,4.7,46,5.1c-2.2-0.9-4.5-2.5-6.8-3.3c1.5-0.1,2.9-0.8,4.5-0.9c-0.9-0.8-1.6-3.8-2.2-4.6
			c13-0.7,36.4-4.1,46.9,4c-3,0.1-4.8,1.4-6.8,3.4c14.5,9.1,45.2,6.5,57.5,7.9c0-0.3,0,0.3,0,0V-19.2H-12.2L-10.4,99z"/>
	</g>
	<g>
		<defs>
			<rect id="SVGID_13_" x="0" width="379.8" height="379.8"/>
		</defs>
		<clipPath id="SVGID_14_">
			<use xlink:href="#SVGID_13_"  style="overflow:visible;"/>
		</clipPath>
		<path class="st7" d="M-13.7,85.2c3.6-0.1,7.2-0.4,10.6,0.8h55.6c-5.2,0-10.6-1.8-15.5-3.3c3.9-0.4,8.4-0.5,11.7-1.8
			c-1.6,0.1-4.2-0.9-6.2-0.7c3.9-5.5-1.7-6.7-6.5-5.1c0.7-6.6-5.8-5.3-7.6-0.8c-2.7-2-5.2-1.8-7.2,0.8c-0.7,0-3.1-0.5-3.9-0.6
			c-0.1-4.4-2.1-9.8-7.4-9c-0.4-9.3-36.3-7.8-14,4.2c-3.3,3.7-6.2,8.7-0.8,12.1C-8.1,82.6-14.5,84.9-13.7,85.2z"/>
	</g>
	<g>
		<defs>
			<rect id="SVGID_15_" x="0" width="379.8" height="379.8"/>
		</defs>
		<clipPath id="SVGID_16_">
			<use xlink:href="#SVGID_15_"  style="overflow:visible;"/>
		</clipPath>
		<path class="st8" d="M57.2,73.8c19,0,41.8,7.9,60,1.6c-3.6-0.5-7.2-1.1-11-1.7c0.1-1.2-0.4-2.7-0.2-3.8c-1.3,0.8-3.3,0.7-4.8,2
			c-0.7-3.8-4.3-3.1-7.1-1.4c-1.4-2.9-4.4-2.8-7.4-1.6c-1.9-4.3-14.6-4.9-15.7,1.6C67,71.7,61,71.6,57.2,73.8z"/>
	</g>
	<g>
		<defs>
			<rect id="SVGID_17_" x="0" width="379.8" height="379.8"/>
		</defs>
		<clipPath id="SVGID_18_">
			<use xlink:href="#SVGID_17_"  style="overflow:visible;"/>
		</clipPath>
		<path class="st9" d="M123.9,67.3c8.3,0,16.3,0.7,24.2,1.6c-11.1,0-23.4,2.7-33.9,1.4c4.6-2.3,10.6-2.2,16.2-2.3"/>
	</g>
	<g>
		<defs>
			<rect id="SVGID_19_" x="0" width="379.8" height="379.8"/>
		</defs>
		<clipPath id="SVGID_20_">
			<use xlink:href="#SVGID_19_"  style="overflow:visible;"/>
		</clipPath>
		<path class="st10" d="M94.1,42.3c-13.5-0.6-27.6-1.2-40.1-6.7c-7.1-0.2-14.1-0.4-21.2-1.7c-5.1-0.9-16.1,0-20.2-1.8
			c-3.1-1.4-3.8-5.8-7.8-7.2C0.2,23.3-7.7,25.2-12,26.6c0,5.6-4.4,11.7-4.9,17.1h130.1C106.8,43.1,100.4,42.6,94.1,42.3z"/>
	</g>
	<g>
		<defs>
			<rect id="SVGID_21_" x="0" width="379.8" height="379.8"/>
		</defs>
		<clipPath id="SVGID_22_">
			<use xlink:href="#SVGID_21_"  style="overflow:visible;"/>
		</clipPath>
		<path class="st11" d="M60.7,12c-6,0.1-12,0.3-18.2-0.1c-3.2-0.2-5.8-2.3-7.1-4.8c-3,5-14.3-0.8-19-1.7c-2-0.4-2.1,2.1-4,1.7
			c-1.1-0.2-2.8-2.5-3.2-2.5c-4.9-0.4-9.5-1-14.7,0.9c-3.9,1.4-11.9,5.5-12.9,9.6c7.3,0.5,20.5-3.2,25.7,1.7c2.2-2.8,5.1-4.1,6.7-1
			c1.4,0.5,3,0.7,4.7,1.7c1.3-3.3,4-4.6,7.4-3.7c-0.2,1.1,0.4,2.7,0.2,3.8c16.7,0.8,33.3,0.9,50.4,0.1c19.3-0.9,38.7-0.7,58-0.8
			c4.6,0,9.3-0.7,14.1-1.5C119.4,15.1,90,14.5,60.7,12z"/>
	</g>
	<g>
		<defs>
			<rect id="SVGID_23_" x="0" width="379.8" height="379.8"/>
		</defs>
		<clipPath id="SVGID_24_">
			<use xlink:href="#SVGID_23_"  style="overflow:visible;"/>
		</clipPath>
		<path class="st12" d="M403.9,88.4c-11.9,1-21.4,0.4-33.3,0.9c-0.5,3.4,2,5.1,4.7,5.4c-2.7,0-5.3,0.9-7.5,2.5
			c-3.1-3.4-6.9-6.6-11.7-3.7c3.6,1.8,4.6,4.6,7.8,6.5c-0.8,0.6-1.7,2.4-2.9,3.1c2.4-0.1,4.5,1,6.9,0.9c-0.4,1-0.2,2-0.8,3.1
			c4.2,3.3,15.4,3.5,21.2,4.1c7.7,0.8,15.8,1.1,23.5,0.7c-2.3-9.1-1.7-24-5.6-31.6"/>
	</g>
	<g>
		<defs>
			<rect id="SVGID_25_" x="0" width="379.8" height="379.8"/>
		</defs>
		<clipPath id="SVGID_26_">
			<use xlink:href="#SVGID_25_"  style="overflow:visible;"/>
		</clipPath>
		<path class="st13" d="M342.8,83.6c-4.7-2.2-12.2,0.2-17.8,0.2c0.3,0.5,1,1,1.2,1.5c-5.1-0.1-10,0-14.9-0.9
			c7.2,2.9,30.1,8.6,35.7,2.5C346.5,85.4,344.1,84.1,342.8,83.6z"/>
	</g>
	<g>
		<defs>
			<rect id="SVGID_27_" x="0" width="379.8" height="379.8"/>
		</defs>
		<clipPath id="SVGID_28_">
			<use xlink:href="#SVGID_27_"  style="overflow:visible;"/>
		</clipPath>
		<path class="st14" d="M198.8,77c20,3.5,41.5,1.1,60.8,6.5c-3.1-1.5-6.6-3.7-10.1-4.1c13.7-1.3,28.5,3.1,42.1,1.6
			c3.4-0.4,6.5-1.4,9.9-1.6c-0.2,0-4.9-1.2-6.5-1.6c0.4-0.7,0.8-1.7,1.2-2.5c-0.4-1.1-1.2-1.9-1.4-3.1c-2,0.9-3.7,0.1-5.6,2.4
			c-2-2.1-5.2-2.4-8-1c-1.4-3.3-0.7-2.8-4.2-2.7c-0.8-0.7-1.2-1.4-2.3-2.3c6.3-18.9-22.1-14.8-29.2-5c1.2-10.4-11.9-4.3-16.4-3
			c-4.6,1.3-4.7-4.3-7.5,2.4c-1.5,3.7-0.2,7.4,2.8,9.8c-0.8,0.8-2.9,2.2-4.2,2.5c-2.7-2.4-7.1-3.6-8.8-1c0.5,0.3,0.9,0.3,1.4,0
			C210.3,71.3,201.5,73.5,198.8,77z"/>
	</g>
	<g>
		<defs>
			<rect id="SVGID_29_" x="0" width="379.8" height="379.8"/>
		</defs>
		<clipPath id="SVGID_30_">
			<use xlink:href="#SVGID_29_"  style="overflow:visible;"/>
		</clipPath>
		<path class="st15" d="M393.2,23.3c-41.3-3.9-82.9-0.4-123.8-0.1c-0.1,0.2-0.1,0.4-0.1,0.5c19,2.6,42.3,2,58.1,2
			c5.8,0,12.5,5,17.9,4.2c2.5-0.4,4.7-1.2,7.3-1c2.6,0.2,5.3,2.6,7.1,2.7c4.3,0.2,8.9-1.2,13.2-1.8c4.6-0.7,9.1-1,13.8-0.8l6.5-1.6
			c8.4,0,17-0.8,25.4-0.9C410,25.6,401.2,24.1,393.2,23.3z"/>
	</g>
	<g>
		<defs>
			<rect id="SVGID_31_" x="0" width="379.8" height="379.8"/>
		</defs>
		<clipPath id="SVGID_32_">
			<use xlink:href="#SVGID_31_"  style="overflow:visible;"/>
		</clipPath>
		<path class="st16" d="M435.4,66.8c-1.4-0.3-3.1-0.3-4.4,0.3c2.1-10.5-10.4-2.2-15.5-3.3c0.6-7.5-7.6-5.8-12.2-4.9
			c-0.4-6.9,4-17.6-3.4-20.2c-6.9-2.6-13.5,5.9-17.9,9.9c-3.8-1.9-6.2,2.1-8.7,4.7c-3.9-5.6-18,5.8-24,6.6c-2,0.2-4,0.4-6.1,0.5
			c13.4,1.4,26.5,4.8,39.8,6.3c10,1.1,20.1,0.9,30.1,1.3C417.7,68.1,435.7,72.2,435.4,66.8z"/>
	</g>
	<g>
		<defs>
			<rect id="SVGID_33_" x="0" width="379.8" height="379.8"/>
		</defs>
		<clipPath id="SVGID_34_">
			<use xlink:href="#SVGID_33_"  style="overflow:visible;"/>
		</clipPath>
		<path class="st17" d="M117.4,100.6c3.9-8.2,11.6-5.8,15.5,1.4c-1.7-9.7,14-7.3,13.9,3.4c7.2-0.8,3.9,6.1,8.2,8.1
			c4.7,2.2,10.1-5.3,13.6,1.9c4.7-5.4,19.4-2.8,26-3.4c13.4-1.2,27.2-1.4,40.6-0.1c12.8,1.3,28.5,2.1,40,5.6
			c-27.8-3.8-56.5-2.9-85.2-1.4c-10.9,0.5-22.9,3.9-32.2,3.5c-3.5-0.2-9.5,0.3-13.4-0.4c-1.9-0.4-2.6-3.3-5.1-3.9
			c-1.1-0.3-5.6,2.2-7.2,2.3c-5.5-13.9-46.9-3.3-58.5-8c7.9-1.7,14.9,0.6,22.5,0.9c6.2,0.2,13.1-1.3,19.5-1.8
			c-8.8-7.1,5-13,11.4-10.4"/>
	</g>
	<g>
		<defs>
			<rect id="SVGID_35_" x="0" width="379.8" height="379.8"/>
		</defs>
		<clipPath id="SVGID_36_">
			<use xlink:href="#SVGID_35_"  style="overflow:visible;"/>
		</clipPath>
		<path class="st18" d="M312.7,167.4c5.2-3.4,8.6-2.3,13.9-2.3c1,0,2.3,2.2,3.9,2.1c0.9-0.1,1.9-2.3,3.2-2.5
			c6.7-1.1,21.6-4,27.9-0.5c2.7,1.5,2.6,5.8,5.9,7.8c1.2,0.7,7.9,1.7,9.4,2c6.8,1.4,13.6,2,20.3,3.9c-10.7,0.6-22.6-3.3-33.1-4.9
			c-9.4-1.4-18.7-1.7-28.5-1.7c-19.5,0-38.8-1.6-58.4-1.6C287.3,167.1,303.9,173.2,312.7,167.4z"/>
	</g>
	<g>
		<defs>
			<rect id="SVGID_37_" x="0" width="379.8" height="379.8"/>
		</defs>
		<clipPath id="SVGID_38_">
			<use xlink:href="#SVGID_37_"  style="overflow:visible;"/>
		</clipPath>
		<path class="st19" d="M55.5,156c4.7-1.6,11.3-2.6,14.6-6.3c-6-0.4-11.4,0.9-16.9,1.3c-0.8-4.4-22.2,1.2-28.5,0.8
			c3.4-2.1,10.1-4,13.2-6.9c3.4-3.2,3.5-8.7,8.5-11.9c2.6-1.6,4.3-1.1,6.7-2.2c1.4-0.7,5.6-3.6,6.7-3.9c4.8-1.1,10.2,3.8,13.6,0.5
			c0.4,0.7,1.8,1.8,2.2,2.5c2.6-5,12.2-0.5,17.4,0c4.2,0.4,12.9-0.2,17.6,1.7c-3.1,0.4-5.8,1.2-8.6,2.6c7,5.8,13.9,4.9,23.4,2.3
			c0.7,0.6,1.3,1.4,2,2c2.2-1.7,3.2-0.5,5.4-1.2c0.8,2.7,2.2,4.4,3.5,6.2c3.4-0.5,7.5-1.1,11.2-0.5c-1.1,0.6-4.8,3-4.9,3.1
			c6.8,0,14.5-0.2,21,1.6c-7.2,3.1-18.2-2-24.9,2.3c2.8,0.4,5.4,1.2,7.8,2.7c-17.4-0.3-33.6,3.3-50.7,3.2c4.5,1.8,10.2,3,15,3.3
			c-10,0-19.9,0-29.9,0C74.4,159.2,58.3,153.5,55.5,156z"/>
	</g>
	<g>
		<defs>
			<rect id="SVGID_39_" x="0" width="379.8" height="379.8"/>
		</defs>
		<clipPath id="SVGID_40_">
			<use xlink:href="#SVGID_39_"  style="overflow:visible;"/>
		</clipPath>
		<path class="st20" d="M281.8,232.5c4.7-0.8,11.3-1.3,14.6-3.2c-6-0.2-11.4,0.5-16.9,0.7c-0.8-2.2-22.2,0.6-28.5,0.4
			c3.4-1.1,10.1-2,13.2-3.4c3.4-1.6,3.5-4.3,8.5-5.9c2.6-0.8,4.3-0.6,6.7-1.1c1.4-0.3,5.6-1.8,6.7-1.9c4.8-0.5,10.2,1.9,13.6,0.2
			c0.4,0.4,1.8,0.9,2.2,1.2c2.6-2.5,12.2-0.3,17.4,0c4.2,0.2,12.9-0.1,17.6,0.8c-3.1,0.2-5.8,0.6-8.6,1.3c7,2.9,13.9,2.4,23.4,1.2
			c0.7,0.3,1.3,0.7,2,1c2.2-0.9,3.2-0.2,5.4-0.6c0.8,1.4,2.2,2.2,3.5,3.1c3.4-0.3,7.5-0.5,11.2-0.2c-1.1,0.3-4.8,1.5-4.9,1.5
			c6.8,0,14.5-0.1,21,0.8c-7.2,1.5-18.2-1-24.9,1.1c2.8,0.2,5.4,0.6,7.8,1.3c-17.4-0.1-33.6,1.6-50.7,1.6c4.5,0.9,10.2,1.5,15,1.6
			c-10,0-19.9,0-29.9,0C300.7,234.1,284.6,231.3,281.8,232.5z"/>
	</g>
	<g>
		<defs>
			<rect id="SVGID_41_" x="0" width="379.8" height="379.8"/>
		</defs>
		<clipPath id="SVGID_42_">
			<use xlink:href="#SVGID_41_"  style="overflow:visible;"/>
		</clipPath>
		<path class="st21" d="M147.5,206.5c4.7-0.8,11.3-1.3,14.6-3.2c-6-0.2-11.4,0.5-16.9,0.7c-0.8-2.2-22.2,0.6-28.5,0.4
			c3.4-1.1,10.1-2,13.2-3.4c3.4-1.6,3.5-4.3,8.5-5.9c2.6-0.8,4.3-0.6,6.7-1.1c1.4-0.3,5.6-1.8,6.7-1.9c4.8-0.5,10.2,1.9,13.6,0.2
			c0.4,0.4,1.8,0.9,2.2,1.2c2.6-2.5,12.2-0.3,17.4,0c4.2,0.2,12.9-0.1,17.6,0.8c-3.1,0.2-5.8,0.6-8.6,1.3c7,2.9,13.9,2.4,23.4,1.2
			c0.7,0.3,1.3,0.7,2,1c2.2-0.9,3.2-0.2,5.4-0.6c0.8,1.4,2.2,2.2,3.5,3.1c3.4-0.3,7.5-0.5,11.2-0.2c-1.1,0.3-4.8,1.5-4.9,1.5
			c6.8,0,14.5-0.1,21,0.8c-7.2,1.5-18.2-1-24.9,1.1c2.8,0.2,5.4,0.6,7.8,1.3c-17.4-0.1-33.6,1.6-50.7,1.6c4.5,0.9,10.2,1.5,15,1.6
			c-10,0-19.9,0-29.9,0C166.4,208.1,150.3,205.2,147.5,206.5z"/>
	</g>
	<g>
		<defs>
			<rect id="SVGID_43_" x="0" width="379.8" height="379.8"/>
		</defs>
		<clipPath id="SVGID_44_">
			<use xlink:href="#SVGID_43_"  style="overflow:visible;"/>
		</clipPath>
		<path class="st22" d="M-1.5,154.4c7.4,0,10.9,3.5,17,4.2c1.1,2.5,24.4-1.2,30.2-0.8c-3,1.5-7.2,1.2-10.4,3.3c-0.4,0.7,1,1,1.2,1.4
			c-1.1,0.4-2.1,0.8-2.9,1.4c21,0.9,41.1,9.3,62.4,5.8c-7.4,2.9-16.6,1.4-24.8,1.7c-11.1,0.4-20.8,2.2-31.8,0
			c-9-1.8-17.9-4-28.5-3.1c-7.5,0.7-14.1,3.8-21.9,3.9c3.6-1.9,5.3-5.6,1.5-7.5C-10.3,160.1-6.4,154.8-1.5,154.4z"/>
	</g>
	<g>
		<defs>
			<rect id="SVGID_45_" x="0" width="379.8" height="379.8"/>
		</defs>
		<clipPath id="SVGID_46_">
			<use xlink:href="#SVGID_45_"  style="overflow:visible;"/>
		</clipPath>
		<path class="st23" d="M-3.9,108c2.7-4.4,19.4,0.8,20.5,5.6c1.8-0.4,4.4,0.7,6.3,0.2c0.2,0.8,0,1.4,0.2,2.2
			c14.3,0.6,28-4.9,42.1-0.5c-5.9,2-15.1,0.3-21.8,0.8c1.3,0.4,3.8,2.5,4.7,2.9c-2.8,0.1-5.4,0.4-8,1.1c1,0.6,2.8,3,3.9,3.7
			c-3.7,1.4-7.5,1.9-8.2,5.8c-3.8,0.2-8.4-0.7-12.1,0.1c-3.1,0.6-6.1,3.5-9.5,4.3c0.9,0.3,1.8,0.5,2.9,0.7c0.9,0.8,0.7,1.4,2.3,2.1
			c-9.9,0.8-26.4,4.2-34.5-0.9c6-2.4,13.4-3.6,20-4c-1.4-2.3-2.8-2.9-6.3-2.4c1.2-3.9,10.1-3.9,14.2-4.7c-3.8-1.4-8.5-0.7-12.6-1
			c0.8-0.4,2.5-1.8,3.3-2.3c-4.9-3.4-11.9-3.1-15.7-9C-10,110.8-5.4,110.4-3.9,108z"/>
	</g>
	<g>
		<defs>
			<rect id="SVGID_47_" x="0" width="379.8" height="379.8"/>
		</defs>
		<clipPath id="SVGID_48_">
			<use xlink:href="#SVGID_47_"  style="overflow:visible;"/>
		</clipPath>
		<path class="st24" d="M145.9,160.9c-12.8,0.7-28.5,3.1-40,6.5c9-0.3,15.6,3.3,24.5,3.3c8.2,0,16.2-0.3,24.4-0.8
			c16.4-1,33.1-0.9,49.6-1c-11.3-6.5-36.3-4.9-49.5-3.2C154.3,159.8,150.8,160.6,145.9,160.9z"/>
	</g>
	<g>
		<defs>
			<rect id="SVGID_49_" x="0" width="379.8" height="379.8"/>
		</defs>
		<clipPath id="SVGID_50_">
			<use xlink:href="#SVGID_49_"  style="overflow:visible;"/>
		</clipPath>
		<path class="st25" d="M282.6,124.2c-9.5,0-36.9-2.7-40.8,7.2c-9.2,0.7-19-1.7-28.5-0.7c-9.6,0.9-19.3,4-28.9,4.1
			c3.3-0.1,6.4,0.9,9.4,1.8c-1.7,1.5-4.5,2.4-7.2,2.4c4.2,2.9,13.3,1.7,18.7,2.1c6.6,0.5,13,1,19.7,1c9.2,0,17.4,1.2,26.6,1.8
			c-1.2,2.3-4.1,3.3-6.9,4c2,0.4,4.6,1.8,6.1,2.2c-0.8,0.3-1.5,0.1-2.3,0.3c1.7,6.8,14.9,7.2,20.9,7.2c16.2,0.1,32.9,2.4,49.3,1.6
			c8.7-0.4,17.9-1.2,26.6-1.7c10.3-0.5,24.3,2.4,33.3-1.4c-7.9-2.7-16.8-4.4-25.1-5.3c-11-1.2-26.2,1.5-35.8-3.6
			c1.2-0.3,2.5-0.9,3.8-1.2c-6.7-6.3-19.6-6-28.2-6.5c11-5-6.3-10.8-11.3-10.6c0.1-4.7-4.7-5-8.3-3.1"/>
	</g>
	<g>
		<defs>
			<rect id="SVGID_51_" x="0" width="379.8" height="379.8"/>
		</defs>
		<clipPath id="SVGID_52_">
			<use xlink:href="#SVGID_51_"  style="overflow:visible;"/>
		</clipPath>
		<path class="st26" d="M285.1,133.1c-3-7.5,7.2-7,10.7-2.7c7.1-6.8,19.5-6.2,23.7,3.4c6-4.3,6.3,2.2,9.6,3.6
			c3.5,1.5,9.9-1.4,9.3,5.5c1.4,0.1,2.8-1.5,4.2-1.4l56.1,2.6c-9.9-4.9-32.1,0.3-44,0.4c-12.7,0.1-24.8,0.5-37.5-0.1
			c-24.6-1.1-48.4-2.2-72.2-6.6c12.1,0.6,24.1-1.8,35.7,0.7c-0.9-8,6.5-6.1,11.8-5.8"/>
	</g>
	<g>
		<defs>
			<rect id="SVGID_53_" x="0" width="379.8" height="379.8"/>
		</defs>
		<clipPath id="SVGID_54_">
			<use xlink:href="#SVGID_53_"  style="overflow:visible;"/>
		</clipPath>
		<g class="st27">
			<polygon class="st28" points="108.4,81.2 112.7,71.4 78.8,70 45,71.4 49.2,81.2 38.9,241.6 78.8,241.6 118.8,241.6 			"/>
			<path class="st29" d="M113.5,159.6l-1.5-23.7c-8.9-0.5-18.5-0.8-28.6-0.8c-13.7,0-26.5,0.5-37.7,1.5l-1.4,22.2l-5.3,82.7h39.9
				h39.9L113.5,159.6z"/>
			<g>
				<path class="st30" d="M61,135.5c-0.1-1.7-0.4-3.5,0-5.2c1.3-4.9-0.1-9.9-0.1-14.8c0-2.6,0-5.1,0-7.7c0-1.1-0.3-2.6,0.1-3.6
					c0.4-1.1,2.1-2,2.8-3c1-1.2,2.1-2.3,3.1-3.5c0.8-1,1.5-2,2.4-2.8c1.7-1.8,4-1.6,5.9-3c0.9-0.6,1.6-1,2.7-1.5
					c1-0.4,1.8-0.4,3-0.6c0.7-0.2,1.9-0.7,2.6-0.9c1.1-0.3,2.3-0.5,3.4-0.9c2.6-0.8,5-1.2,7.7-1.8c2.6-0.6,5-1.1,7.7-1.1
					c1.3,0,2.9,0.3,4.2,0c1.1-0.2,1.5-0.8,1.9-1.7c0.8-1.7,1.4-3.9,1.7-6c0.2,0,0.6-0.1,0.5-0.1c-27.2-7.7-61.4,3.5-61.4,3.5
					l-3.6,56.2l0.2-0.7C45.8,136.7,52,136.1,61,135.5z"/>
				<path class="st31" d="M76.3,242.2c-1-2-2.3-3.9-3.4-5.9c-1.4-2.6-2.7-5.1-3.9-7.7c-0.7-1.5-1.3-3.1-1.8-4.7
					c-0.5-1.7-1.5-3.1-2.1-4.7c-0.5-1.5-0.8-3.2-1.3-4.7c0.1-0.4,0.1-0.8-0.1-1.1c-0.4-0.5-0.8-1.2-1-1.8c-0.1-0.3-0.5-1.6-0.6-1.9
					c-0.7-3.3-1.4-6.5-1.3-9.9c0.1-2.2,0.6-4.3,0.6-6.6c0-1.4,0-2.7,0-4.1c0-3.6,0-7.2,0-10.7c0-1.8,0.1-3.7,0-5.5
					c-0.1-1.7-0.8-3.4-1.4-5.1c-1-3.2-0.6-7.3,0-10.6c0.6-3.1,0.1-6.6,0.1-9.7c0-1.9,0-3.9,0-5.8c0-0.7-0.2-1.7,0-2.4
					c0.1-0.7,0.5-1.1,0.7-1.7c0.1-0.6,0.1-1.3,0.1-2c-9,0.6-15.2,1.2-15.2,1.2l-0.2,0.7L39,242.2L76.3,242.2L76.3,242.2z"/>
			</g>
			<line class="st32" x1="42.9" y1="71.6" x2="42.9" y2="59.2"/>
			<path class="st33" d="M78.8,70L45,71.4l4.2,9.8l-3.4,55.5c1.3-0.4,3-0.1,5.7-0.7c3.5-30.7,7-51.2,7-51.2c10.7-9.2,42-6.1,50.5-5
				l3.6-8.4L78.8,70z"/>
			<path class="st34" d="M38.9,241.6h5.5c0.4-38.4,3.8-76.5,7.1-105.5c-2.7,0.5-4.5,0.3-5.7,0.7L38.9,241.6z"/>
			<rect x="67.4" y="42.8" class="st35" width="26.6" height="21.9"/>
			<ellipse class="st36" cx="79.6" cy="71.3" rx="38" ry="2.7"/>
			<ellipse class="st37" cx="79.6" cy="65.2" rx="38" ry="6.8"/>
			<line class="st37" x1="49.5" y1="71.6" x2="49.5" y2="57.6"/>
			<line class="st37" x1="60.2" y1="71.6" x2="60.2" y2="54.9"/>
			<line class="st37" x1="116.1" y1="71.6" x2="116.1" y2="59.2"/>
			<line class="st37" x1="109.4" y1="71.6" x2="109.4" y2="57.6"/>
			<line class="st37" x1="98.8" y1="71.6" x2="98.8" y2="54.9"/>
			<rect x="64.5" y="57.4" class="st36" width="31.4" height="13.5"/>
			<rect x="66.1" y="46" class="st36" width="1.9" height="12.9"/>
			<rect x="73" y="45.4" class="st36" width="1.8" height="14.2"/>
			<rect x="89.5" y="45" class="st36" width="1.6" height="14.5"/>
			<rect x="93.2" y="45" class="st36" width="1.5" height="15.1"/>
			<path class="st36" d="M63.1,45.9h34.6L81.9,34.2l-0.6-15.5c0-0.5-0.5-0.9-1-0.9l0,0c-0.5,0-1,0.4-1,1l-0.4,15.3L63.1,45.9z"/>
			<ellipse class="st33" cx="83.1" cy="83.9" rx="2.8" ry="3.3"/>
			<rect x="84" y="143.3" class="st31" width="14.7" height="25.6"/>
			<polygon class="st31" points="96,143.3 96,164 84,164 84,168.9 98.7,168.9 98.7,143.3 			"/>
			<rect x="90.1" y="138.6" class="st29" width="2.2" height="34.7"/>
			<rect x="78.7" y="153.5" class="st29" width="28.8" height="2.7"/>
			<path class="st38" d="M105.3,204c0-6.4-5.2-11.7-11.7-11.7l0,0c-1.8,0-3.5,0.4-5.1,1.2c0.4-0.1,0.8-0.1,1.3-0.1l0,0
				c6.4,0,11.7,5.2,11.7,11.7v36.6h3.8V204z"/>
			<path class="st39" d="M89.8,193.4L89.8,193.4c-0.4,0-0.8,0-1.3,0.1c-3.9,1.9-6.6,5.9-6.6,10.5v37.7h19.5V205
				C101.5,198.6,96.2,193.4,89.8,193.4z"/>
			<path class="st38" d="M105.3,204c0-6.4-5.2-11.7-11.7-11.7l0,0c-1.8,0-3.5,0.4-5.1,1.2c0.4-0.1,0.8-0.1,1.3-0.1l0,0
				c6.4,0,11.7,5.2,11.7,11.7v36.6h3.8V204z"/>
		</g>
	</g>
	<g>
		<defs>
			<rect id="SVGID_55_" x="0" width="379.8" height="379.8"/>
		</defs>
		<clipPath id="SVGID_56_">
			<use xlink:href="#SVGID_55_"  style="overflow:visible;"/>
		</clipPath>
		<path class="st40" d="M-10.4,226.8c7.9,0,16.2-0.9,23.7,1.6c5.2,1.8,9.8,5.1,15.4,5.8c7.8,0.8,15.3-0.9,22.7,2.6
			c7.7,3.6,10.3,6.3,19.7,6.3c17,0,33.6-2.2,50.5-1.6c7.7,0.3,17,0,24.4,1.6c8.2,1.8,14.7,9.3,23,12.4c10.7,4,21.5,5.2,31.6,10.2
			c7.4,3.7,14.7,5,22.6,7.3c8.4,2.4,21.2,3.9,28.7,8.2c2.7,1.5,4.5,4.9,7.3,6.9c4.3,3.2,10.4,4.2,15.3,6.1
			c7.1,2.8,12.7,6.8,20.3,7.5c9.6,0.8,18.7,1.8,28.1,3.1c14.8,2,29.7-0.4,44.5,1.8c10.6,1.5,20.9,1.6,31.8,1.6
			c0.9,9.4-1.6,20.6-1.6,30.1v48.5H-16.2c-1-35.2,2.6-72.3,0.9-107.2C-16.2,261.2-10.4,245.2-10.4,226.8z"/>
	</g>
	<g>
		<defs>
			<rect id="SVGID_57_" x="0" width="379.8" height="379.8"/>
		</defs>
		<clipPath id="SVGID_58_">
			<use xlink:href="#SVGID_57_"  style="overflow:visible;"/>
		</clipPath>
		<path class="st41" d="M6.7,248c4.1,1.3,12.1,8.8,15.4,12.4c4.2,4.4,4.9,10.4,9,15.1c3.9,4.5,7.8,7.7,11.2,13.2
			c2.9,4.6,5.5,12.4,11.4,13.1c0.1,5.8,18,14.7,22.7,18.6c6.5,5.4,14.7,13,17.4,20.9c-3-3.4-10.3-6-14.6-6.1c1,1.1,1.2,2.1,2.9,3.1
			c-0.4,0-1.9-0.4-2-0.8c-0.5,7,8.8,19.9,10.3,28.3c-0.5,0.1-0.9,0.2-1.4,0.3c0.2,2.5-0.5,5.2-0.1,7.7c-8.2-6.9-15.7-15.4-23.4-22.4
			c-3.4,3.4-9-3.7-13.2-5c-6.6-2-6,0.6-12.2-6.2c-7-7.8-13.6-11.7-22.8-17.5c-14.4-9.1-39.7-19.7-37.3-41.2c3-1.1,6.3-1.2,9.5-1
			c2.9-10.3-0.3-21.7,0.3-32.3C-3.9,245.5,0.8,246.1,6.7,248z"/>
	</g>
	<g>
		<defs>
			<rect id="SVGID_59_" x="0" width="379.8" height="379.8"/>
		</defs>
		<clipPath id="SVGID_60_">
			<use xlink:href="#SVGID_59_"  style="overflow:visible;"/>
		</clipPath>
		<path class="st42" d="M-12.9,325.3c4.2,1.1,19.5,14.8,18.9,20.2c4.5,3,8.2,10,11.9,14.5c0.5-0.2,0.1-1,0.8-1.3
			c2.4,3.8,5.6,9.2,10.7,7.9c-4.5-3.3-6.4-7.4-9-12.6c0.6,0.5,1.8,1.6,2.4,2.1c-0.8-2.2-0.9-4.3-2.8-6.5c1.6,1.1,3.8,1.6,5.5,3
			c-0.1-0.9,0-1.8-0.1-2.7c0.8,8.2,8.8,12.6,13.7,17.6c0.5-0.5,0.4-1.1,1-1.6c2.8,2,6.3,2.3,8.8,0.2c7.4,10.4,19.3,16.5,26.2,28.1
			c-11.3-7.5-34.9-1.5-48.2-2.1c-7.7-0.3-28.3,3.1-31.5-2.5c-2.1-3.7,0.1-13.6,0-17.9c-0.2-6.3-1.3-11.7-2.6-17.9
			C-9.5,343.8-10.6,334.9-12.9,325.3z"/>
	</g>
	<g>
		<defs>
			<rect id="SVGID_61_" x="0" width="379.8" height="379.8"/>
		</defs>
		<clipPath id="SVGID_62_">
			<use xlink:href="#SVGID_61_"  style="overflow:visible;"/>
		</clipPath>
		<path class="st43" d="M163,391.2c-5.8-0.7-12.5-16-16.5-21c-3.9-4.9-6.5-9.5-9.4-14.9c-5.9-11-16.4-18.7-24.7-27.6
			c-7.9-8.5-14.7-18.4-21.2-27.7c-4.9-7.1-10.7-17.7-12.1-25.9c5.6,2.3,9.7,7.5,15.4,8.8c2.7,0.6,5.6-1.6,8.7-0.7
			c3.9,1.2,7.5,6,11,8.2c7.9,5,16,6.3,22.6,12c8.3,7.2,15,12.5,24.5,18.1c16.8,9.9,37,15.4,51.1,29.8c6.9,7,11.4,11.9,18.9,17.4
			c6.5,4.8,14.7,12.2,18.6,19.4c0.7,1.3,2.6,2.8,3.4,3.9c-13.7,2.5-23.2-17.7-35.8-21.9c-9.7-3.3-16.5,2-27.5-3.4
			c-9.7-4.7-16-15.4-25.6-21c-5.9-3.5-13.9-11.1-20.9-11.3c2.3,5.9,9,10.7,11.1,16.3c2.3,6,1.9,10.4,5.6,16.3
			c4.8,7.4,6.8,16.5,12.3,23.4c3.9,5,7.6,9.9,11.3,15.3c-3.6-3.1-10.5-11.6-14.9-9.7c-2.3-4.3-6.6-6.1-8.4-10.5"/>
	</g>
	<g>
		<defs>
			<rect id="SVGID_63_" x="0" width="379.8" height="379.8"/>
		</defs>
		<clipPath id="SVGID_64_">
			<use xlink:href="#SVGID_63_"  style="overflow:visible;"/>
		</clipPath>
		<path class="st44" d="M159.7,257.7c6.5,10.1,17,23,26.9,30.2c4,3,8.5,4.4,12.2,8.1c4.6,4.6,6.5,9.5,12.4,13.1
			c11.3,7,21.3,15.5,32.4,22.7c10,6.5,21.6,11.1,32,17.1c16.4,9.4,32,18.8,48,28.2c12.6,7.4,21.5,18.3,35.6,23.8
			c13.2,5.2,19.4-0.8,31.7-3.4c1.2-2.3,2.1-4.2,4.1-6.2c-4.7-2.1-8-6.9-11.5-10.6c-6.3-6.5-13.2-11.6-20.2-17.3
			c-3.5-2.8-10.2-12.2-14.6-12.3c-3.5-0.1-7.3,5.2-12.4,5c-21.3-0.8-38.5-21-53.3-35c-7.1-6.7-13.2-14.1-23-15.5
			c-9.1-1.3-14.4-2.3-22.8-6.5c-13.1-6.5-23.6-20.1-36.6-25.9c-2.5-1.1-6.2-1.2-8.9-1.7c1.3,5.6,8.1,10.4,11.3,15.2
			c2.9,4.3,5.4,8.8,7.9,13.3c4.3,7.6,8.6,12.4,16.2,17.1c-15.1-8.9-25.6-22-37-34.5c-3.8-4.2-7.4-9.1-12.4-12.2
			C172.9,267.6,160.4,263.5,159.7,257.7z"/>
	</g>
	<g>
		<defs>
			<rect id="SVGID_65_" x="0" width="379.8" height="379.8"/>
		</defs>
		<clipPath id="SVGID_66_">
			<use xlink:href="#SVGID_65_"  style="overflow:visible;"/>
		</clipPath>
		<path class="st45" d="M399.7,366.8c-0.5-0.5-0.9-1.1-1.3-1.8c-0.2-1.1-0.6-2.1-1-3.1c0,0,0-0.1-0.1-0.1v-23.5
			c0-5.5,0.8-11.6,1.4-17.6c-0.2-4.3-0.8-7.8-3.8-12.6c-9.4,0-18.5-0.3-27.8-1.6c-14.8-2.2-29.8,0.2-44.5-1.8
			c-9.3-1.3-18.5-2.2-28.1-3.1c-7.7-0.7-13.2-4.8-20.3-7.5c-4.9-1.9-11-2.9-15.3-6.1c-2.8-2-4.6-5.4-7.3-6.9
			c-5.7-3.3-14.4-4.9-21.9-6.5c-2.9,1-5.5,2.6-9,4.3c-5.9,2.8-11.3,3-17.9,4.1c-6.2,1-9.8,2.9-16.3,4.1c-15,2.6-29.8,8.1-45.6,4.1
			c-3.6-0.9-6.7-5-9.8-5.6c-3.5-0.7-6.4,1.7-9.8,2.3c-9.2,1.8-17.6-3.2-26.8-2.5c3.3,5.8,14.3,3.2,20.2,5.1
			c5.8,1.8,18.9,0.1,20.8,7.7c0.3-1.4,1.9-2.9,2.3-3.9c2.8,1.6,5.8,2.4,8.8,4c2.7-2.6,6-1.7,8.3,1c0.7-1.5,2.8-3,3.4-4.9
			c5.3,1.7,7.8,6.5,14.5,5.6c5.8-0.8,8.6-8.7,14.6-4.2c0.4-1.3,1.6-2.4,1.8-3.9c1.3,1.9,2.8,4.8,4,7.2c3.4-2.8,10.5,2.5,12.9,5.9
			c6.2-5.6,8.8,4.3,13.2,7.2c4.3,2.9,14.9,1.7,12.7,9.6c-4.8,3.4-14.4-1.5-16.1,4.2c-1.6-1.5-3.6-2.7-4.3-5.6
			c-2.4,0.7-9.2,0.2-12-0.1c-5.5-0.6-10.2-2.7-15.6-4.1c3.3,2.3,11.9,8.1,14.1,12.9c6.2,0.7,11.4,7.6,16.4,7.7
			c2.8,0,1.9-4.6,7.1-3.5c3.2,0.7,6.3,5.3,7.5,8.1c0.3-1.4,2-3.8,2.2-5.6c0.7,0.9,3.2,2.2,3.9,3.1c0.2-2.5,2-4.5,2.6-6.4
			c1.3,1.2,2.6,1.1,3.8,3c0.1-1.5,1.7-4,1.8-5.4c0.6,0.3,1.4,0.9,2.1,1.4c0.1,0.8,0.3,1.5,0.4,2.4c0.1,1-0.1,3.4,0.9,4.1
			c0.7,0.5,1.5-0.1,2.3,0.1c1.1,0.2,1.8,0.8,2.5,1.7c1.2,1.5,1.5,3.3,2.6,4.9c1.4,2,1.5,2.1,3.7,2.7c0.6,0.2,0.9,0.5,1.8,0.7
			c0.8,0.1,1.7-0.1,2.5,0c2,0.1,3.5,1,4.9,2.4c1.4,1.4,2.4,3.8,4.9,3.3c1.2-0.2,2.5-1.7,4.1-0.9c0.9,0.4,1.6,2.3,2.2,3.3
			c1.8,3.1,4.3,5.4,6.7,8c1.8,1.8,4,4.2,6.3,5.3c1.4,0.7,2.6,0.6,4.2,0.6c2.9-0.1,2.6,1.2,4.3,3.3c1.1,1.3,2.5,2.2,3.9,3.2
			c1.9,1.4,2.6,2.7,3.9,0c0.5-0.9-0.2-1.3,0.9-1.7c1.1-0.4,1.1,0.5,1.8,0.7c1.5,0.4,3.9,0.5,5.5,0.2c1.3-0.2,2.9-1.7,4-1.8
			c1.4-0.1,3.8,1.8,4.9,2.5c1.4,0.9,2.4,1.8,4,2.3c2.6,0.7,3.6,0.2,4.3-2.3c1-3.4,2.4-4.9,5.3-6.7c1.3-0.8,2.6-2,4.2-2.3
			c2.3-0.4,2.8,0.9,4,2.5c1.6,2,2.6,2.4,4.9,2.5c1.7,0.1,2.5-0.6,4-0.8c3.8-0.5,6.9,1.7,10.6,1.7c3.6,0,6.3,0.7,9.8,1.8
			c2.7,0.9,7.3,1.4,9.7-0.4c3.2-2.4,5.9-3.9,9.8-4.7c1.1-0.2,2.7-0.5,3.5-1.4C399.9,367.9,399.9,367.9,399.7,366.8z"/>
	</g>
	<g>
		<defs>
			<rect id="SVGID_67_" x="0" width="379.8" height="379.8"/>
		</defs>
		<clipPath id="SVGID_68_">
			<use xlink:href="#SVGID_67_"  style="overflow:visible;"/>
		</clipPath>
		<path class="st46" d="M317.6,306.6c-0.5,3.2,7.8,10.1,11.6,12.4c4.4,2.8,8.1,2,12.2,3.8c3.6,1.7,7.2,6.2,11.2,8.2
			c4.3,2.2,8.9,4.2,13.2,6.5c9.8,5.1,21.3,8.3,30.7,14.1c6.5,3.9,11.6,9.6,17.9,13.8c3.7-3.7-0.9-21.7-3.2-26.9
			c-2.9-6.4-11.4-20-16.1-6.8c-4.5-5.4-2.1-12.6-5.2-17.6c-2.6-4.2-8.6-5.2-12.9-7.2c-2.8,4.2-10.2,1.3-14.5,0.5
			c-2.6-0.4-3.9-1.2-6.7-1.4c-3-0.3-6,0.3-9,0c-10.5-1-22.9-0.7-33.4-2.5"/>
	</g>
	<g>
		<defs>
			<rect id="SVGID_69_" x="0" width="379.8" height="379.8"/>
		</defs>
		<clipPath id="SVGID_70_">
			<use xlink:href="#SVGID_69_"  style="overflow:visible;"/>
		</clipPath>
		<path class="st47" d="M399,308.2c-1.4,0-2.7,0-4,0c2.9,4.8,3.6,8.3,3.8,12.6C399.1,316.4,399.4,312.1,399,308.2z"/>
	</g>
	<g>
		<defs>
			<rect id="SVGID_71_" x="0" width="379.8" height="379.8"/>
		</defs>
		<clipPath id="SVGID_72_">
			<use xlink:href="#SVGID_71_"  style="overflow:visible;"/>
		</clipPath>
		<path class="st48" d="M249.1,332.3c0,0.4,0,0.7,0.1,0.8C249.2,332.9,249.1,332.6,249.1,332.3z"/>
	</g>
	<g>
		<defs>
			<rect id="SVGID_73_" x="0" width="379.8" height="379.8"/>
		</defs>
		<clipPath id="SVGID_74_">
			<use xlink:href="#SVGID_73_"  style="overflow:visible;"/>
		</clipPath>
		<path class="st49" d="M249.1,331c0,0-0.1,0.1-0.1,0.1c0.1,0.4,0.1,0.8,0.2,1.2C249.1,331.9,249.1,331.3,249.1,331z"/>
	</g>
	<g>
		<defs>
			<rect id="SVGID_75_" x="0" width="379.8" height="379.8"/>
		</defs>
		<clipPath id="SVGID_76_">
			<use xlink:href="#SVGID_75_"  style="overflow:visible;"/>
		</clipPath>
		<path class="st50" d="M395.7,304.1c-1.9,0-3.1-0.2-4.9-0.6c-1.3-0.3-2.6-0.3-3.9,0c-0.6,0.1-1,0.5-1.8,0.7c-0.5,0-1.1,0-1.7,0
			c-1.6,0-2.3,0.3-3.3-0.8c-0.7-0.8-0.6-2-1.5-2.7c-1.1-0.9-2.8-0.6-4.1-0.6c-3.4,0-5.6,2-9,2.5c-2.9,0.4-4.3-1.3-6.3-2.7
			c-2-1.4-5.1-0.1-7.5-0.8c-1.5-0.4-2.4-0.7-4.1-0.6c-1.3,0-2.8,0.3-4.1-0.2c-1.1-0.4-2.2-1.5-3.2-2.1c-1.7-1-1.5-1.5-1.8-3.4
			c-1.9,0.9-6.3,3.3-6.5-0.8c-2,0.4-3.6,1.5-5.3-0.3c-0.8-0.9-1.1-2.4-2.7-2.4c-0.9,0-1.5,0.9-2.5,1c-4.1,0.3-2.4-6.7-5.6-7.4
			c-1.2-0.3-2.2,0.7-3.3,0.9c-1,0.2-2.3-0.1-3.3-0.1c-2.1,0-3.7,0.1-5.7,0.6c-1.7,0.5-4.6,0.5-6.3,0c-1.6-0.5-2.3-1.8-4.3-1.5
			c-2,0.3-3.2,1.1-5.5,0.7c-0.2-0.4-0.5-0.7-1-0.7c-0.5,0.1-0.8,0.3-1,0.7c-0.8,0.1-1.4,0.2-2.3,0.2c-1.2-0.1-2.1-0.7-3.3-0.9
			c-1-0.2-2.3,0.1-3.3,0.1c-2.4,0-4.9,0-7.4,0c-2.5,0-2.9-1.1-4.6-2.6c-1.1-1-0.9-1.4-2.6-1.4c-0.7,0-1.8-0.2-2.5,0
			c-1.7,0.4-2.1,1.4-3.4-0.5c-0.9-1.3-1.4-2.6-1.5-4.2c-2-0.2-2.8-0.3-3.2-2.6c-0.2-1.3,0-3.2,0.1-4.6c-0.9,0.9-2.8,1.3-3.9,1.2
			c-0.6-0.1-0.8-0.8-1.8-0.7c-0.5,0.1-0.8,0.3-1,0.7c-2.4,0.4-4.6-1.4-6.9-2.3c1.4,0.1,3.3-0.4,4.6,0.2c-0.4,2.5-2.4,1.1-3.4-0.1
			c-1.8,0.8-4.5,2.8-4.9-0.8c-1.2,0.3-2.6,2.7-3.9,2.5c-1.1-0.2-0.9-2.8-1.5-3.9c-0.8,0.8-2.2,1.4-3.3,1.4c-1.7,0-1.8-1.5-3.2-1.5
			c-1.9-0.1-2.8,3.3-5,2.2c-1.1-0.6-1.2-2-1.8-2.9c-2.4-3.7-5.7-0.6-8.6,0.8c-4,2-2-2.6-2.8-5c-0.8,0.2-1.2,1-2.1,1.2
			c-0.7-2.2,0.9-3.8,0.7-5.9c-0.6,0.7-1.5,2-2.4,2.2c-2.4,0.5-1.4-1.7-1.8-3c-2.6,0.8-3,2.1-5-0.2c-1.3,0.6-2.2,0.7-3.9,0.7
			c-1.5,0-2.7,0.9-4.1,0.9c-1.3,0-2.6-0.9-4.1-0.9c-1.6,0-2-0.1-3.2-1c-1.8-1.3-1.5-1.4-3.3-0.6c-1.1,0.5-2.9,1.3-4.2,0.8
			c-0.8-0.3-1.7-1.2-2.4-1.7c-0.8-0.6-1.9-1.3-2.9-1.7c-1.2-0.4-3-1.8-4.4-2.4c-2-0.9-3.8-1.2-5.8-1.8c-1-0.3-1.4-1.2-2.2-1.7
			c-1.1-0.7-1.5-0.2-2.7-0.5c-1.8-0.5-3-2.8-4.8-3.3c-0.9-0.2-2.3,0.1-3.3,0.1c-1.2,0-1.7,0.4-2.6,0.6c-1.9,0.4-3.9,0.6-5.3-0.8
			c-1.6-1.6-2.4-2.8-4.9-2.1c-0.5,0.2-1.5,1.2-2,1.3c-1.2,0.2-1.1-0.4-2.2-0.7c-3.8-0.9-8.6,0.3-12.1,1c-0.9,0.2-1.4,0.7-2.6,0.6
			c-1.1,0-2.2,0-3.3,0c-2.2,0-4.3,0-6.5,0c-1,0-2.4,0.3-3.3,0.1c-1-0.2-1.3-0.7-2.4-0.9c-2.4-0.4-4.3,1.7-6.6,2.3
			c-2.3,0.6-4.4-1-6.3-0.5c-0.9,0.2-1.4,1.8-2.7,1.6c-0.8-0.1-1.3-1-1.8-1.6c-1.4,0.6-3,1.1-4.7,0.7c-1.1-0.2-3.8-1.2-4-2.3
			c0.5-0.2-1.4-0.3-0.9-0.2c-2.5,0.1-5.2-0.4-7.4-1.6c-1.8-1-2.7-1.6-4.9-1.7c-0.8,0-1.5,0.1-2.3-0.2c-0.7-0.2-0.9-1.3-1.8-1.4
			c-0.9-0.1-0.7,0.6-1.5,0.8c-1.3,0.2-1.4-0.4-2.3-0.9c-1.1-0.7-1-0.8-2.6-0.8c-0.8,0-1.7,0.1-2.5,0c-1.6-0.2-2.3-0.8-4-0.8
			c-1.6,0-3.3,0-4.9,0c-0.9,0-1.6,0.1-2.5-0.2c-1.2-0.4-0.9-1-1.6-1.5c-0.5-0.4-1-1.1-1.8-1.4c-0.7-0.3-1.5-0.6-2.3-0.8
			c-1.7-0.5-3.2-0.8-4.9-1.2c-0.9-0.2-1.4-0.6-2.4-0.7c-0.8,0-1.7,0.2-2.5,0.1c-1.4-0.4-2.3-1.3-4.1-0.9c-1.6,0.4-2.4,1.7-3.9-0.1
			c-1.1-1.4-0.4-2-2.6-2.3c-3.1-0.4-6.1,0.6-9-0.8c0,1.7-2.2,4.2-2.5,5.7c-0.2,1.4,0.2,2.7-0.1,4.1c-0.6,2.4-0.4,5-1.3,7.1
			c2.3,2.4,5.6,1.8,8,3.6c2.9,2.3,2.1,6.4,6.5,6.3c4.1-0.1,8.1,0,12.2,0c4.1,0,7.9,2.2,12.2,2.4c1.7,0.1,3.2,0.8,4.9,0.9
			c1.6,0.1,3.3-0.1,4.9-0.1c2.9,0,5.9,0,8.8,0c1.7,0,2.6,0,3.6,1.4c0.7,1,1.1,2.6,2.4,3.3c0.7,0.4,1.5,0.1,2.3,0.3
			c0.8,0.2,1.7,0.9,2.4,1.3c1.9,1,3.9,1.7,5.9,2.4c4.3,1.6,9.3,2.6,13.6,3.5c3.2,0.7,7.3,0.4,9.7-1.7c1.5-1.2,2.6-2.4,4.7-1.5
			c1.8,0.8,2.9,2.8,5.1,3.1c3.5,0.6,7-0.1,10.5,0.8c7.1,1.8,14.7,2.5,22,2.5c3.7,0,7.5,0,11.2,0c3,0,6.2-0.4,9.2,0.2
			c2.8,0.5,5.2,0.6,8.1,0.6c1.3,0,2.8-0.2,4.1-0.1c1.4,0.2,2.6,0.8,4.1,0.9c3.1,0.1,5.8,1.1,8.9,1.8c4.9,1.1,10.5-0.1,15.3,1.6
			c0.9,0.3,1.9,1.8,2.8,2.1c1.7,0.6,3.9,0,5.7,0.4c0.7,0.3,1.5,0.5,2.3,0.7c1.1,0.1,2.2-0.3,3.3-0.1c2.2,0.4,4.2,1.7,6.3,2.3
			c4.9,1.3,10.4,1.9,15.5,1.8c3.2-0.1,6.8,1.5,9.7,2.6c3.3,1.3,6.1,3.5,9.9,4.5c7,1.8,7.7,4.4,14.7,5.9c2.4,0.5,10.6,5.1,13,5.7
			c1.6,0.4,6.8,1.7,8.1,2.4c2.8,1.4,3.9-0.9,6.5,0.8c3.5,2.2,5.8-0.3,9.8,0.8c4.6,1.2,9.1,2.4,13.7,3.9c5,1.6,10.4,2,15.6,2.7
			c6.4,0.8,12.2,3.3,18.7,3.3c2.6,0,4.6,0.5,7.1,0.8c2.4,0.3,5.1-0.1,7.6-0.1c1.9,0,4-0.2,5.9-0.1c1.1,0.1,2,0.7,3.1,0.9
			c1.1,0.2,2.2-0.2,3.3,0.1c2.9,0.8,5.1,1.4,8.2,1.4c2.4,0,4.2,0.1,6.3,0.6c1.5,0.4,3.2,0.6,4.8,0.9c0.2-2.2,0.9-4.4,1.8-6.4
			c0.4-0.9,0.7-2.3,0.8-3.3C398.5,306.6,395.3,305.5,395.7,304.1z"/>
	</g>
	<g>
		<defs>
			<rect id="SVGID_77_" x="0" width="379.8" height="379.8"/>
		</defs>
		<clipPath id="SVGID_78_">
			<use xlink:href="#SVGID_77_"  style="overflow:visible;"/>
		</clipPath>
		<path class="st51" d="M246.8,269.2c1,0.2,2.3-0.2,3.3-0.1c0.8,0.1,1.3,0.3,1.5,0.6c0-0.9,0.1-1.9,0.2-2.7
			c-0.9,0.9-2.8,1.3-3.9,1.2c-0.6-0.1-0.8-0.8-1.8-0.7c-0.5,0.1-0.8,0.3-1,0.7c-0.1,0-0.3,0.1-0.4,0.1c0.2,0,0.4,0,0.7,0.1
			C245.9,268.5,246,269,246.8,269.2z"/>
	</g>
	<g>
		<defs>
			<rect id="SVGID_79_" x="0" width="379.8" height="379.8"/>
		</defs>
		<clipPath id="SVGID_80_">
			<use xlink:href="#SVGID_79_"  style="overflow:visible;"/>
		</clipPath>
		<path class="st52" d="M338,300.7c1.2,0.1,1.9,0.9,3.1,1c1.3,0.2,2.7-0.3,4,0.1c-0.2,2.4,1.7,1.2,2.8,0.9c1.7-0.6,2.9-1.5,3.9-0.2
			c0.6,0.7,0.1,3.3,2.2,2.4c0.8-0.4,0.5-1.8,1.9-1.6c1.2,0.1,0.8,1.6,0.9,2.4c1.2,0.3,3.6,0.7,4-0.7c0.4-1.2-1.2-1.9-0.8-2.9
			c-1.1-1-1.3-1.5-1.8-2.8c-1.9-0.5-4.4,0.3-6.3-0.2c-1.5-0.4-2.4-0.7-4.1-0.6c-1.3,0-2.8,0.3-4.1-0.2c-1.1-0.4-2.2-1.5-3.2-2.1
			c-1.7-1-1.5-1.5-1.8-3.4c-0.6,0.2-1.4,0.7-2.2,0.9c0.6,1,1,2,1.5,3C338.9,298.5,338.8,299,338,300.7z"/>
	</g>
	<g>
		<defs>
			<rect id="SVGID_81_" x="0" width="379.8" height="379.8"/>
		</defs>
		<clipPath id="SVGID_82_">
			<use xlink:href="#SVGID_81_"  style="overflow:visible;"/>
		</clipPath>
		<path class="st53" d="M240.2,266.9c0.4,0.2,0.7,0.4,1.1,0.5c0.6,0.1,1.2-0.2,1.4-1.4c-1.3-0.6-3.2-0.1-4.6-0.2
			c0.3,0.1,0.5,0.2,0.8,0.4c0.1-0.1,0.3-0.1,0.4-0.2C239.5,266.3,239.9,266.6,240.2,266.9z"/>
	</g>
	<g>
		<defs>
			<rect id="SVGID_83_" x="0" width="379.8" height="379.8"/>
		</defs>
		<clipPath id="SVGID_84_">
			<use xlink:href="#SVGID_83_"  style="overflow:visible;"/>
		</clipPath>
		<path class="st54" d="M250.1,271.8c-1.5,1-3,2-4.9,1.5c-1.7-0.4-2.7-1.3-4.7-0.7c-0.1,0.5-0.2,0.9-0.3,1.4
			c-2.2,0.6-1.8-3.6-4.6-2.2c-1.2,0.6-2.4,2.7-1.8,4c0.7,1.6,3.4,0.4,4.9,0.7c1.6,0.3,3.2,1.2,4.7,1.9c1.6,0.7,3.2,0.7,5.1,0.6
			c2.1,0,2.5,0.7,4.1,1.6c0.5,0.3,1.1,0.5,1.6,0.8c0.8,0.5,1.3,1.5,2.4,1.7c1.5,0.3,4.4-2.5,4.3,0.6c1,0.1,1.4,0.8,2.3,1
			c1.4,0.3,1.7-0.5,2.7,0.7c0.9,1.1,0.1,2.3,0.5,3.4c0.6,1.5,1.3,0.3,2.6,0.7c1.2,0.4,1.2,1.8,2.4,2.4c1.4,0.6,1.7-0.3,2.6-0.5
			c2-0.5,4.3-0.2,6.3-0.2c1.1,0,2,0,3.1,0.2c0,0,2.6,0.8,2.5,0.8c1.3,1.7-2.4,2.9-3,4.1c-1.5,3,2.5,1.8,3.1,3.9c0.2,0.6,0,1.3-0.1,2
			c2.2,0.7,3.4-1,5.8,0.5c1.4,0.9,2.6,1,3.8,0.9c-0.4-0.7-0.7-1.4-0.6-1.8c0.3-1.2,1.5-0.8,2.6-0.8c1.3,0,5.3,0.7,6.3-0.1
			c0.9-0.7,0.4-2,1.8-2.4c1.2-0.4,2.2,0.7,3.1,1.1c1.5,0.8,4.5-0.1,5.6,1.2c-0.3,0.2-0.7,0.3-1,0.2c1.2,1.1,2.4,2.7,3.9,3.1
			c3.5,0.9,1.8-2.4,2.4-4.6c0.8-0.1,1.5-0.2,2.3-0.2c0.2-1.7-2.3-3.5-3.4-4.6c-0.9-0.9-1.4-1.6-2-2.6c-1-1.7-1.5-1.5-3.4-1.8
			c-0.5-2,4.4-1.9,5.5-1.3c0.4,0.2,1.3,1.2,1.6,1.6c1.1,1.5,0.6,2.4,1,3.9c0.9,3.1,3.4,0.9,4.3-0.9c0.4-0.8,0.8-1.6,1.1-2.4
			c-0.5-0.8-1-1.7-2.2-1.7c-0.9,0-1.5,0.9-2.5,1c-4.1,0.3-2.4-6.7-5.6-7.4c-1.2-0.3-2.2,0.7-3.3,0.9c-1,0.2-2.3-0.1-3.3-0.1
			c-2.1,0-3.7,0.1-5.7,0.6c-1.7,0.5-4.6,0.5-6.3,0c-1.6-0.5-2.3-1.8-4.3-1.5c-2,0.3-3.2,1.1-5.5,0.7c-0.2-0.4-0.5-0.7-1-0.7
			c-0.5,0.1-0.8,0.3-1,0.7c-0.8,0.1-1.4,0.2-2.3,0.2c-1.2-0.1-2.1-0.7-3.3-0.9c-1-0.2-2.3,0.1-3.3,0.1c-2.4,0-4.9,0-7.4,0
			c-2.5,0-2.9-1.1-4.6-2.6c-1.1-1-0.9-1.4-2.6-1.4c-0.7,0-1.8-0.2-2.5,0c-1.7,0.4-2.1,1.4-3.4-0.5c-0.9-1.3-1.4-2.6-1.5-4.2
			c-2-0.2-2.8-0.3-3.2-2.6c-0.1-0.4-0.1-0.8-0.1-1.2C251.3,270.8,250.8,271.3,250.1,271.8z"/>
	</g>
	<g>
		<defs>
			<rect id="SVGID_85_" x="0" width="379.8" height="379.8"/>
		</defs>
		<clipPath id="SVGID_86_">
			<use xlink:href="#SVGID_85_"  style="overflow:visible;"/>
		</clipPath>
		<path class="st55" d="M239.4,268.6c1.5,0.9,3-0.2,4.7-0.4c-0.9,0-1.9-0.4-2.8-0.8c-0.4-0.1-0.7-0.3-1.1-0.5
			c-0.5-0.2-0.9-0.5-1.4-0.7c-0.3,0.1-0.5,0.3-0.8,0.4C238.4,267.4,238.8,268.2,239.4,268.6z"/>
	</g>
	<g>
		<defs>
			<rect id="SVGID_87_" x="0" width="379.8" height="379.8"/>
		</defs>
		<clipPath id="SVGID_88_">
			<use xlink:href="#SVGID_87_"  style="overflow:visible;"/>
		</clipPath>
		<path class="st56" d="M76.7,261.8c-0.5-0.3-1-0.7-1.6-0.9c-0.8-0.2-1.5,0.3-2.3-0.1c-0.5-0.3-0.7-1-1.1-1.3
			c-0.7-0.4-1.4,0.1-2.1-0.3c-1.1-0.6-1.6-2.8-2.4-3c-0.1,0.5-0.3,1-0.4,1.5c-0.4-0.1-1.3-1.7-1.5-2.3c0-0.6,0.1-1.1,0.1-1.7
			c-0.1-0.6-0.6-0.9-0.8-1.4c1.4-0.8,1.6,1.3,3.1,0.5c-0.1-1.2-3.3-2.8-0.8-4c1.8-0.8,3.3,1.2,4.3,2.4c2.4-1,3.9-0.7,6.3,0.7
			c1.1,0.7,1.1,0.8,2.4,1c1.5,0.2,2.1-0.9,3.3-0.9c0.7,0,1.6,0.8,2.4,0.9c1.3,0.2,2.8,0,4.1,0c1.6,0,2.5,0.6,4.1,0.8
			c1.6,0.3,2.6-0.6,4.1-0.9c1.3-0.2,2.1,0.4,3.3,0.7c1.8,0.5,1.8-0.3,3.2-0.7c1.2-0.3,1.7,0,2.7-0.5c0.2-0.3,0.5-0.6,0.8-0.9
			c0.9-0.2,1.7,0.9,2.3,1.4c0.7,0.6,1.5,1.3,2.4,1.6c1.8,0.6,1.8-0.2,3.1-0.9c1.6-0.9,4.8-1.3,5.9,0.7c0.8-0.7,1.1-2,1.6-2.9
			c0.6-1.2,0.6-3.2,1.8-3.9c1.3-0.8,2.6,0.5,3.9,0.7c1.8,0.2,3.8-0.4,5.6,0.1c0.1,0.5,0.2,0.9,0.3,1.4c0.8,0.2,2.4-0.3,3,0.3
			c0.7,0.7,0,3,0.3,3.9c1.2-0.6,2.8-1.5,4.2-0.2c1.2,1.2,0.3,3.4,0.7,5.1c1.3,0.2,2.4-2.7,3.8-1.5c1.1,1-0.9,2.8,1.8,2.4
			c0.5-0.1,0.8-0.3,1-0.7c1.4-0.1,0.9,0,2.3,0.7c2.8,1.4,1.3-0.7,3.4-1.5c1-0.4,2,0.5,3,0.7c1.6,0.2,3.4-0.3,5,0
			c1.8,0.3,1.7,0.7,2.6,2.5c1,2,1.2,1.6,2.9,0.9c0.3,1.8,0.1,3.3,2.5,3.4c-1,3.4-7.6,3-8.1-0.5c0,0.9,0,1.5,0.8,2.2
			c0.9,0.8,2.1,1.3,3.3,1.4c1.7,0.2,2.4,0.2,3.9,1c1.4,0.7,1.4,0.5,2.8,0c1.6-0.6,2.5-0.6,2.3-2.7c-0.1-1.2-0.4-2-1.4-2.6
			c-0.9-0.6-2.7-0.1-3.4-0.7c-0.6-0.6-0.1-2.8-0.2-3.6c0.7,0.9,2.2,0.5,3.1,1.5c0.6,0.7-0.2,1.3,0.9,1.5c1.3,0.3,1.4-1,2.7-0.4
			c1.2,0.6,1.6,2.1,3,2.5c0.8,0.2,1.8-0.1,2.5,0.3c0.4,0.4,0.7,0.8,0.9,1.4c0.5,0.2,0.9,0.2,1.5,0.1c1.1,0.6,1.8,1.3,2.4,2.4
			c-0.1-0.1,0.6,1.9,0.6,1.8c0.1,0.5,0.4,1.1,0.5,1.6c1.5,0.1,3,0.4,4.4,0.9c0.9,0.3,1.9,1.8,2.8,2.1c0.1,0.1,0.3,0.1,0.4,0.1
			c0.7-1.6,0.8-3.2-0.8-4.6c-3-2.9-5.1-6.1-6.2-9.9c0.9,0.1,1.7,3,2.5,3.8c0.9,0.9,1.3,0.5,2.3,1c0.9,0.5,1.3,1.4,2.3,1.9
			c-2.4,3.1,5.6,2.2,7.4,2.2c2.4,0,2.1-0.7,3.9-1.8c2.3-1.5,2,0.8,3.6,1.7c1.6,0.9,2.2-0.4,3.3-1.2c2.1-1.8,2.1-0.2,3.7,0.8
			c1.4,0.9,2.4-0.2,4.3-0.2c2.3,0,2.7,0.9,4.9-0.2c0.9-0.5,1.8-0.9,2.7-1.3c-0.1,0-0.2,0-0.3,0c-1.1-0.2-0.9-2.8-1.5-3.9
			c-0.8,0.8-2.2,1.4-3.3,1.4c-1.7,0-1.8-1.5-3.2-1.5c-1.9-0.1-2.8,3.3-5,2.2c-1.1-0.6-1.2-2-1.8-2.9c-2.4-3.7-5.7-0.6-8.6,0.8
			c-4,2-2-2.6-2.8-5c-0.8,0.2-1.2,1-2.1,1.2c-0.7-2.2,0.9-3.8,0.7-5.9c-0.6,0.7-1.5,2-2.4,2.2c-2.4,0.5-1.4-1.7-1.8-3
			c-2.6,0.8-3,2.1-5-0.2c-1.3,0.6-2.2,0.7-3.9,0.7c-1.5,0-2.7,0.9-4.1,0.9c-1.3,0-2.6-0.9-4.1-0.9c-1.6,0-2-0.1-3.2-1
			c-1.8-1.3-1.5-1.4-3.3-0.6c-1.1,0.5-2.9,1.3-4.2,0.8c-0.8-0.3-1.7-1.2-2.4-1.7c-0.8-0.6-1.9-1.3-2.9-1.7c-1.2-0.4-3-1.8-4.4-2.4
			c-2-0.9-3.8-1.2-5.8-1.8c-1-0.3-1.4-1.2-2.2-1.7c-1.1-0.7-1.5-0.2-2.7-0.5c-1.8-0.5-3-2.8-4.8-3.3c-0.9-0.2-2.3,0.1-3.3,0.1
			c-1.2,0-1.7,0.4-2.6,0.6c-1.9,0.4-3.9,0.6-5.3-0.8c-1.6-1.6-2.4-2.8-4.9-2.1c-0.5,0.2-1.5,1.2-2,1.3c-1.2,0.2-1.1-0.4-2.2-0.7
			c-3.8-0.9-8.6,0.3-12.1,1c-0.9,0.2-1.4,0.7-2.6,0.6c-1.1,0-2.2,0-3.3,0c-2.2,0-4.3,0-6.5,0c-1,0-2.4,0.3-3.3,0.1
			c-1-0.2-1.3-0.7-2.4-0.9c-2.4-0.4-4.3,1.7-6.6,2.3c-2.3,0.6-4.4-1-6.3-0.5c-0.9,0.2-1.4,1.8-2.7,1.6c-0.8-0.1-1.3-1-1.8-1.6
			c-1.4,0.6-3,1.1-4.7,0.7c-1.1-0.2-3.8-1.2-4-2.3c0.5-0.2-1.4-0.3-0.9-0.2c-2.5,0.1-5.2-0.4-7.4-1.6c-1.8-1-2.7-1.6-4.9-1.7
			c-0.8,0-1.5,0.1-2.3-0.2c-0.7-0.2-0.9-1.3-1.8-1.4c-0.9-0.1-0.7,0.6-1.5,0.8c-1.3,0.2-1.4-0.4-2.3-0.9c-1.1-0.7-1-0.8-2.6-0.8
			c-0.8,0-1.7,0.1-2.5,0c-1.6-0.2-2.3-0.8-4-0.8c-1.6,0-3.3,0-4.9,0c-0.9,0-1.6,0.1-2.5-0.2c-1.2-0.4-0.9-1-1.6-1.5
			c-0.5-0.4-1-1.1-1.8-1.4c-0.7-0.3-1.5-0.6-2.3-0.8c-1.7-0.5-3.2-0.8-4.9-1.2c-0.9-0.2-1.4-0.6-2.4-0.7c-0.8,0-1.7,0.2-2.5,0.1
			c-1.4-0.4-2.3-1.3-4.1-0.9c-1.6,0.4-2.4,1.7-3.9-0.1c-1.1-1.4-0.4-2-2.6-2.3c-3.1-0.4-6.1,0.6-9-0.8c0,1.6-2.2,4.2-2.5,5.7
			c-0.2,1.4,0.2,2.7-0.1,4.1c-0.6,2.4-0.4,5-1.3,7.1c2.3,2.4,5.6,1.8,8,3.6c2.9,2.3,2.1,6.4,6.5,6.3c4.1-0.1,8.1,0,12.2,0
			c4.1,0,7.9,2.2,12.2,2.4c1.7,0.1,3.2,0.8,4.9,0.9c1.6,0.1,3.3-0.1,4.9-0.1c2.9,0,5.9,0,8.8,0c1.7,0,2.6,0,3.6,1.4
			c0.7,1,1.1,2.6,2.4,3.3c0.7,0.4,1.5,0.1,2.3,0.3c0.8,0.2,1.7,0.9,2.4,1.3c1.9,1,3.9,1.7,5.9,2.4c4.3,1.6,9.3,2.6,13.6,3.5
			c2,0.4,4.3,0.5,6.3-0.1c-2.2-0.3-3.8-2.5-6.3-2.4C79,262.7,78.1,262.6,76.7,261.8z"/>
	</g>
	<g>
		<defs>
			<rect id="SVGID_89_" x="0" width="379.8" height="379.8"/>
		</defs>
		<clipPath id="SVGID_90_">
			<use xlink:href="#SVGID_89_"  style="overflow:visible;"/>
		</clipPath>
		<path class="st57" d="M395.7,304.1c-1.9,0-3.1-0.2-4.9-0.6c-1.3-0.3-2.6-0.3-3.9,0c-0.6,0.1-1,0.5-1.8,0.7c-0.5,0-1.1,0-1.7,0
			c-1.6,0-2.3,0.3-3.3-0.8c-0.7-0.8-0.6-2-1.5-2.7c-1.1-0.9-2.8-0.6-4.1-0.6c-3.4,0-5.6,2-9,2.5c-0.9,0.1-1.7,0.1-2.4-0.2
			c0.1,0.9,0.2,1.5,0.9,2.6c1.5,2.1,1.2,3.5,2.1,5.8c0.4,1.1,1.4,2.2,2.5,3.1c0.4,0,0.8,0,1.1,0.1c1.1,0.1,2,0.7,3.1,0.9
			c1.1,0.2,2.2-0.2,3.3,0.1c0,0,0.1,0,0.1,0c0.2-0.1,0.5-0.1,0.7-0.2c2-0.5,3.4-1.2,5.6-0.7c0.1,0.8,0.2,1.5,0.4,2.3
			c0.5,0,1,0.1,1.5,0.1c2.4,0,4.2,0.1,6.3,0.6c1.5,0.4,3.2,0.6,4.8,0.9c0.2-2.2,0.9-4.4,1.8-6.4c0.4-0.9,0.7-2.3,0.8-3.3
			C398.5,306.6,395.3,305.5,395.7,304.1z"/>
	</g>
	<g>
		<defs>
			<rect id="SVGID_91_" x="0" width="379.8" height="379.8"/>
		</defs>
		<clipPath id="SVGID_92_">
			<use xlink:href="#SVGID_91_"  style="overflow:visible;"/>
		</clipPath>
		<path class="st58" d="M234.5,265.7c0-0.2-0.1-0.3-0.1-0.5c-0.8,0.2-1.6,1.2-2.4,1.9c0.1-0.1,0.3-0.1,0.4-0.2
			C232.8,266.7,233.6,266.1,234.5,265.7z"/>
	</g>
	<g>
		<defs>
			<rect id="SVGID_93_" x="0" width="379.8" height="379.8"/>
		</defs>
		<clipPath id="SVGID_94_">
			<use xlink:href="#SVGID_93_"  style="overflow:visible;"/>
		</clipPath>
		<path class="st59" d="M95.2,262c1.8,0.8,2.9,2.8,5.1,3.1c3.5,0.6,7-0.1,10.5,0.8c7.1,1.8,14.7,2.5,22,2.5c3.7,0,7.5,0,11.2,0
			c3,0,6.2-0.4,9.2,0.2c2.8,0.5,5.2,0.6,8.1,0.6c1.3,0,2.8-0.2,4.1-0.1c1.4,0.2,2.6,0.8,4.1,0.9c3.1,0.1,5.8,1.1,8.9,1.8
			c3.5,0.8,7.3,0.4,11,0.8c-0.2-0.5-0.4-1.1-0.5-1.6c0,0.1-0.7-1.9-0.6-1.8c-0.6-1.1-1.4-1.8-2.4-2.4c-0.5,0.1-1,0.1-1.5-0.1
			c-0.2-0.5-0.5-1-0.9-1.4c-0.7-0.4-1.7-0.1-2.5-0.3c-1.4-0.5-1.8-1.9-3-2.5c-1.3-0.7-1.4,0.7-2.7,0.4c-1.2-0.3-0.3-0.9-0.9-1.5
			c-1-1-2.4-0.6-3.1-1.5c0.1,0.8-0.4,3.1,0.2,3.6c0.6,0.6,2.4,0.1,3.4,0.7c1.1,0.7,1.3,1.5,1.4,2.6c0.2,2.1-0.7,2-2.3,2.7
			c-1.4,0.5-1.4,0.8-2.8,0c-1.5-0.8-2.2-0.8-3.9-1c-1.1-0.1-2.4-0.6-3.3-1.4c-0.8-0.8-0.8-1.3-0.8-2.2c-0.1-0.3,0-0.7,0-1
			c0,0.4,0,0.7,0,1c0.5,3.5,7,4,8.1,0.5c-2.4,0-2.2-1.5-2.5-3.4c-1.7,0.7-1.9,1.1-2.9-0.9c-0.9-1.7-0.8-2.2-2.6-2.5
			c-1.6-0.2-3.4,0.3-5,0c-1.1-0.2-2.1-1.1-3-0.7c-2.1,0.8-0.7,2.9-3.4,1.5c-1.3-0.7-0.9-0.8-2.3-0.7c-0.2,0.4-0.5,0.7-1,0.7
			c-2.7,0.4-0.6-1.4-1.8-2.4c-1.4-1.2-2.5,1.7-3.8,1.5c-0.4-1.6,0.5-3.8-0.7-5.1c-1.3-1.3-2.9-0.4-4.2,0.2c-0.3-0.9,0.4-3.2-0.3-3.9
			c-0.6-0.5-2.2,0-3-0.3c-0.1-0.5-0.2-0.9-0.3-1.4c-1.8-0.5-3.7,0.1-5.6-0.1c-1.3-0.2-2.6-1.4-3.9-0.7c-1.2,0.7-1.2,2.7-1.8,3.9
			c-0.5,0.9-0.8,2.2-1.6,2.9c-1.1-2-4.3-1.6-5.9-0.7c-1.2,0.7-1.3,1.5-3.1,0.9c-0.9-0.3-1.6-1.1-2.4-1.6c-0.6-0.5-1.4-1.5-2.3-1.4
			c-0.2,0.3-0.5,0.6-0.8,0.9c-1.1,0.5-1.5,0.3-2.7,0.5c-1.4,0.3-1.4,1.2-3.2,0.7c-1.2-0.3-1.9-0.9-3.3-0.7c-1.5,0.3-2.5,1.2-4.1,0.9
			c-1.5-0.3-2.4-0.9-4.1-0.8c-1.3,0-2.8,0.2-4.1,0c-0.8-0.1-1.7-0.9-2.4-0.9c-1.1,0-1.7,1.1-3.3,0.9c-1.3-0.2-1.3-0.4-2.4-1
			c-2.4-1.4-4-1.7-6.3-0.7c-1-1.2-2.5-3.2-4.3-2.4c-2.6,1.2,0.7,2.7,0.8,4c-1.4,0.8-1.6-1.3-3.1-0.5c0.2,0.5,0.6,0.8,0.8,1.4
			c0,0.6-0.1,1.1-0.1,1.7c0.1,0.6,1.1,2.2,1.5,2.3c0.1-0.5,0.3-1,0.4-1.5c0.8,0.2,1.3,2.4,2.4,3c0.7,0.4,1.4-0.1,2.1,0.3
			c0.5,0.3,0.7,1,1.1,1.3c0.8,0.4,1.5-0.1,2.3,0.1c0.5,0.1,1.1,0.6,1.6,0.9c1.4,0.8,2.4,0.8,4.1,0.8c2.6-0.1,4.1,2.1,6.3,2.4
			c1.3-0.3,2.5-0.8,3.4-1.6C92,262.2,93.1,261.1,95.2,262z"/>
	</g>
	<g>
		<defs>
			<rect id="SVGID_95_" x="0" width="379.8" height="379.8"/>
		</defs>
		<clipPath id="SVGID_96_">
			<use xlink:href="#SVGID_95_"  style="overflow:visible;"/>
		</clipPath>
		<path class="st60" d="M320.8,294.4c-0.4-1.5,0.2-2.5-1-3.9c-0.3-0.4-1.1-1.4-1.6-1.6c-1-0.5-6-0.7-5.5,1.3c1.9,0.2,2.4,0,3.4,1.8
			c0.6,1.1,1.1,1.8,2,2.6c1.1,1.1,3.6,2.8,3.4,4.6c-0.8,0.1-1.5,0.2-2.3,0.2c-0.6,2.2,1.1,5.5-2.4,4.6c-1.5-0.4-2.7-2-3.9-3.1
			c0.4,0.1,0.7,0.1,1-0.2c-1.1-1.3-4.1-0.5-5.6-1.2c-0.9-0.5-1.9-1.5-3.1-1.1c-1.3,0.4-0.8,1.7-1.8,2.4c-1.1,0.8-5,0.2-6.3,0.1
			c-1,0-2.3-0.5-2.6,0.8c-0.1,0.5,0.2,1.2,0.6,1.8c1.8-0.1,3.6-0.8,6-0.1c4.6,1.2,9.1,2.4,13.7,3.9c5,1.6,10.4,2,15.6,2.7
			c6.4,0.8,12.2,3.3,18.7,3.3c2.6,0,4.6,0.5,7.1,0.8c2.4,0.3,5.1-0.1,7.6-0.1c1.5,0,3.1-0.2,4.7-0.1c-1.1-0.9-2.1-2-2.5-3.1
			c-0.9-2.2-0.6-3.7-2.1-5.8c-0.7-1-0.9-1.7-0.9-2.6c-1.5-0.5-2.6-1.6-3.9-2.5c-0.4-0.3-0.8-0.4-1.2-0.5c0.5,1.3,0.8,1.8,1.8,2.8
			c-0.4,1,1.3,1.6,0.8,2.9c-0.4,1.3-2.8,0.9-4,0.7c-0.1-0.9,0.3-2.3-0.9-2.4c-1.4-0.2-1.1,1.3-1.9,1.6c-2.1,0.9-1.6-1.7-2.2-2.4
			c-1.1-1.3-2.3-0.4-3.9,0.2c-1.1,0.4-3,1.5-2.8-0.9c-1.3-0.4-2.6,0.1-4-0.1c-1.2-0.2-2-0.9-3.1-1c0.7-1.7,0.8-2.1-0.1-3.9
			c-0.5-1-0.9-2.1-1.5-3c-2,0.8-4.2,1.1-4.3-1.8c-2,0.4-3.6,1.5-5.3-0.3c-0.2-0.2-0.4-0.4-0.5-0.7c-0.3,0.8-0.7,1.6-1.1,2.4
			C324.2,295.3,321.7,297.5,320.8,294.4z"/>
	</g>
	<g>
		<defs>
			<rect id="SVGID_97_" x="0" width="379.8" height="379.8"/>
		</defs>
		<clipPath id="SVGID_98_">
			<use xlink:href="#SVGID_97_"  style="overflow:visible;"/>
		</clipPath>
		<path class="st61" d="M162.9,264.7c0-0.3,0-0.6,0-1C162.9,264,162.9,264.4,162.9,264.7z"/>
	</g>
	<g>
		<defs>
			<rect id="SVGID_99_" x="0" width="379.8" height="379.8"/>
		</defs>
		<clipPath id="SVGID_100_">
			<use xlink:href="#SVGID_99_"  style="overflow:visible;"/>
		</clipPath>
		<path class="st62" d="M223.2,269.1c-1.8,0-2.9,1.1-4.3,0.2c-1.6-1.1-1.5-2.6-3.7-0.8c-1,0.9-1.6,2.1-3.3,1.2
			c-1.7-0.9-1.4-3.2-3.6-1.7c-1.7,1.1-1.5,1.9-3.9,1.8c-1.8,0-9.9,0.9-7.4-2.2c-1-0.5-1.4-1.4-2.3-1.9c-0.9-0.5-1.3,0-2.3-1
			c-0.8-0.8-1.7-3.6-2.5-3.8c1.1,3.8,3.2,7,6.2,9.9c1.5,1.4,1.4,3.1,0.8,4.6c1.7,0.4,3.6-0.1,5.3,0.2c0.7,0.3,1.5,0.5,2.3,0.7
			c1.1,0.1,2.2-0.3,3.3-0.1c2.2,0.4,4.2,1.7,6.3,2.3c4.9,1.3,10.4,1.9,15.5,1.8c3.2-0.1,6.8,1.5,9.7,2.6c3.3,1.3,6.1,3.5,9.9,4.5
			c7,1.8,7.7,4.4,14.7,5.9c2.4,0.5,10.6,5.1,13,5.7c1.6,0.4,6.8,1.7,8.1,2.4c0.3,0.1,0.5,0.2,0.8,0.3c0.1-0.7,0.3-1.4,0.1-2
			c-0.7-2-4.6-0.9-3.1-3.9c0.6-1.2,4.3-2.4,3-4.1c0,0.1-2.5-0.7-2.5-0.8c-1-0.2-2-0.2-3.1-0.2c-2.1,0-4.3-0.3-6.3,0.2
			c-1,0.2-1.3,1.1-2.6,0.5c-1.2-0.5-1.2-2-2.4-2.4c-1.2-0.4-2,0.8-2.6-0.7c-0.5-1.1,0.4-2.2-0.5-3.4c-1-1.2-1.4-0.4-2.7-0.7
			c-0.9-0.2-1.2-0.9-2.3-1c0.2-3-2.8-0.3-4.3-0.6c-1.1-0.2-1.6-1.2-2.4-1.7c-0.5-0.3-1.1-0.5-1.6-0.8c-1.6-1-2-1.7-4.1-1.6
			c-1.9,0-3.5,0.1-5.1-0.6c-1.5-0.7-3.1-1.6-4.7-1.9c-1.6-0.3-4.2,0.9-4.9-0.7c-0.6-1.3,0.7-3.4,1.8-4c2.8-1.4,2.4,2.7,4.6,2.2
			c0.1-0.5,0.2-0.9,0.3-1.4c2-0.6,3,0.3,4.7,0.7c2,0.5,3.4-0.5,4.9-1.5c0.7-0.5,1.2-1,1.5-1.4c0-0.2,0-0.4,0-0.7
			c-0.2-0.3-0.7-0.5-1.5-0.6c-1.1-0.1-2.3,0.3-3.3,0.1c-0.7-0.2-0.8-0.7-1.5-0.9c-0.2-0.1-0.4-0.1-0.7-0.1c-0.1,0-0.3,0-0.4,0
			c-1.7,0.1-3.2,1.2-4.7,0.4c-0.6-0.4-1-1.2-1.4-2c-1.5,0.7-3.1,1.4-3.6-0.9c-0.8,0.5-1.7,1-2.1,1.2c-0.1,0.1-0.3,0.1-0.4,0.2
			c-0.4,0.3-0.8,0.5-1.2,0.6c-0.9,0.4-1.8,0.8-2.7,1.3C225.9,270.1,225.5,269.1,223.2,269.1z"/>
	</g>
	<g>
		<defs>
			<rect id="SVGID_101_" x="0" width="379.8" height="379.8"/>
		</defs>
		<clipPath id="SVGID_102_">
			<use xlink:href="#SVGID_101_"  style="overflow:visible;"/>
		</clipPath>
		<path class="st63" d="M377,314.7c-0.2,0.1-0.4,0.1-0.7,0.2c2.4,0.6,4.3,1.2,6.6,1.4c-0.2-0.7-0.3-1.5-0.4-2.3
			C380.5,313.5,379,314.3,377,314.7z"/>
	</g>
	<g>
		<defs>
			<rect id="SVGID_103_" x="0" width="379.8" height="379.8"/>
		</defs>
		<clipPath id="SVGID_104_">
			<use xlink:href="#SVGID_103_"  style="overflow:visible;"/>
		</clipPath>
		<path class="st64" d="M-4.7,236.6c0.9-1.1,1.7-2.8,3.3-3.1c2.1-0.5,2.5,1.5,3.4,3c1.4-0.4,1.5-2,3-2.4c2.3-0.6,2.4,0.9,3.5,2.4
			c1.8-0.9,2.6-1,4.1,0.7c1.9,2.1,2.6,2.7,5.5,2.7c2.4,0,4.3,0.2,6.5-1c1.1-0.6,4.2-1.8,4.7-2.7c-1.1,1.4-2.5,2.7-4,3.7
			c-1.1,0.8-4,2.5-3.1,4.1c0.8,1.4,4.2,0.9,5.6,0.8c1.2-0.1,2.1-0.9,3.3-0.9c1.5,0,1.7,1.2,2.4,1.7c0.9,0.7,0.1,0.6,1.6,0.8
			c1.1,0.2,2.1-0.2,3.1,0.1c1.4,0.5,3,2.3,4.3,3.1c2,1.2,3.6,0.3,5.7,0.8c1.4,0.3,3.5,1.4,4.5,2.5c-1,1.5-1.8,0.6-2.9,0
			c-1.4-0.7-2.5-1.4-4-1.6c-2.7-0.4-4.7,1.7-7.4,1.6c-1.4,0-2.7,0-4.1,0c-0.8,0-1.7,0.1-2.5,0c-0.8-0.1-1.2-0.5-1.8-0.7
			c-1.5-0.3-3.1-0.2-4.7-0.2c-2,0-2.4-0.2-4-1c-2.7-1.4-6.1,0-9-0.8c-1.8-0.5-2.8-0.8-4.7-0.5c-0.9,0.2-0.5,0.6-1.8,0.5
			c-0.5-0.1-1.7-0.6-2.3-0.8c-2.6-1.1-2.9-3.3-4-5.7c-0.5-1-0.9-2.3-2-2.9C-3.9,240-6.5,238.9-4.7,236.6z"/>
	</g>
	<g>
		<defs>
			<rect id="SVGID_105_" x="0" width="379.8" height="379.8"/>
		</defs>
		<clipPath id="SVGID_106_">
			<use xlink:href="#SVGID_105_"  style="overflow:visible;"/>
		</clipPath>
		<path class="st65" d="M40.1,234.9c0,1.5-0.1,2.1,1,3.1c0.1,0.1,1.5,0.9,1.6,1c1,0.6,1.2,0.4,2.3,0.8c1.1,0.4,1.6,2,2.6,2.3
			c1.7,0.6,1.5-1.2,2.9-1.4c0.2,0.9,1.2,5.8,2.7,3.5c-0.1,1,0,1.8-0.2,2.8c-0.2,1-0.9,1.1-0.5,2.4c0,0.1,2.1,2.4,2.3,2.5
			c1.2,0.6,2.2-0.4,2.5-1.5c0.3-1-0.5-2.4,0.1-3.4c0.7-1.1,2-0.8,3.1-0.8c1,0,2.3-0.3,3.3-0.1c1.3,0.3,1.6,0.9,3.2,0.8
			c2,0,4.5-0.4,6.5,0c1.2,0.2,2,0.8,3.3,0.9c1.3,0.1,2.7,0,4.1,0c1.4,0,2,0.1,3.3,0.6c0.9,0.4,2.2,1.2,3.3,1.1
			c0.9-0.1,1.5-1.2,2.2-1.7c0.1-0.5,0.5-0.8,1-0.8c0.8-0.5,1.2,0.4,1.9-0.6c2.8,1.2,1.6-0.1,2.4-2.5c1,0.2,1.8,2.3,2.3,3.2
			c0.9,1.7,0.9,2.9,3.3,2.4c1.5-0.3,1.9-0.8,2.7-2.2c0.6-1,1-3.6,2.4-4.2c3.1-1.1,2.1,6.7,4.9,2.3c0.4-0.6,0.4-1.8,1.4-1.7
			c1,0,1,1.3,1.8,1.6c2,0.8,2.3-1.6,2.4-3c3.4-0.9,5.7,3,9.1,0.9c1.8-1.1,2.3-1.8,4.7-1.8c0.8,0,1.7-0.1,2.4,0
			c1.1,0.1,2.2,0.9,3.1,0.7c0.6-1.2-0.6-1.8-1.3-2.6c-0.9-1.1-1-1.5-1.1-2.9c-4.2-1.1-8.2,2.1-11.9-0.1c-1.1-0.6-1-1.2-2.6-0.7
			c-0.9,0.4-1.4,1.2-2.4,1.5c-2,0.5-4.4-0.5-6.4,0.1c-0.1,0.5-0.2,0.9-0.3,1.4c-1.1,0.3-2.1,0-3.1,0.1c-1.3,0.2-1.9,0.7-3.2,0.8
			c-1,0.1-2.1,0-3.1,0.2c-0.2,0.4-0.5,0.7-0.9,0.7c-0.8,0.1-1.6-0.8-2.5-0.9c-1-0.2-2,0.1-3.1-0.1c-0.2-0.4-0.5-0.6-0.9-0.7
			c-0.7-0.2-1.8,0-2.5,0c-3.1,0.2-5.5,3.7-6.7-0.7c-1.5,0.1-1.3,1.8-2.5,2.2c-1.4,0.5-1.5-0.6-2.4-1.3c-0.7-0.5-2-0.8-2.9-1.2
			c-0.4-0.2-1.6-0.5-1.8-0.6c-0.5-0.3-0.9-0.8-1.4-1.1c-2.2-1.2-5.2,0.4-7.4-0.8c-0.8-0.4-1.2-1.7-2-2.1c-1.2-0.6-3.4-0.2-4.7-0.2
			c-2.9,0-5.2-0.3-7.9-1c-0.2-0.4-0.5-0.6-0.9-0.7c-0.7-0.2-1.8,0.1-2.5,0.1c-0.7,0-1.6-0.2-2.3,0.2c-0.5,0.3-0.7,1.1-1.1,1.3
			c-1.8,0.8-2.4-1.1-3.3-2.1c-1.1-1.1-2.3-1.4-3.9-0.8c-1.4,0.5-1.7,1.3-3.2,1.5c-1.5,0.2-3.1,0-4.7,0c2.3,0,3.8-0.2,5.5,1.6
			c0.9,0.9,1,1.8,2.4,2.3C37.2,236,38.7,235,40.1,234.9z"/>
	</g>
	<g>
		<defs>
			<rect id="SVGID_107_" x="0" width="379.8" height="379.8"/>
		</defs>
		<clipPath id="SVGID_108_">
			<use xlink:href="#SVGID_107_"  style="overflow:visible;"/>
		</clipPath>
		<path class="st66" d="M148.3,242.3c0.1,3.3,0.4,5.5,4,5.8c0.6,2.3-0.3,3.7,2.6,4c1.3,0.1,1.6,0,2.7,0.6c1,0.6,1.7,1.4,3,1.7
			c1.6,0.4,5.1-0.6,6.4,0.3c0.3,0.2,0.7,1.6,1.2,2.1c0.7,0.7,1.6,0.9,2.3,1.5c-0.1-1.2-0.2-2.5,0.1-3.7c0.5,0.2,0.8,0.7,1.4,0.8
			c0.8,0.2,1.5-0.3,2.3,0.1c1.4,0.8,1.1,3.2,1.9,3.8c1.3,0.9,2.6-0.7,3.9-0.7c1.4,0,2.4,0.8,3.9,1c0.1,1.9,1.8,2.4,3.2,3
			c0.7-2.4-1.4-7.3,2.6-7.3c1.6,0,2,1,3.2,1.7c0.6,0.3,1.2,0.1,1.9,0.6c0.6,0.4,1.1,1.2,1.6,1.7c1.3,1.2,2.4,0.4,3.7,1.2
			c0.9,0.6,1,3.3,2.5,2.2c0.5-0.4,0.2-4.1,0.2-4.8c-0.4-2.7-1.9-1.3-4-0.9c-0.5-1.9,1.1-5.9-1.7-5.7c-1.7,0.1-1.9,1.9-3.3,2.4
			c-1.7,0.6-2.6-0.6-2.6-2.2c-0.9-0.2-2.2-0.3-3.1-0.1c-1.1,0.2-1.4,0.6-2.4,0.9c-1,0.2-2.3-0.1-3.3-0.1c-0.6-0.1-1.1,0-1.7,0.2
			c-0.5,0.2-1.4,1.2-1.8,1.3c-2.4,0.4-2-3.1-4-3.8c-1.4-0.5-1.1,0.8-2.3,0.8c-0.5-0.1-0.8-0.3-1-0.7c-0.8-0.1-1.4-0.2-2.3-0.2
			c-1.9,0.1-3.3-0.7-4.9-1.6c-1.3-0.8-2.6-2.8-4-3.3c-1-0.3-2.3,0.2-3.3,0.1c-1.2-0.2-1.9-0.5-3-1c-1.1-0.5-1.3-0.6-2.6-0.6
			C149.3,243,149.7,243.7,148.3,242.3z"/>
	</g>
	<g>
		<defs>
			<rect id="SVGID_109_" x="0" width="379.8" height="379.8"/>
		</defs>
		<clipPath id="SVGID_110_">
			<use xlink:href="#SVGID_109_"  style="overflow:visible;"/>
		</clipPath>
		<path class="st67" d="M298.9,319.6c-0.2,0.1-0.5,0.1-0.7,0.2c0.1,0.9,2.7,3.8,3.4,4.5c1.6,1.6,3.6,1.1,5.3,0.2
			c0.3,1.6,0.8,3.7,2.6,4c1.9,0.4,2.7,0.1,4.3,1.4c1.2,0.9,2.3,2.1,3.7,2.9c1.5,0.9,3.4,1.3,4.9,2.4c0.9,0.7,1.4,1.9,2.6,2.3
			c1.6,0.5,2.6-0.2,4.1,0.8c1,0.6,1.7,1.5,2.6,2.2c1.6,1.2,3.2,1.9,4.6,3.5c1.2,1.4,1.3,1.8,3.2,1.4c0.7-0.1,0.7-0.9,1.8-0.7
			c1,0.1,1.4,0.7,1.9,1.5c0.7,1.1,0.8,3,1.6,4.1c2,2.6,2.3-0.7,3.9-0.8c2-0.1,5.1,5.6,6.3,6.9c1.4,1.4,2.8,2.4,4.1,3.9
			c0.7,0.8,2.4,2.2,2.5,3.1c-2.9-1-5.7-1.3-8.8-1.5c-1.7-0.1-4.2-0.6-5.7-1.4c-1.5-0.8-2.1-2.3-3.4-3.2c-1.3,1.5-0.8,2.8-3,3
			c-1.8,0.1-3.3-1.1-4.9-1.5c-1.1-0.2-3.1-1.2-4.1-1.1c-1.6,0.3-1.3,2.1-3.2,1.6c-1.2-0.3-2.9-2.5-4-3.3c-1.3-1-2.4-2.3-4.1-2.3
			c-2,0-2.1,1.5-4.1,0.1c-1.2-0.9-3.2-2.5-4.1-3.9c0.1,2-0.2,2.9,1.1,4.4c0.5,0.6,1.2,1,1.7,1.6c0.5,0.7,0.6,1.4,1.2,2.1
			c1.1,1.3,3.1,1.7,4.3,2.8c1.1,0.9,1.7,2.8,2.3,4.1c-1.4,1-3.9,1.5-5.7,1.1c-2.2-0.6-3.2-2.6-4.6-4.2c-0.7-0.8-1.4-1.6-2.7-1.7
			c-1.4-0.1-1.2,0.5-2.2,1.1c-1.9,1.1-4,0.7-6-0.2c-1.3-0.6-2.6-1.2-3.8-1.8c-1.5-0.7-3.6-1.4-4.9-2.4c-1.7-1.4-3-2.1-5.1-3
			c-0.9-0.4-3.7-2-4.5-1.5c0.4,1.7,2.4,2.3,2.8,3.9c0.3,1.4,0.1,1.8-1.5,1.7c-1.5-0.1-1.8-1.4-2.7-2.4c-2.2-2.7-5.2-4-7.7-6
			c-2.4-2-3.7-5.4-6.5-6.5c-1.1-0.4-4.2-0.5-4.9-1.6c-1-1.4,0.2-4.7-0.3-6.4c-0.5-1.7-3.2-2.7-4-0.9c-0.4,0.8,0.9,2.5-0.7,2.6
			c-0.7,0.1-1.4-1.1-1.8-1.5c-1.2-1.2-2.4-2-3.9-2.8c-0.8-0.5-1.5-1.2-2.3-1.7c-0.8-0.5-1.7-0.3-2.5-0.8c-2.9-1.8-4.7-7.1-8.1-2.9
			c-0.1,0.4-0.2,0.9-0.3,1.3c-0.4,0.1-0.8,0.2-1.3,0.3c-0.7,0.6-0.9,1.2-1.8,1.5c-1,0.3-2.3-0.4-3.3-0.1c-1.4,0.4-1.9,1.5-3.1,2.2
			c-1.2-0.5-1.2-2.5-1.8-3.5c0.1,1-0.5,2.8,0.7,3c0.4-2.3,1.4-4.6,4.3-3.8c2.1,0.6,6.7,2,6.6-1.7c2.2-0.6,4.7,0.4,5.6-2.5
			c0.4-1.2-0.2-2.3-1-3.1c-0.4-0.1-0.8-0.2-1.3-0.3c-0.6-0.6-0.8-1.6-1.2-2.3c-1.2-2.2-2.9-4.1-4.1-6.3c-0.5-0.8-0.9-1.8-1.4-2.6
			c-0.9-1.6-1.7-1.6-3.3-2.4c-1.8-0.9-2.8-3.1-4.8-3.9c-1.3-0.5-2.9-0.5-4.1-1.1c-1.8-0.9-2.8-2.4-4.9-3.1c-1.2-0.4-3-0.9-3.9-1.8
			c-1-1-1.2-2.8-1.8-4c-1-2-2.3-4.9-3.8-6.6c2.2,1.2,4,3.5,6,5c1.9,1.5,3.9,2.9,5.9,4.3c1.9,1.3,2.6,1.5,4.9,1.4
			c2.8,0,3,0.2,4.7,2.5c0.7,0.9,1.7,2.5,2.8,3.1c1.3,0.7,3.3,0,4.7,0.1c3.7,0.5,4.6,4.6,7.1,6.8c2.3,1.9,6.2,1.8,9,1.2
			c0.8-0.2,0.7-0.8,1.8-0.7c0.5,0.1,1.2,0.7,1.6,0.9c1.4,0.7,2.8,1.5,4.3,2.3c1.5,0.8,3.1,0.8,4.7,1c2.4,0.2,2.1,1.6,3.4,3.3
			c1.2,1.6,2.2,1.4,3.9,1.6c1.4,0.2,3.1,1,4.1,2.2c0.2-2.7-3.3-5.3-2.4-7.8c1.3,0.1,1.7,2.1,3,2.3c0.3-0.6,0.3-1.4,0.1-2.1
			c0.6,0.5,1.6,0.9,2.3,1.2c1.3-2.9,1.9-0.4,3.5,0.3c1.7,0.8,1,0.1,2.4-0.5c1.8-0.8,1.5-0.3,2.7,0.9c1.2,1.2,3.1,2.4,4.7,3.3
			c1,0.5,2.1,1.3,3.3,1.1C298.4,319.5,297.6,319.2,298.9,319.6z"/>
	</g>
	<g>
		<defs>
			<rect id="SVGID_111_" x="0" width="379.8" height="379.8"/>
		</defs>
		<clipPath id="SVGID_112_">
			<use xlink:href="#SVGID_111_"  style="overflow:visible;"/>
		</clipPath>
		<path class="st68" d="M317,352.7c-1.5-1.2-3.1-1.8-4.8-2.3c1,1.2,2.6,2.6,3.7,3.4c1.3,0.9,1.8,0.6,2.5,0.3
			C318,353.7,317.5,353.2,317,352.7z"/>
	</g>
	<g>
		<defs>
			<rect id="SVGID_113_" x="0" width="379.8" height="379.8"/>
		</defs>
		<clipPath id="SVGID_114_">
			<use xlink:href="#SVGID_113_"  style="overflow:visible;"/>
		</clipPath>
		<path class="st69" d="M251.6,328.2c0-0.1,0-0.1,0-0.2C251.6,328,251.6,328.1,251.6,328.2z"/>
	</g>
	<g>
		<defs>
			<rect id="SVGID_115_" x="0" width="379.8" height="379.8"/>
		</defs>
		<clipPath id="SVGID_116_">
			<use xlink:href="#SVGID_115_"  style="overflow:visible;"/>
		</clipPath>
		<path class="st70" d="M357.4,358.7c-0.8-0.8-1.7-1.5-2.6-2.3c-0.2-0.2-0.4-0.5-0.7-0.9c0.1,0.2,0.2,0.4,0.3,0.5
			C355.2,357.1,356.3,358,357.4,358.7z"/>
	</g>
	<g>
		<defs>
			<rect id="SVGID_117_" x="0" width="379.8" height="379.8"/>
		</defs>
		<clipPath id="SVGID_118_">
			<use xlink:href="#SVGID_117_"  style="overflow:visible;"/>
		</clipPath>
		<path class="st71" d="M232.1,327.9c-2.6-0.7-3.7,1.1-4.1,3.2c0.2,0.5,0.5,1,1,1.2c1.2-0.8,1.7-1.8,3.1-2.2c1-0.2,2.3,0.4,3.3,0.1
			c0.9-0.3,1.1-0.9,1.8-1.5c0.4-0.1,0.9-0.2,1.3-0.3c0.1-0.4,0.2-0.8,0.3-1.3c0.4-0.5,0.8-0.8,1.1-1.1c-0.4,0-0.8,0.1-1.1,0.2
			C238.9,329.9,234.3,328.5,232.1,327.9z"/>
	</g>
	<g>
		<defs>
			<rect id="SVGID_119_" x="0" width="379.8" height="379.8"/>
		</defs>
		<clipPath id="SVGID_120_">
			<use xlink:href="#SVGID_119_"  style="overflow:visible;"/>
		</clipPath>
		<path class="st72" d="M227.9,331.8c0-0.2,0.1-0.4,0.1-0.7c-0.3-0.8-0.4-1.7-0.8-2.3C227.3,329.8,226.8,331.6,227.9,331.8z"/>
	</g>
	<g>
		<defs>
			<rect id="SVGID_121_" x="0" width="379.8" height="379.8"/>
		</defs>
		<clipPath id="SVGID_122_">
			<use xlink:href="#SVGID_121_"  style="overflow:visible;"/>
		</clipPath>
		<path class="st73" d="M251.6,328.2c-0.1,0.7-0.1,1.4,0.2,1.9c0.2,0,0.3-0.1,0.4-0.2C251.9,329.4,251.6,328.8,251.6,328.2z"/>
	</g>
	<g>
		<defs>
			<rect id="SVGID_123_" x="0" width="379.8" height="379.8"/>
		</defs>
		<clipPath id="SVGID_124_">
			<use xlink:href="#SVGID_123_"  style="overflow:visible;"/>
		</clipPath>
		<path class="st74" d="M239.9,326c0.8-0.1,1.6-0.1,2.3-0.2C241.6,325.4,240.8,325.4,239.9,326z"/>
	</g>
	<g>
		<defs>
			<rect id="SVGID_125_" x="0" width="379.8" height="379.8"/>
		</defs>
		<clipPath id="SVGID_126_">
			<use xlink:href="#SVGID_125_"  style="overflow:visible;"/>
		</clipPath>
		<path class="st75" d="M244.4,323.7c-0.4,1.4-1.2,1.8-2.1,2.1c1.6,0.8,2.9,3.1,4.7,4.2c0.8,0.5,1.7,0.3,2.5,0.8
			c0.8,0.4,1.4,1.2,2.3,1.7c1.5,0.9,2.7,1.6,3.9,2.8c0.4,0.5,1.1,1.6,1.8,1.5c1.6-0.1,0.4-1.8,0.7-2.6c0.8-1.8,3.4-0.8,4,0.9
			c0.5,1.7-0.7,5,0.3,6.4c0.8,1,3.9,1.1,4.9,1.6c2.8,1.1,4.2,4.5,6.5,6.5c2.5,2.1,5.5,3.4,7.7,6c0.8,1,1.1,2.3,2.7,2.4
			c1.5,0.1,1.8-0.3,1.5-1.7c-0.4-1.7-2.4-2.3-2.8-3.9c0.8-0.5,3.6,1.1,4.5,1.5c2,0.9,3.4,1.7,5.1,3c1.3,1.1,3.4,1.7,4.9,2.4
			c1.3,0.6,2.6,1.3,3.8,1.8c2,0.9,4.1,1.3,6,0.2c1-0.6,0.8-1.2,2.2-1.1c1.2,0.1,1.9,0.9,2.7,1.7c1.4,1.5,2.5,3.6,4.6,4.2
			c1.7,0.5,4.3,0,5.7-1.1c-0.7-1.3-1.2-3.1-2.3-4.1c-1.1-0.9-2.8-1.4-3.9-2.4c-0.7,0.1-1.3,0.1-1.8,0.1c-2.7,0-3.4-1.2-5.5-2.7
			c-1.1-0.8-2.2-0.1-3.3-0.8c-1.2-0.7-0.9-1.5-2.6-1.5c-1.3,0-1.9,1.1-3.1,0.7c-0.6-0.2-1.6-1.7-2-2.2c-2.2,0.9-3.6,1-4.9-1.7
			c-2.1,0.6-0.9,3.5-4,1.8c-1.5-0.8-2.2-3-3.7-3.4c-0.5,1.7,0.1,2.5,0.5,3.9c-1,0-0.9-0.9-1.7-1.3c-0.7-0.4-1.5,0.1-2.1-0.3
			c-0.9-0.6-1.9-2.7-1.9-3.7c-2.5,0-3.7-3.2-5-4.9c-0.3-0.1-0.5,0.1-0.6,0.4c-1.5-1.7-2.3-2.1-2.6-4.4c-1.7-0.1-2-1.1-2.5-2.4
			c-0.4-0.8-0.5-0.8-0.6-1.8c-0.1-0.7,0.4-1.7-0.1-2.3c-0.2-0.3-2-0.5-2.4-0.7c-0.6-0.3-0.9-0.9-1.5-1.2c-1.7-1-2.2-0.6-3.3,0.8
			c-0.6-0.5-1-0.9-1.4-1.5c-0.1-0.4-0.2-0.9-0.3-1.3c-1.7-1-1.5,1.2-1.6,2.2c-1.4,0.1-3.3,1.2-4.6,0.8c-0.4-0.1-0.9-0.5-1.2-0.9
			c-0.1,0.1-0.2,0.2-0.4,0.2c-0.3-0.6-0.3-1.3-0.2-1.9c0-0.1,0-0.2,0-0.2c0,0.1,0,0.1,0,0.2c0,0.6,0.2,1.2,0.6,1.7
			c0.9-0.8-0.7-3.8-1.2-4.6c-1.5-3.1-2,0.4-4.1-0.9c-1.1-0.7-0.9-2.4-2.6-2.4l0,0C244.6,322.5,244.6,323.1,244.4,323.7z"/>
	</g>
	<g>
		<defs>
			<rect id="SVGID_127_" x="0" width="379.8" height="379.8"/>
		</defs>
		<clipPath id="SVGID_128_">
			<use xlink:href="#SVGID_127_"  style="overflow:visible;"/>
		</clipPath>
		<path class="st76" d="M347.7,353.8c-0.9-0.2-2.5-0.5-3.3-0.8c-0.7-0.3-0.8-0.7-1.4-1.1c-1.7-0.9-2-0.3-3.3,1.2
			c-2.1,2.6-1.8,0.5-3.3-1.1c-1-1.1-0.7-0.2-1.8-0.7c-0.9-0.4-1.5-0.8-2.3-1.4c-1,1.1-2.3-0.2-3.4-0.3c-0.9-0.1-1.6,0.2-2.5-0.1
			c-0.6-0.5-1.1-0.9-1.7-1.4c-1.4-0.1-1,0.9-2.6,0.1c-0.6-0.3-0.6-0.8-1.4-1.1c-0.6,0-1.1,0.1-1.7,0.1c-1.5-0.4-1.5-0.9-3.2-0.7
			c-1.4,0.2-1.8,0.3-3.2-0.2c-1.4-0.5-1.8-0.8-3.2-1.7c-1.4-0.9-2.4-1.1-4-0.7c0.7,2.8,0.9,4.7,3.9,5.6c0.8,0.2,1.7,0.4,2.5,0.7
			c0-0.1,0-0.2,0-0.4c0.1,0.2,0.2,0.3,0.4,0.5c1.7,0.5,3.3,1,4.8,2.3c0.5,0.4,1,0.9,1.4,1.4c0.4-0.2,0.9-0.4,1.6-0.4
			c1.7,0,2.8,1.3,4.1,2.3c1.1,0.8,2.8,3,4,3.3c1.9,0.5,1.7-1.3,3.2-1.6c1-0.2,3,0.8,4.1,1.1c1.6,0.4,3.1,1.6,4.9,1.5
			c2.2-0.1,1.7-1.5,3-3c1.4,0.9,2,2.4,3.4,3.2c1.5,0.8,4,1.3,5.7,1.4c3.2,0.2,6,0.5,8.8,1.5c0-0.9-1.8-2.3-2.5-3.1
			c-0.5-0.6-1-1.1-1.6-1.6c-1.1-0.8-2.1-1.6-3-2.7c-0.1-0.1-0.2-0.3-0.3-0.5c-0.5-0.7-1.1-1.5-1.7-2.4c-0.2-0.1-0.4-0.2-0.6-0.2
			C350.3,352.6,349.5,354.2,347.7,353.8z"/>
	</g>
	<g>
		<defs>
			<rect id="SVGID_129_" x="0" width="379.8" height="379.8"/>
		</defs>
		<clipPath id="SVGID_130_">
			<use xlink:href="#SVGID_129_"  style="overflow:visible;"/>
		</clipPath>
		<path class="st77" d="M107.6,263.4c-0.1,2.8,1.3,3.9,3.9,4.2c0,0.9,0.7,2.3,0.9,3.1c0.6,1.9,0.3,2,2.4,2.4
			c3.3,0.6,6.3,0.8,9.8,0.8c2.1,0,3.2-0.1,4.9,1.4c1,0.9,1.9,2,3,2.8c1.1,0.8,2.3,1.7,3.4,2.3c1.3,0.6,2.7,0.9,3.5,2.2
			c1,1.5,0.7,1.7-1,1.9c-1.6,0.2-2.6,0.6-4.1,0.8c-1.8,0.2-2.5-0.3-3.9,1c-1.1,1-1.9,1.7-3.5,2.1c-1.5,0.4-3.3,0.2-4.9,0.2
			c-1.8,0-3.1,0.6-4.9,0.8c-1.6,0.2-2.8,1-4.3,1.4c-0.8,0.2-2.9,1.2-3.6,1c5-0.2,10.1,0,15.2,0c2.4,0,4.9,0,7.3,0
			c1.7,0,2.4,0.3,3.9,1c1.2,0.6,2,0.6,3.4,0.6c1.1,0,2.2,0,3.3,0c1.6,0,1.9,0.5,3.2,0.8c2.3,0.6,6.3,0.1,8.7,0
			c2.6-0.2,5.1-1,7.7-1.5c2.1-0.4,4.3-0.2,6.5-0.2c3.9,0,7.7-1.8,11.5-2.6c3.5-0.7,6.1-1.4,9.6-1.4c1.1,0,2.2-0.1,3.3,0
			c1.5,0.1,2.6,0.8,4.1,0.8c1.3,0.1,2,0,3.3,0.6c1.5,0.7,2.3,1.3,4.1,0.8c2.2-0.6,5.5-1.4,7.5,0c1.5,1,2.4,3.3,3.8,4.2
			c0.7,0.4,2,0.5,2.7,0.8c1.2,0.5,1.4,0.9,2.4,1.7c0.6,0.5,1.4,0.7,2,1.2c1,0.8,2.4,1.5,3.3,2.4c1.9,2,3.2,3.5,5.7,4.6
			c0.3-3,3.1-1.5,4.3-3.7c-0.1,1.6-0.4,3.9-0.1,5.5c0.3,1.2,1.4,2.7,1.9,4c0.4,0.9,0.3,1.7,0.6,2.5c0.3,0.9,1.2,1.4,1.5,2.4
			c0.6,1.7,0.7,3.2,0.9,4.9c0.2,1.8,0.9,2.8,0.8,4.9c0,1.8-0.1,4.9,2.5,2.5c1-0.9,1.7-5,3.2-5c0.7,0,1.5,1.1,1.8,1.7
			c0.7,1.2,0.5,1.8,1.4,2.5c1.8,1.4,2.4-0.1,3.9-1.1c1.4-0.8,2.8-0.5,4.3-1.4c1.7-1,1.7-2.6,3.3-3.9c1.4-1.2,2.4-2.6,3.9-3.6
			c1.7-1.2,2.3-2,4.2-1.4c1.1,0.3,3.9,0.9,4.7,1.8c1.1,1.1,1.8,4.1,4.1,3.8c0.7-0.1,1.5-1.8,2-2.2c0.5-0.4,1.5-0.6,2-0.9
			c1,1.4,1.2,3.9,2.4,5c1.8,1.7,3.3-0.1,3.5-1.8c0.1-1.2,0-4.1,2.2-3.1c0.9,0.4,0.7,1.5,1.2,2.1c0.5,0.7,1.3,0.8,1.4,1.7
			c-1.3,0.2-1.6,0.1-2.6,0.9c-1,0.8-2.1,2.8-2.3,4.1c-0.3,2-0.5,5.8,1,7.1c1.1,0.9,2,0.6,3.1,1c1,0.4,1.3,1.3,2.2,1.9
			c2.4,1.6,3.4-2.9,4.3-4.9c-0.2,1.3,0.3,4.7,2.3,3.7c0.7-0.4,1.7-5.6,1.8-6.4c0.2-1.9,0.5-2.6,1.4-4.2c0.9-1.7,2-3.8,4.3-3.1
			c0.8,0.2,0.8,0.7,1.5,1.1c1.1,0.5,2.2,0.7,3.3,1.2c1.3,0.6,3.9,0.8,4.7,2c0.7,1.1-0.6,3.9,1.8,3.8c1.8-0.1,2.8-4,5-3.2
			c1,0.4,0.6,0.7,1,1.5c0.2,0.4,0.5,2.4,0.7,2.5c1.9,1.6,2.9-2.5,4.1-3c2.1-0.8,1.6,2.6,1.5,3.9c-0.2,1.3-0.2,1.3-1,2.2
			c-0.4,0.5-1.6,1.1-1.5,1.8c0.1,1.3,4,1,5,0.8c2.9-0.5,4.7-3.2,7.4-4c2.2-0.7,2.4,0.8,4,1.7c1,0.6,2,0.5,3.1,0.8
			c0.7,0.2,1.5,0.7,2.5,0.8c0.5,1.8-0.5,3.1,1.7,3.8c1.6,0.5,3.3-0.1,4.9,0.4c1.7,0.5,3,0.7,4.9,0.6c2.1,0,3.7,0.7,5.7,0.8
			c1.6,0.1,2.9,0,4.3-0.6c1.5-0.7,2.4-2.3,3.9-2.7c0.9-0.3,1.5-0.1,2.5-0.5c0.8-0.4,1.5-1.1,2.5-1.1c1.6-0.1,2.6,1.4,4,1.7
			c1.8,0.4,2.7-0.5,4.1-0.9c1.5-0.4,3.4,0.5,5,0.1c3.5-1,0.8-6.7,0.8-9c0-1.6,0-3.3,0-4.9c0-0.8,0.1-1.7,0-2.5
			c-0.1-0.8-0.5-1.2-0.7-1.8c-0.4-1.6-0.1-3.1-2-1.7c-0.7,0.5-0.7,1.4-1.2,1.9c-0.9,1-1.2,0.8-2.7,0.8c-1.9,0-2.6,0.1-4-1
			c-1.9-1.3-2.9-1.9-5.1-2.2c-3.7-0.6-6.7-1.7-10.4-1.7c-3,0-6.9,0.7-9.8-0.2c-3.1-0.9-6.1-2.8-8.9-4.1c-3.1-1.5-6.6-2.9-10-3.1
			c-1.8-0.1-3.7,0.1-5.5,0c-2.1,0-3.6,0.8-5.7,0.8c-1.7,0-3.2-0.4-4.9-0.8c-2.4-0.5-4.7-1-7.2-1.4c-4.9-0.9-9.3-2.7-14.1-4.1
			c-4.3-1.2-8.7-2.5-13-3.3c-1.8-0.3-3.7-0.9-5.5-1c-2-0.2-4-0.3-5.9-0.7c-0.7-0.2-0.8-0.7-1.5-0.9c-0.9-0.3-1.5-0.2-2.5-0.6
			c-1.8-0.8-3.1-1.4-4.9-1.8c-1.8-0.4-3-0.8-4.9-0.8c-1.8,0-3.9,0.3-5.7-0.2c-1.6-0.4-3.3-0.4-4.9-0.8c-1-0.2-1.4-0.6-2.4-0.7
			c-0.8,0-1.7,0.2-2.5,0.1c-3.1-0.7-6-2.9-8.9-4.1c-3-1.3-6-2.8-8.9-4.1c-2.6-1.1-5.7-1.4-8.4-3c-3-1.8-4.3-4.3-7.9-4.3
			c-1.6,0-3.3,0-4.9,0c-2.1,0-3.6,0.8-5.7,0.8c-3.2-0.1-5.9,0.3-8.8-1c-3-1.3-6.7-0.2-10-0.6c-1.6-0.2-2.5-1.2-4-1.9
			c-1.7-0.7-3.1-0.6-4.9-0.6c-3.6,0-6.2-0.8-9.8-0.8c-3.1-0.1-5.2-2.1-8.1-2.5c-1.8-0.2-3.2-0.2-4.9-0.6c-0.9-0.2-1.7,0.1-2.5-0.1
			c-1-0.2-1.3-0.7-2.4-0.9c-1.6-0.2-3.3,0-4.9,0c-2.1,0-3.7-0.1-5.7-0.6c-0.8-0.2-1.5,0-2.3-0.3c-0.6-0.3-1-1.1-1.8-1.3
			c-1.8-0.6-3.4-0.8-5.1-1.6c-3-1.4-5.1-3.5-8.8-3.4C119.9,261.8,109.1,261.5,107.6,263.4z"/>
	</g>
	<g>
		<defs>
			<rect id="SVGID_131_" x="0" width="379.8" height="379.8"/>
		</defs>
		<clipPath id="SVGID_132_">
			<use xlink:href="#SVGID_131_"  style="overflow:visible;"/>
		</clipPath>
		<g class="st78">
			<path class="st79" d="M107.6,263.4C107.6,263.4,107.6,263.4,107.6,263.4C107.6,263.4,107.6,263.4,107.6,263.4z"/>
			<path class="st79" d="M360.1,328.3c0-0.2,0-0.7,0-1.4C360.1,327.5,360.1,328,360.1,328.3z"/>
			<path class="st79" d="M381.5,315.5c-0.8-1.4-1.3-2.8-2.1-4.3c-0.5-1.1-1.5-2.1-1.6-3.5c-0.2-0.1-3.7,0.8-3.9,0.7
				c-1.5-0.3-2.6,0.5-4,0.8c-0.3-0.9,0.1-1.7-0.3-2.6c-0.5,0.3-0.9,1.5-1.5,1.7c-1,0.3-0.7-0.7-1.4-1.1c-1.5-0.8-1.6-0.8-2.5,1.1
				c-0.7,1.5-3,6.3-4.9,5.4c-0.1-0.1-0.2-0.1-0.3-0.2c-0.2-0.3-0.4-0.7-0.6-0.9c-0.3-0.9-0.2-2-0.7-2.7c-0.8-1.2-2.2-1.4-3.3-1.8
				c-2-0.7-5.1-1.3-7.4-0.5c-0.1,0.2-0.1,0.5-0.1,0.8c-0.4,0-0.7,0.1-0.9,0.2c0-0.1-0.1-0.2-0.2-0.3c-1.7-0.7-1.6,1.3-2.9,1.4
				c-0.1-1.2-0.4-2.8-1.2-3.8c-1.4-1.7-2.1-0.5-3.9-0.1c-3,0.5-6.7-0.1-9.8-0.1c-3,0-6.8,0.6-9.8,0c-1.8-0.4-2.1-1.6-3.4-2.3
				c-0.5-0.3-1.3-0.4-2.2-0.3c-1.2-0.9-1.5-2.4-3.3-2.3c-2,0.1-1.8,1.9-3.4,2.3c-1.6,0.4-1.7-0.9-2.8-1.7c-1.5-1-2.7-0.2-4.3-0.5
				c-1.4-0.4-2.9-1.7-4.7-0.7c-1.5,0.9-1.2,1.6-3.4,1.5c-1.1-0.1-1.6,0.1-2.5-0.8c-0.7-0.7-0.7-1.9-1.5-2.4
				c-0.5-0.3-1.4-0.4-2.2-0.3c0,0,0,0-0.1,0c-1.1-0.7-1.6-0.2-2.7-0.5c-1.3-0.4-0.8-1.7-1.7-2.4c-0.8-0.6-2,0.2-2.9-0.3
				c-1.2-0.7-0.9-1.3-2.6-1.5c-1.2-0.1-1.6,0.1-2.7-0.6c-1.3-0.9-1.9-3.1-3-3.5c-1.3-0.6-3,0.4-4.1,0.7c-1.1,0.3-2.1,0.2-3.3,0.2
				c-2.5,0-4.4,0-6.5-1.4c-1.7-1.1-2.7-2.8-4.7-3.7c-1.8-0.8-3.8-0.6-5.9-0.6c-1.4,0-2.9,0.1-3.9-1c-0.8-0.8-0.2-1.8-1.6-2.5
				c-0.8-0.5-1.7-0.3-2.5-0.7c-0.6-0.4-1-1.3-1.6-1.7c-1.9-1.3-4.6-0.3-6.8-1.2c-1.5-0.7-1.3-0.3-2.2-1.8c-0.7-1.1-1.1-1.8-2.6-1.8
				c-0.1-0.9,0.2-2.1-0.7-2.3c-0.1,1.2-0.5,2.4-1.7,3c-0.1-0.7,0-1.5-0.3-2.1c-1.3,0.1-1.5,2.4-3.1,1.4c-1.6-0.9,0.1-3.6-1.4-3.9
				c-0.3,1.4-0.8,2.7-1.8,3.7c-1.4-1.2-2.4-1.7-4.1-2.3c-1.4-0.5-2.7-1.9-3.9-2.1c0,1.2,3.5,3.2,0.7,4.7c-1.8,0.9-2.3-1.9-4.1-1.6
				c-1.6,0.3-2.7,2.7-4.7,1.5c-1.8-1.1,0-3.3-2.4-2.9c-0.7,0.1-1.7,1.3-2.6,1.5c-0.8,0.1-1.9,0-2.6,0c-2.1,0-4.2,0-6.3,0
				c-1.3,0-4.5,0.6-5.6-0.1c-0.8-0.6-0.8-2.8-1.8-3.6c-1.2,1-2.4,1.3-3.9,1.1c-0.8-0.1-0.5-0.9-1.6-0.5c-0.5,0.2-0.7,1.1-1.2,1.3
				c-2.3,0.9-0.9-2.2-2.4-3c-1.4-0.7-2.4,1.1-2.4,2.3c-1.5-0.3-0.8-2.1-1.6-3c-1-1.1-2.6-0.9-3.9-1c-2.7-0.1-3.4,0.7-5.6,1.8
				c-2.1,1.1-5,0.6-7.4,0.6c-1.4,0-2.7,0-4.1,0c-1.2,0-1.7-0.4-2.6-0.6c-1.1-0.2-2.9,0.3-3.9-0.3c-0.4-0.4-0.7-0.8-0.9-1.4
				c-0.5-0.2-0.9-0.2-1.4-0.1c-1.1-0.4-2.5-1.2-3.4-1.5c-1.1-0.3-2,0-3.1-0.2c-1.5-0.2-1.6-0.5-2.6-1.4c-0.7-0.7-1.1-1.3-2.3-1.1
				c-1.4,0.3-1,2.4-2.7,1.1c-0.9-0.7-0.2-2-1.3-2.4c-1.4,0.7-2.7,2.3-3.4-0.2c-0.4-1.4,0.8-3-1.6-2.4c-2.4,0.6-3.1,5-5.7,5.6
				c0,0.1,0.1,1.1,0.1,0.9c2.1-0.6,5-0.1,7.2-0.1c2.6,0,3.4,0.8,5.7,1.6c2.2,0.8,4.7,0.4,6.5,1.6c0.8,0.6,1.3,1.6,2.5,1.1
				s0.3-1.6,1.5-2c1.6-0.6,3.3,2.2,4.3,3.1c1.7,1.5,3.1,2.6,5.5,2.7c4.6,0.2,8.8,2.1,12.8,4.3c2,1.1,3,2.1,5,0.4
				c1.8-1.4,2.6-5,5.1-3.3c2.1,1.4,2.5,4.3,4,6c1.7,2,3.8-0.7,5.5-1.5c2.3-1.1,4.3-1.3,6.5-0.2c1.3,0.7,4.1,2.8,5.8,2.5
				c2.1-0.4,1.7-2.5,4.2-1.1c2.1,1.1,2.9,3.2,4,5c1.4,0,2-1.1,3.1-1.8c1.4-0.8,2.6-0.6,4.1-0.6c3,0.1,4,1.1,5.9,3.2
				c1.9,2.2,1.9,1.6,3.9,0c1.2-0.9,2.6-1.8,4.1-1.6c0.8,0.1,2.4,0.4,3,1c1,0.9,1.7,3.4,3.5,3.2c1.4-0.2,1.3-2.1,2.4-2.4
				c1.1-0.3,2.3,1.6,2.7,2.3c1.5,2.6,1.3,7.3,4.7,7.4c2.8,0.1,4,1.7,5.5,4c1.3,2.1,1.1,4.6,0.9,7c1.9-1.8,1.2-3,4.1-3
				c2,0,4.3,0.9,5.7,2.4c1.3,1.3,3,4.8,3.3,6.5c0.2,1.1-0.9,5.3,1.4,4.8c1-0.2,2.5-3.1,2.7-3.9c0.2-0.9,0-2.3,0-3.3
				c0-1.4,0.3-2,0.6-3.3c0.2-0.6-0.2-2.8,0.3-3.1c1.2-0.8,1.8,0.8,2.3,1.5c0.6,0.9,2,3,3.1,3.1c0.1-1.1,1.1-3.3,2-4
				c1.7-1.5,3.1,0.2,3.7,1.8c0.5,1.2,0.6,4.6,2.4,3.8c1.5-0.7,1.4-4.2,3.5-4.1c0.8,0.1,2.5,2,3,2.7c1.5,2,1.5,3.3,3.3,0.6
				c2.9-4.5,3.6,3.9,4.9,5.5c0.4-1.6,0.9-2.9,1.2-4.6c3.4,0.4,2.6,9.8,6.2,7.3c0.4,1.3,0.1,2.7,0.1,4c0.1,1.8,0.6,1.9,1.9,3.1
				c1,0.9,2,4,2.8,4.2c0.4-2.2,1.5-4.3,1.8-6.5c0.2-1.1-0.1-2.1,0.1-3.3c0.2-0.8,0.6-1.6,0.8-2.4c0.7-2.2,1.8-5.1,4.7-4.2
				c1.2,0.4,3.1,2.3,3.9,3.3c1.4,1.8,1.8,3.3,3.6,1.1c1.6-2,2.1-2.6,4.7-2.7c1.9-0.1,3.3-0.4,4.7,1c1.7,1.8,2.5,2,3.5-0.7
				c0.7,0.9,1.6,1.5,2.2,2.3c0.5,0.7,0.6,1.7,1,2.3c0,0.6,0.2,0.8,0.8,0.8c1.4,1.4,3.7,2.4,5.1,3.8c0.9,0.9,1.2,2.7,2.4,3.3
				c1.9,1,2-0.2,2.3-1.4c0.4-1.8,1.2-6.5,3.3-7.1c1.2,0.6,0.7,2.1,2.2,2.1c0.7-1.4,2-2.6,3.4-3.4c2.1-1.1,1.7,0.2,3.3,0.3
				c1.2,0.1,2.7-0.9,4.1-0.9c1.2,0,2.1,0.3,3.1,0.5c0.6,1.7-0.1,4.8,1.2,5.9c1.4-2.5,1.6,1.8,1.7,4.2c0.2-2.3,1.4-5.6,3.1-5.6
				c0.2,2.1,0.3,3.4,2.6,3.7c1.7,0.2,3.4-1.3,4.9-1.9c3-1.2,5.8-0.3,8.8-1.1c0.9-0.2,3.1-1.5,3.3-2.8
				C383,317.9,382.1,316.6,381.5,315.5z"/>
		</g>
	</g>
	<g>
		<defs>
			<rect id="SVGID_133_" x="0" width="379.8" height="379.8"/>
		</defs>
		<clipPath id="SVGID_134_">
			<use xlink:href="#SVGID_133_"  style="overflow:visible;"/>
		</clipPath>
		<path class="st80" d="M277.7,325.3c-2.1,0-5-0.5-7,0.1c0.7,2.6,3.6,4.1,5.6,5.3c1.2,0.7,2.8,1.7,3.7,2.9c0.4,0.5,0.2,1.2,0.8,1.7
			c0.5,0.5,1.1,0.4,1.7,0.8c2.2,1.2,4.1,3.1,6.1,4.5c1.2,0.8,2.1,2.3,3.9,1.9c0.7-0.1,3-2.1,2.4,0.5c0.3-1.8-2.6-4.4-3.9-5.4
			c-1.6-1.2-4.9-2-6-3.8c1.3,3.7,5.6,2,8.1,4c1.4,1.1,1.4,1.5,3.4,1.4c2.2-0.1,1.8,0.6,3.4,1.5c3,1.7,6.6-1.5,9.6-1.5
			c3.2,0.1,5.7-1.3,8.9-1.8c-0.4-2.5-6.2-1.4-8.1-1.4c-1.7,0-2.5,0.7-4,0.8s-2.6,0.6-4.1,0.8c-3.3,0.4-6.3,0.2-8.9-1.8
			c-3.1-2.4-5.8-5.1-9.6-3.1c-0.7-1.1-1.9-2.3-2.5-3.3c-0.7-1.3,0.1-3.2-0.3-4.6C280.6,324.6,278,325.3,277.7,325.3z"/>
	</g>
	<g>
		<defs>
			<rect id="SVGID_135_" x="0" width="379.8" height="379.8"/>
		</defs>
		<clipPath id="SVGID_136_">
			<use xlink:href="#SVGID_135_"  style="overflow:visible;"/>
		</clipPath>
		<path class="st81" d="M215.9,391.2c-2.4-1.8-3.3-4.7-5.7-6.6c-2.2-1.6-3.7-3.5-5.8-5.3c-0.1,0.8,0.4,1.4,1,1.8
			c-2-3.8-4.7-6.3-7.6-9.3c-2.2-2.3-7.4-4.8-10.4-5.1c-2.6-0.2-2.6-1.6-4.3-3.3c-1.2-1.3-3.2-2.2-4.7-3.2c-1.1-0.8-2.2-1.7-3.3-2.6
			c-1.3-1-2.4-4.2-4.1-4.2c0.2-2.6-2-6.6-3.4-8.6c-1.9-2.7-3.7-5.2-5.3-8.2c-0.9-1.7-1.5-3.3-2.6-4.9c-1.1-1.5-2.3-2.9-3.8-4.1
			c2.7,0,4.5,2.5,6.2,4.2c1.7,1.6,3.6,2.3,5.5,3.1c0.1-0.5,0.2-1,0.4-1.5c1.7,0,3.6,3.6,4.9,4.6c0.8,0.6,2,1.3,3.1,1.1
			c1.7-0.3,1.3-1.9,3-1.5c0.8,0.2,1.4,1.7,2,2.1c1.1,0.8,2.5,1.4,3.7,2c1.1,0.6,2.4,0.9,3.6,1.6c1.4,0.7,2.7,2.4,4.1,2.9
			c2.1,0.9,4.9-0.2,7.1,0.4c3.4,0.9,7.1,2.4,9.8,4.7c1.2,1,2.2,1.8,3.1,3c0.9,1.3,1.4,3,2.6,4.1c2,2,5,0.3,7.4,2
			c4.4,3.2,6.9,8.3,11.5,11c1.2,0.7,1.5,1.7,2.5,2.6c0.4,0.1,0.8,0.2,1.2,0.3c0.5,0.4,0.7,0.9,1.2,1.3c0.4,0.1,0.8,0.2,1.3,0.4
			c0.5,0.3,0.7,0.9,1.2,1.2c1.2,0.9,2.6,0.9,3.9,1.6c1.1,0.5,2,1.5,3.1,2.1c1.2,0.7,2,0.6,3.4,0.6c3.3,0,4.7,0.6,6.3,3.4
			c1.1,1.8,1.7,3.5,3.4,4.9c2.5,2,4,2.7,3.2,6.2c-2-0.2-3.8-2.1-5.6-3c-1.8-0.9-3.7-1.6-5.6-1.8c-1.7-0.2-4.8-0.4-6.4,0.2
			c-1.9,0.7-3.5,3.7-4.5,5.5c-1-0.5-1.6-2-2.9-2.3c-0.2,1.3-0.6,2.5-0.8,3.8c-0.2,1.2,0.4,3.1-0.9,3.5c-1,0.4-4-0.8-5-1.1
			c-2-0.6-3.5-1.8-5.1-3.1c-2.5-2-5.2-3.5-7.9-4.9C218.2,391.9,215.8,394.2,215.9,391.2z"/>
	</g>
	<g>
		<defs>
			<rect id="SVGID_137_" x="0" width="379.8" height="379.8"/>
		</defs>
		<clipPath id="SVGID_138_">
			<use xlink:href="#SVGID_137_"  style="overflow:visible;"/>
		</clipPath>
		<path class="st82" d="M161.7,331.4c-1.1-1.1-2.2-2.4-3.6-3.1C159.3,329.4,160.6,330.4,161.7,331.4z"/>
	</g>
	<g>
		<defs>
			<rect id="SVGID_139_" x="0" width="379.8" height="379.8"/>
		</defs>
		<clipPath id="SVGID_140_">
			<use xlink:href="#SVGID_139_"  style="overflow:visible;"/>
		</clipPath>
		<path class="st83" d="M202.9,364c-0.2-0.2-0.4-0.4-0.7-0.6C202.5,363.7,202.7,363.8,202.9,364z"/>
	</g>
	<g>
		<defs>
			<rect id="SVGID_141_" x="0" width="379.8" height="379.8"/>
		</defs>
		<clipPath id="SVGID_142_">
			<use xlink:href="#SVGID_141_"  style="overflow:visible;"/>
		</clipPath>
		<path class="st84" d="M201.3,349.8c0.1,1.6,2.1,2,3.1,2.3c0.4,0.1,0.7,0.2,0.9,0.2C204.3,351.1,202.6,349.2,201.3,349.8z"/>
	</g>
	<g>
		<defs>
			<rect id="SVGID_143_" x="0" width="379.8" height="379.8"/>
		</defs>
		<clipPath id="SVGID_144_">
			<use xlink:href="#SVGID_143_"  style="overflow:visible;"/>
		</clipPath>
		<path class="st85" d="M179.2,340.8c0.1,1.1,0.2,2.3,1,3.1c0.4,0.1,0.8,0.2,1.3,0.3c0.6,0.6,0.7,1.5,1.2,2.1
			c1.2,1.4,3.3,1.3,4.9,2.4c1.7,1.1,2,3.8,3.8,4.3c1.2,0.4,1.9-0.6,2.7-0.7c1.7-0.2,1.9,0.8,3.3,1.3c1,0.4,2.1-0.2,3.1,0.1
			c1.1,0.3,1.3,1.3,2.2,1.9c1.7,1.2,3.9,0.9,5.8,1.9c0.6-1.8-1.4-3.5-2.6-4.6c-0.2-0.2-0.3-0.4-0.5-0.6c-0.2-0.1-0.5-0.1-0.9-0.2
			c-1.1-0.4-3.1-0.7-3.1-2.3c1.3-0.7,3,1.3,4,2.5c0.5,0.1,0.7,0.2,1.4,0.8c0.7,0.7,1.2,1.4,1.8,2.1c2.2,2.2,6.4,4.1,6.7,7.4
			c0.4,0.1,0.9,0.2,1.3,0.3c0.1,0.9,0.9,2.5,1.7,3c0.8,0.4,1.6-0.1,2.3,0.3c0.5,0.3,0.7,1,1.1,1.3c1.6,0.9,1.9-0.3,2.9,1.8
			c0.9,1.7,1.2,2.2,2.8,3c1.2,0.7,2.4,1.9,3.1,0.3c0.7-1.5-0.6-2.8-1.9-3.1c-2-0.5-2.7,0.3-3.7-1.8c-0.5-1.1-1.2-2.5-1.1-3.8
			c0.4,1.2,1.8,2.9,3.2,2.1c0.1-0.1,0.2-0.2,0.4-0.5c-1.5-1.8-3.1-3.6-5-5c-2.4-1.7-5.3,0-7.4-2c-1.2-1.2-1.7-2.8-2.6-4.1
			c-0.8-1.2-1.9-2.1-3.1-3c-2.7-2.3-6.3-3.8-9.8-4.7c-2.3-0.6-5,0.5-7.1-0.4c-1.4-0.5-2.7-2.2-4.1-2.9c-1.2-0.6-2.5-1-3.6-1.6
			c-1.2-0.6-2.6-1.2-3.7-2c-0.5-0.4-1.1-1.7-1.8-2C179.3,338.7,179.2,339.7,179.2,340.8z"/>
	</g>
	<g>
		<defs>
			<rect id="SVGID_145_" x="0" width="379.8" height="379.8"/>
		</defs>
		<clipPath id="SVGID_146_">
			<use xlink:href="#SVGID_145_"  style="overflow:visible;"/>
		</clipPath>
		<path class="st86" d="M155.9,327.7c0.2,0.1,0.3,0.3,0.5,0.4c0-0.1,0.1-0.2,0.1-0.4C156.3,327.7,156.1,327.7,155.9,327.7z"/>
	</g>
	<g>
		<defs>
			<rect id="SVGID_147_" x="0" width="379.8" height="379.8"/>
		</defs>
		<clipPath id="SVGID_148_">
			<use xlink:href="#SVGID_147_"  style="overflow:visible;"/>
		</clipPath>
		<path class="st87" d="M202.3,363.4c-1-0.9-1.8-2.2-2.7-3.3C199.7,361.4,201.2,362.5,202.3,363.4z"/>
	</g>
	<g>
		<defs>
			<rect id="SVGID_149_" x="0" width="379.8" height="379.8"/>
		</defs>
		<clipPath id="SVGID_150_">
			<use xlink:href="#SVGID_149_"  style="overflow:visible;"/>
		</clipPath>
		<path class="st88" d="M220,382c-0.1-1.4-0.2-2.4-0.6-3.5C217.8,378,218.2,380.6,220,382z"/>
	</g>
	<g>
		<defs>
			<rect id="SVGID_151_" x="0" width="379.8" height="379.8"/>
		</defs>
		<clipPath id="SVGID_152_">
			<use xlink:href="#SVGID_151_"  style="overflow:visible;"/>
		</clipPath>
		<path class="st89" d="M200.6,366.9c-0.1,0.2-0.1,0.5-0.2,0.7c0.5,0.7,1,1.2,1.5,1.4C202.4,368,201.5,367,200.6,366.9z"/>
	</g>
	<g>
		<defs>
			<rect id="SVGID_153_" x="0" width="379.8" height="379.8"/>
		</defs>
		<clipPath id="SVGID_154_">
			<use xlink:href="#SVGID_153_"  style="overflow:visible;"/>
		</clipPath>
		<path class="st90" d="M205.4,381.2c-0.3-0.6-0.6-1.1-1-1.7C204.4,380.2,204.8,380.8,205.4,381.2z"/>
	</g>
	<g>
		<defs>
			<rect id="SVGID_155_" x="0" width="379.8" height="379.8"/>
		</defs>
		<clipPath id="SVGID_156_">
			<use xlink:href="#SVGID_155_"  style="overflow:visible;"/>
		</clipPath>
		<path class="st91" d="M233.8,397.7c-0.4-1.2-2.4-2.3-3.4-3c-1.5-1-2.7-2.1-4.1-3.3c-1.3-1.1-2.3-2-3.1-3.5
			c-0.7-1.2-0.9-2.6-2.2-3.4c1.2,0.7,2.2,2.3,3.7,1.6c0.2-2.5-2.2-5.7-4-7.1c-0.5-0.4-0.9-0.6-1.3-0.7c0.4,1.1,0.4,2.1,0.6,3.5
			c-1.8-1.4-2.3-4-0.6-3.5c-0.2-0.6-0.6-1.2-1.1-1.9c-0.6-0.8-3.3-4.4-4.1-3.6c-1.4-3.4-5.7-5.3-8.2-7.8c-2-2-4.9-3.1-6.6-5.4
			c0,0.1,0,0.3,0,0.4c0.9,1.1,1.8,2.3,2.7,3.3c0.2,0.2,0.5,0.4,0.7,0.6c-0.2-0.2-0.5-0.4-0.7-0.6c-1.1-0.9-2.6-2-2.7-3.3
			c-1-1.2-2.2-2.1-3.9-2.3c-0.6,1.7,1.5,4.2,2.3,5.6c0.6,1,1.5,2.8,2.4,4c0-0.2,0.1-0.5,0.2-0.7c0.9,0.1,1.8,1.2,1.4,2.1
			c-0.5-0.2-1-0.8-1.5-1.4c-0.1,0.5-0.1,1-0.1,1.4c-4-2.7-7.2-8.1-11.9-9.4c-0.3,0.7-0.2,1.4-0.3,2.1c-1.7-1.2-2.9-3-4.5-4
			c-0.9-0.5-1.7-0.7-2.5-1.4c-0.7-0.6-1-1.5-1.9-2.2c0.1,0.4,0.1,0.7,0.1,1c-0.9-1.8-2.4-5.6-4.4-7.1c0.6,0.7,1,1.5,1.1,2.2
			c-1.1-0.6-2.1-1.6-2.3-2.7c0.4,0.1,0.8,0.2,1.2,0.5c-0.9-1.2-2.3-2.3-3-3.3c-0.9-1.2-1.4-2.8-2.4-3.9c-1.1-1.2-2.1-2.1-3.1-3.4
			c-1.4-1.8-2.3-3.6-3.8-5.2c-0.1-0.1-0.3-0.2-0.4-0.4c-0.1-0.1-0.3-0.3-0.4-0.4c-1.2-1-2.4-2-3.6-3.1c-0.5-0.3-1.1-0.5-1.7-0.6
			c-0.1,0.1-0.1,0.2-0.1,0.4c1.2,1.1,2.4,2.4,3.3,3.7c1.1,1.5,1.7,3.2,2.6,4.9c1.6,2.9,3.4,5.4,5.3,8.2c1.4,2,3.6,6.1,3.4,8.6
			c1.7,0,2.8,3.2,4.1,4.2c1.1,0.9,2.1,1.8,3.3,2.6c1.5,1,3.5,1.9,4.7,3.2c1.6,1.7,1.6,3.1,4.3,3.3c3,0.3,8.2,2.8,10.4,5.1
			c2.4,2.5,4.7,4.7,6.6,7.6c0-0.1,0-0.1,0-0.2c2.1,1.8,3.6,3.7,5.8,5.3c2.4,1.8,3.3,4.7,5.7,6.6c-0.1,3,2.3,0.7,4.1,1.6
			c2.7,1.4,5.4,2.9,7.9,4.9c1.6,1.2,3.1,2.5,5.1,3.1c1,0.3,3.9,1.4,5,1.1c0.4-0.2,0.7-0.5,0.8-0.9
			C236.8,399.8,233.9,397.8,233.8,397.7z"/>
	</g>
	<g>
		<defs>
			<rect id="SVGID_157_" x="0" width="379.8" height="379.8"/>
		</defs>
		<clipPath id="SVGID_158_">
			<use xlink:href="#SVGID_157_"  style="overflow:visible;"/>
		</clipPath>
		<path class="st92" d="M175.9,350.3c-0.1-0.8-0.5-1.5-1.1-2.2c-0.4-0.3-0.8-0.4-1.2-0.5C173.8,348.7,174.8,349.7,175.9,350.3z"/>
	</g>
	<g>
		<defs>
			<rect id="SVGID_159_" x="0" width="379.8" height="379.8"/>
		</defs>
		<clipPath id="SVGID_160_">
			<use xlink:href="#SVGID_159_"  style="overflow:visible;"/>
		</clipPath>
		<path class="st93" d="M14,247.1c3.4,0,7.7-0.3,9.2,3.4c1.3,3.4,0.9,7.2,5.5,7.1c1.5,0,3.4-0.3,4.9,0c2.2,0.4,2.5,1.2,2.4,3.3
			c-0.1,2.3,0.1,2.5,2.4,2.4c2.5-0.1,5.6-0.5,8,0.2c4.3,1.2,6.4,5.8,7.3,9.6c0.4,1.7,0.1,2.4,1.8,3.3c0.5,0.2,1.3,0.3,1.8,0.5
			c0.8,0.4,1.8,1.1,2.3,1.8c0.9,1.3,1.1,2.7,1.6,4.1c0.3,0.9,0.1,1,0.6,1.8c0.4,0.7,1.2,1,1.7,1.6c2,2.6,3.2,7.1,3.6,10.3
			c4.6,0.5,9.4,5.4,11.9,9.1c0.9,1.3,2.5,5.6,4.3,5.8c1.4,0.1,1.1-1.7,2.7-0.3c0.8,0.7,1.1,2.5,1.6,3.5c0.7,1.4,1.1,1.3,2.3,2.2
			c1.2,0.9,1.4,1.9,1.8,3.3c0.7,2.1,1,4.4,0,6.7c-0.3,0.7-0.9,2.7-1.9,2.6c-1.8-0.2-0.1-2.4-0.9-3.3c-0.4-0.4-3.4-0.3-4-0.2
			c-1.1,0.3-2.1,1.5-3,2.2c-1.2-1.2-1.4-3.4-2.4-4.8c-1.2-1.7-3.2-1.7-5.1-1.2c-1.8,0.5-4.7,2.1-6.5,1.5c-1.6-0.5-3.5-3.4-4.2-4.9
			c-2.4-0.1-0.5,2.4-1.6,3.1c-1.4,0.8-2.4-1.4-3.1-2.1c-1.8-1.7-4.4-3.1-6.5-4.3c-2.3-1.3-5.2-2.5-6.7-4.8c-0.9-1.4-1.9-3.1-3.3-4.2
			c-1.1-0.8-2.6-1-3.7-1.8c-2-1.5-3.6-3.5-5.3-5.3c-2.3-2.4-3.3-4.2-4-7.4c-0.4-0.2-0.6-0.5-0.7-0.9c-0.2-0.8,0.2-1.7,0.1-2.5
			c-0.4-1.9-2-2.4-3.5-3.1c-1.1-0.5-2.2-1.1-3.3-1.6c-1.1-0.6-2.7-0.6-3.7-1.2c-2.3-1.4-3.1-5.8-4.4-8c-0.8-1.3-1.6-2.7-2.4-4.1
			c-0.9-1.5-2.5-2.3-3.7-3.5c-0.9-0.9-1.5-2.1-2.6-2.9c-1.2-0.8-2.3-1.4-3.4-2.4c-1.1-0.9-2.8-2.8-4.1-3.3c-1.4-0.6-3.1,0.1-4.5-0.4
			c-1.7-0.5-4.2-2.5-5.1-3.9c-0.6-0.9-1.2-2.1-0.8-3.3c0.6-1.9,1.8-1.3,3.3-1.5c1.5-0.2,2.4-0.9,4.1-0.9c1.6,0,3.4,0.2,4.9,0
			c2.3-0.3,1.5-1.2,1.6-3.3c0.1-1.6,1.2-2.9,0.8-4.6c1.7,1.5,4.6,1.9,6.6,3c1.2,0.7,1.8,0.8,3.3,0.8c1.7-0.1,2.4,0.9,3.9,1
			c0.1,0.4,0.2,0.9,0.3,1.3C16,247.1,13.8,247.1,14,247.1z"/>
	</g>
	<g>
		<defs>
			<rect id="SVGID_161_" x="0" width="379.8" height="379.8"/>
		</defs>
		<clipPath id="SVGID_162_">
			<use xlink:href="#SVGID_161_"  style="overflow:visible;"/>
		</clipPath>
		<path class="st94" d="M2.8,244.5c1,0.8,3,0.5,4,0.9c2,1-0.1,4,0.7,5.8c1,2.4,4.9-0.4,6.4-1.1c0.8-0.4,1.5-1.2,2.5-0.5
			c0.5,0.4,0.3,1.6,1.1,2.1c0.7,0.5,2.5-0.4,3,0.3c0.6,0.9-0.8,2.4-1.3,3.1c-0.5,0.7-1,1.2-1.6,1.8c-0.3,0.3-0.5,0.5-0.8,0.8
			c-0.4,0.3-1.4,0.4-1.7,0.8c-0.1,0.1-1.1,2.2-1.1,2.3c0.4,2.1,2.4,0.1,3.2-0.5c0.7,0.6,1.7,0.5,2.5,0.6c-0.2,2.8,2,0.6,3.3,0.8
			c-0.4,3.7,3.8-0.2,4.9,0c1.1,2.4-2.6,3.9-1.3,6.3c2.3-1.1,2.9-1.1,3.2,1.6c1.7,0.4,4.7,0.4,6.4-0.1c1.2-0.3,2-0.5,3.3-0.6
			c1-0.1,1.5-0.8,2.4-0.9c1.6-0.2,1.5,0.3,1.7,1.7c0.2,1.6-0.4,1.8-1.5,2.7c-1,0.9-3.2,3.2-2.5,4.6c0.7-0.2,1.3-1.2,2.1-0.6
			c0.6,0.4,0.1,3,0.3,3.7c0.8-0.6,1.7-1.2,2.4-1.9c-0.3,1.2,0.1,3.4,1.4,3.7c0.4-2.5,1.7-6.7,3.3-8.7c0.7,1.7,0.2,4.4,0.2,6.3
			c0,1,0.2,2.3,0.1,3.3c-0.2,1.4-1.4,2.4-0.7,4c0.3,0.1,0.6-0.1,0.7-0.4c-0.1,1.6,0,5.9,2.6,3.2c0.9-1,0.1-1.7,0.5-2.7
			c0.7-1.5,1.9-0.8,1.8,0.7c3.1,0.3,2.6,4.3,2.1,6.5c-0.2,0.9-3.6,8.1,1.1,5.9c1.3-0.6,0.7-2,0.7-3.3c0.1-1.6,0.9-3.4,2.3-1.5
			c0.4,0.6,0.1,1.6,0.3,2.3s1.1,1.2,1.3,1.8c0.3,0.7-0.2,1.7,0.1,2.3c0.5,1.1,0.7,0.3,1.5,0.9c0.9,0.8,1.4,1.1,2.4,1.6
			c0.7,0.4,1,1.1,1.8,1.3c1.2,0.3,1.1-0.5,1.8-0.5c1.9,0.1,2.3,1.8,3.9,3.1c1.3,1.1,2.5,1.6,4.1,2.2c1.2,0.5,2,0.9,3.2,1
			c0.8,0.1,1.5,0,2.3,0.2c0.7,0.2,0.7,0.9,1.8,0.7c0.6-0.1,0.9-0.5,1.2-1c-0.1-0.1-0.1-0.1-0.2-0.2c-1.5-1.4-1.3,0.4-2.7,0.3
			c-1.8-0.1-3.4-4.5-4.3-5.8c-2.5-3.7-7.3-8.6-11.9-9.1c-0.4-3.1-1.6-7.7-3.6-10.3c-0.5-0.6-1.2-0.9-1.7-1.6
			c-0.5-0.8-0.3-0.9-0.6-1.8c-0.5-1.4-0.6-2.8-1.6-4.1c-0.5-0.7-1.5-1.4-2.3-1.8c-0.6-0.3-1.3-0.3-1.8-0.5c-1.7-0.8-1.4-1.5-1.8-3.3
			c-0.9-3.9-3-8.4-7.3-9.6c-2.4-0.7-5.6-0.2-8-0.2c-2.3,0.1-2.5-0.1-2.4-2.4c0.1-2.1-0.2-2.9-2.4-3.3c-1.5-0.3-3.4,0-4.9,0
			c-4.6,0.1-4.1-3.7-5.5-7.1c-1.4-3.7-5.8-3.4-9.2-3.4c-0.2-0.1,2-0.1,1.8-0.2c-0.1-0.4-0.2-0.9-0.3-1.3c-1.5-0.1-2.2-1-3.9-1
			c-1.5,0-2-0.2-3.3-0.8c-2-1.1-4.9-1.4-6.6-3c0.2,0.6,0.1,1.2,0,1.8C2,243.4,2.1,244,2.8,244.5z"/>
	</g>
	<g>
		<defs>
			<rect id="SVGID_163_" x="0" width="379.8" height="379.8"/>
		</defs>
		<clipPath id="SVGID_164_">
			<use xlink:href="#SVGID_163_"  style="overflow:visible;"/>
		</clipPath>
		<path class="st95" d="M5.1,264.4c1.1,0.8,1.7,2,2.6,2.9c1.2,1.2,2.8,2,3.7,3.5c0.8,1.3,1.6,2.7,2.4,4.1c1.3,2.2,2.1,6.6,4.4,8
			c1,0.6,2.6,0.6,3.7,1.2c1.1,0.5,2.1,1.1,3.3,1.6c1.5,0.7,3.2,1.1,3.5,3.1c0.1,0.8-0.3,1.7-0.1,2.5c0.1,0.4,0.3,0.8,0.7,0.9
			c0.8,3.2,1.8,5,4,7.4c1.7,1.8,3.3,3.8,5.3,5.3c1.1,0.8,2.6,1,3.7,1.8c1.4,1,2.3,2.7,3.3,4.2c1.5,2.3,4.4,3.5,6.7,4.8
			c2.1,1.2,4.7,2.6,6.5,4.3c0.7,0.7,1.8,3,3.1,2.1c1.1-0.7-0.9-3.2,1.6-3.1c0.7,1.4,2.6,4.3,4.2,4.9c1.9,0.6,4.8-1,6.5-1.5
			c1.9-0.5,3.9-0.5,5.1,1.2c1,1.4,1.2,3.6,2.4,4.8c0.9-0.7,2-1.9,3-2.2c0.6-0.2,3.6-0.3,4,0.2c0.8,0.9-0.9,3.1,0.9,3.3
			c0.7,0.1,1.2-1,1.6-1.8c-0.6-0.9-1.7-1.6-2.2-2.5c-0.7-1.4,0.7-3.3-0.9-4c-0.8-0.3-1.7,0.5-2.6-0.1c-1.1-0.7-0.8-2-0.9-3
			c-2.3-0.3-2.3,2.7-4.8,1c-0.9-0.6-2.1-4.4-3.4-2c-2-0.3-1.8-4.3-3.7-4.7c0,0.7-0.2,1.3-0.8,1.5c-0.5-1.6,0.1-2.1-1-3.2
			c-0.8-0.8-1.8-0.9-2.3-2.4c-0.5-1.6,0.2-2.6-0.9-3.9c-0.8-1-1.7-0.9-1.8-2.5c-0.9,0-2.3,1.6-2.9,2.3c-0.9,1.2-1.5,2-2.7,3
			c-1.5-2.7-3.6-0.3-2.3,1.8c0.8,1.3,1.8,0.5,2.9,1.1c0.8,0.4,0.9,1.3,1.7,1.5c0.2,0,0.4,0,0.6,0c-0.2,0.1-0.4,0.1-0.6,0
			c-0.8,0.1-1.7,0.2-2.4,0c-0.4-0.1-0.8-0.3-0.9-0.7c-0.7-0.1-1.7,0.1-2.3-0.1c-0.7-0.2-1.4-0.9-1.8-1.4c-0.4-0.2-0.6-0.6-0.6-1.1
			c-0.1-0.2-0.1-0.4-0.2-0.6c-0.4-0.1-0.8-0.2-1.3-0.3c-1.7-1.9-1.4-4.9-2-7.2c-0.4-1.5-0.7-2.4-0.6-4.1c0-1.3,0.2-2.7-0.2-4
			c-2.4,0.2-2.3,6.5-5.6,3.2c-0.9-0.9-1.2-2.5-2.2-3.5c-1.2-1.2-3.3-2.1-5-2.4c-0.1-0.7,0-1.6-0.3-2.3c-1,0.2-1.5,5.7-1.4,7
			c-0.9-0.6-1.2-2.1-1.7-3c-0.9-1.7-0.8-2.9-0.8-4.9c0-2.1,0.3-3.1-1.6-3.9c-0.8-0.3-0.6,0.6-1.5-0.3c-0.6-0.6-0.1-2.1-0.3-2.8
			c-1.4,1.4-0.8,4.2-2.3,5.2c0.1-2.1,0.3-3.3-1.4-4.8c-1.9-1.6-3.4-2.9-5.8-3.2c-0.3-1.1-0.1-2.1-0.1-3.1c-0.1-1.5-0.6-3.2-1-4.7
			c-0.5-1.8-0.5-3-0.6-4.9c-0.1-1.5-0.8-2.7-1-4.2c-1.5,0.2-1.4,2.3-2.3,3.2s-0.9,0.8-2.5,0.8c-1,0-2.4,0.3-3.3,0.1
			c-0.8-0.2-0.9-0.7-1.5-1.1c-1.2-0.6-2-0.6-3.3-0.6c-0.7,0-2.4-0.2-3.8-0.2c0.1,0.1,0.3,0.3,0.4,0.4C2.8,263,3.8,263.6,5.1,264.4z"
			/>
	</g>
	<g>
		<defs>
			<rect id="SVGID_165_" x="0" width="379.8" height="379.8"/>
		</defs>
		<clipPath id="SVGID_166_">
			<use xlink:href="#SVGID_165_"  style="overflow:visible;"/>
		</clipPath>
		<path class="st96" d="M63.4,311.5c-0.2,0-0.4,0-0.6,0C63,311.5,63.2,311.5,63.4,311.5z"/>
	</g>
	<g>
		<defs>
			<rect id="SVGID_167_" x="0" width="379.8" height="379.8"/>
		</defs>
		<clipPath id="SVGID_168_">
			<use xlink:href="#SVGID_167_"  style="overflow:visible;"/>
		</clipPath>
		<path class="st97" d="M-2.3,311.5c1.6-0.5,4.8,3.7,5.7,4.9c1.8,2.3,2.1,4.8,3,7.4c0.9,2.5,1.7,2.4,4.3,2.4c1.1,0,2.2,0.1,3.3-0.2
			c1.1-0.3,2-0.9,3.3-0.7c1.5,0.3,2.1,1.2,2.7,2.5c0.2,0.5,0.5,3,0.7,3.1c1.4,0.8,3.9-2.5,5.4,0.1c0.6,0.9-0.5,2.5,0.2,3.2
			c0.7,0.8,2.3-0.5,3,0.2c1.3,1.3-0.7,4.3-1.4,5.2c2.1-1.1,7.7-1.2,9.1,0.9c0.8,1.2,0.4,2.5,1.2,3.7c0.8,1.2,2,1.8,2.5,3.2
			c0.5,1.6,0.3,2,1.6,3.3c0.9,0.9,1.8,2,2.8,2.8c0.9,0.7,2.3,1,2.9,2c0.9,1.5-0.5,2.8,1.5,3.9c-1-0.1-2,0.1-3-0.2
			c-1.4-0.4-2.6-0.4-4.1-0.6c-1.3-0.2-2.9-0.9-4.1-1.4s-3.2-0.9-4.1-1.8c-0.8-0.8-0.4-2.9-0.9-3.2c-1.1-0.7-1.8,0.7-2.5,1.3
			c-0.8,0.7-1.8,1.7-3.1,1.1c-1.4-0.6-0.5-1.9-0.9-3.3c-1.7-0.4-2.7,3-3.9,3.9c-1.6,1.1-3.9,1.2-5.7,1c-4.6-0.6-0.1-7.6-4.7-7.5
			c-0.3-1.1-0.1-2-0.3-3.1c-0.3-1.1-1-2.2-1.2-3.3c-0.7-2.6,0.9-5.1-2.6-5.7c-2.3-0.4-4.5,0.8-6.5-0.7c-1.4-1-3.3-3.9-3.4-5.6
			c-1.2,0.1-1.4,1.7-2,2.6c-1.1,1.6-2.5,1.5-4.3,1.4c-4-0.2-4.1-5.1-4.1-8.2c0-1.4-0.4-3.4,0.2-4.7c0.5-1.4,2.5-2.7,3.7-3.6
			c1.3-1,2.2-2,3.3-3.3C-3.7,313-3.5,313-2.3,311.5z"/>
	</g>
	<g>
		<defs>
			<rect id="SVGID_169_" x="0" width="379.8" height="379.8"/>
		</defs>
		<clipPath id="SVGID_170_">
			<use xlink:href="#SVGID_169_"  style="overflow:visible;"/>
		</clipPath>
		<path class="st98" d="M162.2,394.5c-0.4-2-1.9-4-2.7-5.9c-0.7-1.6-1.5-3-2.3-4.6c-0.6-1.1-0.8-3.2-1.8-4c-1.2,1.4-1.1,4.7-3.1,5.3
			c-2.6-1.7,0.2-8.8-0.7-11.3c-0.4-1-1.3-2-2.5-1.4c-1.5,0.7-1.4,3.4-2.3,4.6c-0.7-1.1-0.2-3.3-0.8-4.7c-0.6-1.6-0.5-2.2-2-1.8
			c-0.2,0.3-0.5,0.6-0.8,0.9c-0.7,0.2-1.6-0.4-2.1-0.9c-1.4-1.3-1.9-3.1-2.6-4.7c-1-2.4-0.6-4.9-1.6-7.2c-0.3-0.6-0.4-1.6-0.7-2.6
			c-0.2-1-0.6-1.9-1.1-2.3c-1.8-1.2-0.3,1.9-2.3,1.5c-1.2-0.2-0.7-0.9-1.4-1.7c-0.8-0.9-2-1.1-3.3-1.4c-1.1-0.2-2.2-0.4-3.3-0.8
			c-1.5-0.6-2.2-1.6-3.4-2.5c-0.8-0.6-1.7-1-2.5-1.6c-0.4-0.4-1.3-1.5-1.7-1.7c-2.9-1.3-2.2,3.9-4.6,3.9c0-1.1-1.3-2.9-2.7-2.3
			c-1,0.5-1.4,3.6-1.8,4.6c-1.1,3.2,0.2,7.1-0.7,10.4c-2.1-0.8-3.7-1.9-5.6-3.1c-1-0.7-2.3-1.3-3.1-2.2c-0.8-0.8-0.9-2.8-2.5-2.4
			c-0.3,1.2-0.1,2.5-0.1,3.8c0-2.5-0.2-6.8-2.5-8.4c0.1,1.2,0,2.5,0.1,3.7c-0.2-2.3-2.5-4.5-3.5-6.4c-1,0.3-1.5,1.9-1.4,3
			c-0.7-1.1-0.6-2.6-1.5-3.6c-0.2,0.9-1.2,2.7-1,3.6c-1.4-3.1-2.9-7.6-6.4-8.6c-0.5,1.8-0.7,6.1,0,7.8c0.8-1,0.8-2.4,1.5-3.6
			c-0.1,2,0.4,4.3-0.2,6.2c-1.1,0-2.4-2-3.1-2.9c0.1,2,0,4,0.1,6c-1.2-1.9-1.5-4.9-1.8-7c-1.2,0.2-0.7,3-0.6,4c0,1.7,0,2.6-0.8,4.1
			c-1.3,2.4-0.6,4.9,0.5,7.2c0.4,0.8,0.8,1.7,1.3,2.5l2.4,9.6c0.3,1.2,0.6,1.9,0.7,3.2c0.1,1.7,0.6,3.8-1.6,3.3
			c-0.6-0.1-1.8-1.3-2.3-1.7c-1-0.8-1.2-1.1-2.4-1.6c-0.9-0.4-2.3-1.9-3.5-1.5c-1.5,0.5-0.6,2.8-0.9,4.2c-0.5,2-0.9,2.3,0.4,4
			c1,1.4,2,2.7,3.3,3.9c0.4,0.4,0.7,0.7,1.1,1c1.8,1.8,3.8,3.6,5.3,5.7c1.1,1.6,1.7,3.5,3,4.9c1.7,1.8,2.8,1.2,5.1,1.5
			c2.3,0.4,4,0.9,6.3,0.9c2.6,0,5.2,0,7.8,0c4.7,0,9.1-0.2,13.6,1c2.5,0.7,4.9,1.8,7.2,2.9c1.9,0.9,3,0.9,5,1
			c1.8,0.1,3.1,0.8,4.9,0.8c1.9,0,3.8,0,5.7,0c3.9,0,7.7,1.9,11.4-0.2c1.8-1,2.8-2.4,4.9-2.9c0.7-0.2,1.4-0.4,2-0.5
			c1-0.3,1.9-0.7,2.9-1.2c1.5-0.7,1.8-1.8,2.2-3.4C161.6,399,162.5,396.4,162.2,394.5z"/>
	</g>
	<g>
		<defs>
			<rect id="SVGID_171_" x="0" width="379.8" height="379.8"/>
		</defs>
		<clipPath id="SVGID_172_">
			<use xlink:href="#SVGID_171_"  style="overflow:visible;"/>
		</clipPath>
		<path class="st99" d="M-1.4,317.1c-0.1,0.5-0.1,1,0.1,1.5c0.1,0.3,1,1,1.2,1.2c0.9,0.6,1.7,0.8,2.5,1.6c1.8,2,0.6,4.4,2.6,6.4
			c1.5,1.4,3.9,3.8,5.7,4.1c1.1,0.1,2.2-0.1,3.3,0c2,0.1,1.6,0.9,3,1.9c1.1,0.8,5.8,1.3,6.8,0.1c-0.7,2.7,2.1,4.6,4.2,3.2
			c0.6-0.4,1.2-1,1.7-1.6c-0.1-0.4-0.2-0.7-0.4-0.9c-0.8-0.7-2.3,0.5-3-0.2c-0.7-0.7,0.3-2.3-0.2-3.2c-1.6-2.5-4,0.8-5.4-0.1
			c-0.2-0.2-0.5-2.7-0.7-3.1c-0.6-1.3-1.2-2.2-2.7-2.5c-1.3-0.3-2.1,0.4-3.3,0.7c-1.1,0.3-2.1,0.2-3.3,0.2c-2.6,0-3.4,0.1-4.3-2.4
			c-0.9-2.6-1.2-5.1-3-7.4c-0.9-1.2-4.2-5.4-5.7-4.9c-1.2,1.5-1.4,1.5-2.7,3.1c-1,1.3-2,2.2-3.3,3.3c-0.1,0.1-0.1,0.1-0.2,0.1
			c0.1,0.1,0.2,0.1,0.4,0.1C-5.6,318.6-3.1,315.1-1.4,317.1z"/>
	</g>
	<g>
		<defs>
			<rect id="SVGID_173_" x="0" width="379.8" height="379.8"/>
		</defs>
		<clipPath id="SVGID_174_">
			<use xlink:href="#SVGID_173_"  style="overflow:visible;"/>
		</clipPath>
		<path class="st100" d="M48.4,359.4c-0.7-1.1-2-2.3-2.8-3.2c-1.7-1.7-3-1.1-4.7-2.2c-1-0.7-1.4-1.8-2.4-2.5c-0.8-0.5-1.7-0.6-2.5-1
			c-1.6-0.8-2.3-2.2-2.6-4c-1.7,0.1-1.7,3-3.3,1.8c-1.2-0.9,0-2.6-1.6-3.2c-1.7-0.6-4.6,3.1-5.6,4.3c0.1-1.6,0.6-4.5-0.5-5.6
			c-1.9-1.9-3.6,0.8-3.5-3c0-1,0.4-2.5-0.8-3c-0.9-0.4-2,1.1-3.1,0.4c-1.5-0.9-1-3-0.9-4.4c-0.7,0.6-3.1,2.2-4,2.1
			c-0.4-1.7,0.4-3.4-1.7-4c-1.8-0.5-2.7,1.4-4.1,0.7c-0.7-0.4-0.8-1.3-1.4-1.7c-0.5-0.4-1.2-0.4-1.7-0.7c-0.8-0.7-0.6-1.2-1.8-1.5
			c-0.8-0.2-1.7,0.2-2.5,0.1c-1.8-0.3-1.5-0.9-2.4-2.4c-1.4-2.4-1.2-0.4-3.3-0.7c-1.4-0.2-1.8-3-1.8-5.6c-0.5,0.5-1,1.1-1.2,1.6
			c-0.5,1.3-0.2,3.3-0.2,4.7c0,3.1,0.1,8,4.1,8.2c1.8,0.1,3.2,0.2,4.3-1.4c0.6-0.8,0.8-2.5,2-2.6c0.1,1.7,2.1,4.6,3.4,5.6
			c2,1.5,4.3,0.3,6.5,0.7c3.6,0.7,2,3.1,2.6,5.7c0.3,1.1,1,2.2,1.2,3.3c0.3,1.1,0,2.1,0.3,3.1c4.7-0.1,0.1,6.9,4.7,7.5
			c1.9,0.2,4.2,0.1,5.7-1c1.2-0.9,2.2-4.2,3.9-3.9c0.4,1.3-0.5,2.6,0.9,3.3c1.2,0.6,2.3-0.4,3.1-1.1c0.7-0.6,1.4-2,2.5-1.3
			c0.5,0.4,0.1,2.5,0.9,3.2c0.9,0.9,2.9,1.3,4.1,1.8c1.2,0.5,2.8,1.2,4.1,1.4c1.5,0.2,2.6,0.2,4.1,0.6
			C47.2,359.4,47.8,359.5,48.4,359.4C48.4,359.5,48.4,359.4,48.4,359.4z"/>
	</g>
	<g>
		<defs>
			<rect id="SVGID_175_" x="0" width="379.8" height="379.8"/>
		</defs>
		<clipPath id="SVGID_176_">
			<use xlink:href="#SVGID_175_"  style="overflow:visible;"/>
		</clipPath>
		<path class="st101" d="M93.8,353.7c0,0.2,0,0.4,0,0.7C93.8,354.1,93.8,353.9,93.8,353.7z"/>
	</g>
	<g>
		<defs>
			<rect id="SVGID_177_" x="0" width="379.8" height="379.8"/>
		</defs>
		<clipPath id="SVGID_178_">
			<use xlink:href="#SVGID_177_"  style="overflow:visible;"/>
		</clipPath>
		<path class="st102" d="M82.3,365.1c0.5-1.3-0.2-2.7,0.1-4.1c0.2-1,0.8-1.9,1-2.9c0.7,0.2,1.6,1.5,2.3,1.4c1.1-0.1,0.8-1.5,1.4-2.3
			c1,0.6,1.2,1.7,2.7,1.4c0.9-0.2,1.4-1.8,2.2-1.6c1,0.2,1,3.3,1.6,4c1.7,2.1,1.4-0.5,2.6-0.9c1.2-0.4,2.1,0.8,2.7,1.7
			c0.2,0.5,0.5,1.1,0.8,1.5c0.6,0.5,1.4-0.1,2.1,0.3c1.2,0.7,0.9,1.2,2.6,1.5c1.8,0.2,2.4-0.9,4-1c0.2-1.7,0.8-3.1,0.9-4.7
			c0.2-1.8,0.7-3.9,1.6-5.5c0.9,1.6,0.5,5.2,2.5,3c0.5-0.6,0.4-2.1,0.8-2.5c1.2-1.4,0.9-0.5,2.3,0.3c1,0.6,1.4,0.6,2.7,0.6
			c0.5,0,1.1,0,1.7,0c0.8,0.1,1.2,0.5,1.8,0.7c1,0.2,2,0,3.1,0.1c1.5,0.3,2.4,0.9,4.1,0.8c2,0,5,0.7,6.5-0.8c0.1,0,0.1-0.1,0.1-0.1
			c-0.2-1-0.6-1.9-1.1-2.3c-1.8-1.2-0.3,1.9-2.3,1.5c-1.2-0.2-0.7-0.9-1.4-1.7c-0.8-0.9-2-1.1-3.3-1.4c-1.1-0.2-2.2-0.4-3.3-0.8
			c-1.5-0.6-2.2-1.6-3.4-2.5c-0.8-0.6-1.7-1-2.5-1.6c-0.4-0.4-1.3-1.5-1.7-1.7c-2.9-1.3-2.2,3.9-4.6,3.9c0-1.1-1.3-2.9-2.7-2.3
			c-1,0.5-1.4,3.6-1.8,4.6c-1.1,3.2,0.2,7.1-0.7,10.4c-2.1-0.8-3.7-1.9-5.6-3.1c-1-0.7-2.3-1.3-3.1-2.2c-0.8-0.8-0.9-2.8-2.5-2.4
			c-0.3,1.2-0.1,2.5-0.1,3.8c0-2.5-0.2-6.8-2.5-8.4c0.1,1.2,0,2.5,0.1,3.7c0,0.2,0,0.4,0,0.7c0-0.2,0-0.4,0-0.7
			c-0.2-2.3-2.5-4.5-3.5-6.4c-1,0.3-1.5,1.9-1.4,3c-0.7-1.1-0.6-2.6-1.5-3.6c-0.2,0.9-1.2,2.7-1,3.6c-1.4-3.1-2.9-7.6-6.4-8.6
			c-0.5,1.8-0.7,6.1,0,7.8c0.8-1,0.8-2.4,1.5-3.6c-0.1,2,0.4,4.3-0.2,6.2c-1.1,0-2.4-2-3.1-2.9c0.1,2,0,4,0.1,6
			c-1.2-1.9-1.5-4.9-1.8-7c-1.2,0.2-0.7,3-0.6,4c0,1.7,0,2.6-0.8,4.1c-1.3,2.4-0.6,4.9,0.5,7.2c0.9-1.5,1.1-4.4,1.2-5.5
			C79.8,357.8,78.7,365.7,82.3,365.1z"/>
	</g>
	<g>
		<defs>
			<rect id="SVGID_179_" x="0" width="379.8" height="379.8"/>
		</defs>
		<clipPath id="SVGID_180_">
			<use xlink:href="#SVGID_179_"  style="overflow:visible;"/>
		</clipPath>
		<path class="st103" d="M85.7,368.7c0-0.3,0-0.6-0.1-0.9C85.6,368.1,85.6,368.4,85.7,368.7z"/>
	</g>
	<g>
		<defs>
			<rect id="SVGID_181_" x="0" width="379.8" height="379.8"/>
		</defs>
		<clipPath id="SVGID_182_">
			<use xlink:href="#SVGID_181_"  style="overflow:visible;"/>
		</clipPath>
		<path class="st104" d="M112.5,373.1c0-0.2,0-0.6,0.1-1.1C112.4,372.3,112.4,372.7,112.5,373.1z"/>
	</g>
	<g>
		<defs>
			<rect id="SVGID_183_" x="0" width="379.8" height="379.8"/>
		</defs>
		<clipPath id="SVGID_184_">
			<use xlink:href="#SVGID_183_"  style="overflow:visible;"/>
		</clipPath>
		<path class="st105" d="M121.4,359.2c0.1-0.4,0.1-0.8,0.1-1.1C121.4,358.4,121.4,358.8,121.4,359.2z"/>
	</g>
	<g>
		<defs>
			<rect id="SVGID_185_" x="0" width="379.8" height="379.8"/>
		</defs>
		<clipPath id="SVGID_186_">
			<use xlink:href="#SVGID_185_"  style="overflow:visible;"/>
		</clipPath>
		<path class="st106" d="M157.3,398.5c0.1-5.1-2.6-9.1-6.3-12.3c-2.1-1.8-3.6-4.8-4.9-7.2c-1.3-2.4-2.4-3.2-5.1-3.3
			c-2,0-5.5,0.8-6.8-0.8c-1.1-1.3,0.4-5-2-4.9c-0.7,1.6-1.8,2.1-2.9,0.8c-1-1.2-0.2-2.9-1.1-4.2c-2.7-3.4-4,3-5.8,3.9
			c-0.6-1.8-0.2-4.4-0.1-6.3c0-1.7-0.8-3.5-0.9-5.2c-0.2,1.1-0.7,2.3-0.7,3.5c-0.1,1.5-0.7,3.6-1.4,4.9c-0.7,1.4-1.8,2.7-2.7,4
			c-0.8,1.2-1.6,4-3.1,4c-0.4-1.5,0.2-3.1-0.3-4.6c-0.3,0.2-0.5,0.5-0.6,0.8c0,0.5-0.1,0.9-0.1,1.1c-0.1-0.4-0.1-0.8,0.1-1.1
			c0.1-2.3,0.4-6.5-0.7-6.7c-0.6,3.3-2.2,6.4-2.8,9.6c-1-0.2-0.3-1.3-1.4-1.7c-0.8-0.3-1.4,0.2-1.9,0.7c-1.2,0.9-1,3.7-2.4,4.2
			c-2,0.7-4.8-6-5.5-7.8c-0.3,0.7-0.5,1.3-0.8,2c-1-1.7-0.7-3.5-1.7-5.2c0.2,2.2-1.5,6.5-3.4,3c-0.9-1.6-0.6-6.2-2.9-6.5
			c-0.3,0.8-0.1,1.5-0.1,2.3c0,1.4-0.4,2.6-0.7,3.9c-0.3,1.8,0.2,3.9-0.4,5.7c-1.1-1.2-2-4.7-2.2-6.8c0.2,2.3,0.8,4.4,0.8,6.8
			c0,2,0.7,5.7-0.1,7.4c-0.5,0.1-0.9,0.2-1.4,0.3c-0.5,1.7,0.2,3.6-0.1,5.4c-0.1,0.8-0.8,3.9-1.7,4.2c-2.7,0.9-3.8-6.6-4.2-8
			c-1.7-0.3-3.4,2.5-3.1,4c0.2,0.8-0.9,1.2-2,1.7c1.8,1.8,3.8,3.6,5.3,5.7c1.1,1.6,1.7,3.5,3,4.9c1.7,1.8,2.8,1.2,5.1,1.5
			c2.3,0.4,4,0.9,6.3,0.9c2.6,0,5.2,0,7.8,0c4.7,0,9.1-0.2,13.6,1c2.5,0.7,4.9,1.8,7.2,2.9c1.9,0.9,3,0.9,5,1
			c1.8,0.1,3.1,0.8,4.9,0.8c1.9,0,3.8,0,5.7,0c3.9,0,7.7,1.9,11.4-0.2c1.8-1,2.8-2.4,4.9-2.9c0.7-0.2,1.4-0.4,2-0.5
			c0.1-0.2,0.2-0.3,0.3-0.5C157.6,402.9,157.2,400.9,157.3,398.5z"/>
	</g>
	<g>
		<defs>
			<rect id="SVGID_187_" x="0" width="379.8" height="379.8"/>
		</defs>
		<clipPath id="SVGID_188_">
			<use xlink:href="#SVGID_187_"  style="overflow:visible;"/>
		</clipPath>
		<polygon class="st107" points="80.3,36.6 80.3,40.4 92.2,43.1 		"/>
	</g>
</g>
</svg>
