<?xml version="1.0" encoding="utf-8"?>
<!-- Generator: Adobe Illustrator 22.0.1, SVG Export Plug-In . SVG Version: 6.00 Build 0)  -->
<svg version="1.1" id="Calque_1" xmlns="http://www.w3.org/2000/svg" xmlns:xlink="http://www.w3.org/1999/xlink" x="0px" y="0px"
	 viewBox="0 0 380 380" style="enable-background:new 0 0 380 380;" xml:space="preserve">
<style type="text/css">
	.st0{fill:#043750;}
	.st1{clip-path:url(#SVGID_2_);fill:url(#XMLID_5_);}
	.st2{clip-path:url(#SVGID_4_);fill:url(#XMLID_32_);}
	.st3{clip-path:url(#SVGID_6_);fill:url(#XMLID_33_);}
	.st4{clip-path:url(#SVGID_8_);fill:url(#XMLID_34_);}
	.st5{clip-path:url(#SVGID_10_);fill:url(#XMLID_35_);}
	.st6{opacity:0.59;clip-path:url(#SVGID_12_);fill:url(#XMLID_36_);enable-background:new    ;}
	.st7{clip-path:url(#SVGID_14_);fill:url(#XMLID_37_);}
	.st8{clip-path:url(#SVGID_16_);fill:url(#XMLID_38_);}
	.st9{clip-path:url(#SVGID_18_);fill:url(#XMLID_39_);}
	.st10{clip-path:url(#SVGID_20_);fill:url(#XMLID_40_);}
	.st11{clip-path:url(#SVGID_22_);fill:url(#XMLID_41_);}
	.st12{clip-path:url(#SVGID_24_);fill:url(#XMLID_42_);}
	.st13{clip-path:url(#SVGID_26_);fill:url(#XMLID_43_);}
	.st14{clip-path:url(#SVGID_28_);fill:url(#XMLID_44_);}
	.st15{clip-path:url(#SVGID_30_);fill:url(#XMLID_45_);}
	.st16{clip-path:url(#SVGID_32_);fill:#043750;}
	.st17{clip-path:url(#SVGID_34_);fill:#043750;}
	.st18{clip-path:url(#SVGID_36_);fill:#043750;}
	.st19{clip-path:url(#SVGID_38_);fill:#043750;}
	.st20{clip-path:url(#SVGID_40_);fill:url(#XMLID_46_);}
	.st21{clip-path:url(#SVGID_42_);fill:#043750;}
	.st22{clip-path:url(#SVGID_44_);fill:url(#XMLID_47_);}
	.st23{clip-path:url(#SVGID_46_);fill:#043750;}
	.st24{clip-path:url(#SVGID_48_);fill:#043750;}
	.st25{clip-path:url(#SVGID_50_);fill:#043750;}
	.st26{clip-path:url(#SVGID_52_);fill:#043750;}
	.st27{clip-path:url(#SVGID_54_);fill:#043750;}
	.st28{clip-path:url(#SVGID_56_);fill:#043750;}
	.st29{clip-path:url(#SVGID_58_);fill:#043750;}
	.st30{clip-path:url(#SVGID_60_);fill:#043750;}
	.st31{clip-path:url(#SVGID_62_);fill:#043750;}
	.st32{clip-path:url(#SVGID_64_);}
	.st33{fill:url(#XMLID_48_);}
	.st34{fill:url(#XMLID_49_);}
	.st35{fill:url(#XMLID_50_);}
	.st36{fill:url(#XMLID_51_);}
	.st37{fill:url(#XMLID_52_);}
	.st38{fill:url(#XMLID_53_);}
	.st39{fill:url(#XMLID_54_);}
	.st40{fill:url(#XMLID_55_);}
	.st41{fill:url(#XMLID_56_);}
	.st42{fill:url(#XMLID_57_);}
	.st43{opacity:0.33;fill:#FFFFFF;enable-background:new    ;}
	.st44{fill:url(#XMLID_58_);}
	.st45{fill:url(#XMLID_59_);}
	.st46{fill:url(#XMLID_60_);}
	.st47{fill:url(#XMLID_61_);}
	.st48{fill:url(#XMLID_62_);}
	.st49{fill:url(#XMLID_63_);}
	.st50{fill:url(#XMLID_64_);}
	.st51{fill:url(#XMLID_65_);}
	.st52{fill:url(#XMLID_66_);}
	.st53{fill:url(#XMLID_67_);}
	.st54{fill:url(#XMLID_68_);}
	.st55{fill:url(#XMLID_69_);}
	.st56{fill:url(#XMLID_70_);}
	.st57{fill:url(#XMLID_71_);}
	.st58{fill:url(#XMLID_72_);}
	.st59{clip-path:url(#SVGID_66_);}
	.st60{fill:url(#XMLID_73_);}
	.st61{fill:url(#XMLID_74_);}
	.st62{fill:url(#XMLID_75_);}
	.st63{fill:url(#XMLID_76_);}
	.st64{fill:url(#XMLID_77_);}
	.st65{fill:url(#XMLID_78_);}
	.st66{fill:url(#XMLID_79_);}
</style>
<g id="BACKGROUND_1_">
	<g id="XMLID_2_">
		<g>
			<rect id="XMLID_31_" x="-0.1" y="-0.1" class="st0" width="380.1" height="380.1"/>
		</g>
		<g>
			<defs>
				<rect id="SVGID_1_" x="-0.1" y="-0.1" width="380.1" height="380.1"/>
			</defs>
			<clipPath id="SVGID_2_">
				<use xlink:href="#SVGID_1_"  style="overflow:visible;"/>
			</clipPath>
			
				<linearGradient id="XMLID_5_" gradientUnits="userSpaceOnUse" x1="189.95" y1="403.5486" x2="189.95" y2="38.6329" gradientTransform="matrix(1 0 0 -1 0 382)">
				<stop  offset="5.102040e-03" style="stop-color:#03698E"/>
				<stop  offset="0.2449" style="stop-color:#50A2AA"/>
				<stop  offset="0.4898" style="stop-color:#EF7D8C"/>
				<stop  offset="0.7806" style="stop-color:#F29368"/>
				<stop  offset="0.9694" style="stop-color:#FACEBA"/>
			</linearGradient>
			<rect id="XMLID_30_" x="-0.1" y="-0.1" class="st1" width="380.1" height="380.1"/>
		</g>
		<g>
			<defs>
				<rect id="SVGID_3_" x="-0.1" y="-0.1" width="380.1" height="380.1"/>
			</defs>
			<clipPath id="SVGID_4_">
				<use xlink:href="#SVGID_3_"  style="overflow:visible;"/>
			</clipPath>
			
				<linearGradient id="XMLID_32_" gradientUnits="userSpaceOnUse" x1="96.6662" y1="93.6972" x2="96.6662" y2="215.9169" gradientTransform="matrix(1 -1.339206e-03 -1.339206e-03 -1 -0.4656 382.4757)">
				<stop  offset="0" style="stop-color:#EF7D8C"/>
				<stop  offset="0.4161" style="stop-color:#F29368"/>
				<stop  offset="1" style="stop-color:#FBF5BC"/>
			</linearGradient>
			<path id="XMLID_29_" class="st2" d="M235.2,248.2c2.3,0.1,3.7,0.4,3.8,0.7c-1.7-8.4-3.6-18.6-13.5-20.7c-5.1-1.1-10.3,0-15.5,0.7
				c-5.2,0.7-10.7,0.8-15.2-1.8c-3.8-2.3-6.5-6.3-10.7-7.7c-4-1.2-8.4,0.3-12.5-0.3c-9-1.4-12.9-11.8-17.9-19.4
				c-9.7-14.9-29.6-22.4-46.7-17.5c-7.7,2.2-15,6.6-23,6.3c-7.8-0.3-14.7-5.2-20-10.9C48.7,161,33.4,140.2,9.6,136.2
				c-12.3-2-25.7,0.4-36.3,7c-7.6,4.7-12.5,15.3-15.3,23.6c-2.6,7.7-1.1,13.9-1.5,21.5c-0.5,9.4-3.7,18.2-3.3,27.9
				c0.5,15.4,4.5,30.4,9.3,45c0.4,1.2,26.9-1.4,28.6-1.5c22.8-1.2,45.5-2.4,68.3-3.7c29.4-1.6,58.8-3.2,88.2-4.8
				C154.3,250.8,218.8,247.2,235.2,248.2z"/>
		</g>
		<g>
			<defs>
				<rect id="SVGID_5_" x="-0.1" y="-0.1" width="380.1" height="380.1"/>
			</defs>
			<clipPath id="SVGID_6_">
				<use xlink:href="#SVGID_5_"  style="overflow:visible;"/>
			</clipPath>
			
				<linearGradient id="XMLID_33_" gradientUnits="userSpaceOnUse" x1="296.6865" y1="-0.5974" x2="287.247" y2="171.3043" gradientTransform="matrix(1 0 0 -1 0 382)">
				<stop  offset="0.4898" style="stop-color:#EF7D8C"/>
				<stop  offset="0.7806" style="stop-color:#F29368"/>
				<stop  offset="1" style="stop-color:#FBF5BC"/>
			</linearGradient>
			<circle id="XMLID_28_" class="st3" cx="288.6" cy="234.6" r="46.2"/>
		</g>
		<g>
			<defs>
				<rect id="SVGID_7_" x="-0.1" y="-0.1" width="380.1" height="380.1"/>
			</defs>
			<clipPath id="SVGID_8_">
				<use xlink:href="#SVGID_7_"  style="overflow:visible;"/>
			</clipPath>
			
				<linearGradient id="XMLID_34_" gradientUnits="userSpaceOnUse" x1="189.95" y1="-53.9278" x2="189.95" y2="349.389" gradientTransform="matrix(1 0 0 -1 0 382)">
				<stop  offset="5.102040e-03" style="stop-color:#0F68B2"/>
				<stop  offset="0.2245" style="stop-color:#50A2AA"/>
				<stop  offset="0.4898" style="stop-color:#EF7D8C"/>
				<stop  offset="0.7806" style="stop-color:#F29368"/>
				<stop  offset="0.9694" style="stop-color:#FACEBA"/>
			</linearGradient>
			<rect id="XMLID_27_" x="-0.1" y="242.9" class="st4" width="380.1" height="137.1"/>
		</g>
		<g>
			<defs>
				<rect id="SVGID_9_" x="-0.1" y="-0.1" width="380.1" height="380.1"/>
			</defs>
			<clipPath id="SVGID_10_">
				<use xlink:href="#SVGID_9_"  style="overflow:visible;"/>
			</clipPath>
			
				<linearGradient id="XMLID_35_" gradientUnits="userSpaceOnUse" x1="36.6837" y1="176.6412" x2="386.9546" y2="171.7537" gradientTransform="matrix(1 0 0 -1 0 382)">
				<stop  offset="5.102040e-02" style="stop-color:#104666"/>
				<stop  offset="0.4898" style="stop-color:#EF7D8C"/>
				<stop  offset="0.7806" style="stop-color:#F29368"/>
				<stop  offset="0.9694" style="stop-color:#FACEBA"/>
			</linearGradient>
			<polygon id="XMLID_26_" class="st5" points="203.3,255.7 -17.3,260.9 -17.7,255.7 -17.7,255.7 -25.9,157 1.6,170.1 6.8,148.7 
				12.1,175.1 36.3,186.6 37.4,181.8 38.6,187.7 42.1,189.4 44.3,189.9 47.8,175.6 50.9,191.5 89.7,200.5 91.1,194.4 92.5,201.2 
				97.4,202.4 100.8,188.5 103.9,203.9 111.2,205.6 112.6,199.5 114,206.2 118.4,207.3 144.5,222.1 147.7,209 151,225.9 
				183.8,244.6 187.3,230.2 191,248.7 			"/>
		</g>
		<g>
			<defs>
				<rect id="SVGID_11_" x="-0.1" y="-0.1" width="380.1" height="380.1"/>
			</defs>
			<clipPath id="SVGID_12_">
				<use xlink:href="#SVGID_11_"  style="overflow:visible;"/>
			</clipPath>
			
				<linearGradient id="XMLID_36_" gradientUnits="userSpaceOnUse" x1="18.0242" y1="72.8208" x2="366.7117" y2="72.8208" gradientTransform="matrix(1 0 0 -1 0 382)">
				<stop  offset="5.102040e-02" style="stop-color:#104666"/>
				<stop  offset="0.6916" style="stop-color:#EF7D8C"/>
			</linearGradient>
			<polygon id="XMLID_25_" class="st6" points="203.3,255.7 191,262.7 187.3,281.2 183.8,266.8 151,285.5 147.7,302.4 144.5,289.2 
				118.4,304.1 114,305.1 112.6,311.9 111.2,305.8 103.9,307.5 100.8,322.8 97.4,309 92.5,310.2 91.1,316.9 89.7,310.8 50.9,319.9 
				47.8,335.8 44.3,321.5 42.1,322 38.6,323.6 37.4,329.6 36.3,324.7 12.1,336.3 6.8,362.7 1.6,341.2 -25.9,354.3 -17.7,255.7 
				-17.3,260.9 			"/>
		</g>
		<g>
			<defs>
				<rect id="SVGID_13_" x="-0.1" y="-0.1" width="380.1" height="380.1"/>
			</defs>
			<clipPath id="SVGID_14_">
				<use xlink:href="#SVGID_13_"  style="overflow:visible;"/>
			</clipPath>
			
				<linearGradient id="XMLID_37_" gradientUnits="userSpaceOnUse" x1="288.8184" y1="158.0256" x2="288.4321" y2="109.2255" gradientTransform="matrix(1 0 0 -1 0 382)">
				<stop  offset="0" style="stop-color:#EF7D8C"/>
				<stop  offset="0.3471" style="stop-color:#F29368"/>
				<stop  offset="1" style="stop-color:#FBF5BC"/>
			</linearGradient>
			<path id="XMLID_24_" class="st7" d="M342.4,245.6c-0.8,0.5-1.7,0.7-2.6,0.8c-8.3,1-16.6,2-24.8,2.9c-1,0.1-2.1,0.4-2.3,1.3
				c-0.1,0.7,0.3,1.3,0.9,1.6s1.2,0.4,1.9,0.4c4.7,0.3,9.3,0.7,14,1c0.7,0.1,1.5,0.1,2.1,0.4s1.2,1,1.1,1.7
				c-0.1,1.1-1.5,1.6-2.6,1.8c-11.5,2-23.4,0.4-34.7,3.3c-0.5,0.1-1.1,0.3-1.3,0.8c-0.5,1,0.8,1.9,1.8,1.9c1.1,0,2.1-0.5,3.1-0.2
				c1.5,0.4,2,2.2,3.1,3.3c1.2,1.2,3,1.4,4.8,1.5c2.8,0.2,5.6,0.5,8.4,0.7c0.7,0.1,1.3,0.1,1.9,0.4c0.5,0.3,1,1,0.8,1.6
				c-0.2,0.5-0.7,0.9-1.2,1.1c-4.5,2.1-9.8,3-14.6,3.9c-5.5,1.1-11,2-16.5,3.2c-0.5,0.1-1.1,0.2-1.3,0.7c-0.4,0.5,0,1.3,0.5,1.7
				c0.5,0.4,1.2,0.4,1.9,0.5c2.5,0.3,5,0.8,7.5,1.5c0.8,0.2,1.6,0.6,1.9,1.3c0.2,0.7-0.1,1.4-0.7,1.8s-1.2,0.6-1.9,0.8
				c-2.4,0.7-4.7,1.3-7.1,2c-0.4,0.1-0.8,0.2-0.9,0.6c-0.2,0.4,0.1,0.8,0.5,1c0.4,0.2,0.8,0.2,1.2,0.2c6.5,0,13,0.3,19.4,0.8
				c1.1,0.1,2.6,0.6,2.5,1.7c-0.1,0.9-1.2,1.3-2.1,1.5c-3.6,0.7-8.7,1.2-11.8,3.4c-0.3,0.2-0.5,0.4-0.6,0.7c-0.1,0.4,0.3,0.9,0.7,1
				c0.4,0.1,0.9,0.1,1.4,0.1c1.8-0.1,3.6,0.5,5,1.6c0.6,0.4,1.1,1,1,1.7c-0.1,0.8-0.9,1.2-1.6,1.4c-6.3,2.3-13.1,0.6-19.5,2.4
				c-0.9,0.2-1.9,0.7-2.2,1.6c-0.4,1.4,1.2,2.5,2.7,2.6c2,0.1,4.2-0.6,6.2,0.2c1.7,0.7,3.3,2.7,2.3,4.6c-0.5,0.9-1.4,1.4-2.3,1.8
				c-1.6,0.7-3.3,1.3-4.9,1.7c-0.6,0.1-1.2,0.3-1.7,0.6c-0.5,0.4-0.8,1.1-0.6,1.6c0.3,0.7,1.1,0.8,1.8,0.9c1.7,0.2,3.5,0.4,5.2,0.5
				c0.5,0.1,1,0.1,1.5,0.4c0.4,0.3,0.7,0.8,0.5,1.3c-0.2,0.5-0.7,0.7-1.2,0.8c-6.1,1.7-12.5,2.1-18.7,1.2c-0.8-0.1-1.8-0.5-1.7-1.3
				c0.1-0.9,1.4-1.1,1.7-1.9c0.3-0.8-0.5-1.7-1.4-1.8c-0.9-0.1-1.7,0.2-2.6,0.2c-0.9,0.1-1.9-0.4-2.1-1.2c-0.1-0.6,0.3-1.2,0.8-1.5
				c0.5-0.3,1.1-0.4,1.8-0.5c2.4-0.4,9.3-0.2,9-4c-0.1-1.1-1-2-2.1-2.4c-2.4-0.8-5.3-0.3-7.7,0c-0.5,0.1-1.2,0-1.3-0.5
				c-0.1-0.5,0.5-0.7,0.8-1.1c0.5-0.6,0-1.5-0.7-1.9c-0.7-0.4-1.5-0.3-2.3-0.2c-2.1,0.1-4.1,0.1-6.2-0.1c-0.9-0.1-2.1-0.6-2-1.5
				c0.1-0.8,1-1.1,1.7-1.2c4.4-0.8,8.8-1.3,13.2-1.4c1.7,0,2.8-0.4,4.4-0.7c1.9-0.4,3.9,0,5.6-0.8c1.3-0.6,2.5-2.4,0.8-3.4
				c-0.6-0.4-1.4-0.4-2.1-0.4c-5.4-0.1-10.8-0.2-16.2-0.2c-0.5,0-1.1,0-1.5-0.2c-0.5-0.2-0.9-0.7-0.8-1.2c0.1-0.6,0.7-1,1.2-1.3
				l4.9-2.6c0.7-0.4,1.5-1.2,1-1.8c-0.2-0.3-0.6-0.4-1-0.4c-9.3-0.8-18.9-0.6-28.2-0.8c-1.7,0-3.9-0.7-3.7-2.4
				c0.2-1.3,1.8-1.8,3.1-2c4.2-0.6,9.3-0.5,12.7-3.2c0.8-0.6,1.4-1.4,2.2-1.9c2.1-1.5,5.4-1.9,7.9-2.7c3.6-1.1,7.8-1,11.5-1.4
				c4.7-0.4,9.5-0.8,14-2c1.4-0.4,3-1.2,3-2.6c0-0.8-0.7-1.6-1.4-2c-0.8-0.4-1.6-0.5-2.5-0.5c-5.5-0.5-10.9-1.1-16.4-1.6
				c-1-0.1-2.2-0.6-2-1.5c0.3-1,1.9-0.8,2.3-1.8c0.2-0.5-0.1-1.2-0.7-1.5c-0.5-0.3-1.2-0.3-1.8-0.3c-5.4-0.1-10.8-0.2-16.1-0.3
				c-1.1,0-2.5-0.2-2.9-1.2c-0.3-0.7,0.1-1.6,0.7-2.1c0.6-0.5,1.4-0.8,2.1-1c1.8-0.5,3.6-1.1,5.4-1.6c1.2-0.4,2.7-1,2.9-2.3
				c0.1-0.9-0.5-1.7-1.2-2.1c-0.8-0.4-1.7-0.5-2.5-0.7c-4.8-0.6-9.5-1.2-14.3-1.8c-1.1-0.1-2.3-0.3-3.3-0.9c-1-0.6-1.8-1.7-1.7-2.8
				c0.2-1.4,1.6-2.4,2.9-3c0.5-0.2,1-0.5,1.6-0.7h103.9c0.1,0.1,0.1,0.2,0.2,0.3C343.7,244,343.2,245,342.4,245.6z"/>
		</g>
		<g>
			<defs>
				<rect id="SVGID_15_" x="-0.1" y="-0.1" width="380.1" height="380.1"/>
			</defs>
			<clipPath id="SVGID_16_">
				<use xlink:href="#SVGID_15_"  style="overflow:visible;"/>
			</clipPath>
			
				<linearGradient id="XMLID_38_" gradientUnits="userSpaceOnUse" x1="256.2017" y1="163.9232" x2="255.7944" y2="112.4739" gradientTransform="matrix(1 0 0 -1 0 382)">
				<stop  offset="0" style="stop-color:#EF7D8C"/>
				<stop  offset="0.3471" style="stop-color:#F29368"/>
				<stop  offset="1" style="stop-color:#FBF5BC"/>
			</linearGradient>
			<path id="XMLID_23_" class="st8" d="M249.5,269.1c4.1,0.7,8.1,0.1,12.2-0.4c0.7-0.1,1.4-0.6,1.3-1.3c-0.1-0.6-0.8-0.8-1.4-0.9
				c-3.8-0.6-8.5-0.3-12.1,1c-0.5,0.2-1.1,0.5-1,1C248.7,268.8,249.1,269,249.5,269.1z"/>
		</g>
		<g>
			<defs>
				<rect id="SVGID_17_" x="-0.1" y="-0.1" width="380.1" height="380.1"/>
			</defs>
			<clipPath id="SVGID_18_">
				<use xlink:href="#SVGID_17_"  style="overflow:visible;"/>
			</clipPath>
			
				<linearGradient id="XMLID_39_" gradientUnits="userSpaceOnUse" x1="344.8492" y1="347.0493" x2="338.8762" y2="231.3904" gradientTransform="matrix(1 0 0 -1 0 382)">
				<stop  offset="0" style="stop-color:#EF7F89;stop-opacity:0"/>
				<stop  offset="0.3471" style="stop-color:#F29368;stop-opacity:0.3"/>
				<stop  offset="1" style="stop-color:#FBF5BC"/>
			</linearGradient>
			<path id="XMLID_22_" class="st9" d="M412.6,124.6c-0.1,0.1-0.2,0.2-0.3,0.2H267.8c1.5-2.2,4.2-3.7,6.9-4.5
				c3.9-1.1,8-1.3,11.6-3.1c6.6-3.3,9.9-11.2,16.5-14.4c5.4-2.6,11.8-1.4,17.4-3.6c7.7-3,11.6-11.2,16.7-17.8
				c7.6-9.8,18.9-16.7,31.1-18.8s25.2,0.5,35.6,7.2L412.6,124.6z"/>
		</g>
		<g>
			<defs>
				<rect id="SVGID_19_" x="-0.1" y="-0.1" width="380.1" height="380.1"/>
			</defs>
			<clipPath id="SVGID_20_">
				<use xlink:href="#SVGID_19_"  style="overflow:visible;"/>
			</clipPath>
			
				<linearGradient id="XMLID_40_" gradientUnits="userSpaceOnUse" x1="297.3788" y1="163.5972" x2="296.9715" y2="112.148" gradientTransform="matrix(1 0 0 -1 0 382)">
				<stop  offset="0" style="stop-color:#EF7D8C"/>
				<stop  offset="0.3471" style="stop-color:#F29368"/>
				<stop  offset="1" style="stop-color:#FBF5BC"/>
			</linearGradient>
			<path id="XMLID_7_" class="st10" d="M294.5,313c0.8,0.1,5.8,0.7,5.2-2.5c-0.2-1-0.9-1.2-1.4-1.2c-1,0-2.1,0.1-3,0.7
				c-0.4,0.3-1.6,1.1-1.7,1.8c0,0.4,0.1,0.7,0.3,0.9S294.3,313,294.5,313z"/>
		</g>
		<g>
			<defs>
				<rect id="SVGID_21_" x="-0.1" y="-0.1" width="380.1" height="380.1"/>
			</defs>
			<clipPath id="SVGID_22_">
				<use xlink:href="#SVGID_21_"  style="overflow:visible;"/>
			</clipPath>
			
				<linearGradient id="XMLID_41_" gradientUnits="userSpaceOnUse" x1="259.6491" y1="163.8959" x2="259.2419" y2="112.4467" gradientTransform="matrix(1 0 0 -1 0 382)">
				<stop  offset="0" style="stop-color:#EF7D8C"/>
				<stop  offset="0.3471" style="stop-color:#F29368"/>
				<stop  offset="1" style="stop-color:#FBF5BC"/>
			</linearGradient>
			<path id="XMLID_6_" class="st11" d="M256.7,313.1c0.8,0,5.8,0.4,5.2-1.2c-0.2-0.5-0.9-0.6-1.4-0.6c-1,0-2.1,0.1-3,0.4
				c-0.4,0.1-1.6,0.5-1.7,0.9c0,0.2,0.1,0.4,0.3,0.4C256.3,313.1,256.5,313.1,256.7,313.1z"/>
		</g>
	</g>
</g>
<g id="OBJECT">
	<g id="XMLID_3_">
		<g>
			<defs>
				<rect id="SVGID_23_" x="-0.1" y="-0.1" width="380.1" height="380.1"/>
			</defs>
			<clipPath id="SVGID_24_">
				<use xlink:href="#SVGID_23_"  style="overflow:visible;"/>
			</clipPath>
			
				<linearGradient id="XMLID_42_" gradientUnits="userSpaceOnUse" x1="-1.6686" y1="35.0355" x2="160.438" y2="35.0355" gradientTransform="matrix(1 0 0 -1 0 382)">
				<stop  offset="5.102040e-02" style="stop-color:#104666"/>
				<stop  offset="1" style="stop-color:#A2697E"/>
			</linearGradient>
			<path id="XMLID_432_" class="st12" d="M91.7,311.5H-0.1c0,0-3.5,72.1,0,71c1.1-0.4,33.3-0.5,76.7-0.5
				c27.8-14.4,55.5-28.8,83.9-42.2L91.7,311.5z"/>
		</g>
		<g>
			<defs>
				<rect id="SVGID_25_" x="-0.1" y="-0.1" width="380.1" height="380.1"/>
			</defs>
			<clipPath id="SVGID_26_">
				<use xlink:href="#SVGID_25_"  style="overflow:visible;"/>
			</clipPath>
			
				<linearGradient id="XMLID_43_" gradientUnits="userSpaceOnUse" x1="126.4775" y1="10.2122" x2="39.0545" y2="-80.4688" gradientTransform="matrix(1 0 0 -1 0 382)">
				<stop  offset="5.102040e-02" style="stop-color:#104666"/>
				<stop  offset="1" style="stop-color:#A2697E"/>
			</linearGradient>
			<path id="XMLID_433_" class="st13" d="M151.1,366.2c-10.6,0-21.7-2.2-31.2,1.6c-8.6,3.3-16,8.6-23.5,14.2c13.4,0,27.3,0,40,0
				C141.8,377.1,146.9,372.1,151.1,366.2z"/>
		</g>
		<g>
			<defs>
				<rect id="SVGID_27_" x="-0.1" y="-0.1" width="380.1" height="380.1"/>
			</defs>
			<clipPath id="SVGID_28_">
				<use xlink:href="#SVGID_27_"  style="overflow:visible;"/>
			</clipPath>
			
				<linearGradient id="XMLID_44_" gradientUnits="userSpaceOnUse" x1="47.4125" y1="23.4078" x2="238.9286" y2="23.4078" gradientTransform="matrix(1 0 0 -1 0 382)">
				<stop  offset="5.102040e-02" style="stop-color:#104666"/>
				<stop  offset="1" style="stop-color:#A2697E"/>
			</linearGradient>
			<path id="XMLID_434_" class="st14" d="M238.9,335.1L161,340l-0.5-0.2c-28.3,13.4-85.3,27.8-113.1,42.2c11.8,0,29.8,0,49,0
				c7.5-5.6,14.9-10.9,23.5-14.2c9.5-3.8,20.6-1.6,31.2-1.6c-4.2,5.9-9.4,10.9-14.7,15.9c11.2,0,21.6,0,29.8,0.1
				C190.8,367,214.9,351,238.9,335.1z"/>
		</g>
		<g>
			<defs>
				<rect id="SVGID_29_" x="-0.1" y="-0.1" width="380.1" height="380.1"/>
			</defs>
			<clipPath id="SVGID_30_">
				<use xlink:href="#SVGID_29_"  style="overflow:visible;"/>
			</clipPath>
			
				<linearGradient id="XMLID_45_" gradientUnits="userSpaceOnUse" x1="166.2481" y1="23.2449" x2="313.4554" y2="23.2449" gradientTransform="matrix(1 0 0 -1 0 382)">
				<stop  offset="5.102040e-02" style="stop-color:#104666"/>
				<stop  offset="1" style="stop-color:#A2697E"/>
			</linearGradient>
			<path id="XMLID_435_" class="st15" d="M239.6,335.1l-0.7,0.1c-24,15.9-48.1,31.9-72.7,46.9c75.1,0.1,147.2,0.4,147.2,0.4
				C307,376.5,239.6,335.1,239.6,335.1z"/>
		</g>
		<g>
			<defs>
				<rect id="SVGID_31_" x="-0.1" y="-0.1" width="380.1" height="380.1"/>
			</defs>
			<clipPath id="SVGID_32_">
				<use xlink:href="#SVGID_31_"  style="overflow:visible;"/>
			</clipPath>
			<path id="XMLID_475_" class="st16" d="M53.2,364.6c-9.9,1.5-19.7,3.7-29.2,7.8c8.3-6.5,16.8-12.2,24.4-19.5
				c-3.4-5.7-8-10.5-13.5-14.2c-4.4,5.5-8.4,11.2-9.6,18c0.9-7.1,2.8-14,4.5-20.9c-5.8-2.8-12.3-4.3-19.1-4.3c-0.5,0-1.1,0-1.6,0
				C8,342.2,7.1,353.1,7.4,364c-4.7-9.7-8.8-19.9-15.2-28.8c-4.6,2.1-8.8,5-12.4,8.5c3.9,8.1,7.6,16.3,11.1,24.6
				c-5.4-5.9-11.8-10.8-18.4-15.3c-3.9,6.5-6.1,14.2-6.1,22.3c0,2.6,0.2,5.1,0.7,7.6c28.9-0.1,57.9-0.2,86.9-0.3
				c0.4-2.4,0.6-4.8,0.6-7.3C54.5,371.6,54.1,368,53.2,364.6z"/>
		</g>
		<g>
			<defs>
				<rect id="SVGID_33_" x="-0.1" y="-0.1" width="380.1" height="380.1"/>
			</defs>
			<clipPath id="SVGID_34_">
				<use xlink:href="#SVGID_33_"  style="overflow:visible;"/>
			</clipPath>
			<path id="XMLID_476_" class="st17" d="M388.4,378.6c-6.4,1-12.7,2.4-18.8,5c5.3-4.2,10.8-7.8,15.7-12.6c-2.2-3.7-5.2-6.8-8.7-9.1
				c-2.9,3.6-5.4,7.2-6.2,11.6c0.6-4.6,1.8-9,2.9-13.5c-3.7-1.8-7.9-2.8-12.3-2.8c-0.4,0-0.7,0-1,0c-0.6,7-1.1,14-1,21.1
				c-3-6.2-5.6-12.8-9.8-18.5c-3,1.4-5.7,3.2-8,5.5c2.5,5.2,4.9,10.5,7.1,15.9c-3.5-3.8-7.6-7-11.8-9.9c-2.5,4.2-3.9,9.1-3.9,14.4
				c0,1.7,0.1,3.3,0.4,4.9c18.6,0,37.3-0.1,56-0.2c0.2-1.5,0.4-3.1,0.4-4.7C389.2,383.1,388.9,380.8,388.4,378.6z"/>
		</g>
		<g>
			<defs>
				<rect id="SVGID_35_" x="-0.1" y="-0.1" width="380.1" height="380.1"/>
			</defs>
			<clipPath id="SVGID_36_">
				<use xlink:href="#SVGID_35_"  style="overflow:visible;"/>
			</clipPath>
			<path id="XMLID_482_" class="st18" d="M365.9,379.8c-9.9,1.5-19.7,3.7-29.2,7.8c8.3-6.5,16.8-12.2,24.4-19.5
				c-3.4-5.7-8-10.5-13.5-14.2c-4.4,5.5-8.4,11.2-9.6,18c0.9-7.1,2.8-14,4.5-20.9c-5.8-2.8-12.3-4.3-19.1-4.3c-0.5,0-1.1,0-1.6,0
				c-0.9,10.9-1.7,21.8-1.5,32.7c-4.7-9.7-8.8-19.9-15.2-28.8c-4.6,2.1-8.8,5-12.4,8.5c3.9,8.1,7.6,16.3,11.1,24.6
				c-5.4-5.9-11.8-10.8-18.4-15.3c-3.9,6.5-6.1,14.2-6.1,22.3c0,2.6,0.2,5.1,0.7,7.6c28.9-0.1,57.9-0.2,86.9-0.3
				c0.4-2.4,0.6-4.8,0.6-7.3C367.3,386.9,366.8,383.3,365.9,379.8z"/>
		</g>
		<g>
			<defs>
				<rect id="SVGID_37_" x="-0.1" y="-0.1" width="380.1" height="380.1"/>
			</defs>
			<clipPath id="SVGID_38_">
				<use xlink:href="#SVGID_37_"  style="overflow:visible;"/>
			</clipPath>
			<polygon id="XMLID_483_" class="st19" points="171.6,362.3 181.3,322.7 181.3,364.5 			"/>
		</g>
		<g>
			<defs>
				<rect id="SVGID_39_" x="-0.1" y="-0.1" width="380.1" height="380.1"/>
			</defs>
			<clipPath id="SVGID_40_">
				<use xlink:href="#SVGID_39_"  style="overflow:visible;"/>
			</clipPath>
			
				<linearGradient id="XMLID_46_" gradientUnits="userSpaceOnUse" x1="195.6186" y1="45.9477" x2="173.4335" y2="0.2975" gradientTransform="matrix(1 0 0 -1 0 382)">
				<stop  offset="0" style="stop-color:#A2697E"/>
				<stop  offset="0.949" style="stop-color:#104666"/>
			</linearGradient>
			<polygon id="XMLID_608_" class="st20" points="174.7,375.2 184.3,337.5 188,373.6 			"/>
		</g>
		<g>
			<defs>
				<rect id="SVGID_41_" x="-0.1" y="-0.1" width="380.1" height="380.1"/>
			</defs>
			<clipPath id="SVGID_42_">
				<use xlink:href="#SVGID_41_"  style="overflow:visible;"/>
			</clipPath>
			<polygon id="XMLID_635_" class="st21" points="178.1,368.6 171.6,339.2 166.7,368.6 			"/>
		</g>
		<g>
			<defs>
				<rect id="SVGID_43_" x="-0.1" y="-0.1" width="380.1" height="380.1"/>
			</defs>
			<clipPath id="SVGID_44_">
				<use xlink:href="#SVGID_43_"  style="overflow:visible;"/>
			</clipPath>
			
				<linearGradient id="XMLID_47_" gradientUnits="userSpaceOnUse" x1="398.5678" y1="50.6369" x2="381.9885" y2="16.5219" gradientTransform="matrix(1 0 -0.1204 -0.9815 -208.3084 414.2291)">
				<stop  offset="0" style="stop-color:#A2697E"/>
				<stop  offset="0.949" style="stop-color:#104666"/>
			</linearGradient>
			<polygon id="XMLID_484_" class="st22" points="183.8,393.4 173.7,364.6 172.4,393.4 			"/>
		</g>
		<g>
			<defs>
				<rect id="SVGID_45_" x="-0.1" y="-0.1" width="380.1" height="380.1"/>
			</defs>
			<clipPath id="SVGID_46_">
				<use xlink:href="#SVGID_45_"  style="overflow:visible;"/>
			</clipPath>
			<polygon id="XMLID_662_" class="st23" points="171.6,375.4 160.2,356.4 160.2,375.4 			"/>
		</g>
		<g>
			<defs>
				<rect id="SVGID_47_" x="-0.1" y="-0.1" width="380.1" height="380.1"/>
			</defs>
			<clipPath id="SVGID_48_">
				<use xlink:href="#SVGID_47_"  style="overflow:visible;"/>
			</clipPath>
			<path id="XMLID_663_" class="st24" d="M195.5,382.1l16.3-51.3c0,0-4.5,51.1-3.5,51.3C209.2,382.4,195.5,382.1,195.5,382.1z"/>
		</g>
		<g>
			<defs>
				<rect id="SVGID_49_" x="-0.1" y="-0.1" width="380.1" height="380.1"/>
			</defs>
			<clipPath id="SVGID_50_">
				<use xlink:href="#SVGID_49_"  style="overflow:visible;"/>
			</clipPath>
			<polygon id="XMLID_519_" class="st25" points="237.8,402 244.9,322.7 218.8,402 			"/>
		</g>
		<g>
			<defs>
				<rect id="SVGID_51_" x="-0.1" y="-0.1" width="380.1" height="380.1"/>
			</defs>
			<clipPath id="SVGID_52_">
				<use xlink:href="#SVGID_51_"  style="overflow:visible;"/>
			</clipPath>
			<path id="XMLID_533_" class="st26" d="M226.7,405.8c0.2-0.8-4.3-54-4.3-54l-14.2,51.6L226.7,405.8z"/>
		</g>
		<g>
			<defs>
				<rect id="SVGID_53_" x="-0.1" y="-0.1" width="380.1" height="380.1"/>
			</defs>
			<clipPath id="SVGID_54_">
				<use xlink:href="#SVGID_53_"  style="overflow:visible;"/>
			</clipPath>
			<path id="XMLID_547_" class="st27" d="M189.2,400.6c0-1.1-2.4-59.5-2.4-59.5l17.4,60.8L189.2,400.6z"/>
		</g>
		<g>
			<defs>
				<rect id="SVGID_55_" x="-0.1" y="-0.1" width="380.1" height="380.1"/>
			</defs>
			<clipPath id="SVGID_56_">
				<use xlink:href="#SVGID_55_"  style="overflow:visible;"/>
			</clipPath>
			<polygon id="XMLID_485_" class="st28" points="235.5,405.8 251.4,353.9 251.4,400.9 			"/>
		</g>
		<g>
			<defs>
				<rect id="SVGID_57_" x="-0.1" y="-0.1" width="380.1" height="380.1"/>
			</defs>
			<clipPath id="SVGID_58_">
				<use xlink:href="#SVGID_57_"  style="overflow:visible;"/>
			</clipPath>
			<polygon id="XMLID_486_" class="st29" points="213.7,398.4 202.5,358 198.7,398.4 			"/>
		</g>
		<g>
			<defs>
				<rect id="SVGID_59_" x="-0.1" y="-0.1" width="380.1" height="380.1"/>
			</defs>
			<clipPath id="SVGID_60_">
				<use xlink:href="#SVGID_59_"  style="overflow:visible;"/>
			</clipPath>
			<polygon id="XMLID_487_" class="st30" points="195.5,402 183.2,364.5 179.9,402 			"/>
		</g>
		<g>
			<defs>
				<rect id="SVGID_61_" x="-0.1" y="-0.1" width="380.1" height="380.1"/>
			</defs>
			<clipPath id="SVGID_62_">
				<use xlink:href="#SVGID_61_"  style="overflow:visible;"/>
			</clipPath>
			<polygon id="XMLID_488_" class="st31" points="170.4,400.3 160.4,371.6 159,400.3 			"/>
		</g>
		<g>
			<defs>
				<rect id="SVGID_63_" x="-0.1" y="-0.1" width="380.1" height="380.1"/>
			</defs>
			<clipPath id="SVGID_64_">
				<use xlink:href="#SVGID_63_"  style="overflow:visible;"/>
			</clipPath>
			<g id="XMLID_1_" class="st32">
				<g id="XMLID_436_">
					
						<linearGradient id="XMLID_48_" gradientUnits="userSpaceOnUse" x1="85.9384" y1="20.2299" x2="109.5046" y2="20.2299" gradientTransform="matrix(1 0 0 -1 0 382)">
						<stop  offset="5.102040e-02" style="stop-color:#104666"/>
						<stop  offset="1" style="stop-color:#A2697E"/>
					</linearGradient>
					<path id="XMLID_437_" class="st33" d="M99.1,356.7c-2.1,0.2-4.2,0.3-6.2,0.5c-2.8,0.2-5.7-0.4-6.1,3.2
						c-0.2,2.2-0.5,4.3-0.8,6.5c7.9,0.1,15.8-0.8,23.6-2.5C106.5,361.1,103,358.4,99.1,356.7z"/>
					
						<linearGradient id="XMLID_49_" gradientUnits="userSpaceOnUse" x1="99.0518" y1="21.5212" x2="114.0994" y2="21.5212" gradientTransform="matrix(1 0 0 -1 0 382)">
						<stop  offset="5.102040e-02" style="stop-color:#104666"/>
						<stop  offset="0.4898" style="stop-color:#EF7D8C"/>
						<stop  offset="0.9694" style="stop-color:#FACEBA"/>
					</linearGradient>
					<path id="XMLID_438_" class="st34" d="M113.5,361.7c-2-1.9-4.2-2.8-6.7-3.2c-1.4-0.3-2.9-0.5-4.3-0.9c-0.4-0.1-1.9-1-2.2-1
						c-0.4,0-0.8,0.1-1.2,0.1c4,1.7,7.5,4.5,10.5,7.7c1.2-0.2,2.3-0.5,3.4-0.8c0.5-0.1,1.1-0.3,1.1-0.8
						C114.1,362.3,113.8,362,113.5,361.7z"/>
					
						<linearGradient id="XMLID_50_" gradientUnits="userSpaceOnUse" x1="81.1022" y1="61.5609" x2="108.6277" y2="61.5609" gradientTransform="matrix(1 0 0 -1 0 382)">
						<stop  offset="5.102040e-02" style="stop-color:#104666"/>
						<stop  offset="1" style="stop-color:#A2697E"/>
					</linearGradient>
					<path id="XMLID_439_" class="st35" d="M95.2,294.2c-0.4-3.7-0.5-8.4-2.6-11.7c-4,1.5-7.3,6.8-9,12c-5.5,16.8-0.7,41.2,2.5,58.2
						c0.3,1.8,0.7,3.7,1.8,4.7c1,1,2.4,1,3.6,0.9c1.8-0.1,3.5-0.2,5.3-0.4C95,336.8,97.3,315.6,95.2,294.2z"/>
					
						<linearGradient id="XMLID_51_" gradientUnits="userSpaceOnUse" x1="87.2035" y1="61.9782" x2="118.0055" y2="61.9782" gradientTransform="matrix(1 0 0 -1 0 382)">
						<stop  offset="5.102040e-02" style="stop-color:#104666"/>
						<stop  offset="0.5942" style="stop-color:#EF7D8C"/>
						<stop  offset="0.9694" style="stop-color:#FACEBA"/>
					</linearGradient>
					<path id="XMLID_440_" class="st36" d="M104.2,294.6c-0.8-4.8-2.9-9.5-6.2-11.5c-1.9-1.1-3.7-1.2-5.4-0.6
						c2.1,3.3,2.2,8,2.6,11.7c2.1,21.4-0.2,42.6,1.7,63.7c2-0.1,3.9-0.3,5.8-0.4c-0.7,0,1.7-44.6,1.8-48.1
						C104.8,304.4,105,299.4,104.2,294.6z"/>
					
						<linearGradient id="XMLID_52_" gradientUnits="userSpaceOnUse" x1="26.1665" y1="71.7311" x2="102.6087" y2="71.7311" gradientTransform="matrix(1 0 0 -1 0 382)">
						<stop  offset="0" style="stop-color:#00394A"/>
						<stop  offset="0.3663" style="stop-color:#104666"/>
						<stop  offset="0.6573" style="stop-color:#EF7D8C"/>
						<stop  offset="0.9694" style="stop-color:#FACEBA"/>
					</linearGradient>
					<path id="XMLID_441_" class="st37" d="M68.6,331.2c-10.5,6.7-40.1,15.8-42.4-6.8c-0.5-4.6,1.4-9.2,4.3-12.5
						c3.4-3.9,7.4-5.5,11.6-7.7c4.7-2.4,9.1-5.6,13.8-8c9.5-4.8,19.4-8.6,29.3-12.4c4.3-1.7,9.3-3.3,13.1-0.6
						c4.3,2.9,5.1,9.9,3.3,15.1c-1.8,5.2-5.8,9.1-9.5,12.8C84.7,318.4,77.2,325.8,68.6,331.2z"/>
					<path id="XMLID_442_" class="st0" d="M81.6,363.4c-6,2.4-12.2,2.2-18.5,3.3c4.9-2.4,10.6-4.6,14.1-9.2
						c-6-7.2-11.2-15.6-18-21.9c-2.7-0.7-5.6-1-8.5-0.8c-25.2,1.4-34.4,32.9-34.4,32.9s6.3,9,38.3,8.6c6-0.1,11.1-0.4,15.5-1
						C74.2,371.4,78.2,367.7,81.6,363.4z"/>
					
						<linearGradient id="XMLID_53_" gradientUnits="userSpaceOnUse" x1="54.9356" y1="27.0061" x2="106.0889" y2="25.3621" gradientTransform="matrix(1 0 0 -1 0 382)">
						<stop  offset="5.102040e-02" style="stop-color:#104666"/>
						<stop  offset="0.4898" style="stop-color:#EF7D8C"/>
						<stop  offset="0.9694" style="stop-color:#FACEBA"/>
					</linearGradient>
					<path id="XMLID_443_" class="st38" d="M92.9,367.5c0-1.2-13.3-26.9-33.7-32c6.9,6.3,12,14.7,18,21.9c-3.5,4.6-9.2,6.8-14.1,9.2
						c6.2-1.1,12.5-0.8,18.5-3.3c-3.4,4.3-7.5,8-11.5,11.7C88.8,372.9,92.9,367.5,92.9,367.5z"/>
					
						<linearGradient id="XMLID_54_" gradientUnits="userSpaceOnUse" x1="116.5907" y1="19.8461" x2="148.7906" y2="19.8461" gradientTransform="matrix(1 0 0 -1 0 382)">
						<stop  offset="5.102040e-02" style="stop-color:#104666"/>
						<stop  offset="1" style="stop-color:#A2697E"/>
					</linearGradient>
					<path id="XMLID_444_" class="st39" d="M132.9,358.3c-0.8-0.5-1.5-1-1.8-1.8c-2.8-1.8-10-5.8-11.5-2.2c-1.8,4.4-3,17.1-3,17.1
						s6.4,0.4,9.7,0c3.3-0.4,8.5-1.5,15.2-2.2c3-0.3,5.6-0.7,7.3-1.2C146.7,362.4,138,361.5,132.9,358.3z"/>
					
						<linearGradient id="XMLID_55_" gradientUnits="userSpaceOnUse" x1="116.2265" y1="19.8647" x2="159.3823" y2="19.8647" gradientTransform="matrix(1 0 0 -1 0 382)">
						<stop  offset="5.102040e-02" style="stop-color:#104666"/>
						<stop  offset="0.4898" style="stop-color:#EF7D8C"/>
						<stop  offset="0.9694" style="stop-color:#FACEBA"/>
					</linearGradient>
					<path id="XMLID_445_" class="st40" d="M150.7,364.3c-1.8-3.3-16.5-6.3-18.5-7c0,0-0.4-0.3-1.1-0.7c0.3,0.8,1.1,1.3,1.8,1.8
						c5.1,3.2,13.7,4.1,15.8,9.5C150.8,367.1,151.7,366,150.7,364.3z"/>
					
						<linearGradient id="XMLID_56_" gradientUnits="userSpaceOnUse" x1="112.3116" y1="141.4182" x2="127.8981" y2="160.9778" gradientTransform="matrix(1 0 0 -1 0 382)">
						<stop  offset="5.102040e-02" style="stop-color:#104666"/>
						<stop  offset="0.4898" style="stop-color:#EF7D8C"/>
						<stop  offset="0.9694" style="stop-color:#FACEBA"/>
					</linearGradient>
					<path id="XMLID_446_" class="st41" d="M119,220.7c0,0,6.8,6.4,8.9,8.4s0.3,5.6-2.4,7.9c-2.8,2.4-6.1,2.9-7.8,2.2
						c-1.7-0.7-9.1-7.1-9-7.1C108.5,232.1,119,220.7,119,220.7z"/>
					
						<linearGradient id="XMLID_57_" gradientUnits="userSpaceOnUse" x1="107.8869" y1="149.7858" x2="124.539" y2="168.0668" gradientTransform="matrix(1 0 0 -1 0 382)">
						<stop  offset="5.102040e-02" style="stop-color:#104666"/>
						<stop  offset="1" style="stop-color:#A2697E"/>
					</linearGradient>
					<path id="XMLID_447_" class="st42" d="M116.6,229.7c-3.2,2.8-7.3,3.5-9,1.5c-1.8-2-0.5-5.9,2.7-8.8c3.2-2.8,7.3-3.5,9-1.5
						C121.1,223,119.9,226.9,116.6,229.7z"/>
					<path id="XMLID_611_" class="st43" d="M113.1,224.2c3.4,0.3,6.7,0.4,10.1,0.2c1.4-0.1,3.1-0.5,3.3-1.8c0.1-0.6-0.2-1.1-0.2-1.7
						c0-1.9,2.6-2.5,4.5-2.6c4.7-0.2,9.4-0.9,14-2.1c0.8-0.2,1.9-0.8,1.6-1.7c-0.1-0.4-0.6-0.6-0.9-1c-2-2.6,3-2.5,4-2.6
						c2.7-0.4,5.4-1.3,7.7-2.7c0.2-0.1,0.3-0.2,0.4-0.4c0.1-0.4-0.4-0.6-0.8-0.7c-4.5-0.6-9,0.4-13.4,0.1c-0.7,0-1.4-0.2-1.6-0.9
						c4-2.3,9-2.7,12.8-5.4c0.2-0.1,0.4-0.3,0.4-0.5c0.1-0.4-0.5-0.7-0.9-0.7c-5.8-0.9-11.8,0.2-17.6-0.6c0-0.3-0.1-0.6-0.1-0.9
						c-0.8,0.2-1.6,0.4-2.2,1c-0.6,0.5-0.9,1.5-0.5,2.2c0.4,0.7,1.3,1,2.2,1c1.1,0,5.2-0.1,4.3,2.2c-3,0.8-6,1.7-8.9,2.7
						c-1.1,0.4-2.5,1.4-2,2.5c0.2,0.5,0.7,0.7,1.1,1c1.3,0.7,2.6,1.4,3.9,2c0.5,0.3,1.1,0.7,1.1,1.3c0,0.6-0.6,1-1.1,1.2
						c-5.7,2.9-12.2,2.8-18.4,3.4c-2.5,0.3-5.5,0.4-7.7,1.6c-2.1,1.2-3.7,4.6,0,4.6c1,0,2-0.3,3,0"/>
					
						<linearGradient id="XMLID_58_" gradientUnits="userSpaceOnUse" x1="77.1348" y1="115.7524" x2="92.7789" y2="115.7524" gradientTransform="matrix(0.9981 6.193648e-02 6.193648e-02 -0.9981 31.8547 348.5613)">
						<stop  offset="0" style="stop-color:#EF7D8C"/>
						<stop  offset="0.3471" style="stop-color:#F29368"/>
						<stop  offset="1" style="stop-color:#FBF5BC"/>
					</linearGradient>
					<path id="XMLID_448_" class="st44" d="M129,233.5c-2.3-3.5-6.3-5.8-10.5-6c-2.3,3.4-3,7.8-1.7,11.7c1.3,4,7,12,12.1,9
						C133.1,245.9,131,236.7,129,233.5z"/>
					
						<linearGradient id="XMLID_59_" gradientUnits="userSpaceOnUse" x1="96.1439" y1="171.0223" x2="124.2768" y2="171.0223" gradientTransform="matrix(1 0 0 -1 0 382)">
						<stop  offset="0" style="stop-color:#EF7D8C"/>
						<stop  offset="0.3471" style="stop-color:#F29368"/>
						<stop  offset="1" style="stop-color:#FBF5BC"/>
					</linearGradient>
					<path id="XMLID_449_" class="st45" d="M119.7,203.7c-0.3-2.7-1-5.4-2-7.9c-1.5,6-1.7,12.3-6,17.8c-1.4,1.9,0.3,3.8,0.8,5.2
						c1,2.5,0.9,5,0.5,7.5c1.4-1.4,2.6-3,3.6-4.8C119.6,216.1,120.4,209.7,119.7,203.7z"/>
					
						<linearGradient id="XMLID_60_" gradientUnits="userSpaceOnUse" x1="89.2666" y1="173.6811" x2="137.8299" y2="173.6811" gradientTransform="matrix(1 0 0 -1 0 382)">
						<stop  offset="0" style="stop-color:#EF7D8C"/>
						<stop  offset="0.3471" style="stop-color:#F29368"/>
						<stop  offset="1" style="stop-color:#FBF5BC"/>
					</linearGradient>
					<path id="XMLID_450_" class="st46" d="M112.6,218.7c-0.5-1.4-2.2-3.3-0.8-5.2c4.2-5.5,4.5-11.8,6-17.8
						c-2.1-5.1-5.9-9.4-11.2-10.9c-7.4-2-15.2,2.7-19.4,9.1c-4.5,7-6.7,16.1-3.8,24.2c2.8,7.8,10.2,15.4,18.9,13.9
						c4.1-0.7,7.8-2.9,10.7-5.8C113.5,223.7,113.5,221.2,112.6,218.7z"/>
					
						<linearGradient id="XMLID_61_" gradientUnits="userSpaceOnUse" x1="104.5264" y1="178.6581" x2="144.2435" y2="181.6001" gradientTransform="matrix(1 0 0 -1 0 382)">
						<stop  offset="0" style="stop-color:#00394A"/>
						<stop  offset="0.3663" style="stop-color:#104666"/>
						<stop  offset="0.6573" style="stop-color:#EF7D8C"/>
						<stop  offset="0.9694" style="stop-color:#FACEBA"/>
					</linearGradient>
					<path id="XMLID_648_" class="st47" d="M117.2,196.5c0.6-6.2-3.1-11-8.1-14.1c-2.1-0.7-4.2-1.1-6.4-1.2
						c-3.4-0.2-7.2,0.2-10.3,1.9c-1.1,0.6-2.3,1.4-2.9,2.5c-0.2,0.4-0.5,2.8-0.6,2.8c0,0-12.3,7.8-9.8,18.4
						c2.5,10.6,4.8,17.6,4.8,17.6s8.4,3.8,10.1,1.7s10.7-6.3,10.7-6.3s-0.9-1.9-2-6.2c-1.1-4.3,2.2-7.9,4-6.8
						c2.3,1.3,0.2,5.4,2.4,6.8c0.7-3.4,1.8-6.8,4.6-9c0.5-0.4,1.1-0.8,1.6-1.2c1-3.1,2-6.2,4-9.1
						C118.5,195.1,117.7,195.7,117.2,196.5z"/>
					
						<linearGradient id="XMLID_62_" gradientUnits="userSpaceOnUse" x1="101.3699" y1="182.9343" x2="127.7959" y2="197.9574" gradientTransform="matrix(1 0 0 -1 0 382)">
						<stop  offset="5.102040e-02" style="stop-color:#104666"/>
						<stop  offset="0.4898" style="stop-color:#EF7D8C"/>
						<stop  offset="0.7806" style="stop-color:#F29368"/>
						<stop  offset="0.9694" style="stop-color:#FACEBA"/>
					</linearGradient>
					<path id="XMLID_649_" class="st48" d="M123.3,192.6c-0.8-1-2.2-0.6-3.1-1.3c-0.1-0.1-0.2-0.2-0.3-0.3c-0.6-0.6-0.5-1.1-1.1-1.8
						c-1.4-1.7-2.8-3.2-4.7-4.5c-1.5-1-3.2-1.8-5-2.4c5,3.1,8.7,7.9,8.1,14.1c0.5-0.8,1.4-1.4,2.2-2.2c-1.9,2.9-3,6-4,9.1
						c2.7-2,5-3.5,7.1-6.5C123.4,195.6,124.3,193.8,123.3,192.6z"/>
					
						<linearGradient id="XMLID_63_" gradientUnits="userSpaceOnUse" x1="123.251" y1="46.1516" x2="173.207" y2="79.4556" gradientTransform="matrix(1 0 0 -1 0 382)">
						<stop  offset="5.102040e-02" style="stop-color:#104666"/>
						<stop  offset="0.4898" style="stop-color:#EF7D8C"/>
						<stop  offset="0.7806" style="stop-color:#F29368"/>
						<stop  offset="0.9694" style="stop-color:#FACEBA"/>
					</linearGradient>
					<path id="XMLID_452_" class="st49" d="M124.2,310.8c-3.9,5.2-8.6,10-13.6,14.2c0.5-0.4,1.1-0.8,1.6-1.3
						c0.8,10.3,3,20.9,4.6,29.4c0.3,1.7,0.7,3.4,1.8,4.4c1,1,2.4,0.9,3.6,0.8c1.4-0.1,2.9-0.2,4.3-0.3c-0.9-13.1-1.7-26.4-1.7-39.4
						C125.1,315.9,124.8,313.5,124.2,310.8z"/>
					
						<linearGradient id="XMLID_64_" gradientUnits="userSpaceOnUse" x1="85.0557" y1="30.6675" x2="192.9317" y2="91.8455" gradientTransform="matrix(1 0 0 -1 0 382)">
						<stop  offset="5.102040e-02" style="stop-color:#104666"/>
						<stop  offset="0.4898" style="stop-color:#EF7D8C"/>
						<stop  offset="0.9694" style="stop-color:#FACEBA"/>
					</linearGradient>
					<path id="XMLID_453_" class="st50" d="M131.9,291.2c-11.7,12.5-26.5,21.8-42.4,28.3c11.7-2.4,23.1-4.9,34.5-8.7
						c0,0.2,0,0.2,0,0.4c0.1-0.1,0.2-0.2,0.3-0.4c0.5,2.7,0.8,5.2,0.5,7.9c0,13.1,0.8,26.3,1.7,39.4c2.2-0.1,4.5-0.3,6.7-0.4
						c-0.7,0,1.6-41.7,1.8-45.1c0.2-4.6,0.5-9.4-0.3-13.9C134.2,295.9,133.3,293.3,131.9,291.2z"/>
					
						<linearGradient id="XMLID_65_" gradientUnits="userSpaceOnUse" x1="71.968" y1="54.1534" x2="217.673" y2="126.1914" gradientTransform="matrix(1 0 0 -1 0 382)">
						<stop  offset="0" style="stop-color:#00394A"/>
						<stop  offset="0.3663" style="stop-color:#104666"/>
						<stop  offset="0.6573" style="stop-color:#EF7D8C"/>
						<stop  offset="0.9694" style="stop-color:#FACEBA"/>
					</linearGradient>
					<path id="XMLID_454_" class="st51" d="M131.9,291.2c-0.9-1.4-2-2.5-3.3-3.2c-0.8-0.5-1.6-0.7-2.4-0.9c-1-0.3-2-0.4-3.1-0.4
						C98.3,297.5,74.3,311,48.6,320c-1.8,2.8-2.8,6.1-2.4,9.3c2.6,22.6,36.3,13.5,48.3,6.8c5.7-3.2,11-7,16.2-11.1
						c4.9-4.1,9.4-8.7,13.3-13.8c0-0.1,0-0.2,0-0.4c-11.4,3.8-22.8,6.2-34.5,8.7C105.4,313,120.2,303.7,131.9,291.2z"/>
					
						<linearGradient id="XMLID_66_" gradientUnits="userSpaceOnUse" x1="59.2747" y1="74.1177" x2="180.3569" y2="95.4852" gradientTransform="matrix(1 0 0 -1 0 382)">
						<stop  offset="5.102040e-02" style="stop-color:#104666"/>
						<stop  offset="0.4898" style="stop-color:#EF7D8C"/>
						<stop  offset="0.7806" style="stop-color:#F29368"/>
						<stop  offset="0.9694" style="stop-color:#FACEBA"/>
					</linearGradient>
					<path id="XMLID_455_" class="st52" d="M113.5,288.7c-11.2,3.8-22.5,7.6-33.4,12.4c-5.4,2.4-10.4,5.6-15.8,8
						c-4.8,2.2-9.4,3.8-13.3,7.7c-0.9,1-1.8,2-2.5,3.2c25.7-9,49.7-22.4,74.6-33.3C120,286.6,116.6,287.6,113.5,288.7z"/>
					
						<linearGradient id="XMLID_67_" gradientUnits="userSpaceOnUse" x1="58.5051" y1="100.3729" x2="230.7186" y2="166.7495" gradientTransform="matrix(1 0 0 -1 0 382)">
						<stop  offset="0" style="stop-color:#00394A"/>
						<stop  offset="0.3663" style="stop-color:#104666"/>
						<stop  offset="0.6573" style="stop-color:#EF7D8C"/>
						<stop  offset="0.9694" style="stop-color:#FACEBA"/>
					</linearGradient>
					<path id="XMLID_456_" class="st53" d="M109.6,237c0,1.4-0.1,2.7-0.3,4c-0.8,6.2-2.9,12.3-4.7,18.4c-2.3,7.5-3.9,15.3-5.1,23.1
						c-0.6,4.1-1,8.2-1.3,12.4c-0.2,2.3-0.3,4.5-0.4,6.8c-0.3,3.9-0.7,7.9-1.8,11.6C93,323.4,85.4,329.7,75,330.5
						c-13,0.9-26.1-0.1-38.9-2.9c-6.2-1.4-14.4-4.5-15.2-11.8c-0.9-7.9,2.8-18.4,4.9-25.9c4.6-16.5,12-32.2,21.7-46.2
						c11.3-16.2,27.9-31.5,49.2-27.2C105.7,218.4,109.7,228.7,109.6,237z"/>
					
						<linearGradient id="XMLID_68_" gradientUnits="userSpaceOnUse" x1="59.9133" y1="92.7773" x2="137.5623" y2="122.4613" gradientTransform="matrix(1 0 0 -1 0 382)">
						<stop  offset="5.102040e-02" style="stop-color:#104666"/>
						<stop  offset="0.4898" style="stop-color:#EF7D8C"/>
						<stop  offset="0.9694" style="stop-color:#FACEBA"/>
					</linearGradient>
					<path id="XMLID_457_" class="st54" d="M109.3,241c-0.8,6.2-2.9,12.3-4.7,18.4c-2.3,7.5-3.9,15.3-5.1,23.1
						c-0.6,4.1-1,8.2-1.3,12.4c-0.2,2.3-0.3,4.5-0.4,6.8l-19.2,9.8L89,301.4c0,0-5.5-1.1-6.1-1.3s8.1-4.3,8.9-4.5
						s-15.9-10.2-15.9-10.2l4.5-4.5l-9.4-10.4C70.9,270.4,102.2,245.9,109.3,241z"/>
					
						<linearGradient id="XMLID_69_" gradientUnits="userSpaceOnUse" x1="115.551" y1="117.6816" x2="163.1342" y2="129.4427" gradientTransform="matrix(1 0 0 -1 0 382)">
						<stop  offset="5.102040e-02" style="stop-color:#104666"/>
						<stop  offset="0.4898" style="stop-color:#EF7D8C"/>
						<stop  offset="0.7806" style="stop-color:#F29368"/>
						<stop  offset="0.9694" style="stop-color:#FACEBA"/>
					</linearGradient>
					<path id="XMLID_458_" class="st55" d="M127,242.5c-1.9,0.4-3.8,0.8-5.8,1.2c0.6,9.8,0.4,19.7-0.5,29.5c1,2.8,2.3,5.5,4,7.9
						C126.1,268.3,126.5,255.4,127,242.5z"/>
					
						<linearGradient id="XMLID_70_" gradientUnits="userSpaceOnUse" x1="93.145" y1="158.4765" x2="102.5688" y2="160.8057" gradientTransform="matrix(1 0 0 -1 0 382)">
						<stop  offset="5.102040e-02" style="stop-color:#104666"/>
						<stop  offset="0.4898" style="stop-color:#EF7D8C"/>
						<stop  offset="0.7806" style="stop-color:#F29368"/>
						<stop  offset="0.9694" style="stop-color:#FACEBA"/>
					</linearGradient>
					<path id="XMLID_459_" class="st56" d="M98.7,222.4c-1.5-0.1-3.1,0.1-4.6,0.6C95.6,222.6,97.2,222.4,98.7,222.4z"/>
					
						<linearGradient id="XMLID_71_" gradientUnits="userSpaceOnUse" x1="79.5736" y1="123.5852" x2="145.0747" y2="139.7751" gradientTransform="matrix(1 0 0 -1 0 382)">
						<stop  offset="5.102040e-02" style="stop-color:#104666"/>
						<stop  offset="0.4898" style="stop-color:#EF7D8C"/>
						<stop  offset="0.9694" style="stop-color:#FACEBA"/>
					</linearGradient>
					<path id="XMLID_460_" class="st57" d="M97.1,233.7c5.2,11.9,8.7,23.9,14.9,35.3c2.5,4.6,6.2,10.3,11.6,10.4
						c-1.1-1.9-2-4-2.8-6.1c0,0,0,0.1,0,0.1c-3.9-12.5-8.2-24.8-13-37c-1.4-3.5-1.7-9.3-4.4-11.9c-1.3-1.3-3-1.9-4.8-2.1
						c-1.5-0.1-3.1,0.2-4.6,0.6c-1.4,0.5-2.7,1.2-3.7,2c-0.9,0.7-1.7,1.5-2.4,2.4C92,226.6,95.4,230,97.1,233.7z"/>
					
						<linearGradient id="XMLID_72_" gradientUnits="userSpaceOnUse" x1="98.3591" y1="120.0987" x2="139.9028" y2="129.8736" gradientTransform="matrix(1 0 0 -1 0 382)">
						<stop  offset="5.102040e-02" style="stop-color:#104666"/>
						<stop  offset="0.4898" style="stop-color:#EF7D8C"/>
						<stop  offset="0.9694" style="stop-color:#FACEBA"/>
					</linearGradient>
					<path id="XMLID_461_" class="st58" d="M135.1,276.8c-1.2-11.8-2.4-23.5-3.5-35.2c-1.5,0.3-3,0.7-4.5,1
						c-0.5,12.9-1,25.8-2.3,38.6c-0.4-0.6-0.8-1.2-1.2-1.8c-5.3-0.1-9-5.8-11.6-10.4c-6.2-11.4-9.8-23.3-14.9-35.3
						c-1.7-3.6-5.1-7.1-9.1-6.2c-1.2,1.6-2.2,3.4-2.8,5.3c-3.5,9.8,1.5,24.7,6.1,33.7c5.2,10.1,13.6,18.6,23.9,23.3
						c3,1.4,6.3,2.5,9.7,2.5c3.4-0.1,6.8-1.5,8.7-4.3C135.7,284.8,135.4,280.6,135.1,276.8z"/>
				</g>
			</g>
		</g>
		<g>
			<defs>
				<rect id="SVGID_65_" x="-0.1" y="-0.1" width="380.1" height="380.1"/>
			</defs>
			<clipPath id="SVGID_66_">
				<use xlink:href="#SVGID_65_"  style="overflow:visible;"/>
			</clipPath>
			<g id="XMLID_8_" class="st59">
				
					<linearGradient id="XMLID_73_" gradientUnits="userSpaceOnUse" x1="3382.6658" y1="298.7713" x2="3438.2415" y2="381.7689" gradientTransform="matrix(-1 0 0 -1 3462.2095 382)">
					<stop  offset="0" style="stop-color:#5A2731"/>
					<stop  offset="1" style="stop-color:#7F4F12"/>
				</linearGradient>
				<polygon id="XMLID_21_" class="st60" points="57.3,-8.3 37.6,54.7 25.4,60.7 41.4,22.3 				"/>
				<path id="XMLID_20_" class="st0" d="M21.3,66.4l-21.6,6.8V55.4l1.2-0.3C7.6,59.1,14.4,62.7,21.3,66.4z"/>
				<path id="XMLID_19_" class="st0" d="M85.4,35.7l28.8-34.5h6.1L99.1,31.9l27.3,0.8l14.4-25.8L134,29.6l46.8-12.9
					c0,0-51.4,24.3-53.6,25.8c-2.3,1.5-29.6,0-29.6,0L21.3,66.4c-6.9-3.7-13.7-7.4-20.4-11.3L85.4,35.7z"/>
				
					<linearGradient id="XMLID_74_" gradientUnits="userSpaceOnUse" x1="210.1405" y1="395.9579" x2="228.0585" y2="286.4132" gradientTransform="matrix(1 0 0 -1 0 382)">
					<stop  offset="5.102040e-02" style="stop-color:#104666"/>
					<stop  offset="1" style="stop-color:#A2697E"/>
				</linearGradient>
				<path id="XMLID_18_" class="st61" d="M154.4-29.3l108.5,13c-0.8,3.2-1,6.7-1.9,9.8c-2-2-4.3-4-5.8-6.8c-2.5,2.5-3.8,5.8-4.8,9.1
					c-3.5-3.8-8.6-5.3-12.7-8.3c-2.8,4-6.6,6.6-10.6,9.6c-1.8,1.3-2.3,4.8-3.5,4c-2.5-1.5-4.6-5-4.8-8.6c-2.3,2.5-5,4.3-7.8,6.6
					c-4.3,3.7-9.7,5.8-14,9.3c-0.1-2.3,0-4.2,0.1-5.2c-2.4,5.3-5.1,10.4-8,15.4l-6.7,1.5c-0.4-0.8-0.8-1.7-1.2-2.5
					C172.9,1.1,164.8-14.8,154.4-29.3z"/>
				
					<linearGradient id="XMLID_75_" gradientUnits="userSpaceOnUse" x1="143.1273" y1="368.8045" x2="152.4936" y2="300.39" gradientTransform="matrix(1 0 0 -1 0 382)">
					<stop  offset="5.102040e-02" style="stop-color:#104666"/>
					<stop  offset="1" style="stop-color:#A2697E"/>
				</linearGradient>
				<path id="XMLID_17_" class="st62" d="M114.2-22l6.8-11.4l33.4,4c10.4,14.6,18.5,30.4,26.7,46.8c0.4,0.8,0.8,1.7,1.2,2.5
					l-10.5,2.3v9.6l-8.3,3.8l-18.2-3.8l-6.1-9.6l-5.3,7.3L123.3,16l-9.1-9.1l-11.4-8.8L114.2-22z"/>
				<path id="XMLID_16_" class="st0" d="M218.8-7.6C219-4,221-0.5,223.6,1c1.3,0.8,1.8-2.8,3.5-4c4-3,7.8-5.6,10.6-9.6
					c4,3,9.1,4.6,12.7,8.3c1-3.3,2.3-6.6,4.8-9.1c1.5,2.8,3.8,4.8,5.8,6.8c0.9-3.1,1.1-6.6,1.9-9.8l16.7,2l3,10.6l-7.6,5.3v8.7
					h-10.6l-7.6-4.9l-3.7,6.5c-4.5-3.1-9-6-13.7-8.7c-0.2,3.4,0,6.9,0.6,10.3l-12.8-3.1l-7.6,12l6.1,3.5l-12.1,6.1l-5.3-9.6
					L197.8,25c-0.2-2.5-0.7-10.9-0.8-16.7c4.3-3.5,9.8-5.6,14-9.3C213.7-3.2,216.5-5,218.8-7.6z"/>
				
					<linearGradient id="XMLID_76_" gradientUnits="userSpaceOnUse" x1="3286.1265" y1="344.2765" x2="3368.1201" y2="466.7276" gradientTransform="matrix(-1 0 0 -1 3462.2095 382)">
					<stop  offset="5.102040e-02" style="stop-color:#104666"/>
					<stop  offset="1" style="stop-color:#A2697E"/>
				</linearGradient>
				<path id="XMLID_15_" class="st63" d="M173.8-7.3c-3.3-2.8-8.1-4.3-9.9-8.3c-5.3,3.8-10.6,7.1-15.2,11.9
					c-6.3-1.3-12.4-3.5-19-4.6c-0.2,3.3-0.8,6.8-0.5,10.1c-7.3-0.2-14.7-1.3-22-1c-4-9.9-5.2-20.4-7.2-30.7l79,6.1
					c-1.6,6-2.4,12.1-5,17.8C174-6.5,174-7.1,173.8-7.3z"/>
				<path id="XMLID_14_" class="st0" d="M55.8-33.3l44.3,3.4c2,10.3,3.2,20.8,7.2,30.7c7.3-0.2,14.7,0.8,22,1
					c-0.2-3.3,0.2-6.8,0.5-10.1c6.6,1,12.7,3.3,19,4.6c4.6-4.8,9.9-8.1,15.2-11.9c1.8,4,6.6,5.6,9.9,8.3c0.2,0.2,0.2,0.8,0.2,1.3
					c2.6-5.7,3.4-11.9,5-17.8l24.7,1.9l4.6,15.2L198.4-3h-11.4v6.1v7.2h-12.9v-8l-9.1,8l-8.4-8v11.4l-11.4-3.4l3,12l-10.6,3.5
					l-14.4-3.5v-12l-9.1,7.2l-3.8,8.3h-6.5c0.2-4.4,0.1-8.9-0.2-13.2c-3.1,1.7-6,3.6-9,5.1l-2.4-3.3l-12.1,2.3l-9.1-3L64.9,0.8
					L55,1.9l-3-13.3L55.8-33.3z"/>
				
					<linearGradient id="XMLID_77_" gradientUnits="userSpaceOnUse" x1="26.2622" y1="386.3429" x2="33.1851" y2="319.5572" gradientTransform="matrix(1 0 0 -1 0 382)">
					<stop  offset="5.102040e-02" style="stop-color:#104666"/>
					<stop  offset="1" style="stop-color:#A2697E"/>
				</linearGradient>
				<path id="XMLID_13_" class="st64" d="M17,18.2c1.5-4.3,3.3-8.3,4.6-12.6c2.3,3.8,2.8,8.1,4.3,12.1c7.1-8.3,16.4-14.2,26-19.2
					c3,3.3,6.5,6.1,10.1,8.5l-2.4,5.2l3.8,10.1L51.2,19v16.7l-20.5-6.1L17.8,42.5H3.7l-7.5-3.4c5.5-8.7,9-19.5,12.2-29.2
					C10.9,13.2,14.7,14.9,17,18.2z"/>
				<path id="XMLID_12_" class="st0" d="M-14-22h128.2L101,1.3c-4.2-3.3-9-6-13-9.4c0,4.1,1.5,8.3,2.9,12.2L75.5,0L64.9,0.8L62,7
					c-3.7-2.4-7.1-5.2-10.1-8.5c-9.6,5-19,10.9-26,19.2c-1.5-4-2-8.3-4.3-12.1c-1.3,4.3-3,8.3-4.6,12.6c-2.3-3.3-6.1-5-8.6-8.3
					C5.2,19.6,1.7,30.4-3.8,39.1l-14-6.4L-14-22z"/>
				
					<linearGradient id="XMLID_78_" gradientUnits="userSpaceOnUse" x1="116.1806" y1="359.7371" x2="132.877" y2="256.708" gradientTransform="matrix(1 0 0 -1 0 382)">
					<stop  offset="5.102040e-02" style="stop-color:#104666"/>
					<stop  offset="1" style="stop-color:#A2697E"/>
				</linearGradient>
				<path id="XMLID_11_" class="st65" d="M110.8,57.2c2.3-3.5,3.5-7.3,4.6-11.4c4.8,4.8,9.4,9.9,13.7,15.2
					c9.2-3.5,18.7-5.7,27.9-8.7l7.2,7.8l-5.8,6.1l-15.9,3.4l0.8,10.3l-16.7-3l-12.9,3l-10.6-15.2l-5.3-4.6L93,69.5H82.4
					c-1.1-4.9-2.1-9.6-2.5-14.4c7.4-3.4,14.2-7.6,21.7-10.8C104.5,48.8,108,52.6,110.8,57.2z"/>
				
					<linearGradient id="XMLID_79_" gradientUnits="userSpaceOnUse" x1="39.7855" y1="356.5401" x2="61.3687" y2="281.2026" gradientTransform="matrix(1 0 0 -1 0 382)">
					<stop  offset="5.102040e-02" style="stop-color:#104666"/>
					<stop  offset="1" style="stop-color:#A2697E"/>
				</linearGradient>
				<path id="XMLID_10_" class="st66" d="M48.6,47.8c5-2.5,8.3-7.1,10.9-11.9c2.3,5.3,3.8,10.9,6.8,15.9c1.5-4,3.5-7.6,5-11.6
					c0.4,5.8,2,11.4,4.1,16.9c-1.4,3.6-2.3,7.3-2.8,11.1l-5.5-8.1L61,64.7l-2.3-7.6h-7.6l-15.9,5.3L20.9,50.9l-4.6-12.1l6.6-4.4
					C31.6,38.6,39.9,43.7,48.6,47.8z"/>
				<path id="XMLID_9_" class="st0" d="M66.3,51.9c-3-5-4.6-10.6-6.8-15.9c-2.5,4.8-5.8,9.4-10.9,11.9c-8.6-4.1-17-9.2-25.7-13.4
					l12.4-8.2L49.7,35l4.6-3l19.2-5.8l6.6,7.2h11.4h6.1c3,6,12.1,0,12.1,0h11.5l4.5,9.9l25.8,3l5.5,5.9c-9.2,3-18.7,5.2-27.9,8.7
					c-4.3-5.3-8.9-10.4-13.7-15.2c-1,4-2.3,7.8-4.6,11.4c-2.8-4.6-6.3-8.3-9.1-12.9C94.2,47.4,87.4,51.6,80,55
					c-0.1-1.6-0.1-3.3,0-4.9c0-0.2-0.5-0.5-0.8-0.8c-1.5,2.5-2.7,5.1-3.7,7.7c-2.1-5.4-3.7-11.1-4.1-16.9
					C69.8,44.3,67.8,47.8,66.3,51.9z"/>
			</g>
		</g>
	</g>
</g>
</svg>
