<?xml version="1.0" encoding="utf-8"?>
<!-- Generator: Adobe Illustrator 22.0.1, SVG Export Plug-In . SVG Version: 6.00 Build 0)  -->
<svg version="1.1" id="Calque_1" xmlns="http://www.w3.org/2000/svg" xmlns:xlink="http://www.w3.org/1999/xlink" x="0px" y="0px"
	 viewBox="0 0 100 100" style="enable-background:new 0 0 100 100;" xml:space="preserve">
<style type="text/css">
	.st0{opacity:0.84;}
	.st1{opacity:0.5;fill:#FDDB36;}
	.st2{opacity:0.5;fill:#F3A175;}
	.st3{opacity:0.5;fill:#7B9A89;}
	.st4{fill:#7B9A89;}
	.st5{fill:#FFFFFF;}
	.st6{fill:#E8BC9C;stroke:#4A161A;stroke-width:1.048;stroke-linejoin:round;stroke-miterlimit:10;}
	.st7{fill:#595B64;stroke:#4A161A;stroke-width:1.048;stroke-linecap:round;stroke-linejoin:round;stroke-miterlimit:10;}
	.st8{fill:#ECF0FA;stroke:#4A161A;stroke-width:1.048;stroke-linecap:round;stroke-linejoin:round;stroke-miterlimit:10;}
	.st9{fill:#EB5D6D;stroke:#4A161A;stroke-width:1.048;stroke-linecap:round;stroke-linejoin:round;stroke-miterlimit:10;}
	.st10{fill:#F6D55D;stroke:#4A161A;stroke-width:1.048;stroke-linecap:round;stroke-linejoin:round;stroke-miterlimit:10;}
	.st11{fill:#93C67D;stroke:#4A161A;stroke-width:1.048;stroke-linecap:round;stroke-linejoin:round;stroke-miterlimit:10;}
	.st12{fill:#63C5F1;stroke:#4A161A;stroke-width:1.048;stroke-linecap:round;stroke-linejoin:round;stroke-miterlimit:10;}
	.st13{fill:#383A41;stroke:#4A161A;stroke-width:1.048;stroke-linecap:round;stroke-linejoin:round;stroke-miterlimit:10;}
	.st14{fill:#D6DDF1;stroke:#4A161A;stroke-width:1.048;stroke-linecap:round;stroke-linejoin:round;stroke-miterlimit:10;}
	.st15{fill:none;stroke:#4A161A;stroke-width:1.048;stroke-linecap:round;stroke-linejoin:round;stroke-miterlimit:10;}
	.st16{fill:#F4A275;stroke:#F4A275;stroke-width:0.25;stroke-miterlimit:10;}
	.st17{font-family:'Montserrat-Black';}
	.st18{font-size:8.3447px;}
	.st19{fill:#7B9A89;stroke:#7B9A89;stroke-width:0.25;stroke-miterlimit:10;}
	.st20{fill:url(#SVGID_1_);}
	.st21{fill:url(#SVGID_2_);}
	.st22{opacity:0.8;}
	.st23{fill:url(#SVGID_3_);}
	.st24{fill:url(#SVGID_4_);}
	.st25{opacity:0.2;}
	.st26{fill:url(#SVGID_5_);}
	.st27{fill:url(#SVGID_6_);}
	.st28{opacity:0.5;}
	.st29{fill:url(#SVGID_7_);}
	.st30{fill:url(#SVGID_8_);}
	.st31{fill:url(#SVGID_9_);}
	.st32{opacity:5.000000e-02;fill:url(#SVGID_10_);}
	.st33{opacity:0.1;fill:url(#SVGID_11_);}
	.st34{opacity:0.15;fill:url(#SVGID_12_);}
	.st35{opacity:0.1;fill:url(#SVGID_13_);}
	.st36{opacity:8.000000e-02;fill:url(#SVGID_14_);}
</style>
<g class="st0">
	<circle class="st1" cx="67.9" cy="33.7" r="30.9"/>
	<circle class="st2" cx="31.9" cy="45.1" r="30.9"/>
	<circle class="st3" cx="62.9" cy="66.3" r="30.9"/>
</g>
<g>
	<path class="st4" d="M78.5,18.1c-1.5-2.1-3.9-3.3-6.5-2.9L65.8,16c-0.7-1.3-2.2-2.1-3.7-1.9l-39.7,5.8c-2,0.3-3.4,2.3-3.1,4.4
		l0.4,3.2c-1.2,0.9-2.2,2.1-2.8,3.5c-2.3,1.5-3.6,4.3-3.2,7.2l0.1,0.5c0.1,0.7,0.3,1.4,0.5,2c-2.7,7.7-5.9,19.9-3.3,30.6
		c1.6,6.5,5,8.6,7.6,9.3c1,0.2,2.1,0.3,3.1,0.1c1.1-0.2,2.5-0.6,4-1.7c0.2,0.1,0.5,0.2,0.8,0.3l0.4,3.4c0.3,2.1,2.1,3.6,4.2,3.3
		l53.7-7.8c2-0.3,3.4-2.3,3.1-4.4l-0.4-3.4c2.7-2.2,4.3-5.8,3.8-9.7l-4.4-33.9C86.2,22.2,82.7,18.7,78.5,18.1z"/>
	<path class="st5" d="M79.3,17.2c-1.3-2.2-3.8-3.5-6.4-3.3l-6.2,0.5c-0.7-1.4-2.1-2.2-3.6-2.1l-39.9,3.5c-2,0.2-3.5,2.1-3.4,4.2
		l0.3,3.3c-1.2,0.9-2.3,2-3,3.4c-2.3,1.3-3.8,4.1-3.6,7l0,0.5c0.1,0.7,0.2,1.4,0.4,2C10.8,43.7,7,55.8,9.1,66.5
		c1.3,6.6,4.6,8.9,7.1,9.7c1,0.3,2,0.4,3.1,0.3c1.1-0.1,2.6-0.5,4.1-1.5c0.2,0.1,0.5,0.3,0.7,0.4l0.3,3.4c0.2,2.1,1.9,3.7,4,3.6
		l54-4.7c2-0.2,3.5-2.1,3.4-4.2l-0.3-3.4c2.8-2,4.6-5.6,4.3-9.4l-2.7-34.1C86.8,21.8,83.5,18.1,79.3,17.2z"/>
	<g>
		<path class="st6" d="M18.9,71.3c-0.5,0-1,0-1.3-0.1c-1.8-0.6-3-2.5-3.6-5.7c-2.7-13.8,6.4-31.3,6.7-32c0.4-0.7,1.1-1,1.8-0.8
			c0,0,0.1,0,0.1,0c0.8-0.3,1.8,0.2,2,1.1c5.2,17,1.7,31.2-2.5,35.8C20.9,70.8,19.8,71.2,18.9,71.3z M22.4,37.6
			c-2.3,5.2-7.1,17.5-5.2,27.2c0.4,2.2,1.1,3,1.4,3.1c0.2,0.1,0.7-0.2,1.3-0.8C23.1,63.5,26,51.9,22.4,37.6z"/>
	</g>
	<path class="st7" d="M24.6,33.2c0.1,1.1-0.7,2.1-1.8,2.2l-2.2,0.2c-1.1,0.1-2-0.7-2.1-1.9l0-0.5c-0.1-1.1,0.7-2.1,1.8-2.2l2.2-0.2
		c1.1-0.1,2,0.7,2.1,1.9L24.6,33.2z"/>
	<path class="st7" d="M76.1,30.2c0.1,1.1-0.7,2.1-1.8,2.2l-7,0.6c-1.1,0.1-2-0.7-2.1-1.9L64.5,22c-0.1-1.1,0.7-2.1,1.8-2.2l7-0.6
		c1.1-0.1,2,0.7,2.1,1.9L76.1,30.2z"/>
	<path class="st8" d="M84.8,61.1c0.2,2.8-1.8,5.3-4.4,5.5l-51.8,4.5c-2.7,0.2-5-1.9-5.2-4.7l-2.7-34.1c-0.2-2.8,1.8-5.3,4.4-5.5
		L77,22.3c2.7-0.2,5,1.9,5.2,4.7L84.8,61.1z"/>
	<polygon class="st9" points="51.1,43.4 21.8,45.9 21.5,41.7 50.8,39.2 	"/>
	<polygon class="st10" points="51.4,47.5 22.1,50.1 21.8,45.9 51.1,43.4 	"/>
	<polygon class="st11" points="51.7,51.7 22.4,54.3 22.1,50.1 51.4,47.5 	"/>
	<polygon class="st12" points="52.1,55.9 22.8,58.5 22.4,54.3 51.7,51.7 	"/>
	<path class="st7" d="M74.7,44.8c0.7,9.2-5.7,17.3-14.5,18c-8.7,0.8-16.3-6.1-17.1-15.3c-0.7-9.2,5.7-17.3,14.5-18
		C66.3,28.7,73.9,35.6,74.7,44.8z"/>
	<path class="st13" d="M67.1,45.4c0.4,4.8-3,9-7.5,9.4c-4.5,0.4-8.5-3.2-8.9-8c-0.4-4.8,3-9,7.5-9.4C62.8,37.1,66.8,40.6,67.1,45.4z
		"/>
	<path class="st14" d="M68,40.6c0.2,2.1-1.3,4-3.3,4.2c-2,0.2-3.8-1.4-3.9-3.5c-0.2-2.1,1.3-4,3.3-4.2C66.1,36.9,67.9,38.5,68,40.6z
		"/>
	<path class="st9" d="M33.8,32.9c0.1,1.1-0.7,2.1-1.7,2.1l-4.1,0.4c-1,0.1-1.9-0.7-2-1.8l0,0c-0.1-1.1,0.7-2.1,1.7-2.1l4.1-0.4
		C32.8,30.9,33.7,31.8,33.8,32.9L33.8,32.9z"/>
	<path class="st7" d="M77.2,35.4c-1,0.1-1.9-0.7-2-1.8l-0.3-4.4c-0.1-1.1,0.7-2.1,1.7-2.1l0,0c1-0.1,1.9,0.7,2,1.8l0.3,4.4
		C79,34.4,78.3,35.3,77.2,35.4L77.2,35.4z"/>
	<path class="st15" d="M18.4,67.8c0.9,1.1,3.6,1.3,4.8,0.2"/>
	<g>
		<text transform="matrix(0.9436 -8.261304e-02 7.819001e-02 0.9969 30.3031 24.1133)" class="st16 st17 st18">TRAVEL</text>
	</g>
	<g>
		<text transform="matrix(0.9436 -8.261304e-02 7.819001e-02 0.9969 34.8744 79.2761)" class="st19 st17 st18">ADVENTURE</text>
	</g>
</g>
<g>
	<g>
		<g>
			
				<radialGradient id="SVGID_1_" cx="40.9159" cy="62.9169" r="15.0457" gradientTransform="matrix(0.9979 -6.440000e-02 6.440000e-02 0.9979 13.752 -15.1521)" gradientUnits="userSpaceOnUse">
				<stop  offset="0" style="stop-color:#FFFFFF"/>
				<stop  offset="1.783687e-02" style="stop-color:#F6F5F6;stop-opacity:0.9822"/>
				<stop  offset="0.232" style="stop-color:#969397;stop-opacity:0.768"/>
				<stop  offset="0.4336" style="stop-color:#555359;stop-opacity:0.5664"/>
				<stop  offset="0.6168" style="stop-color:#2C2C31;stop-opacity:0.3832"/>
				<stop  offset="0.7781" style="stop-color:#131418;stop-opacity:0.2219"/>
				<stop  offset="0.9114" style="stop-color:#040507;stop-opacity:8.864719e-02"/>
				<stop  offset="1" style="stop-color:#020203;stop-opacity:0"/>
			</radialGradient>
			<circle class="st20" cx="58.6" cy="45" r="15"/>
			
				<radialGradient id="SVGID_2_" cx="40.9159" cy="62.9169" r="27.0696" gradientTransform="matrix(0.9979 -6.440000e-02 6.440000e-02 0.9979 13.752 -15.1521)" gradientUnits="userSpaceOnUse">
				<stop  offset="0" style="stop-color:#FFFFFF"/>
				<stop  offset="1.783687e-02" style="stop-color:#F6F5F6;stop-opacity:0.9822"/>
				<stop  offset="0.232" style="stop-color:#969397;stop-opacity:0.768"/>
				<stop  offset="0.4336" style="stop-color:#555359;stop-opacity:0.5664"/>
				<stop  offset="0.6168" style="stop-color:#2C2C31;stop-opacity:0.3832"/>
				<stop  offset="0.7781" style="stop-color:#131418;stop-opacity:0.2219"/>
				<stop  offset="0.9114" style="stop-color:#040507;stop-opacity:8.864719e-02"/>
				<stop  offset="1" style="stop-color:#020203;stop-opacity:0"/>
			</radialGradient>
			<circle class="st21" cx="58.6" cy="45" r="27.1"/>
		</g>
		<g class="st22">
			
				<radialGradient id="SVGID_3_" cx="2633.7036" cy="-118.8766" r="10.7721" gradientTransform="matrix(0.1146 0.1044 -2.3456 2.5749 -522.133 76.5738)" gradientUnits="userSpaceOnUse">
				<stop  offset="0" style="stop-color:#FFFFFF"/>
				<stop  offset="0.1364" style="stop-color:#FAF9FA;stop-opacity:0.8636"/>
				<stop  offset="0.265" style="stop-color:#E9E8EA;stop-opacity:0.735"/>
				<stop  offset="0.3906" style="stop-color:#CECCCF;stop-opacity:0.6094"/>
				<stop  offset="0.5143" style="stop-color:#ABA8AC;stop-opacity:0.4857"/>
				<stop  offset="0.6367" style="stop-color:#817F84;stop-opacity:0.3633"/>
				<stop  offset="0.7581" style="stop-color:#565359;stop-opacity:0.2419"/>
				<stop  offset="0.8787" style="stop-color:#2A2A2F;stop-opacity:0.1213"/>
				<stop  offset="0.9958" style="stop-color:#020304;stop-opacity:4.151881e-03"/>
				<stop  offset="1" style="stop-color:#020203;stop-opacity:0"/>
			</radialGradient>
			<path class="st23" d="M83.8,17.7C83.1,17.1,71.2,29,57.3,44.3s-24.7,28.2-24,28.9c0.7,0.6,12.5-11.3,26.5-26.6
				C73.7,31.2,84.5,18.3,83.8,17.7z"/>
			
				<radialGradient id="SVGID_4_" cx="-858.5992" cy="-147.0161" r="10.7733" gradientTransform="matrix(-0.113 0.1241 -2.5749 -2.3456 -416.9335 -193.4033)" gradientUnits="userSpaceOnUse">
				<stop  offset="0" style="stop-color:#FFFFFF"/>
				<stop  offset="0.1364" style="stop-color:#FAF9FA;stop-opacity:0.8636"/>
				<stop  offset="0.265" style="stop-color:#E9E8EA;stop-opacity:0.735"/>
				<stop  offset="0.3906" style="stop-color:#CECCCF;stop-opacity:0.6094"/>
				<stop  offset="0.5143" style="stop-color:#ABA8AC;stop-opacity:0.4857"/>
				<stop  offset="0.6367" style="stop-color:#817F84;stop-opacity:0.3633"/>
				<stop  offset="0.7581" style="stop-color:#565359;stop-opacity:0.2419"/>
				<stop  offset="0.8787" style="stop-color:#2A2A2F;stop-opacity:0.1213"/>
				<stop  offset="0.9958" style="stop-color:#020304;stop-opacity:4.151881e-03"/>
				<stop  offset="1" style="stop-color:#020203;stop-opacity:0"/>
			</radialGradient>
			<path class="st24" d="M86.4,70.2c0.7-0.7-11.2-12.7-26.5-26.6c-15.3-14-28.3-24.7-29-23.9c-0.7,0.7,11.2,12.7,26.5,26.6
				C72.7,60.2,85.7,70.9,86.4,70.2z"/>
		</g>
		<g class="st25">
			
				<radialGradient id="SVGID_5_" cx="3303.9026" cy="-137.9108" r="6.0037" gradientTransform="matrix(4.600000e-03 9.850000e-02 -3.4793 0.1621 -436.3972 -258.0814)" gradientUnits="userSpaceOnUse">
				<stop  offset="0" style="stop-color:#FFFFFF"/>
				<stop  offset="0.1364" style="stop-color:#FAF9FA;stop-opacity:0.8636"/>
				<stop  offset="0.265" style="stop-color:#E9E8EA;stop-opacity:0.735"/>
				<stop  offset="0.3906" style="stop-color:#CECCCF;stop-opacity:0.6094"/>
				<stop  offset="0.5143" style="stop-color:#ABA8AC;stop-opacity:0.4857"/>
				<stop  offset="0.6367" style="stop-color:#817F84;stop-opacity:0.3633"/>
				<stop  offset="0.7581" style="stop-color:#565359;stop-opacity:0.2419"/>
				<stop  offset="0.8787" style="stop-color:#2A2A2F;stop-opacity:0.1213"/>
				<stop  offset="0.9958" style="stop-color:#020304;stop-opacity:4.151881e-03"/>
				<stop  offset="1" style="stop-color:#020203;stop-opacity:0"/>
			</radialGradient>
			<path class="st26" d="M79.5,44c0-0.3-9.4-0.2-20.9,0.4c-11.5,0.5-20.9,1.2-20.9,1.6c0,0.3,9.4,0.2,20.9-0.4
				C70.2,45.1,79.5,44.4,79.5,44z"/>
			
				<radialGradient id="SVGID_6_" cx="-1322.5717" cy="-129.955" r="6.0037" gradientTransform="matrix(-9.850000e-02 4.600000e-03 -0.1621 -3.4793 -92.7052 -401.0709)" gradientUnits="userSpaceOnUse">
				<stop  offset="0" style="stop-color:#FFFFFF"/>
				<stop  offset="0.1364" style="stop-color:#FAF9FA;stop-opacity:0.8636"/>
				<stop  offset="0.265" style="stop-color:#E9E8EA;stop-opacity:0.735"/>
				<stop  offset="0.3906" style="stop-color:#CECCCF;stop-opacity:0.6094"/>
				<stop  offset="0.5143" style="stop-color:#ABA8AC;stop-opacity:0.4857"/>
				<stop  offset="0.6367" style="stop-color:#817F84;stop-opacity:0.3633"/>
				<stop  offset="0.7581" style="stop-color:#565359;stop-opacity:0.2419"/>
				<stop  offset="0.8787" style="stop-color:#2A2A2F;stop-opacity:0.1213"/>
				<stop  offset="0.9958" style="stop-color:#020304;stop-opacity:4.151881e-03"/>
				<stop  offset="1" style="stop-color:#020203;stop-opacity:0"/>
			</radialGradient>
			<path class="st27" d="M59.6,65.9c0.3,0,0.2-9.4-0.4-20.9c-0.5-11.5-1.2-20.9-1.6-20.9S57.5,33.5,58,45
				C58.6,56.6,59.3,65.9,59.6,65.9z"/>
		</g>
		<g class="st28">
			
				<radialGradient id="SVGID_7_" cx="3085.1895" cy="-140.2357" r="7.6111" gradientTransform="matrix(-1.510000e-02 9.740000e-02 -3.4419 -0.5342 -377.4571 -330.4137)" gradientUnits="userSpaceOnUse">
				<stop  offset="0" style="stop-color:#FFFFFF"/>
				<stop  offset="0.1364" style="stop-color:#FAF9FA;stop-opacity:0.8636"/>
				<stop  offset="0.265" style="stop-color:#E9E8EA;stop-opacity:0.735"/>
				<stop  offset="0.3906" style="stop-color:#CECCCF;stop-opacity:0.6094"/>
				<stop  offset="0.5143" style="stop-color:#ABA8AC;stop-opacity:0.4857"/>
				<stop  offset="0.6367" style="stop-color:#817F84;stop-opacity:0.3633"/>
				<stop  offset="0.7581" style="stop-color:#565359;stop-opacity:0.2419"/>
				<stop  offset="0.8787" style="stop-color:#2A2A2F;stop-opacity:0.1213"/>
				<stop  offset="0.9958" style="stop-color:#020304;stop-opacity:4.151881e-03"/>
				<stop  offset="1" style="stop-color:#020203;stop-opacity:0"/>
			</radialGradient>
			<path class="st29" d="M84.8,49.1c0.1-0.4-11.6-2.6-26.1-4.8c-14.5-2.2-26.2-3.7-26.3-3.3c-0.1,0.4,11.6,2.6,26.1,4.8
				S84.8,49.5,84.8,49.1z"/>
			
				<radialGradient id="SVGID_8_" cx="-1401.0715" cy="-123.7308" r="7.6111" gradientTransform="matrix(-9.740000e-02 -1.510000e-02 0.5342 -3.4419 -11.7336 -402.0274)" gradientUnits="userSpaceOnUse">
				<stop  offset="0" style="stop-color:#FFFFFF"/>
				<stop  offset="0.1364" style="stop-color:#FAF9FA;stop-opacity:0.8636"/>
				<stop  offset="0.265" style="stop-color:#E9E8EA;stop-opacity:0.735"/>
				<stop  offset="0.3906" style="stop-color:#CECCCF;stop-opacity:0.6094"/>
				<stop  offset="0.5143" style="stop-color:#ABA8AC;stop-opacity:0.4857"/>
				<stop  offset="0.6367" style="stop-color:#817F84;stop-opacity:0.3633"/>
				<stop  offset="0.7581" style="stop-color:#565359;stop-opacity:0.2419"/>
				<stop  offset="0.8787" style="stop-color:#2A2A2F;stop-opacity:0.1213"/>
				<stop  offset="0.9958" style="stop-color:#020304;stop-opacity:4.151881e-03"/>
				<stop  offset="1" style="stop-color:#020203;stop-opacity:0"/>
			</radialGradient>
			<path class="st30" d="M54.6,71.2c0.4,0.1,2.6-11.6,4.8-26.1c2.2-14.5,3.7-26.2,3.3-26.3c-0.4-0.1-2.6,11.6-4.8,26.1
				C55.6,59.3,54.2,71.1,54.6,71.2z"/>
		</g>
		<g>
			
				<radialGradient id="SVGID_9_" cx="363.1755" cy="-118.6099" r="9.1448" gradientTransform="matrix(0.7671 0.6741 -0.6601 0.7512 -298.2976 -111.4179)" gradientUnits="userSpaceOnUse">
				<stop  offset="0" style="stop-color:#FFFFFF"/>
				<stop  offset="8.640192e-02" style="stop-color:#F8F7F8;stop-opacity:0.8962"/>
				<stop  offset="0.1913" style="stop-color:#E2E0E3;stop-opacity:0.7702"/>
				<stop  offset="0.3058" style="stop-color:#C0BEC1;stop-opacity:0.6327"/>
				<stop  offset="0.4272" style="stop-color:#959297;stop-opacity:0.4868"/>
				<stop  offset="0.554" style="stop-color:#646167;stop-opacity:0.3345"/>
				<stop  offset="0.6855" style="stop-color:#333237;stop-opacity:0.1766"/>
				<stop  offset="0.8183" style="stop-color:#040507;stop-opacity:1.704884e-02"/>
				<stop  offset="0.8325" style="stop-color:#020203;stop-opacity:0"/>
			</radialGradient>
			<path class="st31" d="M64.6,37.4c-3.9-3.4-9.7-3.1-13.1,0.7c-3.3,3.8-2.9,9.6,1,13c3.9,3.4,9.7,3.1,13.1-0.7
				C68.9,46.7,68.5,40.8,64.6,37.4z"/>
		</g>
	</g>
	<g>
		
			<radialGradient id="SVGID_10_" cx="50.282" cy="23.6792" r="17.5672" gradientTransform="matrix(0.9956 -9.410000e-02 9.410000e-02 0.9956 25.9867 5.2397)" gradientUnits="userSpaceOnUse">
			<stop  offset="0" style="stop-color:#FFFFFF;stop-opacity:0"/>
			<stop  offset="0.4188" style="stop-color:#FFFFFF;stop-opacity:0.8587"/>
			<stop  offset="0.4877" style="stop-color:#FFFFFF"/>
			<stop  offset="0.5601" style="stop-color:#FFFFFF;stop-opacity:0.8587"/>
			<stop  offset="1" style="stop-color:#FFFFFF;stop-opacity:0"/>
		</radialGradient>
		<circle class="st32" cx="78.3" cy="24.1" r="14.3"/>
		
			<radialGradient id="SVGID_11_" cx="1.6634" cy="69.1847" r="14.0298" gradientTransform="matrix(0.9895 -0.1445 0.1445 0.9895 28.9035 -1.9278)" gradientUnits="userSpaceOnUse">
			<stop  offset="0" style="stop-color:#FFFFFF;stop-opacity:0"/>
			<stop  offset="0.4188" style="stop-color:#FFFFFF;stop-opacity:0.8587"/>
			<stop  offset="0.4877" style="stop-color:#FFFFFF"/>
			<stop  offset="0.5601" style="stop-color:#FFFFFF;stop-opacity:0.8587"/>
			<stop  offset="1" style="stop-color:#FFFFFF;stop-opacity:0"/>
		</radialGradient>
		<circle class="st33" cx="40.5" cy="66.3" r="11.5"/>
		
			<radialGradient id="SVGID_12_" cx="7.7114" cy="63.2442" r="6.2784" gradientTransform="matrix(0.9895 -0.1445 0.1445 0.9895 28.9035 -1.9278)" gradientUnits="userSpaceOnUse">
			<stop  offset="0" style="stop-color:#FFFFFF;stop-opacity:0"/>
			<stop  offset="0.4188" style="stop-color:#FFFFFF;stop-opacity:0.8587"/>
			<stop  offset="0.4877" style="stop-color:#FFFFFF"/>
			<stop  offset="0.5601" style="stop-color:#FFFFFF;stop-opacity:0.8587"/>
			<stop  offset="1" style="stop-color:#FFFFFF;stop-opacity:0"/>
		</radialGradient>
		<circle class="st34" cx="45.7" cy="59.5" r="5.1"/>
		
			<radialGradient id="SVGID_13_" cx="-227.4512" cy="-429.9343" r="11.1218" gradientTransform="matrix(-0.9991 -4.240000e-02 4.240000e-02 -0.9991 -136.4937 -410.0655)" gradientUnits="userSpaceOnUse">
			<stop  offset="0" style="stop-color:#FFFFFF;stop-opacity:0"/>
			<stop  offset="0.4188" style="stop-color:#FFFFFF;stop-opacity:0.8587"/>
			<stop  offset="0.4877" style="stop-color:#FFFFFF"/>
			<stop  offset="0.5601" style="stop-color:#FFFFFF;stop-opacity:0.8587"/>
			<stop  offset="1" style="stop-color:#FFFFFF;stop-opacity:0"/>
		</radialGradient>
		<circle class="st35" cx="72.5" cy="29.1" r="9.1"/>
		
			<radialGradient id="SVGID_14_" cx="-222.1899" cy="-437.1475" r="5.1378" gradientTransform="matrix(-0.9991 -4.240000e-02 4.240000e-02 -0.9991 -136.4937 -410.0655)" gradientUnits="userSpaceOnUse">
			<stop  offset="0" style="stop-color:#FFFFFF;stop-opacity:0"/>
			<stop  offset="0.4188" style="stop-color:#FFFFFF;stop-opacity:0.8587"/>
			<stop  offset="0.4877" style="stop-color:#FFFFFF"/>
			<stop  offset="0.5601" style="stop-color:#FFFFFF;stop-opacity:0.8587"/>
			<stop  offset="1" style="stop-color:#FFFFFF;stop-opacity:0"/>
		</radialGradient>
		<circle class="st36" cx="67" cy="36.1" r="4.2"/>
	</g>
</g>
</svg>
