<?xml version="1.0" encoding="utf-8"?>
<!-- Generator: Adobe Illustrator 22.0.1, SVG Export Plug-In . SVG Version: 6.00 Build 0)  -->
<svg version="1.1" xmlns="http://www.w3.org/2000/svg" xmlns:xlink="http://www.w3.org/1999/xlink" x="0px" y="0px"
	 viewBox="0 0 1368 704" style="enable-background:new 0 0 1368 704;" xml:space="preserve">
<style type="text/css">
	.st0{clip-path:url(#SVGID_2_);fill:url(#SVGID_3_);}
	.st1{clip-path:url(#SVGID_2_);fill:#B7C9D8;}
	.st2{opacity:0.42;clip-path:url(#SVGID_2_);}
	.st3{fill:#F7F1E2;}
	.st4{clip-path:url(#SVGID_2_);}
	.st5{fill-rule:evenodd;clip-rule:evenodd;fill:#635853;}
	.st6{fill-rule:evenodd;clip-rule:evenodd;fill:#FFFFFF;}
	.st7{fill-rule:evenodd;clip-rule:evenodd;fill:#FEDEA4;}
	.st8{clip-path:url(#SVGID_2_);fill:#616160;}
	.st9{opacity:0.6;clip-path:url(#SVGID_2_);}
	.st10{fill:#FFFFFF;}
	.st11{clip-path:url(#SVGID_2_);fill:none;stroke:#020203;stroke-width:0.5388;stroke-miterlimit:10;}
	.st12{clip-path:url(#SVGID_2_);fill:#BCB8BF;}
	.st13{clip-path:url(#SVGID_2_);fill:#B4DFEC;}
	.st14{clip-path:url(#SVGID_2_);fill:#FFFFFF;}
	.st15{fill:#A3A9B6;}
	.st16{fill:#92AEC3;}
	.st17{fill:#E07653;}
	.st18{fill:#596874;}
	.st19{clip-path:url(#SVGID_2_);fill:#48515A;}
	.st20{clip-path:url(#SVGID_2_);fill:#F39778;}
	.st21{clip-path:url(#SVGID_2_);fill:#FFD65F;}
	.st22{clip-path:url(#SVGID_2_);fill:#596874;}
	.st23{clip-path:url(#SVGID_2_);fill:#FAB953;}
	.st24{fill:#F28E71;}
	.st25{fill:#1B2E2D;}
	.st26{fill-rule:evenodd;clip-rule:evenodd;fill:#514B4A;}
	.st27{fill-rule:evenodd;clip-rule:evenodd;fill:#1B1B1B;}
	.st28{fill-rule:evenodd;clip-rule:evenodd;fill:#FCF7CD;}
	.st29{fill-rule:evenodd;clip-rule:evenodd;fill:#EC6669;}
	.st30{fill-rule:evenodd;clip-rule:evenodd;fill:#BDD3DD;}
	.st31{fill-rule:evenodd;clip-rule:evenodd;fill:#2F464D;}
	.st32{fill-rule:evenodd;clip-rule:evenodd;fill:#669999;}
	.st33{fill-rule:evenodd;clip-rule:evenodd;fill:#343434;}
	.st34{fill-rule:evenodd;clip-rule:evenodd;fill:#D04544;}
	.st35{fill-rule:evenodd;clip-rule:evenodd;fill:#676767;}
	.st36{fill-rule:evenodd;clip-rule:evenodd;fill:#9ACDCD;}
	.st37{fill-rule:evenodd;clip-rule:evenodd;fill:#4E4D4D;}
	.st38{fill:#D04544;}
	.st39{fill-rule:evenodd;clip-rule:evenodd;fill:#AFDCE2;}
	.st40{fill-rule:evenodd;clip-rule:evenodd;fill:#957567;}
	.st41{opacity:0.7;}
	.st42{fill:#20364D;}
</style>
<g id="Calque_1">
</g>
<g id="Calque_2">
	<g>
		<defs>
			<rect id="SVGID_1_" width="1367" height="700.2"/>
		</defs>
		<clipPath id="SVGID_2_">
			<use xlink:href="#SVGID_1_"  style="overflow:visible;"/>
		</clipPath>
		
			<linearGradient id="SVGID_3_" gradientUnits="userSpaceOnUse" x1="684.0459" y1="1.012114e-02" x2="684.0459" y2="573.7339" gradientTransform="matrix(1 0 0 1 -4.590000e-02 2)">
			<stop  offset="0" style="stop-color:#E0E0DF"/>
			<stop  offset="0.2723" style="stop-color:#DCE0E1"/>
			<stop  offset="0.5841" style="stop-color:#D1E0E5"/>
			<stop  offset="0.9143" style="stop-color:#BCE0EB"/>
			<stop  offset="1" style="stop-color:#B4DFEC"/>
		</linearGradient>
		<rect x="1.7" y="2" class="st0" width="1364.6" height="573.7"/>
		<polygon class="st1" points="1041.9,293.5 924.7,293.5 924.7,373.2 881.7,373.2 881.7,178.1 822.6,177.8 763.4,178.1 763.4,235.8 
			727,235.8 727,255.5 710.8,255.5 710.8,247.9 697.2,247.9 697.2,255.5 568.5,255.5 568.5,334.3 365,334.3 365,333.5 285.7,333.5 
			285.7,314.9 262.1,314.9 262.1,333.5 254.4,333.5 254.4,432.8 358.8,432.8 365,432.8 568.5,432.8 588.6,432.8 763.4,432.8 
			787.2,432.8 850.2,432.8 850.2,433 949.6,433 949.6,432.8 1041.9,432.8 		"/>
		<g class="st2">
			<g>
				<path class="st3" d="M1402.3,316.9"/>
			</g>
		</g>
		<g class="st4">
			<rect x="-7.6" y="573.7" class="st5" width="1374.6" height="130.3"/>
			<rect x="-7.6" y="695.3" class="st6" width="1374.6" height="4.9"/>
			<rect x="-7.6" y="577.7" class="st6" width="1374.6" height="3.4"/>
			<path class="st7" d="M-7.6,625.8h51.7v4.9H-7.6V625.8z M1315.3,625.8h51.7v4.9h-51.7V625.8z M1195.1,625.8h51.7v4.9h-51.7V625.8z
				 M1074.8,625.8h51.7v4.9h-51.7V625.8z M954.5,625.8h51.7v4.9h-51.7V625.8z M834.3,625.8H886v4.9h-51.7V625.8z M714,625.8h51.7
				v4.9H714V625.8z M593.8,625.8h51.7v4.9h-51.7V625.8z M473.5,625.8h51.7v4.9h-51.7V625.8z M353.2,625.8h51.7v4.9h-51.7V625.8z
				 M233,625.8h51.7v4.9H233V625.8z M112.7,625.8h51.7v4.9h-51.7V625.8z"/>
		</g>
		<rect x="-250.7" y="-45.5" class="st8" width="249.4" height="778.1"/>
		<g class="st9">
			<g>
				<rect x="279.9" y="464.9" class="st10" width="30.2" height="1.7"/>
			</g>
			<g>
				<rect x="346.4" y="464.9" class="st10" width="30.2" height="1.7"/>
			</g>
			<g>
				<rect x="414.7" y="464.9" class="st10" width="26.6" height="1.7"/>
			</g>
			<g>
				<rect x="481.2" y="464.9" class="st10" width="26.6" height="1.7"/>
			</g>
			<g>
				<rect x="545.9" y="464.9" class="st10" width="30.2" height="1.7"/>
			</g>
			<g>
				<rect x="614.1" y="464.9" class="st10" width="26.6" height="1.7"/>
			</g>
			<g>
				<rect x="680.6" y="464.9" class="st10" width="26.6" height="1.7"/>
			</g>
			<g>
				<rect x="80.5" y="464.9" class="st10" width="30.2" height="1.7"/>
			</g>
			<g>
				<rect x="15.8" y="464.9" class="st10" width="26.5" height="1.7"/>
			</g>
			<g>
				<rect x="147" y="464.9" class="st10" width="30.2" height="1.7"/>
			</g>
			<g>
				<rect x="213.5" y="464.9" class="st10" width="30.2" height="1.7"/>
			</g>
			<g>
				<rect x="247.6" y="483.5" class="st10" width="30.2" height="1.7"/>
			</g>
			<g>
				<rect x="314.1" y="483.5" class="st10" width="30.2" height="1.7"/>
			</g>
			<g>
				<rect x="382.4" y="483.5" class="st10" width="26.6" height="1.7"/>
			</g>
			<g>
				<rect x="448.9" y="483.5" class="st10" width="26.6" height="1.7"/>
			</g>
			<g>
				<rect x="513.5" y="483.5" class="st10" width="30.2" height="1.7"/>
			</g>
			<g>
				<rect x="581.8" y="483.5" class="st10" width="26.6" height="1.7"/>
			</g>
			<g>
				<rect x="648.3" y="483.5" class="st10" width="26.6" height="1.7"/>
			</g>
			<g>
				<rect x="48.2" y="483.5" class="st10" width="30.2" height="1.7"/>
			</g>
			<g>
				<rect x="114.6" y="483.5" class="st10" width="30.2" height="1.7"/>
			</g>
			<g>
				<rect x="181.1" y="483.5" class="st10" width="30.2" height="1.7"/>
			</g>
			<g>
				<rect x="279.9" y="505.4" class="st10" width="30.2" height="1.7"/>
			</g>
			<g>
				<rect x="346.4" y="505.4" class="st10" width="30.2" height="1.7"/>
			</g>
			<g>
				<rect x="414.7" y="505.4" class="st10" width="26.6" height="1.7"/>
			</g>
			<g>
				<rect x="481.2" y="505.4" class="st10" width="26.6" height="1.7"/>
			</g>
			<g>
				<rect x="545.9" y="505.4" class="st10" width="30.2" height="1.7"/>
			</g>
			<g>
				<rect x="614.1" y="505.4" class="st10" width="26.6" height="1.7"/>
			</g>
			<g>
				<rect x="680.6" y="505.4" class="st10" width="26.6" height="1.7"/>
			</g>
			<g>
				<rect x="80.5" y="505.4" class="st10" width="30.2" height="1.7"/>
			</g>
			<g>
				<rect x="15.8" y="505.4" class="st10" width="26.5" height="1.7"/>
			</g>
			<g>
				<rect x="147" y="505.4" class="st10" width="30.2" height="1.7"/>
			</g>
			<g>
				<rect x="213.5" y="505.4" class="st10" width="30.2" height="1.7"/>
			</g>
			<g>
				<rect x="247.6" y="524.1" class="st10" width="30.2" height="1.7"/>
			</g>
			<g>
				<rect x="314.1" y="524.1" class="st10" width="30.2" height="1.7"/>
			</g>
			<g>
				<rect x="382.4" y="524.1" class="st10" width="26.6" height="1.7"/>
			</g>
			<g>
				<rect x="448.9" y="524.1" class="st10" width="26.6" height="1.7"/>
			</g>
			<g>
				<rect x="513.5" y="524.1" class="st10" width="30.2" height="1.7"/>
			</g>
			<g>
				<rect x="581.8" y="524.1" class="st10" width="26.6" height="1.7"/>
			</g>
			<g>
				<rect x="648.3" y="524.1" class="st10" width="26.6" height="1.7"/>
			</g>
			<g>
				<rect x="48.2" y="524.1" class="st10" width="30.2" height="1.7"/>
			</g>
			<g>
				<rect x="114.6" y="524.1" class="st10" width="30.2" height="1.7"/>
			</g>
			<g>
				<rect x="181.1" y="524.1" class="st10" width="30.2" height="1.7"/>
			</g>
			<g>
				<rect x="279.9" y="548.9" class="st10" width="30.2" height="1.7"/>
			</g>
			<g>
				<rect x="346.4" y="548.9" class="st10" width="30.2" height="1.7"/>
			</g>
			<g>
				<rect x="414.7" y="548.9" class="st10" width="26.6" height="1.7"/>
			</g>
			<g>
				<rect x="481.2" y="548.9" class="st10" width="26.6" height="1.7"/>
			</g>
			<g>
				<rect x="545.9" y="548.9" class="st10" width="30.2" height="1.7"/>
			</g>
			<g>
				<rect x="614.1" y="548.9" class="st10" width="26.6" height="1.7"/>
			</g>
			<g>
				<rect x="680.6" y="548.9" class="st10" width="26.6" height="1.7"/>
			</g>
			<g>
				<rect x="80.5" y="548.9" class="st10" width="30.2" height="1.7"/>
			</g>
			<g>
				<rect x="15.8" y="548.9" class="st10" width="26.5" height="1.7"/>
			</g>
			<g>
				<rect x="147" y="548.9" class="st10" width="30.2" height="1.7"/>
			</g>
			<g>
				<rect x="213.5" y="548.9" class="st10" width="30.2" height="1.7"/>
			</g>
			<g>
				<rect x="247.6" y="567.6" class="st10" width="30.2" height="1.7"/>
			</g>
			<g>
				<rect x="314.1" y="567.6" class="st10" width="30.2" height="1.7"/>
			</g>
			<g>
				<rect x="382.4" y="567.6" class="st10" width="26.6" height="1.7"/>
			</g>
			<g>
				<rect x="448.9" y="567.6" class="st10" width="26.6" height="1.7"/>
			</g>
			<g>
				<rect x="513.5" y="567.6" class="st10" width="30.2" height="1.7"/>
			</g>
			<g>
				<rect x="581.8" y="567.6" class="st10" width="26.6" height="1.7"/>
			</g>
			<g>
				<rect x="648.3" y="567.6" class="st10" width="26.6" height="1.7"/>
			</g>
			<g>
				<rect x="48.2" y="567.6" class="st10" width="30.2" height="1.7"/>
			</g>
			<g>
				<rect x="114.6" y="567.6" class="st10" width="30.2" height="1.7"/>
			</g>
			<g>
				<rect x="181.1" y="567.6" class="st10" width="30.2" height="1.7"/>
			</g>
			<g>
				<rect x="940.9" y="464.9" class="st10" width="30.2" height="1.7"/>
			</g>
			<g>
				<rect x="1007.4" y="464.9" class="st10" width="30.2" height="1.7"/>
			</g>
			<g>
				<rect x="1075.7" y="464.9" class="st10" width="26.6" height="1.7"/>
			</g>
			<g>
				<rect x="1142.2" y="464.9" class="st10" width="26.6" height="1.7"/>
			</g>
			<g>
				<rect x="1206.9" y="464.9" class="st10" width="30.2" height="1.7"/>
			</g>
			<g>
				<rect x="1275.1" y="464.9" class="st10" width="26.6" height="1.7"/>
			</g>
			<g>
				<rect x="1341.6" y="464.9" class="st10" width="26.6" height="1.7"/>
			</g>
			<g>
				<rect x="741.5" y="464.9" class="st10" width="30.2" height="1.7"/>
			</g>
			<g>
				<rect x="808" y="464.9" class="st10" width="30.2" height="1.7"/>
			</g>
			<g>
				<rect x="874.4" y="464.9" class="st10" width="30.2" height="1.7"/>
			</g>
			<g>
				<rect x="908.6" y="483.5" class="st10" width="30.2" height="1.7"/>
			</g>
			<g>
				<rect x="975.1" y="483.5" class="st10" width="30.2" height="1.7"/>
			</g>
			<g>
				<rect x="1043.4" y="483.5" class="st10" width="26.6" height="1.7"/>
			</g>
			<g>
				<rect x="1109.8" y="483.5" class="st10" width="26.6" height="1.7"/>
			</g>
			<g>
				<rect x="1174.5" y="483.5" class="st10" width="30.2" height="1.7"/>
			</g>
			<g>
				<rect x="1242.8" y="483.5" class="st10" width="26.6" height="1.7"/>
			</g>
			<g>
				<rect x="1309.3" y="483.5" class="st10" width="26.6" height="1.7"/>
			</g>
			<g>
				<rect x="709.2" y="483.5" class="st10" width="30.2" height="1.7"/>
			</g>
			<g>
				<rect x="775.6" y="483.5" class="st10" width="30.2" height="1.7"/>
			</g>
			<g>
				<rect x="842.1" y="483.5" class="st10" width="30.2" height="1.7"/>
			</g>
			<g>
				<rect x="940.9" y="505.4" class="st10" width="30.2" height="1.7"/>
			</g>
			<g>
				<rect x="1007.4" y="505.4" class="st10" width="30.2" height="1.7"/>
			</g>
			<g>
				<rect x="1075.7" y="505.4" class="st10" width="26.6" height="1.7"/>
			</g>
			<g>
				<rect x="1142.2" y="505.4" class="st10" width="26.6" height="1.7"/>
			</g>
			<g>
				<rect x="1206.9" y="505.4" class="st10" width="30.2" height="1.7"/>
			</g>
			<g>
				<rect x="1275.1" y="505.4" class="st10" width="26.6" height="1.7"/>
			</g>
			<g>
				<rect x="1341.6" y="505.4" class="st10" width="26.6" height="1.7"/>
			</g>
			<g>
				<rect x="741.5" y="505.4" class="st10" width="30.2" height="1.7"/>
			</g>
			<g>
				<rect x="808" y="505.4" class="st10" width="30.2" height="1.7"/>
			</g>
			<g>
				<rect x="874.4" y="505.4" class="st10" width="30.2" height="1.7"/>
			</g>
			<g>
				<rect x="908.6" y="524.1" class="st10" width="30.2" height="1.7"/>
			</g>
			<g>
				<rect x="975.1" y="524.1" class="st10" width="30.2" height="1.7"/>
			</g>
			<g>
				<rect x="1043.4" y="524.1" class="st10" width="26.6" height="1.7"/>
			</g>
			<g>
				<rect x="1109.8" y="524.1" class="st10" width="26.6" height="1.7"/>
			</g>
			<g>
				<rect x="1174.5" y="524.1" class="st10" width="30.2" height="1.7"/>
			</g>
			<g>
				<rect x="1242.8" y="524.1" class="st10" width="26.6" height="1.7"/>
			</g>
			<g>
				<rect x="1309.3" y="524.1" class="st10" width="26.6" height="1.7"/>
			</g>
			<g>
				<rect x="709.2" y="524.1" class="st10" width="30.2" height="1.7"/>
			</g>
			<g>
				<rect x="775.6" y="524.1" class="st10" width="30.2" height="1.7"/>
			</g>
			<g>
				<rect x="842.1" y="524.1" class="st10" width="30.2" height="1.7"/>
			</g>
			<g>
				<rect x="940.9" y="548.9" class="st10" width="30.2" height="1.7"/>
			</g>
			<g>
				<rect x="1007.4" y="548.9" class="st10" width="30.2" height="1.7"/>
			</g>
			<g>
				<rect x="1075.7" y="548.9" class="st10" width="26.6" height="1.7"/>
			</g>
			<g>
				<rect x="1142.2" y="548.9" class="st10" width="26.6" height="1.7"/>
			</g>
			<g>
				<rect x="1206.9" y="548.9" class="st10" width="30.2" height="1.7"/>
			</g>
			<g>
				<rect x="1275.1" y="548.9" class="st10" width="26.6" height="1.7"/>
			</g>
			<g>
				<rect x="1341.6" y="548.9" class="st10" width="26.6" height="1.7"/>
			</g>
			<g>
				<rect x="741.5" y="548.9" class="st10" width="30.2" height="1.7"/>
			</g>
			<g>
				<rect x="808" y="548.9" class="st10" width="30.2" height="1.7"/>
			</g>
			<g>
				<rect x="874.4" y="548.9" class="st10" width="30.2" height="1.7"/>
			</g>
			<g>
				<rect x="908.6" y="567.6" class="st10" width="30.2" height="1.7"/>
			</g>
			<g>
				<rect x="975.1" y="567.6" class="st10" width="30.2" height="1.7"/>
			</g>
			<g>
				<rect x="1043.4" y="567.6" class="st10" width="26.6" height="1.7"/>
			</g>
			<g>
				<rect x="1109.8" y="567.6" class="st10" width="26.6" height="1.7"/>
			</g>
			<g>
				<rect x="1174.5" y="567.6" class="st10" width="30.2" height="1.7"/>
			</g>
			<g>
				<rect x="1242.8" y="567.6" class="st10" width="26.6" height="1.7"/>
			</g>
			<g>
				<rect x="1309.3" y="567.6" class="st10" width="26.6" height="1.7"/>
			</g>
			<g>
				<rect x="709.2" y="567.6" class="st10" width="30.2" height="1.7"/>
			</g>
			<g>
				<rect x="775.6" y="567.6" class="st10" width="30.2" height="1.7"/>
			</g>
			<g>
				<rect x="842.1" y="567.6" class="st10" width="30.2" height="1.7"/>
			</g>
		</g>
		<path class="st11" d="M236.3,578c0,0.2,0.1,0.4,0.1,0.6"/>
		<rect x="4" y="434.4" class="st12" width="1364.3" height="15.2"/>
		<rect x="335.7" y="198.8" class="st13" width="154.9" height="235.2"/>
		<rect x="358.2" y="213.7" class="st14" width="32.5" height="44.4"/>
		<g class="st4">
			<rect x="373.8" y="213.7" class="st15" width="1.2" height="44.4"/>
		</g>
		<rect x="435.6" y="213.7" class="st14" width="32.5" height="44.4"/>
		<g class="st4">
			<rect x="451.2" y="213.7" class="st15" width="1.2" height="44.4"/>
		</g>
		<rect x="358.2" y="273.2" class="st14" width="32.5" height="44.4"/>
		<g class="st4">
			<rect x="373.8" y="273.2" class="st15" width="1.2" height="44.4"/>
		</g>
		<rect x="435.6" y="273.2" class="st14" width="32.5" height="44.4"/>
		<g class="st4">
			<rect x="451.2" y="273.2" class="st15" width="1.2" height="44.4"/>
		</g>
		<rect x="358.2" y="333" class="st14" width="32.5" height="44.4"/>
		<g class="st4">
			<rect x="373.8" y="333" class="st15" width="1.2" height="44.4"/>
		</g>
		<rect x="435.6" y="333" class="st14" width="32.5" height="44.4"/>
		<g class="st4">
			<rect x="358.2" y="258.1" class="st16" width="32.4" height="4.3"/>
			<rect x="353.6" y="209.3" class="st16" width="41.6" height="4.3"/>
			<rect x="435.6" y="258.1" class="st16" width="32.4" height="4.3"/>
			<rect x="431.1" y="209.3" class="st16" width="41.6" height="4.3"/>
			<rect x="358.2" y="317.6" class="st16" width="32.4" height="4.3"/>
			<rect x="353.6" y="268.9" class="st16" width="41.6" height="4.3"/>
			<rect x="435.6" y="317.6" class="st16" width="32.4" height="4.3"/>
			<rect x="431.1" y="268.9" class="st16" width="41.6" height="4.3"/>
			<rect x="358.2" y="377.4" class="st16" width="32.4" height="4.3"/>
			<rect x="353.6" y="328.7" class="st16" width="41.6" height="4.3"/>
			<rect x="435.6" y="377.4" class="st16" width="32.4" height="4.3"/>
			<rect x="431.1" y="328.7" class="st16" width="41.6" height="4.3"/>
		</g>
		<g class="st4">
			<rect x="451.2" y="333" class="st15" width="1.2" height="44.4"/>
		</g>
		<g class="st4">
			<rect x="435.6" y="389.6" class="st17" width="32.5" height="44.4"/>
			<g>
				<rect x="451.2" y="389.6" class="st18" width="1.2" height="44.4"/>
			</g>
		</g>
		<polygon class="st19" points="461,166.7 420.1,166.7 406.2,166.7 365.3,166.7 335.7,199 406.2,199 420.1,199 490.6,199 		"/>
		<rect x="524.7" y="189.5" class="st20" width="149.1" height="244.5"/>
		<path class="st14" d="M576.6,200.4c-5.4,0-9.8,4.4-9.8,9.8v24.7h19.6v-24.7C586.4,204.7,582.1,200.4,576.6,200.4z"/>
		<path class="st14" d="M621.1,200.4c-5.4,0-9.8,4.4-9.8,9.8v24.7h19.6v-24.7C630.9,204.7,626.5,200.4,621.1,200.4z"/>
		<path class="st21" d="M576.6,262.3c-5.4,0-9.8,4.4-9.8,9.8v24.7h19.6v-24.7C586.4,266.7,582.1,262.3,576.6,262.3z"/>
		<path class="st14" d="M621.1,262.3c-5.4,0-9.8,4.4-9.8,9.8v24.7h19.6v-24.7C630.9,266.7,626.5,262.3,621.1,262.3z"/>
		<path class="st14" d="M576.6,324.2c-5.4,0-9.8,4.4-9.8,9.8v24.7h19.6V334C586.4,328.6,582.1,324.2,576.6,324.2z"/>
		<path class="st14" d="M621.1,324.2c-5.4,0-9.8,4.4-9.8,9.8v24.7h19.6V334C630.9,328.6,626.5,324.2,621.1,324.2z"/>
		<path class="st14" d="M576.6,386.1c-5.4,0-9.8,4.4-9.8,9.8v24.7h19.6v-24.7C586.4,390.5,582.1,386.1,576.6,386.1z"/>
		<path class="st14" d="M621.1,386.1c-5.4,0-9.8,4.4-9.8,9.8v24.7h19.6v-24.7C630.9,390.5,626.5,386.1,621.1,386.1z"/>
		<g class="st4">
			<rect x="562.2" y="234.9" class="st16" width="29.3" height="6.4"/>
			<rect x="606.6" y="234.9" class="st16" width="29.3" height="6.4"/>
			<rect x="562.2" y="296.8" class="st16" width="29.3" height="6.4"/>
			<rect x="606.6" y="296.8" class="st16" width="29.3" height="6.4"/>
			<rect x="562.2" y="358.7" class="st16" width="29.3" height="6.4"/>
			<rect x="606.6" y="358.7" class="st16" width="29.3" height="6.4"/>
			<rect x="562.2" y="420.6" class="st16" width="29.3" height="6.4"/>
			<rect x="606.6" y="420.6" class="st16" width="29.3" height="6.4"/>
		</g>
		<rect x="508.7" y="178.4" class="st19" width="181.1" height="11"/>
		<rect x="524.7" y="172.8" class="st22" width="149.2" height="5.7"/>
		<polygon class="st22" points="706.9,201.7 722.9,178.4 774.8,178.4 791.7,201.7 		"/>
		<rect x="706.9" y="201.7" class="st21" width="52.8" height="231.6"/>
		<rect x="759.8" y="201.7" class="st23" width="32" height="231.6"/>
		<rect x="770.2" y="410.5" class="st14" width="10.7" height="22.8"/>
		<rect x="770.2" y="370.3" class="st14" width="10.7" height="22.8"/>
		<rect x="770.2" y="330.1" class="st14" width="10.7" height="22.8"/>
		<rect x="770.2" y="289.9" class="st14" width="10.7" height="22.8"/>
		<rect x="770.2" y="249.7" class="st14" width="10.7" height="22.8"/>
		<rect x="770.2" y="209.4" class="st14" width="10.7" height="22.8"/>
		<path class="st14" d="M702.1,450H22.3H4v131.3h18.4c9.3-50.8,53.8-89.3,107.3-89.3c52.4,0,96.1,36.9,106.7,86.1l0.1,0.6h19.2
			l0.1-0.4c10.5-49.3,54.3-86.3,106.7-86.3c52.7,0,96.7,37.4,106.9,87.1h19.2c10.1-49.9,53.9-87.1,106.7-87.1
			c52.7,0,96.7,37.4,106.9,87.1v2.2h18.4V450H702.1z"/>
		<path class="st14" d="M1417.7,450H737.9h-18.4v131.3h18.4c9.3-50.8,53.8-89.3,107.3-89.3c52.4,0,96.1,36.9,106.7,86.1l0.1,0.6
			h19.2l0.1-0.4c10.5-49.3,54.3-86.3,106.7-86.3c52.7,0,96.7,37.4,106.9,87.1h19.2c10.1-49.9,53.9-87.1,106.7-87.1
			c52.7,0,96.7,37.4,106.9,87.1v2.2h18.4V450H1417.7z"/>
		<rect x="814.7" y="201.9" class="st19" width="132" height="231.6"/>
		<rect x="822.6" y="262.3" class="st13" width="33.3" height="39.1"/>
		<rect x="827.5" y="267.2" class="st14" width="23.5" height="29.3"/>
		<rect x="863.6" y="262.3" class="st13" width="33.3" height="39.1"/>
		
			<rect x="868.5" y="267.2" transform="matrix(-1 -1.224647e-16 1.224647e-16 -1 1760.4706 563.6844)" class="st14" width="23.5" height="29.3"/>
		<rect x="868.5" y="267.2" class="st21" width="23.5" height="6.6"/>
		<rect x="863.6" y="314" class="st13" width="33.3" height="39.1"/>
		
			<rect x="868.5" y="318.9" transform="matrix(-1 -1.224647e-16 1.224647e-16 -1 1760.4706 667.0432)" class="st14" width="23.5" height="29.3"/>
		<rect x="868.5" y="318.9" class="st21" width="23.5" height="24"/>
		<rect x="863.6" y="210.6" class="st13" width="33.3" height="39.1"/>
		
			<rect x="868.5" y="215.5" transform="matrix(-1 -1.224647e-16 1.224647e-16 -1 1760.4706 460.3268)" class="st14" width="23.5" height="29.3"/>
		<rect x="822.6" y="314" class="st13" width="33.3" height="39.1"/>
		<rect x="827.5" y="318.9" class="st14" width="23.5" height="29.3"/>
		<rect x="827.5" y="318.9" class="st21" width="23.5" height="19"/>
		<rect x="904.6" y="262.3" class="st13" width="33.3" height="39.1"/>
		
			<rect x="909.5" y="267.2" transform="matrix(-1 -1.224647e-16 1.224647e-16 -1 1842.4854 563.6844)" class="st14" width="23.5" height="29.3"/>
		<rect x="909.5" y="267" class="st21" width="23.5" height="22.9"/>
		<rect x="904.6" y="314" class="st13" width="33.3" height="39.1"/>
		
			<rect x="909.5" y="318.9" transform="matrix(-1 -1.224647e-16 1.224647e-16 -1 1842.4854 667.0432)" class="st14" width="23.5" height="29.3"/>
		<rect x="909.5" y="318.9" class="st21" width="23.5" height="24"/>
		<rect x="904.6" y="210.6" class="st13" width="33.3" height="39.1"/>
		
			<rect x="909.5" y="215.5" transform="matrix(-1 -1.224647e-16 1.224647e-16 -1 1842.4854 460.3268)" class="st14" width="23.5" height="29.3"/>
		<rect x="909.5" y="215.5" class="st21" width="23.5" height="19.3"/>
		<rect x="822.6" y="210.6" class="st13" width="33.3" height="39.1"/>
		<rect x="827.5" y="215.5" class="st14" width="23.5" height="29.3"/>
		<rect x="827.5" y="215.5" class="st21" width="23.5" height="4"/>
		<rect x="358.2" y="213.7" class="st23" width="32.5" height="10.3"/>
		<rect x="435.6" y="333" class="st23" width="32.5" height="5.2"/>
		<rect x="435.6" y="213.7" class="st23" width="32.5" height="27.4"/>
		<rect x="358.2" y="333" class="st23" width="32.5" height="36"/>
		<g class="st4">
			<rect x="852.9" y="374.6" class="st24" width="26.9" height="59"/>
			<rect x="881.6" y="374.6" class="st24" width="26.9" height="59"/>
			<rect x="879.7" y="374.6" class="st17" width="1.8" height="59"/>
		</g>
		<rect x="848.3" y="369.8" class="st1" width="64.7" height="4.8"/>
		<rect x="903.9" y="182.9" class="st1" width="33.6" height="18.6"/>
		<rect x="892.2" y="182.9" class="st1" width="5.6" height="18.6"/>
		<rect x="878.8" y="182.9" class="st1" width="5.6" height="18.6"/>
		<rect x="625.5" y="153.8" class="st1" width="5.6" height="18.6"/>
		<rect x="612.1" y="153.8" class="st1" width="5.6" height="18.6"/>
		<rect x="918" y="379.8" class="st14" width="14.9" height="8.5"/>
		<g class="st4">
			<path class="st25" d="M10.1,401.1c0,2.1-1.7,3.8-3.8,3.8c-2.1,0-3.8-1.7-3.8-3.8c0-2.1,1.7-3.8,3.8-3.8
				C8.4,397.3,10.1,399,10.1,401.1z"/>
			<path class="st25" d="M60.7,401.1c0,2.1-1.7,3.8-3.8,3.8c-2.1,0-3.8-1.7-3.8-3.8c0-2.1,1.7-3.8,3.8-3.8
				C59,397.3,60.7,399,60.7,401.1z"/>
			<path class="st25" d="M111.5,401.1c0,2.1-1.7,3.8-3.8,3.8c-2.1,0-3.8-1.7-3.8-3.8c0-2.1,1.7-3.8,3.8-3.8
				C109.8,397.3,111.5,399,111.5,401.1z"/>
			<path class="st25" d="M162.3,401.1c0,2.1-1.7,3.8-3.8,3.8c-2.1,0-3.8-1.7-3.8-3.8c0-2.1,1.7-3.8,3.8-3.8
				C160.6,397.3,162.3,399,162.3,401.1z"/>
			<path class="st25" d="M213.1,401.1c0,2.1-1.7,3.8-3.8,3.8c-2.1,0-3.8-1.7-3.8-3.8c0-2.1,1.7-3.8,3.8-3.8
				C211.4,397.3,213.1,399,213.1,401.1z"/>
			<path class="st25" d="M264.4,401.1c0,2.1-1.7,3.8-3.8,3.8c-2.1,0-3.8-1.7-3.8-3.8c0-2.1,1.7-3.8,3.8-3.8
				C262.7,397.3,264.4,399,264.4,401.1z"/>
			<circle class="st25" cx="311.8" cy="401.1" r="3.8"/>
			<path class="st25" d="M366.3,401.1c0,2.1-1.7,3.8-3.8,3.8c-2.1,0-3.8-1.7-3.8-3.8c0-2.1,1.7-3.8,3.8-3.8
				C364.6,397.3,366.3,399,366.3,401.1z"/>
			<circle class="st25" cx="413" cy="401.1" r="3.8"/>
			<circle class="st25" cx="464.1" cy="401.1" r="3.8"/>
			<path class="st25" d="M519.2,401.1c0,2.1-1.7,3.8-3.8,3.8c-2.1,0-3.8-1.7-3.8-3.8c0-2.1,1.7-3.8,3.8-3.8
				C517.5,397.3,519.2,399,519.2,401.1z"/>
			<path class="st25" d="M569.9,401.1c0,2.1-1.7,3.8-3.8,3.8c-2.1,0-3.8-1.7-3.8-3.8c0-2.1,1.7-3.8,3.8-3.8
				C568.2,397.3,569.9,399,569.9,401.1z"/>
			<path class="st25" d="M620.9,401.1c0,2.1-1.7,3.8-3.8,3.8c-2.1,0-3.8-1.7-3.8-3.8c0-2.1,1.7-3.8,3.8-3.8
				C619.2,397.3,620.9,399,620.9,401.1z"/>
			<path class="st25" d="M671.3,401.1c0,2.1-1.7,3.8-3.8,3.8c-2.1,0-3.8-1.7-3.8-3.8c0-2.1,1.7-3.8,3.8-3.8
				C669.6,397.3,671.3,399,671.3,401.1z"/>
			<circle class="st25" cx="718.6" cy="401.1" r="3.8"/>
			<polygon class="st25" points="717.3,407.7 669.3,407.7 666.4,407.7 618.4,407.7 615.5,407.7 567.5,407.7 564.6,407.7 
				516.6,407.7 513.7,407.7 465.7,407.7 462.8,407.7 414.8,407.7 412,407.7 363.9,407.7 361.1,407.7 313,407.7 310.2,407.7 
				262.1,407.7 259.3,407.7 211.2,407.7 208.4,407.7 160.3,407.7 157.5,407.7 109.4,407.7 106.6,407.7 58.5,407.7 55.7,407.7 
				7.7,407.7 4.8,407.7 4.8,411.3 4.8,434.3 7.7,434.3 7.7,411.3 55.7,411.3 55.7,434.3 58.5,434.3 58.5,411.3 106.6,411.3 
				106.6,434.3 109.4,434.3 109.4,411.3 157.5,411.3 157.5,434.3 160.3,434.3 160.3,411.3 208.4,411.3 208.4,434.3 211.2,434.3 
				211.2,411.3 259.3,411.3 259.3,434.3 262.1,434.3 262.1,411.3 310.2,411.3 310.2,434.3 313,434.3 313,411.3 361.1,411.3 
				361.1,434.3 363.9,434.3 363.9,411.3 412,411.3 412,434.3 414.8,434.3 414.8,411.3 462.8,411.3 462.8,434.3 465.7,434.3 
				465.7,411.3 513.7,411.3 513.7,434.3 516.6,434.3 516.6,411.3 564.6,411.3 564.6,434.3 567.5,434.3 567.5,411.3 615.5,411.3 
				615.5,434.3 618.4,434.3 618.4,411.3 666.4,411.3 666.4,434.3 669.3,434.3 669.3,411.3 717.3,411.3 717.3,434.3 720.2,434.3 
				720.2,411.3 720.2,407.7 			"/>
		</g>
		<g class="st4">
			<path class="st25" d="M722.4,401.1c0,2.1-1.7,3.8-3.8,3.8c-2.1,0-3.8-1.7-3.8-3.8c0-2.1,1.7-3.8,3.8-3.8
				C720.7,397.3,722.4,399,722.4,401.1z"/>
			<path class="st25" d="M772.9,401.1c0,2.1-1.7,3.8-3.8,3.8c-2.1,0-3.8-1.7-3.8-3.8c0-2.1,1.7-3.8,3.8-3.8
				C771.2,397.3,772.9,399,772.9,401.1z"/>
			<path class="st25" d="M823.7,401.1c0,2.1-1.7,3.8-3.8,3.8c-2.1,0-3.8-1.7-3.8-3.8c0-2.1,1.7-3.8,3.8-3.8
				C822,397.3,823.7,399,823.7,401.1z"/>
			<path class="st25" d="M874.5,401.1c0,2.1-1.7,3.8-3.8,3.8c-2.1,0-3.8-1.7-3.8-3.8c0-2.1,1.7-3.8,3.8-3.8
				C872.8,397.3,874.5,399,874.5,401.1z"/>
			<path class="st25" d="M925.3,401.1c0,2.1-1.7,3.8-3.8,3.8c-2.1,0-3.8-1.7-3.8-3.8c0-2.1,1.7-3.8,3.8-3.8
				C923.6,397.3,925.3,399,925.3,401.1z"/>
			<path class="st25" d="M976.6,401.1c0,2.1-1.7,3.8-3.8,3.8c-2.1,0-3.8-1.7-3.8-3.8c0-2.1,1.7-3.8,3.8-3.8
				C974.9,397.3,976.6,399,976.6,401.1z"/>
			<circle class="st25" cx="1024" cy="401.1" r="3.8"/>
			<path class="st25" d="M1078.6,401.1c0,2.1-1.7,3.8-3.8,3.8s-3.8-1.7-3.8-3.8c0-2.1,1.7-3.8,3.8-3.8S1078.6,399,1078.6,401.1z"/>
			<circle class="st25" cx="1125.3" cy="401.1" r="3.8"/>
			<circle class="st25" cx="1176.3" cy="401.1" r="3.8"/>
			<path class="st25" d="M1231.5,401.1c0,2.1-1.7,3.8-3.8,3.8c-2.1,0-3.8-1.7-3.8-3.8c0-2.1,1.7-3.8,3.8-3.8
				C1229.8,397.3,1231.5,399,1231.5,401.1z"/>
			<path class="st25" d="M1282.2,401.1c0,2.1-1.7,3.8-3.8,3.8c-2.1,0-3.8-1.7-3.8-3.8c0-2.1,1.7-3.8,3.8-3.8
				C1280.5,397.3,1282.2,399,1282.2,401.1z"/>
			<path class="st25" d="M1333.2,401.1c0,2.1-1.7,3.8-3.8,3.8c-2.1,0-3.8-1.7-3.8-3.8c0-2.1,1.7-3.8,3.8-3.8
				C1331.5,397.3,1333.2,399,1333.2,401.1z"/>
			<path class="st25" d="M1383.5,401.1c0,2.1-1.7,3.8-3.8,3.8c-2.1,0-3.8-1.7-3.8-3.8c0-2.1,1.7-3.8,3.8-3.8
				C1381.8,397.3,1383.5,399,1383.5,401.1z"/>
			<circle class="st25" cx="1430.8" cy="401.1" r="3.8"/>
			<polygon class="st25" points="1429.6,407.7 1381.5,407.7 1378.7,407.7 1330.6,407.7 1327.8,407.7 1279.7,407.7 1276.9,407.7 
				1228.8,407.7 1226,407.7 1178,407.7 1175.1,407.7 1127.1,407.7 1124.2,407.7 1076.2,407.7 1073.3,407.7 1025.3,407.7 
				1022.4,407.7 974.4,407.7 971.5,407.7 923.5,407.7 920.6,407.7 872.6,407.7 869.7,407.7 821.7,407.7 818.9,407.7 770.8,407.7 
				768,407.7 719.9,407.7 717.1,407.7 717.1,411.3 717.1,434.3 719.9,434.3 719.9,411.3 768,411.3 768,434.3 770.8,434.3 
				770.8,411.3 818.9,411.3 818.9,434.3 821.7,434.3 821.7,411.3 869.7,411.3 869.7,434.3 872.6,434.3 872.6,411.3 920.6,411.3 
				920.6,434.3 923.5,434.3 923.5,411.3 971.5,411.3 971.5,434.3 974.4,434.3 974.4,411.3 1022.4,411.3 1022.4,434.3 1025.3,434.3 
				1025.3,411.3 1073.3,411.3 1073.3,434.3 1076.2,434.3 1076.2,411.3 1124.2,411.3 1124.2,434.3 1127.1,434.3 1127.1,411.3 
				1175.1,411.3 1175.1,434.3 1178,434.3 1178,411.3 1226,411.3 1226,434.3 1228.8,434.3 1228.8,411.3 1276.9,411.3 1276.9,434.3 
				1279.7,434.3 1279.7,411.3 1327.8,411.3 1327.8,434.3 1330.6,434.3 1330.6,411.3 1378.7,411.3 1378.7,434.3 1381.5,434.3 
				1381.5,411.3 1429.6,411.3 1429.6,434.3 1432.4,434.3 1432.4,411.3 1432.4,407.7 			"/>
		</g>
		<g class="st4">
			<rect x="335.7" y="381.8" class="st18" width="154.9" height="2.4"/>
		</g>
		<g class="st4">
			<rect x="335.7" y="261.9" class="st18" width="154.9" height="2.4"/>
		</g>
		<g class="st4">
			<rect x="524.7" y="248.5" class="st17" width="149.1" height="2.4"/>
		</g>
		<g class="st4">
			<rect x="524.7" y="312.7" class="st17" width="149.1" height="2.4"/>
		</g>
		<g class="st4">
			<rect x="524.7" y="377" class="st17" width="149.1" height="2.4"/>
		</g>
		<g class="st4">
			<rect x="335.7" y="321.3" class="st18" width="154.9" height="2.4"/>
		</g>
		<g class="st4">
			<path class="st26" d="M1129.6,652.7c114.4,0,207.2,2.5,207.2,5.6s-92.8,5.6-207.2,5.6c-114.4,0-207.2-2.5-207.2-5.6
				S1015.1,652.7,1129.6,652.7L1129.6,652.7z"/>
			<g>
				<path class="st27" d="M950.9,624.6h120.3c0.5,4.8,4.6,8.5,9.5,8.5h97c1.8,2.1,4.4,3.4,7.3,3.4h98.1c5.3,0,9.6-4.3,9.6-9.6v-24.8
					c0-4.1-2.6-7.7-6.3-9v-3c0-5.3-4.3-9.6-9.6-9.6h-326c-5.3,0-9.6,4.3-9.6,9.6v24.8C941.3,620.3,945.7,624.6,950.9,624.6
					L950.9,624.6z"/>
				<g>
					<path class="st28" d="M1040.7,629h140.5c8.7,0,12.9-19.3,16.1-22.4c5.5-5.5,52.3-4.6,58.6,0c6.2,4.4,6.6,20.8,9.4,20.8h37.8
						c0.9-25,0.4-50-3.8-75c1.4-1.6,1.8-6.7-1.7-8.5c-2.3-13.7-5.3-24.9-10.4-37.7c-1.8-17.2-7.2-21.2-28-21.2h-222.2
						c-27.1,0-75.6,1.3-79.6,17l-25.5,41.8c-4.1,0.9-6.2,3.6-6.6,7.7c-6.2,1.4-6.6,31.4-5.5,59.1V628c13.6,4.7,33.7,3.6,48.4,3.6
						c4.2,0,9.7-22.6,17.8-30.7c5.1-5.1,35.2-3.8,38.6-0.3C1035.9,611.8,1033.7,629,1040.7,629L1040.7,629z"/>
					<path class="st29" d="M1040.7,629h140.5c8.7,0,12.9-19.3,16.1-22.4c5.5-5.5,52.3-4.6,58.6,0c6.2,4.4,6.6,20.8,9.4,20.8h37.8
						c0.9-25,0.4-50-3.8-75l-373.9-0.9c-6.2,1.4-6.6,31.4-5.5,59.1V628c13.6,4.7,33.7,3.6,48.4,3.6c4.2,0,9.7-22.6,17.8-30.7
						c5.1-5.1,35.2-3.8,38.6-0.3C1035.9,611.8,1033.7,629,1040.7,629L1040.7,629z"/>
				</g>
				<g>
					<path class="st6" d="M1299.4,552.4c1.4-1.6,1.8-6.7-1.7-8.5l-365.6-0.1c-4.1,0.9-6.2,3.6-6.6,7.7L1299.4,552.4z"/>
					<path class="st30" d="M1298.4,551.7c1.5-0.8,2-3.4-0.7-4.4l-365.6-0.1c-4.1,0.5-5.3,1.7-5.7,4L1298.4,551.7z"/>
				</g>
				<g>
					<path class="st31" d="M957.6,501.9l-25.5,41.8c3.2,1.6,10.5,2.2,12.3-1.5c5.6-11.2,11.1-22.1,15-33.8
						C960.1,506.3,959.2,503.8,957.6,501.9L957.6,501.9z"/>
					<path class="st32" d="M956.6,503.6l-23.7,38.7c2.4,1.2,8.5,1.8,9.9-1c5.4-10.9,11-21.9,14.9-33.6
						C957.9,507,957.5,504.6,956.6,503.6L956.6,503.6z"/>
				</g>
				<path class="st33" d="M1271.9,537h9.5c0.4,0,0.9,0.3,0.9,0.8l0.2,0.9c0.1,0.4-0.2,0.8-0.6,0.8h-9.5c-0.4,0-0.9-0.4-0.9-0.8
					l-0.2-0.9C1271.1,537.3,1271.4,537,1271.9,537L1271.9,537z M1265.6,508.8c3.6,0,10.2,0,10.7,1.7c0.1,0.4-0.2,0.8-0.6,0.8h-9.5
					c-0.4,0-0.9-0.3-0.9-0.8l-0.2-0.9C1264.8,509.1,1265.1,508.8,1265.6,508.8L1265.6,508.8z M1266.7,512.4h9.5
					c0.4,0,0.9,0.4,0.9,0.8l0.2,1c0.1,0.4-0.2,0.8-0.6,0.8h-9.5c-0.4,0-0.9-0.4-0.9-0.8l-0.2-1
					C1266,512.8,1266.2,512.4,1266.7,512.4L1266.7,512.4z M1267.7,515.9h9.5c0.4,0,0.9,0.4,0.9,0.8l0.2,0.9c0.1,0.4-0.2,0.8-0.6,0.8
					h-9.5c-0.4,0-0.9-0.3-0.9-0.8l-0.2-0.9C1266.9,516.3,1267.2,515.9,1267.7,515.9L1267.7,515.9z M1268.6,519.4h9.5
					c0.4,0,0.9,0.3,0.9,0.8l0.2,0.9c0.1,0.4-0.2,0.8-0.6,0.8h-9.5c-0.4,0-0.9-0.3-0.9-0.8l-0.2-0.9
					C1267.9,519.8,1268.2,519.4,1268.6,519.4L1268.6,519.4z M1269.6,522.9h9.5c0.4,0,0.9,0.4,1,0.8l0.2,1c0.1,0.4-0.2,0.8-0.6,0.8
					h-9.5c-0.4,0-0.9-0.4-1-0.8l-0.2-1C1268.9,523.3,1269.2,522.9,1269.6,522.9L1269.6,522.9z M1270.5,526.4h9.5
					c0.4,0,0.9,0.4,0.9,0.8l0.2,1c0.1,0.4-0.2,0.8-0.6,0.8h-9.5c-0.4,0-0.9-0.4-0.9-0.8l-0.2-1
					C1269.8,526.8,1270.1,526.4,1270.5,526.4L1270.5,526.4z M1271.2,530h9.5c0.4,0,0.9,0.4,0.9,0.8l0.2,0.9c0.1,0.4-0.2,0.8-0.6,0.8
					h-9.5c-0.4,0-0.9-0.3-0.9-0.8l-0.2-0.9C1270.4,530.3,1270.7,530,1271.2,530L1271.2,530z M1271.6,533.5h9.5
					c0.4,0,0.9,0.3,0.9,0.8l0.2,0.9c0.1,0.4-0.2,0.8-0.6,0.8h-9.5c-0.4,0-0.9-0.3-0.9-0.8l-0.2-0.9
					C1270.9,533.8,1271.2,533.5,1271.6,533.5L1271.6,533.5z"/>
				<g>
					<path class="st34" d="M1302.7,581.7c1.2,0.4,2.8,1,3.1,2.3c0.9,3.9,1,22.6,0.6,24.8c-0.3,1.2-1.3,2.4-2.8,3.4
						C1302,609.6,1301.4,587.8,1302.7,581.7L1302.7,581.7z"/>
					<path class="st28" d="M1285.3,617.2h18.2c3.2,0,5.7,2.6,5.7,5.7v3.8c0,3.1-2.6,5.7-5.7,5.7h-18.2c-3.1,0-5.7-2.6-5.7-5.7V623
						C1279.6,619.8,1282.1,617.2,1285.3,617.2L1285.3,617.2z"/>
					<path class="st28" d="M919.9,617.2h6.7c3.1,0,5.7,2.6,5.7,5.7v3.8c0,3.1-2.6,5.7-5.7,5.7h-6.7c-3.1,0-5.7-2.6-5.7-5.7V623
						C914.2,619.8,916.8,617.2,919.9,617.2L919.9,617.2z"/>
					<path class="st34" d="M923.6,556.9c-1.2,0.1-2.8,0.4-3.1,0.8c-0.9,1.4-1,8.1-0.6,8.9c0.2,0.4,1.3,0.9,2.8,1.2
						C924.4,566.9,924.9,559.1,923.6,556.9L923.6,556.9z"/>
					<path class="st27" d="M922.4,576.4c-5.9,1.1-6,17.9-0.8,19.9C923.2,594.6,923.7,580.4,922.4,576.4L922.4,576.4z"/>
				</g>
				<g>
					<path class="st6" d="M1287.3,506.1c-1.8-17.2-7.2-21.2-28-21.2h-222.2c-27.1,0-75.6,1.3-79.6,17L1287.3,506.1z"/>
					<path class="st30" d="M966.2,495.9l319.4,4.4c-2.8-8.9-8.7-12.2-15.3-12.2C1168.9,486.7,991.7,482,966.2,495.9L966.2,495.9z"/>
				</g>
				<g>
					<path class="st34" d="M1029.7,562.4c3.3,0,6,1.9,6,4.2c0,2.3-2.7,4.2-6,4.2s-6-1.9-6-4.2
						C1023.8,564.3,1026.4,562.4,1029.7,562.4L1029.7,562.4z"/>
					<path class="st6" d="M1022.7,565.7l16.4-0.9c1.2-0.1,1.2,3.7,0,3.6l-16.4-0.9C1022.1,567.5,1022.1,565.7,1022.7,565.7
						L1022.7,565.7z"/>
					<path class="st33" d="M1037.8,566.1c0.4,0,0.8,0.3,0.8,0.5c0,0.3-0.3,0.6-0.8,0.6c-0.4,0-0.7-0.3-0.7-0.6
						C1037,566.3,1037.4,566.1,1037.8,566.1L1037.8,566.1z"/>
				</g>
				<g>
					<path class="st33" d="M1005.4,603.1c16.2,0,29.3,13.1,29.3,29.3s-13.1,29.3-29.3,29.3c-16.2,0-29.3-13.1-29.3-29.3
						S989.2,603.1,1005.4,603.1L1005.4,603.1z"/>
					<path class="st35" d="M1005.4,612.7c10.9,0,19.7,8.8,19.7,19.7c0,10.9-8.8,19.7-19.7,19.7c-10.9,0-19.7-8.8-19.7-19.7
						C985.7,621.5,994.5,612.7,1005.4,612.7L1005.4,612.7z"/>
					<path class="st6" d="M1005.4,615.1c9.5,0,17.2,7.7,17.2,17.3s-7.7,17.3-17.2,17.3c-9.5,0-17.3-7.7-17.3-17.3
						S995.9,615.1,1005.4,615.1L1005.4,615.1z"/>
					<path class="st36" d="M1005.4,618.3c7.7,0,14,6.3,14,14s-6.3,14-14,14c-7.7,0-14-6.3-14-14S997.7,618.3,1005.4,618.3
						L1005.4,618.3z"/>
					<path class="st6" d="M1005.4,619.9c6.9,0,12.5,5.6,12.5,12.5s-5.6,0-12.5,0c-6.9,0-12.5,6.9-12.5,0S998.5,619.9,1005.4,619.9
						L1005.4,619.9z"/>
				</g>
				<g>
					<rect x="1029.4" y="468.8" class="st6" width="229.7" height="7.3"/>
					<rect x="1040.4" y="503.2" class="st37" width="12.8" height="3.3"/>
					<rect x="1149.8" y="503.2" class="st37" width="12.8" height="3.3"/>
					<rect x="1233.9" y="503.2" class="st37" width="12.8" height="3.3"/>
					<path class="st33" d="M1238.2,468.8h4.3v34.3h-4.3V468.8z M1044.7,468.8h4.3v34.3h-4.3V468.8z M1154.1,468.8h4.3v34.3h-4.3
						V468.8z"/>
				</g>
				<path class="st38" d="M1155,506.5l0.9,37.3l0.5,8.2v77h-1.3V552l-0.5-8.2l-0.9-37.3L1155,506.5z M940.3,551.3
					c1.2-3.5,4.7-6.4,8-8c3.4-10,10.1-29.5,16.8-37.4h76.1v37.8c1.2,2.3,1.6,5.6,1.3,8.1l0,42.5h-52.6c-12,0-18.5,31-25.9,31h-28.7
					C929.3,610.6,935,566.5,940.3,551.3L940.3,551.3z M935.9,624h27.9c6.2,0,13.1-31,25.9-31h51.4v-41.3c0.3-2.5-0.1-5.7-1.3-8
					v-36.7h-74.2c-6.8,8.3-12.8,26.6-16.3,37.1c-3.1,1.5-6.6,4.1-7.8,7.5C936.4,566.1,930.7,609.7,935.9,624L935.9,624z"/>
				<g>
					<path class="st33" d="M1226.6,603.1c16.2,0,29.3,13.1,29.3,29.3s-13.1,29.3-29.3,29.3c-16.2,0-29.3-13.1-29.3-29.3
						S1210.5,603.1,1226.6,603.1L1226.6,603.1z"/>
					<path class="st35" d="M1226.6,612.7c10.9,0,19.7,8.8,19.7,19.7c0,10.9-8.8,19.7-19.7,19.7c-10.9,0-19.7-8.8-19.7-19.7
						C1207,621.5,1215.8,612.7,1226.6,612.7L1226.6,612.7z"/>
					<path class="st6" d="M1226.6,615.1c9.5,0,17.3,7.7,17.3,17.3s-7.7,17.3-17.3,17.3c-9.5,0-17.3-7.7-17.3-17.3
						S1217.1,615.1,1226.6,615.1L1226.6,615.1z"/>
					<path class="st36" d="M1226.6,618.3c7.7,0,14,6.3,14,14s-6.3,14-14,14s-14-6.3-14-14S1218.9,618.3,1226.6,618.3L1226.6,618.3z"
						/>
					<path class="st6" d="M1226.6,619.9c6.9,0,12.5,5.6,12.5,12.5s-5.6,0-12.5,0c-6.9,0-12.5,6.9-12.5,0S1219.8,619.9,1226.6,619.9
						L1226.6,619.9z"/>
				</g>
				<g>
					<path class="st31" d="M971,509.7h59.9c2.3,0,4.3,1.9,4.3,4.6v21.8c0,3-1.6,5.6-4.7,5.6l-72.7,0c-2.4,0-4.3-3.2-3.2-5.4
						l10.9-22.8C966.3,511.4,968.7,509.7,971,509.7L971,509.7z"/>
					<path class="st32" d="M971,511.5c-1.6,0-3.4,1.3-4.1,2.8L956.1,537c-0.5,1,0.5,2.8,1.6,2.8l72.7,0c2.2,0,2.9-1.9,2.9-3.8v-21.8
						c0-1.5-0.9-2.8-2.5-2.8H971z"/>
					<path class="st39" d="M986.5,511.5h4.9L975,539.8h-4.9L986.5,511.5z M1023.3,511.5h1.9l-16.4,28.4h-1.9L1023.3,511.5z
						 M1009.6,511.5h11.9l-16.4,28.4h-11.9L1009.6,511.5z"/>
				</g>
				<g>
					<path class="st31" d="M1055.8,509.7h87.3c2.4,0,4.3,1.9,4.3,4.6v21.8c0,3-1.6,5.6-4.7,5.6l-86.5,0c-2.4,0-4-2-4-5.4v-22.8
						C1052.1,511.2,1053.5,509.7,1055.8,509.7L1055.8,509.7z"/>
					<path class="st32" d="M1055.8,511.5c-1.3,0-1.9,0.7-1.9,2v22.8c0,1.5,0.3,3.6,2.2,3.6l86.5,0c2.2,0,2.9-1.9,2.9-3.8v-21.8
						c0-1.5-0.9-2.8-2.5-2.8H1055.8z"/>
					<path class="st39" d="M1096.8,511.5h4.9l-16.4,28.4h-4.9L1096.8,511.5z M1133.6,511.5h1.9l-16.4,28.4h-1.9L1133.6,511.5z
						 M1119.9,511.5h11.9l-16.4,28.4h-11.9L1119.9,511.5z"/>
				</g>
				<g>
					<path class="st31" d="M1163.9,509.7h87.3c4.4,0,8.5,4.7,9.4,10.3l2.5,16.1c0.5,3-1.5,5.6-4.7,5.6l-94.1,0c-2.4,0-4-2-4-5.4
						v-22.8C1160.3,511.2,1161.6,509.7,1163.9,509.7L1163.9,509.7z"/>
					<path class="st32" d="M1163.9,511.5c-1.3,0-1.9,0.7-1.9,2v22.8c0,1.5,0.3,3.6,2.2,3.6l94.1,0c2,0,3.3-1.5,3-3.5l-2.5-16.1
						c-0.4-2.3-1.4-4.6-2.9-6.3c-1.2-1.3-2.9-2.5-4.7-2.5H1163.9z"/>
					<path class="st39" d="M1206.1,511.5h4.9l-16.4,28.4h-4.9L1206.1,511.5z M1242.9,511.5h1.9l-16.4,28.4h-1.9L1242.9,511.5z
						 M1229.2,511.5h11.9l-16.4,28.4h-11.9L1229.2,511.5z"/>
				</g>
				<g>
					<path class="st35" d="M1084.5,468.8h61.9c3.5,0,6.4-2.9,6.4-6.4v-10.7c0-3.5-2.9-6.4-6.4-6.4h-61.9c-3.5,0-6.4,2.9-6.4,6.4
						v10.7C1078.1,466,1081,468.8,1084.5,468.8L1084.5,468.8z"/>
					<path class="st6" d="M1078.1,456.7h74.7v-1.4h-74.7V456.7z M1078.1,458.9h74.7v-1.4h-74.7V458.9z"/>
				</g>
				<g>
					<path class="st40" d="M1159.7,468.8h61.9c3.5,0,6.4-2.9,6.4-6.4v-10.7c0-3.5-2.9-6.4-6.4-6.4h-61.9c-3.5,0-6.4,2.9-6.4,6.4
						v10.7C1153.4,466,1156.2,468.8,1159.7,468.8L1159.7,468.8z"/>
					<path class="st6" d="M1153.4,456.7h74.7v-1.4h-74.7V456.7z M1153.4,458.9h74.7v-1.4h-74.7V458.9z"/>
				</g>
			</g>
		</g>
		<g id="clouds_2_" class="st4">
			<path class="st10" d="M295.4,249.5c-5.2-14.2-18.8-24.3-34.8-24.3c-3.1,0-6.1,0.4-9,1.1c-2.6-13-14.1-22.8-27.8-22.8
				c-12.7,0-23.4,8.3-27.1,19.8l0,0c-5.1-7.2-13.5-12-23.1-12c-4,0-7.8,0.8-11.2,2.3c0,0,0,0,0,0c-2.1-3.3-4.9-6.1-8.1-8.3
				c0.1-0.7,0.1-1.4,0.1-2.2c0-12.1-9.8-22-22-22c-9,0-16.7,5.4-20.1,13.2c-5.3-7.9-14.4-13.2-24.7-13.2
				c-16.4,0-29.8,13.3-29.8,29.8c0,0.1,0,0.3,0,0.4c-0.7-0.1-1.4-0.1-2.2-0.1c-13.4,0-24.2,10.8-24.2,24.2c0,3.4,0.7,6.6,2,9.6
				c-3.5,0.5-6.7,2.1-9.2,4.3c-3.5,3.2-5.7,7.7-5.7,12.8h6.9h27.7h103.9h33.2h33.3H271h26.7C297.6,257.8,296.8,253.4,295.4,249.5z"
				/>
			<g>
				<path class="st10" d="M1064.9,280.2c0-4,1.7-7.7,4.5-10.2c2.5-2.3,5.8-3.7,9.5-3.7c1.2,0,2.4,0.2,3.5,0.5
					c1.6-13.4,13-23.7,26.8-23.7c8.6,0,16.3,4,21.2,10.3c0.8,1,1.5,2,2.1,3.1c1.2-1.2,2.6-2.2,4.1-3.1c3-1.8,6.5-2.8,10.3-2.8
					c11,0,19.9,8.6,20.5,19.4h0c5.7,0,10.3,4.6,10.3,10.2H1064.9z"/>
			</g>
			<g>
				<path class="st10" d="M1103.6,141.3c0-1.8-0.5-3.4-1.4-4.8c-1.6-2.6-4.5-4.3-7.8-4.3c-0.6,0-1.1,0-1.6,0.1l0,0
					c0-0.3,0-0.6,0-0.9c0-5.5-4.4-9.9-9.9-9.9c-0.4,0-0.9,0-1.3,0.1c-2.3-4.5-6.9-7.6-12.3-7.5c-5.7,0.1-10.5,3.7-12.5,8.7
					c-2,0.8-3.7,2.3-4.8,4.2l0,0c-0.4-0.1-0.8-0.1-1.2-0.1c-5,0-9,3.7-9.6,8.5c-0.6-0.2-1.2-0.3-1.8-0.3c-1.5,0-2.8,0.5-3.9,1.4
					c-1.4,1.1-2.3,2.9-2.3,4.8H1103.6z"/>
			</g>
			<g>
				<path class="st10" d="M1179.5,94.7c0-0.9-0.3-1.7-0.7-2.4c-0.8-1.3-2.2-2.2-3.9-2.2c-0.3,0-0.6,0-0.8,0.1l0,0c0-0.2,0-0.3,0-0.5
					c0-2.7-2.2-5-5-5c-0.2,0-0.4,0-0.7,0c-1.1-2.3-3.5-3.8-6.2-3.8c-2.8,0-5.3,1.8-6.2,4.3c-1,0.4-1.9,1.2-2.4,2.1l0,0
					c-0.2,0-0.4,0-0.6,0c-2.5,0-4.5,1.9-4.8,4.3c-0.3-0.1-0.6-0.1-0.9-0.1c-0.7,0-1.4,0.3-1.9,0.7c-0.7,0.6-1.2,1.4-1.2,2.4H1179.5z
					"/>
			</g>
			<g>
				<path class="st10" d="M200.4,94.7c0-0.9-0.3-1.7-0.7-2.4c-0.8-1.3-2.2-2.2-3.9-2.2c-0.3,0-0.5,0-0.8,0.1h0c0-0.2,0-0.3,0-0.5
					c0-2.7-2.2-5-5-5c-0.2,0-0.4,0-0.7,0c-1.1-2.3-3.5-3.8-6.2-3.8c-2.9,0-5.3,1.8-6.2,4.3c-1,0.4-1.9,1.2-2.4,2.1l0,0
					c-0.2,0-0.4,0-0.6,0c-2.5,0-4.5,1.9-4.8,4.3c-0.3-0.1-0.6-0.1-0.9-0.1c-0.7,0-1.4,0.3-1.9,0.7c-0.7,0.6-1.2,1.4-1.2,2.4H200.4z"
					/>
			</g>
			<g>
				<path class="st10" d="M953.8,90.2c0-2.4-0.7-4.6-1.9-6.5c-2.2-3.5-6.1-5.9-10.5-5.9c-0.8,0-1.5,0.1-2.2,0.2l0,0
					c0-0.4,0.1-0.8,0.1-1.2c0-7.4-6-13.4-13.4-13.4c-0.6,0-1.2,0-1.8,0.1c-3-6.1-9.4-10.3-16.7-10.2c-7.7,0.1-14.3,5-16.9,11.7
					c-2.7,1.1-5,3.1-6.5,5.7l0,0c-0.5-0.1-1.1-0.1-1.7-0.1c-6.7,0-12.2,5.1-13,11.6c-0.8-0.2-1.6-0.4-2.4-0.4c-2,0-3.8,0.7-5.2,1.8
					c-1.9,1.5-3.1,3.9-3.1,6.5H953.8z"/>
			</g>
			<g>
				<path class="st10" d="M588.7,122.5c0-3.5-1-6.8-2.7-9.5c-3.2-5.1-8.9-8.5-15.3-8.5c-1.1,0-2.2,0.1-3.2,0.3l0,0
					c0.1-0.6,0.1-1.2,0.1-1.8c0-10.8-8.8-19.6-19.6-19.6c-0.9,0-1.7,0.1-2.6,0.2c-4.4-8.9-13.7-15-24.3-14.8
					c-11.3,0.1-20.8,7.2-24.7,17.1c-4,1.6-7.3,4.6-9.4,8.3l0,0c-0.8-0.1-1.6-0.2-2.5-0.2c-9.8,0-17.9,7.4-18.9,16.9
					c-1.1-0.3-2.3-0.5-3.5-0.5c-2.9,0-5.5,1-7.6,2.7c-2.8,2.2-4.6,5.7-4.6,9.5H588.7z"/>
			</g>
			<g class="st41">
				<path class="st10" d="M281.4,98c0-2.2,0.9-4.2,2.4-5.6c1.4-1.3,3.2-2,5.2-2c0.7,0,1.3,0.1,1.9,0.3c0.9-7.3,7.1-12.9,14.6-12.9
					c4.7,0,8.9,2.2,11.6,5.6c0.4,0.5,0.8,1.1,1.1,1.7c0.7-0.7,1.4-1.2,2.2-1.7c1.7-1,3.6-1.5,5.6-1.5c6,0,10.9,4.7,11.2,10.6h0
					c3.1,0,5.6,2.5,5.6,5.6H281.4z"/>
			</g>
		</g>
		<g class="st4">
			<g>
				<path class="st42" d="M264.9,129.8h-2.7c0-9.2-11.6-16.7-25.8-16.7c-0.7,0-1.3-0.6-1.3-1.3c0-0.7,0.6-1.3,1.3-1.3
					c12.7,0,23.4,5.7,27.1,13.5c3.7-7.8,14.4-13.5,27.1-13.5c0.7,0,1.3,0.6,1.3,1.3c0,0.7-0.6,1.3-1.3,1.3
					C276.5,113.1,264.9,120.6,264.9,129.8z"/>
			</g>
			<g>
				<path class="st42" d="M287.5,78h-2.7c0-4.8-6.2-8.7-13.7-8.7c-0.7,0-1.3-0.6-1.3-1.3c0-0.7,0.6-1.3,1.3-1.3
					c6.8,0,12.6,2.8,15.1,6.8c2.5-4,8.2-6.8,15.1-6.8c0.7,0,1.3,0.6,1.3,1.3c0,0.7-0.6,1.3-1.3,1.3C293.7,69.3,287.5,73.2,287.5,78z
					"/>
			</g>
			<g>
				<path class="st42" d="M133.2,340.7h-2.7c0-4.8-6.2-8.7-13.7-8.7c-0.7,0-1.3-0.6-1.3-1.3c0-0.7,0.6-1.3,1.3-1.3
					c6.8,0,12.6,2.8,15.1,6.8c2.5-4,8.2-6.8,15.1-6.8c0.7,0,1.3,0.6,1.3,1.3c0,0.7-0.6,1.3-1.3,1.3
					C139.4,332,133.2,335.9,133.2,340.7z"/>
			</g>
			<g>
				<path class="st42" d="M1217.2,397.8h-2.7c0-4.8-6.2-8.7-13.7-8.7c-0.7,0-1.3-0.6-1.3-1.3c0-0.7,0.6-1.3,1.3-1.3
					c6.8,0,12.6,2.8,15.1,6.8c2.5-4,8.2-6.8,15.1-6.8c0.7,0,1.3,0.6,1.3,1.3c0,0.7-0.6,1.3-1.3,1.3
					C1223.3,389.1,1217.2,393,1217.2,397.8z"/>
			</g>
			<g>
				<path class="st42" d="M178.7,364.3H176c0-4.8-6.2-8.7-13.7-8.7c-0.7,0-1.3-0.6-1.3-1.3c0-0.7,0.6-1.3,1.3-1.3
					c6.8,0,12.6,2.8,15.1,6.8c2.5-4,8.2-6.8,15.1-6.8c0.7,0,1.3,0.6,1.3,1.3c0,0.7-0.6,1.3-1.3,1.3
					C184.8,355.6,178.7,359.5,178.7,364.3z"/>
			</g>
			<g>
				<path class="st42" d="M1179.2,365.5h-2.1c0-3.7-4.8-6.8-10.8-6.8c-0.6,0-1.1-0.5-1.1-1.1c0-0.6,0.5-1,1.1-1
					c5.4,0,9.9,2.2,11.8,5.3c2-3.2,6.5-5.3,11.8-5.3c0.6,0,1.1,0.5,1.1,1c0,0.6-0.5,1.1-1.1,1.1
					C1184.1,358.7,1179.2,361.7,1179.2,365.5z"/>
			</g>
			<g>
				<path class="st42" d="M775,188.2h-2.1c0-3.7-4.8-6.8-10.8-6.8c-0.6,0-1.1-0.5-1.1-1.1c0-0.6,0.5-1,1.1-1c5.4,0,9.9,2.2,11.8,5.3
					c2-3.2,6.5-5.3,11.8-5.3c0.6,0,1.1,0.5,1.1,1c0,0.6-0.5,1.1-1.1,1.1C779.8,181.4,775,184.5,775,188.2z"/>
			</g>
			<g>
				<path class="st42" d="M729.7,204.7H727c0-4.8-6.2-8.7-13.7-8.7c-0.7,0-1.3-0.6-1.3-1.3c0-0.7,0.6-1.3,1.3-1.3
					c6.8,0,12.6,2.8,15.1,6.8c2.5-4,8.2-6.8,15.1-6.8c0.7,0,1.3,0.6,1.3,1.3c0,0.7-0.6,1.3-1.3,1.3
					C735.8,196,729.7,199.9,729.7,204.7z"/>
			</g>
			<g>
				<path class="st42" d="M1123.9,179.5h-2.7c0-4.8-6.2-8.7-13.7-8.7c-0.7,0-1.3-0.6-1.3-1.3c0-0.7,0.6-1.3,1.3-1.3
					c6.8,0,12.6,2.8,15.1,6.8c2.5-4,8.2-6.8,15.1-6.8c0.7,0,1.3,0.6,1.3,1.3c0,0.7-0.6,1.3-1.3,1.3
					C1130,170.8,1123.9,174.7,1123.9,179.5z"/>
			</g>
			<g>
				<path class="st42" d="M1163.1,195.2h-2.7c0-4.8-6.2-8.7-13.7-8.7c-0.7,0-1.3-0.6-1.3-1.3c0-0.7,0.6-1.3,1.3-1.3
					c6.8,0,12.6,2.8,15.1,6.8c2.5-4,8.2-6.8,15.1-6.8c0.7,0,1.3,0.6,1.3,1.3c0,0.7-0.6,1.3-1.3,1.3
					C1169.3,186.5,1163.1,190.4,1163.1,195.2z"/>
			</g>
		</g>
	</g>
</g>
</svg>
