<svg xmlns="http://www.w3.org/2000/svg" xmlns:xlink="http://www.w3.org/1999/xlink" viewBox="0 0 1368 704"><defs><style>.cls-1{fill:none;}.cls-2{clip-path:url(#clip-path);}.cls-3{fill:#eee;}.cls-4{clip-path:url(#clip-path-2);}.cls-5{fill:#e5e5e5;}.cls-6{fill:#fff;}.cls-7{fill:#1d2542;}.cls-8{fill:#bccec3;}.cls-9{fill:#adbcb2;}.cls-10{fill:#b8c1bb;}.cls-11{fill:#aab2ac;}.cls-12{fill:#8ea899;}.cls-13{fill:#eae6dc;}.cls-14{clip-path:url(#clip-path-28);}.cls-15{fill:#faf7ee;}.cls-16{fill:#5c1d19;}</style><clipPath id="clip-path"><rect class="cls-1" width="1368" height="704"/></clipPath><clipPath id="clip-path-2"><polyline class="cls-1" points="1368 744.6 -2.6 744.6 -2.6 -13.7 1368 -13.7 1368 744.6"/></clipPath><clipPath id="clip-path-28"><path class="cls-1" d="M162.4,450.7a.72.72,0,0,0-.6.4l.4-.1c-1.3.4-.6,6.7,1,6.8h.1c.2,0,.3-.1.5-.2"/></clipPath></defs><title>Plan de travail 1</title><g id="Calque_2" data-name="Calque 2"><g class="cls-2"><polyline class="cls-3" points="1368 744.6 -2.6 744.6 -2.6 -13.7 1368 -13.7 1368 744.6"/><g class="cls-4"><polyline class="cls-5" points="-2.6 -13.7 1368 -13.7 1368 744.6 -2.6 744.6 -2.6 -13.7"/></g><g class="cls-4"><path class="cls-5" d="M830.5,709.6c-410.6,0-743.4-180.9-743.4-403.9,0-111.5,83.2-212.5,217.7-285.6Q330,6.45,357.6-6c9.2-4.1,18.5-8.1,28.1-12v3.6h889.6V-18c9.5,3.9,18.9,7.9,28.1,12q27.6,12.3,52.8,26.1c4.2,2.3,8.4,4.6,12.5,6.9,2.1,1.2,4.1,2.3,6.1,3.5H1369V580.8h5.8c-2,1.2-4.1,2.4-6.1,3.5-4.1,2.3-8.3,4.7-12.5,6.9-134.5,73.2-320.4,118.4-525.7,118.4"/></g><g class="cls-4"><path class="cls-5" d="M830.5,695.1c-395.9,0-716.9-174.4-716.9-389.5,0-107.6,80.2-204.9,210-275.4A803,803,0,0,1,429.7-17.4v2.9h801.6v-2.9a790.2,790.2,0,0,1,106.1,47.6q12.15,6.6,23.7,13.5c3.9,2.3,7.7,4.6,11.4,7h-3.6V560.5h3.6c-3.8,2.4-7.6,4.7-11.4,7q-11.55,6.9-23.7,13.5c-129.7,70.6-308.9,114.1-506.9,114.1"/><path class="cls-5" d="M830.5,694.6c-197.88,0-377-43.59-506.67-114C259,545.36,206.56,503.43,170.34,456.9S114.1,359.25,114.1,305.6s20-104.79,56.22-151.31S259,65.86,323.84,30.64a801.93,801.93,0,0,1,106-47.57l-.17-.47h-.5V-14h802.6v-3.4h-.5l-.17.47a789.16,789.16,0,0,1,106,47.57q12.15,6.6,23.68,13.49h0c3.89,2.3,7.69,4.59,11.38,7l.27-.42v-.5h-4.1V561h4.1v-.5l-.27-.42c-3.79,2.39-7.59,4.69-11.39,7h0q-11.53,6.9-23.68,13.49c-129.6,70.55-308.73,114-506.66,114v1c198.07,0,377.35-43.51,507.14-114.16q12.15-6.6,23.72-13.51h0c3.8-2.3,7.6-4.6,11.41-7l1.46-.92h-4.83V51.2h4.79l-1.42-.92c-3.71-2.41-7.51-4.71-11.42-7h0q-11.56-6.9-23.72-13.51a791.8,791.8,0,0,0-106.17-47.63l-.67-.25V-15H430.2v-3.12l-.67.25A804,804,0,0,0,323.36,29.76C258.41,65,205.86,107,169.53,153.68s-56.43,98-56.43,151.92,20.11,105.25,56.45,151.91c109,140,363.92,238.08,661,238.09v-1Z"/></g><g class="cls-4"><path class="cls-5" d="M830.5,666.3c-366.6,0-663.8-161.5-663.8-360.7,0-99.6,74.3-189.8,194.4-255a733,733,0,0,1,98.2-44Q485.85-3.15,514-11.5c9.4-2.8,19-5.4,28.6-8v5h575.6v-5c9.7,2.5,19.2,5.2,28.6,8,18.8,5.6,37.1,11.6,54.7,18.1a745.85,745.85,0,0,1,98.2,44q22.5,12.3,42.8,25.6c6.8,4.5,13.3,9,19.7,13.6,3.2,2.3,6.3,4.7,9.4,7h-2.9V514.4h2.9c-3.1,2.4-6.2,4.7-9.4,7-6.4,4.6-12.9,9.2-19.7,13.6-13.5,8.9-27.8,17.5-42.8,25.6-119.9,65.3-285.9,105.7-469.2,105.7"/></g><g class="cls-4"><path class="cls-5" d="M830.5,651.9c-351.9,0-637.2-155-637.2-346.2,0-95.6,71.3-182.2,186.6-244.8C437.6,29.6,506.2,4.2,582.5-13.3c9.5-2.2,19.2-4.3,28.9-6.2v5.2h438.2v-5.2c9.8,1.9,19.4,4,28.9,6.2,76.2,17.5,144.9,42.9,202.5,74.2,28.8,15.7,54.9,32.8,77.8,51.2,5.7,4.6,11.2,9.3,16.6,14h-6.5V485.2h6.5c-5.3,4.8-10.8,9.4-16.6,14a518.62,518.62,0,0,1-77.8,51.2C1165.8,613.1,1006.5,651.9,830.5,651.9Z"/></g><g class="cls-4"><path class="cls-5" d="M830.5,637.4c-337.3,0-610.7-148.6-610.7-331.8C219.8,214,288.2,131,398.7,71,454,41,519.8,16.7,592.8-.1A1006.39,1006.39,0,0,1,707.4-19.4v5H953.6v-5A1006.39,1006.39,0,0,1,1068.2-.1C1141.3,16.7,1207.1,41,1262.3,71a507,507,0,0,1,74.6,49.1,371.58,371.58,0,0,1,30.6,27.4c2.4,2.4,4.6,4.7,6.9,7.1H1369V456.7h5.4c-2.2,2.4-4.5,4.8-6.9,7.1a390.76,390.76,0,0,1-30.6,27.4c-21.9,17.7-46.9,34.1-74.6,49.1C1151.8,600.3,999.2,637.4,830.5,637.4Z"/><path class="cls-5" d="M830.5,637.4v-.5c-168.58,0-321.18-37.14-431.6-97.14-55.21-30-99.87-65.71-130.72-105.34S220.3,351.27,220.3,305.6s17-89.21,47.91-128.84,75.53-75.35,130.73-105.32,121-54.26,194-71A1002.93,1002.93,0,0,1,707.46-18.9l-.06-.5h-.5v5.5H954.1v-5.5h-.5l-.06.5A1002.93,1002.93,0,0,1,1068.09.39c73.06,16.79,138.82,41.07,194,71.05a506.8,506.8,0,0,1,74.53,49.05,374.05,374.05,0,0,1,30.56,27.36c2.39,2.4,4.59,4.7,6.89,7.1l.36-.35v-.5h-5.9V457.2h5.9v-.5l-.37-.34c-2.19,2.4-4.49,4.79-6.88,7.08h0a393.56,393.56,0,0,1-30.56,27.36c-21.88,17.68-46.85,34.06-74.53,49.05-110.41,59.95-262.93,97-431.56,97v1c168.77,0,321.44-37.11,432-97.16,27.72-15,52.75-31.43,74.67-49.15a388,388,0,0,0,30.64-27.44l-.35-.35.35.36c2.41-2.31,4.71-4.72,6.92-7.12l.77-.84h-6V155.1h6.07l-.81-.85c-2.3-2.4-4.5-4.7-6.91-7.1a369.15,369.15,0,0,0-30.64-27.44,507.13,507.13,0,0,0-74.67-49.15c-55.25-30-121.09-54.34-194.23-71.15A1009.66,1009.66,0,0,0,953.65-19.9L953.1-20v5.06H707.9V-20l-.55.06A1009.66,1009.66,0,0,0,592.69-.59c-73,16.81-138.88,41.13-194.23,71.15s-100.07,65.81-131,105.58S219.3,259.67,219.3,305.6,236.44,395.28,267.39,435c92.88,119.27,310,202.85,563.11,202.86Z"/></g><g class="cls-4"><path class="cls-5" d="M830.5,623c-322.6,0-584.1-142.1-584.1-317.4S507.9-11.8,830.5-11.8c161.3,0,307.3,35.5,413,93,52.9,28.7,95.6,62.9,125.2,100.9,1.9,2.4,3.6,4.8,5.4,7.2h-5.2V422h5.2q-2.55,3.6-5.4,7.2c-29.6,38-72.3,72.2-125.2,100.9C1137.9,587.5,991.8,623,830.5,623Z"/></g><g class="cls-4"><path class="cls-5" d="M830.5,608.6c-307.9,0-557.6-135.6-557.6-303S522.5,2.6,830.5,2.6c154,0,293.4,33.9,394.3,88.7,50.5,27.4,91.3,60.1,119.5,96.3a242.55,242.55,0,0,1,18.8,27.8q4.05,7,7.5,14.4H1369V381.2h1.6q-3.45,7.2-7.5,14.4a222.65,222.65,0,0,1-18.8,27.8c-28.2,36.2-69,68.9-119.5,96.3C1123.9,574.7,984.5,608.6,830.5,608.6Z"/></g><g class="cls-4"><ellipse class="cls-5" cx="830.5" cy="305.6" rx="531" ry="288.5"/></g><g class="cls-4"><ellipse class="cls-5" cx="830.5" cy="305.6" rx="504.5" ry="274.1"/><path class="cls-5" d="M830.5,31.5V32c139.24,0,265.29,30.67,356.5,80.22,45.6,24.78,82.48,54.27,108,87s39.54,68.66,39.54,106.38S1320.43,379.26,1295,412c-76.41,98.18-255.6,167.22-464.46,167.21C691.26,579.2,565.21,548.53,474,499c-45.6-24.78-82.49-54.27-108-87S326.5,343.32,326.5,305.6,340.57,231.94,366,199.22C442.45,101,621.64,32,830.5,32V31c-139.39,0-265.58,30.69-357,80.34-45.7,24.83-82.69,54.4-108.28,87.26s-39.75,69-39.75,107,14.17,74.14,39.75,107C442,511.17,621.42,580.19,830.5,580.2c139.39,0,265.58-30.69,357-80.34,45.7-24.83,82.69-54.4,108.28-87.26s39.75-69,39.75-107-14.17-74.14-39.75-107C1219,100,1039.58,31,830.5,31Z"/></g><g class="cls-4"><ellipse class="cls-5" cx="830.5" cy="305.6" rx="477.9" ry="259.7"/></g><g class="cls-4"><ellipse class="cls-5" cx="830.5" cy="305.6" rx="451.4" ry="245.3"/><path class="cls-5" d="M830.5,60.3v.5c124.58,0,237.36,27.44,319,71.79,40.8,22.17,73.79,48.56,96.58,77.84s35.37,61.43,35.37,95.17-12.58,65.89-35.37,95.17c-68.35,87.85-228.66,149.64-415.53,149.63-124.58,0-237.36-27.44-318.95-71.79-40.8-22.17-73.79-48.56-96.58-77.84S379.6,339.34,379.6,305.6s12.58-65.89,35.37-95.17C483.32,122.58,643.63,60.79,830.5,60.8v-1c-124.72,0-237.65,27.47-319.43,71.91-40.89,22.22-74,48.68-96.89,78.1S378.6,271.6,378.6,305.6s12.68,66.37,35.58,95.79c68.7,88.23,229.24,150,416.32,150,124.72,0,237.65-27.47,319.43-71.91,40.89-22.22,74-48.68,96.89-78.1s35.58-61.79,35.58-95.79-12.68-66.37-35.58-95.79c-68.7-88.23-229.24-150-416.32-150Z"/></g><g class="cls-4"><ellipse class="cls-5" cx="830.5" cy="305.6" rx="424.8" ry="230.8"/><path class="cls-5" d="M830.5,74.8v.5c117.23,0,223.36,25.82,300.14,67.54,38.39,20.86,69.44,45.69,90.88,73.23s33.28,57.79,33.28,89.53-11.84,62-33.28,89.53c-64.31,82.65-215.17,140.78-391,140.77-117.23,0-223.36-25.82-300.14-67.54-38.39-20.86-69.44-45.69-90.88-73.23S406.2,337.34,406.2,305.6s11.84-62,33.28-89.53c64.31-82.65,215.17-140.78,391-140.77v-1c-117.38,0-223.65,25.84-300.62,67.66-38.48,20.91-69.64,45.81-91.19,73.5S405.2,273.61,405.2,305.6s11.94,62.47,33.49,90.15c64.66,83,215.74,141.14,391.81,141.15,117.38,0,223.65-25.84,300.62-67.66,38.48-20.91,69.64-45.81,91.19-73.49s33.49-58.16,33.49-90.15-11.94-62.47-33.49-90.14c-64.66-83-215.74-141.15-391.81-141.16Z"/></g><g class="cls-4"><ellipse class="cls-5" cx="830.5" cy="305.6" rx="398.3" ry="216.4"/><path class="cls-5" d="M830.5,522v-.5c-109.93,0-209.43-24.21-281.41-63.33-36-19.55-65.1-42.83-85.2-68.65S432.7,335.35,432.7,305.6s11.09-58.1,31.19-83.92c60.29-77.47,201.72-132,366.61-132,109.93,0,209.43,24.21,281.41,63.33,36,19.55,65.1,42.83,85.2,68.65s31.19,54.17,31.19,83.92-11.09,58.1-31.19,83.92c-60.29,77.47-201.72,132-366.61,132v1c110.07,0,209.72-24.24,281.89-63.45,36.08-19.61,65.3-43,85.51-68.92s31.4-54.53,31.4-84.53-11.2-58.58-31.4-84.53C1137.26,143.21,995.61,88.71,830.5,88.7c-110.07,0-209.72,24.24-281.89,63.45-36.08,19.61-65.3,43-85.51,68.92s-31.4,54.53-31.4,84.53,11.2,58.58,31.4,84.53C523.74,468,665.39,522.49,830.5,522.5Z"/></g><g class="cls-4"><path class="cls-5" d="M830.5,507.6c-205.3,0-371.7-90.4-371.7-202s166.4-202,371.7-202,371.7,90.4,371.7,202S1035.8,507.6,830.5,507.6Z"/><path class="cls-5" d="M830.5,507.6v-.5c-102.58,0-195.43-22.59-262.6-59.09-33.58-18.25-60.74-40-79.5-64.07s-29.1-50.57-29.1-78.34,10.35-54.2,29.1-78.29C544.65,155,676.63,104.09,830.5,104.1c102.58,0,195.43,22.59,262.6,59.09,33.58,18.25,60.74,40,79.5,64.07s29.1,50.57,29.1,78.34v.1c0,27.76-10.35,54.21-29.11,78.3-56.27,72.28-188.27,123.11-342.09,123.1v1c102.69,0,195.69-22.6,263-59.18,33.68-18.29,61-40.08,79.83-64.3s29.32-50.9,29.32-78.92v-.1c0-28-10.45-54.71-29.31-79C1116.79,154,984.58,103.11,830.5,103.1c-102.72,0-195.72,22.64-263.08,59.25-33.67,18.31-60.94,40.11-79.81,64.34S458.3,277.6,458.3,305.6s10.45,54.71,29.31,78.95c56.6,72.7,188.81,123.54,342.89,123.55Z"/></g><g class="cls-4"><ellipse class="cls-5" cx="830.5" cy="305.7" rx="345.2" ry="187.5"/><path class="cls-5" d="M830.5,493.2v-.5c-95.23,0-181.45-21-243.84-54.88-31.19-16.94-56.41-37.11-73.83-59.47s-27-46.9-27-72.65,9.6-50.33,27-72.7C565,165.89,687.58,118.69,830.5,118.7c95.23,0,181.45,21,243.84,54.88,31.19,16.94,56.41,37.11,73.83,59.47s27,46.9,27,72.65-9.6,50.29-27,72.65C1096,445.45,973.42,492.71,830.5,492.7v1c95.42,0,181.8-21,244.35-55,31.28-17,56.61-37.23,74.12-59.73s27.23-47.27,27.23-73.27-9.71-50.77-27.24-73.27C1096.37,165,973.56,117.71,830.5,117.7c-95.42,0-181.8,21-244.35,55-31.28,17-56.61,37.23-74.12,59.73S484.8,279.67,484.8,305.7,494.51,356.47,512,379c52.59,67.48,175.4,114.72,318.46,114.73Z"/></g><g class="cls-4"><ellipse class="cls-5" cx="830.5" cy="305.6" rx="318.6" ry="173.1"/><path class="cls-5" d="M830.5,478.7v-.5c-87.93,0-167.5-19.36-225.06-50.64-28.78-15.64-52.05-34.25-68.11-54.89s-24.93-43.3-24.93-67.07,8.87-46.43,24.94-67.07C585.55,176.59,698.68,133,830.5,133c87.93,0,167.5,19.36,225.06,50.64,28.78,15.64,52,34.25,68.11,54.89s24.93,43.3,24.93,67.07-8.86,46.43-24.93,67.07C1075.49,434.61,962.39,478.21,830.5,478.2v1c88.07,0,167.79-19.39,225.54-50.76,28.87-15.69,52.25-34.38,68.42-55.15s25.14-43.66,25.14-67.69-9-46.91-25.14-67.69c-24.26-31.16-64.73-57.63-115.64-76.32S896.56,132,830.5,132c-88,0-167.75,19.39-225.5,50.76-28.88,15.69-52.27,34.38-68.45,55.15S511.4,281.57,511.4,305.6s9,46.91,25.14,67.69c24.26,31.16,64.73,57.63,115.64,76.32S764.44,479.2,830.5,479.2Z"/></g><g class="cls-4"><ellipse class="cls-5" cx="830.5" cy="305.6" rx="292.1" ry="158.7"/><path class="cls-5" d="M830.5,464.3v-.5c-80.58,0-153.53-17.74-206.3-46.4-26.38-14.33-47.72-31.39-62.45-50.31S538.9,327.4,538.9,305.6,547,263,561.75,244.11c22.09-28.38,59.06-52.57,105.62-69.65S770.07,147.4,830.5,147.4c80.58,0,153.53,17.74,206.3,46.4,26.38,14.33,47.72,31.39,62.45,50.31s22.85,39.69,22.85,61.49-8.12,42.57-22.85,61.49c-22.09,28.38-59.06,52.57-105.62,69.65S890.93,463.8,830.5,463.8v1c80.72,0,153.82-17.76,206.78-46.52,26.47-14.39,47.92-31.52,62.76-50.58s23.06-40.05,23.06-62.1-8.23-43.05-23.06-62.1c-22.26-28.59-59.38-52.85-106.06-70S891,146.4,830.5,146.4c-80.72,0-153.82,17.76-206.78,46.52C597.25,207.31,575.8,224.44,561,243.5s-23.06,40.05-23.06,62.1,8.23,43,23.06,62.1c22.26,28.59,59.38,52.85,106.06,70S770,464.8,830.5,464.8Z"/></g><g class="cls-4"><ellipse class="cls-5" cx="830.5" cy="305.6" rx="265.5" ry="144.3"/><path class="cls-5" d="M830.5,161.3v.5c73.24,0,139.55,16.14,187.5,42.2,24,13,43.36,28.54,56.74,45.74s20.76,36.06,20.76,55.86-7.38,38.66-20.76,55.86c-20.07,25.79-53.66,47.79-96,63.33S885.43,449.4,830.5,449.4c-73.24,0-139.55-16.14-187.5-42.2-24-13-43.36-28.54-56.74-45.74S565.5,325.4,565.5,305.6s7.38-38.66,20.76-55.86c20.07-25.79,53.66-47.79,96-63.33S775.57,161.8,830.5,161.8v-1c-73.39,0-139.84,16.16-188,42.33-24.07,13.08-43.56,28.66-57,46s-21,36.43-21,56.48,7.48,39.14,21,56.48c20.24,26,54,48.06,96.41,63.65S775.46,450.4,830.5,450.4c73.39,0,139.84-16.16,188-42.32,24.06-13.09,43.56-28.67,57-46s21-36.43,21-56.48-7.48-39.14-21-56.48c-20.24-26-54-48.06-96.41-63.65S885.54,160.8,830.5,160.8Z"/></g><g class="cls-4"><ellipse class="cls-5" cx="830.5" cy="305.7" rx="239" ry="129.8"/><path class="cls-5" d="M830.5,435.5V435c-65.93,0-125.6-14.51-168.76-37.95-21.58-11.72-39-25.67-51.06-41.13S592,323.5,592,305.7s6.64-34.76,18.68-50.22c18.05-23.19,48.28-43,86.36-56.95s84-22.13,133.46-22.13c65.93,0,125.6,14.51,168.76,37.95,21.58,11.72,39,25.67,51.06,41.13S1069,287.9,1069,305.7s-6.64,34.72-18.68,50.18c-18,23.18-48.28,43-86.36,57S879.94,435,830.5,435v1c66.07,0,125.9-14.56,169.24-38.11,21.67-11.78,39.22-25.8,51.37-41.4S1070,323.73,1070,305.7s-6.74-35.24-18.89-50.84c-18.22-23.39-48.6-43.25-86.81-57.27S880.06,175.4,830.5,175.4c-66.07,0-125.9,14.54-169.24,38.07-21.67,11.77-39.22,25.79-51.37,41.39S591,287.65,591,305.7s6.74,35.24,18.89,50.84c18.22,23.39,48.6,43.25,86.81,57.27S780.94,436,830.5,436Z"/></g><g class="cls-4"><ellipse class="cls-5" cx="830.5" cy="305.6" rx="212.4" ry="115.4"/><path class="cls-5" d="M830.5,421v-.5c-58.58,0-111.6-12.91-150-33.75-19.17-10.42-34.67-22.82-45.36-36.55s-16.59-28.8-16.59-44.6,5.89-30.86,16.59-44.6c16-20.6,42.89-38.19,76.73-50.61S786.57,190.7,830.5,190.7c58.58,0,111.6,12.91,150,33.75,19.17,10.42,34.67,22.82,45.36,36.55s16.59,28.8,16.59,44.6-5.89,30.9-16.59,44.64c-16,20.61-42.89,38.19-76.73,50.6S874.43,420.5,830.5,420.5v1c58.72,0,111.89-12.91,150.43-33.84,19.26-10.46,34.87-22.93,45.67-36.81s16.8-29.17,16.8-45.25-6-31.34-16.8-45.21c-16.2-20.81-43.21-38.47-77.18-50.94S874.54,189.7,830.5,189.7c-58.72,0-111.9,12.94-150.43,33.87C660.81,234,645.2,246.51,634.4,260.39s-16.8,29.16-16.8,45.21,6,31.34,16.8,45.21c16.2,20.81,43.21,38.47,77.18,50.94S786.46,421.5,830.5,421.5Z"/></g><g class="cls-4"><ellipse class="cls-5" cx="830.5" cy="305.6" rx="185.9" ry="101"/><path class="cls-5" d="M830.5,204.6v.5c51.26,0,97.66,11.29,131.21,29.52,16.78,9.11,30.33,20,39.69,32s14.5,25.19,14.5,39-5.15,27-14.5,39c-14,18-37.53,33.41-67.13,44.27S869,406.1,830.5,406.1c-51.26,0-97.66-11.29-131.21-29.52-16.78-9.11-30.33-20-39.69-32s-14.5-25.19-14.5-39,5.15-27,14.5-39c14-18,37.53-33.41,67.13-44.27S792.05,205.1,830.5,205.1v-1c-51.41,0-98,11.32-131.69,29.64-16.87,9.17-30.53,20.09-40,32.24S644.1,291.53,644.1,305.6s5.25,27.47,14.71,39.62c14.2,18.23,37.85,33.69,67.58,44.6S791.94,407.1,830.5,407.1c51.41,0,98-11.32,131.69-29.64,16.87-9.17,30.53-20.09,40-32.24s14.71-25.55,14.71-39.62-5.25-27.47-14.71-39.62c-14.2-18.23-37.85-33.69-67.58-44.6S869.06,204.1,830.5,204.1Z"/></g><g class="cls-4"><ellipse class="cls-5" cx="830.5" cy="305.6" rx="159.3" ry="86.6"/></g><g class="cls-4"><ellipse class="cls-5" cx="830.5" cy="305.6" rx="79.7" ry="43.3"/><path class="cls-5" d="M830.5,348.9v-.5c-21.93,0-41.78-4.84-56.11-12.63-7.17-3.89-12.95-8.52-16.93-13.63s-6.16-10.69-6.16-16.54,2.18-11.43,6.16-16.54c6-7.67,16-14.25,28.66-18.89s27.94-7.37,44.38-7.37c21.93,0,41.78,4.84,56.11,12.63,7.17,3.89,12.95,8.52,16.93,13.63s6.16,10.69,6.16,16.54-2.18,11.43-6.16,16.54c-6,7.67-16,14.25-28.66,18.89s-27.94,7.37-44.38,7.37v1c22.07,0,42.07-4.86,56.59-12.75,7.26-3.94,13.15-8.65,17.24-13.89s6.37-11.06,6.37-17.16-2.28-11.91-6.37-17.16c-6.14-7.87-16.32-14.52-29.1-19.21s-28.17-7.43-44.73-7.43c-22.07,0-42.07,4.86-56.59,12.75-7.26,3.94-13.15,8.65-17.24,13.89s-6.37,11.06-6.37,17.16,2.28,11.91,6.37,17.16c6.14,7.87,16.32,14.52,29.1,19.21s28.17,7.43,44.73,7.43Z"/></g><g class="cls-4"><ellipse class="cls-5" cx="830.5" cy="305.6" rx="53.1" ry="28.9"/><path class="cls-5" d="M830.5,334.5V334c-14.58,0-27.78-3.21-37.3-8.39A35.74,35.74,0,0,1,782,316.56a16.74,16.74,0,0,1,0-21.88c3.95-5.08,10.61-9.46,19-12.56a86.31,86.31,0,0,1,29.5-4.92c14.58,0,27.78,3.21,37.3,8.39A35.74,35.74,0,0,1,879,294.64a16.81,16.81,0,0,1,0,21.92c-3.94,5.08-10.58,9.46-19,12.55A86.94,86.94,0,0,1,830.5,334v1c14.77,0,28.12-3.24,37.81-8.51a36.41,36.41,0,0,0,11.52-9.32,17.79,17.79,0,0,0,0-23.14c-4.12-5.29-10.93-9.74-19.47-12.87a87.48,87.48,0,0,0-29.85-5c-14.72,0-28.07,3.26-37.78,8.55a36.87,36.87,0,0,0-11.54,9.32,17.72,17.72,0,0,0,0,23.1c4.12,5.3,10.93,9.74,19.47,12.87a87.48,87.48,0,0,0,29.85,5Z"/></g><g class="cls-4"><path class="cls-5" d="M830.5,320.1c-14.7,0-26.5-6.5-26.5-14.4s11.9-14.4,26.5-14.4,26.6,6.5,26.6,14.4S845.2,320.1,830.5,320.1Z"/><path class="cls-5" d="M830.5,320.1v-.5c-7.28,0-13.83-1.61-18.52-4.18a17.51,17.51,0,0,1-5.51-4.44,8.1,8.1,0,0,1,0-10.6c1.93-2.48,5.22-4.64,9.39-6.16a43,43,0,0,1,14.63-2.42c7.28,0,13.85,1.61,18.57,4.18a17.58,17.58,0,0,1,5.55,4.45,8,8,0,0,1,0,10.54c-1.94,2.48-5.23,4.65-9.42,6.19a43.27,43.27,0,0,1-14.7,2.44v1c7.42,0,14.15-1.64,19-4.3a18.63,18.63,0,0,0,5.85-4.71,9,9,0,0,0,0-11.78c-2.1-2.68-5.54-4.92-9.85-6.51a44.18,44.18,0,0,0-15-2.5c-7.37,0-14.07,1.61-19,4.26a18.49,18.49,0,0,0-5.85,4.71,9.09,9.09,0,0,0,0,11.82c2.09,2.68,5.51,4.92,9.8,6.51a43.92,43.92,0,0,0,15,2.5Z"/></g><path class="cls-6" d="M1164.6,241H858c-3.4-22.2,8.9-37.9,26.9-37.9a38.88,38.88,0,0,1,17.5,4.5,43.36,43.36,0,0,1,3.3-21.9c12.6-28.3,55.7-37.7,81.2-15.9-26.7-73.3,137.8-75.6,102.2,13.3,24.1-13.3,51.8-8.9,68,5.3C1170.8,200.6,1176.4,219.6,1164.6,241Z"/><path class="cls-7" d="M1056.6,140.2a26,26,0,0,0-1.9-2.8,17,17,0,0,0-4.3-3.8,15,15,0,0,0-5.2-2.1c-1.8-.4-3.3-.3-3.3-.4-.2,0-.6-2.1-.3-2.2a20.31,20.31,0,0,1,3.9-.7,13.35,13.35,0,0,1,7.3,1.7,13.56,13.56,0,0,1,4.8,5.8,9.43,9.43,0,0,1,.9,2.7c.2.7.3,1.1.3,1.1A6.26,6.26,0,0,1,1056.6,140.2Z"/><path class="cls-7" d="M1051.8,149.4s-4-2.5-6.1-4.2a11,11,0,0,1-1.8-1.4,11,11,0,0,0-1.8-1.4L1040,141a5.55,5.55,0,0,1,.6-2.2s1.2.2,2.9.6a13.36,13.36,0,0,1,4.8,2.3,29,29,0,0,1,5,6C1053.4,148.1,1052,149.4,1051.8,149.4Z"/><path class="cls-7" d="M1118.6,232a48.52,48.52,0,0,1-19.6,0,4.1,4.1,0,0,1,0-2.2,48.52,48.52,0,0,1,19.6,0A4.1,4.1,0,0,1,1118.6,232Z"/><path class="cls-7" d="M1113.7,222.1a12.5,12.5,0,0,1-9.8,0,8.09,8.09,0,0,1,0-2.2,12.5,12.5,0,0,1,9.8,0A8.09,8.09,0,0,1,1113.7,222.1Z"/><path class="cls-6" d="M549.2,182.2c4.3-25.9-19.4-38.9-45.4-30.2C527.6,41.9,348.3,24.6,365.6,132.6c-34.6-47.5-88.5,6.5-77.7,49.7h-2.2c86.4-.1,183.6-.1,263.5-.1"/><path class="cls-7" d="M449.4,82.3l-.6-1.2a19.45,19.45,0,0,1-.8-2.2,8.13,8.13,0,0,1,0-2.7,10.83,10.83,0,0,1,.3-1.6,6.69,6.69,0,0,1,2,0,11,11,0,0,1,.6,1.2,9.17,9.17,0,0,1,.9,2.3,8.88,8.88,0,0,1-.1,2.8c-.2.9-.4,1.5-.4,1.5A12.75,12.75,0,0,1,449.4,82.3Z"/><path class="cls-7" d="M459.5,88.1a60,60,0,0,1-2.6-7.5,57.85,57.85,0,0,1-.7-7.9c0-.2,1.9-.5,2-.4a60,60,0,0,1,2.6,7.5,57.85,57.85,0,0,1,.7,7.9A4.77,4.77,0,0,1,459.5,88.1Z"/><path class="cls-7" d="M466.2,90.2a33.24,33.24,0,0,1-.9-6.1,33.24,33.24,0,0,1,.9-6.1,6.69,6.69,0,0,1,2,0,33.24,33.24,0,0,1,.9,6.1,33.24,33.24,0,0,1-.9,6.1A6.7,6.7,0,0,1,466.2,90.2Z"/><path class="cls-7" d="M344.5,177.3a24.37,24.37,0,0,1-4.8-2.5,21.71,21.71,0,0,1-3.1-4.3c0-.1,1.3-1.5,1.4-1.4a36.23,36.23,0,0,1,4.3,2.7,23.52,23.52,0,0,1,3.3,3.7A4,4,0,0,1,344.5,177.3Z"/><path class="cls-7" d="M355.5,178.2a79.93,79.93,0,0,1-7.2-5.6,22.14,22.14,0,0,1-3.6-4.9c-.9-1.7-1.5-3-1.5-3-.1-.2,1.6-1.1,1.7-1s.9,1,2.2,2.2c1.1,1.3,2.9,2.6,4,3.9a67.37,67.37,0,0,1,5.8,6.9C356.9,177.1,355.7,178.3,355.5,178.2Z"/><path class="cls-7" d="M363.4,176a23.64,23.64,0,0,1-4-2.6,18.38,18.38,0,0,1-2.6-4,9.27,9.27,0,0,1,1.4-1.4,23.64,23.64,0,0,1,4,2.6,18.38,18.38,0,0,1,2.6,4A6.2,6.2,0,0,1,363.4,176Z"/><path class="cls-8" d="M513.2,431.2v73.3l-.1,12.9c-.7-.2-4.2,1-4.9,1.3-3.2,1.3-3.4-3-6.4-.6H490.9c-4.5,0-7.5-4.9-7.5-4.9l-.3-81.9h30.1Z"/><path class="cls-9" d="M367.7,448.4c26.4-20.1,44.7-58.4,47.4-58.3-6.4-.2-18-.5-18.4-.8,17.7-10.8,34.9-54,28.3-54-.9-.4-14.3-.9-19.3-1.3,30.8-16.6,44.7-52.2,43.9-52.3-4.4,1.6-18.3,3.1-27.1,4.6,34-23.4,44.2-54.9,37.1-54.8-.2.3,1-.1-4.3.2,15.6-20.9,38.6-93.8,42.2-94.3.4-.5,36.5,74.4,45.6,86.2-3.3.3-2,.6-4.8.9-8.7,0,4.1,30.1,32.7,53.6-11.1-.9-15.9-1.7-24.6-2.5-2.5-.1,24.7,36.3,44.6,55.4-6.3.6-10,1.2-23.6,1.8-.9,0,18.7,47.8,36,63.1-2.8-.3-5.9-.6-12.8-.8-9,0,7.6,44.1,40.2,76.2-1.3.1-31.3,12.4-58.7-4.6,1,0,5.8,12.5,17,17.4,10.2.1-21.3,9.2-43.6-15.4-1.2,0-6.8,7.5,7.2,20.4-.1.2-27,11.6-56.1-15.7-26.5,22.6-53.2,4.7-51.5,4.9,7.4-9.3,3.3-16.8,9.9-16.8-26.6,19.7-50.1,5.1-53.1,5.2,13.6-1.5,17-11.9,24.3-11.9C398.4,465.3,363.1,448.3,367.7,448.4Z"/><path class="cls-8" d="M1342.5,514.9v73.3l-.1,12.9c-.7-.2-4.2,1-4.9,1.3-3.2,1.3-3.4-3-6.4-.6h-10.9c-4.5,0-7.5-4.9-7.5-4.9l-.3-81.9Z"/><path class="cls-9" d="M1196.9,532c26.4-20.1,44.7-58.4,47.4-58.3-6.4-.2-18-.5-18.4-.8,17.7-10.8,34.9-54,28.3-54-.9-.4-14.3-.9-19.3-1.3,30.8-16.6,44.7-52.2,43.9-52.3-4.4,1.6-18.3,3.1-27.1,4.6,34-23.4,44.2-54.9,37.1-54.8-.2.3,1-.1-4.3.2,15.6-20.9,38.6-93.8,42.2-94.3.4-.5,36.5,74.4,45.6,86.2-3.3.3-2,.6-4.8.9-8.7,0,4.1,30.1,32.7,53.6-11.1-.9-15.9-1.7-24.6-2.5-2.5-.1,24.7,36.3,44.6,55.4-6.3.6-10,1.2-23.6,1.8-.9,0,18.7,47.8,36,63.1-2.8-.3-5.9-.6-12.8-.8-9,.1,7.6,44.1,40.2,76.2-1.3.1-31.3,12.4-58.7-4.6,1,0,5.8,12.5,17,17.4,10.2.1-21.3,9.2-43.6-15.4-1.2,0-6.8,7.5,7.2,20.4-.1.2-27,11.6-56.1-15.7-26.5,22.6-53.2,4.7-51.5,4.9,7.4-9.3,3.3-16.8,9.9-16.8-26.6,19.7-50.1,5.1-53.1,5.2,13.6-1.5,17-11.9,24.3-11.9C1227.6,548.9,1192.3,531.9,1196.9,532Z"/><path class="cls-8" d="M986.4,431.9v65.4c-.5-.2-3.2.8-3.8,1-2.4,1-2.6-2.3-4.8-.4h-8.3c-3.4,0-5.7-3.7-5.7-3.7l-.2-62.2Z"/><path class="cls-9" d="M875.9,444.9c20-15.3,33.9-44.3,36-44.3-4.8-.2-13.6-.4-14-.6,13.5-8.2,26.5-41,21.5-41-.7-.3-10.8-.7-14.7-1,23.4-12.6,34-39.7,33.3-39.7-3.4,1.2-13.9,2.4-20.6,3.5,25.8-17.8,33.5-41.7,28.1-41.6-.1.2.7-.1-3.3.1,11.8-15.9,29.3-71.2,32.1-71.6.3-.4,27.7,56.5,34.6,65.4-2.5.2-1.5.5-3.6.7-6.6,0,3.1,22.9,24.8,40.7-8.4-.7-12.1-1.3-18.7-1.9-1.9,0,18.7,27.6,33.9,42-4.8.5-7.6.9-17.9,1.4-.7,0,14.2,36.3,27.3,47.9-2.1-.2-4.5-.4-9.7-.6-6.8,0,5.7,33.5,30.5,57.9-1,.1-23.8,9.4-44.6-3.5.8,0,4.4,9.5,12.9,13.2,7.7.1-16.2,7-33.1-11.7-.9,0-5.2,5.7,5.4,15.5-.1.1-20.5,8.8-42.6-11.9-20.1,17.2-40.4,3.6-39.1,3.7,5.6-7,2.5-12.8,7.5-12.7-20.2,15-38,3.8-40.3,3.9,10.3-1.1,12.9-9,18.4-9C899.2,457.8,872.4,444.8,875.9,444.9Z"/><path class="cls-8" d="M302.1,442.3v55.6l-.1,9.8c-.5-.2-3.2.8-3.8,1-2.4,1-2.6-2.3-4.8-.4h-8.3c-3.4,0-5.7-3.7-5.7-3.7l-.2-62.2Z"/><path class="cls-9" d="M191.6,455.4c20-15.3,33.9-44.3,36-44.3-4.8-.2-13.6-.4-14-.6,13.5-8.2,26.5-41,21.5-41-.7-.3-10.8-.7-14.7-1,23.4-12.6,34-39.7,33.3-39.7-3.4,1.2-13.9,2.4-20.6,3.5,25.8-17.8,33.6-41.7,28.1-41.6-.1.2.7-.1-3.3.1,11.8-15.9,29.3-71.2,32.1-71.6.3-.4,27.7,56.5,34.6,65.4-2.5.2-1.5.5-3.6.7-6.6,0,3.1,22.9,24.8,40.7-8.4-.7-12.1-1.3-18.7-1.9-1.9,0,18.7,27.6,33.9,42-4.8.5-7.6.9-17.9,1.4-.7,0,14.2,36.3,27.3,47.9-2.1-.2-4.5-.4-9.7-.6-6.8,0,5.7,33.5,30.5,57.9-1,.1-23.8,9.4-44.6-3.5.8,0,4.4,9.5,12.9,13.2,7.7.1-16.2,7-33.1-11.7-.9,0-5.2,5.7,5.4,15.5-.1.1-20.5,8.8-42.6-11.9-20.1,17.2-40.4,3.6-39.1,3.7,5.6-7.1,2.5-12.8,7.5-12.7-20.2,15-38,3.8-40.3,3.9,10.3-1.1,12.9-9,18.4-9C214.9,468.2,188,455.3,191.6,455.4Z"/><path class="cls-10" d="M691.5,436.2v91.3l-.1,16c-.9-.3-5.2,1.2-6.2,1.6-4,1.6-4.2-3.7-7.9-.7H663.7c-5.6,0-9.4-6.1-9.4-6.1l-.3-102Z"/><path class="cls-11" d="M510.3,457.6c32.8-25.1,55.7-72.7,59-72.6-7.9-.3-22.4-.6-22.9-1,22.1-13.4,43.4-67.2,35.2-67.3-1.1-.5-17.8-1.1-24.1-1.7,38.3-20.6,55.7-65,54.7-65.1-5.5,2-22.8,3.9-33.8,5.7,42.3-29.2,55-68.3,46.2-68.3-.2.4,1.2-.2-5.4.2C638.6,161.4,667.3,70.7,671.8,70c.5-.7,45.5,92.7,56.8,107.3-4.1.4-2.5.8-6,1.2-10.8.1,5.1,37.5,40.7,66.8-13.8-1.1-19.8-2.2-30.7-3.2-3.1-.1,30.7,45.2,55.6,68.9-7.8.7-12.5,1.5-29.4,2.3-1.2-.1,23.3,59.5,44.8,78.6-3.5-.4-7.3-.7-15.9-1-11.2.1,9.4,55,50.1,94.9-1.6.2-39,15.5-73.1-5.7,1.3,0,7.2,15.6,21.2,21.6,12.7.2-26.6,11.5-54.3-19.2-1.4,0-8.5,9.4,8.9,25.4-.1.2-33.6,14.4-69.8-19.5-33,28.2-66.2,5.9-64.1,6.1,9.2-11.6,4.1-20.9,12.3-20.9-33.1,24.6-62.4,6.3-66.1,6.5,16.9-1.9,21.2-14.8,30.3-14.8C548.5,478.6,504.5,457.4,510.3,457.6Z"/><path class="cls-10" d="M48.4,468.3v64.6l-.1,11.3c-.6-.2-3.7.9-4.4,1.1-2.8,1.1-3-2.6-5.6-.5H28.7c-3.9,0-6.7-4.3-6.7-4.3l-.2-72.3H48.4Z"/><path class="cls-11" d="M152.2,503.4c-28.8-28.3-43.4-67.2-35.5-67.2,6.1.2,8.8.5,11.2.7-15.2-13.5-32.6-55.7-31.8-55.7,12-.5,15.3-1.1,20.8-1.6-17.6-16.8-41.6-48.9-39.4-48.8,7.7.7,12,1.5,21.7,2.2C74,312.3,62.7,285.7,70.3,285.7c2.5-.3,1.3-.6,4.2-.8-8-10.4-39.8-76.5-40.2-76-3.2.5-23.5,64.7-37.3,83.2,4.7-.3,3.7.1,3.8-.2,3.5,0,2.3,8.5-4.6,19.5V513.5c8.7,2.7,23,3.9,37.3-8.3,25.6,24.1,49.4,14,49.5,13.8-12.3-11.4-7.3-18-6.3-18,19.7,21.7,47.5,13.7,38.5,13.6-9.3-4-13.6-14.1-14.8-15.2C124.7,514.3,151,503.6,152.2,503.4Z"/><path class="cls-12" d="M262.1,453.1c25-17,42.4-49.4,45-49.4-6.1-.2-17-.4-17.5-.7,16.8-9.1,33.1-45.7,26.8-45.7-.8-.4-13.5-.7-18.3-1.1,29.2-14,42.4-44.2,41.7-44.3-4.2,1.3-17.4,2.6-25.7,3.9,32.2-19.8,41.9-46.4,35.2-46.4-.2.3.9-.1-4.1.2,14.8-17.7,36.6-79.4,40.1-79.8.4-.4,34.6,63,43.2,72.9-3.1.3-1.9.5-4.5.8-8.2,0,3.9,25.5,31,45.4-10.5-.8-15.1-1.5-23.4-2.1-2.4-.1,23.4,30.7,42.4,46.9-5.9.5-9.5,1-22.4,1.5-.9,0,17.8,40.4,34.2,53.4-2.7-.3-5.6-.5-12.1-.7-8.6,0,7.2,37.3,38.2,64.5-1.3.1-29.7,10.5-55.7-3.9,1,0,5.5,10.6,16.1,14.7,9.7.1-20.2,7.8-41.4-13-1.1,0-6.5,6.4,6.8,17.3-.1.2-25.6,9.8-53.2-13.3-25.1,19.1-50.5,4-48.8,4.1,7-7.9,3.1-14.2,9.4-14.2-25.2,16.7-47.5,4.3-50.3,4.4,12.9-1.3,16.1-10.1,23-10.1C291.2,467.4,257.7,453,262.1,453.1Z"/><path class="cls-12" d="M660.9,482.5c25-17,42.4-49.4,45-49.4-6.1-.2-17-.4-17.5-.7,16.8-9.1,33.1-45.7,26.8-45.7-.8-.4-13.5-.7-18.3-1.1,29.2-14,42.4-44.2,41.7-44.3-4.2,1.3-17.4,2.6-25.7,3.9,32.2-19.8,41.9-46.4,35.2-46.4-.2.3.9-.1-4.1.2,14.8-17.7,36.6-79.4,40.1-79.8.4-.4,34.6,63,43.2,72.9-3.1.3-1.9.5-4.5.8-8.2,0,3.9,25.5,31,45.4-10.5-.8-15.1-1.5-23.4-2.1-2.4-.1,23.4,30.7,42.4,46.9-5.9.5-9.5,1-22.4,1.5-.9,0,17.8,40.4,34.2,53.4-2.7-.2-5.6-.5-12.1-.7-8.6,0,7.2,37.3,38.2,64.5-1.3.1-29.7,10.5-55.7-3.9,1,0,5.5,10.6,16.1,14.7,9.7.1-20.2,7.8-41.4-13-1.1,0-6.5,6.4,6.8,17.3-.1.2-25.6,9.8-53.2-13.3-25.1,19.1-50.5,4-48.8,4.1,7-7.9,3.1-14.2,9.4-14.2-25.2,16.7-47.5,4.3-50.3,4.4,12.9-1.3,16.1-10.1,23-10.1C690,496.8,656.5,482.4,660.9,482.5Z"/><path class="cls-12" d="M977.2,510.6c25-17,42.4-49.4,45-49.4-6.1-.2-17-.4-17.5-.7,16.8-9.1,33.1-45.7,26.8-45.7-.8-.4-13.5-.7-18.3-1.1,29.2-14,42.4-44.2,41.7-44.3-4.2,1.3-17.4,2.6-25.7,3.9,32.2-19.8,41.9-46.4,35.2-46.4-.2.3.9-.1-4.1.2,14.8-17.7,36.6-79.4,40.1-79.8.4-.4,34.6,63,43.2,72.9-3.1.3-1.9.5-4.5.8-8.2,0,3.9,25.5,31,45.4-10.5-.8-15.1-1.5-23.4-2.1-2.4-.1,23.4,30.7,42.4,46.9-5.9.5-9.5,1-22.4,1.5-.9,0,17.8,40.4,34.2,53.4-2.7-.2-5.6-.5-12.1-.7-8.6,0,7.2,37.3,38.2,64.5-1.3.1-29.7,10.5-55.7-3.9,1,0,5.5,10.6,16.1,14.7,9.7.1-20.2,7.8-41.4-13-1.1,0-6.5,6.4,6.8,17.3-.1.2-25.6,9.8-53.2-13.3-25.1,19.1-50.5,4-48.8,4.1,7-7.9,3.1-14.2,9.4-14.2-25.2,16.7-47.5,4.3-50.3,4.4,12.9-1.3,16.1-10.1,23-10.1C1006.3,524.9,972.8,510.5,977.2,510.6Z"/><path class="cls-13" d="M-2.6,339.7V559.2A115,115,0,0,0,78,449.4,114.89,114.89,0,0,0-2.6,339.7Z"/><path class="cls-13" d="M201.2,478.2a86,86,0,1,1-86-86.2c47.5-.1,86,38.5,86,86.2"/><path class="cls-13" d="M1081.7,427.5a85.21,85.21,0,0,0-51-16.8,86.2,86.2,0,0,0,0,172.4,85.21,85.21,0,0,0,51-16.8Z"/><path class="cls-13" d="M1413,327.6A86,86,0,0,0,1269.3,382c-5.1,47.3,29.1,89.9,76.3,94.9a85.49,85.49,0,0,0,52.5-11.3Z"/><path class="cls-13" d="M891.4,496.9c0,58-46.9,105.1-104.8,105.1S681.7,554.9,681.7,496.9s47-105.1,104.9-105.1S891.4,438.9,891.4,496.9Z"/><path class="cls-13" d="M232.7,513.9a69.1,69.1,0,1,1,68.9-69.1,68.95,68.95,0,0,1-68.9,69.1"/><ellipse class="cls-13" cx="639.8" cy="496.9" rx="76.2" ry="76.4"/><ellipse class="cls-13" cx="922.2" cy="482" rx="76.2" ry="76.4"/><path class="cls-13" d="M1138.8,558.4A76.4,76.4,0,1,1,1215,482,76.29,76.29,0,0,1,1138.8,558.4Z"/><ellipse class="cls-13" cx="392.3" cy="511.9" rx="135.5" ry="135.8"/><path class="cls-13" d="M521.9,547.5a63.6,63.6,0,1,1,63.5-63.6A63.55,63.55,0,0,1,521.9,547.5Z"/><path class="cls-13" d="M1236.5,518.5a63.6,63.6,0,1,1,63.5-63.6A63.55,63.55,0,0,1,1236.5,518.5Z"/><polyline class="cls-13" points="1368 457.6 1367.7 730 -1.4 730 -1.4 450.6"/><path class="cls-6" d="M-22.9,133.3c-5.1-28.3,36-48.9,50.2-20.6-5.1-60.5,79.8-81.1,74.6-11.6,15.4-25.7,47.6-9,48.9,16.7,38.6-22.5,47.6,15.4,47.6,15.4s-160.8.1-221.3.1"/><path class="cls-7" d="M50,72a1.73,1.73,0,0,0-.4.3,3.51,3.51,0,0,0-1,.8,15.25,15.25,0,0,0-2.2,2.2,8.07,8.07,0,0,0-1.7,2.4,8.83,8.83,0,0,0-.6,1.6,2.85,2.85,0,0,1-1.3,0,8.45,8.45,0,0,1,.1-2.1,6.78,6.78,0,0,1,1.7-3.5,8.49,8.49,0,0,1,3.2-2.1,4.76,4.76,0,0,1,1.4-.5l.6-.2C49.7,70.9,50.1,71.9,50,72Z"/><path class="cls-7" d="M52.9,77.1s-.4.3-.9.7A16.65,16.65,0,0,0,50.7,79a12.7,12.7,0,0,0-1.2,1c-.3.4-.4.8-.5.8H47.7a2.72,2.72,0,0,1,0-1.4A3.8,3.8,0,0,1,49,77.1a4.87,4.87,0,0,1,2.2-1,4.83,4.83,0,0,1,1.2-.2C52.6,75.9,52.9,77,52.9,77.1Z"/><path class="cls-7" d="M125.5,127.6a41.64,41.64,0,0,1-6.2.2,38.41,38.41,0,0,1-5.9-1,2.85,2.85,0,0,1,0-1.3,41.64,41.64,0,0,1,6.2-.2,38.41,38.41,0,0,1,5.9,1A2.85,2.85,0,0,1,125.5,127.6Z"/><path class="cls-7" d="M122.7,121.8a16.7,16.7,0,0,1-4,.5,12.21,12.21,0,0,1-2.6-.6c-.8-.3-1.4-.6-1.4-.6l.4-1.2h1.3a19.22,19.22,0,0,1,2.4,0,28.94,28.94,0,0,1,3.9.7Z"/><path class="cls-6" d="M1563.4,111.7H1256.7c-3.4-22.2,8.9-37.9,26.9-37.9a38.88,38.88,0,0,1,17.5,4.5,43.36,43.36,0,0,1,3.3-21.9c12.6-28.3,55.7-37.7,81.2-15.9-26.7-73.3,137.8-75.6,102.2,13.3,24.1-13.3,51.8-8.9,68,5.3C1569.6,71.3,1575.1,90.3,1563.4,111.7Z"/><path class="cls-7" d="M377.2,32.5c-14-6.8-31.1-10.9-36.6,4.7l-.2-.1-.2.1c-5.5-15.6-22.6-11.5-36.6-4.7a44.32,44.32,0,0,1,34.8,7.9c-.2,3.3,2.7,7,3.9,1.6a4.29,4.29,0,0,0,0-1.6C352.2,33.1,365.4,30,377.2,32.5Z"/><path class="cls-7" d="M886.5,373c-14-6.8-31.1-10.9-36.6,4.7l-.2-.1-.2.1c-5.5-15.6-22.6-11.5-36.6-4.7a44.32,44.32,0,0,1,34.8,7.9c-.2,3.3,2.7,7,3.9,1.6a4.29,4.29,0,0,0,0-1.6A45,45,0,0,1,886.5,373Z"/><path class="cls-7" d="M431.6,333.1c-21.9-10.6-48.6-17.1-57.2,7.4-.1-.1-.2-.2-.3-.2s-.2.1-.3.2c-8.5-24.4-35.2-17.9-57.2-7.4,18.4-3.8,39,.9,54.3,12.3-.3,5.2,4.2,10.9,6.1,2.6a5.27,5.27,0,0,0,0-2.5C392.5,334.1,413.1,329.3,431.6,333.1Z"/><path class="cls-7" d="M1313.6,174.6c-21.9-10.6-48.6-17.1-57.2,7.4-.1-.1-.2-.2-.3-.2s-.2.1-.3.2c-8.5-24.4-35.2-17.9-57.2-7.4,18.4-3.8,39,.9,54.3,12.3-.3,5.2,4.2,10.9,6.1,2.6a5.27,5.27,0,0,0,0-2.5C1274.5,175.6,1295.1,170.8,1313.6,174.6Z"/><path class="cls-7" d="M1006.6,181.3c-7.1-3.4-15.7-5.5-18.5,2.4l-.1-.1-.1.1c-2.8-7.9-11.4-5.8-18.5-2.4a22.66,22.66,0,0,1,17.6,4c-.1,1.7,1.4,3.5,2,.8a1.1,1.1,0,0,0,0-.8A22.66,22.66,0,0,1,1006.6,181.3Z"/><path class="cls-7" d="M795.8,201.9c-7.1-3.4-15.7-5.5-18.5,2.4l-.1-.1-.1.1c-2.8-7.9-11.4-5.8-18.5-2.4a22.66,22.66,0,0,1,17.6,4c-.1,1.7,1.4,3.5,2,.8a1.1,1.1,0,0,0,0-.8A22.17,22.17,0,0,1,795.8,201.9Z"/><path class="cls-7" d="M796.7,50.2c-21.9-10.6-48.6-17.1-57.2,7.4-.1-.1-.2-.2-.3-.2s-.2.1-.3.2c-8.5-24.4-35.2-17.9-57.2-7.4,18.4-3.8,39,.9,54.3,12.3-.3,5.2,4.2,10.9,6.1,2.6a5.27,5.27,0,0,0,0-2.5C757.6,51.1,778.2,46.3,796.7,50.2Z"/><g class="cls-14"><rect class="cls-15" x="161" y="450.7" width="3.1" height="7.1"/></g><path class="cls-16" d="M109.1,403.2a15.75,15.75,0,0,1-2.8.4,15.75,15.75,0,0,1-2.8-.4v-.9a15.75,15.75,0,0,1,2.8-.4,15.75,15.75,0,0,1,2.8.4Z"/><path class="cls-16" d="M107.2,399.4a7,7,0,0,1-1.9.4,8.14,8.14,0,0,1-1.9-.4v-.9a7,7,0,0,1,1.9-.4,8.14,8.14,0,0,1,1.9.4Z"/></g><path class="cls-7" d="M445.46,463.13l-5.09,24.09H441c8.68,0,15.62-9.44,15.62-17.58,0-6.18-4-11.71-14.32-11.71-12.69,0-27.12,8.46-27.12,26.36,0,5.53,1.41,6.4,1.51,7.38-7.16,0-11.6-2.72-11.6-10,0-15,18.87-28.75,39.38-28.75,15.95,0,23.11,8.35,23.11,17.25,0,6.4-3.8,13.23-10.85,17.25,9.22,1.84,12.8,9.33,12.8,17.46,0,10.42-5.64,31.25-23.76,31.25-4.66,0-10.74-1.41-10.74-8a17.42,17.42,0,0,1,1.41-6.29c2.71,2.82,4.77,3.9,7.27,3.9,7.92,0,10.74-11.28,10.74-19.53,0-7.59-2.39-13.77-10.31-13.77-.86,0-3,.11-5,.32l-8.89,41.55H414.65l14.76-69Z"/><path class="cls-7" d="M496.35,525.84c8.57,0,13.78-4.77,19.2-11h3.69c-6.18,10-15.4,20.08-29.83,20.08-10.2,0-16.93-5-16.93-17.25,0-12.48,7-38.63,29.3-38.63,9.65,0,11.93,5,11.93,10.42,0,12.47-11.93,22.13-25,22.89-.11,1.52-.22,3-.22,4.34C488.54,524.11,491.14,525.84,496.35,525.84Zm6.29-41c-5.53,0-10.85,11.61-13,22.35,8.36-.54,15.74-8.89,15.74-17.9C505.36,486.57,504.7,484.83,502.64,484.83Z"/><path class="cls-7" d="M562.1,514.88a64.76,64.76,0,0,1-16.6,13.57c-4.56,4.77-11.5,6.51-17,6.51-11.06,0-15.84-7.27-15.84-13.89A11.14,11.14,0,0,1,518.37,511c6.08-10.74,10-21.48,13.35-32.11l16.06-2.17c1.3,28.09,2.38,32.33,2.38,39.49a16.81,16.81,0,0,1-.43,4.12,60.63,60.63,0,0,0,7.81-5.43Zm-40.8,5.32a3.16,3.16,0,0,1-2.93-1.41c0,5.1,1.85,7.59,6.62,7.59s9.44-2.49,9.44-10.09c0-5.64-1-9-2.06-25.71a124.51,124.51,0,0,1-8.79,20.51,4.09,4.09,0,0,1,2.5,3.79C526.08,517.49,524.12,520.2,521.3,520.2Z"/><path class="cls-7" d="M584.77,462.92l-3.69,17.14h6.51l-.86,4.34h-6.51l-7,32.55a15.29,15.29,0,0,0-.43,3.47c0,3,1.41,4,4.45,4,4.23,0,8.13-4.12,9.76-9.55h4.56C585.42,532.57,574.68,535,568.82,535c-6.51,0-11.6-3.91-11.6-13a35.76,35.76,0,0,1,.86-7.06l6.51-30.48H561l.87-4.34h3.58l3.26-15Z"/><path class="cls-7" d="M655.73,519.87l22.78-66.39h14.21v66.39l23.33-66.39h7.59L693.48,534.3H677.43V479.08L655.94,534.3H640V460.2c-11.83,3.69-17.58,12.16-17.58,24.09,0,5.53,1.41,6.4,1.52,7.38-7.49,0-11.61-2.72-11.61-10.53,0-14.43,20-28.2,38.08-28.2,1.52,0,2.93.1,4.34.21Z"/><path class="cls-7" d="M768.67,480.06,760.86,517a14.74,14.74,0,0,0-.43,3.47c0,3,1.41,4.66,4.44,4.66,4.24,0,7.16-4.77,8.79-10.2h4.56C772,532.57,762.27,535,756.41,535c-6.07,0-10-3.48-10.63-10-3.36,5-8.46,10-16.17,10-7.37,0-14.42-4.56-14.42-17.47,0-14.65,9-38,27.88-38,6.18,0,8.79,2.38,8.79,5.53v.76l1.19-5.75ZM731.24,516c0,8.35,3.47,8.46,5.43,8.46,3.14,0,7.7-3.25,9-9.55l5.21-24.51a4.21,4.21,0,0,0-4.45-4.13C737.21,486.24,731.24,505.77,731.24,516Z"/><path class="cls-7" d="M824,480.06,813.26,530.4c6.62-2.39,10.63-6.08,13.67-15.52h4.56c-4.23,14.33-12.48,18.45-19.2,20.29L810.66,543c-3.26,15.52-12.37,18.45-19.53,18.45-6.62,0-12.15-3.47-12.15-10.53,0-9.11,9.55-13.67,17.68-16.16l1.3-5.86c-4.55,5.1-9.33,6.08-13,6.08-6.51,0-11.61-3.91-11.61-13a35.1,35.1,0,0,1,.87-7.06l7.37-34.82h15.63L789.39,517a11.87,11.87,0,0,0-.32,2.71c0,2.49.76,4.77,3.25,4.77,4,0,6.84-3.8,8.47-8.89l7.59-35.48ZM788.63,553c2.28,0,4.89-3.25,6.3-9.65l.65-3.15c-5.53,2.06-10.63,4.89-10.63,9.22A3.69,3.69,0,0,0,788.63,553Z"/><path class="cls-7" d="M887.91,469.21a28.23,28.23,0,0,0,.21-2.93c0-2.49-2-3.69-4.12-3.69-2.39,0-6.07,1.63-7.59,8.9l-1.85,8.57h7.92l-.76,4.34h-8L861.22,543C858,558.5,849,561.43,841.8,561.43c-6.62,0-12.8-4.67-12.8-11.72,0-10,8.35-13.13,18.66-16.27l13.12-62C864,456,873.37,453,880.53,453c6.62,0,12.8,4.67,12.8,11.72a27.43,27.43,0,0,1-.32,4.45ZM839.3,551.77c2.28,0,4.78-2.06,6.19-8.46L846.9,537c-6.84,2.27-11.94,5.31-11.94,11.17C835,549.71,836.92,551.77,839.3,551.77Z"/><path class="cls-7" d="M923.17,496.44a2.5,2.5,0,0,0,1.19.22c5,0,12-3.26,16.71-6.51l1,2.93c-4.13,4.45-11.29,7.7-19.21,9-1.73,20.07-12.58,32.66-25.93,32.66-10.09,0-17.36-4.78-17.36-17.14s7.38-38.52,29.73-38.52C918.61,479.08,923.17,485.05,923.17,496.44Zm-9.33,6c-2.28-.54-2.93-2.39-2.93-4.56,0-3,1.41-5,3.36-5.86-.22-4.55-1.3-6.29-4.12-6.29-7.7,0-14.43,19.85-14.43,30.49,0,7.16,1.41,8.78,5.53,8.78C906.57,525,912.1,515.21,913.84,502.41Z"/><path class="cls-7" d="M952.25,480.06l-1.41,6.72c3.79-3.25,7.91-6.72,13.12-6.72,4.88,0,7.49,4,7.49,8.14,0,3.79-2.5,7.92-7.81,7.92-6.08,0-3-7.17-6.3-7.17s-5.2,1.63-7.92,4.13l-8.67,41.22H925.12l11.5-54.24Z"/><path class="cls-7" d="M511.52,572.18h53.37v15.69h-18v94.18H529.57V587.87H511.52Z"/><path class="cls-7" d="M609.31,682.05c-.94-2.82-1.57-4.55-1.57-13.5V651.29c0-10.21-3.45-14-11.3-14h-6v44.73H573.21V572.18h26c17.9,0,25.59,8.32,25.59,25.27v8.63c0,11.3-3.61,18.52-11.3,22.13v.32c8.63,3.61,11.46,11.77,11.46,23.23v17c0,5.34.15,9.26,1.88,13.34Zm-18.84-94.18v33.75h6.75c6.44,0,10.36-2.82,10.36-11.61V599.18c0-7.85-2.67-11.31-8.79-11.31Z"/><path class="cls-7" d="M693,682.05H675.55l-3-19.93H651.37l-3,19.93H632.54l17.58-109.87h25.27Zm-39.4-34.84h16.64l-8.16-55.57h-.32Z"/><path class="cls-7" d="M723.73,661.8h.32l13-89.62h15.85L736,682.05H710.24l-17-109.87h17.43Z"/><path class="cls-7" d="M779,618.48h23.71v15.7H779v32.18h29.83v15.69H761.72V572.18h47.09v15.69H779Z"/><path class="cls-7" d="M820.26,572.18h17.27v94.18h28.41v15.69H820.26Z"/></g></svg>