<?xml version="1.0" encoding="utf-8"?>
<!-- Generator: Adobe Illustrator 22.0.1, SVG Export Plug-In . SVG Version: 6.00 Build 0)  -->
<svg version="1.1" id="Calque_1" xmlns="http://www.w3.org/2000/svg" xmlns:xlink="http://www.w3.org/1999/xlink" x="0px" y="0px"
	 viewBox="0 0 1368 704" style="enable-background:new 0 0 1368 704;" xml:space="preserve">
<style type="text/css">
	.st0{clip-path:url(#SVGID_2_);fill:url(#SVGID_3_);}
	.st1{clip-path:url(#SVGID_5_);fill:#B7C9D8;}
	.st2{opacity:0.42;clip-path:url(#SVGID_7_);}
	.st3{fill:#F7F1E2;}
	.st4{clip-path:url(#SVGID_9_);}
	.st5{fill:#635853;}
	.st6{fill:#FFFFFF;}
	.st7{fill:#FEDEA4;}
	.st8{clip-path:url(#SVGID_11_);fill:#616160;}
	.st9{opacity:0.6;clip-path:url(#SVGID_13_);}
	.st10{clip-path:url(#SVGID_15_);fill:none;stroke:#020203;stroke-width:0.5388;stroke-miterlimit:10;}
	.st11{clip-path:url(#SVGID_17_);fill:#BCB8BF;}
	.st12{clip-path:url(#SVGID_19_);fill:#B4DFEC;}
	.st13{clip-path:url(#SVGID_21_);fill:#FFFFFF;}
	.st14{clip-path:url(#SVGID_23_);}
	.st15{fill:#A3A9B6;}
	.st16{clip-path:url(#SVGID_25_);fill:#FFFFFF;}
	.st17{clip-path:url(#SVGID_27_);}
	.st18{clip-path:url(#SVGID_29_);fill:#FFFFFF;}
	.st19{clip-path:url(#SVGID_31_);}
	.st20{clip-path:url(#SVGID_33_);fill:#FFFFFF;}
	.st21{clip-path:url(#SVGID_35_);}
	.st22{clip-path:url(#SVGID_37_);fill:#FFFFFF;}
	.st23{clip-path:url(#SVGID_39_);}
	.st24{clip-path:url(#SVGID_41_);fill:#FFFFFF;}
	.st25{clip-path:url(#SVGID_43_);}
	.st26{fill:#92AEC3;}
	.st27{clip-path:url(#SVGID_45_);}
	.st28{clip-path:url(#SVGID_47_);}
	.st29{fill:#E07653;}
	.st30{fill:#596874;}
	.st31{clip-path:url(#SVGID_49_);fill:#48515A;}
	.st32{clip-path:url(#SVGID_51_);fill:#F39778;}
	.st33{clip-path:url(#SVGID_53_);fill:#FFFFFF;}
	.st34{clip-path:url(#SVGID_55_);fill:#FFFFFF;}
	.st35{clip-path:url(#SVGID_57_);fill:#FFD65F;}
	.st36{clip-path:url(#SVGID_59_);fill:#FFFFFF;}
	.st37{clip-path:url(#SVGID_61_);fill:#FFFFFF;}
	.st38{clip-path:url(#SVGID_63_);fill:#FFFFFF;}
	.st39{clip-path:url(#SVGID_65_);fill:#FFFFFF;}
	.st40{clip-path:url(#SVGID_67_);fill:#FFFFFF;}
	.st41{clip-path:url(#SVGID_69_);}
	.st42{clip-path:url(#SVGID_71_);fill:#48515A;}
	.st43{clip-path:url(#SVGID_73_);fill:#596874;}
	.st44{clip-path:url(#SVGID_75_);fill:#596874;}
	.st45{clip-path:url(#SVGID_77_);fill:#FFD65F;}
	.st46{clip-path:url(#SVGID_79_);fill:#FAB953;}
	.st47{clip-path:url(#SVGID_81_);fill:#FFFFFF;}
	.st48{clip-path:url(#SVGID_83_);fill:#FFFFFF;}
	.st49{clip-path:url(#SVGID_85_);fill:#FFFFFF;}
	.st50{clip-path:url(#SVGID_87_);fill:#FFFFFF;}
	.st51{clip-path:url(#SVGID_89_);fill:#FFFFFF;}
	.st52{clip-path:url(#SVGID_91_);fill:#FFFFFF;}
	.st53{clip-path:url(#SVGID_93_);fill:#FFFFFF;}
	.st54{clip-path:url(#SVGID_95_);fill:#FFFFFF;}
	.st55{clip-path:url(#SVGID_97_);fill:#48515A;}
	.st56{clip-path:url(#SVGID_99_);fill:#B4DFEC;}
	.st57{clip-path:url(#SVGID_101_);fill:#FFFFFF;}
	.st58{clip-path:url(#SVGID_103_);fill:#B4DFEC;}
	.st59{clip-path:url(#SVGID_105_);fill:#FFFFFF;}
	.st60{clip-path:url(#SVGID_107_);fill:#FFD65F;}
	.st61{clip-path:url(#SVGID_109_);fill:#B4DFEC;}
	.st62{clip-path:url(#SVGID_111_);fill:#FFFFFF;}
	.st63{clip-path:url(#SVGID_113_);fill:#FFD65F;}
	.st64{clip-path:url(#SVGID_115_);fill:#B4DFEC;}
	.st65{clip-path:url(#SVGID_117_);fill:#FFFFFF;}
	.st66{clip-path:url(#SVGID_119_);fill:#B4DFEC;}
	.st67{clip-path:url(#SVGID_121_);fill:#FFFFFF;}
	.st68{clip-path:url(#SVGID_123_);fill:#FFD65F;}
	.st69{clip-path:url(#SVGID_125_);fill:#B4DFEC;}
	.st70{clip-path:url(#SVGID_127_);fill:#FFFFFF;}
	.st71{clip-path:url(#SVGID_129_);fill:#FFD65F;}
	.st72{clip-path:url(#SVGID_131_);fill:#B4DFEC;}
	.st73{clip-path:url(#SVGID_133_);fill:#FFFFFF;}
	.st74{clip-path:url(#SVGID_135_);fill:#FFD65F;}
	.st75{clip-path:url(#SVGID_137_);fill:#B4DFEC;}
	.st76{clip-path:url(#SVGID_139_);fill:#FFFFFF;}
	.st77{clip-path:url(#SVGID_141_);fill:#FFD65F;}
	.st78{clip-path:url(#SVGID_143_);fill:#B4DFEC;}
	.st79{clip-path:url(#SVGID_145_);fill:#FFFFFF;}
	.st80{clip-path:url(#SVGID_147_);fill:#FFD65F;}
	.st81{clip-path:url(#SVGID_149_);fill:#FAB953;}
	.st82{clip-path:url(#SVGID_151_);fill:#FAB953;}
	.st83{clip-path:url(#SVGID_153_);fill:#FAB953;}
	.st84{clip-path:url(#SVGID_155_);fill:#FAB953;}
	.st85{clip-path:url(#SVGID_157_);}
	.st86{fill:#F28E71;}
	.st87{clip-path:url(#SVGID_159_);fill:#B7C9D8;}
	.st88{clip-path:url(#SVGID_161_);fill:#B7C9D8;}
	.st89{clip-path:url(#SVGID_163_);fill:#B7C9D8;}
	.st90{clip-path:url(#SVGID_165_);fill:#B7C9D8;}
	.st91{clip-path:url(#SVGID_167_);fill:#B7C9D8;}
	.st92{clip-path:url(#SVGID_169_);fill:#B7C9D8;}
	.st93{clip-path:url(#SVGID_171_);fill:#FFFFFF;}
	.st94{clip-path:url(#SVGID_173_);}
	.st95{fill:#1B2E2D;}
	.st96{clip-path:url(#SVGID_175_);}
	.st97{clip-path:url(#SVGID_177_);}
	.st98{clip-path:url(#SVGID_179_);}
	.st99{clip-path:url(#SVGID_181_);}
	.st100{clip-path:url(#SVGID_183_);}
	.st101{clip-path:url(#SVGID_185_);}
	.st102{clip-path:url(#SVGID_187_);}
	.st103{clip-path:url(#SVGID_189_);}
	.st104{fill:#514B4A;}
	.st105{fill:#1B1B1B;}
	.st106{fill:#FCF7CD;}
	.st107{fill:#EC6669;}
	.st108{fill:#BDD3DD;}
	.st109{fill:#2F464D;}
	.st110{fill:#669999;}
	.st111{fill:#343434;}
	.st112{fill:#D04544;}
	.st113{fill:#676767;}
	.st114{fill:#9ACDCD;}
	.st115{fill:#4E4D4D;}
	.st116{fill:#AFDCE2;}
	.st117{fill:#957567;}
	.st118{clip-path:url(#SVGID_191_);}
	.st119{opacity:0.44;fill:#FFFFFF;}
	.st120{opacity:0.7;}
	.st121{clip-path:url(#SVGID_193_);}
	.st122{fill:#20364D;}
	.st123{fill:#635853;stroke:#FFFFFF;stroke-width:2;stroke-miterlimit:10;}
</style>
<g id="Calque_1_1_">
</g>
<g id="Calque_2_1_">
	<g>
		<g>
			<defs>
				<rect id="SVGID_1_" width="1367" height="700.2"/>
			</defs>
			<clipPath id="SVGID_2_">
				<use xlink:href="#SVGID_1_"  style="overflow:visible;"/>
			</clipPath>
			
				<linearGradient id="SVGID_3_" gradientUnits="userSpaceOnUse" x1="684.0458" y1="704" x2="684.0458" y2="130.3" gradientTransform="matrix(1 0 0 -1 -4.590000e-02 706)">
				<stop  offset="0" style="stop-color:#E0E0DF"/>
				<stop  offset="0.2723" style="stop-color:#DCE0E1"/>
				<stop  offset="0.5841" style="stop-color:#D1E0E5"/>
				<stop  offset="0.9143" style="stop-color:#BCE0EB"/>
				<stop  offset="1" style="stop-color:#B4DFEC"/>
			</linearGradient>
			<rect x="1.7" y="2" class="st0" width="1364.6" height="573.7"/>
		</g>
		<g>
			<defs>
				<rect id="SVGID_4_" width="1367" height="700.2"/>
			</defs>
			<clipPath id="SVGID_5_">
				<use xlink:href="#SVGID_4_"  style="overflow:visible;"/>
			</clipPath>
			<polygon class="st1" points="1041.9,293.5 924.7,293.5 924.7,373.2 881.7,373.2 881.7,178.1 822.6,177.8 763.4,178.1 
				763.4,235.8 727,235.8 727,255.5 710.8,255.5 710.8,247.9 697.2,247.9 697.2,255.5 568.5,255.5 568.5,334.3 365,334.3 365,333.5 
				285.7,333.5 285.7,314.9 262.1,314.9 262.1,333.5 254.4,333.5 254.4,432.8 358.8,432.8 365,432.8 568.5,432.8 588.6,432.8 
				763.4,432.8 787.2,432.8 850.2,432.8 850.2,433 949.6,433 949.6,432.8 1041.9,432.8 			"/>
		</g>
		<g>
			<defs>
				<rect id="SVGID_6_" width="1367" height="700.2"/>
			</defs>
			<clipPath id="SVGID_7_">
				<use xlink:href="#SVGID_6_"  style="overflow:visible;"/>
			</clipPath>
			<g class="st2">
				<g>
					<path class="st3" d="M1402.3,316.9"/>
				</g>
			</g>
		</g>
		<g>
			<defs>
				<rect id="SVGID_8_" width="1367" height="700.2"/>
			</defs>
			<clipPath id="SVGID_9_">
				<use xlink:href="#SVGID_8_"  style="overflow:visible;"/>
			</clipPath>
			<g class="st4">
				<rect x="-7.6" y="573.7" class="st5" width="1374.6" height="130.3"/>
				<rect x="-7.6" y="695.3" class="st6" width="1374.6" height="4.9"/>
				<rect x="-7.6" y="577.7" class="st6" width="1374.6" height="3.4"/>
				<path class="st7" d="M-7.6,625.8h51.7v4.9H-7.6V625.8z M1315.3,625.8h51.7v4.9h-51.7V625.8z M1195.1,625.8h51.7v4.9h-51.7V625.8
					z M1074.8,625.8h51.7v4.9h-51.7V625.8z M954.5,625.8h51.7v4.9h-51.7V625.8z M834.3,625.8H886v4.9h-51.7V625.8z M714,625.8h51.7
					v4.9H714V625.8z M593.8,625.8h51.7v4.9h-51.7V625.8z M473.5,625.8h51.7v4.9h-51.7V625.8z M353.2,625.8h51.7v4.9h-51.7V625.8z
					 M233,625.8h51.7v4.9H233V625.8z M112.7,625.8h51.7v4.9h-51.7V625.8z"/>
			</g>
		</g>
		<g>
			<defs>
				<rect id="SVGID_10_" width="1367" height="700.2"/>
			</defs>
			<clipPath id="SVGID_11_">
				<use xlink:href="#SVGID_10_"  style="overflow:visible;"/>
			</clipPath>
			<rect x="-250.7" y="-45.5" class="st8" width="249.4" height="778.1"/>
		</g>
		<g>
			<defs>
				<rect id="SVGID_12_" width="1367" height="700.2"/>
			</defs>
			<clipPath id="SVGID_13_">
				<use xlink:href="#SVGID_12_"  style="overflow:visible;"/>
			</clipPath>
			<g class="st9">
				<g>
					<rect x="279.9" y="464.9" class="st6" width="30.2" height="1.7"/>
				</g>
				<g>
					<rect x="346.4" y="464.9" class="st6" width="30.2" height="1.7"/>
				</g>
				<g>
					<rect x="414.7" y="464.9" class="st6" width="26.6" height="1.7"/>
				</g>
				<g>
					<rect x="481.2" y="464.9" class="st6" width="26.6" height="1.7"/>
				</g>
				<g>
					<rect x="545.9" y="464.9" class="st6" width="30.2" height="1.7"/>
				</g>
				<g>
					<rect x="614.1" y="464.9" class="st6" width="26.6" height="1.7"/>
				</g>
				<g>
					<rect x="680.6" y="464.9" class="st6" width="26.6" height="1.7"/>
				</g>
				<g>
					<rect x="80.5" y="464.9" class="st6" width="30.2" height="1.7"/>
				</g>
				<g>
					<rect x="15.8" y="464.9" class="st6" width="26.5" height="1.7"/>
				</g>
				<g>
					<rect x="147" y="464.9" class="st6" width="30.2" height="1.7"/>
				</g>
				<g>
					<rect x="213.5" y="464.9" class="st6" width="30.2" height="1.7"/>
				</g>
				<g>
					<rect x="247.6" y="483.5" class="st6" width="30.2" height="1.7"/>
				</g>
				<g>
					<rect x="314.1" y="483.5" class="st6" width="30.2" height="1.7"/>
				</g>
				<g>
					<rect x="382.4" y="483.5" class="st6" width="26.6" height="1.7"/>
				</g>
				<g>
					<rect x="448.9" y="483.5" class="st6" width="26.6" height="1.7"/>
				</g>
				<g>
					<rect x="513.5" y="483.5" class="st6" width="30.2" height="1.7"/>
				</g>
				<g>
					<rect x="581.8" y="483.5" class="st6" width="26.6" height="1.7"/>
				</g>
				<g>
					<rect x="648.3" y="483.5" class="st6" width="26.6" height="1.7"/>
				</g>
				<g>
					<rect x="48.2" y="483.5" class="st6" width="30.2" height="1.7"/>
				</g>
				<g>
					<rect x="114.6" y="483.5" class="st6" width="30.2" height="1.7"/>
				</g>
				<g>
					<rect x="181.1" y="483.5" class="st6" width="30.2" height="1.7"/>
				</g>
				<g>
					<rect x="279.9" y="505.4" class="st6" width="30.2" height="1.7"/>
				</g>
				<g>
					<rect x="346.4" y="505.4" class="st6" width="30.2" height="1.7"/>
				</g>
				<g>
					<rect x="414.7" y="505.4" class="st6" width="26.6" height="1.7"/>
				</g>
				<g>
					<rect x="481.2" y="505.4" class="st6" width="26.6" height="1.7"/>
				</g>
				<g>
					<rect x="545.9" y="505.4" class="st6" width="30.2" height="1.7"/>
				</g>
				<g>
					<rect x="614.1" y="505.4" class="st6" width="26.6" height="1.7"/>
				</g>
				<g>
					<rect x="680.6" y="505.4" class="st6" width="26.6" height="1.7"/>
				</g>
				<g>
					<rect x="80.5" y="505.4" class="st6" width="30.2" height="1.7"/>
				</g>
				<g>
					<rect x="15.8" y="505.4" class="st6" width="26.5" height="1.7"/>
				</g>
				<g>
					<rect x="147" y="505.4" class="st6" width="30.2" height="1.7"/>
				</g>
				<g>
					<rect x="213.5" y="505.4" class="st6" width="30.2" height="1.7"/>
				</g>
				<g>
					<rect x="247.6" y="524.1" class="st6" width="30.2" height="1.7"/>
				</g>
				<g>
					<rect x="314.1" y="524.1" class="st6" width="30.2" height="1.7"/>
				</g>
				<g>
					<rect x="382.4" y="524.1" class="st6" width="26.6" height="1.7"/>
				</g>
				<g>
					<rect x="448.9" y="524.1" class="st6" width="26.6" height="1.7"/>
				</g>
				<g>
					<rect x="513.5" y="524.1" class="st6" width="30.2" height="1.7"/>
				</g>
				<g>
					<rect x="581.8" y="524.1" class="st6" width="26.6" height="1.7"/>
				</g>
				<g>
					<rect x="648.3" y="524.1" class="st6" width="26.6" height="1.7"/>
				</g>
				<g>
					<rect x="48.2" y="524.1" class="st6" width="30.2" height="1.7"/>
				</g>
				<g>
					<rect x="114.6" y="524.1" class="st6" width="30.2" height="1.7"/>
				</g>
				<g>
					<rect x="181.1" y="524.1" class="st6" width="30.2" height="1.7"/>
				</g>
				<g>
					<rect x="279.9" y="548.9" class="st6" width="30.2" height="1.7"/>
				</g>
				<g>
					<rect x="346.4" y="548.9" class="st6" width="30.2" height="1.7"/>
				</g>
				<g>
					<rect x="414.7" y="548.9" class="st6" width="26.6" height="1.7"/>
				</g>
				<g>
					<rect x="481.2" y="548.9" class="st6" width="26.6" height="1.7"/>
				</g>
				<g>
					<rect x="545.9" y="548.9" class="st6" width="30.2" height="1.7"/>
				</g>
				<g>
					<rect x="614.1" y="548.9" class="st6" width="26.6" height="1.7"/>
				</g>
				<g>
					<rect x="680.6" y="548.9" class="st6" width="26.6" height="1.7"/>
				</g>
				<g>
					<rect x="80.5" y="548.9" class="st6" width="30.2" height="1.7"/>
				</g>
				<g>
					<rect x="15.8" y="548.9" class="st6" width="26.5" height="1.7"/>
				</g>
				<g>
					<rect x="147" y="548.9" class="st6" width="30.2" height="1.7"/>
				</g>
				<g>
					<rect x="213.5" y="548.9" class="st6" width="30.2" height="1.7"/>
				</g>
				<g>
					<rect x="247.6" y="567.6" class="st6" width="30.2" height="1.7"/>
				</g>
				<g>
					<rect x="314.1" y="567.6" class="st6" width="30.2" height="1.7"/>
				</g>
				<g>
					<rect x="382.4" y="567.6" class="st6" width="26.6" height="1.7"/>
				</g>
				<g>
					<rect x="448.9" y="567.6" class="st6" width="26.6" height="1.7"/>
				</g>
				<g>
					<rect x="513.5" y="567.6" class="st6" width="30.2" height="1.7"/>
				</g>
				<g>
					<rect x="581.8" y="567.6" class="st6" width="26.6" height="1.7"/>
				</g>
				<g>
					<rect x="648.3" y="567.6" class="st6" width="26.6" height="1.7"/>
				</g>
				<g>
					<rect x="48.2" y="567.6" class="st6" width="30.2" height="1.7"/>
				</g>
				<g>
					<rect x="114.6" y="567.6" class="st6" width="30.2" height="1.7"/>
				</g>
				<g>
					<rect x="181.1" y="567.6" class="st6" width="30.2" height="1.7"/>
				</g>
				<g>
					<rect x="940.9" y="464.9" class="st6" width="30.2" height="1.7"/>
				</g>
				<g>
					<rect x="1007.4" y="464.9" class="st6" width="30.2" height="1.7"/>
				</g>
				<g>
					<rect x="1075.7" y="464.9" class="st6" width="26.6" height="1.7"/>
				</g>
				<g>
					<rect x="1142.2" y="464.9" class="st6" width="26.6" height="1.7"/>
				</g>
				<g>
					<rect x="1206.9" y="464.9" class="st6" width="30.2" height="1.7"/>
				</g>
				<g>
					<rect x="1275.1" y="464.9" class="st6" width="26.6" height="1.7"/>
				</g>
				<g>
					<rect x="1341.6" y="464.9" class="st6" width="26.6" height="1.7"/>
				</g>
				<g>
					<rect x="741.5" y="464.9" class="st6" width="30.2" height="1.7"/>
				</g>
				<g>
					<rect x="808" y="464.9" class="st6" width="30.2" height="1.7"/>
				</g>
				<g>
					<rect x="874.4" y="464.9" class="st6" width="30.2" height="1.7"/>
				</g>
				<g>
					<rect x="908.6" y="483.5" class="st6" width="30.2" height="1.7"/>
				</g>
				<g>
					<rect x="975.1" y="483.5" class="st6" width="30.2" height="1.7"/>
				</g>
				<g>
					<rect x="1043.4" y="483.5" class="st6" width="26.6" height="1.7"/>
				</g>
				<g>
					<rect x="1109.8" y="483.5" class="st6" width="26.6" height="1.7"/>
				</g>
				<g>
					<rect x="1174.5" y="483.5" class="st6" width="30.2" height="1.7"/>
				</g>
				<g>
					<rect x="1242.8" y="483.5" class="st6" width="26.6" height="1.7"/>
				</g>
				<g>
					<rect x="1309.3" y="483.5" class="st6" width="26.6" height="1.7"/>
				</g>
				<g>
					<rect x="709.2" y="483.5" class="st6" width="30.2" height="1.7"/>
				</g>
				<g>
					<rect x="775.6" y="483.5" class="st6" width="30.2" height="1.7"/>
				</g>
				<g>
					<rect x="842.1" y="483.5" class="st6" width="30.2" height="1.7"/>
				</g>
				<g>
					<rect x="940.9" y="505.4" class="st6" width="30.2" height="1.7"/>
				</g>
				<g>
					<rect x="1007.4" y="505.4" class="st6" width="30.2" height="1.7"/>
				</g>
				<g>
					<rect x="1075.7" y="505.4" class="st6" width="26.6" height="1.7"/>
				</g>
				<g>
					<rect x="1142.2" y="505.4" class="st6" width="26.6" height="1.7"/>
				</g>
				<g>
					<rect x="1206.9" y="505.4" class="st6" width="30.2" height="1.7"/>
				</g>
				<g>
					<rect x="1275.1" y="505.4" class="st6" width="26.6" height="1.7"/>
				</g>
				<g>
					<rect x="1341.6" y="505.4" class="st6" width="26.6" height="1.7"/>
				</g>
				<g>
					<rect x="741.5" y="505.4" class="st6" width="30.2" height="1.7"/>
				</g>
				<g>
					<rect x="808" y="505.4" class="st6" width="30.2" height="1.7"/>
				</g>
				<g>
					<rect x="874.4" y="505.4" class="st6" width="30.2" height="1.7"/>
				</g>
				<g>
					<rect x="908.6" y="524.1" class="st6" width="30.2" height="1.7"/>
				</g>
				<g>
					<rect x="975.1" y="524.1" class="st6" width="30.2" height="1.7"/>
				</g>
				<g>
					<rect x="1043.4" y="524.1" class="st6" width="26.6" height="1.7"/>
				</g>
				<g>
					<rect x="1109.8" y="524.1" class="st6" width="26.6" height="1.7"/>
				</g>
				<g>
					<rect x="1174.5" y="524.1" class="st6" width="30.2" height="1.7"/>
				</g>
				<g>
					<rect x="1242.8" y="524.1" class="st6" width="26.6" height="1.7"/>
				</g>
				<g>
					<rect x="1309.3" y="524.1" class="st6" width="26.6" height="1.7"/>
				</g>
				<g>
					<rect x="709.2" y="524.1" class="st6" width="30.2" height="1.7"/>
				</g>
				<g>
					<rect x="775.6" y="524.1" class="st6" width="30.2" height="1.7"/>
				</g>
				<g>
					<rect x="842.1" y="524.1" class="st6" width="30.2" height="1.7"/>
				</g>
				<g>
					<rect x="940.9" y="548.9" class="st6" width="30.2" height="1.7"/>
				</g>
				<g>
					<rect x="1007.4" y="548.9" class="st6" width="30.2" height="1.7"/>
				</g>
				<g>
					<rect x="1075.7" y="548.9" class="st6" width="26.6" height="1.7"/>
				</g>
				<g>
					<rect x="1142.2" y="548.9" class="st6" width="26.6" height="1.7"/>
				</g>
				<g>
					<rect x="1206.9" y="548.9" class="st6" width="30.2" height="1.7"/>
				</g>
				<g>
					<rect x="1275.1" y="548.9" class="st6" width="26.6" height="1.7"/>
				</g>
				<g>
					<rect x="1341.6" y="548.9" class="st6" width="26.6" height="1.7"/>
				</g>
				<g>
					<rect x="741.5" y="548.9" class="st6" width="30.2" height="1.7"/>
				</g>
				<g>
					<rect x="808" y="548.9" class="st6" width="30.2" height="1.7"/>
				</g>
				<g>
					<rect x="874.4" y="548.9" class="st6" width="30.2" height="1.7"/>
				</g>
				<g>
					<rect x="908.6" y="567.6" class="st6" width="30.2" height="1.7"/>
				</g>
				<g>
					<rect x="975.1" y="567.6" class="st6" width="30.2" height="1.7"/>
				</g>
				<g>
					<rect x="1043.4" y="567.6" class="st6" width="26.6" height="1.7"/>
				</g>
				<g>
					<rect x="1109.8" y="567.6" class="st6" width="26.6" height="1.7"/>
				</g>
				<g>
					<rect x="1174.5" y="567.6" class="st6" width="30.2" height="1.7"/>
				</g>
				<g>
					<rect x="1242.8" y="567.6" class="st6" width="26.6" height="1.7"/>
				</g>
				<g>
					<rect x="1309.3" y="567.6" class="st6" width="26.6" height="1.7"/>
				</g>
				<g>
					<rect x="709.2" y="567.6" class="st6" width="30.2" height="1.7"/>
				</g>
				<g>
					<rect x="775.6" y="567.6" class="st6" width="30.2" height="1.7"/>
				</g>
				<g>
					<rect x="842.1" y="567.6" class="st6" width="30.2" height="1.7"/>
				</g>
			</g>
		</g>
		<g>
			<defs>
				<rect id="SVGID_14_" width="1367" height="700.2"/>
			</defs>
			<clipPath id="SVGID_15_">
				<use xlink:href="#SVGID_14_"  style="overflow:visible;"/>
			</clipPath>
			<path class="st10" d="M236.3,578c0,0.2,0.1,0.4,0.1,0.6"/>
		</g>
		<g>
			<defs>
				<rect id="SVGID_16_" width="1367" height="700.2"/>
			</defs>
			<clipPath id="SVGID_17_">
				<use xlink:href="#SVGID_16_"  style="overflow:visible;"/>
			</clipPath>
			<rect x="4" y="434.4" class="st11" width="1364.3" height="15.2"/>
		</g>
		<g>
			<defs>
				<rect id="SVGID_18_" width="1367" height="700.2"/>
			</defs>
			<clipPath id="SVGID_19_">
				<use xlink:href="#SVGID_18_"  style="overflow:visible;"/>
			</clipPath>
			<rect x="335.7" y="198.8" class="st12" width="154.9" height="235.2"/>
		</g>
		<g>
			<defs>
				<rect id="SVGID_20_" width="1367" height="700.2"/>
			</defs>
			<clipPath id="SVGID_21_">
				<use xlink:href="#SVGID_20_"  style="overflow:visible;"/>
			</clipPath>
			<rect x="358.2" y="213.7" class="st13" width="32.5" height="44.4"/>
		</g>
		<g>
			<defs>
				<rect id="SVGID_22_" width="1367" height="700.2"/>
			</defs>
			<clipPath id="SVGID_23_">
				<use xlink:href="#SVGID_22_"  style="overflow:visible;"/>
			</clipPath>
			<g class="st14">
				<rect x="373.8" y="213.7" class="st15" width="1.2" height="44.4"/>
			</g>
		</g>
		<g>
			<defs>
				<rect id="SVGID_24_" width="1367" height="700.2"/>
			</defs>
			<clipPath id="SVGID_25_">
				<use xlink:href="#SVGID_24_"  style="overflow:visible;"/>
			</clipPath>
			<rect x="435.6" y="213.7" class="st16" width="32.5" height="44.4"/>
		</g>
		<g>
			<defs>
				<rect id="SVGID_26_" width="1367" height="700.2"/>
			</defs>
			<clipPath id="SVGID_27_">
				<use xlink:href="#SVGID_26_"  style="overflow:visible;"/>
			</clipPath>
			<g class="st17">
				<rect x="451.2" y="213.7" class="st15" width="1.2" height="44.4"/>
			</g>
		</g>
		<g>
			<defs>
				<rect id="SVGID_28_" width="1367" height="700.2"/>
			</defs>
			<clipPath id="SVGID_29_">
				<use xlink:href="#SVGID_28_"  style="overflow:visible;"/>
			</clipPath>
			<rect x="358.2" y="273.2" class="st18" width="32.5" height="44.4"/>
		</g>
		<g>
			<defs>
				<rect id="SVGID_30_" width="1367" height="700.2"/>
			</defs>
			<clipPath id="SVGID_31_">
				<use xlink:href="#SVGID_30_"  style="overflow:visible;"/>
			</clipPath>
			<g class="st19">
				<rect x="373.8" y="273.2" class="st15" width="1.2" height="44.4"/>
			</g>
		</g>
		<g>
			<defs>
				<rect id="SVGID_32_" width="1367" height="700.2"/>
			</defs>
			<clipPath id="SVGID_33_">
				<use xlink:href="#SVGID_32_"  style="overflow:visible;"/>
			</clipPath>
			<rect x="435.6" y="273.2" class="st20" width="32.5" height="44.4"/>
		</g>
		<g>
			<defs>
				<rect id="SVGID_34_" width="1367" height="700.2"/>
			</defs>
			<clipPath id="SVGID_35_">
				<use xlink:href="#SVGID_34_"  style="overflow:visible;"/>
			</clipPath>
			<g class="st21">
				<rect x="451.2" y="273.2" class="st15" width="1.2" height="44.4"/>
			</g>
		</g>
		<g>
			<defs>
				<rect id="SVGID_36_" width="1367" height="700.2"/>
			</defs>
			<clipPath id="SVGID_37_">
				<use xlink:href="#SVGID_36_"  style="overflow:visible;"/>
			</clipPath>
			<rect x="358.2" y="333" class="st22" width="32.5" height="44.4"/>
		</g>
		<g>
			<defs>
				<rect id="SVGID_38_" width="1367" height="700.2"/>
			</defs>
			<clipPath id="SVGID_39_">
				<use xlink:href="#SVGID_38_"  style="overflow:visible;"/>
			</clipPath>
			<g class="st23">
				<rect x="373.8" y="333" class="st15" width="1.2" height="44.4"/>
			</g>
		</g>
		<g>
			<defs>
				<rect id="SVGID_40_" width="1367" height="700.2"/>
			</defs>
			<clipPath id="SVGID_41_">
				<use xlink:href="#SVGID_40_"  style="overflow:visible;"/>
			</clipPath>
			<rect x="435.6" y="333" class="st24" width="32.5" height="44.4"/>
		</g>
		<g>
			<defs>
				<rect id="SVGID_42_" width="1367" height="700.2"/>
			</defs>
			<clipPath id="SVGID_43_">
				<use xlink:href="#SVGID_42_"  style="overflow:visible;"/>
			</clipPath>
			<g class="st25">
				<rect x="358.2" y="258.1" class="st26" width="32.4" height="4.3"/>
				<rect x="353.6" y="209.3" class="st26" width="41.6" height="4.3"/>
				<rect x="435.6" y="258.1" class="st26" width="32.4" height="4.3"/>
				<rect x="431.1" y="209.3" class="st26" width="41.6" height="4.3"/>
				<rect x="358.2" y="317.6" class="st26" width="32.4" height="4.3"/>
				<rect x="353.6" y="268.9" class="st26" width="41.6" height="4.3"/>
				<rect x="435.6" y="317.6" class="st26" width="32.4" height="4.3"/>
				<rect x="431.1" y="268.9" class="st26" width="41.6" height="4.3"/>
				<rect x="358.2" y="377.4" class="st26" width="32.4" height="4.3"/>
				<rect x="353.6" y="328.7" class="st26" width="41.6" height="4.3"/>
				<rect x="435.6" y="377.4" class="st26" width="32.4" height="4.3"/>
				<rect x="431.1" y="328.7" class="st26" width="41.6" height="4.3"/>
			</g>
		</g>
		<g>
			<defs>
				<rect id="SVGID_44_" width="1367" height="700.2"/>
			</defs>
			<clipPath id="SVGID_45_">
				<use xlink:href="#SVGID_44_"  style="overflow:visible;"/>
			</clipPath>
			<g class="st27">
				<rect x="451.2" y="333" class="st15" width="1.2" height="44.4"/>
			</g>
		</g>
		<g>
			<defs>
				<rect id="SVGID_46_" width="1367" height="700.2"/>
			</defs>
			<clipPath id="SVGID_47_">
				<use xlink:href="#SVGID_46_"  style="overflow:visible;"/>
			</clipPath>
			<g class="st28">
				<rect x="435.6" y="389.6" class="st29" width="32.5" height="44.4"/>
				<g>
					<rect x="451.2" y="389.6" class="st30" width="1.2" height="44.4"/>
				</g>
			</g>
		</g>
		<g>
			<defs>
				<rect id="SVGID_48_" width="1367" height="700.2"/>
			</defs>
			<clipPath id="SVGID_49_">
				<use xlink:href="#SVGID_48_"  style="overflow:visible;"/>
			</clipPath>
			<polygon class="st31" points="461,166.7 420.1,166.7 406.2,166.7 365.3,166.7 335.7,199 406.2,199 420.1,199 490.6,199 			"/>
		</g>
		<g>
			<defs>
				<rect id="SVGID_50_" width="1367" height="700.2"/>
			</defs>
			<clipPath id="SVGID_51_">
				<use xlink:href="#SVGID_50_"  style="overflow:visible;"/>
			</clipPath>
			<rect x="524.7" y="189.5" class="st32" width="149.1" height="244.5"/>
		</g>
		<g>
			<defs>
				<rect id="SVGID_52_" width="1367" height="700.2"/>
			</defs>
			<clipPath id="SVGID_53_">
				<use xlink:href="#SVGID_52_"  style="overflow:visible;"/>
			</clipPath>
			<path class="st33" d="M576.6,200.4c-5.4,0-9.8,4.4-9.8,9.8v24.7h19.6v-24.7C586.4,204.7,582.1,200.4,576.6,200.4z"/>
		</g>
		<g>
			<defs>
				<rect id="SVGID_54_" width="1367" height="700.2"/>
			</defs>
			<clipPath id="SVGID_55_">
				<use xlink:href="#SVGID_54_"  style="overflow:visible;"/>
			</clipPath>
			<path class="st34" d="M621.1,200.4c-5.4,0-9.8,4.4-9.8,9.8v24.7h19.6v-24.7C630.9,204.7,626.5,200.4,621.1,200.4z"/>
		</g>
		<g>
			<defs>
				<rect id="SVGID_56_" width="1367" height="700.2"/>
			</defs>
			<clipPath id="SVGID_57_">
				<use xlink:href="#SVGID_56_"  style="overflow:visible;"/>
			</clipPath>
			<path class="st35" d="M576.6,262.3c-5.4,0-9.8,4.4-9.8,9.8v24.7h19.6v-24.7C586.4,266.7,582.1,262.3,576.6,262.3z"/>
		</g>
		<g>
			<defs>
				<rect id="SVGID_58_" width="1367" height="700.2"/>
			</defs>
			<clipPath id="SVGID_59_">
				<use xlink:href="#SVGID_58_"  style="overflow:visible;"/>
			</clipPath>
			<path class="st36" d="M621.1,262.3c-5.4,0-9.8,4.4-9.8,9.8v24.7h19.6v-24.7C630.9,266.7,626.5,262.3,621.1,262.3z"/>
		</g>
		<g>
			<defs>
				<rect id="SVGID_60_" width="1367" height="700.2"/>
			</defs>
			<clipPath id="SVGID_61_">
				<use xlink:href="#SVGID_60_"  style="overflow:visible;"/>
			</clipPath>
			<path class="st37" d="M576.6,324.2c-5.4,0-9.8,4.4-9.8,9.8v24.7h19.6V334C586.4,328.6,582.1,324.2,576.6,324.2z"/>
		</g>
		<g>
			<defs>
				<rect id="SVGID_62_" width="1367" height="700.2"/>
			</defs>
			<clipPath id="SVGID_63_">
				<use xlink:href="#SVGID_62_"  style="overflow:visible;"/>
			</clipPath>
			<path class="st38" d="M621.1,324.2c-5.4,0-9.8,4.4-9.8,9.8v24.7h19.6V334C630.9,328.6,626.5,324.2,621.1,324.2z"/>
		</g>
		<g>
			<defs>
				<rect id="SVGID_64_" width="1367" height="700.2"/>
			</defs>
			<clipPath id="SVGID_65_">
				<use xlink:href="#SVGID_64_"  style="overflow:visible;"/>
			</clipPath>
			<path class="st39" d="M576.6,386.1c-5.4,0-9.8,4.4-9.8,9.8v24.7h19.6v-24.7C586.4,390.5,582.1,386.1,576.6,386.1z"/>
		</g>
		<g>
			<defs>
				<rect id="SVGID_66_" width="1367" height="700.2"/>
			</defs>
			<clipPath id="SVGID_67_">
				<use xlink:href="#SVGID_66_"  style="overflow:visible;"/>
			</clipPath>
			<path class="st40" d="M621.1,386.1c-5.4,0-9.8,4.4-9.8,9.8v24.7h19.6v-24.7C630.9,390.5,626.5,386.1,621.1,386.1z"/>
		</g>
		<g>
			<defs>
				<rect id="SVGID_68_" width="1367" height="700.2"/>
			</defs>
			<clipPath id="SVGID_69_">
				<use xlink:href="#SVGID_68_"  style="overflow:visible;"/>
			</clipPath>
			<g class="st41">
				<rect x="562.2" y="234.9" class="st26" width="29.3" height="6.4"/>
				<rect x="606.6" y="234.9" class="st26" width="29.3" height="6.4"/>
				<rect x="562.2" y="296.8" class="st26" width="29.3" height="6.4"/>
				<rect x="606.6" y="296.8" class="st26" width="29.3" height="6.4"/>
				<rect x="562.2" y="358.7" class="st26" width="29.3" height="6.4"/>
				<rect x="606.6" y="358.7" class="st26" width="29.3" height="6.4"/>
				<rect x="562.2" y="420.6" class="st26" width="29.3" height="6.4"/>
				<rect x="606.6" y="420.6" class="st26" width="29.3" height="6.4"/>
			</g>
		</g>
		<g>
			<defs>
				<rect id="SVGID_70_" width="1367" height="700.2"/>
			</defs>
			<clipPath id="SVGID_71_">
				<use xlink:href="#SVGID_70_"  style="overflow:visible;"/>
			</clipPath>
			<rect x="508.7" y="178.4" class="st42" width="181.1" height="11"/>
		</g>
		<g>
			<defs>
				<rect id="SVGID_72_" width="1367" height="700.2"/>
			</defs>
			<clipPath id="SVGID_73_">
				<use xlink:href="#SVGID_72_"  style="overflow:visible;"/>
			</clipPath>
			<rect x="524.7" y="172.8" class="st43" width="149.2" height="5.7"/>
		</g>
		<g>
			<defs>
				<rect id="SVGID_74_" width="1367" height="700.2"/>
			</defs>
			<clipPath id="SVGID_75_">
				<use xlink:href="#SVGID_74_"  style="overflow:visible;"/>
			</clipPath>
			<polygon class="st44" points="706.9,201.7 722.9,178.4 774.8,178.4 791.7,201.7 			"/>
		</g>
		<g>
			<defs>
				<rect id="SVGID_76_" width="1367" height="700.2"/>
			</defs>
			<clipPath id="SVGID_77_">
				<use xlink:href="#SVGID_76_"  style="overflow:visible;"/>
			</clipPath>
			<rect x="706.9" y="201.7" class="st45" width="52.8" height="231.6"/>
		</g>
		<g>
			<defs>
				<rect id="SVGID_78_" width="1367" height="700.2"/>
			</defs>
			<clipPath id="SVGID_79_">
				<use xlink:href="#SVGID_78_"  style="overflow:visible;"/>
			</clipPath>
			<rect x="759.8" y="201.7" class="st46" width="32" height="231.6"/>
		</g>
		<g>
			<defs>
				<rect id="SVGID_80_" width="1367" height="700.2"/>
			</defs>
			<clipPath id="SVGID_81_">
				<use xlink:href="#SVGID_80_"  style="overflow:visible;"/>
			</clipPath>
			<rect x="770.2" y="410.5" class="st47" width="10.7" height="22.8"/>
		</g>
		<g>
			<defs>
				<rect id="SVGID_82_" width="1367" height="700.2"/>
			</defs>
			<clipPath id="SVGID_83_">
				<use xlink:href="#SVGID_82_"  style="overflow:visible;"/>
			</clipPath>
			<rect x="770.2" y="370.3" class="st48" width="10.7" height="22.8"/>
		</g>
		<g>
			<defs>
				<rect id="SVGID_84_" width="1367" height="700.2"/>
			</defs>
			<clipPath id="SVGID_85_">
				<use xlink:href="#SVGID_84_"  style="overflow:visible;"/>
			</clipPath>
			<rect x="770.2" y="330.1" class="st49" width="10.7" height="22.8"/>
		</g>
		<g>
			<defs>
				<rect id="SVGID_86_" width="1367" height="700.2"/>
			</defs>
			<clipPath id="SVGID_87_">
				<use xlink:href="#SVGID_86_"  style="overflow:visible;"/>
			</clipPath>
			<rect x="770.2" y="289.9" class="st50" width="10.7" height="22.8"/>
		</g>
		<g>
			<defs>
				<rect id="SVGID_88_" width="1367" height="700.2"/>
			</defs>
			<clipPath id="SVGID_89_">
				<use xlink:href="#SVGID_88_"  style="overflow:visible;"/>
			</clipPath>
			<rect x="770.2" y="249.7" class="st51" width="10.7" height="22.8"/>
		</g>
		<g>
			<defs>
				<rect id="SVGID_90_" width="1367" height="700.2"/>
			</defs>
			<clipPath id="SVGID_91_">
				<use xlink:href="#SVGID_90_"  style="overflow:visible;"/>
			</clipPath>
			<rect x="770.2" y="209.4" class="st52" width="10.7" height="22.8"/>
		</g>
		<g>
			<defs>
				<rect id="SVGID_92_" width="1367" height="700.2"/>
			</defs>
			<clipPath id="SVGID_93_">
				<use xlink:href="#SVGID_92_"  style="overflow:visible;"/>
			</clipPath>
			<path class="st53" d="M702.1,450H22.3H4v131.3h18.4c9.3-50.8,53.8-89.3,107.3-89.3c52.4,0,96.1,36.9,106.7,86.1l0.1,0.6h19.2
				l0.1-0.4C266.3,529,310.1,492,362.5,492c52.7,0,96.7,37.4,106.9,87.1h19.2c10.1-49.9,53.9-87.1,106.7-87.1
				c52.7,0,96.7,37.4,106.9,87.1v2.2h18.4V450H702.1z"/>
		</g>
		<g>
			<defs>
				<rect id="SVGID_94_" width="1367" height="700.2"/>
			</defs>
			<clipPath id="SVGID_95_">
				<use xlink:href="#SVGID_94_"  style="overflow:visible;"/>
			</clipPath>
			<path class="st54" d="M1417.7,450H737.9h-18.4v131.3h18.4c9.3-50.8,53.8-89.3,107.3-89.3c52.4,0,96.1,36.9,106.7,86.1l0.1,0.6
				h19.2l0.1-0.4C981.8,529,1025.6,492,1078,492c52.7,0,96.7,37.4,106.9,87.1h19.2c10.1-49.9,53.9-87.1,106.7-87.1
				c52.7,0,96.7,37.4,106.9,87.1v2.2h18.4V450H1417.7z"/>
		</g>
		<g>
			<defs>
				<rect id="SVGID_96_" width="1367" height="700.2"/>
			</defs>
			<clipPath id="SVGID_97_">
				<use xlink:href="#SVGID_96_"  style="overflow:visible;"/>
			</clipPath>
			<rect x="814.7" y="201.9" class="st55" width="132" height="231.6"/>
		</g>
		<g>
			<defs>
				<rect id="SVGID_98_" width="1367" height="700.2"/>
			</defs>
			<clipPath id="SVGID_99_">
				<use xlink:href="#SVGID_98_"  style="overflow:visible;"/>
			</clipPath>
			<rect x="822.6" y="262.3" class="st56" width="33.3" height="39.1"/>
		</g>
		<g>
			<defs>
				<rect id="SVGID_100_" width="1367" height="700.2"/>
			</defs>
			<clipPath id="SVGID_101_">
				<use xlink:href="#SVGID_100_"  style="overflow:visible;"/>
			</clipPath>
			<rect x="827.5" y="267.2" class="st57" width="23.5" height="29.3"/>
		</g>
		<g>
			<defs>
				<rect id="SVGID_102_" width="1367" height="700.2"/>
			</defs>
			<clipPath id="SVGID_103_">
				<use xlink:href="#SVGID_102_"  style="overflow:visible;"/>
			</clipPath>
			<rect x="863.6" y="262.3" class="st58" width="33.3" height="39.1"/>
		</g>
		<g>
			<defs>
				<rect id="SVGID_104_" x="393.5" y="-136.5" width="1367" height="700.2"/>
			</defs>
			<clipPath id="SVGID_105_">
				<use xlink:href="#SVGID_104_"  style="overflow:visible;"/>
			</clipPath>
			<rect x="868.5" y="267.2" class="st59" width="23.5" height="29.3"/>
		</g>
		<g>
			<defs>
				<rect id="SVGID_106_" width="1367" height="700.2"/>
			</defs>
			<clipPath id="SVGID_107_">
				<use xlink:href="#SVGID_106_"  style="overflow:visible;"/>
			</clipPath>
			<rect x="868.5" y="267.2" class="st60" width="23.5" height="6.6"/>
		</g>
		<g>
			<defs>
				<rect id="SVGID_108_" width="1367" height="700.2"/>
			</defs>
			<clipPath id="SVGID_109_">
				<use xlink:href="#SVGID_108_"  style="overflow:visible;"/>
			</clipPath>
			<rect x="863.6" y="314" class="st61" width="33.3" height="39.1"/>
		</g>
		<g>
			<defs>
				<rect id="SVGID_110_" x="393.5" y="-33.2" width="1367" height="700.2"/>
			</defs>
			<clipPath id="SVGID_111_">
				<use xlink:href="#SVGID_110_"  style="overflow:visible;"/>
			</clipPath>
			<rect x="868.5" y="318.8" class="st62" width="23.5" height="29.3"/>
		</g>
		<g>
			<defs>
				<rect id="SVGID_112_" width="1367" height="700.2"/>
			</defs>
			<clipPath id="SVGID_113_">
				<use xlink:href="#SVGID_112_"  style="overflow:visible;"/>
			</clipPath>
			<rect x="868.5" y="318.9" class="st63" width="23.5" height="24"/>
		</g>
		<g>
			<defs>
				<rect id="SVGID_114_" width="1367" height="700.2"/>
			</defs>
			<clipPath id="SVGID_115_">
				<use xlink:href="#SVGID_114_"  style="overflow:visible;"/>
			</clipPath>
			<rect x="863.6" y="210.6" class="st64" width="33.3" height="39.1"/>
		</g>
		<g>
			<defs>
				<rect id="SVGID_116_" x="393.5" y="-239.9" width="1367" height="700.2"/>
			</defs>
			<clipPath id="SVGID_117_">
				<use xlink:href="#SVGID_116_"  style="overflow:visible;"/>
			</clipPath>
			<rect x="868.5" y="215.5" class="st65" width="23.5" height="29.3"/>
		</g>
		<g>
			<defs>
				<rect id="SVGID_118_" width="1367" height="700.2"/>
			</defs>
			<clipPath id="SVGID_119_">
				<use xlink:href="#SVGID_118_"  style="overflow:visible;"/>
			</clipPath>
			<rect x="822.6" y="314" class="st66" width="33.3" height="39.1"/>
		</g>
		<g>
			<defs>
				<rect id="SVGID_120_" width="1367" height="700.2"/>
			</defs>
			<clipPath id="SVGID_121_">
				<use xlink:href="#SVGID_120_"  style="overflow:visible;"/>
			</clipPath>
			<rect x="827.5" y="318.9" class="st67" width="23.5" height="29.3"/>
		</g>
		<g>
			<defs>
				<rect id="SVGID_122_" width="1367" height="700.2"/>
			</defs>
			<clipPath id="SVGID_123_">
				<use xlink:href="#SVGID_122_"  style="overflow:visible;"/>
			</clipPath>
			<rect x="827.5" y="318.9" class="st68" width="23.5" height="19"/>
		</g>
		<g>
			<defs>
				<rect id="SVGID_124_" width="1367" height="700.2"/>
			</defs>
			<clipPath id="SVGID_125_">
				<use xlink:href="#SVGID_124_"  style="overflow:visible;"/>
			</clipPath>
			<rect x="904.6" y="262.3" class="st69" width="33.3" height="39.1"/>
		</g>
		<g>
			<defs>
				<rect id="SVGID_126_" x="475.5" y="-136.5" width="1367" height="700.2"/>
			</defs>
			<clipPath id="SVGID_127_">
				<use xlink:href="#SVGID_126_"  style="overflow:visible;"/>
			</clipPath>
			<rect x="909.5" y="267.2" class="st70" width="23.5" height="29.3"/>
		</g>
		<g>
			<defs>
				<rect id="SVGID_128_" width="1367" height="700.2"/>
			</defs>
			<clipPath id="SVGID_129_">
				<use xlink:href="#SVGID_128_"  style="overflow:visible;"/>
			</clipPath>
			<rect x="909.5" y="267" class="st71" width="23.5" height="22.9"/>
		</g>
		<g>
			<defs>
				<rect id="SVGID_130_" width="1367" height="700.2"/>
			</defs>
			<clipPath id="SVGID_131_">
				<use xlink:href="#SVGID_130_"  style="overflow:visible;"/>
			</clipPath>
			<rect x="904.6" y="314" class="st72" width="33.3" height="39.1"/>
		</g>
		<g>
			<defs>
				<rect id="SVGID_132_" x="475.5" y="-33.2" width="1367" height="700.2"/>
			</defs>
			<clipPath id="SVGID_133_">
				<use xlink:href="#SVGID_132_"  style="overflow:visible;"/>
			</clipPath>
			<rect x="909.5" y="318.8" class="st73" width="23.5" height="29.3"/>
		</g>
		<g>
			<defs>
				<rect id="SVGID_134_" width="1367" height="700.2"/>
			</defs>
			<clipPath id="SVGID_135_">
				<use xlink:href="#SVGID_134_"  style="overflow:visible;"/>
			</clipPath>
			<rect x="909.5" y="318.9" class="st74" width="23.5" height="24"/>
		</g>
		<g>
			<defs>
				<rect id="SVGID_136_" width="1367" height="700.2"/>
			</defs>
			<clipPath id="SVGID_137_">
				<use xlink:href="#SVGID_136_"  style="overflow:visible;"/>
			</clipPath>
			<rect x="904.6" y="210.6" class="st75" width="33.3" height="39.1"/>
		</g>
		<g>
			<defs>
				<rect id="SVGID_138_" x="475.5" y="-239.9" width="1367" height="700.2"/>
			</defs>
			<clipPath id="SVGID_139_">
				<use xlink:href="#SVGID_138_"  style="overflow:visible;"/>
			</clipPath>
			<rect x="909.5" y="215.5" class="st76" width="23.5" height="29.3"/>
		</g>
		<g>
			<defs>
				<rect id="SVGID_140_" width="1367" height="700.2"/>
			</defs>
			<clipPath id="SVGID_141_">
				<use xlink:href="#SVGID_140_"  style="overflow:visible;"/>
			</clipPath>
			<rect x="909.5" y="215.5" class="st77" width="23.5" height="19.3"/>
		</g>
		<g>
			<defs>
				<rect id="SVGID_142_" width="1367" height="700.2"/>
			</defs>
			<clipPath id="SVGID_143_">
				<use xlink:href="#SVGID_142_"  style="overflow:visible;"/>
			</clipPath>
			<rect x="822.6" y="210.6" class="st78" width="33.3" height="39.1"/>
		</g>
		<g>
			<defs>
				<rect id="SVGID_144_" width="1367" height="700.2"/>
			</defs>
			<clipPath id="SVGID_145_">
				<use xlink:href="#SVGID_144_"  style="overflow:visible;"/>
			</clipPath>
			<rect x="827.5" y="215.5" class="st79" width="23.5" height="29.3"/>
		</g>
		<g>
			<defs>
				<rect id="SVGID_146_" width="1367" height="700.2"/>
			</defs>
			<clipPath id="SVGID_147_">
				<use xlink:href="#SVGID_146_"  style="overflow:visible;"/>
			</clipPath>
			<rect x="827.5" y="215.5" class="st80" width="23.5" height="4"/>
		</g>
		<g>
			<defs>
				<rect id="SVGID_148_" width="1367" height="700.2"/>
			</defs>
			<clipPath id="SVGID_149_">
				<use xlink:href="#SVGID_148_"  style="overflow:visible;"/>
			</clipPath>
			<rect x="358.2" y="213.7" class="st81" width="32.5" height="10.3"/>
		</g>
		<g>
			<defs>
				<rect id="SVGID_150_" width="1367" height="700.2"/>
			</defs>
			<clipPath id="SVGID_151_">
				<use xlink:href="#SVGID_150_"  style="overflow:visible;"/>
			</clipPath>
			<rect x="435.6" y="333" class="st82" width="32.5" height="5.2"/>
		</g>
		<g>
			<defs>
				<rect id="SVGID_152_" width="1367" height="700.2"/>
			</defs>
			<clipPath id="SVGID_153_">
				<use xlink:href="#SVGID_152_"  style="overflow:visible;"/>
			</clipPath>
			<rect x="435.6" y="213.7" class="st83" width="32.5" height="27.4"/>
		</g>
		<g>
			<defs>
				<rect id="SVGID_154_" width="1367" height="700.2"/>
			</defs>
			<clipPath id="SVGID_155_">
				<use xlink:href="#SVGID_154_"  style="overflow:visible;"/>
			</clipPath>
			<rect x="358.2" y="333" class="st84" width="32.5" height="36"/>
		</g>
		<g>
			<defs>
				<rect id="SVGID_156_" width="1367" height="700.2"/>
			</defs>
			<clipPath id="SVGID_157_">
				<use xlink:href="#SVGID_156_"  style="overflow:visible;"/>
			</clipPath>
			<g class="st85">
				<rect x="852.9" y="374.6" class="st86" width="26.9" height="59"/>
				<rect x="881.6" y="374.6" class="st86" width="26.9" height="59"/>
				<rect x="879.7" y="374.6" class="st29" width="1.8" height="59"/>
			</g>
		</g>
		<g>
			<defs>
				<rect id="SVGID_158_" width="1367" height="700.2"/>
			</defs>
			<clipPath id="SVGID_159_">
				<use xlink:href="#SVGID_158_"  style="overflow:visible;"/>
			</clipPath>
			<rect x="848.3" y="369.8" class="st87" width="64.7" height="4.8"/>
		</g>
		<g>
			<defs>
				<rect id="SVGID_160_" width="1367" height="700.2"/>
			</defs>
			<clipPath id="SVGID_161_">
				<use xlink:href="#SVGID_160_"  style="overflow:visible;"/>
			</clipPath>
			<rect x="903.9" y="182.9" class="st88" width="33.6" height="18.6"/>
		</g>
		<g>
			<defs>
				<rect id="SVGID_162_" width="1367" height="700.2"/>
			</defs>
			<clipPath id="SVGID_163_">
				<use xlink:href="#SVGID_162_"  style="overflow:visible;"/>
			</clipPath>
			<rect x="892.2" y="182.9" class="st89" width="5.6" height="18.6"/>
		</g>
		<g>
			<defs>
				<rect id="SVGID_164_" width="1367" height="700.2"/>
			</defs>
			<clipPath id="SVGID_165_">
				<use xlink:href="#SVGID_164_"  style="overflow:visible;"/>
			</clipPath>
			<rect x="878.8" y="182.9" class="st90" width="5.6" height="18.6"/>
		</g>
		<g>
			<defs>
				<rect id="SVGID_166_" width="1367" height="700.2"/>
			</defs>
			<clipPath id="SVGID_167_">
				<use xlink:href="#SVGID_166_"  style="overflow:visible;"/>
			</clipPath>
			<rect x="625.5" y="153.8" class="st91" width="5.6" height="18.6"/>
		</g>
		<g>
			<defs>
				<rect id="SVGID_168_" width="1367" height="700.2"/>
			</defs>
			<clipPath id="SVGID_169_">
				<use xlink:href="#SVGID_168_"  style="overflow:visible;"/>
			</clipPath>
			<rect x="612.1" y="153.8" class="st92" width="5.6" height="18.6"/>
		</g>
		<g>
			<defs>
				<rect id="SVGID_170_" width="1367" height="700.2"/>
			</defs>
			<clipPath id="SVGID_171_">
				<use xlink:href="#SVGID_170_"  style="overflow:visible;"/>
			</clipPath>
			<rect x="918" y="379.8" class="st93" width="14.9" height="8.5"/>
		</g>
		<g>
			<defs>
				<rect id="SVGID_172_" width="1367" height="700.2"/>
			</defs>
			<clipPath id="SVGID_173_">
				<use xlink:href="#SVGID_172_"  style="overflow:visible;"/>
			</clipPath>
			<g class="st94">
				<path class="st95" d="M10.1,401.1c0,2.1-1.7,3.8-3.8,3.8s-3.8-1.7-3.8-3.8c0-2.1,1.7-3.8,3.8-3.8C8.4,397.3,10.1,399,10.1,401.1
					z"/>
				<path class="st95" d="M60.7,401.1c0,2.1-1.7,3.8-3.8,3.8s-3.8-1.7-3.8-3.8c0-2.1,1.7-3.8,3.8-3.8C59,397.3,60.7,399,60.7,401.1z
					"/>
				<path class="st95" d="M111.5,401.1c0,2.1-1.7,3.8-3.8,3.8c-2.1,0-3.8-1.7-3.8-3.8c0-2.1,1.7-3.8,3.8-3.8
					C109.8,397.3,111.5,399,111.5,401.1z"/>
				<path class="st95" d="M162.3,401.1c0,2.1-1.7,3.8-3.8,3.8s-3.8-1.7-3.8-3.8c0-2.1,1.7-3.8,3.8-3.8
					C160.6,397.3,162.3,399,162.3,401.1z"/>
				<path class="st95" d="M213.1,401.1c0,2.1-1.7,3.8-3.8,3.8s-3.8-1.7-3.8-3.8c0-2.1,1.7-3.8,3.8-3.8
					C211.4,397.3,213.1,399,213.1,401.1z"/>
				<path class="st95" d="M264.4,401.1c0,2.1-1.7,3.8-3.8,3.8c-2.1,0-3.8-1.7-3.8-3.8c0-2.1,1.7-3.8,3.8-3.8
					C262.7,397.3,264.4,399,264.4,401.1z"/>
				<circle class="st95" cx="311.8" cy="401.1" r="3.8"/>
				<path class="st95" d="M366.3,401.1c0,2.1-1.7,3.8-3.8,3.8c-2.1,0-3.8-1.7-3.8-3.8c0-2.1,1.7-3.8,3.8-3.8
					C364.6,397.3,366.3,399,366.3,401.1z"/>
				<circle class="st95" cx="413" cy="401.1" r="3.8"/>
				<circle class="st95" cx="464.1" cy="401.1" r="3.8"/>
				<path class="st95" d="M519.2,401.1c0,2.1-1.7,3.8-3.8,3.8s-3.8-1.7-3.8-3.8c0-2.1,1.7-3.8,3.8-3.8
					C517.5,397.3,519.2,399,519.2,401.1z"/>
				<path class="st95" d="M569.9,401.1c0,2.1-1.7,3.8-3.8,3.8s-3.8-1.7-3.8-3.8c0-2.1,1.7-3.8,3.8-3.8
					C568.2,397.3,569.9,399,569.9,401.1z"/>
				<path class="st95" d="M620.9,401.1c0,2.1-1.7,3.8-3.8,3.8s-3.8-1.7-3.8-3.8c0-2.1,1.7-3.8,3.8-3.8
					C619.2,397.3,620.9,399,620.9,401.1z"/>
				<path class="st95" d="M671.3,401.1c0,2.1-1.7,3.8-3.8,3.8s-3.8-1.7-3.8-3.8c0-2.1,1.7-3.8,3.8-3.8
					C669.6,397.3,671.3,399,671.3,401.1z"/>
				<circle class="st95" cx="718.6" cy="401.1" r="3.8"/>
				<polygon class="st95" points="717.3,407.7 669.3,407.7 666.4,407.7 618.4,407.7 615.5,407.7 567.5,407.7 564.6,407.7 
					516.6,407.7 513.7,407.7 465.7,407.7 462.8,407.7 414.8,407.7 412,407.7 363.9,407.7 361.1,407.7 313,407.7 310.2,407.7 
					262.1,407.7 259.3,407.7 211.2,407.7 208.4,407.7 160.3,407.7 157.5,407.7 109.4,407.7 106.6,407.7 58.5,407.7 55.7,407.7 
					7.7,407.7 4.8,407.7 4.8,411.3 4.8,434.3 7.7,434.3 7.7,411.3 55.7,411.3 55.7,434.3 58.5,434.3 58.5,411.3 106.6,411.3 
					106.6,434.3 109.4,434.3 109.4,411.3 157.5,411.3 157.5,434.3 160.3,434.3 160.3,411.3 208.4,411.3 208.4,434.3 211.2,434.3 
					211.2,411.3 259.3,411.3 259.3,434.3 262.1,434.3 262.1,411.3 310.2,411.3 310.2,434.3 313,434.3 313,411.3 361.1,411.3 
					361.1,434.3 363.9,434.3 363.9,411.3 412,411.3 412,434.3 414.8,434.3 414.8,411.3 462.8,411.3 462.8,434.3 465.7,434.3 
					465.7,411.3 513.7,411.3 513.7,434.3 516.6,434.3 516.6,411.3 564.6,411.3 564.6,434.3 567.5,434.3 567.5,411.3 615.5,411.3 
					615.5,434.3 618.4,434.3 618.4,411.3 666.4,411.3 666.4,434.3 669.3,434.3 669.3,411.3 717.3,411.3 717.3,434.3 720.2,434.3 
					720.2,411.3 720.2,407.7 				"/>
			</g>
		</g>
		<g>
			<defs>
				<rect id="SVGID_174_" width="1367" height="700.2"/>
			</defs>
			<clipPath id="SVGID_175_">
				<use xlink:href="#SVGID_174_"  style="overflow:visible;"/>
			</clipPath>
			<g class="st96">
				<path class="st95" d="M722.4,401.1c0,2.1-1.7,3.8-3.8,3.8s-3.8-1.7-3.8-3.8c0-2.1,1.7-3.8,3.8-3.8
					C720.7,397.3,722.4,399,722.4,401.1z"/>
				<path class="st95" d="M772.9,401.1c0,2.1-1.7,3.8-3.8,3.8s-3.8-1.7-3.8-3.8c0-2.1,1.7-3.8,3.8-3.8
					C771.2,397.3,772.9,399,772.9,401.1z"/>
				<path class="st95" d="M823.7,401.1c0,2.1-1.7,3.8-3.8,3.8s-3.8-1.7-3.8-3.8c0-2.1,1.7-3.8,3.8-3.8
					C822,397.3,823.7,399,823.7,401.1z"/>
				<path class="st95" d="M874.5,401.1c0,2.1-1.7,3.8-3.8,3.8s-3.8-1.7-3.8-3.8c0-2.1,1.7-3.8,3.8-3.8
					C872.8,397.3,874.5,399,874.5,401.1z"/>
				<path class="st95" d="M925.3,401.1c0,2.1-1.7,3.8-3.8,3.8s-3.8-1.7-3.8-3.8c0-2.1,1.7-3.8,3.8-3.8
					C923.6,397.3,925.3,399,925.3,401.1z"/>
				<path class="st95" d="M976.6,401.1c0,2.1-1.7,3.8-3.8,3.8s-3.8-1.7-3.8-3.8c0-2.1,1.7-3.8,3.8-3.8
					C974.9,397.3,976.6,399,976.6,401.1z"/>
				<path class="st95" d="M1024,397.3c2.1,0,3.8,1.7,3.8,3.8s-1.7,3.8-3.8,3.8c-2.1,0-3.8-1.7-3.8-3.8S1021.9,397.3,1024,397.3z"/>
				<path class="st95" d="M1078.6,401.1c0,2.1-1.7,3.8-3.8,3.8s-3.8-1.7-3.8-3.8c0-2.1,1.7-3.8,3.8-3.8S1078.6,399,1078.6,401.1z"/>
				<circle class="st95" cx="1125.3" cy="401.1" r="3.8"/>
				<circle class="st95" cx="1176.3" cy="401.1" r="3.8"/>
				<path class="st95" d="M1231.5,401.1c0,2.1-1.7,3.8-3.8,3.8c-2.1,0-3.8-1.7-3.8-3.8c0-2.1,1.7-3.8,3.8-3.8
					C1229.8,397.3,1231.5,399,1231.5,401.1z"/>
				<path class="st95" d="M1282.2,401.1c0,2.1-1.7,3.8-3.8,3.8c-2.1,0-3.8-1.7-3.8-3.8c0-2.1,1.7-3.8,3.8-3.8
					C1280.5,397.3,1282.2,399,1282.2,401.1z"/>
				<path class="st95" d="M1333.2,401.1c0,2.1-1.7,3.8-3.8,3.8c-2.1,0-3.8-1.7-3.8-3.8c0-2.1,1.7-3.8,3.8-3.8
					C1331.5,397.3,1333.2,399,1333.2,401.1z"/>
				<path class="st95" d="M1383.5,401.1c0,2.1-1.7,3.8-3.8,3.8c-2.1,0-3.8-1.7-3.8-3.8c0-2.1,1.7-3.8,3.8-3.8
					C1381.8,397.3,1383.5,399,1383.5,401.1z"/>
				<circle class="st95" cx="1430.8" cy="401.1" r="3.8"/>
				<polygon class="st95" points="1429.6,407.7 1381.5,407.7 1378.7,407.7 1330.6,407.7 1327.8,407.7 1279.7,407.7 1276.9,407.7 
					1228.8,407.7 1226,407.7 1178,407.7 1175.1,407.7 1127.1,407.7 1124.2,407.7 1076.2,407.7 1073.3,407.7 1025.3,407.7 
					1022.4,407.7 974.4,407.7 971.5,407.7 923.5,407.7 920.6,407.7 872.6,407.7 869.7,407.7 821.7,407.7 818.9,407.7 770.8,407.7 
					768,407.7 719.9,407.7 717.1,407.7 717.1,411.3 717.1,434.3 719.9,434.3 719.9,411.3 768,411.3 768,434.3 770.8,434.3 
					770.8,411.3 818.9,411.3 818.9,434.3 821.7,434.3 821.7,411.3 869.7,411.3 869.7,434.3 872.6,434.3 872.6,411.3 920.6,411.3 
					920.6,434.3 923.5,434.3 923.5,411.3 971.5,411.3 971.5,434.3 974.4,434.3 974.4,411.3 1022.4,411.3 1022.4,434.3 1025.3,434.3 
					1025.3,411.3 1073.3,411.3 1073.3,434.3 1076.2,434.3 1076.2,411.3 1124.2,411.3 1124.2,434.3 1127.1,434.3 1127.1,411.3 
					1175.1,411.3 1175.1,434.3 1178,434.3 1178,411.3 1226,411.3 1226,434.3 1228.8,434.3 1228.8,411.3 1276.9,411.3 1276.9,434.3 
					1279.7,434.3 1279.7,411.3 1327.8,411.3 1327.8,434.3 1330.6,434.3 1330.6,411.3 1378.7,411.3 1378.7,434.3 1381.5,434.3 
					1381.5,411.3 1429.6,411.3 1429.6,434.3 1432.4,434.3 1432.4,411.3 1432.4,407.7 				"/>
			</g>
		</g>
		<g>
			<defs>
				<rect id="SVGID_176_" width="1367" height="700.2"/>
			</defs>
			<clipPath id="SVGID_177_">
				<use xlink:href="#SVGID_176_"  style="overflow:visible;"/>
			</clipPath>
			<g class="st97">
				<rect x="335.7" y="381.8" class="st30" width="154.9" height="2.4"/>
			</g>
		</g>
		<g>
			<defs>
				<rect id="SVGID_178_" width="1367" height="700.2"/>
			</defs>
			<clipPath id="SVGID_179_">
				<use xlink:href="#SVGID_178_"  style="overflow:visible;"/>
			</clipPath>
			<g class="st98">
				<rect x="335.7" y="261.9" class="st30" width="154.9" height="2.4"/>
			</g>
		</g>
		<g>
			<defs>
				<rect id="SVGID_180_" width="1367" height="700.2"/>
			</defs>
			<clipPath id="SVGID_181_">
				<use xlink:href="#SVGID_180_"  style="overflow:visible;"/>
			</clipPath>
			<g class="st99">
				<rect x="524.7" y="248.5" class="st29" width="149.1" height="2.4"/>
			</g>
		</g>
		<g>
			<defs>
				<rect id="SVGID_182_" width="1367" height="700.2"/>
			</defs>
			<clipPath id="SVGID_183_">
				<use xlink:href="#SVGID_182_"  style="overflow:visible;"/>
			</clipPath>
			<g class="st100">
				<rect x="524.7" y="312.7" class="st29" width="149.1" height="2.4"/>
			</g>
		</g>
		<g>
			<defs>
				<rect id="SVGID_184_" width="1367" height="700.2"/>
			</defs>
			<clipPath id="SVGID_185_">
				<use xlink:href="#SVGID_184_"  style="overflow:visible;"/>
			</clipPath>
			<g class="st101">
				<rect x="524.7" y="377" class="st29" width="149.1" height="2.4"/>
			</g>
		</g>
		<g>
			<defs>
				<rect id="SVGID_186_" width="1367" height="700.2"/>
			</defs>
			<clipPath id="SVGID_187_">
				<use xlink:href="#SVGID_186_"  style="overflow:visible;"/>
			</clipPath>
			<g class="st102">
				<rect x="335.7" y="321.3" class="st30" width="154.9" height="2.4"/>
			</g>
		</g>
		<g>
			<defs>
				<rect id="SVGID_188_" width="1367" height="700.2"/>
			</defs>
			<clipPath id="SVGID_189_">
				<use xlink:href="#SVGID_188_"  style="overflow:visible;"/>
			</clipPath>
			<g class="st103">
				<path class="st104" d="M1129.6,652.7c114.4,0,207.2,2.5,207.2,5.6s-92.8,5.6-207.2,5.6c-114.4,0-207.2-2.5-207.2-5.6
					S1015.1,652.7,1129.6,652.7L1129.6,652.7z"/>
				<g>
					<path class="st105" d="M950.9,624.6h120.3c0.5,4.8,4.6,8.5,9.5,8.5h97c1.8,2.1,4.4,3.4,7.3,3.4h98.1c5.3,0,9.6-4.3,9.6-9.6
						v-24.8c0-4.1-2.6-7.7-6.3-9v-3c0-5.3-4.3-9.6-9.6-9.6h-326c-5.3,0-9.6,4.3-9.6,9.6v24.8C941.3,620.3,945.7,624.6,950.9,624.6
						L950.9,624.6z"/>
					<g>
						<path class="st106" d="M1040.7,629h140.5c8.7,0,12.9-19.3,16.1-22.4c5.5-5.5,52.3-4.6,58.6,0c6.2,4.4,6.6,20.8,9.4,20.8h37.8
							c0.9-25,0.4-50-3.8-75c1.4-1.6,1.8-6.7-1.7-8.5c-2.3-13.7-5.3-24.9-10.4-37.7c-1.8-17.2-7.2-21.2-28-21.2H1037
							c-27.1,0-75.6,1.3-79.6,17l-25.5,41.8c-4.1,0.9-6.2,3.6-6.6,7.7c-6.2,1.4-6.6,31.4-5.5,59.1V628c13.6,4.7,33.7,3.6,48.4,3.6
							c4.2,0,9.7-22.6,17.8-30.7c5.1-5.1,35.2-3.8,38.6-0.3C1035.9,611.8,1033.7,629,1040.7,629L1040.7,629z"/>
						<path class="st107" d="M1040.7,629h140.5c8.7,0,12.9-19.3,16.1-22.4c5.5-5.5,52.3-4.6,58.6,0c6.2,4.4,6.6,20.8,9.4,20.8h37.8
							c0.9-25,0.4-50-3.8-75l-373.9-0.9c-6.2,1.4-6.6,31.4-5.5,59.1V628c13.6,4.7,33.7,3.6,48.4,3.6c4.2,0,9.7-22.6,17.8-30.7
							c5.1-5.1,35.2-3.8,38.6-0.3C1035.9,611.8,1033.7,629,1040.7,629L1040.7,629z"/>
					</g>
					<g>
						<path class="st6" d="M1299.4,552.4c1.4-1.6,1.8-6.7-1.7-8.5l-365.6-0.1c-4.1,0.9-6.2,3.6-6.6,7.7L1299.4,552.4z"/>
						<path class="st108" d="M1298.4,551.7c1.5-0.8,2-3.4-0.7-4.4l-365.6-0.1c-4.1,0.5-5.3,1.7-5.7,4L1298.4,551.7z"/>
					</g>
					<g>
						<path class="st109" d="M957.6,501.9l-25.5,41.8c3.2,1.6,10.5,2.2,12.3-1.5c5.6-11.2,11.1-22.1,15-33.8
							C960.1,506.3,959.2,503.8,957.6,501.9L957.6,501.9z"/>
						<path class="st110" d="M956.6,503.6l-23.7,38.7c2.4,1.2,8.5,1.8,9.9-1c5.4-10.9,11-21.9,14.9-33.6
							C957.9,507,957.5,504.6,956.6,503.6L956.6,503.6z"/>
					</g>
					<path class="st111" d="M1271.9,537h9.5c0.4,0,0.9,0.3,0.9,0.8l0.2,0.9c0.1,0.4-0.2,0.8-0.6,0.8h-9.5c-0.4,0-0.9-0.4-0.9-0.8
						l-0.2-0.9C1271.1,537.3,1271.4,537,1271.9,537L1271.9,537z M1265.6,508.8c3.6,0,10.2,0,10.7,1.7c0.1,0.4-0.2,0.8-0.6,0.8h-9.5
						c-0.4,0-0.9-0.3-0.9-0.8l-0.2-0.9C1264.8,509.1,1265.1,508.8,1265.6,508.8L1265.6,508.8z M1266.7,512.4h9.5
						c0.4,0,0.9,0.4,0.9,0.8l0.2,1c0.1,0.4-0.2,0.8-0.6,0.8h-9.5c-0.4,0-0.9-0.4-0.9-0.8l-0.2-1
						C1266,512.8,1266.2,512.4,1266.7,512.4L1266.7,512.4z M1267.7,515.9h9.5c0.4,0,0.9,0.4,0.9,0.8l0.2,0.9
						c0.1,0.4-0.2,0.8-0.6,0.8h-9.5c-0.4,0-0.9-0.3-0.9-0.8l-0.2-0.9C1266.9,516.3,1267.2,515.9,1267.7,515.9L1267.7,515.9z
						 M1268.6,519.4h9.5c0.4,0,0.9,0.3,0.9,0.8l0.2,0.9c0.1,0.4-0.2,0.8-0.6,0.8h-9.5c-0.4,0-0.9-0.3-0.9-0.8l-0.2-0.9
						C1267.9,519.8,1268.2,519.4,1268.6,519.4L1268.6,519.4z M1269.6,522.9h9.5c0.4,0,0.9,0.4,1,0.8l0.2,1c0.1,0.4-0.2,0.8-0.6,0.8
						h-9.5c-0.4,0-0.9-0.4-1-0.8l-0.2-1C1268.9,523.3,1269.2,522.9,1269.6,522.9L1269.6,522.9z M1270.5,526.4h9.5
						c0.4,0,0.9,0.4,0.9,0.8l0.2,1c0.1,0.4-0.2,0.8-0.6,0.8h-9.5c-0.4,0-0.9-0.4-0.9-0.8l-0.2-1
						C1269.8,526.8,1270.1,526.4,1270.5,526.4L1270.5,526.4z M1271.2,530h9.5c0.4,0,0.9,0.4,0.9,0.8l0.2,0.9
						c0.1,0.4-0.2,0.8-0.6,0.8h-9.5c-0.4,0-0.9-0.3-0.9-0.8l-0.2-0.9C1270.4,530.3,1270.7,530,1271.2,530L1271.2,530z M1271.6,533.5
						h9.5c0.4,0,0.9,0.3,0.9,0.8l0.2,0.9c0.1,0.4-0.2,0.8-0.6,0.8h-9.5c-0.4,0-0.9-0.3-0.9-0.8l-0.2-0.9
						C1270.9,533.8,1271.2,533.5,1271.6,533.5L1271.6,533.5z"/>
					<g>
						<path class="st112" d="M1302.7,581.7c1.2,0.4,2.8,1,3.1,2.3c0.9,3.9,1,22.6,0.6,24.8c-0.3,1.2-1.3,2.4-2.8,3.4
							C1302,609.6,1301.4,587.8,1302.7,581.7L1302.7,581.7z"/>
						<path class="st106" d="M1285.3,617.2h18.2c3.2,0,5.7,2.6,5.7,5.7v3.8c0,3.1-2.6,5.7-5.7,5.7h-18.2c-3.1,0-5.7-2.6-5.7-5.7V623
							C1279.6,619.8,1282.1,617.2,1285.3,617.2L1285.3,617.2z"/>
						<path class="st106" d="M919.9,617.2h6.7c3.1,0,5.7,2.6,5.7,5.7v3.8c0,3.1-2.6,5.7-5.7,5.7h-6.7c-3.1,0-5.7-2.6-5.7-5.7V623
							C914.2,619.8,916.8,617.2,919.9,617.2L919.9,617.2z"/>
						<path class="st112" d="M923.6,556.9c-1.2,0.1-2.8,0.4-3.1,0.8c-0.9,1.4-1,8.1-0.6,8.9c0.2,0.4,1.3,0.9,2.8,1.2
							C924.4,566.9,924.9,559.1,923.6,556.9L923.6,556.9z"/>
						<path class="st105" d="M922.4,576.4c-5.9,1.1-6,17.9-0.8,19.9C923.2,594.6,923.7,580.4,922.4,576.4L922.4,576.4z"/>
					</g>
					<g>
						<path class="st6" d="M1287.3,506.1c-1.8-17.2-7.2-21.2-28-21.2h-222.2c-27.1,0-75.6,1.3-79.6,17L1287.3,506.1z"/>
						<path class="st108" d="M966.2,495.9l319.4,4.4c-2.8-8.9-8.7-12.2-15.3-12.2C1168.9,486.7,991.7,482,966.2,495.9L966.2,495.9z"
							/>
					</g>
					<g>
						<path class="st112" d="M1029.7,562.4c3.3,0,6,1.9,6,4.2s-2.7,4.2-6,4.2s-6-1.9-6-4.2C1023.8,564.3,1026.4,562.4,1029.7,562.4
							L1029.7,562.4z"/>
						<path class="st6" d="M1022.7,565.7l16.4-0.9c1.2-0.1,1.2,3.7,0,3.6l-16.4-0.9C1022.1,567.5,1022.1,565.7,1022.7,565.7
							L1022.7,565.7z"/>
						<path class="st111" d="M1037.8,566.1c0.4,0,0.8,0.3,0.8,0.5c0,0.3-0.3,0.6-0.8,0.6c-0.4,0-0.7-0.3-0.7-0.6
							C1037,566.3,1037.4,566.1,1037.8,566.1L1037.8,566.1z"/>
					</g>
					<g>
						<path class="st111" d="M1005.4,603.1c16.2,0,29.3,13.1,29.3,29.3s-13.1,29.3-29.3,29.3s-29.3-13.1-29.3-29.3
							S989.2,603.1,1005.4,603.1L1005.4,603.1z"/>
						<path class="st113" d="M1005.4,612.7c10.9,0,19.7,8.8,19.7,19.7s-8.8,19.7-19.7,19.7s-19.7-8.8-19.7-19.7
							C985.7,621.5,994.5,612.7,1005.4,612.7L1005.4,612.7z"/>
						<path class="st6" d="M1005.4,615.1c9.5,0,17.2,7.7,17.2,17.3s-7.7,17.3-17.2,17.3s-17.3-7.7-17.3-17.3
							S995.9,615.1,1005.4,615.1L1005.4,615.1z"/>
						<path class="st114" d="M1005.4,618.3c7.7,0,14,6.3,14,14s-6.3,14-14,14s-14-6.3-14-14S997.7,618.3,1005.4,618.3L1005.4,618.3z
							"/>
						<path class="st6" d="M1005.4,619.9c6.9,0,12.5,5.6,12.5,12.5s-5.6,0-12.5,0s-12.5,6.9-12.5,0S998.5,619.9,1005.4,619.9
							L1005.4,619.9z"/>
					</g>
					<g>
						<rect x="1029.4" y="468.8" class="st6" width="229.7" height="7.3"/>
						<rect x="1040.4" y="503.2" class="st115" width="12.8" height="3.3"/>
						<rect x="1149.8" y="503.2" class="st115" width="12.8" height="3.3"/>
						<rect x="1233.9" y="503.2" class="st115" width="12.8" height="3.3"/>
						<path class="st111" d="M1238.2,468.8h4.3v34.3h-4.3V468.8z M1044.7,468.8h4.3v34.3h-4.3V468.8z M1154.1,468.8h4.3v34.3h-4.3
							V468.8z"/>
					</g>
					<path class="st112" d="M1155,506.5l0.9,37.3l0.5,8.2v77h-1.3v-77l-0.5-8.2l-0.9-37.3H1155z M940.3,551.3c1.2-3.5,4.7-6.4,8-8
						c3.4-10,10.1-29.5,16.8-37.4h76.1v37.8c1.2,2.3,1.6,5.6,1.3,8.1v42.5h-52.6c-12,0-18.5,31-25.9,31h-28.7
						C929.3,610.6,935,566.5,940.3,551.3L940.3,551.3z M935.9,624h27.9c6.2,0,13.1-31,25.9-31h51.4v-41.3c0.3-2.5-0.1-5.7-1.3-8V507
						h-74.2c-6.8,8.3-12.8,26.6-16.3,37.1c-3.1,1.5-6.6,4.1-7.8,7.5C936.4,566.1,930.7,609.7,935.9,624L935.9,624z"/>
					<g>
						<path class="st111" d="M1226.6,603.1c16.2,0,29.3,13.1,29.3,29.3s-13.1,29.3-29.3,29.3c-16.2,0-29.3-13.1-29.3-29.3
							S1210.5,603.1,1226.6,603.1L1226.6,603.1z"/>
						<path class="st113" d="M1226.6,612.7c10.9,0,19.7,8.8,19.7,19.7s-8.8,19.7-19.7,19.7c-10.9,0-19.7-8.8-19.7-19.7
							C1207,621.5,1215.8,612.7,1226.6,612.7L1226.6,612.7z"/>
						<path class="st6" d="M1226.6,615.1c9.5,0,17.3,7.7,17.3,17.3s-7.7,17.3-17.3,17.3c-9.5,0-17.3-7.7-17.3-17.3
							S1217.1,615.1,1226.6,615.1L1226.6,615.1z"/>
						<path class="st114" d="M1226.6,618.3c7.7,0,14,6.3,14,14s-6.3,14-14,14s-14-6.3-14-14S1218.9,618.3,1226.6,618.3L1226.6,618.3
							z"/>
						<path class="st6" d="M1226.6,619.9c6.9,0,12.5,5.6,12.5,12.5s-5.6,0-12.5,0s-12.5,6.9-12.5,0S1219.8,619.9,1226.6,619.9
							L1226.6,619.9z"/>
					</g>
					<g>
						<path class="st109" d="M971,509.7h59.9c2.3,0,4.3,1.9,4.3,4.6v21.8c0,3-1.6,5.6-4.7,5.6h-72.7c-2.4,0-4.3-3.2-3.2-5.4
							l10.9-22.8C966.3,511.4,968.7,509.7,971,509.7L971,509.7z"/>
						<path class="st110" d="M971,511.5c-1.6,0-3.4,1.3-4.1,2.8L956.1,537c-0.5,1,0.5,2.8,1.6,2.8h72.7c2.2,0,2.9-1.9,2.9-3.8v-21.8
							c0-1.5-0.9-2.8-2.5-2.8L971,511.5L971,511.5z"/>
						<path class="st116" d="M986.5,511.5h4.9L975,539.8h-4.9L986.5,511.5z M1023.3,511.5h1.9l-16.4,28.4h-1.9L1023.3,511.5z
							 M1009.6,511.5h11.9l-16.4,28.4h-11.9L1009.6,511.5z"/>
					</g>
					<g>
						<path class="st109" d="M1055.8,509.7h87.3c2.4,0,4.3,1.9,4.3,4.6v21.8c0,3-1.6,5.6-4.7,5.6h-86.5c-2.4,0-4-2-4-5.4v-22.8
							C1052.1,511.2,1053.5,509.7,1055.8,509.7L1055.8,509.7z"/>
						<path class="st110" d="M1055.8,511.5c-1.3,0-1.9,0.7-1.9,2v22.8c0,1.5,0.3,3.6,2.2,3.6h86.5c2.2,0,2.9-1.9,2.9-3.8v-21.8
							c0-1.5-0.9-2.8-2.5-2.8H1055.8z"/>
						<path class="st116" d="M1096.8,511.5h4.9l-16.4,28.4h-4.9L1096.8,511.5z M1133.6,511.5h1.9l-16.4,28.4h-1.9L1133.6,511.5z
							 M1119.9,511.5h11.9l-16.4,28.4h-11.9L1119.9,511.5z"/>
					</g>
					<g>
						<path class="st109" d="M1163.9,509.7h87.3c4.4,0,8.5,4.7,9.4,10.3l2.5,16.1c0.5,3-1.5,5.6-4.7,5.6h-94.1c-2.4,0-4-2-4-5.4
							v-22.8C1160.3,511.2,1161.6,509.7,1163.9,509.7L1163.9,509.7z"/>
						<path class="st110" d="M1163.9,511.5c-1.3,0-1.9,0.7-1.9,2v22.8c0,1.5,0.3,3.6,2.2,3.6h94.1c2,0,3.3-1.5,3-3.5l-2.5-16.1
							c-0.4-2.3-1.4-4.6-2.9-6.3c-1.2-1.3-2.9-2.5-4.7-2.5H1163.9z"/>
						<path class="st116" d="M1206.1,511.5h4.9l-16.4,28.4h-4.9L1206.1,511.5z M1242.9,511.5h1.9l-16.4,28.4h-1.9L1242.9,511.5z
							 M1229.2,511.5h11.9l-16.4,28.4h-11.9L1229.2,511.5z"/>
					</g>
					<g>
						<path class="st113" d="M1084.5,468.8h61.9c3.5,0,6.4-2.9,6.4-6.4v-10.7c0-3.5-2.9-6.4-6.4-6.4h-61.9c-3.5,0-6.4,2.9-6.4,6.4
							v10.7C1078.1,466,1081,468.8,1084.5,468.8L1084.5,468.8z"/>
						<path class="st6" d="M1078.1,456.7h74.7v-1.4h-74.7V456.7z M1078.1,458.9h74.7v-1.4h-74.7V458.9z"/>
					</g>
					<g>
						<path class="st117" d="M1159.7,468.8h61.9c3.5,0,6.4-2.9,6.4-6.4v-10.7c0-3.5-2.9-6.4-6.4-6.4h-61.9c-3.5,0-6.4,2.9-6.4,6.4
							v10.7C1153.4,466,1156.2,468.8,1159.7,468.8L1159.7,468.8z"/>
						<path class="st6" d="M1153.4,456.7h74.7v-1.4h-74.7V456.7z M1153.4,458.9h74.7v-1.4h-74.7V458.9z"/>
					</g>
				</g>
			</g>
		</g>
		<g>
			<defs>
				<rect id="SVGID_190_" width="1367" height="700.2"/>
			</defs>
			<clipPath id="SVGID_191_">
				<use xlink:href="#SVGID_190_"  style="overflow:visible;"/>
			</clipPath>
			<g id="clouds_2_" class="st118">
				<path class="st6" d="M295.4,249.5c-5.2-14.2-18.8-24.3-34.8-24.3c-3.1,0-6.1,0.4-9,1.1c-2.6-13-14.1-22.8-27.8-22.8
					c-12.7,0-23.4,8.3-27.1,19.8l0,0c-5.1-7.2-13.5-12-23.1-12c-4,0-7.8,0.8-11.2,2.3l0,0c-2.1-3.3-4.9-6.1-8.1-8.3
					c0.1-0.7,0.1-1.4,0.1-2.2c0-12.1-9.8-22-22-22c-9,0-16.7,5.4-20.1,13.2c-5.3-7.9-14.4-13.2-24.7-13.2
					c-16.4,0-29.8,13.3-29.8,29.8c0,0.1,0,0.3,0,0.4c-0.7-0.1-1.4-0.1-2.2-0.1c-13.4,0-24.2,10.8-24.2,24.2c0,3.4,0.7,6.6,2,9.6
					c-3.5,0.5-6.7,2.1-9.2,4.3c-3.5,3.2-5.7,7.7-5.7,12.8h6.9h27.7H157h33.2h33.3H271h26.7C297.6,257.8,296.8,253.4,295.4,249.5z"/>
				<path class="st119" d="M1152.6,376.9c-18-58.8-65-100.5-120.4-100.5c-10.7,0-21.1,1.7-31.1,4.6c-9-53.8-48.8-94.3-96.2-94.3
					c-43.9,0-81,34.3-93.8,81.9l0,0c-17.6-29.8-46.7-49.7-79.9-49.7c-13.8,0-27,3.3-38.8,9.5l0,0c-7.3-13.7-17-25.2-28-34.3
					c0.3-2.9,0.3-5.8,0.3-9.1c0-50.1-33.9-91-76.1-91c-31.1,0-57.8,22.3-69.5,54.6c-18.3-32.7-49.8-54.6-85.5-54.6
					c-56.7,0-103.1,55-103.1,123.3c0,0.4,0,1.2,0,1.7c-2.4-0.4-4.8-0.4-7.6-0.4c-46.4,0-83.7,44.7-83.7,100.1
					c0,14.1,2.4,27.3,6.9,39.7c-12.1,2.1-23.2,8.7-31.8,17.8c-12.1,13.2-19.7,31.9-19.7,53h23.9h95.8h359.5h114.9h115.2h164.4h92.4
					C1160.2,411.2,1157.4,393,1152.6,376.9z"/>
				<g>
					<path class="st6" d="M1064.9,280.2c0-4,1.7-7.7,4.5-10.2c2.5-2.3,5.8-3.7,9.5-3.7c1.2,0,2.4,0.2,3.5,0.5
						c1.6-13.4,13-23.7,26.8-23.7c8.6,0,16.3,4,21.2,10.3c0.8,1,1.5,2,2.1,3.1c1.2-1.2,2.6-2.2,4.1-3.1c3-1.8,6.5-2.8,10.3-2.8
						c11,0,19.9,8.6,20.5,19.4l0,0c5.7,0,10.3,4.6,10.3,10.2H1064.9z"/>
				</g>
				<g>
					<path class="st6" d="M1103.6,141.3c0-1.8-0.5-3.4-1.4-4.8c-1.6-2.6-4.5-4.3-7.8-4.3c-0.6,0-1.1,0-1.6,0.1l0,0
						c0-0.3,0-0.6,0-0.9c0-5.5-4.4-9.9-9.9-9.9c-0.4,0-0.9,0-1.3,0.1c-2.3-4.5-6.9-7.6-12.3-7.5c-5.7,0.1-10.5,3.7-12.5,8.7
						c-2,0.8-3.7,2.3-4.8,4.2l0,0c-0.4-0.1-0.8-0.1-1.2-0.1c-5,0-9,3.7-9.6,8.5c-0.6-0.2-1.2-0.3-1.8-0.3c-1.5,0-2.8,0.5-3.9,1.4
						c-1.4,1.1-2.3,2.9-2.3,4.8L1103.6,141.3L1103.6,141.3z"/>
				</g>
				<g>
					<path class="st6" d="M1179.5,94.7c0-0.9-0.3-1.7-0.7-2.4c-0.8-1.3-2.2-2.2-3.9-2.2c-0.3,0-0.6,0-0.8,0.1l0,0c0-0.2,0-0.3,0-0.5
						c0-2.7-2.2-5-5-5c-0.2,0-0.4,0-0.7,0c-1.1-2.3-3.5-3.8-6.2-3.8c-2.8,0-5.3,1.8-6.2,4.3c-1,0.4-1.9,1.2-2.4,2.1l0,0
						c-0.2,0-0.4,0-0.6,0c-2.5,0-4.5,1.9-4.8,4.3c-0.3-0.1-0.6-0.1-0.9-0.1c-0.7,0-1.4,0.3-1.9,0.7c-0.7,0.6-1.2,1.4-1.2,2.4
						L1179.5,94.7L1179.5,94.7z"/>
				</g>
				<g>
					<path class="st6" d="M200.4,94.7c0-0.9-0.3-1.7-0.7-2.4c-0.8-1.3-2.2-2.2-3.9-2.2c-0.3,0-0.5,0-0.8,0.1l0,0c0-0.2,0-0.3,0-0.5
						c0-2.7-2.2-5-5-5c-0.2,0-0.4,0-0.7,0c-1.1-2.3-3.5-3.8-6.2-3.8c-2.9,0-5.3,1.8-6.2,4.3c-1,0.4-1.9,1.2-2.4,2.1l0,0
						c-0.2,0-0.4,0-0.6,0c-2.5,0-4.5,1.9-4.8,4.3c-0.3-0.1-0.6-0.1-0.9-0.1c-0.7,0-1.4,0.3-1.9,0.7c-0.7,0.6-1.2,1.4-1.2,2.4
						L200.4,94.7L200.4,94.7z"/>
				</g>
				<g>
					<path class="st6" d="M953.8,90.2c0-2.4-0.7-4.6-1.9-6.5c-2.2-3.5-6.1-5.9-10.5-5.9c-0.8,0-1.5,0.1-2.2,0.2l0,0
						c0-0.4,0.1-0.8,0.1-1.2c0-7.4-6-13.4-13.4-13.4c-0.6,0-1.2,0-1.8,0.1c-3-6.1-9.4-10.3-16.7-10.2c-7.7,0.1-14.3,5-16.9,11.7
						c-2.7,1.1-5,3.1-6.5,5.7l0,0c-0.5-0.1-1.1-0.1-1.7-0.1c-6.7,0-12.2,5.1-13,11.6c-0.8-0.2-1.6-0.4-2.4-0.4c-2,0-3.8,0.7-5.2,1.8
						c-1.9,1.5-3.1,3.9-3.1,6.5h95.2V90.2z"/>
				</g>
				<g>
					<path class="st6" d="M588.7,122.5c0-3.5-1-6.8-2.7-9.5c-3.2-5.1-8.9-8.5-15.3-8.5c-1.1,0-2.2,0.1-3.2,0.3l0,0
						c0.1-0.6,0.1-1.2,0.1-1.8c0-10.8-8.8-19.6-19.6-19.6c-0.9,0-1.7,0.1-2.6,0.2c-4.4-8.9-13.7-15-24.3-14.8
						c-11.3,0.1-20.8,7.2-24.7,17.1c-4,1.6-7.3,4.6-9.4,8.3l0,0c-0.8-0.1-1.6-0.2-2.5-0.2c-9.8,0-17.9,7.4-18.9,16.9
						c-1.1-0.3-2.3-0.5-3.5-0.5c-2.9,0-5.5,1-7.6,2.7c-2.8,2.2-4.6,5.7-4.6,9.5L588.7,122.5L588.7,122.5z"/>
				</g>
				<g class="st120">
					<path class="st6" d="M281.4,98c0-2.2,0.9-4.2,2.4-5.6c1.4-1.3,3.2-2,5.2-2c0.7,0,1.3,0.1,1.9,0.3c0.9-7.3,7.1-12.9,14.6-12.9
						c4.7,0,8.9,2.2,11.6,5.6c0.4,0.5,0.8,1.1,1.1,1.7c0.7-0.7,1.4-1.2,2.2-1.7c1.7-1,3.6-1.5,5.6-1.5c6,0,10.9,4.7,11.2,10.6l0,0
						c3.1,0,5.6,2.5,5.6,5.6L281.4,98L281.4,98z"/>
				</g>
			</g>
		</g>
		<g>
			<defs>
				<rect id="SVGID_192_" width="1367" height="700.2"/>
			</defs>
			<clipPath id="SVGID_193_">
				<use xlink:href="#SVGID_192_"  style="overflow:visible;"/>
			</clipPath>
			<g class="st121">
				<g>
					<path class="st122" d="M264.9,129.8h-2.7c0-9.2-11.6-16.7-25.8-16.7c-0.7,0-1.3-0.6-1.3-1.3c0-0.7,0.6-1.3,1.3-1.3
						c12.7,0,23.4,5.7,27.1,13.5c3.7-7.8,14.4-13.5,27.1-13.5c0.7,0,1.3,0.6,1.3,1.3c0,0.7-0.6,1.3-1.3,1.3
						C276.5,113.1,264.9,120.6,264.9,129.8z"/>
				</g>
				<g>
					<path class="st122" d="M287.5,78h-2.7c0-4.8-6.2-8.7-13.7-8.7c-0.7,0-1.3-0.6-1.3-1.3c0-0.7,0.6-1.3,1.3-1.3
						c6.8,0,12.6,2.8,15.1,6.8c2.5-4,8.2-6.8,15.1-6.8c0.7,0,1.3,0.6,1.3,1.3c0,0.7-0.6,1.3-1.3,1.3C293.7,69.3,287.5,73.2,287.5,78
						z"/>
				</g>
				<g>
					<path class="st122" d="M133.2,340.7h-2.7c0-4.8-6.2-8.7-13.7-8.7c-0.7,0-1.3-0.6-1.3-1.3c0-0.7,0.6-1.3,1.3-1.3
						c6.8,0,12.6,2.8,15.1,6.8c2.5-4,8.2-6.8,15.1-6.8c0.7,0,1.3,0.6,1.3,1.3c0,0.7-0.6,1.3-1.3,1.3
						C139.4,332,133.2,335.9,133.2,340.7z"/>
				</g>
				<g>
					<path class="st122" d="M1217.2,397.8h-2.7c0-4.8-6.2-8.7-13.7-8.7c-0.7,0-1.3-0.6-1.3-1.3c0-0.7,0.6-1.3,1.3-1.3
						c6.8,0,12.6,2.8,15.1,6.8c2.5-4,8.2-6.8,15.1-6.8c0.7,0,1.3,0.6,1.3,1.3c0,0.7-0.6,1.3-1.3,1.3
						C1223.3,389.1,1217.2,393,1217.2,397.8z"/>
				</g>
				<g>
					<path class="st122" d="M178.7,364.3H176c0-4.8-6.2-8.7-13.7-8.7c-0.7,0-1.3-0.6-1.3-1.3c0-0.7,0.6-1.3,1.3-1.3
						c6.8,0,12.6,2.8,15.1,6.8c2.5-4,8.2-6.8,15.1-6.8c0.7,0,1.3,0.6,1.3,1.3c0,0.7-0.6,1.3-1.3,1.3
						C184.8,355.6,178.7,359.5,178.7,364.3z"/>
				</g>
				<g>
					<path class="st122" d="M1179.2,365.5h-2.1c0-3.7-4.8-6.8-10.8-6.8c-0.6,0-1.1-0.5-1.1-1.1s0.5-1,1.1-1c5.4,0,9.9,2.2,11.8,5.3
						c2-3.2,6.5-5.3,11.8-5.3c0.6,0,1.1,0.5,1.1,1c0,0.6-0.5,1.1-1.1,1.1C1184.1,358.7,1179.2,361.7,1179.2,365.5z"/>
				</g>
				<g>
					<path class="st122" d="M775,188.2h-2.1c0-3.7-4.8-6.8-10.8-6.8c-0.6,0-1.1-0.5-1.1-1.1s0.5-1,1.1-1c5.4,0,9.9,2.2,11.8,5.3
						c2-3.2,6.5-5.3,11.8-5.3c0.6,0,1.1,0.5,1.1,1c0,0.6-0.5,1.1-1.1,1.1C779.8,181.4,775,184.5,775,188.2z"/>
				</g>
				<g>
					<path class="st122" d="M729.7,204.7H727c0-4.8-6.2-8.7-13.7-8.7c-0.7,0-1.3-0.6-1.3-1.3s0.6-1.3,1.3-1.3
						c6.8,0,12.6,2.8,15.1,6.8c2.5-4,8.2-6.8,15.1-6.8c0.7,0,1.3,0.6,1.3,1.3s-0.6,1.3-1.3,1.3C735.8,196,729.7,199.9,729.7,204.7z"
						/>
				</g>
				<g>
					<path class="st122" d="M1123.9,179.5h-2.7c0-4.8-6.2-8.7-13.7-8.7c-0.7,0-1.3-0.6-1.3-1.3s0.6-1.3,1.3-1.3
						c6.8,0,12.6,2.8,15.1,6.8c2.5-4,8.2-6.8,15.1-6.8c0.7,0,1.3,0.6,1.3,1.3s-0.6,1.3-1.3,1.3
						C1130,170.8,1123.9,174.7,1123.9,179.5z"/>
				</g>
				<g>
					<path class="st122" d="M1163.1,195.2h-2.7c0-4.8-6.2-8.7-13.7-8.7c-0.7,0-1.3-0.6-1.3-1.3s0.6-1.3,1.3-1.3
						c6.8,0,12.6,2.8,15.1,6.8c2.5-4,8.2-6.8,15.1-6.8c0.7,0,1.3,0.6,1.3,1.3s-0.6,1.3-1.3,1.3
						C1169.3,186.5,1163.1,190.4,1163.1,195.2z"/>
				</g>
			</g>
		</g>
	</g>
</g>
<g>
	<path class="st123" d="M495,303c-0.3,4.2,4.4,13.1-6.8,13.8c-20.4,1.7-13.5-26.8-11.2-65.1c1.4-22.7,1.4-36.2,2.6-50.1
		c18.6-13.2,67.1-0.8,59.8,24.7c-4.9,17.4-14.7,21.5-21.6,25.6c4.8,3.3,12.3,8.3,13.6,17.4c1.5,8.6,4.8,17,4.9,25.9
		c0.2,11.7,7.8,12.3,10.7,16.7c3.9,5.3-20.3,4.1-25-8.4c-10.9-29.2-3.4-45-22.1-45C498.4,262.7,498.4,257,495,303z M498.2,210.2
		c1.5,38.3,0.7,31.7,3.2,35.5c8-4.1,26.2-10.8,20.3-27.1c-4.3-11.9-7.2-13.5-22.3-11.7C498.9,208.2,498.2,209.1,498.2,210.2z"/>
	<path class="st123" d="M581,249.6c2.4,10.5,0,20.7-1.7,31c-1.4,9-1.2,18-1.9,26.5c2,2.4,3.9,1.7,5.8,1.4c2.2-0.5,21.1-4.5,23.3-4.5
		c2,0.1,4.8,3.8,2.4,5c-12.8,6.9-25.5,13.5-41.2,13.2c-12.3-0.3-16.9-16.1-16.7-23.3c3.6-106.2-0.9-100,7-104.2
		c2.2-1.2,4.4-2.6,7.3-2.1c2.6,0.5,5.3,0.3,7.8,0.9c9.7,2.3,19.4,3.3,29.5,3.3c3.1,0,6.1,0.2,9,0.6c2,0.5,3.9,1.7,5.8,2.6
		c-3.7,7.7-5.3,8.9-12.3,8.4c-7.7-0.3-15.3-0.9-22.8-1.4c-1.9,0-3.6,0-6.5,0c4.8,9,1.2,18.2,5.5,26.2c7.5,4.8,17,0.8,24.2,5.4
		c0.7,2.4-0.2,4.2-2.9,4.7c-5.3,1.1-10.4,1.7-15.7,2.6c-1.9,0.2-3.6,0.3-5.5,0.6C581.2,247.6,580.7,248.7,581,249.6z"/>
	<path class="st123" d="M687.5,292c0.9,7.8,1.7,15.8,2.4,23.8c-15.3,5.6-15-7.1-17.9-21.5c-7.5-2-20.8-1.8-26.9,0
		c-8.2,2.4-5.4,6.8-8.5,12c-2,3.6-3.2,7.4-2.2,11.3c-6.8,3.9-13.1,4.7-20.6,1.5c-0.3-1.2-0.9-2.7-1.4-4.1l4.1-12.2
		c0.2,0,0.2,0,0.2,0c0.2-0.8,0.3-1.4,0.7-2.1l2.9-8.6c2.7-7.1,5.6-14,7.8-21c19.8-63.6,22-71.9,42.1-75.5
		c13.3,23,11.2,28.9,16.5,82.6C687.1,282.8,687.3,288.5,687.5,292z M667.5,229.6c-0.2-3.3-1.2-6.5-1.9-10.5c-5.1,3.6-6,8.1-6.6,12.2
		c-3.2,19.4-11.2,37.7-11.2,51.4c17.4,0,11.4,0.2,21.8-0.9C671.8,277.6,672,285.8,667.5,229.6z"/>
	<path class="st123" d="M706,196.2c28.4-3.5,28.4-3.6,45.3,3.3c18.7,7.7,19.8,19.7,20.9,27.4c2,11.7,1.2,23.3-3.4,34.6
		c-8.5,20.7-0.3,13.5-25.6,44.4c-1.5,2-18.2,11-20.1,11.3c-5.5,0.8-11.4,4.2-16.4,0.6c-6.5-4.7-12.3-10.5-12.4-18.5
		c-0.7-27.4,6.8-78.8,6.8-100.7C703.3,197.6,704.7,196.4,706,196.2z M725.3,303c9-9.5,17.2-15.8,23.2-37.3c6.8-24.7,10-35,0.2-49.8
		c-6.3-9.5-12.4-11-25-6.5c0,66.8-5.8,51.3-6,94.9C723.8,304.3,724.1,304.3,725.3,303z"/>
	<path class="st123" d="M846.4,196c9-9.2,27.9,3.9,20.8,10.4c-6.8,5.9-61.3,109.4-64.4,115.8c-1,2.1-1.9,4.4-4.6,3.8
		c-8.2-1.8-10.1-11.8-11.8-19.6c-0.7-3.1,13.6-34.9,15-37.8c2.6-5.6,2.2-10-1.2-15.5c-17.9-28.3-9.5-20.4-25.6-48.9
		c-6.3-11.2,14.3-12.7,20.8-1.2c10.6,19.1,18.7,37.2,18.7,37.2C834,209.5,832.5,210.5,846.4,196z"/>
</g>
<g>
	<g>
		<path class="st5" d="M569.6,341.8c-3,0.3-4.9-0.4-7.3,0.1c-0.7,3.9-0.3,7.7,1.1,11.8c4.3,1.5,8.7,2,12.9,3
			c0.4,1.4-0.3,2.1-1.2,2.2c-6.6,0.9-9,0.2-11.8-0.1c-1.9,8.9,1.6,10-2.1,22.6c-0.4,1.4-0.4,2.8-0.6,4.3c-1.1,1.2-3,1.3-4.7,1.5
			c-2.8,0.4-5.4-4.1-5.5-6.8c-0.1-3.5-0.4-7.1-0.3-10.5c0.7-31.6,0.6-34.7,7.1-33.7c6.6,1.2,20.1-2.3,23.4,3.1
			C577.4,341.8,582,340.1,569.6,341.8z"/>
		<path class="st5" d="M595.1,337.3c15.7,0,20.8,21.7,19.3,37.6c-0.8,8.4-5.2,22.4-14.2,20.8c-11.9-0.5-27.7-24.5-15.4-51.7
			C589.2,333.7,591,337.2,595.1,337.3z M605.1,352c-1.6-8.4-8.6-8.3-9.9-5c-6.1,15.2-7.7,37.8,5.9,44.9
			C604.3,390.9,610.8,381.3,605.1,352z"/>
		<path class="st5" d="M623.3,392.7c-0.2,2.2,1.8,7.2-2.9,7.1c-8.5-0.2-5.5-14.7-4.4-34.9c0.7-11.9,0.7-19.1,1.3-26.4
			c7.7-7,27.8-0.3,24.8,13.7c-2.1,9.5-6.2,11.6-9.1,13.6c2,1.9,5.1,4.7,5.6,9.7c0.6,4.7,1.9,9.4,2,14.2c0,6.4,3.2,7,4.4,9.4
			c1.6,3-8.5,1.6-10.4-5.3c-4.5-16.2-1.3-24.4-9.1-24.9C624.8,371.3,624.8,368.3,623.3,392.7z M624.9,343.2
			c0.5,20.5,0.2,17,1.2,19.1c3.3-2,10.9-5.5,8.5-14.3c-1.7-6.5-2.9-7.4-9.2-6.5C625.2,342.2,624.9,342.7,624.9,343.2z"/>
		<path class="st5" d="M696,398c-7-5.2-17.1-41.5-21.9-47.3c-1.3,0.9-1,2.2-1,3.2c0.2,40.9-1.3,22.1-0.5,46.5c0.1,4.5-4.2,4.4-5,2.1
			c-1.1-3-1.2-2.4-0.7-21.1c1.4-46.4-1-47,3.8-46.5c8.1,0.6,10.2,10.4,25.5,46c2.5-0.4,1.8-42,3.4-45.1c0.6-1.1,2.4-1.1,2.8,0.1
			c3.4,10.1-1.7,43.6,0.1,60.7C699.4,400.1,699,400.1,696,398z"/>
		<path class="st5" d="M719.9,364.2c1,5.6,0.1,11-0.6,16.6c-0.5,4.9-0.4,9.7-0.7,14.2c0.9,1.2,1.6,0.7,2.4,0.5
			c0.9-0.3,8.8-3.4,9.7-3.5c0.9,0,2,1.7,1,2.5c-5.3,4.3-10.6,8.5-17.1,9.1c-5.1,0.4-7.1-8.1-7-12c1.2-57.7-0.6-54.3,2.6-56.6
			c0.9-0.7,1.8-1.4,3-1.1c1.1,0.2,2.2,0.2,3.2,0.5c4,1.2,8.1,1.7,12.2,1.7c1.3,0,2.5,0.1,3.7,0.3c0.8,0.2,1.6,0.8,2.4,1.3
			c-1.5,4-2.2,4.6-5.1,4.5c-3.2-0.1-6.4-0.4-9.5-0.6c-0.8,0-1.5,0-2.7,0c2,4.8,0.6,9.7,2.4,13.9c3.1,2.4,7.1,0.1,10.1,2.4
			c0.3,1.2-0.1,2.2-1.2,2.5c-2.2,0.7-4.3,1.1-6.5,1.7c-0.8,0.1-1.5,0.2-2.3,0.4C720,363.2,719.8,363.7,719.9,364.2z"/>
		<path class="st5" d="M755.4,374.3c1-5.4,3.5-10.2,5.5-15c2.6-6.2-0.3-18.9,0.3-21c1-3.6,6.8-5.9,9.4,16.5
			c0.6,5.3,2.6,15.1,4.8,22.3c1.8-4.7,9.7-30.7,10.3-32.2c0.8-2.7,2.4-5.1,3.7-7.6c0.6-1,0.7-1,3.6-2.4c-0.3,4.8-0.1-0.9-4.6,15.1
			c-3.6,13.1-2.5,4.5-7.4,24.9c-3.2,13.4-2.5,10.2-1.8,13.2c-1.5,0.9-2.9,1.8-4.2,2.7c-4.5-1.1-7.3-3.7-8.3-8.4
			c-0.4-1.8-2.8-13.6-4-14.9c-1.4,2.2-1.5,3.9-5.5,22.8c-0.2,1.1-0.7,1.9-1.7,2.4c-0.8,0.4-1.5,0.7-2.3,1.2
			c-7.8-5.1-7.4-8.5-15.6-51.2c-0.2-1.2-0.4-2.4-0.5-3.6c-0.1-5,7.5-3.5,9.7,2.7c3.9,11.4,6.8,30.8,7.8,33.8
			C755.1,374.9,755.4,374.6,755.4,374.3z"/>
	</g>
</g>
<g>
	<g>
		<path class="st5" d="M462.1,483.3c0.6,8.5,1.1,17.1,1.6,25.7c-10.1,6-9.9-7.9-11.8-23.8c-5-2.4-13.8-2.8-17.8-1
			c-5.4,2.5-3.6,7.5-5.6,13.5c-1.4,4.1-2.1,8.4-1.5,12.9c-4.5,4.5-8.7,5.4-13.6,1.6c-0.2-1.4-0.6-3.2-0.9-4.8l2.7-14.3
			c0.1,0,0.1,0,0.1,0c0.1-0.9,0.2-1.6,0.4-2.4l1.9-9.9c1.8-8.1,3.7-16,5.2-24.1c13.1-70.7,14.5-79.7,27.9-80.4
			c8.8,27.2,7.4,33.3,10.9,92C461.9,473.4,462,479.6,462.1,483.3z M448.9,413.5c-0.1-3.7-0.8-7.3-1.2-11.9
			c-3.4,3.3-3.9,8.3-4.4,12.7c-2.1,21.4-7.4,41.4-7.4,56.9c11.5,0.9,7.6,0.8,14.4,0.2C451.7,466.8,451.8,475.9,448.9,413.5z"/>
		<path class="st5" d="M474.4,383c18.8,1.2,18.8,1.1,30,10.9c12.4,10.5,13.1,22.3,13.9,29.9c1.4,11.6,0.8,22.7-2.3,33.2
			c-5.6,19.7-0.2,13.1-16.9,42.6c-1,1.9-12.1,10.9-13.3,11.2c-3.6,0.7-7.6,4.3-10.8,0.5c-4.3-5-8.1-11.3-8.2-19.9
			c-0.5-29.4,4.5-83.5,4.5-106.8C472.6,383.9,473.5,382.9,474.4,383z M487.1,496.1c6-9.4,11.4-15.5,15.3-36.7
			c4.5-23.9,6.7-33.8,0.1-49.7c-4.2-10.4-8.2-12.9-16.6-10.2c0,68.9-3.8,52.5-3.9,97.8C486.1,497.5,486.3,497.5,487.1,496.1z"/>
		<path class="st5" d="M549.7,509.8c-21.1-8.8-12.6-21.7-30.7-109.9c2.9-5.2,10.6,0.4,13.2,7c7.7,18.9,11.7,64.8,15.8,73.7
			c1.8-8,0.7-15.5,2.1-20.9c4.5-16.7,3.6-31,9.5-50c0.4-1.2,1.5-2.2,2.3-3c0.8-0.7,2.9,0.6,3.2,2c0.1,1.2,0.5,2.6,0.1,3.4
			c-3.3,10.6-2.7,22.7-4.6,34.1c-7.1,41.5-7.6,59.4-7.8,63.2C551.6,509.6,550.5,510.2,549.7,509.8z"/>
		<path class="st5" d="M585.3,455.4c1.6,9,0,17.3-1.1,25.7c-0.9,7.5-0.8,15-1.2,22.1c1.4,2,2.6,1.5,3.8,1.2c1.5-0.3,14-3.2,15.4-3.2
			c1.4,0.2,3.2,3.1,1.6,4c-8.5,5.4-16.9,10.8-27.3,10.5c-8.1-0.3-11.2-14.1-11.1-20.3c2.4-92-0.6-87.4,4.6-89.8
			c1.5-0.7,2.9-1.4,4.8-0.6c1.7,0.8,3.5,1.2,5.2,2.1c6.4,3.5,12.9,6,19.5,7.7c2,0.5,4.1,1.1,6,2c1.4,0.7,2.6,2,3.8,3
			c-2.5,5.4-3.5,6.2-8.1,4.8c-5.1-1.4-10.2-3.1-15.1-4.6c-1.2-0.3-2.4-0.5-4.3-1c3.2,8.2,0.8,15.4,3.6,22.6c5,4.8,11.3,2.6,16,7.2
			c0.5,2-0.1,3.4-1.9,3.4c-3.5,0.3-6.9,0.3-10.4,0.5c-1.2-0.1-2.4-0.1-3.6-0.1C585.4,453.8,585.1,454.7,585.3,455.4z"/>
		<path class="st5" d="M658,507c-11-7.5-26.8-57-34.5-66.2c-2,0.9-1.6,2.7-1.6,4c0.2,55.9-2,29.9-0.8,63.5c0.2,6.2-6.7,6-7.9,2.8
			c-1.7-4.3-1.9-3.3-1.1-29.5c2.1-64.5-1.6-66.4,6-63.7c12.9,4.3,16.3,17.7,40.5,67.8c3.9-0.1,3-51.7,5.6-54.8
			c1-1.1,3.8-0.3,4.5,1.2c5.4,13.6-3,52.8-0.3,74C663.3,510,662.7,510,658,507z"/>
	</g>
</g>
<g>
	<g>
		<path class="st5" d="M676.3,439.4c-0.4-0.1-1-0.1-1.2-0.4c-0.6-0.8-1.2-1.7-1.1-2.7c0-0.6,1.1-1.8,1.9-2.1
			c34.4-11.8,22.6-4,44.3-9.7c2.7-0.7,14.8-1.2,14.4,1.5c-0.8,6.2-12.2,4.5-21.6,8.3c0,18.7,3,5.8,0.7,59
			c-0.3,5.2-0.9,10.4,0.3,15.4c0.7,3.1-0.9,7-5.3,5.5c-10.1-3.2-10.1-5.4-11-13c-0.7-6.1-0.3-12.4-2.3-18.1
			c-1.1-3.6,0.3-44.2-2.8-46.2C688,436.3,684,441.1,676.3,439.4z"/>
		<path class="st5" d="M757.6,501.2c3.3,4.7,10.8,2,12.5-14c2-18.9,4.2-38.2,2-56.9c-0.4-4.7-0.2-9.5,0.8-14.3
			c0.6-2.6,2.4-4.3,4.5-4.4c3.5,0,6.1,1.3,7,5.3c7.4,32.4,1.7,61.6-0.8,74.9c-1.7,8.6-4.7,6.7-10,11.8c-13,12.1-28,5-33.3-6.2
			c-6.7-13.8-6.7-24.3-3.5-53.1c2.8-26,5.2-29.9,16.6-22.1C751,473,748.3,488.1,757.6,501.2z"/>
		<path class="st5" d="M804.6,498.8c-0.2,3.8,2.9,11.6-4.5,12.4c-13.5,1.5-8.9-23.1-7.4-56.5c0.9-19.9,0.9-31.7,1.7-43.9
			c12.3-14.4,44.4-10.1,39.6,14.9c-3.3,16.9-9.7,21.5-14.3,25.8c3.2,2.7,8.1,6.7,9,15.2c1,7.9,3.2,15.7,3.3,24
			c0.1,11,5.2,11.4,7.1,15.5c2.6,5-13.4,4-16.6-7.5c-7.2-26.3-2.3-41.2-14.7-39.8C806.8,462.7,806.8,457.6,804.6,498.8z
			 M806.7,415.8c1,34.1,0.4,28.3,2.1,31.4c5.3-4.4,17.4-12.4,13.4-26.7c-2.8-10.4-4.7-11.5-14.8-7.8
			C807.2,414,806.7,414.8,806.7,415.8z"/>
		<path class="st5" d="M861.5,444.1c1.6,10.2,0,20.5-1.1,30.7c-0.9,9-0.8,17.9-1.2,26.2c1.4,2.3,2.6,1.6,3.8,1.2
			c1.5-0.5,14-4.9,15.5-5c1.4,0.1,3.2,3.7,1.6,5c-8.5,7.2-16.9,13.8-27.3,13.5c-8.1-0.3-11.2-15.4-11-22.3
			c2.4-101.9-0.6-95.4,4.6-100.6c1.5-1.5,2.9-3.1,4.9-3.1c1.7,0.1,3.5-0.5,5.2-0.3c6.4,0.8,12.9,0.4,19.5-1c2-0.4,4.1-0.7,6-0.7
			c1.4,0.2,2.6,1.1,3.8,1.8c-2.5,8.4-3.5,9.8-8.1,10.3c-5.1,0.7-10.2,1.1-15.1,1.7c-1.2,0.2-2.4,0.5-4.3,0.9
			c3.2,8.3,0.8,17.8,3.6,25.2c5,4,11.3-1,16,3c0.5,2.4-0.1,4.3-1.9,5c-3.5,1.5-6.9,2.6-10.4,4c-1.2,0.3-2.4,0.6-3.6,1.1
			C861.6,442.1,861.3,443.2,861.5,444.1z"/>
		<path class="st5" d="M913.2,398.4c-1.1-7.7-7.6-6.3-9-1.8c-11.3,33.9,24,30.2,26.2,73.2c0.8,16.3-7.6,29.7-8.8,34.9
			c-2.3,9.5-19.6,14.4-31.9-4.6c-6.5-9.7-5.7-23-2.7-32.1c2.5-7.2,13.9-7.2,12.6,2c-0.7,5-7.4,21.4,4.2,29.8
			c1.8,1.4,3.7,1.7,5.7,0.7c1.8-3.9,3.6-7.9,5.6-11.5c4.9-9.4,2.7-35.1-8.8-46.8c-25.1-23.8-15.4-56.7-2.3-60.1
			c15.6-4.1,26,6,17.7,32.3C914.2,417.4,913.8,403,913.2,398.4z"/>
	</g>
</g>
</svg>
