<svg xmlns="http://www.w3.org/2000/svg" xmlns:xlink="http://www.w3.org/1999/xlink" viewBox="0 0 1368 704"><defs><style>.cls-1{fill:none;}.cls-2{clip-path:url(#clip-path);}.cls-3{fill:#eee;}.cls-4{clip-path:url(#clip-path-2);}.cls-5{fill:#e5e5e5;}.cls-6{fill:#fff;}.cls-7{fill:#1d2542;}.cls-8{fill:#bccec3;}.cls-9{fill:#adbcb2;}.cls-10{fill:#b8c1bb;}.cls-11{fill:#aab2ac;}.cls-12{fill:#8ea899;}.cls-13{fill:#eae6dc;}.cls-14{clip-path:url(#clip-path-28);}.cls-15{fill:#faf7ee;}.cls-16{fill:#5c1d19;}.cls-17{fill:#a57782;}.cls-18{fill:#646a6b;}</style><clipPath id="clip-path"><rect class="cls-1" width="1368" height="704"/></clipPath><clipPath id="clip-path-2"><polyline class="cls-1" points="1368 744.6 -2.6 744.6 -2.6 -13.7 1368 -13.7 1368 744.6"/></clipPath><clipPath id="clip-path-28"><path class="cls-1" d="M162.4,450.7a.72.72,0,0,0-.6.4l.4-.1c-1.3.4-.6,6.7,1,6.8h.1c.2,0,.3-.1.5-.2"/></clipPath></defs><title>Plan de travail 1</title><g id="Calque_2" data-name="Calque 2"><g class="cls-2"><polyline class="cls-3" points="1368 744.6 -2.6 744.6 -2.6 -13.7 1368 -13.7 1368 744.6"/><g class="cls-4"><polyline class="cls-5" points="-2.6 -13.7 1368 -13.7 1368 744.6 -2.6 744.6 -2.6 -13.7"/></g><g class="cls-4"><path class="cls-5" d="M830.5,709.6c-410.6,0-743.4-180.9-743.4-403.9,0-111.5,83.2-212.5,217.7-285.6Q330,6.45,357.6-6c9.2-4.1,18.5-8.1,28.1-12v3.6h889.6V-18c9.5,3.9,18.9,7.9,28.1,12q27.6,12.3,52.8,26.1c4.2,2.3,8.4,4.6,12.5,6.9,2.1,1.2,4.1,2.3,6.1,3.5H1369V580.8h5.8c-2,1.2-4.1,2.4-6.1,3.5-4.1,2.3-8.3,4.7-12.5,6.9-134.5,73.2-320.4,118.4-525.7,118.4"/></g><g class="cls-4"><path class="cls-5" d="M830.5,695.1c-395.9,0-716.9-174.4-716.9-389.5,0-107.6,80.2-204.9,210-275.4A803,803,0,0,1,429.7-17.4v2.9h801.6v-2.9a790.2,790.2,0,0,1,106.1,47.6q12.15,6.6,23.7,13.5c3.9,2.3,7.7,4.6,11.4,7h-3.6V560.5h3.6c-3.8,2.4-7.6,4.7-11.4,7q-11.55,6.9-23.7,13.5c-129.7,70.6-308.9,114.1-506.9,114.1"/><path class="cls-5" d="M830.5,694.6c-197.88,0-377-43.59-506.67-114C259,545.36,206.56,503.43,170.34,456.9S114.1,359.25,114.1,305.6s20-104.79,56.22-151.31S259,65.86,323.84,30.64a801.93,801.93,0,0,1,106-47.57l-.17-.47h-.5V-14h802.6v-3.4h-.5l-.17.47a789.16,789.16,0,0,1,106,47.57q12.15,6.6,23.68,13.49h0c3.89,2.3,7.69,4.59,11.38,7l.27-.42v-.5h-4.1V561h4.1v-.5l-.27-.42c-3.79,2.39-7.59,4.69-11.39,7h0q-11.53,6.9-23.68,13.49c-129.6,70.55-308.73,114-506.66,114v1c198.07,0,377.35-43.51,507.14-114.16q12.15-6.6,23.72-13.51h0c3.8-2.3,7.6-4.6,11.41-7l1.46-.92h-4.83V51.2h4.79l-1.42-.92c-3.71-2.41-7.51-4.71-11.42-7h0q-11.56-6.9-23.72-13.51a791.8,791.8,0,0,0-106.17-47.63l-.67-.25V-15H430.2v-3.12l-.67.25A804,804,0,0,0,323.36,29.76C258.41,65,205.86,107,169.53,153.68s-56.43,98-56.43,151.92,20.11,105.25,56.45,151.91c109,140,363.92,238.08,661,238.09v-1Z"/></g><g class="cls-4"><path class="cls-5" d="M830.5,666.3c-366.6,0-663.8-161.5-663.8-360.7,0-99.6,74.3-189.8,194.4-255a733,733,0,0,1,98.2-44Q485.85-3.15,514-11.5c9.4-2.8,19-5.4,28.6-8v5h575.6v-5c9.7,2.5,19.2,5.2,28.6,8,18.8,5.6,37.1,11.6,54.7,18.1a745.85,745.85,0,0,1,98.2,44q22.5,12.3,42.8,25.6c6.8,4.5,13.3,9,19.7,13.6,3.2,2.3,6.3,4.7,9.4,7h-2.9V514.4h2.9c-3.1,2.4-6.2,4.7-9.4,7-6.4,4.6-12.9,9.2-19.7,13.6-13.5,8.9-27.8,17.5-42.8,25.6-119.9,65.3-285.9,105.7-469.2,105.7"/></g><g class="cls-4"><path class="cls-5" d="M830.5,651.9c-351.9,0-637.2-155-637.2-346.2,0-95.6,71.3-182.2,186.6-244.8C437.6,29.6,506.2,4.2,582.5-13.3c9.5-2.2,19.2-4.3,28.9-6.2v5.2h438.2v-5.2c9.8,1.9,19.4,4,28.9,6.2,76.2,17.5,144.9,42.9,202.5,74.2,28.8,15.7,54.9,32.8,77.8,51.2,5.7,4.6,11.2,9.3,16.6,14h-6.5V485.2h6.5c-5.3,4.8-10.8,9.4-16.6,14a518.62,518.62,0,0,1-77.8,51.2C1165.8,613.1,1006.5,651.9,830.5,651.9Z"/></g><g class="cls-4"><path class="cls-5" d="M830.5,637.4c-337.3,0-610.7-148.6-610.7-331.8C219.8,214,288.2,131,398.7,71,454,41,519.8,16.7,592.8-.1A1006.39,1006.39,0,0,1,707.4-19.4v5H953.6v-5A1006.39,1006.39,0,0,1,1068.2-.1C1141.3,16.7,1207.1,41,1262.3,71a507,507,0,0,1,74.6,49.1,371.58,371.58,0,0,1,30.6,27.4c2.4,2.4,4.6,4.7,6.9,7.1H1369V456.7h5.4c-2.2,2.4-4.5,4.8-6.9,7.1a390.76,390.76,0,0,1-30.6,27.4c-21.9,17.7-46.9,34.1-74.6,49.1C1151.8,600.3,999.2,637.4,830.5,637.4Z"/><path class="cls-5" d="M830.5,637.4v-.5c-168.58,0-321.18-37.14-431.6-97.14-55.21-30-99.87-65.71-130.72-105.34S220.3,351.27,220.3,305.6s17-89.21,47.91-128.84,75.53-75.35,130.73-105.32,121-54.26,194-71A1002.93,1002.93,0,0,1,707.46-18.9l-.06-.5h-.5v5.5H954.1v-5.5h-.5l-.06.5A1002.93,1002.93,0,0,1,1068.09.39c73.06,16.79,138.82,41.07,194,71.05a506.8,506.8,0,0,1,74.53,49.05,374.05,374.05,0,0,1,30.56,27.36c2.39,2.4,4.59,4.7,6.89,7.1l.36-.35v-.5h-5.9V457.2h5.9v-.5l-.37-.34c-2.19,2.4-4.49,4.79-6.88,7.08h0a393.56,393.56,0,0,1-30.56,27.36c-21.88,17.68-46.85,34.06-74.53,49.05-110.41,59.95-262.93,97-431.56,97v1c168.77,0,321.44-37.11,432-97.16,27.72-15,52.75-31.43,74.67-49.15a388,388,0,0,0,30.64-27.44l-.35-.35.35.36c2.41-2.31,4.71-4.72,6.92-7.12l.77-.84h-6V155.1h6.07l-.81-.85c-2.3-2.4-4.5-4.7-6.91-7.1a369.15,369.15,0,0,0-30.64-27.44,507.13,507.13,0,0,0-74.67-49.15c-55.25-30-121.09-54.34-194.23-71.15A1009.66,1009.66,0,0,0,953.65-19.9L953.1-20v5.06H707.9V-20l-.55.06A1009.66,1009.66,0,0,0,592.69-.59c-73,16.81-138.88,41.13-194.23,71.15s-100.07,65.81-131,105.58S219.3,259.67,219.3,305.6,236.44,395.28,267.39,435c92.88,119.27,310,202.85,563.11,202.86Z"/></g><g class="cls-4"><path class="cls-5" d="M830.5,623c-322.6,0-584.1-142.1-584.1-317.4S507.9-11.8,830.5-11.8c161.3,0,307.3,35.5,413,93,52.9,28.7,95.6,62.9,125.2,100.9,1.9,2.4,3.6,4.8,5.4,7.2h-5.2V422h5.2q-2.55,3.6-5.4,7.2c-29.6,38-72.3,72.2-125.2,100.9C1137.9,587.5,991.8,623,830.5,623Z"/></g><g class="cls-4"><path class="cls-5" d="M830.5,608.6c-307.9,0-557.6-135.6-557.6-303S522.5,2.6,830.5,2.6c154,0,293.4,33.9,394.3,88.7,50.5,27.4,91.3,60.1,119.5,96.3a242.55,242.55,0,0,1,18.8,27.8q4.05,7,7.5,14.4H1369V381.2h1.6q-3.45,7.2-7.5,14.4a222.65,222.65,0,0,1-18.8,27.8c-28.2,36.2-69,68.9-119.5,96.3C1123.9,574.7,984.5,608.6,830.5,608.6Z"/></g><g class="cls-4"><ellipse class="cls-5" cx="830.5" cy="305.6" rx="531" ry="288.5"/></g><g class="cls-4"><ellipse class="cls-5" cx="830.5" cy="305.6" rx="504.5" ry="274.1"/><path class="cls-5" d="M830.5,31.5V32c139.24,0,265.29,30.67,356.5,80.22,45.6,24.78,82.48,54.27,108,87s39.54,68.66,39.54,106.38S1320.43,379.26,1295,412c-76.41,98.18-255.6,167.22-464.46,167.21C691.26,579.2,565.21,548.53,474,499c-45.6-24.78-82.49-54.27-108-87S326.5,343.32,326.5,305.6,340.57,231.94,366,199.22C442.45,101,621.64,32,830.5,32V31c-139.39,0-265.58,30.69-357,80.34-45.7,24.83-82.69,54.4-108.28,87.26s-39.75,69-39.75,107,14.17,74.14,39.75,107C442,511.17,621.42,580.19,830.5,580.2c139.39,0,265.58-30.69,357-80.34,45.7-24.83,82.69-54.4,108.28-87.26s39.75-69,39.75-107-14.17-74.14-39.75-107C1219,100,1039.58,31,830.5,31Z"/></g><g class="cls-4"><ellipse class="cls-5" cx="830.5" cy="305.6" rx="477.9" ry="259.7"/></g><g class="cls-4"><ellipse class="cls-5" cx="830.5" cy="305.6" rx="451.4" ry="245.3"/><path class="cls-5" d="M830.5,60.3v.5c124.58,0,237.36,27.44,319,71.79,40.8,22.17,73.79,48.56,96.58,77.84s35.37,61.43,35.37,95.17-12.58,65.89-35.37,95.17c-68.35,87.85-228.66,149.64-415.53,149.63-124.58,0-237.36-27.44-318.95-71.79-40.8-22.17-73.79-48.56-96.58-77.84S379.6,339.34,379.6,305.6s12.58-65.89,35.37-95.17C483.32,122.58,643.63,60.79,830.5,60.8v-1c-124.72,0-237.65,27.47-319.43,71.91-40.89,22.22-74,48.68-96.89,78.1S378.6,271.6,378.6,305.6s12.68,66.37,35.58,95.79c68.7,88.23,229.24,150,416.32,150,124.72,0,237.65-27.47,319.43-71.91,40.89-22.22,74-48.68,96.89-78.1s35.58-61.79,35.58-95.79-12.68-66.37-35.58-95.79c-68.7-88.23-229.24-150-416.32-150Z"/></g><g class="cls-4"><ellipse class="cls-5" cx="830.5" cy="305.6" rx="424.8" ry="230.8"/><path class="cls-5" d="M830.5,74.8v.5c117.23,0,223.36,25.82,300.14,67.54,38.39,20.86,69.44,45.69,90.88,73.23s33.28,57.79,33.28,89.53-11.84,62-33.28,89.53c-64.31,82.65-215.17,140.78-391,140.77-117.23,0-223.36-25.82-300.14-67.54-38.39-20.86-69.44-45.69-90.88-73.23S406.2,337.34,406.2,305.6s11.84-62,33.28-89.53c64.31-82.65,215.17-140.78,391-140.77v-1c-117.38,0-223.65,25.84-300.62,67.66-38.48,20.91-69.64,45.81-91.19,73.5S405.2,273.61,405.2,305.6s11.94,62.47,33.49,90.15c64.66,83,215.74,141.14,391.81,141.15,117.38,0,223.65-25.84,300.62-67.66,38.48-20.91,69.64-45.81,91.19-73.49s33.49-58.16,33.49-90.15-11.94-62.47-33.49-90.14c-64.66-83-215.74-141.15-391.81-141.16Z"/></g><g class="cls-4"><ellipse class="cls-5" cx="830.5" cy="305.6" rx="398.3" ry="216.4"/><path class="cls-5" d="M830.5,522v-.5c-109.93,0-209.43-24.21-281.41-63.33-36-19.55-65.1-42.83-85.2-68.65S432.7,335.35,432.7,305.6s11.09-58.1,31.19-83.92c60.29-77.47,201.72-132,366.61-132,109.93,0,209.43,24.21,281.41,63.33,36,19.55,65.1,42.83,85.2,68.65s31.19,54.17,31.19,83.92-11.09,58.1-31.19,83.92c-60.29,77.47-201.72,132-366.61,132v1c110.07,0,209.72-24.24,281.89-63.45,36.08-19.61,65.3-43,85.51-68.92s31.4-54.53,31.4-84.53-11.2-58.58-31.4-84.53C1137.26,143.21,995.61,88.71,830.5,88.7c-110.07,0-209.72,24.24-281.89,63.45-36.08,19.61-65.3,43-85.51,68.92s-31.4,54.53-31.4,84.53,11.2,58.58,31.4,84.53C523.74,468,665.39,522.49,830.5,522.5Z"/></g><g class="cls-4"><path class="cls-5" d="M830.5,507.6c-205.3,0-371.7-90.4-371.7-202s166.4-202,371.7-202,371.7,90.4,371.7,202S1035.8,507.6,830.5,507.6Z"/><path class="cls-5" d="M830.5,507.6v-.5c-102.58,0-195.43-22.59-262.6-59.09-33.58-18.25-60.74-40-79.5-64.07s-29.1-50.57-29.1-78.34,10.35-54.2,29.1-78.29C544.65,155,676.63,104.09,830.5,104.1c102.58,0,195.43,22.59,262.6,59.09,33.58,18.25,60.74,40,79.5,64.07s29.1,50.57,29.1,78.34v.1c0,27.76-10.35,54.21-29.11,78.3-56.27,72.28-188.27,123.11-342.09,123.1v1c102.69,0,195.69-22.6,263-59.18,33.68-18.29,61-40.08,79.83-64.3s29.32-50.9,29.32-78.92v-.1c0-28-10.45-54.71-29.31-79C1116.79,154,984.58,103.11,830.5,103.1c-102.72,0-195.72,22.64-263.08,59.25-33.67,18.31-60.94,40.11-79.81,64.34S458.3,277.6,458.3,305.6s10.45,54.71,29.31,78.95c56.6,72.7,188.81,123.54,342.89,123.55Z"/></g><g class="cls-4"><ellipse class="cls-5" cx="830.5" cy="305.7" rx="345.2" ry="187.5"/><path class="cls-5" d="M830.5,493.2v-.5c-95.23,0-181.45-21-243.84-54.88-31.19-16.94-56.41-37.11-73.83-59.47s-27-46.9-27-72.65,9.6-50.33,27-72.7C565,165.89,687.58,118.69,830.5,118.7c95.23,0,181.45,21,243.84,54.88,31.19,16.94,56.41,37.11,73.83,59.47s27,46.9,27,72.65-9.6,50.29-27,72.65C1096,445.45,973.42,492.71,830.5,492.7v1c95.42,0,181.8-21,244.35-55,31.28-17,56.61-37.23,74.12-59.73s27.23-47.27,27.23-73.27-9.71-50.77-27.24-73.27C1096.37,165,973.56,117.71,830.5,117.7c-95.42,0-181.8,21-244.35,55-31.28,17-56.61,37.23-74.12,59.73S484.8,279.67,484.8,305.7,494.51,356.47,512,379c52.59,67.48,175.4,114.72,318.46,114.73Z"/></g><g class="cls-4"><ellipse class="cls-5" cx="830.5" cy="305.6" rx="318.6" ry="173.1"/><path class="cls-5" d="M830.5,478.7v-.5c-87.93,0-167.5-19.36-225.06-50.64-28.78-15.64-52.05-34.25-68.11-54.89s-24.93-43.3-24.93-67.07,8.87-46.43,24.94-67.07C585.55,176.59,698.68,133,830.5,133c87.93,0,167.5,19.36,225.06,50.64,28.78,15.64,52,34.25,68.11,54.89s24.93,43.3,24.93,67.07-8.86,46.43-24.93,67.07C1075.49,434.61,962.39,478.21,830.5,478.2v1c88.07,0,167.79-19.39,225.54-50.76,28.87-15.69,52.25-34.38,68.42-55.15s25.14-43.66,25.14-67.69-9-46.91-25.14-67.69c-24.26-31.16-64.73-57.63-115.64-76.32S896.56,132,830.5,132c-88,0-167.75,19.39-225.5,50.76-28.88,15.69-52.27,34.38-68.45,55.15S511.4,281.57,511.4,305.6s9,46.91,25.14,67.69c24.26,31.16,64.73,57.63,115.64,76.32S764.44,479.2,830.5,479.2Z"/></g><g class="cls-4"><ellipse class="cls-5" cx="830.5" cy="305.6" rx="292.1" ry="158.7"/><path class="cls-5" d="M830.5,464.3v-.5c-80.58,0-153.53-17.74-206.3-46.4-26.38-14.33-47.72-31.39-62.45-50.31S538.9,327.4,538.9,305.6,547,263,561.75,244.11c22.09-28.38,59.06-52.57,105.62-69.65S770.07,147.4,830.5,147.4c80.58,0,153.53,17.74,206.3,46.4,26.38,14.33,47.72,31.39,62.45,50.31s22.85,39.69,22.85,61.49-8.12,42.57-22.85,61.49c-22.09,28.38-59.06,52.57-105.62,69.65S890.93,463.8,830.5,463.8v1c80.72,0,153.82-17.76,206.78-46.52,26.47-14.39,47.92-31.52,62.76-50.58s23.06-40.05,23.06-62.1-8.23-43.05-23.06-62.1c-22.26-28.59-59.38-52.85-106.06-70S891,146.4,830.5,146.4c-80.72,0-153.82,17.76-206.78,46.52C597.25,207.31,575.8,224.44,561,243.5s-23.06,40.05-23.06,62.1,8.23,43,23.06,62.1c22.26,28.59,59.38,52.85,106.06,70S770,464.8,830.5,464.8Z"/></g><g class="cls-4"><ellipse class="cls-5" cx="830.5" cy="305.6" rx="265.5" ry="144.3"/><path class="cls-5" d="M830.5,161.3v.5c73.24,0,139.55,16.14,187.5,42.2,24,13,43.36,28.54,56.74,45.74s20.76,36.06,20.76,55.86-7.38,38.66-20.76,55.86c-20.07,25.79-53.66,47.79-96,63.33S885.43,449.4,830.5,449.4c-73.24,0-139.55-16.14-187.5-42.2-24-13-43.36-28.54-56.74-45.74S565.5,325.4,565.5,305.6s7.38-38.66,20.76-55.86c20.07-25.79,53.66-47.79,96-63.33S775.57,161.8,830.5,161.8v-1c-73.39,0-139.84,16.16-188,42.33-24.07,13.08-43.56,28.66-57,46s-21,36.43-21,56.48,7.48,39.14,21,56.48c20.24,26,54,48.06,96.41,63.65S775.46,450.4,830.5,450.4c73.39,0,139.84-16.16,188-42.32,24.06-13.09,43.56-28.67,57-46s21-36.43,21-56.48-7.48-39.14-21-56.48c-20.24-26-54-48.06-96.41-63.65S885.54,160.8,830.5,160.8Z"/></g><g class="cls-4"><ellipse class="cls-5" cx="830.5" cy="305.7" rx="239" ry="129.8"/><path class="cls-5" d="M830.5,435.5V435c-65.93,0-125.6-14.51-168.76-37.95-21.58-11.72-39-25.67-51.06-41.13S592,323.5,592,305.7s6.64-34.76,18.68-50.22c18.05-23.19,48.28-43,86.36-56.95s84-22.13,133.46-22.13c65.93,0,125.6,14.51,168.76,37.95,21.58,11.72,39,25.67,51.06,41.13S1069,287.9,1069,305.7s-6.64,34.72-18.68,50.18c-18,23.18-48.28,43-86.36,57S879.94,435,830.5,435v1c66.07,0,125.9-14.56,169.24-38.11,21.67-11.78,39.22-25.8,51.37-41.4S1070,323.73,1070,305.7s-6.74-35.24-18.89-50.84c-18.22-23.39-48.6-43.25-86.81-57.27S880.06,175.4,830.5,175.4c-66.07,0-125.9,14.54-169.24,38.07-21.67,11.77-39.22,25.79-51.37,41.39S591,287.65,591,305.7s6.74,35.24,18.89,50.84c18.22,23.39,48.6,43.25,86.81,57.27S780.94,436,830.5,436Z"/></g><g class="cls-4"><ellipse class="cls-5" cx="830.5" cy="305.6" rx="212.4" ry="115.4"/><path class="cls-5" d="M830.5,421v-.5c-58.58,0-111.6-12.91-150-33.75-19.17-10.42-34.67-22.82-45.36-36.55s-16.59-28.8-16.59-44.6,5.89-30.86,16.59-44.6c16-20.6,42.89-38.19,76.73-50.61S786.57,190.7,830.5,190.7c58.58,0,111.6,12.91,150,33.75,19.17,10.42,34.67,22.82,45.36,36.55s16.59,28.8,16.59,44.6-5.89,30.9-16.59,44.64c-16,20.61-42.89,38.19-76.73,50.6S874.43,420.5,830.5,420.5v1c58.72,0,111.89-12.91,150.43-33.84,19.26-10.46,34.87-22.93,45.67-36.81s16.8-29.17,16.8-45.25-6-31.34-16.8-45.21c-16.2-20.81-43.21-38.47-77.18-50.94S874.54,189.7,830.5,189.7c-58.72,0-111.9,12.94-150.43,33.87C660.81,234,645.2,246.51,634.4,260.39s-16.8,29.16-16.8,45.21,6,31.34,16.8,45.21c16.2,20.81,43.21,38.47,77.18,50.94S786.46,421.5,830.5,421.5Z"/></g><g class="cls-4"><ellipse class="cls-5" cx="830.5" cy="305.6" rx="185.9" ry="101"/><path class="cls-5" d="M830.5,204.6v.5c51.26,0,97.66,11.29,131.21,29.52,16.78,9.11,30.33,20,39.69,32s14.5,25.19,14.5,39-5.15,27-14.5,39c-14,18-37.53,33.41-67.13,44.27S869,406.1,830.5,406.1c-51.26,0-97.66-11.29-131.21-29.52-16.78-9.11-30.33-20-39.69-32s-14.5-25.19-14.5-39,5.15-27,14.5-39c14-18,37.53-33.41,67.13-44.27S792.05,205.1,830.5,205.1v-1c-51.41,0-98,11.32-131.69,29.64-16.87,9.17-30.53,20.09-40,32.24S644.1,291.53,644.1,305.6s5.25,27.47,14.71,39.62c14.2,18.23,37.85,33.69,67.58,44.6S791.94,407.1,830.5,407.1c51.41,0,98-11.32,131.69-29.64,16.87-9.17,30.53-20.09,40-32.24s14.71-25.55,14.71-39.62-5.25-27.47-14.71-39.62c-14.2-18.23-37.85-33.69-67.58-44.6S869.06,204.1,830.5,204.1Z"/></g><g class="cls-4"><ellipse class="cls-5" cx="830.5" cy="305.6" rx="159.3" ry="86.6"/></g><g class="cls-4"><ellipse class="cls-5" cx="830.5" cy="305.6" rx="79.7" ry="43.3"/><path class="cls-5" d="M830.5,348.9v-.5c-21.93,0-41.78-4.84-56.11-12.63-7.17-3.89-12.95-8.52-16.93-13.63s-6.16-10.69-6.16-16.54,2.18-11.43,6.16-16.54c6-7.67,16-14.25,28.66-18.89s27.94-7.37,44.38-7.37c21.93,0,41.78,4.84,56.11,12.63,7.17,3.89,12.95,8.52,16.93,13.63s6.16,10.69,6.16,16.54-2.18,11.43-6.16,16.54c-6,7.67-16,14.25-28.66,18.89s-27.94,7.37-44.38,7.37v1c22.07,0,42.07-4.86,56.59-12.75,7.26-3.94,13.15-8.65,17.24-13.89s6.37-11.06,6.37-17.16-2.28-11.91-6.37-17.16c-6.14-7.87-16.32-14.52-29.1-19.21s-28.17-7.43-44.73-7.43c-22.07,0-42.07,4.86-56.59,12.75-7.26,3.94-13.15,8.65-17.24,13.89s-6.37,11.06-6.37,17.16,2.28,11.91,6.37,17.16c6.14,7.87,16.32,14.52,29.1,19.21s28.17,7.43,44.73,7.43Z"/></g><g class="cls-4"><ellipse class="cls-5" cx="830.5" cy="305.6" rx="53.1" ry="28.9"/><path class="cls-5" d="M830.5,334.5V334c-14.58,0-27.78-3.21-37.3-8.39A35.74,35.74,0,0,1,782,316.56a16.74,16.74,0,0,1,0-21.88c3.95-5.08,10.61-9.46,19-12.56a86.31,86.31,0,0,1,29.5-4.92c14.58,0,27.78,3.21,37.3,8.39A35.74,35.74,0,0,1,879,294.64a16.81,16.81,0,0,1,0,21.92c-3.94,5.08-10.58,9.46-19,12.55A86.94,86.94,0,0,1,830.5,334v1c14.77,0,28.12-3.24,37.81-8.51a36.41,36.41,0,0,0,11.52-9.32,17.79,17.79,0,0,0,0-23.14c-4.12-5.29-10.93-9.74-19.47-12.87a87.48,87.48,0,0,0-29.85-5c-14.72,0-28.07,3.26-37.78,8.55a36.87,36.87,0,0,0-11.54,9.32,17.72,17.72,0,0,0,0,23.1c4.12,5.3,10.93,9.74,19.47,12.87a87.48,87.48,0,0,0,29.85,5Z"/></g><g class="cls-4"><path class="cls-5" d="M830.5,320.1c-14.7,0-26.5-6.5-26.5-14.4s11.9-14.4,26.5-14.4,26.6,6.5,26.6,14.4S845.2,320.1,830.5,320.1Z"/><path class="cls-5" d="M830.5,320.1v-.5c-7.28,0-13.83-1.61-18.52-4.18a17.51,17.51,0,0,1-5.51-4.44,8.1,8.1,0,0,1,0-10.6c1.93-2.48,5.22-4.64,9.39-6.16a43,43,0,0,1,14.63-2.42c7.28,0,13.85,1.61,18.57,4.18a17.58,17.58,0,0,1,5.55,4.45,8,8,0,0,1,0,10.54c-1.94,2.48-5.23,4.65-9.42,6.19a43.27,43.27,0,0,1-14.7,2.44v1c7.42,0,14.15-1.64,19-4.3a18.63,18.63,0,0,0,5.85-4.71,9,9,0,0,0,0-11.78c-2.1-2.68-5.54-4.92-9.85-6.51a44.18,44.18,0,0,0-15-2.5c-7.37,0-14.07,1.61-19,4.26a18.49,18.49,0,0,0-5.85,4.71,9.09,9.09,0,0,0,0,11.82c2.09,2.68,5.51,4.92,9.8,6.51a43.92,43.92,0,0,0,15,2.5Z"/></g><path class="cls-6" d="M1164.6,241H858c-3.4-22.2,8.9-37.9,26.9-37.9a38.88,38.88,0,0,1,17.5,4.5,43.36,43.36,0,0,1,3.3-21.9c12.6-28.3,55.7-37.7,81.2-15.9-26.7-73.3,137.8-75.6,102.2,13.3,24.1-13.3,51.8-8.9,68,5.3C1170.8,200.6,1176.4,219.6,1164.6,241Z"/><path class="cls-7" d="M1056.6,140.2a26,26,0,0,0-1.9-2.8,17,17,0,0,0-4.3-3.8,15,15,0,0,0-5.2-2.1c-1.8-.4-3.3-.3-3.3-.4-.2,0-.6-2.1-.3-2.2a20.31,20.31,0,0,1,3.9-.7,13.35,13.35,0,0,1,7.3,1.7,13.56,13.56,0,0,1,4.8,5.8,9.43,9.43,0,0,1,.9,2.7c.2.7.3,1.1.3,1.1A6.26,6.26,0,0,1,1056.6,140.2Z"/><path class="cls-7" d="M1051.8,149.4s-4-2.5-6.1-4.2a11,11,0,0,1-1.8-1.4,11,11,0,0,0-1.8-1.4L1040,141a5.55,5.55,0,0,1,.6-2.2s1.2.2,2.9.6a13.36,13.36,0,0,1,4.8,2.3,29,29,0,0,1,5,6C1053.4,148.1,1052,149.4,1051.8,149.4Z"/><path class="cls-7" d="M1118.6,232a48.52,48.52,0,0,1-19.6,0,4.1,4.1,0,0,1,0-2.2,48.52,48.52,0,0,1,19.6,0A4.1,4.1,0,0,1,1118.6,232Z"/><path class="cls-7" d="M1113.7,222.1a12.5,12.5,0,0,1-9.8,0,8.09,8.09,0,0,1,0-2.2,12.5,12.5,0,0,1,9.8,0A8.09,8.09,0,0,1,1113.7,222.1Z"/><path class="cls-6" d="M549.2,182.2c4.3-25.9-19.4-38.9-45.4-30.2C527.6,41.9,348.3,24.6,365.6,132.6c-34.6-47.5-88.5,6.5-77.7,49.7h-2.2c86.4-.1,183.6-.1,263.5-.1"/><path class="cls-7" d="M449.4,82.3l-.6-1.2a19.45,19.45,0,0,1-.8-2.2,8.13,8.13,0,0,1,0-2.7,10.83,10.83,0,0,1,.3-1.6,6.69,6.69,0,0,1,2,0,11,11,0,0,1,.6,1.2,9.17,9.17,0,0,1,.9,2.3,8.88,8.88,0,0,1-.1,2.8c-.2.9-.4,1.5-.4,1.5A12.75,12.75,0,0,1,449.4,82.3Z"/><path class="cls-7" d="M459.5,88.1a60,60,0,0,1-2.6-7.5,57.85,57.85,0,0,1-.7-7.9c0-.2,1.9-.5,2-.4a60,60,0,0,1,2.6,7.5,57.85,57.85,0,0,1,.7,7.9A4.77,4.77,0,0,1,459.5,88.1Z"/><path class="cls-7" d="M466.2,90.2a33.24,33.24,0,0,1-.9-6.1,33.24,33.24,0,0,1,.9-6.1,6.69,6.69,0,0,1,2,0,33.24,33.24,0,0,1,.9,6.1,33.24,33.24,0,0,1-.9,6.1A6.7,6.7,0,0,1,466.2,90.2Z"/><path class="cls-7" d="M344.5,177.3a24.37,24.37,0,0,1-4.8-2.5,21.71,21.71,0,0,1-3.1-4.3c0-.1,1.3-1.5,1.4-1.4a36.23,36.23,0,0,1,4.3,2.7,23.52,23.52,0,0,1,3.3,3.7A4,4,0,0,1,344.5,177.3Z"/><path class="cls-7" d="M355.5,178.2a79.93,79.93,0,0,1-7.2-5.6,22.14,22.14,0,0,1-3.6-4.9c-.9-1.7-1.5-3-1.5-3-.1-.2,1.6-1.1,1.7-1s.9,1,2.2,2.2c1.1,1.3,2.9,2.6,4,3.9a67.37,67.37,0,0,1,5.8,6.9C356.9,177.1,355.7,178.3,355.5,178.2Z"/><path class="cls-7" d="M363.4,176a23.64,23.64,0,0,1-4-2.6,18.38,18.38,0,0,1-2.6-4,9.27,9.27,0,0,1,1.4-1.4,23.64,23.64,0,0,1,4,2.6,18.38,18.38,0,0,1,2.6,4A6.2,6.2,0,0,1,363.4,176Z"/><path class="cls-8" d="M513.2,431.2v73.3l-.1,12.9c-.7-.2-4.2,1-4.9,1.3-3.2,1.3-3.4-3-6.4-.6H490.9c-4.5,0-7.5-4.9-7.5-4.9l-.3-81.9h30.1Z"/><path class="cls-9" d="M367.7,448.4c26.4-20.1,44.7-58.4,47.4-58.3-6.4-.2-18-.5-18.4-.8,17.7-10.8,34.9-54,28.3-54-.9-.4-14.3-.9-19.3-1.3,30.8-16.6,44.7-52.2,43.9-52.3-4.4,1.6-18.3,3.1-27.1,4.6,34-23.4,44.2-54.9,37.1-54.8-.2.3,1-.1-4.3.2,15.6-20.9,38.6-93.8,42.2-94.3.4-.5,36.5,74.4,45.6,86.2-3.3.3-2,.6-4.8.9-8.7,0,4.1,30.1,32.7,53.6-11.1-.9-15.9-1.7-24.6-2.5-2.5-.1,24.7,36.3,44.6,55.4-6.3.6-10,1.2-23.6,1.8-.9,0,18.7,47.8,36,63.1-2.8-.3-5.9-.6-12.8-.8-9,0,7.6,44.1,40.2,76.2-1.3.1-31.3,12.4-58.7-4.6,1,0,5.8,12.5,17,17.4,10.2.1-21.3,9.2-43.6-15.4-1.2,0-6.8,7.5,7.2,20.4-.1.2-27,11.6-56.1-15.7-26.5,22.6-53.2,4.7-51.5,4.9,7.4-9.3,3.3-16.8,9.9-16.8-26.6,19.7-50.1,5.1-53.1,5.2,13.6-1.5,17-11.9,24.3-11.9C398.4,465.3,363.1,448.3,367.7,448.4Z"/><path class="cls-8" d="M1342.5,514.9v73.3l-.1,12.9c-.7-.2-4.2,1-4.9,1.3-3.2,1.3-3.4-3-6.4-.6h-10.9c-4.5,0-7.5-4.9-7.5-4.9l-.3-81.9Z"/><path class="cls-9" d="M1196.9,532c26.4-20.1,44.7-58.4,47.4-58.3-6.4-.2-18-.5-18.4-.8,17.7-10.8,34.9-54,28.3-54-.9-.4-14.3-.9-19.3-1.3,30.8-16.6,44.7-52.2,43.9-52.3-4.4,1.6-18.3,3.1-27.1,4.6,34-23.4,44.2-54.9,37.1-54.8-.2.3,1-.1-4.3.2,15.6-20.9,38.6-93.8,42.2-94.3.4-.5,36.5,74.4,45.6,86.2-3.3.3-2,.6-4.8.9-8.7,0,4.1,30.1,32.7,53.6-11.1-.9-15.9-1.7-24.6-2.5-2.5-.1,24.7,36.3,44.6,55.4-6.3.6-10,1.2-23.6,1.8-.9,0,18.7,47.8,36,63.1-2.8-.3-5.9-.6-12.8-.8-9,.1,7.6,44.1,40.2,76.2-1.3.1-31.3,12.4-58.7-4.6,1,0,5.8,12.5,17,17.4,10.2.1-21.3,9.2-43.6-15.4-1.2,0-6.8,7.5,7.2,20.4-.1.2-27,11.6-56.1-15.7-26.5,22.6-53.2,4.7-51.5,4.9,7.4-9.3,3.3-16.8,9.9-16.8-26.6,19.7-50.1,5.1-53.1,5.2,13.6-1.5,17-11.9,24.3-11.9C1227.6,548.9,1192.3,531.9,1196.9,532Z"/><path class="cls-8" d="M986.4,431.9v65.4c-.5-.2-3.2.8-3.8,1-2.4,1-2.6-2.3-4.8-.4h-8.3c-3.4,0-5.7-3.7-5.7-3.7l-.2-62.2Z"/><path class="cls-9" d="M875.9,444.9c20-15.3,33.9-44.3,36-44.3-4.8-.2-13.6-.4-14-.6,13.5-8.2,26.5-41,21.5-41-.7-.3-10.8-.7-14.7-1,23.4-12.6,34-39.7,33.3-39.7-3.4,1.2-13.9,2.4-20.6,3.5,25.8-17.8,33.5-41.7,28.1-41.6-.1.2.7-.1-3.3.1,11.8-15.9,29.3-71.2,32.1-71.6.3-.4,27.7,56.5,34.6,65.4-2.5.2-1.5.5-3.6.7-6.6,0,3.1,22.9,24.8,40.7-8.4-.7-12.1-1.3-18.7-1.9-1.9,0,18.7,27.6,33.9,42-4.8.5-7.6.9-17.9,1.4-.7,0,14.2,36.3,27.3,47.9-2.1-.2-4.5-.4-9.7-.6-6.8,0,5.7,33.5,30.5,57.9-1,.1-23.8,9.4-44.6-3.5.8,0,4.4,9.5,12.9,13.2,7.7.1-16.2,7-33.1-11.7-.9,0-5.2,5.7,5.4,15.5-.1.1-20.5,8.8-42.6-11.9-20.1,17.2-40.4,3.6-39.1,3.7,5.6-7,2.5-12.8,7.5-12.7-20.2,15-38,3.8-40.3,3.9,10.3-1.1,12.9-9,18.4-9C899.2,457.8,872.4,444.8,875.9,444.9Z"/><path class="cls-8" d="M302.1,442.3v55.6l-.1,9.8c-.5-.2-3.2.8-3.8,1-2.4,1-2.6-2.3-4.8-.4h-8.3c-3.4,0-5.7-3.7-5.7-3.7l-.2-62.2Z"/><path class="cls-9" d="M191.6,455.4c20-15.3,33.9-44.3,36-44.3-4.8-.2-13.6-.4-14-.6,13.5-8.2,26.5-41,21.5-41-.7-.3-10.8-.7-14.7-1,23.4-12.6,34-39.7,33.3-39.7-3.4,1.2-13.9,2.4-20.6,3.5,25.8-17.8,33.6-41.7,28.1-41.6-.1.2.7-.1-3.3.1,11.8-15.9,29.3-71.2,32.1-71.6.3-.4,27.7,56.5,34.6,65.4-2.5.2-1.5.5-3.6.7-6.6,0,3.1,22.9,24.8,40.7-8.4-.7-12.1-1.3-18.7-1.9-1.9,0,18.7,27.6,33.9,42-4.8.5-7.6.9-17.9,1.4-.7,0,14.2,36.3,27.3,47.9-2.1-.2-4.5-.4-9.7-.6-6.8,0,5.7,33.5,30.5,57.9-1,.1-23.8,9.4-44.6-3.5.8,0,4.4,9.5,12.9,13.2,7.7.1-16.2,7-33.1-11.7-.9,0-5.2,5.7,5.4,15.5-.1.1-20.5,8.8-42.6-11.9-20.1,17.2-40.4,3.6-39.1,3.7,5.6-7.1,2.5-12.8,7.5-12.7-20.2,15-38,3.8-40.3,3.9,10.3-1.1,12.9-9,18.4-9C214.9,468.2,188,455.3,191.6,455.4Z"/><path class="cls-10" d="M691.5,436.2v91.3l-.1,16c-.9-.3-5.2,1.2-6.2,1.6-4,1.6-4.2-3.7-7.9-.7H663.7c-5.6,0-9.4-6.1-9.4-6.1l-.3-102Z"/><path class="cls-11" d="M510.3,457.6c32.8-25.1,55.7-72.7,59-72.6-7.9-.3-22.4-.6-22.9-1,22.1-13.4,43.4-67.2,35.2-67.3-1.1-.5-17.8-1.1-24.1-1.7,38.3-20.6,55.7-65,54.7-65.1-5.5,2-22.8,3.9-33.8,5.7,42.3-29.2,55-68.3,46.2-68.3-.2.4,1.2-.2-5.4.2C638.6,161.4,667.3,70.7,671.8,70c.5-.7,45.5,92.7,56.8,107.3-4.1.4-2.5.8-6,1.2-10.8.1,5.1,37.5,40.7,66.8-13.8-1.1-19.8-2.2-30.7-3.2-3.1-.1,30.7,45.2,55.6,68.9-7.8.7-12.5,1.5-29.4,2.3-1.2-.1,23.3,59.5,44.8,78.6-3.5-.4-7.3-.7-15.9-1-11.2.1,9.4,55,50.1,94.9-1.6.2-39,15.5-73.1-5.7,1.3,0,7.2,15.6,21.2,21.6,12.7.2-26.6,11.5-54.3-19.2-1.4,0-8.5,9.4,8.9,25.4-.1.2-33.6,14.4-69.8-19.5-33,28.2-66.2,5.9-64.1,6.1,9.2-11.6,4.1-20.9,12.3-20.9-33.1,24.6-62.4,6.3-66.1,6.5,16.9-1.9,21.2-14.8,30.3-14.8C548.5,478.6,504.5,457.4,510.3,457.6Z"/><path class="cls-10" d="M48.4,468.3v64.6l-.1,11.3c-.6-.2-3.7.9-4.4,1.1-2.8,1.1-3-2.6-5.6-.5H28.7c-3.9,0-6.7-4.3-6.7-4.3l-.2-72.3H48.4Z"/><path class="cls-11" d="M152.2,503.4c-28.8-28.3-43.4-67.2-35.5-67.2,6.1.2,8.8.5,11.2.7-15.2-13.5-32.6-55.7-31.8-55.7,12-.5,15.3-1.1,20.8-1.6-17.6-16.8-41.6-48.9-39.4-48.8,7.7.7,12,1.5,21.7,2.2C74,312.3,62.7,285.7,70.3,285.7c2.5-.3,1.3-.6,4.2-.8-8-10.4-39.8-76.5-40.2-76-3.2.5-23.5,64.7-37.3,83.2,4.7-.3,3.7.1,3.8-.2,3.5,0,2.3,8.5-4.6,19.5V513.5c8.7,2.7,23,3.9,37.3-8.3,25.6,24.1,49.4,14,49.5,13.8-12.3-11.4-7.3-18-6.3-18,19.7,21.7,47.5,13.7,38.5,13.6-9.3-4-13.6-14.1-14.8-15.2C124.7,514.3,151,503.6,152.2,503.4Z"/><path class="cls-12" d="M262.1,453.1c25-17,42.4-49.4,45-49.4-6.1-.2-17-.4-17.5-.7,16.8-9.1,33.1-45.7,26.8-45.7-.8-.4-13.5-.7-18.3-1.1,29.2-14,42.4-44.2,41.7-44.3-4.2,1.3-17.4,2.6-25.7,3.9,32.2-19.8,41.9-46.4,35.2-46.4-.2.3.9-.1-4.1.2,14.8-17.7,36.6-79.4,40.1-79.8.4-.4,34.6,63,43.2,72.9-3.1.3-1.9.5-4.5.8-8.2,0,3.9,25.5,31,45.4-10.5-.8-15.1-1.5-23.4-2.1-2.4-.1,23.4,30.7,42.4,46.9-5.9.5-9.5,1-22.4,1.5-.9,0,17.8,40.4,34.2,53.4-2.7-.3-5.6-.5-12.1-.7-8.6,0,7.2,37.3,38.2,64.5-1.3.1-29.7,10.5-55.7-3.9,1,0,5.5,10.6,16.1,14.7,9.7.1-20.2,7.8-41.4-13-1.1,0-6.5,6.4,6.8,17.3-.1.2-25.6,9.8-53.2-13.3-25.1,19.1-50.5,4-48.8,4.1,7-7.9,3.1-14.2,9.4-14.2-25.2,16.7-47.5,4.3-50.3,4.4,12.9-1.3,16.1-10.1,23-10.1C291.2,467.4,257.7,453,262.1,453.1Z"/><path class="cls-12" d="M660.9,482.5c25-17,42.4-49.4,45-49.4-6.1-.2-17-.4-17.5-.7,16.8-9.1,33.1-45.7,26.8-45.7-.8-.4-13.5-.7-18.3-1.1,29.2-14,42.4-44.2,41.7-44.3-4.2,1.3-17.4,2.6-25.7,3.9,32.2-19.8,41.9-46.4,35.2-46.4-.2.3.9-.1-4.1.2,14.8-17.7,36.6-79.4,40.1-79.8.4-.4,34.6,63,43.2,72.9-3.1.3-1.9.5-4.5.8-8.2,0,3.9,25.5,31,45.4-10.5-.8-15.1-1.5-23.4-2.1-2.4-.1,23.4,30.7,42.4,46.9-5.9.5-9.5,1-22.4,1.5-.9,0,17.8,40.4,34.2,53.4-2.7-.2-5.6-.5-12.1-.7-8.6,0,7.2,37.3,38.2,64.5-1.3.1-29.7,10.5-55.7-3.9,1,0,5.5,10.6,16.1,14.7,9.7.1-20.2,7.8-41.4-13-1.1,0-6.5,6.4,6.8,17.3-.1.2-25.6,9.8-53.2-13.3-25.1,19.1-50.5,4-48.8,4.1,7-7.9,3.1-14.2,9.4-14.2-25.2,16.7-47.5,4.3-50.3,4.4,12.9-1.3,16.1-10.1,23-10.1C690,496.8,656.5,482.4,660.9,482.5Z"/><path class="cls-12" d="M977.2,510.6c25-17,42.4-49.4,45-49.4-6.1-.2-17-.4-17.5-.7,16.8-9.1,33.1-45.7,26.8-45.7-.8-.4-13.5-.7-18.3-1.1,29.2-14,42.4-44.2,41.7-44.3-4.2,1.3-17.4,2.6-25.7,3.9,32.2-19.8,41.9-46.4,35.2-46.4-.2.3.9-.1-4.1.2,14.8-17.7,36.6-79.4,40.1-79.8.4-.4,34.6,63,43.2,72.9-3.1.3-1.9.5-4.5.8-8.2,0,3.9,25.5,31,45.4-10.5-.8-15.1-1.5-23.4-2.1-2.4-.1,23.4,30.7,42.4,46.9-5.9.5-9.5,1-22.4,1.5-.9,0,17.8,40.4,34.2,53.4-2.7-.2-5.6-.5-12.1-.7-8.6,0,7.2,37.3,38.2,64.5-1.3.1-29.7,10.5-55.7-3.9,1,0,5.5,10.6,16.1,14.7,9.7.1-20.2,7.8-41.4-13-1.1,0-6.5,6.4,6.8,17.3-.1.2-25.6,9.8-53.2-13.3-25.1,19.1-50.5,4-48.8,4.1,7-7.9,3.1-14.2,9.4-14.2-25.2,16.7-47.5,4.3-50.3,4.4,12.9-1.3,16.1-10.1,23-10.1C1006.3,524.9,972.8,510.5,977.2,510.6Z"/><path class="cls-13" d="M-2.6,354.7V574.2A115,115,0,0,0,78,464.4,114.89,114.89,0,0,0-2.6,354.7Z"/><path class="cls-13" d="M201.2,493.2a86,86,0,1,1-86-86.2c47.5-.1,86,38.5,86,86.2"/><path class="cls-13" d="M1079.7,442.5a85.21,85.21,0,0,0-51-16.8,86.2,86.2,0,0,0,0,172.4,85.21,85.21,0,0,0,51-16.8Z"/><path class="cls-13" d="M1413,342.6A86,86,0,0,0,1269.3,397c-5.1,47.3,29.1,89.9,76.3,94.9a85.49,85.49,0,0,0,52.5-11.3Z"/><path class="cls-13" d="M891.4,511.9c0,58-46.9,105.1-104.8,105.1S681.7,569.9,681.7,511.9s47-105.1,104.9-105.1S891.4,453.9,891.4,511.9Z"/><path class="cls-13" d="M232.7,528.9a69.1,69.1,0,1,1,68.9-69.1,68.95,68.95,0,0,1-68.9,69.1"/><ellipse class="cls-13" cx="639.8" cy="511.9" rx="76.2" ry="76.4"/><ellipse class="cls-13" cx="922.2" cy="497" rx="76.2" ry="76.4"/><path class="cls-13" d="M1138.8,573.4A76.4,76.4,0,1,1,1215,497,76.29,76.29,0,0,1,1138.8,573.4Z"/><ellipse class="cls-13" cx="392.3" cy="511.9" rx="135.5" ry="135.8"/><path class="cls-13" d="M521.9,562.5a63.6,63.6,0,1,1,63.5-63.6A63.55,63.55,0,0,1,521.9,562.5Z"/><path class="cls-13" d="M1236.5,533.5a63.6,63.6,0,1,1,63.5-63.6A63.55,63.55,0,0,1,1236.5,533.5Z"/><polyline class="cls-13" points="1368 472.6 1367.7 745 -1.4 745 -1.4 465.6"/><path class="cls-6" d="M-22.9,133.3c-5.1-28.3,36-48.9,50.2-20.6-5.1-60.5,79.8-81.1,74.6-11.6,15.4-25.7,47.6-9,48.9,16.7,38.6-22.5,47.6,15.4,47.6,15.4s-160.8.1-221.3.1"/><path class="cls-7" d="M50,72a1.73,1.73,0,0,0-.4.3,3.51,3.51,0,0,0-1,.8,15.25,15.25,0,0,0-2.2,2.2,8.07,8.07,0,0,0-1.7,2.4,8.83,8.83,0,0,0-.6,1.6,2.85,2.85,0,0,1-1.3,0,8.45,8.45,0,0,1,.1-2.1,6.78,6.78,0,0,1,1.7-3.5,8.49,8.49,0,0,1,3.2-2.1,4.76,4.76,0,0,1,1.4-.5l.6-.2C49.7,70.9,50.1,71.9,50,72Z"/><path class="cls-7" d="M52.9,77.1s-.4.3-.9.7A16.65,16.65,0,0,0,50.7,79a12.7,12.7,0,0,0-1.2,1c-.3.4-.4.8-.5.8H47.7a2.72,2.72,0,0,1,0-1.4A3.8,3.8,0,0,1,49,77.1a4.87,4.87,0,0,1,2.2-1,4.83,4.83,0,0,1,1.2-.2C52.6,75.9,52.9,77,52.9,77.1Z"/><path class="cls-7" d="M125.5,127.6a41.64,41.64,0,0,1-6.2.2,38.41,38.41,0,0,1-5.9-1,2.85,2.85,0,0,1,0-1.3,41.64,41.64,0,0,1,6.2-.2,38.41,38.41,0,0,1,5.9,1A2.85,2.85,0,0,1,125.5,127.6Z"/><path class="cls-7" d="M122.7,121.8a16.7,16.7,0,0,1-4,.5,12.21,12.21,0,0,1-2.6-.6c-.8-.3-1.4-.6-1.4-.6l.4-1.2h1.3a19.22,19.22,0,0,1,2.4,0,28.94,28.94,0,0,1,3.9.7Z"/><path class="cls-6" d="M1563.4,111.7H1256.7c-3.4-22.2,8.9-37.9,26.9-37.9a38.88,38.88,0,0,1,17.5,4.5,43.36,43.36,0,0,1,3.3-21.9c12.6-28.3,55.7-37.7,81.2-15.9-26.7-73.3,137.8-75.6,102.2,13.3,24.1-13.3,51.8-8.9,68,5.3C1569.6,71.3,1575.1,90.3,1563.4,111.7Z"/><path class="cls-7" d="M377.2,32.5c-14-6.8-31.1-10.9-36.6,4.7l-.2-.1-.2.1c-5.5-15.6-22.6-11.5-36.6-4.7a44.32,44.32,0,0,1,34.8,7.9c-.2,3.3,2.7,7,3.9,1.6a4.29,4.29,0,0,0,0-1.6C352.2,33.1,365.4,30,377.2,32.5Z"/><path class="cls-7" d="M886.5,373c-14-6.8-31.1-10.9-36.6,4.7l-.2-.1-.2.1c-5.5-15.6-22.6-11.5-36.6-4.7a44.32,44.32,0,0,1,34.8,7.9c-.2,3.3,2.7,7,3.9,1.6a4.29,4.29,0,0,0,0-1.6A45,45,0,0,1,886.5,373Z"/><path class="cls-7" d="M431.6,333.1c-21.9-10.6-48.6-17.1-57.2,7.4-.1-.1-.2-.2-.3-.2s-.2.1-.3.2c-8.5-24.4-35.2-17.9-57.2-7.4,18.4-3.8,39,.9,54.3,12.3-.3,5.2,4.2,10.9,6.1,2.6a5.27,5.27,0,0,0,0-2.5C392.5,334.1,413.1,329.3,431.6,333.1Z"/><path class="cls-7" d="M1313.6,174.6c-21.9-10.6-48.6-17.1-57.2,7.4-.1-.1-.2-.2-.3-.2s-.2.1-.3.2c-8.5-24.4-35.2-17.9-57.2-7.4,18.4-3.8,39,.9,54.3,12.3-.3,5.2,4.2,10.9,6.1,2.6a5.27,5.27,0,0,0,0-2.5C1274.5,175.6,1295.1,170.8,1313.6,174.6Z"/><path class="cls-7" d="M1006.6,181.3c-7.1-3.4-15.7-5.5-18.5,2.4l-.1-.1-.1.1c-2.8-7.9-11.4-5.8-18.5-2.4a22.66,22.66,0,0,1,17.6,4c-.1,1.7,1.4,3.5,2,.8a1.1,1.1,0,0,0,0-.8A22.66,22.66,0,0,1,1006.6,181.3Z"/><path class="cls-7" d="M795.8,201.9c-7.1-3.4-15.7-5.5-18.5,2.4l-.1-.1-.1.1c-2.8-7.9-11.4-5.8-18.5-2.4a22.66,22.66,0,0,1,17.6,4c-.1,1.7,1.4,3.5,2,.8a1.1,1.1,0,0,0,0-.8A22.17,22.17,0,0,1,795.8,201.9Z"/><path class="cls-7" d="M796.7,50.2c-21.9-10.6-48.6-17.1-57.2,7.4-.1-.1-.2-.2-.3-.2s-.2.1-.3.2c-8.5-24.4-35.2-17.9-57.2-7.4,18.4-3.8,39,.9,54.3,12.3-.3,5.2,4.2,10.9,6.1,2.6a5.27,5.27,0,0,0,0-2.5C757.6,51.1,778.2,46.3,796.7,50.2Z"/><g class="cls-14"><rect class="cls-15" x="161" y="450.7" width="3.1" height="7.1"/></g><path class="cls-16" d="M109.1,403.2a15.75,15.75,0,0,1-2.8.4,15.75,15.75,0,0,1-2.8-.4v-.9a15.75,15.75,0,0,1,2.8-.4,15.75,15.75,0,0,1,2.8.4Z"/><path class="cls-16" d="M107.2,399.4a7,7,0,0,1-1.9.4,8.14,8.14,0,0,1-1.9-.4v-.9a7,7,0,0,1,1.9-.4,8.14,8.14,0,0,1,1.9.4Z"/><path class="cls-17" d="M1106.87,540.25a5.75,5.75,0,0,0,6.18,6.18h19.4a3.93,3.93,0,0,0,2.89-1.09,5,5,0,0,0,1.09-3.62,8.74,8.74,0,0,0-.36-2.53,8.39,8.39,0,0,0-.83-1.92h-17.07v-7h12.22a3.85,3.85,0,0,0,2.85-1.06,5,5,0,0,0,1.07-3.59,8.42,8.42,0,0,0-.37-2.49,8,8,0,0,0-.83-1.89h-14.94v-6.18h14a4,4,0,0,0,2.89-1.06,4.86,4.86,0,0,0,1.09-3.59,8.72,8.72,0,0,0-.36-2.52A7.85,7.85,0,0,0,1135,506h-21.92a5.75,5.75,0,0,0-6.18,6.18Zm-34.53-15.87v-10c.49-.09.93-.16,1.33-.2s.93-.07,1.59-.07c2.35,0,4.06.43,5.15,1.3a4.59,4.59,0,0,1,1.63,3.82,4.84,4.84,0,0,1-1.47,3.82,5.79,5.79,0,0,1-4,1.29Zm3.59,8.83,5.57,9a18.38,18.38,0,0,0,1.27,1.86,7.48,7.48,0,0,0,1.46,1.46,6,6,0,0,0,1.86.93,8.51,8.51,0,0,0,2.52.33,6.73,6.73,0,0,0,4-1.23A6.23,6.23,0,0,0,1095,542a40.28,40.28,0,0,0-3.66-5.18q-2.32-2.85-4.71-6.11a15.24,15.24,0,0,0,5.05-4.52,11.66,11.66,0,0,0,2.12-7,12.81,12.81,0,0,0-4.65-10.42q-4.65-3.85-13.81-3.86a53.34,53.34,0,0,0-6.38.37,24.91,24.91,0,0,0-5.25,1.16,5.49,5.49,0,0,0-2.09,1.23,2.92,2.92,0,0,0-.76,2.16v31.28a8,8,0,0,0,.4,2.79,3.64,3.64,0,0,0,1.16,1.66,4.43,4.43,0,0,0,1.93.83,13.38,13.38,0,0,0,2.68.23,23.11,23.11,0,0,0,3.09-.2,18.54,18.54,0,0,0,2.29-.39V533.21Zm-29.09-22.31a8.25,8.25,0,0,0-.4-2.79,3.63,3.63,0,0,0-1.2-1.66,4.66,4.66,0,0,0-2-.83,13.37,13.37,0,0,0-2.69-.24,20.48,20.48,0,0,0-3,.24c-1.07.15-1.84.27-2.33.36v25.18a6.9,6.9,0,0,1-1.72,5,6.73,6.73,0,0,1-9.14,0,6.83,6.83,0,0,1-1.76-5V510.9a8,8,0,0,0-.4-2.79,3.55,3.55,0,0,0-1.19-1.66,4.72,4.72,0,0,0-2-.83,13.44,13.44,0,0,0-2.69-.24,20.61,20.61,0,0,0-3.06.24c-1.06.15-1.83.27-2.32.36v25.37a16.87,16.87,0,0,0,1.23,6.55,13.78,13.78,0,0,0,3.55,5,16,16,0,0,0,5.65,3.23,25.71,25.71,0,0,0,15,0,16.09,16.09,0,0,0,5.64-3.23,13.81,13.81,0,0,0,3.56-5,16.87,16.87,0,0,0,1.23-6.55Zm-70.08,4.38v25.77a8.25,8.25,0,0,0,.4,2.79,3.63,3.63,0,0,0,1.2,1.66,4.66,4.66,0,0,0,2,.83,13.42,13.42,0,0,0,2.69.23,23.11,23.11,0,0,0,3.09-.2,18.9,18.9,0,0,0,2.29-.39V515.28h7.37a4.11,4.11,0,0,0,3-1.13,5,5,0,0,0,1.16-3.72,9.22,9.22,0,0,0-1.26-4.65h-29a4.17,4.17,0,0,0-3,1.13,5.07,5.07,0,0,0-1.16,3.72,8.65,8.65,0,0,0,.4,2.66,8.42,8.42,0,0,0,.86,2Zm-22.31-4.58q0-3.26-1.53-4.29a8,8,0,0,0-4.45-1,22.73,22.73,0,0,0-3,.2,20.76,20.76,0,0,0-2.23.4v10.76q0,3.59.07,7.18t.33,7.17l-.33.07c-.62-1.6-1.2-3-1.73-4.22s-1.13-2.51-1.79-3.89l-6.64-13.41a6.34,6.34,0,0,0-3.56-3.49,14.27,14.27,0,0,0-4.68-.77,12.67,12.67,0,0,0-4.12.67,5.57,5.57,0,0,0-2.85,2v33.21a7.48,7.48,0,0,0,.4,2.69,3.83,3.83,0,0,0,1.12,1.63,3.94,3.94,0,0,0,1.86.79,14.42,14.42,0,0,0,2.59.2,21.23,21.23,0,0,0,3-.2,18.29,18.29,0,0,0,2.22-.39v-10.3q0-3.58,0-7.3t-.3-7.31l.4-.07c.62,1.6,1.2,3,1.73,4.22s1.13,2.51,1.79,3.89l6.58,13.41a6.41,6.41,0,0,0,3.58,3.52,14.52,14.52,0,0,0,4.65.73,15.73,15.73,0,0,0,4.22-.49,6.17,6.17,0,0,0,2.69-1.43ZM876,540.25a5.73,5.73,0,0,0,6.18,6.18h19.39a3.9,3.9,0,0,0,2.89-1.09,5,5,0,0,0,1.1-3.62,8.74,8.74,0,0,0-.37-2.53,7.59,7.59,0,0,0-.83-1.92H887.3v-7h12.22a3.86,3.86,0,0,0,2.86-1.06,5,5,0,0,0,1.06-3.59,8.42,8.42,0,0,0-.36-2.49,8.93,8.93,0,0,0-.83-1.89h-15v-6.18h14A4,4,0,0,0,904.2,514a4.82,4.82,0,0,0,1.1-3.59,8.72,8.72,0,0,0-.36-2.52,8.23,8.23,0,0,0-.84-1.93H882.19a5.73,5.73,0,0,0-6.18,6.18Zm-21.65,1.1q1.2-2.55,2.56-5.91t2.72-7.14c.91-2.52,1.73-4.95,2.46-7.27s1.33-4.42,1.79-6.28a19.51,19.51,0,0,0,.7-4.25,4,4,0,0,0-1.73-3.62,7.66,7.66,0,0,0-4.18-1.1,11.19,11.19,0,0,0-3.09.4,15.65,15.65,0,0,0-2.56,1q-1.72,7.3-3.62,14.68t-3.69,13.61h-.39q-2-6.44-3.82-12.38t-3.62-12.46a6.28,6.28,0,0,0-2.29-3.82,7.24,7.24,0,0,0-4-1,9.37,9.37,0,0,0-3.76.77,8.71,8.71,0,0,0-2.69,1.69q.74,2.92,1.73,6.24c.67,2.22,1.37,4.48,2.13,6.78s1.54,4.57,2.36,6.81,1.61,4.35,2.39,6.34,1.51,3.8,2.22,5.41,1.31,2.94,1.79,3.95a5.06,5.06,0,0,0,2.73,2.3,12.47,12.47,0,0,0,4.78.83,14.52,14.52,0,0,0,4.28-.6,8.17,8.17,0,0,0,2.89-1.4A22.86,22.86,0,0,0,854.36,541.35ZM803.88,546a19.13,19.13,0,0,0,7.08-4,18,18,0,0,0,4.55-6.64A24.78,24.78,0,0,0,817.1,526a24.38,24.38,0,0,0-1.66-9.43,17.58,17.58,0,0,0-4.68-6.61,19.35,19.35,0,0,0-7.24-3.88,32.44,32.44,0,0,0-9.4-1.27c-1.68,0-3.59.1-5.71.3a28,28,0,0,0-6,1.23,5.49,5.49,0,0,0-2.09,1.23,2.92,2.92,0,0,0-.76,2.16v31q0,3.45,3.65,4.84a14.74,14.74,0,0,0,2.89.83c1,.2,2.08.37,3.12.5s2.05.22,3,.27,1.84.06,2.59.06A29.68,29.68,0,0,0,803.88,546Zm-12.82-31.49c.67-.08,1.32-.15,2-.19s1.28-.07,1.9-.07a9.65,9.65,0,0,1,7.44,3c1.86,2,2.78,5,2.78,9a16.58,16.58,0,0,1-.76,5.35,9.64,9.64,0,0,1-2.12,3.62,8.47,8.47,0,0,1-3.26,2.06,12.5,12.5,0,0,1-4.15.66c-.62,0-1.28,0-2-.1s-1.31-.14-1.8-.23Zm-41.84,1.27q.79,2.71,1.76,6.14t1.89,7h-8.23q.93-3.52,2.09-6.94c.78-2.28,1.47-4.35,2.09-6.21Zm-9.66-5.12c-.56,1.51-1.17,3.22-1.83,5.15s-1.37,4-2.12,6.14-1.47,4.29-2.13,6.35-1.27,4-1.83,5.74-1,3.26-1.29,4.45q-.33,1.26-.6,2.19a6.63,6.63,0,0,0-.26,1.86,3.73,3.73,0,0,0,1.62,3.22,8.67,8.67,0,0,0,5,1.17,11.17,11.17,0,0,0,2.49-.24,16.54,16.54,0,0,0,2-.56c.35-1.33.7-2.7,1.06-4.12s.71-2.79,1.06-4.12h12l1.2,4.59a12,12,0,0,0,.76,2,4,4,0,0,0,1.13,1.39,4.75,4.75,0,0,0,1.8.8,11.39,11.39,0,0,0,2.69.27,11.22,11.22,0,0,0,3.78-.57,5.42,5.42,0,0,0,2.39-1.49c-.66-2.44-1.44-5.24-2.32-8.4s-1.8-6.38-2.73-9.63-1.86-6.41-2.79-9.47-1.79-5.73-2.59-8a5.1,5.1,0,0,0-3.28-3,16.71,16.71,0,0,0-5.88-1,18.2,18.2,0,0,0-4.62.6,13.91,13.91,0,0,0-3.42,1.26Q740.39,508.38,739.56,510.63ZM679,515.28v25.77a8,8,0,0,0,.4,2.79,3.55,3.55,0,0,0,1.19,1.66,4.72,4.72,0,0,0,2,.83,13.49,13.49,0,0,0,2.69.23,23.11,23.11,0,0,0,3.09-.2,18.9,18.9,0,0,0,2.29-.39V515.28H698a4.15,4.15,0,0,0,3-1.13,5,5,0,0,0,1.16-3.72,8.59,8.59,0,0,0-.4-2.65,9,9,0,0,0-.86-2H672a4.15,4.15,0,0,0-3,1.13,5,5,0,0,0-1.17,3.72,9,9,0,0,0,.4,2.66,8.4,8.4,0,0,0,.87,2Zm-35.2,15.88a13.21,13.21,0,0,1,3,1.36,2.27,2.27,0,0,1,1.07,2,2.9,2.9,0,0,1-1.33,2.33c-.89.66-2.42,1-4.58,1a15.81,15.81,0,0,1-5.88-1.06,18.12,18.12,0,0,1-4.55-2.52,8.37,8.37,0,0,0-2.46,2.09,5,5,0,0,0-1.13,3.29,5.23,5.23,0,0,0,1.1,3.28,8.51,8.51,0,0,0,3.05,2.4,18.48,18.48,0,0,0,4.59,1.46,30.55,30.55,0,0,0,5.67.49q8.64,0,13.09-3.48a11.06,11.06,0,0,0,4.45-9.14,10.85,10.85,0,0,0-3.36-8.4,25.42,25.42,0,0,0-9.59-5.08l-3.52-1.13a8.82,8.82,0,0,1-2.59-1.16,1.93,1.93,0,0,1-.87-1.63,2.43,2.43,0,0,1,1.4-2.09,8.9,8.9,0,0,1,4.38-.83,19.46,19.46,0,0,1,5.38.7,14.77,14.77,0,0,1,3.92,1.63,8.61,8.61,0,0,0,1.93-2.1,5.28,5.28,0,0,0,.79-3,4.83,4.83,0,0,0-1-3,7.44,7.44,0,0,0-2.76-2.13,16.1,16.1,0,0,0-4.22-1.23,33.82,33.82,0,0,0-5.31-.4q-7.85,0-12.19,3.39a10.87,10.87,0,0,0-4.35,9,11.5,11.5,0,0,0,1,5,10.42,10.42,0,0,0,2.69,3.49,16.79,16.79,0,0,0,4.12,2.49c1.6.69,3.37,1.36,5.32,2Zm-56.46,9.09a5.73,5.73,0,0,0,6.18,6.18h19.39a3.9,3.9,0,0,0,2.89-1.09,5,5,0,0,0,1.1-3.62,8.74,8.74,0,0,0-.37-2.53,7.59,7.59,0,0,0-.83-1.92H598.65v-7h12.22a3.86,3.86,0,0,0,2.86-1.06,5,5,0,0,0,1.06-3.59,8.5,8.5,0,0,0-1.19-4.38h-15v-6.18h14a4,4,0,0,0,2.89-1.06,4.86,4.86,0,0,0,1.09-3.59,8.72,8.72,0,0,0-.36-2.52,8.25,8.25,0,0,0-.83-1.93H593.54a5.73,5.73,0,0,0-6.18,6.18Zm-34.53-15.87v-10c.48-.09.92-.16,1.32-.2s.93-.07,1.6-.07c2.34,0,4.06.43,5.14,1.3a4.56,4.56,0,0,1,1.63,3.82,4.86,4.86,0,0,1-1.46,3.82,5.79,5.79,0,0,1-4,1.29Zm3.58,8.83,5.58,9a20.14,20.14,0,0,0,1.26,1.86,7.48,7.48,0,0,0,1.46,1.46,6,6,0,0,0,1.86.93,8.58,8.58,0,0,0,2.53.33,6.73,6.73,0,0,0,3.95-1.23,6.22,6.22,0,0,0,2.42-3.55,39.14,39.14,0,0,0-3.65-5.18q-2.33-2.85-4.71-6.11a15.31,15.31,0,0,0,5-4.52,11.6,11.6,0,0,0,2.13-7,12.81,12.81,0,0,0-4.65-10.42q-4.65-3.85-13.82-3.86a53.29,53.29,0,0,0-6.37.37,24.91,24.91,0,0,0-5.25,1.16,5.41,5.41,0,0,0-2.09,1.23,2.92,2.92,0,0,0-.77,2.16v31.28a8.25,8.25,0,0,0,.4,2.79,3.73,3.73,0,0,0,1.17,1.66,4.38,4.38,0,0,0,1.92.83,13.49,13.49,0,0,0,2.69.23,23.11,23.11,0,0,0,3.09-.2,18.9,18.9,0,0,0,2.29-.39V533.21ZM501.52,517a8.2,8.2,0,0,1,6.61-2.95,8.06,8.06,0,0,1,6.61,3q2.41,3,2.42,9t-2.46,9a8.13,8.13,0,0,1-6.64,3,8,8,0,0,1-6.57-3q-2.46-3-2.46-9T501.52,517Zm-12.85,18.1a19.16,19.16,0,0,0,4.38,6.71,18.69,18.69,0,0,0,6.64,4.15,24,24,0,0,0,8.37,1.43,24.42,24.42,0,0,0,8.37-1.4A18.83,18.83,0,0,0,523.1,542a18.49,18.49,0,0,0,4.42-6.71,24.85,24.85,0,0,0,1.59-9.2,24.15,24.15,0,0,0-1.62-9.16A18.73,18.73,0,0,0,523,510.2a19.29,19.29,0,0,0-6.67-4.08,25.13,25.13,0,0,0-16.54,0,18.45,18.45,0,0,0-11.09,10.76,24,24,0,0,0-1.63,9.16A24.21,24.21,0,0,0,488.67,535.14ZM454.73,506a5.73,5.73,0,0,0-6.18,6.18v28.89a8,8,0,0,0,.4,2.79,3.55,3.55,0,0,0,1.19,1.66,4.77,4.77,0,0,0,2,.83,13.49,13.49,0,0,0,2.69.23,23.11,23.11,0,0,0,3.09-.2,18.54,18.54,0,0,0,2.29-.39V532H471.8a4,4,0,0,0,2.95-1.09,5,5,0,0,0,1.1-3.62,8.42,8.42,0,0,0-.37-2.53,6.48,6.48,0,0,0-.89-1.92H460v-7.51H474a4,4,0,0,0,2.95-1.09,5.12,5.12,0,0,0,1.1-3.69,8.71,8.71,0,0,0-.37-2.56,7.78,7.78,0,0,0-.83-2Zm-38.26,20.13a3.81,3.81,0,0,0-4.18-4.19H401.06a3.88,3.88,0,0,0-2.82,1.07,4.64,4.64,0,0,0-1.1,3.45,8.63,8.63,0,0,0,.37,2.52,10.76,10.76,0,0,0,.76,1.93h7.11v6.24a7.24,7.24,0,0,1-1.73.6,11.14,11.14,0,0,1-2.59.27,12.93,12.93,0,0,1-4.25-.7,9.71,9.71,0,0,1-5.94-5.78,14,14,0,0,1-.9-5.28q0-5.64,3.29-8.83a12.17,12.17,0,0,1,8.86-3.19,15.51,15.51,0,0,1,5.62,1,27.63,27.63,0,0,1,4.15,2,7.24,7.24,0,0,0,2-2,5.13,5.13,0,0,0,.86-3c0-2.17-1.22-3.93-3.68-5.28s-5.79-2-10-2a28,28,0,0,0-8.53,1.33,21.86,21.86,0,0,0-7.38,4,20.08,20.08,0,0,0-5.18,6.74,24.07,24.07,0,0,0-.16,18.6,18.54,18.54,0,0,0,4.88,6.54A20.33,20.33,0,0,0,392,546a30.3,30.3,0,0,0,9,1.29,31.74,31.74,0,0,0,3.62-.2,33.05,33.05,0,0,0,3.49-.56,25.21,25.21,0,0,0,3-.86,15,15,0,0,0,2.33-1,7.53,7.53,0,0,0,2.32-1.93,5.14,5.14,0,0,0,.73-3.05ZM365.8,510.7q0-3.26-1.53-4.29a8,8,0,0,0-4.45-1,22.88,22.88,0,0,0-3,.2,20.47,20.47,0,0,0-2.22.4v10.76q0,3.59.06,7.18t.34,7.17l-.34.07c-.62-1.6-1.19-3-1.72-4.22s-1.13-2.51-1.8-3.89l-6.64-13.41a6.32,6.32,0,0,0-3.55-3.49,14.35,14.35,0,0,0-4.68-.77,12.58,12.58,0,0,0-4.12.67,5.56,5.56,0,0,0-2.86,2v33.21a7.71,7.71,0,0,0,.4,2.69,3.85,3.85,0,0,0,1.13,1.63,3.94,3.94,0,0,0,1.86.79,14.35,14.35,0,0,0,2.59.2,21.34,21.34,0,0,0,3-.2,19.07,19.07,0,0,0,2.22-.39v-10.3q0-3.58,0-7.3c0-2.48-.12-4.92-.3-7.31l.4-.07c.62,1.6,1.19,3,1.72,4.22s1.13,2.51,1.8,3.89l6.57,13.41a6.42,6.42,0,0,0,3.59,3.52,14.52,14.52,0,0,0,4.65.73,15.78,15.78,0,0,0,4.22-.49,6.17,6.17,0,0,0,2.69-1.43ZM289.52,517a8.2,8.2,0,0,1,6.6-2.95,8,8,0,0,1,6.61,3q2.43,3,2.43,9t-2.46,9a8.8,8.8,0,0,1-13.22,0c-1.64-2-2.45-5-2.45-9S287.86,519,289.52,517Zm-12.86,18.1a19.32,19.32,0,0,0,4.39,6.71,18.69,18.69,0,0,0,6.64,4.15,24,24,0,0,0,8.37,1.43,24.42,24.42,0,0,0,8.37-1.4A18.92,18.92,0,0,0,311.1,542a18.62,18.62,0,0,0,4.42-6.71,24.85,24.85,0,0,0,1.59-9.2,24.15,24.15,0,0,0-1.62-9.16A18.73,18.73,0,0,0,311,510.2a19.29,19.29,0,0,0-6.67-4.08,25.13,25.13,0,0,0-16.54,0,18.45,18.45,0,0,0-11.09,10.76,24,24,0,0,0-1.63,9.16A24.42,24.42,0,0,0,276.66,535.14Zm-13.28,11.29a4.11,4.11,0,0,0,3-1.09,5.14,5.14,0,0,0,1.13-3.76,8.1,8.1,0,0,0-.4-2.55,8.75,8.75,0,0,0-.86-2H251V510.83a8.25,8.25,0,0,0-.4-2.79,3.63,3.63,0,0,0-1.2-1.66,4.79,4.79,0,0,0-2-.83,14.2,14.2,0,0,0-2.69-.23,21.85,21.85,0,0,0-3.05.23c-1.06.16-1.84.28-2.33.37v34.33a5.73,5.73,0,0,0,6.18,6.18Z"/><path class="cls-17" d="M1106.87,540.25h-.46a6.19,6.19,0,0,0,6.64,6.64h19.4a4.33,4.33,0,0,0,3.21-1.23,5.39,5.39,0,0,0,1.23-3.94,9.3,9.3,0,0,0-.38-2.66,8.52,8.52,0,0,0-.89-2l-.13-.22h-16.86v-6h11.76a4.31,4.31,0,0,0,3.18-1.19,5.45,5.45,0,0,0,1.2-3.92,8.72,8.72,0,0,0-.39-2.63,8.5,8.5,0,0,0-.88-2l-.14-.21h-14.73v-5.26h13.55a4.42,4.42,0,0,0,3.21-1.19,5.33,5.33,0,0,0,1.24-3.92,9,9,0,0,0-.39-2.66,8.23,8.23,0,0,0-.88-2l-.14-.22h-22.17a6.2,6.2,0,0,0-6.64,6.64v28.09h.93V512.16a5.28,5.28,0,0,1,5.71-5.72H1135V506l-.39.25a7.68,7.68,0,0,1,.78,1.81,8.12,8.12,0,0,1,.34,2.39,4.47,4.47,0,0,1-1,3.26,3.52,3.52,0,0,1-2.57.93H1117.7v7.1h15.41v-.46l-.39.24a7.63,7.63,0,0,1,.78,1.79,7.76,7.76,0,0,1,.34,2.35,4.53,4.53,0,0,1-.92,3.26,3.41,3.41,0,0,1-2.53.93H1117.7v7.9h17.54v-.46l-.39.24a7.81,7.81,0,0,1,.77,1.82,8.08,8.08,0,0,1,.35,2.39,4.57,4.57,0,0,1-1,3.29,3.41,3.41,0,0,1-2.56,1h-19.4a5.28,5.28,0,0,1-5.71-5.72Zm-34.53-15.87h.46v-10h-.46l.08.45c.48-.09.91-.15,1.3-.19a14.77,14.77,0,0,1,1.54-.07c2.29,0,3.91.43,4.86,1.2a4.11,4.11,0,0,1,1.45,3.46,4.36,4.36,0,0,1-1.3,3.47,5.33,5.33,0,0,1-3.68,1.18h-4.25v.46h0v.46h4.25a6.29,6.29,0,0,0,4.29-1.41,5.33,5.33,0,0,0,1.62-4.16,5.06,5.06,0,0,0-1.81-4.18c-1.21-1-3-1.4-5.43-1.4a14.52,14.52,0,0,0-1.64.07c-.42,0-.87.11-1.36.2l-.38.07v10.81h.46Zm3.59,8.83-.4.25,5.58,9a21,21,0,0,0,1.29,1.9,7.85,7.85,0,0,0,1.55,1.55,6.58,6.58,0,0,0,2,1,8.89,8.89,0,0,0,2.66.35,7.18,7.18,0,0,0,4.22-1.31,6.72,6.72,0,0,0,2.6-3.8l0-.19-.09-.17a40.79,40.79,0,0,0-3.7-5.24q-2.31-2.85-4.7-6.09l-.37.27.22.4a15.62,15.62,0,0,0,5.2-4.65,12.09,12.09,0,0,0,2.21-7.31,13.3,13.3,0,0,0-4.81-10.78c-3.23-2.66-7.94-4-14.11-4a52.45,52.45,0,0,0-6.44.37,25.26,25.26,0,0,0-5.34,1.19,5.82,5.82,0,0,0-2.26,1.33,3.35,3.35,0,0,0-.9,2.49v31.28a8.57,8.57,0,0,0,.42,3,4.17,4.17,0,0,0,1.31,1.86,4.93,4.93,0,0,0,2.12.92,13.78,13.78,0,0,0,2.78.24,22.4,22.4,0,0,0,3.15-.2,18.87,18.87,0,0,0,2.36-.41l.34-.09V533.67h3.06v-.46l-.4.25.4-.25v-.46h-4V546h.46l-.12-.45a17.94,17.94,0,0,1-2.23.39,23.93,23.93,0,0,1-3,.19,13.28,13.28,0,0,1-2.6-.22,4.18,4.18,0,0,1-1.73-.74,3.26,3.26,0,0,1-1-1.46,7.62,7.62,0,0,1-.37-2.63V509.77a2.41,2.41,0,0,1,.63-1.83,4.87,4.87,0,0,1,1.92-1.12,24.15,24.15,0,0,1,5.15-1.14,52.19,52.19,0,0,1,6.32-.37c6.05,0,10.54,1.28,13.52,3.75a12.39,12.39,0,0,1,4.48,10.07,11.12,11.12,0,0,1-2,6.77,14.84,14.84,0,0,1-4.89,4.39l-.47.25.32.42q2.38,3.27,4.73,6.13a39.9,39.9,0,0,1,3.61,5.12l.4-.23-.45-.13a5.81,5.81,0,0,1-2.24,3.31,6.3,6.3,0,0,1-3.69,1.14,8.21,8.21,0,0,1-2.39-.31,5.66,5.66,0,0,1-1.72-.86,7.4,7.4,0,0,1-1.37-1.37,19.26,19.26,0,0,1-1.23-1.82l-5.72-9.19h-.25Zm-29.09-22.31h.46a8.55,8.55,0,0,0-.43-2.95,4,4,0,0,0-1.35-1.87,5.16,5.16,0,0,0-2.15-.91,13.66,13.66,0,0,0-2.78-.25,21.3,21.3,0,0,0-3.12.24c-1.07.16-1.84.28-2.34.37l-.38.07v25.56a6.44,6.44,0,0,1-1.6,4.66,6.25,6.25,0,0,1-8.47,0,6.36,6.36,0,0,1-1.63-4.65V510.9a8.57,8.57,0,0,0-.42-2.95,4,4,0,0,0-1.36-1.87,5.06,5.06,0,0,0-2.14-.91,13.66,13.66,0,0,0-2.78-.25,21.3,21.3,0,0,0-3.12.24c-1.07.16-1.85.28-2.34.37l-.38.07v25.75a17.41,17.41,0,0,0,1.26,6.72,14.42,14.42,0,0,0,3.67,5.22,16.47,16.47,0,0,0,5.81,3.31,25.84,25.84,0,0,0,15.31,0,16.51,16.51,0,0,0,5.8-3.31,14.3,14.3,0,0,0,3.67-5.22,17.23,17.23,0,0,0,1.27-6.72V510.9h-.93v20.45a16.51,16.51,0,0,1-1.19,6.37,13.45,13.45,0,0,1-3.44,4.88,15.64,15.64,0,0,1-5.48,3.13,25.17,25.17,0,0,1-14.72,0,15.64,15.64,0,0,1-5.48-3.13,13.45,13.45,0,0,1-3.44-4.88,16.51,16.51,0,0,1-1.19-6.37V506H1011l.08.46c.48-.09,1.25-.21,2.31-.37a21,21,0,0,1,3-.22,13.28,13.28,0,0,1,2.6.22,4.28,4.28,0,0,1,1.77.75,3.06,3.06,0,0,1,1,1.45,7.62,7.62,0,0,1,.37,2.63v20.26a7.3,7.3,0,0,0,1.89,5.3,7.19,7.19,0,0,0,9.8,0,7.32,7.32,0,0,0,1.85-5.3V506h-.46l.08.46c.48-.09,1.25-.21,2.31-.37a21.07,21.07,0,0,1,3-.22,13.21,13.21,0,0,1,2.6.22,4.22,4.22,0,0,1,1.77.75,3.06,3.06,0,0,1,1,1.45,7.62,7.62,0,0,1,.37,2.63Zm-70.08,4.38h-.46v25.77a8.55,8.55,0,0,0,.43,3,4,4,0,0,0,1.35,1.87,5.16,5.16,0,0,0,2.15.91A13.64,13.64,0,0,0,983,547a22.26,22.26,0,0,0,3.14-.2,18.53,18.53,0,0,0,2.36-.41l.34-.09V515.74h6.91a4.56,4.56,0,0,0,3.34-1.26,5.43,5.43,0,0,0,1.3-4.05,8.93,8.93,0,0,0-.41-2.79,9.11,9.11,0,0,0-.92-2.1l-.13-.22H969.72a4.64,4.64,0,0,0-3.34,1.26,5.45,5.45,0,0,0-1.3,4.05,9.26,9.26,0,0,0,.42,2.8,9.09,9.09,0,0,0,.91,2.1l.14.21h10.21v-.46h0v-.46h-10v.46l.39-.25a8,8,0,0,1-.81-1.88,8.31,8.31,0,0,1-.38-2.52,4.62,4.62,0,0,1,1-3.39,3.73,3.73,0,0,1,2.7-1h29v-.46l-.39.25a8.69,8.69,0,0,1,1.19,4.4,4.61,4.61,0,0,1-1,3.39,3.69,3.69,0,0,1-2.7,1h-7.83V546h.46l-.12-.45a18.3,18.3,0,0,1-2.23.39,24,24,0,0,1-3,.19,13.14,13.14,0,0,1-2.6-.22,4.35,4.35,0,0,1-1.77-.75,3.06,3.06,0,0,1-1-1.45,7.59,7.59,0,0,1-.38-2.63V514.82h-.46Zm-22.31-4.58h.46c0-2.23-.51-3.83-1.73-4.67a8.42,8.42,0,0,0-4.71-1.11,22,22,0,0,0-3,.21,16.63,16.63,0,0,0-2.29.41l-.34.09v11.11q0,3.6.07,7.18t.33,7.2l.46,0-.09-.45-.33.06.09.46.43-.17c-.62-1.6-1.2-3-1.74-4.24s-1.13-2.52-1.8-3.9l-6.64-13.42a6.86,6.86,0,0,0-3.82-3.72,14.91,14.91,0,0,0-4.83-.79,13,13,0,0,0-4.27.69,6,6,0,0,0-3.08,2.17l-.09.11v33.36a8.17,8.17,0,0,0,.43,2.86,4.27,4.27,0,0,0,1.27,1.81,4.39,4.39,0,0,0,2.07.9,15.45,15.45,0,0,0,2.67.2,20.61,20.61,0,0,0,3-.2,18.68,18.68,0,0,0,2.29-.41l.34-.09V535.67c0-2.39,0-4.83,0-7.31s-.12-4.93-.3-7.33l-.46,0,.08.45.4-.06-.08-.46-.43.17c.62,1.6,1.2,3,1.73,4.23s1.14,2.53,1.81,3.91l6.57,13.42a6.87,6.87,0,0,0,3.86,3.75,15.15,15.15,0,0,0,4.79.75,15.91,15.91,0,0,0,4.34-.51,6.53,6.53,0,0,0,2.9-1.55l.13-.13V510.7H954v34.14h.46l-.33-.33a5.54,5.54,0,0,1-2.49,1.31,15,15,0,0,1-4.09.48,14.14,14.14,0,0,1-4.5-.7,6,6,0,0,1-3.32-3.29l-6.58-13.42c-.66-1.36-1.25-2.65-1.78-3.86s-1.1-2.61-1.72-4.2l-.14-.36-.76.13-.42.07,0,.42q.27,3.57.3,7.28t0,7.3V546h.46l-.12-.45a18.45,18.45,0,0,1-2.16.39,22,22,0,0,1-2.9.19,14.34,14.34,0,0,1-2.51-.19,3.2,3.2,0,0,1-2.64-2.14,7.28,7.28,0,0,1-.36-2.52V508H918l.37.27a5.11,5.11,0,0,1,2.63-1.82,12,12,0,0,1,4-.64,13.88,13.88,0,0,1,4.53.73,5.9,5.9,0,0,1,3.29,3.26l6.64,13.42c.66,1.36,1.26,2.65,1.79,3.86s1.1,2.61,1.72,4.2l.14.36.71-.14.4-.08,0-.41q-.27-3.57-.33-7.14t-.07-7.17V506h-.46l.12.45a16.43,16.43,0,0,1,2.17-.39,21.8,21.8,0,0,1,2.89-.19,7.45,7.45,0,0,1,4.19.95c.82.54,1.33,1.79,1.33,3.9ZM876,540.25h-.46a6.19,6.19,0,0,0,6.64,6.64h19.39a4.33,4.33,0,0,0,3.22-1.23,5.39,5.39,0,0,0,1.23-3.94,9,9,0,0,0-.39-2.66,8.15,8.15,0,0,0-.88-2l-.14-.22H887.76v-6h11.76a4.3,4.3,0,0,0,3.18-1.19,5.41,5.41,0,0,0,1.2-3.92,8.72,8.72,0,0,0-.39-2.63,8.5,8.5,0,0,0-.88-2l-.13-.21H887.76v-5.26h13.56a4.43,4.43,0,0,0,3.21-1.19,5.32,5.32,0,0,0,1.23-3.92,9.35,9.35,0,0,0-.38-2.66,8.61,8.61,0,0,0-.89-2l-.13-.22H882.19a6.19,6.19,0,0,0-6.64,6.64v28.09h.92V512.16a5.29,5.29,0,0,1,5.72-5.72H904.1V506l-.39.25a7.28,7.28,0,0,1,.78,1.81,8.13,8.13,0,0,1,.35,2.39,4.42,4.42,0,0,1-1,3.26,3.51,3.51,0,0,1-2.56.93H886.84v7.1h15.41v-.46l-.39.24a7.65,7.65,0,0,1,.77,1.79,7.76,7.76,0,0,1,.35,2.35,4.52,4.52,0,0,1-.93,3.26,3.37,3.37,0,0,1-2.53.93H886.84v7.9h17.53v-.46l-.39.24a7.78,7.78,0,0,1,.78,1.82,8.08,8.08,0,0,1,.34,2.39,4.48,4.48,0,0,1-1,3.29,3.39,3.39,0,0,1-2.56,1H882.19a5.29,5.29,0,0,1-5.72-5.72Zm-21.65,1.1.42.19q1.2-2.56,2.56-5.93t2.73-7.16q1.36-3.78,2.47-7.29t1.8-6.3a19.38,19.38,0,0,0,.71-4.36,4.43,4.43,0,0,0-1.94-4,8.09,8.09,0,0,0-4.43-1.17,11.47,11.47,0,0,0-3.22.42,15.71,15.71,0,0,0-2.64,1l-.19.1,0,.21q-1.73,7.31-3.62,14.67t-3.68,13.6l.44.13V535h-.39v.46l.44-.13q-2-6.45-3.82-12.39t-3.62-12.44a6.67,6.67,0,0,0-2.48-4.08,7.62,7.62,0,0,0-4.27-1.11,9.88,9.88,0,0,0-3.94.8,9.32,9.32,0,0,0-2.83,1.79l-.19.19.07.25c.49,2,1.06,4,1.73,6.27s1.37,4.48,2.13,6.78,1.54,4.58,2.36,6.82,1.62,4.36,2.4,6.36,1.52,3.8,2.23,5.43,1.31,2.94,1.8,4a5.44,5.44,0,0,0,3,2.52,12.9,12.9,0,0,0,5,.87,15.23,15.23,0,0,0,4.42-.62,8.49,8.49,0,0,0,3.05-1.49l0,0,0,0a25,25,0,0,0,2-3.64l-.42-.19-.42-.2a22.79,22.79,0,0,1-1.88,3.48l.37.27-.3-.35a7.7,7.7,0,0,1-2.72,1.31,14.31,14.31,0,0,1-4.15.57,12.1,12.1,0,0,1-4.61-.79,4.54,4.54,0,0,1-2.48-2.07c-.48-1-1.08-2.32-1.79-3.93s-1.44-3.41-2.21-5.4-1.57-4.1-2.39-6.33-1.6-4.5-2.35-6.79-1.46-4.56-2.13-6.77-1.23-4.28-1.72-6.22l-.45.11.33.33A8.18,8.18,0,0,1,828,507a9.08,9.08,0,0,1,3.57-.73,6.73,6.73,0,0,1,3.76,1,5.81,5.81,0,0,1,2.1,3.55q1.8,6.53,3.63,12.47c1.21,4,2.49,8.09,3.81,12.39l.1.32h1.09l.1-.33q1.79-6.26,3.69-13.63t3.62-14.69l-.45-.1.21.41a15.23,15.23,0,0,1,2.48-1,10.53,10.53,0,0,1,3-.38,7.2,7.2,0,0,1,3.93,1,3.51,3.51,0,0,1,1.52,3.23,19.05,19.05,0,0,1-.69,4.14c-.46,1.85-1.06,3.93-1.78,6.25s-1.55,4.73-2.46,7.25-1.81,4.9-2.71,7.13-1.76,4.19-2.55,5.88ZM803.88,546l.14.43a19.39,19.39,0,0,0,7.25-4.11,18.31,18.31,0,0,0,4.66-6.81,28.16,28.16,0,0,0-.06-19.05,18.16,18.16,0,0,0-4.81-6.78,19.9,19.9,0,0,0-7.41-4,33.39,33.39,0,0,0-9.53-1.28q-2.55,0-5.76.3a28.33,28.33,0,0,0-6.14,1.25,5.92,5.92,0,0,0-2.27,1.34,3.35,3.35,0,0,0-.9,2.49v31c0,2.47,1.39,4.32,4,5.27a16,16,0,0,0,3,.86c1,.2,2.1.37,3.15.5s2.07.22,3.06.27,1.85.07,2.61.07A29.67,29.67,0,0,0,804,546.4l-.14-.43-.14-.44a29,29,0,0,1-9,1.3c-.74,0-1.6,0-2.57-.06s-2-.13-3-.27-2.06-.29-3.09-.49a14.42,14.42,0,0,1-2.81-.81c-2.32-.91-3.34-2.29-3.36-4.41v-31a2.41,2.41,0,0,1,.63-1.83,4.87,4.87,0,0,1,1.92-1.12,27.35,27.35,0,0,1,5.93-1.21q3.16-.3,5.67-.3a32.18,32.18,0,0,1,9.27,1.25,18.83,18.83,0,0,1,7.06,3.79,17,17,0,0,1,4.56,6.44,23.91,23.91,0,0,1,1.63,9.25,24.28,24.28,0,0,1-1.56,9.09,17.52,17.52,0,0,1-4.43,6.48,18.71,18.71,0,0,1-6.91,3.92Zm-12.82-31.49.07.46c.65-.09,1.29-.15,1.93-.2s1.25-.06,1.86-.06a9.18,9.18,0,0,1,7.1,2.87c1.75,1.9,2.66,4.77,2.66,8.69a16.08,16.08,0,0,1-.74,5.2,9,9,0,0,1-2,3.44,7.87,7.87,0,0,1-3.08,2,12.11,12.11,0,0,1-4,.64c-.6,0-1.25,0-2-.1a16.86,16.86,0,0,1-1.75-.23l-.09.46h.47V514.48h-.47l.07.46-.07-.46h-.46V538l.38.07c.51.09,1.12.17,1.84.24s1.39.1,2,.1a12.93,12.93,0,0,0,4.3-.69,8.77,8.77,0,0,0,3.44-2.17,10.11,10.11,0,0,0,2.23-3.79,17,17,0,0,0,.79-5.5c0-4-1-7.18-2.92-9.31a10.05,10.05,0,0,0-7.77-3.17c-.64,0-1.28,0-1.93.06s-1.31.12-2,.21l-.4.05v.4Zm-41.84,1.27-.44.13c.53,1.81,1.12,3.86,1.76,6.13s1.27,4.61,1.89,7l.44-.11v-.46h-8.23v.46l.44.11q.93-3.5,2.09-6.91t2.09-6.21l-.44-.14v.46h.4v-.46l-.44.13.44-.13v-.46h-.73l-.1.31c-.63,1.86-1.32,3.93-2.1,6.21s-1.48,4.61-2.1,7l-.15.58h9.43l-.15-.58q-.93-3.59-1.9-7c-.64-2.28-1.22-4.33-1.76-6.14l-.09-.33h-.35Zm-9.66-5.12-.44-.16q-.82,2.26-1.83,5.16l-2.12,6.14c-.76,2.17-1.46,4.29-2.13,6.35s-1.27,4-1.83,5.75-1,3.27-1.3,4.48c-.22.83-.42,1.56-.59,2.18a7.13,7.13,0,0,0-.29,2,4.22,4.22,0,0,0,1.82,3.6,9.21,9.21,0,0,0,5.29,1.25,11.6,11.6,0,0,0,2.59-.25,17.4,17.4,0,0,0,2-.58l.23-.08.06-.23c.36-1.33.71-2.71,1.07-4.13s.7-2.78,1.06-4.11l-.45-.12v.46h11.67l1.1,4.24a12.39,12.39,0,0,0,.8,2.08,4.32,4.32,0,0,0,1.26,1.56,5.33,5.33,0,0,0,2,.88,13.69,13.69,0,0,0,6.73-.31,6,6,0,0,0,2.59-1.63L769,545l-.06-.23c-.67-2.44-1.44-5.24-2.33-8.41s-1.79-6.38-2.72-9.63-1.86-6.42-2.79-9.48-1.8-5.74-2.6-8.05a5.59,5.59,0,0,0-3.56-3.3,17.19,17.19,0,0,0-6-1,18.55,18.55,0,0,0-4.73.61,14.13,14.13,0,0,0-3.54,1.31l-.14.08-.06.15c-.31.8-.74,2-1.3,3.46l.44.16.43.16c.55-1.5,1-2.65,1.29-3.44l-.43-.17.24.4a13.16,13.16,0,0,1,3.3-1.22,17.7,17.7,0,0,1,4.5-.58,16.09,16.09,0,0,1,5.71.93,4.67,4.67,0,0,1,3,2.75q1.18,3.44,2.58,8t2.79,9.46q1.39,4.88,2.72,9.63c.89,3.17,1.66,6,2.33,8.4l.44-.12-.35-.3a5,5,0,0,1-2.19,1.36,13,13,0,0,1-6.22.28,4.52,4.52,0,0,1-1.62-.71,3.53,3.53,0,0,1-1-1.24,11.21,11.21,0,0,1-.74-1.91l-1.28-4.92H742.36l-.09.34c-.36,1.33-.71,2.71-1.07,4.13s-.71,2.78-1.06,4.11l.45.12-.16-.44a15.21,15.21,0,0,1-1.91.55,10.65,10.65,0,0,1-2.38.22,8.22,8.22,0,0,1-4.75-1.07,3.29,3.29,0,0,1-1.43-2.85,6.5,6.5,0,0,1,.24-1.73c.18-.62.38-1.36.6-2.2.31-1.19.74-2.66,1.29-4.43s1.16-3.69,1.83-5.74,1.37-4.17,2.12-6.34l2.13-6.14c.66-1.92,1.27-3.64,1.82-5.14ZM679,515.28h-.46v25.77a8.57,8.57,0,0,0,.42,3,4,4,0,0,0,1.36,1.87,5.06,5.06,0,0,0,2.14.91,13.71,13.71,0,0,0,2.78.24,22.4,22.4,0,0,0,3.15-.2,18.64,18.64,0,0,0,2.35-.41l.34-.09V515.74H698a4.59,4.59,0,0,0,3.35-1.26,5.47,5.47,0,0,0,1.3-4.05,9.24,9.24,0,0,0-.42-2.79,8.7,8.7,0,0,0-.92-2.1l-.13-.22H672a4.68,4.68,0,0,0-3.35,1.26,5.49,5.49,0,0,0-1.3,4.05,9.26,9.26,0,0,0,.42,2.8,9.07,9.07,0,0,0,.92,2.1l.13.21H679v-.46h0v-.46h-10v.46l.38-.25a8.43,8.43,0,0,1-.81-1.88,8.31,8.31,0,0,1-.38-2.52,4.58,4.58,0,0,1,1-3.39,3.71,3.71,0,0,1,2.7-1h29v-.46l-.39.25a8.87,8.87,0,0,1,.81,1.88,8.4,8.4,0,0,1,.38,2.52,4.56,4.56,0,0,1-1,3.39,3.67,3.67,0,0,1-2.7,1h-7.83V546h.46l-.12-.45a18.3,18.3,0,0,1-2.23.39,23.93,23.93,0,0,1-3,.19,13.28,13.28,0,0,1-2.6-.22,4.41,4.41,0,0,1-1.77-.75,3.06,3.06,0,0,1-1-1.45,7.62,7.62,0,0,1-.37-2.63V514.82H679Zm-35.2,15.88-.16.43a13.63,13.63,0,0,1,2.89,1.31,1.83,1.83,0,0,1,.86,1.64,2.43,2.43,0,0,1-1.15,2c-.73.56-2.18.91-4.3.9a15.27,15.27,0,0,1-5.71-1,17.26,17.26,0,0,1-4.44-2.46l-.24-.18-.26.14a9,9,0,0,0-2.59,2.2,5.44,5.44,0,0,0-1.24,3.59,5.7,5.7,0,0,0,1.19,3.56,8.93,8.93,0,0,0,3.22,2.53,18.67,18.67,0,0,0,4.7,1.5,30.71,30.71,0,0,0,5.76.51c5.82,0,10.29-1.17,13.37-3.59a11.51,11.51,0,0,0,4.63-9.5,11.35,11.35,0,0,0-3.5-8.74,26,26,0,0,0-9.77-5.18l-3.52-1.13a8.51,8.51,0,0,1-2.46-1.09,1.47,1.47,0,0,1-.68-1.26,2,2,0,0,1,1.17-1.69,8.46,8.46,0,0,1,4.15-.77,19.36,19.36,0,0,1,5.26.68,14.64,14.64,0,0,1,3.79,1.58l.27.17.26-.2a8.42,8.42,0,0,0,2-2.21,5.65,5.65,0,0,0,.87-3.2,5.2,5.2,0,0,0-1.09-3.3,7.74,7.74,0,0,0-2.92-2.27,16.6,16.6,0,0,0-4.34-1.26,33.82,33.82,0,0,0-5.39-.41c-5.29,0-9.46,1.14-12.47,3.49a11.31,11.31,0,0,0-4.53,9.39,11.92,11.92,0,0,0,1,5.15,10.74,10.74,0,0,0,2.81,3.64,16.6,16.6,0,0,0,4.23,2.56q2.41,1,5.35,2l2.79.93.15-.43.14-.44-2.79-.93c-1.94-.66-3.69-1.33-5.28-2a16.24,16.24,0,0,1-4-2.42,10,10,0,0,1-2.57-3.34,11.08,11.08,0,0,1-.92-4.75,10.4,10.4,0,0,1,4.17-8.66c2.79-2.18,6.75-3.3,11.91-3.3a32.91,32.91,0,0,1,5.24.4,15.38,15.38,0,0,1,4.09,1.19,6.85,6.85,0,0,1,2.59,2,4.32,4.32,0,0,1,.9,2.74,4.79,4.79,0,0,1-.72,2.7,7.84,7.84,0,0,1-1.82,2l.28.37.25-.39a15.58,15.58,0,0,0-4-1.69,20.47,20.47,0,0,0-5.51-.71,9.3,9.3,0,0,0-4.62.89,2.91,2.91,0,0,0-1.62,2.49,2.41,2.41,0,0,0,1,2,9.35,9.35,0,0,0,2.73,1.23l3.52,1.13a25.21,25.21,0,0,1,9.42,5,10.43,10.43,0,0,1,3.21,8.06,10.57,10.57,0,0,1-4.28,8.77c-2.84,2.24-7.1,3.39-12.8,3.39a29.68,29.68,0,0,1-5.59-.49,17.19,17.19,0,0,1-4.46-1.42,8,8,0,0,1-2.9-2.26,4.74,4.74,0,0,1-1-3,4.53,4.53,0,0,1,1-3,8.15,8.15,0,0,1,2.32-2l-.22-.4-.29.36a18.32,18.32,0,0,0,4.67,2.59,16.35,16.35,0,0,0,6.05,1.09c2.21,0,3.82-.32,4.86-1.08a3.38,3.38,0,0,0,1.51-2.7,2.74,2.74,0,0,0-1.27-2.41,14.16,14.16,0,0,0-3.09-1.41Zm-56.46,9.09h-.46a6.19,6.19,0,0,0,6.64,6.64h19.39a4.33,4.33,0,0,0,3.22-1.23,5.39,5.39,0,0,0,1.23-3.94,9,9,0,0,0-.39-2.66,8.15,8.15,0,0,0-.88-2l-.13-.22H599.11v-6h11.76a4.34,4.34,0,0,0,3.19-1.19,5.45,5.45,0,0,0,1.19-3.92,9,9,0,0,0-.38-2.63,9.41,9.41,0,0,0-.88-2l-.14-.21H599.11v-5.26h13.56a4.42,4.42,0,0,0,3.21-1.19,5.32,5.32,0,0,0,1.23-3.92,9.35,9.35,0,0,0-.38-2.66,8.63,8.63,0,0,0-.88-2l-.14-.22H593.54a6.2,6.2,0,0,0-6.64,6.64v28.09h.92V512.16a5.29,5.29,0,0,1,5.72-5.72h21.92V506l-.39.25a7.68,7.68,0,0,1,.78,1.81,8.47,8.47,0,0,1,.34,2.39,4.42,4.42,0,0,1-1,3.26,3.51,3.51,0,0,1-2.56.93H598.19v7.1H613.6v-.46l-.39.24a8.12,8.12,0,0,1,1.12,4.14,4.52,4.52,0,0,1-.93,3.26,3.37,3.37,0,0,1-2.53.93H598.19v7.9h17.53v-.46l-.39.24a7.38,7.38,0,0,1,.78,1.82,8.08,8.08,0,0,1,.35,2.39,4.52,4.52,0,0,1-1,3.29,3.39,3.39,0,0,1-2.56,1H593.54a5.29,5.29,0,0,1-5.72-5.72Zm-34.53-15.87h.46v-10h-.46l.08.45c.48-.09.91-.15,1.29-.19a15,15,0,0,1,1.55-.07c2.29,0,3.91.43,4.86,1.2a4.13,4.13,0,0,1,1.45,3.46,4.33,4.33,0,0,1-1.31,3.47,5.32,5.32,0,0,1-3.67,1.18h-4.25v.46h0v.46h4.25a6.3,6.3,0,0,0,4.29-1.41,5.29,5.29,0,0,0,1.61-4.16,5,5,0,0,0-1.8-4.18c-1.22-1-3-1.4-5.43-1.4a14.84,14.84,0,0,0-1.65.07c-.41,0-.86.11-1.36.2l-.38.07v10.81h.47Zm3.58,8.83-.39.25,5.58,9a17.56,17.56,0,0,0,1.29,1.9,7.85,7.85,0,0,0,1.55,1.55,6.36,6.36,0,0,0,2,1,8.89,8.89,0,0,0,2.66.35,7.15,7.15,0,0,0,4.21-1.31,6.73,6.73,0,0,0,2.61-3.8l.05-.19-.1-.17a39.64,39.64,0,0,0-3.69-5.24c-1.55-1.9-3.11-3.93-4.7-6.09l-.37.27.22.4a15.71,15.71,0,0,0,5.2-4.65,12.16,12.16,0,0,0,2.21-7.31,13.28,13.28,0,0,0-4.82-10.78c-3.22-2.66-7.94-4-14.11-4a52.28,52.28,0,0,0-6.43.37A25.12,25.12,0,0,0,544,506a5.79,5.79,0,0,0-2.27,1.33,3.43,3.43,0,0,0-.9,2.49v31.28a8.55,8.55,0,0,0,.43,3,4.11,4.11,0,0,0,1.31,1.86,4.93,4.93,0,0,0,2.12.92,13.71,13.71,0,0,0,2.78.24,22.4,22.4,0,0,0,3.15-.2,18.64,18.64,0,0,0,2.35-.41l.34-.09V533.67h3.06v-.46l-.39.25.39-.25v-.46h-4V546h.46l-.12-.45a18.3,18.3,0,0,1-2.23.39,23.93,23.93,0,0,1-3,.19,13.28,13.28,0,0,1-2.6-.22,4.18,4.18,0,0,1-1.73-.74,3.36,3.36,0,0,1-1-1.46,7.91,7.91,0,0,1-.36-2.63V509.77a2.45,2.45,0,0,1,.62-1.83,5,5,0,0,1,1.92-1.12,24.44,24.44,0,0,1,5.15-1.14,52.44,52.44,0,0,1,6.32-.37c6.05,0,10.54,1.28,13.52,3.75a12.37,12.37,0,0,1,4.49,10.07,11.25,11.25,0,0,1-2,6.77,14.78,14.78,0,0,1-4.9,4.39l-.46.25.31.42q2.4,3.27,4.73,6.13a38.92,38.92,0,0,1,3.61,5.12l.4-.23-.44-.13a5.82,5.82,0,0,1-2.25,3.31,6.29,6.29,0,0,1-3.68,1.14,8.21,8.21,0,0,1-2.39-.31,5.66,5.66,0,0,1-1.72-.86,7.4,7.4,0,0,1-1.37-1.37,19.26,19.26,0,0,1-1.23-1.82l-5.72-9.19h-.26ZM501.52,517l.35.3a7.72,7.72,0,0,1,6.26-2.79,7.58,7.58,0,0,1,6.25,2.81c1.52,1.87,2.32,4.75,2.32,8.68s-.81,6.87-2.35,8.74a7.69,7.69,0,0,1-6.29,2.82,7.6,7.6,0,0,1-6.22-2.82c-1.54-1.87-2.35-4.77-2.35-8.74s.82-6.86,2.38-8.7l-.35-.3-.35-.3c-1.77,2.1-2.6,5.21-2.6,9.3s.82,7.21,2.56,9.33a8.54,8.54,0,0,0,6.93,3.15,8.63,8.63,0,0,0,7-3.15c1.73-2.12,2.56-5.24,2.56-9.33s-.81-7.14-2.53-9.26a8.54,8.54,0,0,0-7-3.16,8.69,8.69,0,0,0-7,3.12Zm-12.85,18.1-.43.17a19.57,19.57,0,0,0,4.49,6.87,19.07,19.07,0,0,0,6.8,4.25,24.41,24.41,0,0,0,8.53,1.46,24.91,24.91,0,0,0,8.53-1.42,19.33,19.33,0,0,0,6.83-4.19,18.9,18.9,0,0,0,4.53-6.87,25.22,25.22,0,0,0,1.63-9.37,24.39,24.39,0,0,0-1.67-9.34,19.17,19.17,0,0,0-4.59-6.84,19.81,19.81,0,0,0-6.83-4.18,25.73,25.73,0,0,0-16.86,0,19,19,0,0,0-11.36,11,27.14,27.14,0,0,0,0,18.61l.43-.17.42-.17a24,24,0,0,1-1.56-8.93,23.61,23.61,0,0,1,1.6-9A18,18,0,0,1,500,506.55a24.69,24.69,0,0,1,16.22,0,18.83,18.83,0,0,1,6.52,4,18.25,18.25,0,0,1,4.37,6.51,23.61,23.61,0,0,1,1.59,9,24.3,24.3,0,0,1-1.56,9,18.19,18.19,0,0,1-4.3,6.54,18.46,18.46,0,0,1-6.52,4,23.93,23.93,0,0,1-8.21,1.37,23.47,23.47,0,0,1-8.21-1.4,18.17,18.17,0,0,1-6.48-4.05,18.91,18.91,0,0,1-4.28-6.55ZM454.73,506v-.46a6.19,6.19,0,0,0-6.64,6.64v28.89a8.32,8.32,0,0,0,.43,3,4.05,4.05,0,0,0,1.35,1.87,5.06,5.06,0,0,0,2.14.91,13.71,13.71,0,0,0,2.78.24,22.4,22.4,0,0,0,3.15-.2,18.31,18.31,0,0,0,2.35-.41l.34-.09V532.41H471.8a4.44,4.44,0,0,0,3.28-1.23,5.39,5.39,0,0,0,1.23-3.94,9,9,0,0,0-.39-2.66,6.92,6.92,0,0,0-1-2.06l-.14-.19H460.5v-6.59H474a4.43,4.43,0,0,0,3.28-1.23,5.53,5.53,0,0,0,1.23-4,9.61,9.61,0,0,0-.38-2.69,8.44,8.44,0,0,0-.89-2.07l-.13-.22H454.73v.92h22.11V506l-.39.25a7.08,7.08,0,0,1,.78,1.84,8.55,8.55,0,0,1,.35,2.43,4.67,4.67,0,0,1-1,3.36,3.54,3.54,0,0,1-2.63,1H459.58v8.43h15v-.46l-.38.27a5.76,5.76,0,0,1,.83,1.79,8.08,8.08,0,0,1,.35,2.39,4.57,4.57,0,0,1-1,3.29,3.54,3.54,0,0,1-2.63,1H459.71V546h.46l-.12-.45a17.94,17.94,0,0,1-2.23.39,23.93,23.93,0,0,1-3,.19,13.28,13.28,0,0,1-2.6-.22,4.41,4.41,0,0,1-1.77-.75,3.13,3.13,0,0,1-1-1.45,7.62,7.62,0,0,1-.37-2.63V512.16a5.29,5.29,0,0,1,5.72-5.72Zm-38.26,20.13h.46a4.61,4.61,0,0,0-1.23-3.42,4.67,4.67,0,0,0-3.41-1.23H401.06a4.4,4.4,0,0,0-3.14,1.19,5.1,5.1,0,0,0-1.24,3.79,9,9,0,0,0,.39,2.66,11,11,0,0,0,.8,2l.13.24h6.92v5.78h.46l-.23-.4a6.41,6.41,0,0,1-1.6.55,10.76,10.76,0,0,1-2.49.26,12.5,12.5,0,0,1-4.1-.68,9.26,9.26,0,0,1-3.35-2,9.57,9.57,0,0,1-2.32-3.49,13.69,13.69,0,0,1-.86-5.11c0-3.68,1.06-6.47,3.15-8.5a11.72,11.72,0,0,1,8.54-3.06,15,15,0,0,1,5.45.93,27.18,27.18,0,0,1,4.08,1.93l.25.14.24-.15a7.64,7.64,0,0,0,2.12-2.12,5.57,5.57,0,0,0,.94-3.25c0-2.36-1.38-4.3-3.92-5.69s-6-2.08-10.22-2.08a28.25,28.25,0,0,0-8.67,1.35,22.15,22.15,0,0,0-7.53,4.11,20.37,20.37,0,0,0-5.3,6.89,24.39,24.39,0,0,0-.17,19,19,19,0,0,0,5,6.7,20.88,20.88,0,0,0,7.44,4,30.52,30.52,0,0,0,9.1,1.32,32.65,32.65,0,0,0,3.67-.21,31.35,31.35,0,0,0,3.53-.57,25.85,25.85,0,0,0,3.12-.88,15.66,15.66,0,0,0,2.39-1.06,7.83,7.83,0,0,0,2.47-2.06,5.54,5.54,0,0,0,.82-3.32V526.11H416v13.55a4.77,4.77,0,0,1-.64,2.78,7.14,7.14,0,0,1-2.19,1.8,13.94,13.94,0,0,1-2.24,1,23.88,23.88,0,0,1-3,.85,34.8,34.8,0,0,1-3.44.56,33.11,33.11,0,0,1-3.57.19,29.64,29.64,0,0,1-8.83-1.27,19.9,19.9,0,0,1-7.11-3.83,18.09,18.09,0,0,1-4.76-6.38,23.58,23.58,0,0,1,.16-18.21,19.54,19.54,0,0,1,5.06-6.59,21.26,21.26,0,0,1,7.22-3.93,27.39,27.39,0,0,1,8.39-1.31c4.16,0,7.42.68,9.78,2s3.43,2.9,3.44,4.88a4.69,4.69,0,0,1-.78,2.73,6.71,6.71,0,0,1-1.86,1.86l.25.39.24-.4a28.22,28.22,0,0,0-4.23-2,16,16,0,0,0-5.78-1,12.57,12.57,0,0,0-9.18,3.32c-2.3,2.22-3.43,5.31-3.43,9.16a14.44,14.44,0,0,0,.93,5.45,10.4,10.4,0,0,0,2.54,3.82,10.12,10.12,0,0,0,3.68,2.22,13.06,13.06,0,0,0,4.4.73,11.73,11.73,0,0,0,2.7-.28,7.48,7.48,0,0,0,1.84-.64l.24-.14v-7h-7.57v.46l.41-.22a10.16,10.16,0,0,1-.73-1.84,8.13,8.13,0,0,1-.35-2.39,4.22,4.22,0,0,1,1-3.12,3.44,3.44,0,0,1,2.5-.94h11.23a3.37,3.37,0,0,1,3.72,3.73ZM365.8,510.7h.46c0-2.23-.52-3.83-1.73-4.67a8.42,8.42,0,0,0-4.71-1.11,22.12,22.12,0,0,0-3,.21,16.43,16.43,0,0,0-2.28.41l-.34.09v11.11q0,3.6.06,7.18t.34,7.2l.46,0-.09-.45-.34.06.09.46.43-.17c-.62-1.6-1.2-3-1.73-4.24s-1.13-2.52-1.8-3.9L345,509.43a6.86,6.86,0,0,0-3.82-3.72,15,15,0,0,0-4.83-.79,13,13,0,0,0-4.27.69,6.1,6.1,0,0,0-3.09,2.17l-.08.11v33.36a8.17,8.17,0,0,0,.43,2.86,4.27,4.27,0,0,0,1.27,1.81,4.39,4.39,0,0,0,2.07.9,15.37,15.37,0,0,0,2.67.2,20.7,20.7,0,0,0,3-.2,18.45,18.45,0,0,0,2.28-.41l.34-.09V535.67q0-3.58,0-7.31t-.3-7.33l-.46,0,.07.45.4-.06-.07-.46-.43.17c.62,1.6,1.2,3,1.73,4.23s1.14,2.53,1.8,3.91l6.58,13.42a6.88,6.88,0,0,0,3.85,3.75,15.17,15.17,0,0,0,4.8.75,16,16,0,0,0,4.34-.51,6.49,6.49,0,0,0,2.89-1.55l.14-.13V510.7h-.93v34.14h.47l-.33-.33a5.65,5.65,0,0,1-2.49,1.31,15.1,15.1,0,0,1-4.09.48,14.24,14.24,0,0,1-4.51-.7,6,6,0,0,1-3.32-3.29l-6.57-13.42c-.66-1.36-1.26-2.65-1.78-3.86s-1.11-2.61-1.72-4.2l-.14-.35-.77.12-.41.07,0,.42q.26,3.57.3,7.28t0,7.3V546h.46l-.12-.45a18.31,18.31,0,0,1-2.17.39,21.8,21.8,0,0,1-2.89.19,14.34,14.34,0,0,1-2.51-.19,3.52,3.52,0,0,1-1.65-.7,3.3,3.3,0,0,1-1-1.44,7,7,0,0,1-.37-2.52V508h-.46l.38.27a5.07,5.07,0,0,1,2.63-1.82,11.93,11.93,0,0,1,4-.64,13.92,13.92,0,0,1,4.53.73,6,6,0,0,1,3.29,3.26l6.64,13.42c.66,1.36,1.26,2.65,1.78,3.86s1.11,2.61,1.72,4.2l.14.36.72-.14.4-.08,0-.41q-.27-3.57-.34-7.14t-.06-7.17V506h-.46l.12.45a16.53,16.53,0,0,1,2.16-.39,22,22,0,0,1,2.9-.19,7.48,7.48,0,0,1,4.19.95c.82.54,1.33,1.79,1.32,3.9ZM289.52,517l.35.3a7.71,7.71,0,0,1,6.25-2.79,7.55,7.55,0,0,1,6.25,2.81c1.52,1.87,2.33,4.75,2.33,8.68s-.82,6.87-2.36,8.74a8.34,8.34,0,0,1-12.5,0c-1.54-1.87-2.35-4.77-2.35-8.74s.82-6.86,2.38-8.7l-.35-.3-.36-.3c-1.76,2.1-2.6,5.21-2.6,9.3s.83,7.21,2.57,9.33a8.54,8.54,0,0,0,6.93,3.15,8.63,8.63,0,0,0,7-3.15c1.73-2.12,2.56-5.24,2.56-9.33s-.82-7.14-2.53-9.26a8.54,8.54,0,0,0-7-3.16,8.71,8.71,0,0,0-7,3.12Zm-12.86,18.1-.42.17a19.57,19.57,0,0,0,4.49,6.87,19,19,0,0,0,6.8,4.25,24.41,24.41,0,0,0,8.53,1.46,24.81,24.81,0,0,0,8.52-1.42A18.69,18.69,0,0,0,316,535.41a25.42,25.42,0,0,0,1.62-9.37,24.58,24.58,0,0,0-1.66-9.34,19.3,19.3,0,0,0-4.59-6.84,19.76,19.76,0,0,0-6.84-4.18,25.7,25.7,0,0,0-16.85,0,19,19,0,0,0-11.36,11,27.14,27.14,0,0,0,0,18.61l.42-.17.43-.17a26.27,26.27,0,0,1,0-17.92A18,18,0,0,1,288,506.55a24.69,24.69,0,0,1,16.22,0,18.83,18.83,0,0,1,6.52,4,18.38,18.38,0,0,1,4.37,6.51,23.61,23.61,0,0,1,1.59,9,24.3,24.3,0,0,1-1.56,9,18.08,18.08,0,0,1-4.31,6.54,18.33,18.33,0,0,1-6.51,4,23.93,23.93,0,0,1-8.21,1.37,23.43,23.43,0,0,1-8.21-1.4,18.17,18.17,0,0,1-6.48-4.05,18.77,18.77,0,0,1-4.28-6.55Zm-13.28,11.29v.46a4.55,4.55,0,0,0,3.31-1.22,5.55,5.55,0,0,0,1.27-4.09,8.76,8.76,0,0,0-.42-2.7,8.9,8.9,0,0,0-.91-2.06l-.14-.21h-15V510.83a8.59,8.59,0,0,0-.43-2.95,4.05,4.05,0,0,0-1.35-1.87,5.29,5.29,0,0,0-2.15-.91,14.4,14.4,0,0,0-2.78-.24,22.72,22.72,0,0,0-3.12.23c-1.06.16-1.84.28-2.34.37l-.38.07v34.72a6.19,6.19,0,0,0,6.64,6.64h17.8V546h-17.8a5.28,5.28,0,0,1-5.71-5.72V505.92h-.47l.09.45c.47-.09,1.25-.21,2.31-.36a20.89,20.89,0,0,1,3-.23,13.94,13.94,0,0,1,2.6.22,4.46,4.46,0,0,1,1.78.75,3.13,3.13,0,0,1,1,1.45,7.66,7.66,0,0,1,.37,2.63v26.7h15.67v-.46l-.39.24a8.38,8.38,0,0,1,.81,1.86,7.74,7.74,0,0,1,.38,2.41,4.7,4.7,0,0,1-1,3.42,3.63,3.63,0,0,1-2.67,1Z"/><path class="cls-18" d="M1014.59,598.64l1.63-8a6.58,6.58,0,0,1,2-3.64,5.33,5.33,0,0,1,3.77-1.53h1l.49-2.3h-1a6.27,6.27,0,0,0-3.08.78,5.54,5.54,0,0,0-2.25,2.17l.55-2.68h-2.35l-3.12,15.19Zm-12.77-12.38A4.68,4.68,0,0,1,1005,585a3,3,0,0,1,2.6,1.25,5,5,0,0,1,.65,3.36h-8.41A7.25,7.25,0,0,1,1001.82,586.26Zm-4,10.45a4.73,4.73,0,0,0,4.33,2.17,7.87,7.87,0,0,0,4.63-1.39,6.8,6.8,0,0,0,2.71-3.73h-2.36a4,4,0,0,1-1.66,2.21,5.08,5.08,0,0,1-2.91.84,3,3,0,0,1-2.77-1.42,5,5,0,0,1-.41-3.7h10.8l.17-.78a7.84,7.84,0,0,0-.62-5.8,4.72,4.72,0,0,0-4.33-2.17,7.32,7.32,0,0,0-5.26,2.17,10.9,10.9,0,0,0-2.95,5.8A7.88,7.88,0,0,0,997.84,596.71ZM992,598.64,996.21,578h-2.35l-4.23,20.62Zm-6.82,0L989.39,578H987l-4.23,20.62Zm-14.61-6a5.66,5.66,0,0,1,2.39-.75l.59,0a7.81,7.81,0,0,0,3.8-1L976.9,593a4.34,4.34,0,0,1-1.87,2.74,5.69,5.69,0,0,1-3.33,1,2.72,2.72,0,0,1-1.83-.62,1.59,1.59,0,0,1-.63-1.59A2.91,2.91,0,0,1,970.56,592.67Zm-2.87,5a4.93,4.93,0,0,0,3.6,1.19,7.5,7.5,0,0,0,2.8-.51,5.82,5.82,0,0,0,2.32-1.53,2,2,0,0,0,.83,1.32,2.58,2.58,0,0,0,1.56.48h.93l.42-2.07a1.2,1.2,0,0,1-1-.48,1.22,1.22,0,0,1-.28-1.05l1.59-7.73a3.18,3.18,0,0,0-1.14-3.12,5.12,5.12,0,0,0-3.5-1.25,8,8,0,0,0-4.29,1.12,4.79,4.79,0,0,0-2.39,3.25l-.21,1h2.39l.1-.51a3.15,3.15,0,0,1,1.42-2.07,4.47,4.47,0,0,1,2.53-.74,2.62,2.62,0,0,1,2,.85,2.14,2.14,0,0,1,.59,2,2.17,2.17,0,0,1-1.52,1.6,12.19,12.19,0,0,1-2.67.47,10.59,10.59,0,0,0-4.4,1.29,5,5,0,0,0-2.49,3.32A3.33,3.33,0,0,0,967.69,597.69Zm-17.38-14.24-.45,2.07H952l-2.15,10.54a2,2,0,0,0,.45,1.8,2,2,0,0,0,1.66.78h2.12l.48-2.31h-1.35a.8.8,0,0,1-.66-.3.86.86,0,0,1-.17-.71l2-9.8h2.39l.45-2.07h-2.39l.9-4.41h-2.35l-.9,4.41Zm-16.69,13.49a4,4,0,0,0,3.53,1.94,7.33,7.33,0,0,0,2.88-.58,6,6,0,0,0,2.28-1.73l-.41,2.07h2.38l3.12-15.19H945l-1.87,9a5.63,5.63,0,0,1-1.76,3.12,4.86,4.86,0,0,1-3.29,1.25,2.69,2.69,0,0,1-2.39-1.39,4,4,0,0,1-.45-3l1.87-9h-2.36l-1.9,9.29A5.5,5.5,0,0,0,933.62,596.94Zm-12-10.68a4.68,4.68,0,0,1,3.15-1.25,3,3,0,0,1,2.6,1.25,4.92,4.92,0,0,1,.66,3.36h-8.41A7.16,7.16,0,0,1,921.57,586.26Zm-4,10.45a4.73,4.73,0,0,0,4.33,2.17,7.9,7.9,0,0,0,4.64-1.39,6.73,6.73,0,0,0,2.7-3.73h-2.35a4.06,4.06,0,0,1-1.67,2.21,5.07,5.07,0,0,1-2.9.84,3,3,0,0,1-2.77-1.42,5,5,0,0,1-.42-3.7H930l.18-.78a7.88,7.88,0,0,0-.63-5.8,4.71,4.71,0,0,0-4.33-2.17,7.33,7.33,0,0,0-5.26,2.17,10.82,10.82,0,0,0-2.94,5.8A7.84,7.84,0,0,0,917.59,596.71ZM905.27,587a4.56,4.56,0,0,1,3.56-1.73,2.84,2.84,0,0,1,2.7,1.84,6.16,6.16,0,0,1,.35,3.83,8.61,8.61,0,0,1-1.8,3.93,4.56,4.56,0,0,1-3.57,1.73,2.84,2.84,0,0,1-2.7-1.83,6.18,6.18,0,0,1-.34-3.83A8.65,8.65,0,0,1,905.27,587Zm-4.44,16.82,1.53-7.59a3.76,3.76,0,0,0,1.49,1.79,4.08,4.08,0,0,0,2.25.65,7.29,7.29,0,0,0,5.36-2.31,10.38,10.38,0,0,0,2.81-5.42,7.13,7.13,0,0,0-.83-5.26,4.6,4.6,0,0,0-4.19-2.47,5.56,5.56,0,0,0-2.63.67,6.84,6.84,0,0,0-2.08,1.77l.45-2.17h-2.35l-4.16,20.34Zm-25.58-5.15,1.94-9.53a4.36,4.36,0,0,1,1.66-2.68,4.89,4.89,0,0,1,3.08-1,3,3,0,0,1,2.46,1.15,2.94,2.94,0,0,1,.7,2.58l-1.94,9.53h2.38l1.94-9.53a4.85,4.85,0,0,0-1-4.1,4.49,4.49,0,0,0-3.74-1.83,7,7,0,0,0-2.66.51,5.35,5.35,0,0,0-2.11,1.55l.31-1.55h-2.36l-3,14.95Zm-14-12A5.18,5.18,0,0,1,865,585a3.37,3.37,0,0,1,3.12,1.62,6,6,0,0,1,.45,4.26,8.11,8.11,0,0,1-2.15,4.29,5.2,5.2,0,0,1-3.81,1.63,3.33,3.33,0,0,1-3.11-1.63,6.07,6.07,0,0,1-.42-4.29A7.87,7.87,0,0,1,861.2,586.63Zm-3.74,10.08a5.36,5.36,0,0,0,4.71,2.17,8.15,8.15,0,0,0,5.64-2.17,10.31,10.31,0,0,0,3.11-5.8c.49-2.42.22-4.35-.79-5.8a5.29,5.29,0,0,0-4.71-2.17,8,8,0,0,0-5.61,2.17,10.31,10.31,0,0,0-3.11,5.8Q856,594.54,857.46,596.71Zm-4.57-13.3h1.21l1.84-6.47h-2.57Zm-8.41,15.23L848.7,578h-2.35l-4.23,20.62ZM823.91,581h2.6l-1.35-5.66H822.6Zm-6.78,16a4,4,0,0,0,3.53,1.94,7.32,7.32,0,0,0,2.87-.58,5.93,5.93,0,0,0,2.29-1.73l-.42,2.07h2.39l3.12-15.19h-2.39l-1.87,9a5.64,5.64,0,0,1-1.77,3.12,4.83,4.83,0,0,1-3.29,1.25,2.71,2.71,0,0,1-2.39-1.39,4,4,0,0,1-.45-3l1.87-9h-2.35l-1.9,9.29A5.5,5.5,0,0,0,817.13,596.94Zm-13.37-10.31a5.21,5.21,0,0,1,3.78-1.62,3.34,3.34,0,0,1,3.11,1.62,5.86,5.86,0,0,1,.45,4.26,8,8,0,0,1-2.14,4.29,5.22,5.22,0,0,1-3.81,1.63,3.36,3.36,0,0,1-3.12-1.63,6.13,6.13,0,0,1-.41-4.29A7.86,7.86,0,0,1,803.76,586.63ZM800,596.71a5.39,5.39,0,0,0,4.71,2.17,8.18,8.18,0,0,0,5.65-2.17,10.31,10.31,0,0,0,3.11-5.8c.49-2.42.22-4.35-.79-5.8a5.32,5.32,0,0,0-4.71-2.17,8,8,0,0,0-5.61,2.17,10.38,10.38,0,0,0-3.12,5.8Q798.54,594.54,800,596.71Zm-4.56-13.3h1.21l1.83-6.47h-2.56Zm-19.08,13.53a4,4,0,0,0,3.53,1.94,7.33,7.33,0,0,0,2.88-.58,6,6,0,0,0,2.28-1.73l-.41,2.07H787l3.12-15.19h-2.39l-1.87,9a5.63,5.63,0,0,1-1.76,3.12,4.86,4.86,0,0,1-3.29,1.25,2.69,2.69,0,0,1-2.39-1.39,4,4,0,0,1-.45-3l1.87-9h-2.36l-1.9,9.29A5.5,5.5,0,0,0,776.38,596.94Zm-13.5-10a4.45,4.45,0,0,1,3.53-1.74,2.85,2.85,0,0,1,2.7,1.84,6,6,0,0,1,.38,3.81,8.68,8.68,0,0,1-1.8,4,4.66,4.66,0,0,1-3.6,1.73,2.78,2.78,0,0,1-2.67-1.84,6.27,6.27,0,0,1-.34-3.84A8.39,8.39,0,0,1,762.88,587Zm-3.36,9.18a4.57,4.57,0,0,0,4.15,2.48,5.64,5.64,0,0,0,2.64-.68,7,7,0,0,0,2.07-1.76l-1.52,7.59h2.39l4.15-20.34H771l-.46,2.17a3.77,3.77,0,0,0-1.48-1.8,4.07,4.07,0,0,0-2.25-.64,7.31,7.31,0,0,0-5.34,2.3,10.61,10.61,0,0,0-2.77,5.43A7.2,7.2,0,0,0,759.52,596.16Zm-15,.92a5.54,5.54,0,0,0,4.26,1.52,7.83,7.83,0,0,0,4.5-1.25,5.12,5.12,0,0,0,2.25-3.36,3.38,3.38,0,0,0-1-3.15,5,5,0,0,0-3.29-1.49,6.35,6.35,0,0,1-2.56-.68,1.6,1.6,0,0,1-.94-1.76,2.53,2.53,0,0,1,1.11-1.6,4.25,4.25,0,0,1,2.25-.57,3,3,0,0,1,2.32.84,2.47,2.47,0,0,1,.49,2.24h2.35a4.08,4.08,0,0,0-.83-3.73,5,5,0,0,0-3.91-1.42,7.1,7.1,0,0,0-4.09,1.15,4.69,4.69,0,0,0-2,3.08,3.34,3.34,0,0,0,.87,3,4.32,4.32,0,0,0,3,1.45,6.22,6.22,0,0,1,2.84.85,2,2,0,0,1,1,2.1,2.41,2.41,0,0,1-1.35,1.59,5.87,5.87,0,0,1-2.81.61A2.73,2.73,0,0,1,746,593h-2.36A4.47,4.47,0,0,0,744.56,597.08Zm-16.06-.14a4,4,0,0,0,3.53,1.94,7.33,7.33,0,0,0,2.88-.58,6,6,0,0,0,2.28-1.73l-.41,2.07h2.38l3.12-15.19h-2.39l-1.87,9a5.63,5.63,0,0,1-1.76,3.12,4.86,4.86,0,0,1-3.29,1.25,2.69,2.69,0,0,1-2.39-1.39,4,4,0,0,1-.45-3l1.87-9h-2.36l-1.9,9.29A5.5,5.5,0,0,0,728.5,596.94Zm-2.35-16.61.48-2.31h-2.39l-.48,2.31Zm-8.73,23.46a4.66,4.66,0,0,0,3.05-1.08,4.88,4.88,0,0,0,1.66-2.78l3.43-16.75h-2.39l-3.43,16.75a1.75,1.75,0,0,1-.66,1.08,1.77,1.77,0,0,1-1.21.44h-1.31l-.45,2.34Zm-16-5.15,1.63-8a6.58,6.58,0,0,1,2-3.64,5.33,5.33,0,0,1,3.77-1.53h1l.49-2.3h-1a6.27,6.27,0,0,0-3.08.78,5.54,5.54,0,0,0-2.25,2.17l.55-2.68h-2.35l-3.12,15.19Zm-3.08-18.31.49-2.31h-2.35l-.49,2.31Zm-3.74,18.31,3.16-15.46h-2.36l-3.15,15.46Zm-14.08-12a5.18,5.18,0,0,1,3.77-1.62,3.37,3.37,0,0,1,3.12,1.62,6,6,0,0,1,.45,4.26,8.11,8.11,0,0,1-2.15,4.29,5.22,5.22,0,0,1-3.81,1.63,3.36,3.36,0,0,1-3.12-1.63,6.13,6.13,0,0,1-.41-4.29A7.81,7.81,0,0,1,680.56,586.63Zm-3.74,10.08a5.36,5.36,0,0,0,4.7,2.17,8.18,8.18,0,0,0,5.65-2.17,10.31,10.31,0,0,0,3.11-5.8c.49-2.42.22-4.35-.79-5.8a5.29,5.29,0,0,0-4.71-2.17,8,8,0,0,0-5.61,2.17,10.38,10.38,0,0,0-3.12,5.8C675.57,593.33,675.82,595.26,676.82,596.71Zm-12.36,1.93h2.63l8.38-15.19h-2.39l-6.72,12.1-1.7-12.1h-2.35Zm-16-6a5.66,5.66,0,0,1,2.39-.75l.59,0a7.81,7.81,0,0,0,3.8-1l-.45,2.07a4.27,4.27,0,0,1-1.87,2.74,5.64,5.64,0,0,1-3.32,1,2.72,2.72,0,0,1-1.83-.62,1.59,1.59,0,0,1-.63-1.59A2.91,2.91,0,0,1,648.43,592.67Zm-2.88,5a5,5,0,0,0,3.61,1.19,7.5,7.5,0,0,0,2.8-.51,5.82,5.82,0,0,0,2.32-1.53,2,2,0,0,0,.83,1.32,2.58,2.58,0,0,0,1.56.48h.93l.42-2.07a1.23,1.23,0,0,1-1-.48,1.25,1.25,0,0,1-.27-1.05l1.59-7.73a3.18,3.18,0,0,0-1.14-3.12,5.12,5.12,0,0,0-3.5-1.25,8,8,0,0,0-4.29,1.12,4.79,4.79,0,0,0-2.39,3.25l-.21,1h2.39l.1-.51a3.12,3.12,0,0,1,1.42-2.07,4.47,4.47,0,0,1,2.53-.74,2.62,2.62,0,0,1,2,.85,2.14,2.14,0,0,1,.59,2,2.17,2.17,0,0,1-1.53,1.6,12,12,0,0,1-2.66.47,10.59,10.59,0,0,0-4.4,1.29,5,5,0,0,0-2.49,3.32A3.36,3.36,0,0,0,645.55,597.69Zm-14.09-.61a5.54,5.54,0,0,0,4.26,1.52,7.83,7.83,0,0,0,4.5-1.25,5.12,5.12,0,0,0,2.25-3.36,3.38,3.38,0,0,0-1-3.15,5,5,0,0,0-3.29-1.49,6.35,6.35,0,0,1-2.56-.68,1.58,1.58,0,0,1-.94-1.76,2.53,2.53,0,0,1,1.11-1.6,4.23,4.23,0,0,1,2.25-.57,3,3,0,0,1,2.32.84,2.47,2.47,0,0,1,.49,2.24h2.35a4.08,4.08,0,0,0-.83-3.73,5,5,0,0,0-3.91-1.42,7.1,7.1,0,0,0-4.09,1.15,4.69,4.69,0,0,0-2,3.08,3.36,3.36,0,0,0,.86,3,4.36,4.36,0,0,0,3,1.45,6.22,6.22,0,0,1,2.84.85,2,2,0,0,1,1,2.1,2.41,2.41,0,0,1-1.35,1.59,5.87,5.87,0,0,1-2.81.61,2.73,2.73,0,0,1-2.94-3.56h-2.36A4.47,4.47,0,0,0,631.46,597.08Zm-21.22-10.82a4.68,4.68,0,0,1,3.15-1.25,3,3,0,0,1,2.6,1.25,4.92,4.92,0,0,1,.66,3.36h-8.42A7.25,7.25,0,0,1,610.24,586.26Zm-4,10.45a4.73,4.73,0,0,0,4.33,2.17,7.9,7.9,0,0,0,4.64-1.39,6.73,6.73,0,0,0,2.7-3.73h-2.35a4.06,4.06,0,0,1-1.67,2.21,5.08,5.08,0,0,1-2.91.84,3,3,0,0,1-2.77-1.42,5.07,5.07,0,0,1-.41-3.7h10.8l.17-.78a7.84,7.84,0,0,0-.62-5.8,4.71,4.71,0,0,0-4.33-2.17,7.33,7.33,0,0,0-5.26,2.17,10.82,10.82,0,0,0-2.94,5.8A7.84,7.84,0,0,0,606.26,596.71ZM593,587a4.47,4.47,0,0,1,3.53-1.73,2.8,2.8,0,0,1,2.7,1.84,6.08,6.08,0,0,1,.39,3.83,8.62,8.62,0,0,1-1.84,4,4.51,4.51,0,0,1-3.6,1.8,2.75,2.75,0,0,1-2.67-1.87,6.36,6.36,0,0,1-.31-3.93A8.65,8.65,0,0,1,593,587Zm-3.39,9.36a4.5,4.5,0,0,0,4.15,2.55,5,5,0,0,0,2.63-.78,8,8,0,0,0,2.12-1.9l-.49,2.44h2.39L604.64,578h-2.39l-1.56,7.6a3.79,3.79,0,0,0-1.49-1.8,4.07,4.07,0,0,0-2.25-.64,7.29,7.29,0,0,0-5.33,2.3,10.54,10.54,0,0,0-2.77,5.43A7.67,7.67,0,0,0,589.61,596.33Zm-25.72,2.31,1.94-9.53a4.31,4.31,0,0,1,1.66-2.68,4.87,4.87,0,0,1,3.08-1,3.05,3.05,0,0,1,2.46,1.15,3,3,0,0,1,.69,2.58l-1.94,9.53h2.39l1.94-9.53a4.85,4.85,0,0,0-1-4.1,4.51,4.51,0,0,0-3.74-1.83,7,7,0,0,0-2.67.51,5.5,5.5,0,0,0-2.11,1.55l.31-1.55h-2.35l-3.05,14.95Zm-12.74-12.38A4.65,4.65,0,0,1,554.3,585a3,3,0,0,1,2.59,1.25,4.92,4.92,0,0,1,.66,3.36h-8.41A7.09,7.09,0,0,1,551.15,586.26Zm-4,10.45a4.74,4.74,0,0,0,4.33,2.17,7.88,7.88,0,0,0,4.64-1.39,6.73,6.73,0,0,0,2.7-3.73h-2.35a4,4,0,0,1-1.66,2.21,5.08,5.08,0,0,1-2.91.84,3,3,0,0,1-2.77-1.42,5,5,0,0,1-.42-3.7h10.81l.17-.78c.48-2.42.28-4.35-.63-5.8a4.7,4.7,0,0,0-4.32-2.17,7.34,7.34,0,0,0-5.27,2.17,11,11,0,0,0-2.94,5.8C546.06,593.33,546.26,595.26,547.16,596.71Zm-12.46,1.93a8.12,8.12,0,0,1-1.42,2.13,2.87,2.87,0,0,1-2.11,1h-1.59l-.42,2.07h1.59a5.54,5.54,0,0,0,2.74-.68,4.75,4.75,0,0,0,2-1.9L546,583.45H543.6l-7.13,12.24-2.63-12.24h-2.36Zm-16.51-12A5.18,5.18,0,0,1,522,585a3.37,3.37,0,0,1,3.12,1.62,6,6,0,0,1,.45,4.26,8,8,0,0,1-2.15,4.29,5.19,5.19,0,0,1-3.81,1.63,3.33,3.33,0,0,1-3.11-1.63,6.07,6.07,0,0,1-.42-4.29A7.87,7.87,0,0,1,518.19,586.63Zm-3.74,10.08a5.36,5.36,0,0,0,4.71,2.17,8.13,8.13,0,0,0,5.64-2.17,10.38,10.38,0,0,0,3.12-5.8c.48-2.42.22-4.35-.8-5.8a5.29,5.29,0,0,0-4.71-2.17,8,8,0,0,0-5.61,2.17,10.31,10.31,0,0,0-3.11,5.8A7.39,7.39,0,0,0,514.45,596.71Zm-23.34,1.93,2.12-10.31a3.65,3.65,0,0,1,1.42-2.24,4.31,4.31,0,0,1,2.63-.85,2.62,2.62,0,0,1,2.56,3.09l-2.11,10.31h2.35l2.11-10.31a3.87,3.87,0,0,1,1.32-2.2,3.74,3.74,0,0,1,2.46-.89,2.55,2.55,0,0,1,2,1,2.48,2.48,0,0,1,.51,2.14l-2.11,10.31h2.39l2.11-10.31a3.88,3.88,0,0,0-1-3.59,4.42,4.42,0,0,0-3.5-1.56,6.43,6.43,0,0,0-2.63.57,7.53,7.53,0,0,0-2.25,1.49,3.78,3.78,0,0,0-1.59-1.55,4.83,4.83,0,0,0-2.22-.51,5.58,5.58,0,0,0-1.94.34,5,5,0,0,0-1.73,1l.14-.78h-2.35l-3.05,14.95Zm-22.6-12.38a4.65,4.65,0,0,1,3.15-1.25,3,3,0,0,1,2.6,1.25,5,5,0,0,1,.65,3.36H466.5A7.17,7.17,0,0,1,468.51,586.26Zm-4,10.45a4.72,4.72,0,0,0,4.32,2.17,7.88,7.88,0,0,0,4.64-1.39,6.73,6.73,0,0,0,2.7-3.73h-2.35a4,4,0,0,1-1.66,2.21,5.08,5.08,0,0,1-2.91.84,3,3,0,0,1-2.77-1.42,5,5,0,0,1-.42-3.7h10.81l.17-.78c.48-2.42.28-4.35-.62-5.8a4.72,4.72,0,0,0-4.33-2.17,7.32,7.32,0,0,0-5.26,2.17,10.9,10.9,0,0,0-3,5.8A7.88,7.88,0,0,0,464.53,596.71Zm-16.52.23a4,4,0,0,0,3.53,1.94,7.33,7.33,0,0,0,2.88-.58,6,6,0,0,0,2.28-1.73l-.41,2.07h2.39l3.11-15.19H459.4l-1.87,9a5.63,5.63,0,0,1-1.76,3.12,4.84,4.84,0,0,1-3.29,1.25,2.7,2.7,0,0,1-2.39-1.39,4,4,0,0,1-.45-3l1.87-9h-2.36l-1.9,9.29A5.5,5.5,0,0,0,448,596.94Zm-13.5-10a4.45,4.45,0,0,1,3.53-1.74,2.84,2.84,0,0,1,2.7,1.84,6,6,0,0,1,.38,3.81,8.68,8.68,0,0,1-1.8,4,4.65,4.65,0,0,1-3.6,1.73,2.76,2.76,0,0,1-2.66-1.84,6.2,6.2,0,0,1-.35-3.84A8.39,8.39,0,0,1,434.51,587Zm-3.36,9.18a4.59,4.59,0,0,0,4.16,2.48,5.6,5.6,0,0,0,2.63-.68A7.08,7.08,0,0,0,440,596.2l-1.53,7.59h2.39L445,583.45h-2.39l-.45,2.17a3.79,3.79,0,0,0-1.49-1.8,4.07,4.07,0,0,0-2.25-.64,7.29,7.29,0,0,0-5.33,2.3,10.54,10.54,0,0,0-2.77,5.43A7.15,7.15,0,0,0,431.15,596.16ZM429,580.33l.49-2.31H427.1l-.48,2.31Zm-3.74,18.31,3.15-15.46H426l-3.15,15.46Zm-16.75,0,1.94-9.53a4.31,4.31,0,0,1,1.66-2.68,4.87,4.87,0,0,1,3.08-1,3,3,0,0,1,2.46,1.15,3,3,0,0,1,.69,2.58l-1.94,9.53h2.39l1.94-9.53a4.85,4.85,0,0,0-1-4.1,4.51,4.51,0,0,0-3.74-1.83,7,7,0,0,0-2.67.51,5.5,5.5,0,0,0-2.11,1.55l.31-1.55h-2.35l-3.05,14.95ZM391,596.94a4,4,0,0,0,3.53,1.94,7.29,7.29,0,0,0,2.87-.58,5.93,5.93,0,0,0,2.29-1.73l-.42,2.07h2.39l3.12-15.19h-2.39l-1.87,9a5.59,5.59,0,0,1-1.77,3.12,4.82,4.82,0,0,1-3.28,1.25,2.69,2.69,0,0,1-2.39-1.39,3.91,3.91,0,0,1-.45-3l1.87-9h-2.36l-1.9,9.29A5.5,5.5,0,0,0,391,596.94Zm-4.71-13.53h1.21l1.84-6.47h-2.56Zm-6.82,15.23.49-2.31H368.94L372.68,578h-2.63l-4.22,20.62Zm-18.38-14.45h2.77l.52-2.54h-1a4.18,4.18,0,0,1,.8-1.88,1.53,1.53,0,0,1,1.21-.72l-.35-1a2.81,2.81,0,0,0-2.11,1,5.09,5.09,0,0,0-1.28,2.58Zm-4.57,0h2.77l.52-2.54h-1a4.51,4.51,0,0,1,.76-1.88,1.43,1.43,0,0,1,1.11-.72l-.21-1a2.81,2.81,0,0,0-2.11,1,5.09,5.09,0,0,0-1.28,2.58Z"/><path class="cls-18" d="M978.33,613.32a4.17,4.17,0,0,1-.8,1.89,1.53,1.53,0,0,1-1.17.72l.34,1a2.87,2.87,0,0,0,2.11-1,5.21,5.21,0,0,0,1.25-2.58l.56-2.57h-2.77l-.56,2.54Zm-5.12,0a4.29,4.29,0,0,1-.8,1.89,1.53,1.53,0,0,1-1.18.72l.35,1a2.89,2.89,0,0,0,2.11-1,5.3,5.3,0,0,0,1.25-2.58l.55-2.57h-2.77l-.55,2.54Zm-9.59,18.07.55-2.71H961.4l-.55,2.71Zm-11.46,0,1.63-8a6.54,6.54,0,0,1,2-3.63,5.37,5.37,0,0,1,3.78-1.53h1l.48-2.31h-1a6.29,6.29,0,0,0-3.08.78,5.54,5.54,0,0,0-2.25,2.17l.55-2.68h-2.35l-3.12,15.19ZM939.38,619a4.65,4.65,0,0,1,3.15-1.26,3,3,0,0,1,2.6,1.26,4.87,4.87,0,0,1,.66,3.35h-8.41A7.07,7.07,0,0,1,939.38,619Zm-4,10.44a4.71,4.71,0,0,0,4.33,2.17,7.83,7.83,0,0,0,4.64-1.39,6.73,6.73,0,0,0,2.7-3.73h-2.35a4,4,0,0,1-1.67,2.21,5.07,5.07,0,0,1-2.9.84,3,3,0,0,1-2.77-1.41,5,5,0,0,1-.42-3.71h10.8l.18-.78a7.88,7.88,0,0,0-.63-5.8,4.73,4.73,0,0,0-4.33-2.17,7.38,7.38,0,0,0-5.26,2.17,10.82,10.82,0,0,0-2.94,5.8A7.84,7.84,0,0,0,935.4,629.46Zm-15.06,1.93,2.11-10.33.52-.51c1.6-1.54,2.92-2.31,4-2.31a2.75,2.75,0,0,1,2,.85,2.15,2.15,0,0,1,.59,2l-2.12,10.33h2.36l2.11-10.31a4.16,4.16,0,0,0-.9-3.56,4.06,4.06,0,0,0-3.32-1.59,6,6,0,0,0-2.5.57,8,8,0,0,0-2.14,1.47l1.49-7.19h-2.36L918,631.39Zm-16.75-1.93a5,5,0,0,0,4.5,2.17A7.57,7.57,0,0,0,912.9,630a8.07,8.07,0,0,0,2.91-4.27h-2.36a5.35,5.35,0,0,1-1.87,2.79,4.92,4.92,0,0,1-3.08,1,3,3,0,0,1-2.91-1.62,6.34,6.34,0,0,1-.38-4.3,8.16,8.16,0,0,1,2.08-4.26,4.86,4.86,0,0,1,3.6-1.62,3.62,3.62,0,0,1,2.7,1,3.1,3.1,0,0,1,.76,2.62h2.36a4.92,4.92,0,0,0-1.18-4.11,5.51,5.51,0,0,0-4.19-1.56,7.7,7.7,0,0,0-5.43,2.17,10.48,10.48,0,0,0-3,5.8A7.48,7.48,0,0,0,903.59,629.46Zm-10.15,1.93,1.63-8a6.55,6.55,0,0,1,2-3.63,5.33,5.33,0,0,1,3.77-1.53h1l.49-2.31h-1a6.33,6.33,0,0,0-3.09.78,5.6,5.6,0,0,0-2.25,2.17l.56-2.68H894.2l-3.11,15.19Zm-14.61-6a5.7,5.7,0,0,1,2.39-.74l.59,0a7.78,7.78,0,0,0,3.81-1l-.45,2.07a4.28,4.28,0,0,1-1.87,2.75,5.75,5.75,0,0,1-3.32,1,2.74,2.74,0,0,1-1.84-.61,1.59,1.59,0,0,1-.62-1.59A2.92,2.92,0,0,1,878.83,625.42Zm-2.87,5a5,5,0,0,0,3.6,1.19,7.46,7.46,0,0,0,2.8-.51,5.75,5.75,0,0,0,2.32-1.53,2,2,0,0,0,.84,1.33,2.59,2.59,0,0,0,1.55.47H888l.41-2.07a1.2,1.2,0,0,1-1-.47,1.27,1.27,0,0,1-.28-1.05l1.6-7.73a3.17,3.17,0,0,0-1.15-3.12,5.06,5.06,0,0,0-3.49-1.26,8.18,8.18,0,0,0-4.3,1.12,4.84,4.84,0,0,0-2.39,3.26l-.2,1h2.38l.11-.5a3.08,3.08,0,0,1,1.42-2.07,4.41,4.41,0,0,1,2.53-.75,2.62,2.62,0,0,1,2,.85,2.12,2.12,0,0,1-.93,3.56,12.19,12.19,0,0,1-2.67.47,10.55,10.55,0,0,0-4.39,1.29,5,5,0,0,0-2.5,3.33A3.35,3.35,0,0,0,876,630.44Zm-22.43.95,2.11-10.31a3.65,3.65,0,0,1,1.42-2.23,4.27,4.27,0,0,1,2.63-.85,2.44,2.44,0,0,1,2,1,2.41,2.41,0,0,1,.55,2.13l-2.11,10.31h2.35l2.11-10.31a3.9,3.9,0,0,1,1.32-2.2,3.77,3.77,0,0,1,2.46-.88,2.57,2.57,0,0,1,2.53,3.08l-2.12,10.31h2.39l2.11-10.31a3.89,3.89,0,0,0-1-3.59,4.4,4.4,0,0,0-3.5-1.56,6.28,6.28,0,0,0-2.63.58,7.35,7.35,0,0,0-2.25,1.49,3.69,3.69,0,0,0-1.59-1.56,4.83,4.83,0,0,0-2.22-.51,5.58,5.58,0,0,0-1.94.34,5,5,0,0,0-1.73,1l.14-.78h-2.35l-3.05,14.95ZM830.92,619a4.61,4.61,0,0,1,3.15-1.26,3,3,0,0,1,2.6,1.26,4.93,4.93,0,0,1,.65,3.35h-8.41A7.17,7.17,0,0,1,830.92,619Zm-4,10.44a4.7,4.7,0,0,0,4.32,2.17,7.81,7.81,0,0,0,4.64-1.39,6.73,6.73,0,0,0,2.7-3.73h-2.35a4,4,0,0,1-1.66,2.21,5.08,5.08,0,0,1-2.91.84,3,3,0,0,1-2.77-1.41,5,5,0,0,1-.41-3.71h10.8l.17-.78a7.84,7.84,0,0,0-.62-5.8,4.74,4.74,0,0,0-4.33-2.17,7.36,7.36,0,0,0-5.26,2.17,10.9,10.9,0,0,0-3,5.8A7.88,7.88,0,0,0,826.94,629.46Zm-13.26-9.73a4.46,4.46,0,0,1,3.53-1.73,2.79,2.79,0,0,1,2.7,1.83,6,6,0,0,1,.38,3.83,8.47,8.47,0,0,1-1.83,4,4.54,4.54,0,0,1-3.6,1.8,2.73,2.73,0,0,1-2.67-1.87,6.36,6.36,0,0,1-.31-3.93A8.61,8.61,0,0,1,813.68,619.73Zm-3.39,9.36a4.51,4.51,0,0,0,4.15,2.54,5,5,0,0,0,2.63-.78,7.78,7.78,0,0,0,2.11-1.9l-.48,2.44h2.39l4.22-20.61h-2.39l-1.56,7.59a3.87,3.87,0,0,0-1.48-1.8,4.16,4.16,0,0,0-2.25-.64,7.28,7.28,0,0,0-5.34,2.31,10.54,10.54,0,0,0-2.77,5.42A7.71,7.71,0,0,0,810.29,629.09ZM792,616.2l-.45,2.07h2.11l-2.14,10.54a2,2,0,0,0,.45,1.8,2,2,0,0,0,1.66.78h2.11l.49-2.3h-1.35a.81.81,0,0,1-.66-.31.89.89,0,0,1-.18-.71l2-9.8h2.39l.45-2.07h-2.39l.9-4.41h-2.36l-.9,4.41Zm-12,2.82a4.65,4.65,0,0,1,3.15-1.26,3,3,0,0,1,2.6,1.26,4.87,4.87,0,0,1,.66,3.35h-8.41A7.07,7.07,0,0,1,780.06,619Zm-4,10.44a4.71,4.71,0,0,0,4.33,2.17,7.83,7.83,0,0,0,4.64-1.39,6.73,6.73,0,0,0,2.7-3.73H785.4a4,4,0,0,1-1.67,2.21,5.07,5.07,0,0,1-2.9.84,3,3,0,0,1-2.77-1.41,5,5,0,0,1-.42-3.71h10.8l.18-.78a7.88,7.88,0,0,0-.63-5.8,4.73,4.73,0,0,0-4.33-2.17,7.38,7.38,0,0,0-5.26,2.17,10.82,10.82,0,0,0-2.94,5.8A7.84,7.84,0,0,0,776.08,629.46ZM754.41,619a4.65,4.65,0,0,1,3.15-1.26,3,3,0,0,1,2.6,1.26,5,5,0,0,1,.66,3.35H752.4A7.17,7.17,0,0,1,754.41,619Zm-4,10.44a4.71,4.71,0,0,0,4.33,2.17,7.85,7.85,0,0,0,4.64-1.39,6.83,6.83,0,0,0,2.7-3.73h-2.36a4,4,0,0,1-1.66,2.21,5.08,5.08,0,0,1-2.91.84,3,3,0,0,1-2.77-1.41,5,5,0,0,1-.41-3.71h10.8l.17-.78a7.84,7.84,0,0,0-.62-5.8,4.73,4.73,0,0,0-4.33-2.17,7.36,7.36,0,0,0-5.26,2.17,10.9,10.9,0,0,0-3,5.8A7.88,7.88,0,0,0,750.43,629.46Zm-8.31-13.26-.45,2.07h2.11l-2.14,10.54a2,2,0,0,0,.45,1.8,2,2,0,0,0,1.66.78h2.11l.49-2.3H745a.8.8,0,0,1-.65-.31.85.85,0,0,1-.18-.71l2-9.8h2.39l.45-2.07h-2.39l.9-4.41h-2.36l-.9,4.41Zm-16.69,13.5a4.06,4.06,0,0,0,3.54,1.93,7.15,7.15,0,0,0,2.87-.58,5.87,5.87,0,0,0,2.28-1.73l-.41,2.07h2.39l3.11-15.19h-2.38l-1.87,9a5.64,5.64,0,0,1-1.77,3.11,4.84,4.84,0,0,1-3.29,1.25,2.68,2.68,0,0,1-2.39-1.39,4,4,0,0,1-.45-3l1.87-9h-2.35l-1.91,9.29A5.57,5.57,0,0,0,725.43,629.7Zm-13.36-10.32a5.2,5.2,0,0,1,3.78-1.62,3.35,3.35,0,0,1,3.11,1.62,5.86,5.86,0,0,1,.45,4.26,8.07,8.07,0,0,1-2.15,4.3,5.21,5.21,0,0,1-3.8,1.62,3.36,3.36,0,0,1-3.12-1.62,6.21,6.21,0,0,1-.42-4.3A7.94,7.94,0,0,1,712.07,619.38Zm-3.74,10.08a5.36,5.36,0,0,0,4.71,2.17,8.09,8.09,0,0,0,5.64-2.17,10.26,10.26,0,0,0,3.12-5.8c.48-2.42.22-4.35-.8-5.8a5.32,5.32,0,0,0-4.71-2.17,8,8,0,0,0-5.6,2.17,10.26,10.26,0,0,0-3.12,5.8Q706.85,627.29,708.33,629.46Zm-10.18,1.93,1.63-8a6.55,6.55,0,0,1,2-3.63,5.33,5.33,0,0,1,3.77-1.53h1l.49-2.31h-1a6.27,6.27,0,0,0-3.08.78,5.54,5.54,0,0,0-2.25,2.17l.55-2.68h-2.35l-3.12,15.19Zm-26.62,0,1.94-9.53a4.34,4.34,0,0,1,1.66-2.67,4.9,4.9,0,0,1,3.08-1.06,3,3,0,0,1,2.46,1.16,2.87,2.87,0,0,1,.69,2.57l-1.93,9.53h2.38l1.94-9.53a4.85,4.85,0,0,0-1-4.1,4.49,4.49,0,0,0-3.74-1.83,7,7,0,0,0-2.66.51,5.28,5.28,0,0,0-2.11,1.56l.31-1.56h-2.36l-3,14.95ZM658.79,619a4.65,4.65,0,0,1,3.15-1.26,3,3,0,0,1,2.6,1.26,4.87,4.87,0,0,1,.66,3.35h-8.42A7.17,7.17,0,0,1,658.79,619Zm-4,10.44a4.71,4.71,0,0,0,4.33,2.17,7.85,7.85,0,0,0,4.64-1.39,6.73,6.73,0,0,0,2.7-3.73h-2.36a4,4,0,0,1-1.66,2.21,5.08,5.08,0,0,1-2.91.84,3,3,0,0,1-2.77-1.41,5.1,5.1,0,0,1-.41-3.71h10.8l.17-.78a7.84,7.84,0,0,0-.62-5.8,4.73,4.73,0,0,0-4.33-2.17,7.36,7.36,0,0,0-5.26,2.17,10.82,10.82,0,0,0-2.94,5.8A7.84,7.84,0,0,0,654.81,629.46ZM633.14,619a4.63,4.63,0,0,1,3.15-1.26,3,3,0,0,1,2.6,1.26,4.93,4.93,0,0,1,.65,3.35h-8.41A7.17,7.17,0,0,1,633.14,619Zm-4,10.44a4.71,4.71,0,0,0,4.33,2.17,7.8,7.8,0,0,0,4.63-1.39,6.8,6.8,0,0,0,2.71-3.73h-2.36a4,4,0,0,1-1.66,2.21,5.08,5.08,0,0,1-2.91.84,3,3,0,0,1-2.77-1.41,5,5,0,0,1-.41-3.71h10.8l.17-.78a7.84,7.84,0,0,0-.62-5.8,4.74,4.74,0,0,0-4.33-2.17,7.36,7.36,0,0,0-5.26,2.17,10.9,10.9,0,0,0-3,5.8A7.88,7.88,0,0,0,629.16,629.46Zm-10.08,1.93,1.63-8a6.55,6.55,0,0,1,2-3.63,5.33,5.33,0,0,1,3.77-1.53h1l.49-2.31h-1a6.27,6.27,0,0,0-3.08.78,5.54,5.54,0,0,0-2.25,2.17l.55-2.68h-2.35l-3.12,15.19Zm-9.27-15.19-.45,2.07h2.11l-2.15,10.54a2,2,0,0,0,.45,1.8,2,2,0,0,0,1.66.78h2.12l.48-2.3h-1.35a.81.81,0,0,1-.66-.31.85.85,0,0,1-.17-.71l2-9.8h2.39l.45-2.07h-2.39l.9-4.41h-2.35l-.9,4.41Zm-8.49,0-.45,2.07H603l-2.15,10.54a2,2,0,0,0,.45,1.8,2,2,0,0,0,1.66.78h2.11l.49-2.3H604.2a.81.81,0,0,1-.66-.31.85.85,0,0,1-.17-.71l2-9.8h2.39l.45-2.07h-2.39l.9-4.41h-2.35l-.9,4.41Zm-12,2.82a4.61,4.61,0,0,1,3.15-1.26,3,3,0,0,1,2.59,1.26,4.87,4.87,0,0,1,.66,3.35h-8.41A7,7,0,0,1,589.35,619Zm-4,10.44a4.7,4.7,0,0,0,4.32,2.17,7.81,7.81,0,0,0,4.64-1.39,6.73,6.73,0,0,0,2.7-3.73h-2.35a4,4,0,0,1-1.66,2.21,5.08,5.08,0,0,1-2.91.84,3,3,0,0,1-2.77-1.41,5,5,0,0,1-.42-3.71h10.81l.17-.78c.48-2.42.28-4.35-.62-5.8a4.74,4.74,0,0,0-4.33-2.17,7.38,7.38,0,0,0-5.27,2.17,11,11,0,0,0-2.94,5.8C584.26,626.08,584.46,628,585.37,629.46Zm-23.24,1.93,2.12-10.31a3.6,3.6,0,0,1,1.42-2.23,4.25,4.25,0,0,1,2.63-.85,2.44,2.44,0,0,1,2,1,2.41,2.41,0,0,1,.55,2.13l-2.11,10.31h2.35l2.11-10.31a3.9,3.9,0,0,1,1.32-2.2A3.73,3.73,0,0,1,577,618a2.57,2.57,0,0,1,2.53,3.08l-2.12,10.31h2.39l2.11-10.31a3.89,3.89,0,0,0-1-3.59,4.42,4.42,0,0,0-3.5-1.56,6.28,6.28,0,0,0-2.63.58,7.35,7.35,0,0,0-2.25,1.49,3.69,3.69,0,0,0-1.59-1.56,4.83,4.83,0,0,0-2.22-.51,5.58,5.58,0,0,0-1.94.34,5,5,0,0,0-1.73,1l.14-.78h-2.35l-3.05,14.95ZM539.53,619a4.61,4.61,0,0,1,3.15-1.26,3,3,0,0,1,2.6,1.26,4.93,4.93,0,0,1,.65,3.35h-8.41A7.09,7.09,0,0,1,539.53,619Zm-4,10.44a4.7,4.7,0,0,0,4.32,2.17,7.81,7.81,0,0,0,4.64-1.39,6.73,6.73,0,0,0,2.7-3.73h-2.35a4,4,0,0,1-1.66,2.21,5.08,5.08,0,0,1-2.91.84,3,3,0,0,1-2.77-1.41,5,5,0,0,1-.42-3.71h10.81l.17-.78a7.84,7.84,0,0,0-.62-5.8,4.74,4.74,0,0,0-4.33-2.17,7.36,7.36,0,0,0-5.26,2.17,10.9,10.9,0,0,0-3,5.8A7.88,7.88,0,0,0,535.55,629.46Zm-14.89.37a5.55,5.55,0,0,0,4.26,1.53,7.88,7.88,0,0,0,4.5-1.26,5.15,5.15,0,0,0,2.25-3.35,3.39,3.39,0,0,0-1-3.16,5,5,0,0,0-3.29-1.49,6.41,6.41,0,0,1-2.57-.68,1.57,1.57,0,0,1-.93-1.76,2.48,2.48,0,0,1,1.11-1.59,4.14,4.14,0,0,1,2.25-.58,3,3,0,0,1,2.32.85,2.43,2.43,0,0,1,.48,2.24h2.36a4.08,4.08,0,0,0-.83-3.73,5,5,0,0,0-3.92-1.43,7.14,7.14,0,0,0-4.08,1.15,4.72,4.72,0,0,0-2,3.08,3.3,3.3,0,0,0,.86,3,4.35,4.35,0,0,0,3,1.46,6.14,6.14,0,0,1,2.84.84,2,2,0,0,1,1,2.1,2.39,2.39,0,0,1-1.35,1.59,5.72,5.72,0,0,1-2.8.61,3,3,0,0,1-2.46-1,3,3,0,0,1-.49-2.59h-2.35A4.42,4.42,0,0,0,520.66,629.83ZM499.44,619a4.63,4.63,0,0,1,3.15-1.26,3,3,0,0,1,2.6,1.26,4.93,4.93,0,0,1,.65,3.35h-8.41A7.17,7.17,0,0,1,499.44,619Zm-4,10.44a4.71,4.71,0,0,0,4.33,2.17,7.8,7.8,0,0,0,4.63-1.39,6.8,6.8,0,0,0,2.71-3.73h-2.36a4,4,0,0,1-1.66,2.21,5.08,5.08,0,0,1-2.91.84,3,3,0,0,1-2.77-1.41,5,5,0,0,1-.41-3.71h10.8l.17-.78a7.84,7.84,0,0,0-.62-5.8,4.74,4.74,0,0,0-4.33-2.17,7.36,7.36,0,0,0-5.26,2.17,10.9,10.9,0,0,0-2.95,5.8A7.88,7.88,0,0,0,495.46,629.46Zm-13.26-9.73a4.46,4.46,0,0,1,3.53-1.73,2.79,2.79,0,0,1,2.7,1.83,6,6,0,0,1,.38,3.83,8.47,8.47,0,0,1-1.83,4,4.55,4.55,0,0,1-3.61,1.8,2.73,2.73,0,0,1-2.66-1.87,6.36,6.36,0,0,1-.31-3.93A8.61,8.61,0,0,1,482.2,619.73Zm-3.4,9.36a4.53,4.53,0,0,0,4.16,2.54,5,5,0,0,0,2.63-.78,7.78,7.78,0,0,0,2.11-1.9l-.48,2.44h2.39l4.22-20.61h-2.39l-1.56,7.59a3.87,3.87,0,0,0-1.48-1.8,4.17,4.17,0,0,0-2.26-.64,7.28,7.28,0,0,0-5.33,2.31,10.54,10.54,0,0,0-2.77,5.42A7.76,7.76,0,0,0,478.8,629.09ZM460.56,616.2l-.45,2.07h2.11l-2.14,10.54a2,2,0,0,0,.45,1.8,2,2,0,0,0,1.66.78h2.11l.49-2.3h-1.35a.81.81,0,0,1-.66-.31.89.89,0,0,1-.18-.71l2-9.8H467l.45-2.07H465l.9-4.41h-2.36l-.9,4.41ZM445.5,629.83a5.55,5.55,0,0,0,4.26,1.53,7.86,7.86,0,0,0,4.5-1.26,5.11,5.11,0,0,0,2.25-3.35,3.39,3.39,0,0,0-1-3.16,5,5,0,0,0-3.29-1.49,6.35,6.35,0,0,1-2.56-.68,1.57,1.57,0,0,1-.94-1.76,2.48,2.48,0,0,1,1.11-1.59,4.14,4.14,0,0,1,2.25-.58,3,3,0,0,1,2.32.85,2.43,2.43,0,0,1,.48,2.24h2.36a4.08,4.08,0,0,0-.83-3.73,5,5,0,0,0-3.91-1.43,7.15,7.15,0,0,0-4.09,1.15,4.72,4.72,0,0,0-2,3.08,3.33,3.33,0,0,0,.86,3,4.35,4.35,0,0,0,3,1.46,6.14,6.14,0,0,1,2.84.84,2,2,0,0,1,1,2.1,2.34,2.34,0,0,1-1.35,1.59,5.72,5.72,0,0,1-2.8.61,2.72,2.72,0,0,1-2.94-3.56H444.6A4.42,4.42,0,0,0,445.5,629.83ZM434.15,619a4.61,4.61,0,0,1,3.15-1.26,3,3,0,0,1,2.59,1.26,4.87,4.87,0,0,1,.66,3.35h-8.41A7,7,0,0,1,434.15,619Zm-4,10.44a4.72,4.72,0,0,0,4.33,2.17,7.81,7.81,0,0,0,4.64-1.39,6.73,6.73,0,0,0,2.7-3.73h-2.35a4,4,0,0,1-1.66,2.21,5.08,5.08,0,0,1-2.91.84,3,3,0,0,1-2.77-1.41,5,5,0,0,1-.42-3.71h10.81l.17-.78c.48-2.42.28-4.35-.62-5.8a4.74,4.74,0,0,0-4.33-2.17,7.38,7.38,0,0,0-5.27,2.17,11,11,0,0,0-2.94,5.8C429.06,626.08,429.26,628,430.16,629.46Zm-4.46-13.29h1.21l1.84-6.48h-2.57Zm-18.35,13.29a5,5,0,0,0,4.5,2.17,7.53,7.53,0,0,0,4.81-1.63,8.07,8.07,0,0,0,2.91-4.27h-2.35a5.41,5.41,0,0,1-1.87,2.79,4.94,4.94,0,0,1-3.08,1,3,3,0,0,1-2.91-1.62,6.29,6.29,0,0,1-.38-4.3,8.08,8.08,0,0,1,2.08-4.26,4.83,4.83,0,0,1,3.6-1.62,3.65,3.65,0,0,1,2.7,1,3.17,3.17,0,0,1,.76,2.62h2.35a4.88,4.88,0,0,0-1.17-4.11,5.53,5.53,0,0,0-4.19-1.56,7.74,7.74,0,0,0-5.44,2.17,10.54,10.54,0,0,0-3.05,5.8Q405.9,627.29,407.35,629.46Z"/><path class="cls-18" d="M775.23,662.22l1.82-9a4.1,4.1,0,0,1,1.57-2.52,4.57,4.57,0,0,1,2.9-1,2.82,2.82,0,0,1,2.31,1.09,2.71,2.71,0,0,1,.65,2.42l-1.82,9h2.25l1.82-9a4.59,4.59,0,0,0-.91-3.86,4.24,4.24,0,0,0-3.52-1.72,6.56,6.56,0,0,0-2.51.48,5.16,5.16,0,0,0-2,1.46l.29-1.46h-2.21L773,662.22ZM762,650.92a4.87,4.87,0,0,1,3.55-1.53,3.14,3.14,0,0,1,2.93,1.53,5.57,5.57,0,0,1,.43,4,7.65,7.65,0,0,1-2,4,4.92,4.92,0,0,1-3.59,1.53,3.16,3.16,0,0,1-2.93-1.53,5.74,5.74,0,0,1-.39-4A7.38,7.38,0,0,1,762,650.92Zm-3.52,9.48a5,5,0,0,0,4.43,2,7.65,7.65,0,0,0,5.31-2,9.72,9.72,0,0,0,2.94-5.46,6.9,6.9,0,0,0-.75-5.45,5,5,0,0,0-4.44-2,7.46,7.46,0,0,0-5.27,2,9.73,9.73,0,0,0-2.94,5.45A7,7,0,0,0,758.48,660.4Zm-14.11.35a5.21,5.21,0,0,0,4,1.44,7.51,7.51,0,0,0,4.24-1.18,4.85,4.85,0,0,0,2.11-3.16,3.16,3.16,0,0,0-.94-3,4.69,4.69,0,0,0-3.1-1.4,6.08,6.08,0,0,1-2.41-.64,1.49,1.49,0,0,1-.88-1.66,2.36,2.36,0,0,1,1-1.5,4,4,0,0,1,2.12-.54,2.81,2.81,0,0,1,2.19.79,2.32,2.32,0,0,1,.45,2.11h2.22a3.84,3.84,0,0,0-.78-3.51,4.75,4.75,0,0,0-3.69-1.34,6.67,6.67,0,0,0-3.84,1.08,4.44,4.44,0,0,0-1.92,2.9A3.13,3.13,0,0,0,746,654a4.07,4.07,0,0,0,2.8,1.37,5.77,5.77,0,0,1,2.68.8,1.85,1.85,0,0,1,.94,2,2.23,2.23,0,0,1-1.27,1.5,5.49,5.49,0,0,1-2.64.57,2.58,2.58,0,0,1-2.77-3.35h-2.22A4.2,4.2,0,0,0,744.37,660.75Zm-12-9.5a4.19,4.19,0,0,1,3.32-1.64,2.67,2.67,0,0,1,2.54,1.73,5.66,5.66,0,0,1,.36,3.59,8.2,8.2,0,0,1-1.69,3.71,4.38,4.38,0,0,1-3.39,1.63,2.6,2.6,0,0,1-2.51-1.73,5.85,5.85,0,0,1-.33-3.61A8,8,0,0,1,732.35,651.25Zm-3.16,8.64a4.3,4.3,0,0,0,3.91,2.33,6.21,6.21,0,0,0,2.44-.48,4.85,4.85,0,0,0,1.92-1.47l-.39,2a3.12,3.12,0,0,1-1.63,2.17,5.72,5.72,0,0,1-2.93.73,4.3,4.3,0,0,1-2.22-.54,1.79,1.79,0,0,1-1-1.66H727a3.17,3.17,0,0,0,1.43,3,5.91,5.91,0,0,0,3.65,1.12,8.64,8.64,0,0,0,4.63-1.24,5.44,5.44,0,0,0,2.57-3.61l2.87-14.11h-2.25l-.29,1.47a2.74,2.74,0,0,0-1.44-1.44,4.55,4.55,0,0,0-2.15-.47,6.85,6.85,0,0,0-5,2.17,10,10,0,0,0-2.6,5.1A6.76,6.76,0,0,0,729.19,659.89Zm-9.55,2.33,1.53-7.52a6.11,6.11,0,0,1,1.89-3.42,5,5,0,0,1,3.55-1.44h1l.46-2.17h-1a5.92,5.92,0,0,0-2.9.73,5.27,5.27,0,0,0-2.12,2l.52-2.52h-2.21l-2.94,14.3Zm-12-11.65a4.36,4.36,0,0,1,3-1.18,2.83,2.83,0,0,1,2.45,1.18,4.66,4.66,0,0,1,.62,3.16h-7.92A6.72,6.72,0,0,1,707.62,650.57Zm-3.75,9.83a4.43,4.43,0,0,0,4.07,2,7.33,7.33,0,0,0,4.37-1.31,6.3,6.3,0,0,0,2.54-3.51h-2.21a3.79,3.79,0,0,1-1.57,2.09,4.82,4.82,0,0,1-2.74.79,2.82,2.82,0,0,1-2.6-1.34,4.65,4.65,0,0,1-.39-3.48H715.5l.17-.74a7.39,7.39,0,0,0-.59-5.45,4.43,4.43,0,0,0-4.07-2,6.91,6.91,0,0,0-5,2,10.25,10.25,0,0,0-2.77,5.45A7.41,7.41,0,0,0,703.87,660.4ZM690.51,645h5.93a2.7,2.7,0,0,1,2.67,3.27,3.29,3.29,0,0,1-1.4,2.12,4.24,4.24,0,0,1-2.54.8h-5.93Zm-1.69,8.36h5.93a3.4,3.4,0,0,1,2.51,1,2.57,2.57,0,0,1,.75,2.39,3.73,3.73,0,0,1-1.67,2.43,5.15,5.15,0,0,1-3,.86h-5.93Zm4.1,8.87a8.31,8.31,0,0,0,4.86-1.47,6.16,6.16,0,0,0,2.7-4,4,4,0,0,0-.32-2.58,4.06,4.06,0,0,0-1.86-1.89,5.65,5.65,0,0,0,2.15-1.59,5.34,5.34,0,0,0,1.14-2.43,4.24,4.24,0,0,0-1-3.79,4.63,4.63,0,0,0-3.68-1.66h-8.41l-4,19.4ZM674.55,645l.45-2.17h-2.21l-.46,2.17ZM671,662.22l3-14.55h-2.21l-3,14.55Zm-10.4,0,1.54-7.52a6.11,6.11,0,0,1,1.89-3.42,5,5,0,0,1,3.55-1.44h1l.46-2.17h-1a5.92,5.92,0,0,0-2.9.73,5.27,5.27,0,0,0-2.12,2l.53-2.52h-2.22l-2.93,14.3Zm-15.77,0,1.83-9a4.08,4.08,0,0,1,1.56-2.52,4.61,4.61,0,0,1,2.9-1,2.83,2.83,0,0,1,2.32,1.09,2.77,2.77,0,0,1,.65,2.42l-1.83,9h2.25l1.83-9a4.6,4.6,0,0,0-.92-3.86,4.23,4.23,0,0,0-3.52-1.72,6.51,6.51,0,0,0-2.5.48,5.08,5.08,0,0,0-2,1.46l.29-1.46h-2.22l-2.86,14.07Zm-12-11.65a4.36,4.36,0,0,1,3-1.18,2.81,2.81,0,0,1,2.44,1.18,4.66,4.66,0,0,1,.62,3.16H631A6.72,6.72,0,0,1,632.87,650.57Zm-3.75,9.83a4.45,4.45,0,0,0,4.08,2,7.36,7.36,0,0,0,4.37-1.31,6.4,6.4,0,0,0,2.54-3.51h-2.22a3.77,3.77,0,0,1-1.56,2.09,4.87,4.87,0,0,1-2.74.79,2.84,2.84,0,0,1-2.61-1.34,4.75,4.75,0,0,1-.39-3.48h10.17l.16-.74a7.4,7.4,0,0,0-.58-5.45,4.44,4.44,0,0,0-4.08-2,6.87,6.87,0,0,0-5,2,10.18,10.18,0,0,0-2.77,5.45A7.41,7.41,0,0,0,629.12,660.4Zm-17.88,1.82,1.89-9.22H623l-1.89,9.22h2.48l4-19.4h-2.47l-1.66,8h-9.91l1.66-8h-2.48l-4,19.4Zm-14.73-6.13.46-2.17h-7.43l-.46,2.17Z"/></g></g></svg>