<svg id="Calque_1" data-name="Calque 1" xmlns="http://www.w3.org/2000/svg" xmlns:xlink="http://www.w3.org/1999/xlink" viewBox="0 0 1368 704"><defs><style>.cls-1{fill:none;}.cls-2{clip-path:url(#clip-path);}.cls-3{fill:url(#Dégradé_sans_nom);}.cls-12,.cls-4{fill:#fbf8f4;}.cls-4{opacity:0.67;}.cls-13,.cls-16,.cls-17,.cls-24,.cls-4{isolation:isolate;}.cls-5{fill:#fffdfc;}.cls-6{fill:#c2b2a7;}.cls-7{fill:#738f93;}.cls-8{opacity:0.2;}.cls-9{fill:#1e1e1c;}.cls-10{opacity:0.3;}.cls-11{fill:#fff;}.cls-13,.cls-14{fill:#f5a592;}.cls-13{opacity:0.4;}.cls-15{fill:#c59d95;}.cls-16,.cls-17{fill:#fff3e2;}.cls-16{opacity:0.48;}.cls-17{opacity:0.82;}.cls-18{fill:#adadad;}.cls-19{clip-path:url(#clip-path-2);}.cls-20{fill:#84a5a5;}.cls-21{fill:#646f74;}.cls-22{fill:#616160;}.cls-23{fill:#635853;}.cls-24{fill:#bab4aa;opacity:0.25;}.cls-25{clip-path:url(#clip-path-5);}.cls-26{fill:#453949;}.cls-27{fill:#f9eece;}.cls-28{fill:#554842;}</style><clipPath id="clip-path"><rect class="cls-1" x="-0.66" y="0.55" width="1367.06" height="702.85"/></clipPath><linearGradient id="Dégradé_sans_nom" x1="684" y1="725.36" x2="684" y2="319.57" gradientTransform="matrix(1, 0, 0, -1, 0, 704)" gradientUnits="userSpaceOnUse"><stop offset="0" stop-color="#b89799"/><stop offset="1" stop-color="#fbd9be"/></linearGradient><clipPath id="clip-path-2"><rect class="cls-1" x="977.6" y="321.5" width="390.2" height="381.9"/></clipPath><clipPath id="clip-path-5"><rect class="cls-1" x="1.9" y="254.9" width="388.6" height="449"/></clipPath></defs><title>Plan de travail 1</title><g class="cls-2"><g id="Calque_2" data-name="Calque 2"><rect class="cls-3" width="1368" height="704"/><path class="cls-4" d="M192,233.9H364.8a6.8,6.8,0,1,1,0,13.6H297a5.3,5.3,0,0,0,0,10.6h25.9a5.3,5.3,0,1,1,0,10.6h0a5.3,5.3,0,1,0,0,10.6h1.2a4.1,4.1,0,1,1,0,8.2H257.2a4.1,4.1,0,1,1,0-8.2h21.1a5.3,5.3,0,1,0,0-10.6H199.4a5.3,5.3,0,1,1,0-10.6h25a5.3,5.3,0,0,0,0-10.6H192a6.8,6.8,0,1,1,0-13.6Z"/><path class="cls-5" d="M974.5,37.8a3.06,3.06,0,1,1,3.3,2.8A3,3,0,0,1,974.5,37.8Z"/><path class="cls-5" d="M859.6,81.5a2.41,2.41,0,1,1,2.6,2.2A2.44,2.44,0,0,1,859.6,81.5Z"/><path class="cls-5" d="M804.5,75.8a.91.91,0,1,1,1,.8A.85.85,0,0,1,804.5,75.8Z"/><path class="cls-5" d="M873.7,41.9a1.46,1.46,0,1,1,1.6,1.3A1.35,1.35,0,0,1,873.7,41.9Z"/><path class="cls-5" d="M701.8,22.1a1.3,1.3,0,1,1,1.4,1.2A1.32,1.32,0,0,1,701.8,22.1Z"/><circle class="cls-5" cx="654.4" cy="82" r="1.7"/><path class="cls-5" d="M593.5,31.4a1.3,1.3,0,1,1,1.4,1.2A1.39,1.39,0,0,1,593.5,31.4Z"/><path class="cls-5" d="M717.9,116.1a1.66,1.66,0,1,1,1.8,1.5A1.67,1.67,0,0,1,717.9,116.1Z"/><path class="cls-5" d="M744.8,75.1a.85.85,0,1,1,.9.8A1,1,0,0,1,744.8,75.1Z"/><path class="cls-5" d="M699.5,65.8a1.3,1.3,0,1,1,1.4,1.2A1.32,1.32,0,0,1,699.5,65.8Z"/><path class="cls-5" d="M800.4,34a1.66,1.66,0,1,1,1.8,1.5A1.6,1.6,0,0,1,800.4,34Z"/><circle class="cls-5" cx="778.2" cy="116.6" r="4"/><path class="cls-5" d="M902.8,100.2a1.66,1.66,0,1,1,1.8,1.5A1.67,1.67,0,0,1,902.8,100.2Z"/><path class="cls-5" d="M896.2,24.2a5.1,5.1,0,0,0,.9-.1,4.13,4.13,0,0,0,.9-.1,5.1,5.1,0,0,0-.9.1A4.13,4.13,0,0,0,896.2,24.2Z"/><circle class="cls-5" cx="841.9" cy="21.1" r="1.7"/><path class="cls-5" d="M538.6,20.3a1.2,1.2,0,1,1,1.3,1.1A1.21,1.21,0,0,1,538.6,20.3Z"/><path class="cls-5" d="M933.2,64.8a.91.91,0,1,1,1,.8A.85.85,0,0,1,933.2,64.8Z"/><circle class="cls-5" cx="997.3" cy="24.9" r="2"/><path class="cls-5" d="M734.2,24.2a.91.91,0,1,1,1,.8A.85.85,0,0,1,734.2,24.2Z"/><path class="cls-5" d="M594.7,68.7a1.66,1.66,0,1,1,1.8,1.5A1.67,1.67,0,0,1,594.7,68.7Z"/><path class="cls-5" d="M552.5,13.8a.75.75,0,1,1,.8.7A.77.77,0,0,1,552.5,13.8Z"/><path class="cls-5" d="M763.3,6.8a2,2,0,1,1,2.1,1.8A1.93,1.93,0,0,1,763.3,6.8Z"/><path class="cls-5" d="M231.7,49.8a3.1,3.1,0,1,1-3.1-3.1A3.12,3.12,0,0,1,231.7,49.8Z"/><path class="cls-5" d="M349.8,16a2.4,2.4,0,1,1-2.4-2.4A2.37,2.37,0,0,1,349.8,16Z"/><path class="cls-5" d="M404.3,26.4a.9.9,0,1,1-.9-.9A.9.9,0,0,1,404.3,26.4Z"/><path class="cls-5" d="M259.7,103.2a1.8,1.8,0,1,1-1.8-1.8A1.79,1.79,0,0,1,259.7,103.2Z"/><path class="cls-5" d="M167.9,149.4a1.1,1.1,0,1,1-1.1-1.1A1,1,0,0,1,167.9,149.4Z"/><path class="cls-5" d="M208.8,176.9a1.2,1.2,0,1,1-1.2-1.2A1.16,1.16,0,0,1,208.8,176.9Z"/><path class="cls-5" d="M129.8,195.4a.7.7,0,1,1-.7-.7A.68.68,0,0,1,129.8,195.4Z"/><path class="cls-5" d="M167.9,108.6a1.1,1.1,0,1,1-1.1-1.1C167.5,107.6,167.9,108,167.9,108.6Z"/><path class="cls-5" d="M309.4,138.1a2.2,2.2,0,1,1-2.2-2.2A2.36,2.36,0,0,1,309.4,138.1Z"/><path class="cls-5" d="M309.7,166.7a1.2,1.2,0,1,1-1.2-1.2A1.22,1.22,0,0,1,309.7,166.7Z"/><circle class="cls-5" cx="233.3" cy="203.8" r="1.6"/><path class="cls-5" d="M332.4,54.3a1.4,1.4,0,1,1-1.4-1.4A1.31,1.31,0,0,1,332.4,54.3Z"/><path class="cls-5" d="M502,88.7a1.3,1.3,0,1,1-1.3-1.3A1.32,1.32,0,0,1,502,88.7Z"/><circle class="cls-5" cx="554.3" cy="33.1" r="1.7"/><path class="cls-5" d="M610.6,88.7a1.3,1.3,0,1,1-1.3-1.3A1.32,1.32,0,0,1,610.6,88.7Z"/><circle class="cls-5" cx="664.4" cy="169.2" r="2.4"/><path class="cls-5" d="M688.8,214.3a2.11,2.11,0,0,1-2.1,2.1,2.05,2.05,0,0,1-2.1-2.1,2.11,2.11,0,0,1,2.1-2.1A2.05,2.05,0,0,1,688.8,214.3Z"/><path class="cls-5" d="M551.7,150.4a2.11,2.11,0,0,1-2.1,2.1,2.05,2.05,0,0,1-2.1-2.1,2.1,2.1,0,0,1,4.2,0Z"/><path class="cls-5" d="M588.3,125.5a1.5,1.5,0,1,1-1.5-1.5A1.61,1.61,0,0,1,588.3,125.5Z"/><path class="cls-5" d="M463.6,32.2a.8.8,0,1,1-.8-.8A.79.79,0,0,1,463.6,32.2Z"/><path class="cls-5" d="M508,45.4a1.3,1.3,0,1,1-1.3-1.3A1.32,1.32,0,0,1,508,45.4Z"/><path class="cls-5" d="M696.6,151.5a3.2,3.2,0,1,1-3.2-3.2A3.16,3.16,0,0,1,696.6,151.5Z"/><path class="cls-5" d="M492.3,149.2a.8.8,0,1,1-.8-.8C491.9,148.3,492.3,148.7,492.3,149.2Z"/><path class="cls-5" d="M404.7,68.4a1.7,1.7,0,0,1-3.4,0,1.63,1.63,0,0,1,1.7-1.7A1.69,1.69,0,0,1,404.7,68.4Z"/><circle class="cls-5" cx="136.3" cy="229.7" r="1"/><path class="cls-5" d="M99.2,239a2.1,2.1,0,1,1-2.1-2.1A2.05,2.05,0,0,1,99.2,239Z"/><circle class="cls-5" cx="205.8" cy="238.7" r="1.9"/><path class="cls-5" d="M299.5,211a2.3,2.3,0,1,1-2.3-2.3A2.33,2.33,0,0,1,299.5,211Z"/><path class="cls-5" d="M241.3,150.4a2.1,2.1,0,1,1-2.1-2.1A2.11,2.11,0,0,1,241.3,150.4Z"/><circle class="cls-5" cx="362.3" cy="77.8" r="1.7"/><path class="cls-5" d="M664.4,104.5a1.2,1.2,0,1,1-1.2-1.2A1.1,1.1,0,0,1,664.4,104.5Z"/><path class="cls-5" d="M727.3,249.2a3,3,0,1,1-3-3A3,3,0,0,1,727.3,249.2Z"/><path class="cls-5" d="M508,190.1a1.3,1.3,0,1,1-1.3-1.3A1.21,1.21,0,0,1,508,190.1Z"/><path class="cls-5" d="M275.1,26.4a.9.9,0,1,1-.9-.9A.9.9,0,0,1,275.1,26.4Z"/><circle class="cls-5" cx="207.8" cy="60.7" r="2"/><path class="cls-5" d="M469.9,83.8a.9.9,0,1,1-.9-.9A.9.9,0,0,1,469.9,83.8Z"/><path class="cls-5" d="M612.7,51.5a1.7,1.7,0,1,1-1.7-1.7A1.69,1.69,0,0,1,612.7,51.5Z"/><path class="cls-5" d="M650,109.8a.7.7,0,1,1-.7-.7C649.7,109,650,109.3,650,109.8Z"/><path class="cls-5" d="M542.1,182.6a1.8,1.8,0,1,1-1.8-1.8A1.73,1.73,0,0,1,542.1,182.6Z"/><path class="cls-5" d="M439.4,98.7a2,2,0,1,1-2-2A2,2,0,0,1,439.4,98.7Z"/><circle class="cls-5" cx="603.1" cy="166.9" r="2"/><path class="cls-5" d="M729.8,200a2.2,2.2,0,1,1-2.2-2.2A2.1,2.1,0,0,1,729.8,200Z"/><path class="cls-5" d="M650,210.8a2.1,2.1,0,1,1-2.1-2.1A2.11,2.11,0,0,1,650,210.8Z"/><path class="cls-5" d="M820.5,121.9a3.1,3.1,0,1,1-3.1-3.1A3.18,3.18,0,0,1,820.5,121.9Z"/><path class="cls-5" d="M938.6,88.2a2.4,2.4,0,1,1-2.4-2.4A2.31,2.31,0,0,1,938.6,88.2Z"/><path class="cls-5" d="M993.1,98.5a.9.9,0,1,1-.9-.9A.9.9,0,0,1,993.1,98.5Z"/><path class="cls-5" d="M848.5,175.4a1.8,1.8,0,1,1-1.8-1.8A1.79,1.79,0,0,1,848.5,175.4Z"/><path class="cls-5" d="M756.8,221.5a1.1,1.1,0,1,1-1.1-1.1A1.18,1.18,0,0,1,756.8,221.5Z"/><path class="cls-5" d="M797.6,249a1.2,1.2,0,1,1-1.2-1.2A1.22,1.22,0,0,1,797.6,249Z"/><path class="cls-5" d="M718.6,267.5a.7.7,0,1,1-.7-.7A.68.68,0,0,1,718.6,267.5Z"/><circle class="cls-5" cx="755.7" cy="180.8" r="1.1"/><path class="cls-5" d="M898.2,210.3a2.2,2.2,0,1,1-2.2-2.2A2.22,2.22,0,0,1,898.2,210.3Z"/><path class="cls-5" d="M898.5,238.9a1.2,1.2,0,1,1-1.2-1.2A1.16,1.16,0,0,1,898.5,238.9Z"/><path class="cls-5" d="M823.7,276a1.6,1.6,0,1,1-1.6-1.6A1.52,1.52,0,0,1,823.7,276Z"/><path class="cls-5" d="M921.2,126.4a1.4,1.4,0,1,1-1.4-1.4A1.37,1.37,0,0,1,921.2,126.4Z"/><path class="cls-5" d="M1090.8,160.9a1.3,1.3,0,1,1-1.3-1.3A1.21,1.21,0,0,1,1090.8,160.9Z"/><circle class="cls-5" cx="1143.1" cy="105.2" r="1.7"/><path class="cls-5" d="M1199.4,160.9a1.3,1.3,0,1,1-1.3-1.3A1.21,1.21,0,0,1,1199.4,160.9Z"/><circle class="cls-5" cx="1253.2" cy="241.3" r="2.4"/><path class="cls-5" d="M1277.6,286.4a2.11,2.11,0,0,1-2.1,2.1,2.05,2.05,0,0,1-2.1-2.1,2.1,2.1,0,0,1,4.2,0Z"/><path class="cls-5" d="M1140.5,222.5a2.1,2.1,0,1,1-2.1-2.1A2.18,2.18,0,0,1,1140.5,222.5Z"/><path class="cls-5" d="M1177.1,197.7a1.5,1.5,0,1,1-1.5-1.5A1.54,1.54,0,0,1,1177.1,197.7Z"/><path class="cls-5" d="M1082.8,65.9a1.7,1.7,0,1,1-1.7-1.7A1.69,1.69,0,0,1,1082.8,65.9Z"/><path class="cls-5" d="M1052.4,104.4a.8.8,0,1,1-.8-.8C1052.1,103.5,1052.4,103.9,1052.4,104.4Z"/><path class="cls-5" d="M1096.8,117.5a1.3,1.3,0,1,1-1.3-1.3A1.32,1.32,0,0,1,1096.8,117.5Z"/><path class="cls-5" d="M1285.4,223.6a3.2,3.2,0,1,1-3.2-3.2A3.29,3.29,0,0,1,1285.4,223.6Z"/><path class="cls-5" d="M1081.1,221.3a.8.8,0,1,1-.8-.8A.79.79,0,0,1,1081.1,221.3Z"/><path class="cls-5" d="M993.5,140.5a1.7,1.7,0,1,1-1.7-1.7A1.75,1.75,0,0,1,993.5,140.5Z"/><path class="cls-5" d="M1022.8,56.2a4,4,0,1,1-4,4A4,4,0,0,1,1022.8,56.2Z"/><path class="cls-5" d="M897.2,65.9a1.7,1.7,0,1,1-1.7-1.7A1.63,1.63,0,0,1,897.2,65.9Z"/><circle class="cls-5" cx="725.1" cy="301.9" r="1"/><path class="cls-5" d="M688,311.1a2.1,2.1,0,1,1-2.1-2.1A2.11,2.11,0,0,1,688,311.1Z"/><path class="cls-5" d="M796.5,310.9a1.9,1.9,0,1,1-1.9-1.9A1.9,1.9,0,0,1,796.5,310.9Z"/><path class="cls-5" d="M888.3,283.2a2.3,2.3,0,1,1-2.3-2.3A2.26,2.26,0,0,1,888.3,283.2Z"/><path class="cls-5" d="M830.1,222.6a2.1,2.1,0,1,1-2.1-2.1A2.05,2.05,0,0,1,830.1,222.6Z"/><circle class="cls-5" cx="951.1" cy="149.9" r="1.7"/><path class="cls-5" d="M1253.2,176.6a1.2,1.2,0,1,1-1.2-1.2A1.16,1.16,0,0,1,1253.2,176.6Z"/><path class="cls-5" d="M1316.2,321.3a3,3,0,1,1-3-3A3.08,3.08,0,0,1,1316.2,321.3Z"/><path class="cls-5" d="M1096.8,262.2a1.3,1.3,0,1,1-1.3-1.3A1.32,1.32,0,0,1,1096.8,262.2Z"/><path class="cls-5" d="M863.9,98.5a.9.9,0,1,1-.9-.9A.9.9,0,0,1,863.9,98.5Z"/><circle class="cls-5" cx="796.6" cy="132.9" r="2"/><path class="cls-5" d="M1058.7,156a.9.9,0,1,1-.9-.9A.9.9,0,0,1,1058.7,156Z"/><path class="cls-5" d="M1201.5,123.6a1.7,1.7,0,1,1-1.7-1.7A1.75,1.75,0,0,1,1201.5,123.6Z"/><path class="cls-5" d="M1238.8,181.9a.7.7,0,1,1-.7-.7A.68.68,0,0,1,1238.8,181.9Z"/><path class="cls-5" d="M1130.9,254.7a1.8,1.8,0,1,1-1.8-1.8A1.79,1.79,0,0,1,1130.9,254.7Z"/><path class="cls-5" d="M1028.2,170.8a2,2,0,1,1-2-2A2,2,0,0,1,1028.2,170.8Z"/><circle class="cls-5" cx="1191.9" cy="239" r="2"/><path class="cls-5" d="M1318.6,272.1a2.2,2.2,0,1,1-2.2-2.2A2.22,2.22,0,0,1,1318.6,272.1Z"/><path class="cls-5" d="M1238.8,283a2.1,2.1,0,1,1-2.1-2.1A2.05,2.05,0,0,1,1238.8,283Z"/><path class="cls-5" d="M1014.2,274.7a3.05,3.05,0,1,1,3,3.1A3,3,0,0,1,1014.2,274.7Z"/><path class="cls-5" d="M895.1,305.1a2.4,2.4,0,1,1,2.3,2.5A2.38,2.38,0,0,1,895.1,305.1Z"/><path class="cls-5" d="M841,293.2a.9.9,0,1,1,.9.9A.9.9,0,0,1,841,293.2Z"/><path class="cls-5" d="M987.7,220.5a1.75,1.75,0,1,1,1.7,1.8A1.65,1.65,0,0,1,987.7,220.5Z"/><path class="cls-5" d="M1080.7,176.9a1.05,1.05,0,1,1,2.1.1c-.1.6-.5,1.1-1.1,1A1.09,1.09,0,0,1,1080.7,176.9Z"/><path class="cls-5" d="M1040.6,148.3a1.2,1.2,0,1,1,1.2,1.2A1.16,1.16,0,0,1,1040.6,148.3Z"/><path class="cls-5" d="M1120.1,132.1a.7.7,0,1,1,.7.7A.68.68,0,0,1,1120.1,132.1Z"/><circle class="cls-5" cx="1080.6" cy="217.76" r="1.1" transform="translate(832.4 1291.78) rotate(-88.38)"/><path class="cls-5" d="M939,184.2a2.15,2.15,0,1,1,2.1,2.2A2.14,2.14,0,0,1,939,184.2Z"/><path class="cls-5" d="M939.5,155.6a1.25,1.25,0,1,1,1.2,1.3A1.24,1.24,0,0,1,939.5,155.6Z"/><path class="cls-5" d="M1015.3,120.7a1.65,1.65,0,1,1,1.6,1.7A1.81,1.81,0,0,1,1015.3,120.7Z"/><path class="cls-5" d="M913.6,267.4a1.45,1.45,0,1,1,1.4,1.5A1.52,1.52,0,0,1,913.6,267.4Z"/><path class="cls-5" d="M745.1,228.2a1.35,1.35,0,1,1,1.3,1.4A1.49,1.49,0,0,1,745.1,228.2Z"/><circle class="cls-5" cx="691.2" cy="282.3" r="1.7"/><path class="cls-5" d="M636.5,225.1a1.35,1.35,0,1,1,1.3,1.4A1.35,1.35,0,0,1,636.5,225.1Z"/><circle class="cls-5" cx="585" cy="143.2" r="2.4"/><circle class="cls-5" cx="564" cy="97.5" r="2.1"/><path class="cls-5" d="M697.1,165.1a2.05,2.05,0,1,1,2,2.1A2,2,0,0,1,697.1,165.1Z"/><path class="cls-5" d="M659.9,188.9a1.45,1.45,0,1,1,1.4,1.5A1.39,1.39,0,0,1,659.9,188.9Z"/><path class="cls-5" d="M750.4,323.4a1.65,1.65,0,1,1,1.6,1.7A1.67,1.67,0,0,1,750.4,323.4Z"/><path class="cls-5" d="M781.8,285.7a.85.85,0,1,1,.8.9A.88.88,0,0,1,781.8,285.7Z"/><path class="cls-5" d="M737.9,271.3a1.35,1.35,0,1,1,1.3,1.4A1.29,1.29,0,0,1,737.9,271.3Z"/><path class="cls-5" d="M552.3,159.9a3.15,3.15,0,1,1,3.1,3.2A3,3,0,0,1,552.3,159.9Z"/><path class="cls-5" d="M756.5,168a.85.85,0,1,1,.8.9A.82.82,0,0,1,756.5,168Z"/><path class="cls-5" d="M841.7,251.2a1.65,1.65,0,1,1,1.6,1.7A1.61,1.61,0,0,1,841.7,251.2Z"/><circle class="cls-5" cx="810.2" cy="330.7" r="4"/><path class="cls-5" d="M935.9,328.6a1.65,1.65,0,1,1,1.6,1.7A1.67,1.67,0,0,1,935.9,328.6Z"/><circle class="cls-5" cx="1114.6" cy="97.6" r="1"/><path class="cls-5" d="M1151.9,89.3a2.15,2.15,0,1,1,2.1,2.2A2.14,2.14,0,0,1,1151.9,89.3Z"/><path class="cls-5" d="M1043.5,86.5a1.85,1.85,0,1,1,1.8,1.9A1.82,1.82,0,0,1,1043.5,86.5Z"/><path class="cls-5" d="M951,111.6a2.35,2.35,0,1,1,2.3,2.4A2.23,2.23,0,0,1,951,111.6Z"/><path class="cls-5" d="M1007.4,173.9a2.1,2.1,0,1,1,4.2.2,2,2,0,0,1-2.1,2A2.27,2.27,0,0,1,1007.4,173.9Z"/><circle class="cls-5" cx="884.4" cy="243.1" r="1.7"/><path class="cls-5" d="M583.2,207.9a1.25,1.25,0,1,1,1.2,1.3A1.38,1.38,0,0,1,583.2,207.9Z"/><path class="cls-5" d="M524.3,61.4a3,3,0,1,1,2.9,3.1A3.08,3.08,0,0,1,524.3,61.4Z"/><path class="cls-5" d="M742,126.7a1.35,1.35,0,1,1,1.3,1.4A1.28,1.28,0,0,1,742,126.7Z"/><path class="cls-5" d="M970.1,296.9a.9.9,0,1,1,.9.9A.9.9,0,0,1,970.1,296.9Z"/><circle class="cls-5" cx="1038.4" cy="264.5" r="2"/><path class="cls-5" d="M777,234a.9.9,0,1,1,.9.9A.9.9,0,0,1,777,234Z"/><path class="cls-5" d="M633.4,262.3A1.65,1.65,0,1,1,635,264,1.67,1.67,0,0,1,633.4,262.3Z"/><path class="cls-5" d="M597.7,203a.75.75,0,1,1,1.5.1c0,.5-.3.7-.8.7A.85.85,0,0,1,597.7,203Z"/><path class="cls-5" d="M707.6,133.2a1.85,1.85,0,1,1,1.8,1.9A1.88,1.88,0,0,1,707.6,133.2Z"/><path class="cls-5" d="M807.9,220a2,2,0,1,1,1.9,2A1.92,1.92,0,0,1,807.9,220Z"/><circle class="cls-5" cx="646.2" cy="147.2" r="2"/><path class="cls-5" d="M520.5,110.5a2.25,2.25,0,1,1,2.2,2.3A2.24,2.24,0,0,1,520.5,110.5Z"/><path class="cls-5" d="M504,31.9h1A2.89,2.89,0,0,1,504,31.9Z"/><path class="cls-5" d="M600.5,101.9a2.15,2.15,0,1,1,2.1,2.2A2.14,2.14,0,0,1,600.5,101.9Z"/><path class="cls-5" d="M1308.3,244.3a2.4,2.4,0,1,1,0,3.4A2.3,2.3,0,0,1,1308.3,244.3Z"/><path class="cls-5" d="M1277.2,198.4a.92.92,0,1,1,0,1.3A1,1,0,0,1,1277.2,198.4Z"/><path class="cls-5" d="M1347.7,229.6a1.41,1.41,0,1,1,0,2A1.34,1.34,0,0,1,1347.7,229.6Z"/><path class="cls-5" d="M1252.5,85.1a1.34,1.34,0,1,1,0,1.9A1.39,1.39,0,0,1,1252.5,85.1Z"/><circle class="cls-5" cx="1176.2" cy="87.3" r="1.7"/><path class="cls-5" d="M1175.9,8.1a1.34,1.34,0,0,1,1.9,1.9,1.34,1.34,0,1,1-1.9-1.9Z"/><path class="cls-5" d="M1261.2,6.4a2.05,2.05,0,1,1,0,2.9A2.05,2.05,0,0,1,1261.2,6.4Z"/><path class="cls-5" d="M1217.8-2a1.45,1.45,0,0,1,2.1,0,1.45,1.45,0,0,1,0,2.1,1.45,1.45,0,0,1-2.1,0A1.45,1.45,0,0,1,1217.8-2Z"/><path class="cls-5" d="M1190.8,157.8a1.7,1.7,0,1,1,0,2.4A1.83,1.83,0,0,1,1190.8,157.8Z"/><path class="cls-5" d="M1239.5,152.2a.85.85,0,1,1,0,1.2A.91.91,0,0,1,1239.5,152.2Z"/><path class="cls-5" d="M1217.6,111.4a1.34,1.34,0,1,1,0,1.9A1.39,1.39,0,0,1,1217.6,111.4Z"/><path class="cls-5" d="M1302.2,49.4a.85.85,0,1,1,0,1.2A.91.91,0,0,1,1302.2,49.4Z"/><path class="cls-5" d="M1306.7,168.4a1.7,1.7,0,1,1,0,2.4A1.63,1.63,0,0,1,1306.7,168.4Z"/><circle class="cls-5" cx="1229.1" cy="204.3" r="4"/><path class="cls-5" d="M1321.7,289.4a1.7,1.7,0,1,1,0,2.4A1.63,1.63,0,0,1,1321.7,289.4Z"/><circle class="cls-5" cx="1343.21" cy="191.89" r="1.7" transform="translate(255.54 1003.08) rotate(-44.85)"/><path class="cls-5" d="M1320.2,9.4a1.34,1.34,0,1,1,1.9,1.9,1.39,1.39,0,0,1-1.9,0A1.23,1.23,0,0,1,1320.2,9.4Z"/><path class="cls-5" d="M1271.7,111.3a.92.92,0,1,1,0,1.3A.85.85,0,0,1,1271.7,111.3Z"/><path class="cls-5" d="M1148.1,32.9a1.7,1.7,0,1,1,0,2.4A1.63,1.63,0,0,1,1148.1,32.9Z"/><path class="cls-5" d="M1303.7,122.5a2,2,0,1,1,0,2.8A1.93,1.93,0,0,1,1303.7,122.5Z"/><g id="palm"><rect class="cls-6" x="189.5" y="259.5" width="8.1" height="130.3"/><path class="cls-7" d="M192.5,265.7s-48.7,4.4-44.6,54.4c0,0,5-5.1,6.4-9.5a8,8,0,0,1,1,5.1s4-4.9,4.6-10a7,7,0,0,1,.5,4.5s4.3-4.4,5.2-7.7a3.78,3.78,0,0,1,.1,3.4,19.38,19.38,0,0,0,4.5-10.1s1.5,1.1,1.5,4.1c0,0,4.6-7,4.8-10.7,0,0,1.9.6,1.2,3.4C177.8,292.6,189.8,281.2,192.5,265.7Z"/><path class="cls-7" d="M192.5,265.7s-.9-51.1-49.8-50.4c0,0,4.6,5.6,8.8,7.4a6.88,6.88,0,0,1-5,.6s4.5,4.6,9.4,5.6a6,6,0,0,1-4.4.2s4,4.8,7.1,6a3.31,3.31,0,0,1-3.3-.1s4,4.5,9.5,5.4c0,0-1.2,1.5-4.1,1.3,0,0,6.5,5.3,10.1,5.7,0,0-.7,2-3.4,1C167.4,248.5,177.6,261.9,192.5,265.7Z"/><path class="cls-7" d="M192.5,265.7s-41.2-36.8-79.7,5.5c0,0,8.1.1,12.9-2.1a8.86,8.86,0,0,1-3.5,4.8s7.2-.5,11.9-3.9a7.5,7.5,0,0,1-3.3,3.9s7,.1,10.5-1.7a4.22,4.22,0,0,1-2.8,2.7s6.8-.1,11.9-4.2c0,0,.2,2.1-2.2,4.4,0,0,9.4-1.6,12.6-4.4,0,0,1,2-1.9,3.7C158.8,274.5,177.5,275.6,192.5,265.7Z"/><path class="cls-7" d="M207.2,292.6c-.7-2.9,1.2-3.4,1.2-3.4.1,3.7,4.8,10.7,4.8,10.7,0-3,1.5-4.1,1.5-4.1a19.38,19.38,0,0,0,4.5,10.1,3.78,3.78,0,0,1,.1-3.4c.9,3.3,5.2,7.7,5.2,7.7a7.18,7.18,0,0,1,.5-4.5c.6,5,4.6,10,4.6,10a7.31,7.31,0,0,1,1-5.1c1.4,4.4,6.4,9.5,6.4,9.5,4.1-50-44.6-54.4-44.6-54.4C195.1,281.2,207.2,292.6,207.2,292.6Z"/><g class="cls-8"><path class="cls-9" d="M192.5,265.7s-48.7,4.4-44.6,54.4c0,0,5-5.1,6.4-9.5a8,8,0,0,1,1,5.1s4-4.9,4.6-10a7,7,0,0,1,.5,4.5s4.3-4.4,5.2-7.7a3.78,3.78,0,0,1,.1,3.4,19.38,19.38,0,0,0,4.5-10.1s1.5,1.1,1.5,4.1c0,0,4.6-7,4.8-10.7,0,0,1.9.6,1.2,3.4C177.8,292.6,189.8,281.2,192.5,265.7Z"/></g><g class="cls-8"><path class="cls-9" d="M207.2,292.6c-.7-2.9,1.2-3.4,1.2-3.4.1,3.7,4.8,10.7,4.8,10.7,0-3,1.5-4.1,1.5-4.1a19.38,19.38,0,0,0,4.5,10.1,3.78,3.78,0,0,1,.1-3.4c.9,3.3,5.2,7.7,5.2,7.7a7.18,7.18,0,0,1,.5-4.5c.6,5,4.6,10,4.6,10a7.31,7.31,0,0,1,1-5.1c1.4,4.4,6.4,9.5,6.4,9.5,4.1-50-44.6-54.4-44.6-54.4C195.1,281.2,207.2,292.6,207.2,292.6Z"/></g><path class="cls-7" d="M217.5,248.5c-2.8,1-3.4-1-3.4-1,3.6-.4,10.1-5.7,10.1-5.7-2.9.2-4.1-1.3-4.1-1.3,5.5-.9,9.6-5.4,9.6-5.4a3.31,3.31,0,0,1-3.3.1c3.1-1.2,7.1-6,7.1-6a6.63,6.63,0,0,1-4.4-.2c4.8-1,9.4-5.6,9.4-5.6a6.88,6.88,0,0,1-5-.6c4.2-1.8,8.8-7.4,8.8-7.4-48.9-.7-49.8,50.4-49.8,50.4C207.4,261.9,217.5,248.5,217.5,248.5Z"/><g class="cls-10"><path class="cls-11" d="M192.5,265.7s-.9-51.1-49.8-50.4c0,0,4.6,5.6,8.8,7.4a6.88,6.88,0,0,1-5,.6s4.5,4.6,9.4,5.6a6,6,0,0,1-4.4.2s4,4.8,7.1,6a3.31,3.31,0,0,1-3.3-.1s4,4.5,9.5,5.4c0,0-1.2,1.5-4.1,1.3,0,0,6.5,5.3,10.1,5.7,0,0-.7,2-3.4,1C167.4,248.5,177.6,261.9,192.5,265.7Z"/></g><g class="cls-10"><path class="cls-11" d="M217.5,248.5c-2.8,1-3.4-1-3.4-1,3.6-.4,10.1-5.7,10.1-5.7-2.9.2-4.1-1.3-4.1-1.3,5.5-.9,9.6-5.4,9.6-5.4a3.31,3.31,0,0,1-3.3.1c3.1-1.2,7.1-6,7.1-6a6.63,6.63,0,0,1-4.4-.2c4.8-1,9.4-5.6,9.4-5.6a6.88,6.88,0,0,1-5-.6c4.2-1.8,8.8-7.4,8.8-7.4-48.9-.7-49.8,50.4-49.8,50.4C207.4,261.9,217.5,248.5,217.5,248.5Z"/></g><path class="cls-7" d="M226.1,274.5c-3-1.6-1.9-3.7-1.9-3.7,3.2,2.8,12.6,4.4,12.6,4.4-2.5-2.3-2.2-4.4-2.2-4.4,5.1,4,11.9,4.2,11.9,4.2a4.22,4.22,0,0,1-2.8-2.7c3.4,1.8,10.5,1.7,10.5,1.7a7.5,7.5,0,0,1-3.3-3.9c4.7,3.4,11.9,3.9,11.9,3.9a8.86,8.86,0,0,1-3.5-4.8c4.8,2.2,12.9,2.1,12.9,2.1-38.5-42.3-79.7-5.5-79.7-5.5C207.4,275.6,226.1,274.5,226.1,274.5Z"/></g><g id="palm-2" data-name="palm"><rect class="cls-6" x="338.3" y="181.4" width="11.6" height="187.6"/><path class="cls-7" d="M342.6,190.4s-70.2,6.3-64.2,78.4c0,0,7.2-7.4,9.3-13.7a11,11,0,0,1,1.4,7.4s5.8-7.1,6.7-14.4a9.81,9.81,0,0,1,.8,6.4s6.2-6.4,7.5-11.1a5.39,5.39,0,0,1,.1,4.9s5.8-6.4,6.5-14.6c0,0,2.2,1.6,2.2,5.9,0,0,6.7-10.1,6.9-15.5,0,0,2.8.8,1.7,5C321.4,229,338.8,212.7,342.6,190.4Z"/><path class="cls-7" d="M342.6,190.4s-1.3-73.6-71.8-72.5c0,0,6.7,8,12.7,10.6a9.81,9.81,0,0,1-7.3.9s6.5,6.6,13.5,8a9,9,0,0,1-6.3.4s5.8,6.9,10.3,8.6c0,0-1.9,1.3-4.8-.2,0,0,5.8,6.5,13.8,7.8,0,0-1.7,2.2-5.9,1.8,0,0,9.4,7.7,14.6,8.3,0,0-1,2.8-4.9,1.4C306.5,165.5,321.2,184.8,342.6,190.4Z"/><path class="cls-7" d="M342.6,190.4s-59.3-53.1-114.7,7.9c0,0,11.7.2,18.5-3a12.21,12.21,0,0,1-5.1,6.9s10.4-.7,17.1-5.6a10.8,10.8,0,0,1-4.8,5.6s10.1.1,15.1-2.4c0,0-.5,2.6-4,3.9,0,0,9.8-.2,17.2-6,0,0,.4,3.1-3.2,6.4,0,0,13.5-2.3,18.2-6.4,0,0,1.5,2.9-2.8,5.3C294.1,202.9,321.1,204.5,342.6,190.4Z"/><path class="cls-7" d="M363.8,229c-1-4.2,1.7-5,1.7-5,.2,5.4,6.9,15.5,6.9,15.5,0-4.3,2.2-5.9,2.2-5.9.7,8.2,6.5,14.6,6.5,14.6a5.39,5.39,0,0,1,.1-4.9c1.4,4.7,7.5,11.1,7.5,11.1a9.81,9.81,0,0,1,.8-6.4c.9,7.2,6.7,14.4,6.7,14.4a11.2,11.2,0,0,1,1.4-7.4c2.1,6.3,9.3,13.7,9.3,13.7,5.9-72-64.2-78.4-64.2-78.4C346.4,212.7,363.8,229,363.8,229Z"/><g class="cls-8"><path class="cls-9" d="M363.8,229c-1-4.2,1.7-5,1.7-5,.2,5.4,6.9,15.5,6.9,15.5,0-4.3,2.2-5.9,2.2-5.9.7,8.2,6.5,14.6,6.5,14.6a5.39,5.39,0,0,1,.1-4.9c1.4,4.7,7.5,11.1,7.5,11.1a9.81,9.81,0,0,1,.8-6.4c.9,7.2,6.7,14.4,6.7,14.4a11.2,11.2,0,0,1,1.4-7.4c2.1,6.3,9.3,13.7,9.3,13.7,5.9-72-64.2-78.4-64.2-78.4C346.4,212.7,363.8,229,363.8,229Z"/></g><path class="cls-7" d="M378.7,165.5c-4,1.4-4.9-1.4-4.9-1.4,5.2-.6,14.6-8.3,14.6-8.3-4.2.3-5.9-1.8-5.9-1.8,7.9-1.3,13.8-7.8,13.8-7.8a4.84,4.84,0,0,1-4.8.2c4.5-1.8,10.3-8.6,10.3-8.6a9,9,0,0,1-6.3-.4c7-1.4,13.5-8,13.5-8a10.37,10.37,0,0,1-7.3-.9c6-2.6,12.7-10.6,12.7-10.6-70.5-1.1-71.8,72.5-71.8,72.5C364,184.8,378.7,165.5,378.7,165.5Z"/><g class="cls-10"><path class="cls-11" d="M342.6,190.4s-1.3-73.6-71.8-72.5c0,0,6.7,8,12.7,10.6a9.81,9.81,0,0,1-7.3.9s6.5,6.6,13.5,8a9,9,0,0,1-6.3.4s5.8,6.9,10.3,8.6c0,0-1.9,1.3-4.8-.2,0,0,5.8,6.5,13.8,7.8,0,0-1.7,2.2-5.9,1.8,0,0,9.4,7.7,14.6,8.3,0,0-1,2.8-4.9,1.4C306.5,165.5,321.2,184.8,342.6,190.4Z"/></g><g class="cls-10"><path class="cls-11" d="M378.7,165.5c-4,1.4-4.9-1.4-4.9-1.4,5.2-.6,14.6-8.3,14.6-8.3-4.2.3-5.9-1.8-5.9-1.8,7.9-1.3,13.8-7.8,13.8-7.8a4.84,4.84,0,0,1-4.8.2c4.5-1.8,10.3-8.6,10.3-8.6a9,9,0,0,1-6.3-.4c7-1.4,13.5-8,13.5-8a10.37,10.37,0,0,1-7.3-.9c6-2.6,12.7-10.6,12.7-10.6-70.5-1.1-71.8,72.5-71.8,72.5C364,184.8,378.7,165.5,378.7,165.5Z"/></g><path class="cls-7" d="M391.1,202.9c-4.3-2.4-2.8-5.3-2.8-5.3,4.6,4,18.2,6.4,18.2,6.4-3.6-3.3-3.2-6.4-3.2-6.4,7.4,5.8,17.2,6,17.2,6a6.16,6.16,0,0,1-4-3.9c5,2.5,15.1,2.4,15.1,2.4a11.91,11.91,0,0,1-4.8-5.6c6.7,4.9,17.1,5.6,17.1,5.6a12.79,12.79,0,0,1-5.1-6.9c6.9,3.2,18.5,3,18.5,3-55.4-60.9-114.7-7.9-114.7-7.9C364.1,204.5,391.1,202.9,391.1,202.9Z"/><g class="cls-8"><path class="cls-9" d="M342.6,190.4s-70.2,6.3-64.2,78.4c0,0,7.2-7.4,9.3-13.7a11,11,0,0,1,1.4,7.4s5.8-7.1,6.7-14.4a9.81,9.81,0,0,1,.8,6.4s6.2-6.4,7.5-11.1a5.39,5.39,0,0,1,.1,4.9s5.8-6.4,6.5-14.6c0,0,2.2,1.6,2.2,5.9,0,0,6.7-10.1,6.9-15.5,0,0,2.8.8,1.7,5C321.4,229,338.8,212.7,342.6,190.4Z"/></g></g><g id="palm-3" data-name="palm"><rect class="cls-6" x="1308.2" y="175.4" width="12.2" height="197"/><path class="cls-7" d="M1316,184.8s73.7,6.7,67.4,82.3c0,0-7.5-7.7-9.7-14.4a11.67,11.67,0,0,0-1.5,7.7s-6.1-7.5-7-15.1a9.89,9.89,0,0,0-.8,6.7s-6.5-6.7-7.9-11.7a5.45,5.45,0,0,0-.1,5.1s-6.1-6.7-6.8-15.3c0,0-2.3,1.7-2.3,6.2,0,0-7-10.6-7.2-16.2,0,0-2.9.8-1.8,5.2C1338.2,225.4,1320,208.2,1316,184.8Z"/><path class="cls-7" d="M1316,184.8s1.4-77.2,75.4-76.1c0,0-7,8.4-13.3,11.2a10.42,10.42,0,0,0,7.6,1s-6.9,6.9-14.2,8.4a9.91,9.91,0,0,0,6.6.4s-6.1,7.2-10.8,9.1c0,0,2,1.3,5-.2,0,0-6.1,6.8-14.4,8.2,0,0,1.8,2.3,6.2,1.9,0,0-9.8,8.1-15.3,8.7,0,0,1,3,5.2,1.5C1353.9,158.8,1338.5,178.9,1316,184.8Z"/><path class="cls-7" d="M1316,184.8s62.3-55.7,120.5,8.2c0,0-12.2.2-19.5-3.1a13.05,13.05,0,0,0,5.3,7.2s-10.9-.8-18-5.9a12.07,12.07,0,0,0,5,5.9s-10.6.1-15.8-2.5c0,0,.6,2.7,4.2,4.1,0,0-10.3-.2-18-6.3,0,0-.4,3.2,3.4,6.7,0,0-14.2-2.4-19.1-6.7,0,0-1.5,3.1,2.9,5.5C1366.9,198,1338.6,199.7,1316,184.8Z"/><path class="cls-7" d="M1293.7,225.4c1.1-4.4-1.8-5.2-1.8-5.2-.2,5.6-7.2,16.2-7.2,16.2,0-4.5-2.3-6.2-2.3-6.2-.7,8.6-6.8,15.3-6.8,15.3a5.45,5.45,0,0,0-.1-5.1c-1.4,4.9-7.9,11.7-7.9,11.7a9.89,9.89,0,0,0-.8-6.7c-.9,7.6-7,15.1-7,15.1a11,11,0,0,0-1.5-7.7c-2.2,6.6-9.7,14.4-9.7,14.4-6.2-75.6,67.4-82.3,67.4-82.3C1311.9,208.2,1293.7,225.4,1293.7,225.4Z"/><g class="cls-8"><path class="cls-9" d="M1316,184.8s73.7,6.7,67.4,82.3c0,0-7.5-7.7-9.7-14.4a11.67,11.67,0,0,0-1.5,7.7s-6.1-7.5-7-15.1a9.89,9.89,0,0,0-.8,6.7s-6.5-6.7-7.9-11.7a5.45,5.45,0,0,0-.1,5.1s-6.1-6.7-6.8-15.3c0,0-2.3,1.7-2.3,6.2,0,0-7-10.6-7.2-16.2,0,0-2.9.8-1.8,5.2C1338.2,225.4,1320,208.2,1316,184.8Z"/></g><g class="cls-8"><path class="cls-9" d="M1293.7,225.4c1.1-4.4-1.8-5.2-1.8-5.2-.2,5.6-7.2,16.2-7.2,16.2,0-4.5-2.3-6.2-2.3-6.2-.7,8.6-6.8,15.3-6.8,15.3a5.45,5.45,0,0,0-.1-5.1c-1.4,4.9-7.9,11.7-7.9,11.7a9.89,9.89,0,0,0-.8-6.7c-.9,7.6-7,15.1-7,15.1a11,11,0,0,0-1.5-7.7c-2.2,6.6-9.7,14.4-9.7,14.4-6.2-75.6,67.4-82.3,67.4-82.3C1311.9,208.2,1293.7,225.4,1293.7,225.4Z"/></g><path class="cls-7" d="M1278,158.8c4.2,1.5,5.2-1.5,5.2-1.5-5.5-.6-15.3-8.7-15.3-8.7,4.4.3,6.2-1.9,6.2-1.9-8.3-1.4-14.4-8.2-14.4-8.2,3,1.6,5,.2,5,.2-4.7-1.8-10.8-9.1-10.8-9.1a9.09,9.09,0,0,0,6.6-.4c-7.3-1.5-14.2-8.4-14.2-8.4a10.27,10.27,0,0,0,7.6-1c-6.3-2.7-13.3-11.2-13.3-11.2,74-1.1,75.4,76.1,75.4,76.1C1293.5,178.9,1278,158.8,1278,158.8Z"/><g class="cls-10"><path class="cls-11" d="M1316,184.8s1.4-77.2,75.4-76.1c0,0-7,8.4-13.3,11.2a10.42,10.42,0,0,0,7.6,1s-6.9,6.9-14.2,8.4a9.91,9.91,0,0,0,6.6.4s-6.1,7.2-10.8,9.1c0,0,2,1.3,5-.2,0,0-6.1,6.8-14.4,8.2,0,0,1.8,2.3,6.2,1.9,0,0-9.8,8.1-15.3,8.7,0,0,1,3,5.2,1.5C1353.9,158.8,1338.5,178.9,1316,184.8Z"/></g><g class="cls-10"><path class="cls-11" d="M1278,158.8c4.2,1.5,5.2-1.5,5.2-1.5-5.5-.6-15.3-8.7-15.3-8.7,4.4.3,6.2-1.9,6.2-1.9-8.3-1.4-14.4-8.2-14.4-8.2,3,1.6,5,.2,5,.2-4.7-1.8-10.8-9.1-10.8-9.1a9.09,9.09,0,0,0,6.6-.4c-7.3-1.5-14.2-8.4-14.2-8.4a10.27,10.27,0,0,0,7.6-1c-6.3-2.7-13.3-11.2-13.3-11.2,74-1.1,75.4,76.1,75.4,76.1C1293.5,178.9,1278,158.8,1278,158.8Z"/></g><path class="cls-7" d="M1265,198c4.5-2.5,2.9-5.5,2.9-5.5-4.9,4.2-19.1,6.7-19.1,6.7,3.7-3.5,3.4-6.7,3.4-6.7-7.7,6.1-18,6.3-18,6.3,3.6-1.4,4.2-4.1,4.2-4.1-5.2,2.7-15.8,2.5-15.8,2.5a12.07,12.07,0,0,0,5-5.9c-7.1,5.1-18,5.9-18,5.9a13.05,13.05,0,0,0,5.3-7.2c-7.2,3.4-19.5,3.1-19.5,3.1,58.2-64,120.5-8.2,120.5-8.2C1293.4,199.7,1265,198,1265,198Z"/></g><g id="palm-4" data-name="palm"><rect class="cls-6" x="1174.4" y="259.5" width="8.1" height="130.3"/><path class="cls-7" d="M1179.5,265.7s48.7,4.4,44.6,54.4c0,0-5-5.1-6.4-9.5a8,8,0,0,0-1,5.1s-4-4.9-4.6-10a7,7,0,0,0-.5,4.5s-4.3-4.4-5.2-7.7a3.78,3.78,0,0,0-.1,3.4,19.38,19.38,0,0,1-4.5-10.1s-1.5,1.1-1.5,4.1c0,0-4.6-7-4.8-10.7,0,0-1.9.6-1.2,3.4C1194.2,292.5,1182.1,281.2,1179.5,265.7Z"/><path class="cls-7" d="M1179.5,265.7s.9-51.1,49.8-50.4c0,0-4.6,5.6-8.8,7.4a6.88,6.88,0,0,0,5,.6s-4.5,4.6-9.4,5.6a6,6,0,0,0,4.4.2s-4,4.8-7.1,6a3.31,3.31,0,0,0,3.3-.1s-4,4.5-9.5,5.4c0,0,1.2,1.5,4.1,1.3,0,0-6.5,5.3-10.1,5.7,0,0,.7,2,3.4,1C1204.5,248.5,1194.3,261.8,1179.5,265.7Z"/><path class="cls-7" d="M1179.5,265.7s41.2-36.8,79.7,5.5c0,0-8.1.1-12.9-2.1a8.86,8.86,0,0,0,3.5,4.8s-7.2-.5-11.9-3.9a7.5,7.5,0,0,0,3.3,3.9s-7,.1-10.5-1.7a4.22,4.22,0,0,0,2.8,2.7s-6.8-.1-11.9-4.2c0,0-.2,2.1,2.2,4.4,0,0-9.4-1.6-12.6-4.4,0,0-1,2,1.9,3.7C1213.1,274.4,1194.4,275.5,1179.5,265.7Z"/><path class="cls-7" d="M1164.8,292.5c.7-2.9-1.2-3.4-1.2-3.4-.1,3.7-4.8,10.7-4.8,10.7,0-3-1.5-4.1-1.5-4.1a19.38,19.38,0,0,1-4.5,10.1,3.78,3.78,0,0,0-.1-3.4c-.9,3.3-5.2,7.7-5.2,7.7a7.18,7.18,0,0,0-.5-4.5c-.6,5-4.6,10-4.6,10a7.31,7.31,0,0,0-1-5.1c-1.4,4.4-6.4,9.5-6.4,9.5-4.1-50,44.6-54.4,44.6-54.4C1176.8,281.2,1164.8,292.5,1164.8,292.5Z"/><g class="cls-8"><path class="cls-9" d="M1179.5,265.7s48.7,4.4,44.6,54.4c0,0-5-5.1-6.4-9.5a8,8,0,0,0-1,5.1s-4-4.9-4.6-10a7,7,0,0,0-.5,4.5s-4.3-4.4-5.2-7.7a3.78,3.78,0,0,0-.1,3.4,19.38,19.38,0,0,1-4.5-10.1s-1.5,1.1-1.5,4.1c0,0-4.6-7-4.8-10.7,0,0-1.9.6-1.2,3.4C1194.2,292.5,1182.1,281.2,1179.5,265.7Z"/></g><g class="cls-8"><path class="cls-9" d="M1164.8,292.5c.7-2.9-1.2-3.4-1.2-3.4-.1,3.7-4.8,10.7-4.8,10.7,0-3-1.5-4.1-1.5-4.1a19.38,19.38,0,0,1-4.5,10.1,3.78,3.78,0,0,0-.1-3.4c-.9,3.3-5.2,7.7-5.2,7.7a7.18,7.18,0,0,0-.5-4.5c-.6,5-4.6,10-4.6,10a7.31,7.31,0,0,0-1-5.1c-1.4,4.4-6.4,9.5-6.4,9.5-4.1-50,44.6-54.4,44.6-54.4C1176.8,281.2,1164.8,292.5,1164.8,292.5Z"/></g><path class="cls-7" d="M1154.4,248.5c2.8,1,3.4-1,3.4-1-3.6-.4-10.1-5.7-10.1-5.7,2.9.2,4.1-1.3,4.1-1.3-5.5-.9-9.6-5.4-9.6-5.4a3.31,3.31,0,0,0,3.3.1c-3.1-1.2-7.1-6-7.1-6a6.63,6.63,0,0,0,4.4-.2c-4.8-1-9.4-5.6-9.4-5.6a6.88,6.88,0,0,0,5-.6c-4.2-1.8-8.8-7.4-8.8-7.4,48.9-.7,49.8,50.4,49.8,50.4C1164.6,261.8,1154.4,248.5,1154.4,248.5Z"/><g class="cls-10"><path class="cls-11" d="M1179.5,265.7s.9-51.1,49.8-50.4c0,0-4.6,5.6-8.8,7.4a6.88,6.88,0,0,0,5,.6s-4.5,4.6-9.4,5.6a6,6,0,0,0,4.4.2s-4,4.8-7.1,6a3.31,3.31,0,0,0,3.3-.1s-4,4.5-9.5,5.4c0,0,1.2,1.5,4.1,1.3,0,0-6.5,5.3-10.1,5.7,0,0,.7,2,3.4,1C1204.5,248.5,1194.3,261.8,1179.5,265.7Z"/></g><g class="cls-10"><path class="cls-11" d="M1154.4,248.5c2.8,1,3.4-1,3.4-1-3.6-.4-10.1-5.7-10.1-5.7,2.9.2,4.1-1.3,4.1-1.3-5.5-.9-9.6-5.4-9.6-5.4a3.31,3.31,0,0,0,3.3.1c-3.1-1.2-7.1-6-7.1-6a6.63,6.63,0,0,0,4.4-.2c-4.8-1-9.4-5.6-9.4-5.6a6.88,6.88,0,0,0,5-.6c-4.2-1.8-8.8-7.4-8.8-7.4,48.9-.7,49.8,50.4,49.8,50.4C1164.6,261.8,1154.4,248.5,1154.4,248.5Z"/></g><path class="cls-7" d="M1145.8,274.4c3-1.6,1.9-3.7,1.9-3.7-3.2,2.8-12.6,4.4-12.6,4.4,2.5-2.3,2.2-4.4,2.2-4.4-5.1,4-11.9,4.2-11.9,4.2a4.22,4.22,0,0,0,2.8-2.7c-3.4,1.8-10.5,1.7-10.5,1.7a7.5,7.5,0,0,0,3.3-3.9c-4.7,3.4-11.9,3.9-11.9,3.9a8.86,8.86,0,0,0,3.5-4.8c-4.8,2.2-12.9,2.1-12.9,2.1,38.5-42.3,79.7-5.5,79.7-5.5C1164.5,275.5,1145.8,274.4,1145.8,274.4Z"/></g><path class="cls-12" d="M552.6,218.8a8.8,8.8,0,1,1-8.8-8.8A8.81,8.81,0,0,1,552.6,218.8Z"/><path class="cls-12" d="M873.2,54.3a8.8,8.8,0,1,1-8.8-8.8A8.81,8.81,0,0,1,873.2,54.3Z"/><path class="cls-4" d="M-66.9,68.7H247.6a12.4,12.4,0,1,1,0,24.8H124.3a9.6,9.6,0,1,0,0,19.2h47.2a9.6,9.6,0,0,1,0,19.2h0a9.6,9.6,0,0,0,0,19.2h2.2a7.5,7.5,0,0,1,0,15H51.9a7.5,7.5,0,0,1,0-15H90.4a9.6,9.6,0,0,0,0-19.2H-53.3a9.6,9.6,0,0,1-9.6-9.6,9.6,9.6,0,0,1,9.6-9.6H-7.9a9.6,9.6,0,0,0,9.6-9.6,9.6,9.6,0,0,0-9.6-9.6h-59A12.4,12.4,0,0,1-79.3,81.1,12.4,12.4,0,0,1-66.9,68.7Z"/><path class="cls-4" d="M1203.7-9.3h314.5a12.4,12.4,0,0,1,12.4,12.4,12.46,12.46,0,0,1-12.4,12.4H1394.8a9.6,9.6,0,1,0,0,19.2H1442a9.6,9.6,0,0,1,0,19.2h0a9.6,9.6,0,1,0,0,19.2h2.2a7.5,7.5,0,0,1,0,15H1322.5a7.5,7.5,0,0,1,0-15H1361a9.6,9.6,0,0,0,0-19.2H1217.3a9.6,9.6,0,1,1,0-19.2h45.4a9.6,9.6,0,0,0,0-19.2h-59a12.4,12.4,0,0,1-12.4-12.4A12.46,12.46,0,0,1,1203.7-9.3Z"/><path class="cls-4" d="M1166.8,111.9H931.2c-5.7,0-10.3,5.1-10.3,11.4s4.6,11.4,10.3,11.4h48.2a11.42,11.42,0,0,1,6.4,10.6c0,6.3-4.6,11.4-10.3,11.4h-8c-4.6,0-8.3,4.1-8.3,9.2s3.7,9.2,8.3,9.2h118.2c4.6,0,8.3-4.1,8.3-9.2s-3.7-9.2-8.3-9.2h-.3c-5.7,0-10.3-5.1-10.3-11.4a11.42,11.42,0,0,1,6.4-10.6h85.3c5.7,0,10.3-5.1,10.3-11.4S1172.4,111.9,1166.8,111.9Z"/><path class="cls-4" d="M562.7,91.2H530.6c-5.8,0-10.6-4.1-10.6-9.1s4.7-9.1,10.6-9.1h3c7,0,12.6-4.8,12.6-10.8s-5.6-10.8-12.6-10.8H431.9c-7,0-12.6,4.8-12.6,10.8S424.9,73,431.9,73h11.3c5.8,0,10.6,4.1,10.6,9.1s-4.7,9.1-10.6,9.1H407.1c-5.5,0-9.9,3.8-9.9,8.5s4.4,8.5,9.9,8.5H562.7c5.5,0,9.9-3.8,9.9-8.5S568.2,91.2,562.7,91.2Z"/><path class="cls-4" d="M908.9,310.8h172.8a6.8,6.8,0,0,1,0,13.6h-67.8a5.3,5.3,0,1,0,0,10.6h25.9a5.3,5.3,0,0,1,0,10.6h0a5.3,5.3,0,1,0,0,10.6h1.2a4.1,4.1,0,0,1,0,8.2H974.1a4.1,4.1,0,0,1,0-8.2h21.1a5.3,5.3,0,0,0,0-10.6H916.3a5.3,5.3,0,1,1,0-10.6h25a5.3,5.3,0,1,0,0-10.6H908.9a6.8,6.8,0,1,1,0-13.6Z"/><path class="cls-4" d="M669.3,147H842a6.8,6.8,0,0,1,0,13.6H774.2a5.3,5.3,0,0,0,0,10.6h25.9a5.3,5.3,0,0,1,0,10.6h0a5.3,5.3,0,0,0,0,10.6h1.2a4.1,4.1,0,1,1,0,8.2H734.4a4.1,4.1,0,0,1,0-8.2h21.1a5.3,5.3,0,0,0,0-10.6H676.6a5.3,5.3,0,0,1,0-10.6h25a5.3,5.3,0,0,0,0-10.6H669.2a6.81,6.81,0,0,1-6.8-6.8A6.89,6.89,0,0,1,669.3,147Z"/><g id="palm-5" data-name="palm"><rect class="cls-6" x="1022" y="181.4" width="11.6" height="187.6"/><path class="cls-7" d="M1029.3,190.3s70.2,6.3,64.2,78.4c0,0-7.2-7.4-9.3-13.7a11,11,0,0,0-1.4,7.4s-5.8-7.1-6.7-14.4a9.81,9.81,0,0,0-.8,6.4s-6.2-6.4-7.5-11.1a5.39,5.39,0,0,0-.1,4.9s-5.8-6.4-6.5-14.6c0,0-2.2,1.6-2.2,5.9,0,0-6.7-10.1-6.9-15.5,0,0-2.8.8-1.7,5C1050.5,228.9,1033.1,212.6,1029.3,190.3Z"/><path class="cls-7" d="M1029.3,190.3s1.3-73.6,71.8-72.5c0,0-6.7,8-12.7,10.6a9.81,9.81,0,0,0,7.3.9s-6.5,6.6-13.5,8a9,9,0,0,0,6.3.4s-5.8,6.9-10.3,8.6c0,0,1.9,1.3,4.8-.2,0,0-5.8,6.5-13.8,7.8,0,0,1.7,2.2,5.9,1.8,0,0-9.4,7.7-14.6,8.3,0,0,1,2.8,4.9,1.4C1065.4,165.5,1050.8,184.7,1029.3,190.3Z"/><path class="cls-7" d="M1029.3,190.3s59.3-53.1,114.7,7.9c0,0-11.7.2-18.5-3a12.21,12.21,0,0,0,5.1,6.9s-10.4-.7-17.1-5.6a10.8,10.8,0,0,0,4.8,5.6s-10.1.1-15.1-2.4c0,0,.5,2.6,4,3.9,0,0-9.8-.2-17.2-6,0,0-.4,3.1,3.2,6.4,0,0-13.5-2.3-18.2-6.4,0,0-1.5,2.9,2.8,5.3C1077.8,202.9,1050.8,204.5,1029.3,190.3Z"/><path class="cls-7" d="M1008.2,228.9c1-4.2-1.7-5-1.7-5-.2,5.4-6.9,15.5-6.9,15.5,0-4.3-2.2-5.9-2.2-5.9-.7,8.2-6.5,14.6-6.5,14.6a5.39,5.39,0,0,0-.1-4.9c-1.4,4.7-7.5,11.1-7.5,11.1a9.81,9.81,0,0,0-.8-6.4c-.9,7.2-6.7,14.4-6.7,14.4a11.2,11.2,0,0,0-1.4-7.4c-2.1,6.3-9.3,13.7-9.3,13.7-5.9-72,64.2-78.4,64.2-78.4C1025.5,212.6,1008.2,228.9,1008.2,228.9Z"/><g class="cls-8"><path class="cls-9" d="M1029.3,190.3s70.2,6.3,64.2,78.4c0,0-7.2-7.4-9.3-13.7a11,11,0,0,0-1.4,7.4s-5.8-7.1-6.7-14.4a9.81,9.81,0,0,0-.8,6.4s-6.2-6.4-7.5-11.1a5.39,5.39,0,0,0-.1,4.9s-5.8-6.4-6.5-14.6c0,0-2.2,1.6-2.2,5.9,0,0-6.7-10.1-6.9-15.5,0,0-2.8.8-1.7,5C1050.5,228.9,1033.1,212.6,1029.3,190.3Z"/></g><g class="cls-8"><path class="cls-9" d="M1008.2,228.9c1-4.2-1.7-5-1.7-5-.2,5.4-6.9,15.5-6.9,15.5,0-4.3-2.2-5.9-2.2-5.9-.7,8.2-6.5,14.6-6.5,14.6a5.39,5.39,0,0,0-.1-4.9c-1.4,4.7-7.5,11.1-7.5,11.1a9.81,9.81,0,0,0-.8-6.4c-.9,7.2-6.7,14.4-6.7,14.4a11.2,11.2,0,0,0-1.4-7.4c-2.1,6.3-9.3,13.7-9.3,13.7-5.9-72,64.2-78.4,64.2-78.4C1025.5,212.6,1008.2,228.9,1008.2,228.9Z"/></g><path class="cls-7" d="M993.2,165.5c4,1.4,4.9-1.4,4.9-1.4-5.2-.6-14.6-8.3-14.6-8.3,4.2.3,5.9-1.8,5.9-1.8-7.9-1.3-13.8-7.8-13.8-7.8a4.84,4.84,0,0,0,4.8.2c-4.5-1.8-10.3-8.6-10.3-8.6a9,9,0,0,0,6.3-.4c-7-1.4-13.5-8-13.5-8a10.37,10.37,0,0,0,7.3-.9c-6-2.6-12.7-10.6-12.7-10.6,70.5-1.1,71.8,72.5,71.8,72.5C1007.9,184.7,993.2,165.5,993.2,165.5Z"/><g class="cls-10"><path class="cls-11" d="M1029.3,190.3s1.3-73.6,71.8-72.5c0,0-6.7,8-12.7,10.6a9.81,9.81,0,0,0,7.3.9s-6.5,6.6-13.5,8a9,9,0,0,0,6.3.4s-5.8,6.9-10.3,8.6c0,0,1.9,1.3,4.8-.2,0,0-5.8,6.5-13.8,7.8,0,0,1.7,2.2,5.9,1.8,0,0-9.4,7.7-14.6,8.3,0,0,1,2.8,4.9,1.4C1065.4,165.5,1050.8,184.7,1029.3,190.3Z"/></g><g class="cls-10"><path class="cls-11" d="M993.2,165.5c4,1.4,4.9-1.4,4.9-1.4-5.2-.6-14.6-8.3-14.6-8.3,4.2.3,5.9-1.8,5.9-1.8-7.9-1.3-13.8-7.8-13.8-7.8a4.84,4.84,0,0,0,4.8.2c-4.5-1.8-10.3-8.6-10.3-8.6a9,9,0,0,0,6.3-.4c-7-1.4-13.5-8-13.5-8a10.37,10.37,0,0,0,7.3-.9c-6-2.6-12.7-10.6-12.7-10.6,70.5-1.1,71.8,72.5,71.8,72.5C1007.9,184.7,993.2,165.5,993.2,165.5Z"/></g><path class="cls-7" d="M980.8,202.9c4.3-2.4,2.8-5.3,2.8-5.3-4.6,4-18.2,6.4-18.2,6.4,3.6-3.3,3.2-6.4,3.2-6.4-7.4,5.8-17.2,6-17.2,6a6.16,6.16,0,0,0,4-3.9c-5,2.5-15.1,2.4-15.1,2.4a11.91,11.91,0,0,0,4.8-5.6c-6.7,4.9-17.1,5.6-17.1,5.6a12.79,12.79,0,0,0,5.1-6.9c-6.9,3.2-18.5,3-18.5,3,55.4-60.9,114.7-7.9,114.7-7.9C1007.8,204.5,980.8,202.9,980.8,202.9Z"/></g><circle class="cls-13" cx="691.43" cy="363.84" r="275.64"/><circle class="cls-14" cx="691.43" cy="363.84" r="239.9" transform="translate(-54.76 595.48) rotate(-45)"/><g id="palm-6" data-name="palm"><rect class="cls-6" x="51.5" y="175.5" width="12.2" height="197"/><path class="cls-7" d="M56,184.9s-73.7,6.7-67.4,82.3c0,0,7.5-7.7,9.7-14.4a11.67,11.67,0,0,1,1.5,7.7s6.1-7.5,7-15.1a9.89,9.89,0,0,1,.8,6.7s6.5-6.7,7.9-11.7a5.45,5.45,0,0,1,.1,5.1s6.1-6.7,6.8-15.3c0,0,2.3,1.7,2.3,6.2,0,0,7-10.6,7.2-16.2,0,0,2.9.8,1.8,5.2C33.7,225.4,51.9,208.3,56,184.9Z"/><path class="cls-7" d="M56,184.9s-1.4-77.2-75.4-76.1c0,0,7,8.4,13.3,11.2a10.42,10.42,0,0,1-7.6,1s6.9,6.9,14.2,8.4a9.91,9.91,0,0,1-6.6.4S0,137,4.7,138.9c0,0-2,1.3-5-.2,0,0,6.1,6.8,14.4,8.2,0,0-1.8,2.3-6.2,1.9,0,0,9.8,8.1,15.3,8.7,0,0-1,3-5.2,1.5C18,158.8,33.5,179,56,184.9Z"/><path class="cls-7" d="M56,184.9s-62.3-55.7-120.5,8.2c0,0,12.2.2,19.5-3.1a13.05,13.05,0,0,1-5.3,7.2s10.9-.8,18-5.9a12.07,12.07,0,0,1-5,5.9s10.6.1,15.8-2.5c0,0-.6,2.7-4.2,4.1,0,0,10.3-.2,18-6.3,0,0,.4,3.2-3.4,6.7,0,0,14.2-2.4,19.1-6.7,0,0,1.5,3.1-2.9,5.5C5,198,33.4,199.8,56,184.9Z"/><path class="cls-7" d="M78.2,225.4c-1.1-4.4,1.8-5.2,1.8-5.2.2,5.6,7.2,16.2,7.2,16.2,0-4.5,2.3-6.2,2.3-6.2.7,8.6,6.8,15.3,6.8,15.3a5.45,5.45,0,0,1,.1-5.1c1.4,4.9,7.9,11.7,7.9,11.7a9.89,9.89,0,0,1,.8-6.7c.9,7.6,7,15.1,7,15.1a11,11,0,0,1,1.5-7.7c2.2,6.6,9.7,14.4,9.7,14.4,6.2-75.6-67.4-82.3-67.4-82.3C60,208.3,78.2,225.4,78.2,225.4Z"/><g class="cls-8"><path class="cls-9" d="M56,184.9s-73.7,6.7-67.4,82.3c0,0,7.5-7.7,9.7-14.4a11.67,11.67,0,0,1,1.5,7.7s6.1-7.5,7-15.1a9.89,9.89,0,0,1,.8,6.7s6.5-6.7,7.9-11.7a5.45,5.45,0,0,1,.1,5.1s6.1-6.7,6.8-15.3c0,0,2.3,1.7,2.3,6.2,0,0,7-10.6,7.2-16.2,0,0,2.9.8,1.8,5.2C33.7,225.4,51.9,208.3,56,184.9Z"/></g><g class="cls-8"><path class="cls-9" d="M78.2,225.4c-1.1-4.4,1.8-5.2,1.8-5.2.2,5.6,7.2,16.2,7.2,16.2,0-4.5,2.3-6.2,2.3-6.2.7,8.6,6.8,15.3,6.8,15.3a5.45,5.45,0,0,1,.1-5.1c1.4,4.9,7.9,11.7,7.9,11.7a9.89,9.89,0,0,1,.8-6.7c.9,7.6,7,15.1,7,15.1a11,11,0,0,1,1.5-7.7c2.2,6.6,9.7,14.4,9.7,14.4,6.2-75.6-67.4-82.3-67.4-82.3C60,208.3,78.2,225.4,78.2,225.4Z"/></g><path class="cls-7" d="M93.9,158.8c-4.2,1.5-5.2-1.5-5.2-1.5,5.5-.6,15.3-8.7,15.3-8.7-4.4.3-6.2-1.9-6.2-1.9,8.3-1.4,14.4-8.2,14.4-8.2-3,1.6-5,.2-5,.2,4.7-1.8,10.8-9.1,10.8-9.1a9.09,9.09,0,0,1-6.6-.4c7.3-1.5,14.2-8.4,14.2-8.4a10.27,10.27,0,0,1-7.6-1c6.3-2.7,13.3-11.2,13.3-11.2-74-1.1-75.4,76.1-75.4,76.1C78.5,179,93.9,158.8,93.9,158.8Z"/><g class="cls-10"><path class="cls-11" d="M56,184.9s-1.4-77.2-75.4-76.1c0,0,7,8.4,13.3,11.2a10.42,10.42,0,0,1-7.6,1s6.9,6.9,14.2,8.4a9.91,9.91,0,0,1-6.6.4S0,137,4.7,138.9c0,0-2,1.3-5-.2,0,0,6.1,6.8,14.4,8.2,0,0-1.8,2.3-6.2,1.9,0,0,9.8,8.1,15.3,8.7,0,0-1,3-5.2,1.5C18,158.8,33.5,179,56,184.9Z"/></g><g class="cls-10"><path class="cls-11" d="M93.9,158.8c-4.2,1.5-5.2-1.5-5.2-1.5,5.5-.6,15.3-8.7,15.3-8.7-4.4.3-6.2-1.9-6.2-1.9,8.3-1.4,14.4-8.2,14.4-8.2-3,1.6-5,.2-5,.2,4.7-1.8,10.8-9.1,10.8-9.1a9.09,9.09,0,0,1-6.6-.4c7.3-1.5,14.2-8.4,14.2-8.4a10.27,10.27,0,0,1-7.6-1c6.3-2.7,13.3-11.2,13.3-11.2-74-1.1-75.4,76.1-75.4,76.1C78.5,179,93.9,158.8,93.9,158.8Z"/></g><path class="cls-7" d="M106.9,198c-4.5-2.5-2.9-5.5-2.9-5.5,4.9,4.2,19.1,6.7,19.1,6.7-3.7-3.5-3.4-6.7-3.4-6.7,7.7,6.1,18,6.3,18,6.3-3.6-1.4-4.2-4.1-4.2-4.1,5.2,2.7,15.8,2.5,15.8,2.5a12.07,12.07,0,0,1-5-5.9c7.1,5.1,18,5.9,18,5.9A13.05,13.05,0,0,1,157,190c7.2,3.4,19.5,3.1,19.5,3.1-58.2-64-120.5-8.2-120.5-8.2C78.6,199.8,106.9,198,106.9,198Z"/></g><path class="cls-5" d="M139.5,348.8a3.1,3.1,0,1,1-3.1-3.1A3.25,3.25,0,0,1,139.5,348.8Z"/><path class="cls-5" d="M257.6,315.1a2.4,2.4,0,1,1-2.4-2.4A2.31,2.31,0,0,1,257.6,315.1Z"/><path class="cls-5" d="M312.1,325.4a.9.9,0,1,1-.9-.9A.9.9,0,0,1,312.1,325.4Z"/><path class="cls-5" d="M167.5,402.3a1.8,1.8,0,1,1-1.8-1.8A1.79,1.79,0,0,1,167.5,402.3Z"/><path class="cls-5" d="M75.8,448.5a1.1,1.1,0,1,1-1.1-1.1A1.11,1.11,0,0,1,75.8,448.5Z"/><path class="cls-5" d="M116.7,476a1.2,1.2,0,1,1-1.2-1.2A1.22,1.22,0,0,1,116.7,476Z"/><path class="cls-5" d="M37.6,494.4a.7.7,0,1,1-.7-.7A.68.68,0,0,1,37.6,494.4Z"/><circle class="cls-5" cx="74.7" cy="407.7" r="1.1"/><path class="cls-5" d="M217.2,437.2A2.2,2.2,0,1,1,215,435,2.22,2.22,0,0,1,217.2,437.2Z"/><path class="cls-5" d="M217.5,465.8a1.2,1.2,0,1,1-1.2-1.2A1.22,1.22,0,0,1,217.5,465.8Z"/><path class="cls-5" d="M142.7,502.9a1.6,1.6,0,1,1-1.6-1.6A1.58,1.58,0,0,1,142.7,502.9Z"/><path class="cls-5" d="M240.2,353.3a1.4,1.4,0,1,1-1.4-1.4A1.37,1.37,0,0,1,240.2,353.3Z"/><path class="cls-5" d="M409.8,387.8a1.3,1.3,0,1,1-1.3-1.3A1.21,1.21,0,0,1,409.8,387.8Z"/><circle class="cls-5" cx="462.1" cy="332.1" r="1.7"/><path class="cls-5" d="M518.4,387.8a1.3,1.3,0,1,1-1.3-1.3A1.21,1.21,0,0,1,518.4,387.8Z"/><circle class="cls-5" cx="572.2" cy="468.2" r="2.4"/><circle class="cls-5" cx="594.5" cy="513.3" r="2.1"/><path class="cls-5" d="M459.5,449.4a2.1,2.1,0,1,1-2.1-2.1A2.18,2.18,0,0,1,459.5,449.4Z"/><path class="cls-5" d="M496.1,424.6a1.5,1.5,0,1,1-1.5-1.5A1.54,1.54,0,0,1,496.1,424.6Z"/><path class="cls-5" d="M401.8,292.8a1.7,1.7,0,1,1-1.7-1.7A1.75,1.75,0,0,1,401.8,292.8Z"/><path class="cls-5" d="M371.4,331.3a.8.8,0,1,1-.8-.8C371.1,330.4,371.4,330.8,371.4,331.3Z"/><path class="cls-5" d="M415.8,344.4a1.3,1.3,0,1,1-1.3-1.3A1.32,1.32,0,0,1,415.8,344.4Z"/><path class="cls-5" d="M604.4,450.5a3.2,3.2,0,1,1-3.2-3.2A3.29,3.29,0,0,1,604.4,450.5Z"/><path class="cls-5" d="M400.1,448.2a.8.8,0,1,1-.8-.8A.86.86,0,0,1,400.1,448.2Z"/><path class="cls-5" d="M312.5,367.4a1.7,1.7,0,1,1-1.7-1.7A1.75,1.75,0,0,1,312.5,367.4Z"/><circle class="cls-5" cx="341.8" cy="287.1" r="4"/><path class="cls-5" d="M216.2,292.8a1.7,1.7,0,1,1-1.7-1.7A1.69,1.69,0,0,1,216.2,292.8Z"/><circle class="cls-5" cx="44.1" cy="528.8" r="1"/><path class="cls-5" d="M7.1,538.1A2.05,2.05,0,0,1,5,540.2,2.1,2.1,0,0,1,5,536,2,2,0,0,1,7.1,538.1Z"/><path class="cls-5" d="M115.5,537.8a1.9,1.9,0,0,1-1.9,1.9,1.84,1.84,0,0,1-1.9-1.9,1.9,1.9,0,0,1,3.8,0Z"/><path class="cls-5" d="M207.3,510.1a2.3,2.3,0,1,1-2.3-2.3A2.26,2.26,0,0,1,207.3,510.1Z"/><path class="cls-5" d="M149.1,449.5a2.1,2.1,0,1,1-2.1-2.1A2.05,2.05,0,0,1,149.1,449.5Z"/><circle class="cls-5" cx="270.1" cy="376.8" r="1.7"/><path class="cls-5" d="M572.2,403.5a1.2,1.2,0,1,1-1.2-1.2A1.16,1.16,0,0,1,572.2,403.5Z"/><path class="cls-5" d="M635.2,548.3a3,3,0,1,1-3-3A3,3,0,0,1,635.2,548.3Z"/><path class="cls-5" d="M415.8,489.1a1.3,1.3,0,1,1-1.3-1.3A1.32,1.32,0,0,1,415.8,489.1Z"/><path class="cls-5" d="M182.9,325.4a.9.9,0,1,1-.9-.9A.9.9,0,0,1,182.9,325.4Z"/><circle class="cls-5" cx="115.6" cy="359.8" r="2"/><path class="cls-5" d="M377.7,382.9a.9.9,0,1,1-.9-.9A.9.9,0,0,1,377.7,382.9Z"/><path class="cls-5" d="M520.5,350.5a1.7,1.7,0,1,1-1.7-1.7A1.75,1.75,0,0,1,520.5,350.5Z"/><path class="cls-5" d="M557.8,408.8a.7.7,0,1,1-.7-.7A.68.68,0,0,1,557.8,408.8Z"/><path class="cls-5" d="M449.9,481.6a1.8,1.8,0,1,1-1.8-1.8A1.79,1.79,0,0,1,449.9,481.6Z"/><path class="cls-5" d="M347.2,397.7a2,2,0,1,1-2-2A2.07,2.07,0,0,1,347.2,397.7Z"/><circle class="cls-5" cx="511" cy="466" r="2"/><path class="cls-5" d="M637.6,499a2.2,2.2,0,1,1-2.2-2.2A2.22,2.22,0,0,1,637.6,499Z"/><path class="cls-5" d="M557.8,509.9a2.1,2.1,0,1,1-2.1-2.1A2.05,2.05,0,0,1,557.8,509.9Z"/><rect class="cls-15" x="-98" y="384.9" width="1569.8" height="317"/><path class="cls-16" d="M923.2,392.2v-.3c0-3.6-6.9-6.4-15.5-6.4H462.4c-8.6,0-15.5,2.9-15.5,6.4v.3c0,3.6,6.9,6.4,15.5,6.4h69.5c8.6,0,15.5,2.9,15.5,6.4h0c0,3.6-6.9,6.4-15.5,6.4H519.8c-8.6,0-15.5,2.9-15.5,6.4v.3c0,3.6,6.9,6.4,15.5,6.4H867.7c8.6,0,15.5-2.9,15.5-6.4v-.3c0-3.6-6.9-6.4-15.5-6.4h-4.9c-8.6,0-15.5-2.9-15.5-6.4h0c0-3.6,6.9-6.4,15.5-6.4h44.9C916.3,398.6,923.2,395.8,923.2,392.2Z"/><path class="cls-17" d="M1379.2,698v22.9H1V533.7H860.4c33.7,0,61,12.9,61,28.9,0,8-6.8,15.2-17.9,20.4s-26.3,8.5-43.2,8.5h-7c-22.2,0-40.2,8.5-40.2,19.1,0,4.9,3.9,9.4,10.3,12.7s15.4,5.7,25.6,6.2C950.7,634.7,1241.3,652.9,1379.2,698Z"/><path class="cls-16" d="M398.4,383.3V383c0-2.6-6.1-4.6-13.6-4.6H-4.8c-7.5,0-13.6,2.1-13.6,4.6v.2c0,2.6,6.1,4.6,13.6,4.6H56c7.5,0,13.6,2.1,13.6,4.6h0c0,2.6-6.1,4.6-13.6,4.6H45.4c-7.5,0-13.6,2.1-13.6,4.6v.2c0,2.6,6.1,4.6,13.6,4.6H349.9c7.5,0,13.6-2.1,13.6-4.6v-.2c0-2.6-6.1-4.6-13.6-4.6h-4.3c-7.5,0-13.6-2.1-13.6-4.6h0c0-2.6,6.1-4.6,13.6-4.6h39.3C392.4,387.9,398.4,385.8,398.4,383.3Z"/><path class="cls-16" d="M1388.6,385.1v-.3c0-2.9-6.1-5.2-13.6-5.2H985.4c-7.5,0-13.6,2.3-13.6,5.2v.3c0,2.9,6.1,5.2,13.6,5.2h60.8c7.5,0,13.6,2.3,13.6,5.2h0c0,2.9-6.1,5.2-13.6,5.2h-10.5c-7.5,0-13.6,2.3-13.6,5.2v.3c0,2.9,6.1,5.2,13.6,5.2h304.5c7.5,0,13.6-2.3,13.6-5.2v-.3c0-2.9-6.1-5.2-13.6-5.2h-4.3c-7.5,0-13.6-2.3-13.6-5.2h0c0-2.9,6.1-5.2,13.6-5.2h39.3C1382.6,390.3,1388.6,388,1388.6,385.1Z"/><path class="cls-18" d="M112.4,597.4a3,3,0,1,1-2.5-3.5A3,3,0,0,1,112.4,597.4Z"/><path class="cls-18" d="M234.5,583.5a2.43,2.43,0,1,1-2-2.8A2.35,2.35,0,0,1,234.5,583.5Z"/><path class="cls-18" d="M286.5,602.6a.86.86,0,1,1-.7-1A.82.82,0,0,1,286.5,602.6Z"/><path class="cls-18" d="M131.4,654.7a1.82,1.82,0,1,1-1.5-2.1A2,2,0,0,1,131.4,654.7Z"/><path class="cls-18" d="M33.3,685.3a1.06,1.06,0,1,1-.9-1.2A1,1,0,0,1,33.3,685.3Z"/><circle class="cls-18" cx="38.9" cy="644.9" r="1.1"/><path class="cls-18" d="M174.6,697.3a2.18,2.18,0,1,1-1.8-2.5A2.16,2.16,0,0,1,174.6,697.3Z"/><path class="cls-18" d="M76.6,643.8a2.44,2.44,0,0,0-.7-.1,3.2,3.2,0,0,0-.7-.1,2.44,2.44,0,0,0,.7.1A3.2,3.2,0,0,0,76.6,643.8Z"/><path class="cls-18" d="M211.1,618.4a1.47,1.47,0,1,1-1.2-1.7A1.48,1.48,0,0,1,211.1,618.4Z"/><path class="cls-18" d="M372.7,680.1a1.32,1.32,0,1,1-1.1-1.5A1.34,1.34,0,0,1,372.7,680.1Z"/><circle class="cls-18" cx="433.4" cy="633.8" r="1.7"/><path class="cls-18" d="M479.9,697.9a1.32,1.32,0,1,1-1.1-1.5A1.34,1.34,0,0,1,479.9,697.9Z"/><path class="cls-18" d="M380.4,585.1a1.67,1.67,0,1,1-1.4-1.9A1.69,1.69,0,0,1,380.4,585.1Z"/><path class="cls-18" d="M344.1,618.1a.86.86,0,1,1-.7-1A.82.82,0,0,1,344.1,618.1Z"/><path class="cls-18" d="M385.7,638.3a1.32,1.32,0,1,1-1.1-1.5A1.27,1.27,0,0,1,385.7,638.3Z"/><path class="cls-18" d="M280.1,644.1a1.67,1.67,0,1,1-3.3-.5,1.69,1.69,0,0,1,1.9-1.4A1.62,1.62,0,0,1,280.1,644.1Z"/><circle class="cls-18" cx="322.1" cy="569.6" r="4"/><path class="cls-18" d="M197.3,554.7a1.67,1.67,0,1,1-1.4-1.9A1.56,1.56,0,0,1,197.3,554.7Z"/><path class="cls-18" d="M184.9,630a3.78,3.78,0,0,0-.8-.1,4.53,4.53,0,0,0-.8-.1,3.78,3.78,0,0,0,.8.1A3.78,3.78,0,0,1,184.9,630Z"/><path class="cls-18" d="M105.4,698.3a2.08,2.08,0,1,1-1.7-2.4A2,2,0,0,1,105.4,698.3Z"/><circle class="cls-18" cx="236.8" cy="646.4" r="1.7"/><path class="cls-18" d="M159.1,581.4a.86.86,0,1,1-.7-1A.87.87,0,0,1,159.1,581.4Z"/><circle class="cls-18" cx="87.1" cy="604.3" r="2"/><path class="cls-18" d="M341.9,670a.86.86,0,1,1-.7-1A1,1,0,0,1,341.9,670Z"/><path class="cls-18" d="M488,661.5a1.67,1.67,0,1,1-1.4-1.9A1.69,1.69,0,0,1,488,661.5Z"/><path class="cls-18" d="M309.4,679.7a2,2,0,1,1-1.6-2.3A2.11,2.11,0,0,1,309.4,679.7Z"/><path class="cls-18" d="M435,589.4a3,3,0,1,1-2.5-3.5A3.19,3.19,0,0,1,435,589.4Z"/><path class="cls-18" d="M557.1,575.5a2.43,2.43,0,1,1-2-2.8A2.47,2.47,0,0,1,557.1,575.5Z"/><path class="cls-18" d="M609.1,594.6a.86.86,0,1,1-.7-1A1,1,0,0,1,609.1,594.6Z"/><path class="cls-18" d="M453.9,646.8a1.82,1.82,0,1,1-1.5-2.1A1.76,1.76,0,0,1,453.9,646.8Z"/><path class="cls-18" d="M355.8,677.3a1.06,1.06,0,1,1-.9-1.2A1,1,0,0,1,355.8,677.3Z"/><circle class="cls-18" cx="361.4" cy="636.9" r="1.1"/><path class="cls-18" d="M497.2,689.3a2.18,2.18,0,1,1-1.8-2.5A2.21,2.21,0,0,1,497.2,689.3Z"/><path class="cls-18" d="M399.2,635.8a2.44,2.44,0,0,0-.7-.1,3.2,3.2,0,0,0-.7-.1,2.44,2.44,0,0,0,.7.1A2.64,2.64,0,0,0,399.2,635.8Z"/><path class="cls-18" d="M533.6,610.4a1.47,1.47,0,1,1-1.2-1.7A1.46,1.46,0,0,1,533.6,610.4Z"/><path class="cls-18" d="M695.2,672.1a1.32,1.32,0,1,1-1.1-1.5A1.21,1.21,0,0,1,695.2,672.1Z"/><circle class="cls-18" cx="756" cy="625.8" r="1.7"/><path class="cls-18" d="M802.4,689.9a1.32,1.32,0,1,1-1.1-1.5A1.21,1.21,0,0,1,802.4,689.9Z"/><path class="cls-18" d="M702.9,577.1a1.67,1.67,0,1,1-1.4-1.9A1.62,1.62,0,0,1,702.9,577.1Z"/><path class="cls-18" d="M666.7,610.1a.86.86,0,1,1-.7-1A.9.9,0,0,1,666.7,610.1Z"/><path class="cls-18" d="M708.3,630.4a1.32,1.32,0,1,1-1.1-1.5A1.24,1.24,0,0,1,708.3,630.4Z"/><path class="cls-18" d="M602.6,636.1a1.67,1.67,0,1,1-3.3-.5,1.69,1.69,0,0,1,1.9-1.4A1.6,1.6,0,0,1,602.6,636.1Z"/><circle class="cls-18" cx="644.6" cy="561.7" r="4"/><path class="cls-18" d="M519.9,546.7a1.67,1.67,0,1,1-1.4-1.9A1.69,1.69,0,0,1,519.9,546.7Z"/><path class="cls-18" d="M507.4,622a3.78,3.78,0,0,0-.8-.1,4.53,4.53,0,0,0-.8-.1,3.78,3.78,0,0,0,.8.1A3.78,3.78,0,0,1,507.4,622Z"/><path class="cls-18" d="M428,690.3a2.08,2.08,0,1,1-1.7-2.4A2.12,2.12,0,0,1,428,690.3Z"/><circle class="cls-18" cx="559.3" cy="638.4" r="1.7"/><path class="cls-18" d="M481.6,573.5a.86.86,0,1,1-.7-1A.78.78,0,0,1,481.6,573.5Z"/><circle class="cls-18" cx="409.6" cy="596.3" r="2"/><path class="cls-18" d="M664.4,662a.86.86,0,1,1-.7-1A1,1,0,0,1,664.4,662Z"/><path class="cls-18" d="M810.5,653.5a1.67,1.67,0,1,1-1.4-1.9A1.56,1.56,0,0,1,810.5,653.5Z"/><path class="cls-18" d="M631.9,671.7a2,2,0,1,1-1.6-2.3A2,2,0,0,1,631.9,671.7Z"/><path class="cls-18" d="M885.1,681.8a3,3,0,1,1-2.5-3.5A3.08,3.08,0,0,1,885.1,681.8Z"/><path class="cls-18" d="M1007.2,667.8a2.43,2.43,0,1,1-2-2.8A2.53,2.53,0,0,1,1007.2,667.8Z"/><path class="cls-18" d="M1059.2,687a.86.86,0,1,1-.7-1A.84.84,0,0,1,1059.2,687Z"/><path class="cls-18" d="M983.7,702.7a1.47,1.47,0,1,1-1.2-1.7A1.46,1.46,0,0,1,983.7,702.7Z"/><path class="cls-18" d="M1153,669.4a1.67,1.67,0,1,1-1.4-1.9A1.6,1.6,0,0,1,1153,669.4Z"/><path class="cls-18" d="M1116.8,702.5a.86.86,0,1,1-.7-1A.82.82,0,0,1,1116.8,702.5Z"/><circle class="cls-18" cx="1094.8" cy="654" r="4"/><path class="cls-18" d="M970,639a1.67,1.67,0,1,1-1.4-1.9A1.75,1.75,0,0,1,970,639Z"/><path class="cls-18" d="M931.8,665.8a.86.86,0,1,1-.7-1A1,1,0,0,1,931.8,665.8Z"/><circle class="cls-18" cx="859.7" cy="688.7" r="2"/><path class="cls-16" d="M485.8,582.2H311.1a12.4,12.4,0,0,1-12.4-12.4h0a12.4,12.4,0,0,1,12.4-12.4H485.8a12.4,12.4,0,0,1,12.4,12.4h0A12.4,12.4,0,0,1,485.8,582.2Z"/><path class="cls-15" d="M492.4,565.3a7.13,7.13,0,0,0-2.3-.5c-9.2-20.3-32-33.6-54.3-31.6-19.1,1.7-36.6,14.7-44.6,32H492.4Z"/><path class="cls-15" d="M366.1,567.1a3.59,3.59,0,0,0-1.1-.2,27.06,27.06,0,0,0-49.4.2Z"/><g class="cls-19"><path class="cls-20" d="M1274.1,716.3c-21.7-12.8-43.5-35.1-66-60.8-.1,0,18.1-18.4,13-22.2,0,0-13.8,12.7-24.9,8.6.8-.8-50-39.9-61.8-54.1-.1-.1,18-12,17.3-16.7-.1-.1-20,11.6-27.7,7.5-5.9-3.3-24.3-26.2-34-44.3h0c0-.1-.1-.1-.1-.2a.76.76,0,0,1-.2-.4h0c.1-.1.3-.1.4-.2s.1-.1.2-.1h0c17.9-10.2,49.5-14.8,57-12.4,9.8,2.9,15.6,26,15.5,26,4.4-2.5.2-24.4,0-24.4,20.8-3.6,92.7,26.2,92.1,27.5,10.7,9.9,4.2,27.9,4.2,27.8,6.1,4,16.4-19.8,16.4-19.8,38.8,16.3,72,42.2,89,68.7s-2.1,37.9,2.1,41c4,3.2,20.9-15.2,20.8-15.2,69.5,94.1,25.4,146.6,27.1,144.8-.3.2-.6.3-.9.5h0c-.2.1-.3.1-.4.2s-.3.2-.4.3h0c-.3.1-.6.3-.9.4-1.5.9-55.7.4-118.1-63.3,0,0,20.1-14.7,17.8-18.6C1309,713.3,1295.6,729.3,1274.1,716.3Z"/><path class="cls-21" d="M1356.3,716.2c-1.5-1.8-3-3.5-4.5-5.3a595.79,595.79,0,0,0-65.4-65.6,65.86,65.86,0,0,1-8.4,6.6,83.77,83.77,0,0,1-10.2,5.5,101.66,101.66,0,0,1-22.3,7.1,92.6,92.6,0,0,0,20.1-10.2,62.72,62.72,0,0,0,8.5-6.7,49.23,49.23,0,0,0,6.4-7.3,591.37,591.37,0,0,0-72-51.4c-2.7-1.6-5.3-3.2-8-4.8-3.5,4.7-8.5,7.9-13.8,10.3a76.14,76.14,0,0,1-16.9,4.9,58.81,58.81,0,0,0,14.5-7.7,27,27,0,0,0,9.3-11.3c1.5.8,3.1,1.7,4.6,2.5a616.94,616.94,0,0,0-74.7-36.9,468.69,468.69,0,0,1,72.2,30.7,26.1,26.1,0,0,0,3.8-13,47.44,47.44,0,0,0-2.5-16.7,57.64,57.64,0,0,1,6.4,17.3,32.05,32.05,0,0,1-.8,16c2.8,1.5,5.7,3.1,8.5,4.7a509.15,509.15,0,0,1,73.5,50.9,37,37,0,0,0,5.1-6.7,55.12,55.12,0,0,0,4.9-9.7,71.06,71.06,0,0,0,4.9-22.5,78.39,78.39,0,0,1-1.2,24.3,69.18,69.18,0,0,1-3.4,11.2,50.63,50.63,0,0,1-4.4,8.3,513.78,513.78,0,0,1,65.3,67.4c1.5,1.8,2.9,3.7,4.4,5.6a79.38,79.38,0,0,0,12.4-10.1,84.62,84.62,0,0,0,11.4-13.7,89.16,89.16,0,0,1-8.4,16.6,85.56,85.56,0,0,1-10.6,13.4,487.14,487.14,0,0,1,43.4,68.6,622.21,622.21,0,0,0-48.7-68.5l2.1,2.7a91.66,91.66,0,0,1-16.4,7.9,117.35,117.35,0,0,1-17.5,5.2,105.41,105.41,0,0,0,15.5-8.5A122.11,122.11,0,0,0,1356.3,716.2Z"/></g><g class="cls-19"><path class="cls-14" d="M1146,472.2a32,32,0,0,1,5.9-.8,22.67,22.67,0,0,1-4.2-4c-3.1-3.8-3.5-6.8-1.9-8.1s4.5-.3,7.6,3.5c2.4,2.9,4.2,6.5,4.3,8.7v.1a.6.6,0,0,1,.4.1c.2.1,5.1,1.9,13.6,5.6-.5-.7-1-1.3-1.5-2-3.4-5.1-3.4-8.8-1.4-10.2s5.5.1,8.8,5.2c2.5,3.8,4.3,8.5,4.1,11.2v.5c6.8,3.2,14.8,7.3,23.7,12.2-.7-1.1-1.3-2.2-1.9-3.3-3.4-6.6-3-11.2-.3-12.6s6.6.9,10,7.5c2.5,4.9,4.1,10.9,3.6,14.2v.7c8.2,4.8,16.9,10.2,26.1,16.3-.6-1.2-1.2-2.4-1.7-3.6-3.4-8.1-2.5-13.5.7-15s7.7,1.6,11.1,9.7c2.5,6,3.8,13.1,2.9,17a2.2,2.2,0,0,1-.1.8c5.4,3.8,10.9,7.9,16.4,12.2,3,2.3,6,4.8,9.1,7.3a39.84,39.84,0,0,1-2.4-5.1c-3.8-9.4-2.8-15.6,1-17.2s8.8,1.9,12.6,11.3c2.8,7,4.2,15.1,3.2,19.6a5.28,5.28,0,0,1-.8,2.9c8.1,7.1,16.3,14.8,24.6,23.2a56.28,56.28,0,0,1-2.3-9.2c-1.8-11.4,1-18.1,5.5-18.9s9.2,4.4,10.9,15.8c1.3,8.5.7,17.9-1.5,22.6a6.67,6.67,0,0,1-.9,2.1c8,8.7,16,18,23.7,27.9a59.08,59.08,0,0,1-1.5-8.4c-1.4-12.9,2-20.2,7.1-20.9s10,5.4,11.4,18.2c1,9.6-.1,20.2-2.9,25.3a8.18,8.18,0,0,1-1.5,2.8c6.8,9.6,13.4,19.8,19.7,30.5a62.51,62.51,0,0,1-.7-8.7c-.3-14.3,4.1-22.1,9.8-22.4s10.4,6.9,10.7,21.2c.2,10.7-2.1,22.3-5.6,27.6a6.82,6.82,0,0,1-2.5,3.4q8.85,17.25,16.5,36h-4.1c-4.8-11.9-10.1-23.3-15.7-34.1a9,9,0,0,1-2.5.3c-6.3,1.3-17.8-.9-27.5-5.1-13.1-5.7-17.9-12.8-15.5-18s11.2-6.5,24.2-.8a67.18,67.18,0,0,1,12.1,6.7c-7-12.2-14.4-23.6-22-34.4a9.05,9.05,0,0,1-2.6.6c-5.6,1.6-16.1.6-25.3-2.5-12.2-4.1-17.2-10.1-15.4-15s9.6-6.7,21.9-2.6a69.4,69.4,0,0,1,10.4,4.5c-8.2-10.7-16.7-20.6-25.2-29.8a8.17,8.17,0,0,1-2.5.8c-4.9,1.7-14.4,1.1-22.7-1.2-11.2-3.1-15.8-8.3-14.4-12.7s8.3-6.3,19.5-3.2a54.88,54.88,0,0,1,6.8,2.4c-7.7-7.7-15.4-14.9-23-21.5l-.6.3c-3.9,2.4-12.3,3.9-20,3.5-10.3-.5-15.4-4-15.1-8s6-7.1,16.3-6.6a50.16,50.16,0,0,1,7.9,1c-3.6-3-7.2-5.9-10.8-8.6-5.4-4.2-10.7-8.2-16-11.9a5.45,5.45,0,0,1-1.7,1c-3.4,2.1-10.6,3.4-17.3,3.2-8.9-.3-13.4-3.3-13.1-6.8s5.1-6.2,14.1-5.8a55.57,55.57,0,0,1,7,.8c-9.8-6.6-19.2-12.5-27.9-17.6-.3.2-.5.3-.8.5-2.8,2-8.8,3.5-14.4,3.8-7.6.3-11.6-1.9-11.6-4.9s3.9-5.5,11.5-5.8a26.73,26.73,0,0,1,4,.1c-8.9-4.9-16.9-9-23.7-12.2-2.1,1.9-6.9,3.7-11.5,4.3-6.2.9-9.6-.6-9.9-3s2.7-4.8,8.9-5.7l2.4-.3c-8.2-3.6-13-5.4-13.2-5.5s-.3-.2-.4-.2c-1.6,1.6-5.2,3.3-8.7,4.2-4.9,1.2-7.8.3-8.2-1.6C1138.9,475.6,1141.1,473.4,1146,472.2Z"/><path class="cls-21" d="M1202.2,407.3a24,24,0,0,1,6.1.5,23.11,23.11,0,0,1-3.4-5c-2.3-4.5-2-7.6-.2-8.6s4.5.6,6.9,5.1c1.7,3.4,2.8,7.4,2.4,9.7v.1c.1,0,.3.1.4.1s4.7,3,12.4,8.6a24.43,24.43,0,0,1-1-2.4c-2.3-5.8-1.6-9.6.8-10.6s5.5,1.3,7.7,7.1c1.7,4.4,2.5,9.5,1.7,12.2a.9.9,0,0,1-.1.5c6.1,4.7,13.3,10.5,21.2,17.3a26.54,26.54,0,0,1-1.2-3.7c-2-7.4-.6-11.9,2.4-12.8s6.4,2.3,8.4,9.6c1.5,5.5,1.7,11.8.5,15a1.45,1.45,0,0,1-.2.7c7.2,6.6,14.8,13.9,22.7,22-.4-1.3-.7-2.7-1-4-1.7-8.9.4-14.1,4-14.8s7.3,3.3,9,12.1c1.2,6.6,1,14-.7,17.7a2.35,2.35,0,0,0-.2.8c4.6,5,9.2,10.3,13.8,15.8,2.5,3,5,6.1,7.6,9.3a50.71,50.71,0,0,1-1.3-5.6c-1.8-10.3.6-16.3,4.7-17.1s8.4,3.8,10.3,14.1c1.4,7.6,1,16.1-1,20.4a4.89,4.89,0,0,1-1.4,2.7c6.6,8.8,13.2,18.4,19.7,28.5a62.52,62.52,0,0,1-.3-9.7c.7-11.8,4.9-17.9,9.6-17.8s8.3,6.4,7.6,18.2c-.5,8.8-3.1,18.2-6.4,22.4a10.39,10.39,0,0,1-1.3,1.9c6.2,10.4,12.2,21.5,17.8,33.1a64.72,64.72,0,0,1,.3-8.8c1.4-13.2,6.4-19.8,11.6-19.4s8.9,7.5,7.5,20.7c-1,9.8-4.5,20.2-8.3,24.7a11,11,0,0,1-2.1,2.5c4.8,11.1,9.2,22.7,13.3,34.8a88.12,88.12,0,0,1,1.1-8.8c2.8-14.4,8.9-21.2,14.7-20.3s9,9.1,6.2,23.6c-2.1,10.8-6.9,21.9-11.6,26.5a7.83,7.83,0,0,1-3.3,2.9c2.3,8.4,4.3,16.9,6.1,25.7l-3.9.6q-2.7-12.9-6-25.2a12.3,12.3,0,0,1-2.6-.2c-6.6,0-17.7-4.7-26.5-11-11.9-8.5-15.2-16.7-11.7-21.4s12.6-4.1,24.5,4.4a74.41,74.41,0,0,1,10.7,9.3q-6.6-20.55-14.7-39.3a8.44,8.44,0,0,1-2.8.1c-5.9.4-16.3-2.9-24.8-7.9-11.4-6.7-15.1-13.9-12.2-18.3s11.1-4.6,22.5,2.1a65.35,65.35,0,0,1,9.5,6.8c-6-12.5-12.3-24.2-18.8-35.3a7.62,7.62,0,0,1-2.7.2c-5.3.6-14.7-2-22.5-6-10.5-5.5-14.1-11.8-11.7-15.9s9.7-4.6,20.2,1a65.77,65.77,0,0,1,6.3,3.8c-6.1-9.4-12.3-18.3-18.4-26.5a1.7,1.7,0,0,1-.7.1c-4.5,1.6-13.2,1.2-20.8-.8-10.2-2.7-14.6-7.3-13.4-11.3s7.5-5.8,17.7-3.1a50.11,50.11,0,0,1,7.7,2.7c-3-3.8-6-7.5-9-11-4.5-5.4-9-10.5-13.5-15.4a4.73,4.73,0,0,1-1.9.6c-3.9,1.4-11.4,1.2-18.1-.5-8.9-2.3-12.7-6.2-11.7-9.7s6.5-5.1,15.4-2.8a49.38,49.38,0,0,1,6.8,2.3c-8.4-8.8-16.6-16.6-24.2-23.6-.3.1-.6.2-1,.3-3.2,1.4-9.6,1.7-15.2.7-7.7-1.3-11.2-4.4-10.6-7.4s5.1-4.7,12.8-3.4a28.75,28.75,0,0,1,4,.9c-7.9-6.9-15.1-12.6-21.2-17.3-2.5,1.4-7.7,2.2-12.5,1.9-6.4-.5-9.5-2.7-9.3-5.1s3.8-4.3,10.2-3.8a19.67,19.67,0,0,1,2.4.3c-7.5-5.4-11.9-8.2-12.1-8.3l-.3-.3c-2,1.3-5.9,2.2-9.7,2.3-5.2.2-7.9-1.4-7.9-3.4C1194.3,409.2,1197,407.5,1202.2,407.3Z"/></g><g class="cls-19"><path class="cls-7" d="M1234.2,756.7c-22.8-3.8-48.8-15.6-76.6-30.2-.1,0,9.4-21.7,3.8-23.3,0,0-7.6,15.4-18.5,15.6.4-1-55.9-17.6-70.7-25.9-.1,0,11.4-16.2,9.3-20-.1,0-13.3,16.5-21.2,15.6-6.1-.9-29.4-14.4-43.7-26.7h0l-.1-.1-.3-.3h0l.3-.3c0-.1.1-.1.1-.2h0c11.9-14.7,37.4-29,44.6-29.4,9.3-.7,21.9,17.1,21.8,17.1,3-3.6-7.9-20.9-8-20.9,16.6-9.9,87.9-8.2,87.9-6.9,12.4,5,12.8,22.5,12.8,22.4,6.5,1.4,7.5-22.4,7.4-22.4,38.6,1.1,75.5,12.4,98.8,29.4,23.3,17.2,10.7,33.1,15.3,34.4s12.8-19.9,12.8-19.9c90.5,57.5,70.1,117.1,71,114.9-.2.2-.4.5-.6.7h0l-.3.3a1.38,1.38,0,0,0-.3.4h0a4.35,4.35,0,0,0-.6.7c-1,1.3-47.6,18.8-121.9-15.1,0,0,12.3-19.2,9.1-21.8C1263.1,742.6,1256.9,760.7,1234.2,756.7Z"/><path class="cls-21" d="M1304.6,729.4c-1.9-1-3.7-2-5.6-3a544.33,544.33,0,0,0-77.7-34.6,55.32,55.32,0,0,1-5.1,8.4,87,87,0,0,1-6.9,8.1,94.38,94.38,0,0,1-16.7,13.4,86.46,86.46,0,0,0,13.8-15.3,57.26,57.26,0,0,0,5.1-8.6,43.93,43.93,0,0,0,3.1-8.3,542.68,542.68,0,0,0-78.6-20.2l-8.4-1.5a31.49,31.49,0,0,1-8.4,13.3,65.5,65.5,0,0,1-12.9,9.8,55.5,55.5,0,0,0,9.9-11.4,24.33,24.33,0,0,0,4.2-12.8c1.6.2,3.2.4,4.8.7a564.89,564.89,0,0,0-76.1-6.9,442.18,442.18,0,0,1,71.9,2.4,23.29,23.29,0,0,0-1.1-12.4,45,45,0,0,0-7.7-13.5,53.56,53.56,0,0,1,11.2,12.7,28.4,28.4,0,0,1,4.6,14l8.8,1.2a463,463,0,0,1,79.7,19.3,45.19,45.19,0,0,0,2.2-7.4,53.59,53.59,0,0,0,1-9.9,63.62,63.62,0,0,0-3.3-20.8,71.37,71.37,0,0,1,7,21.2,65.05,65.05,0,0,1,.8,10.7,50.4,50.4,0,0,1-1,8.6,464.06,464.06,0,0,1,78.1,36.1c1.9,1.1,3.7,2.2,5.6,3.3a76,76,0,0,0,7.3-12.7,79.73,79.73,0,0,0,5.2-15.4,85.72,85.72,0,0,1-1.7,16.9,71.63,71.63,0,0,1-4.7,14.9,451.67,451.67,0,0,1,59.8,44.4,580.79,580.79,0,0,0-64.3-42.5c.9.5,1.8,1.1,2.7,1.6a88.06,88.06,0,0,1-11.4,12.2,121,121,0,0,1-13.3,10.3,111.16,111.16,0,0,0,10.5-12.4A124.92,124.92,0,0,0,1304.6,729.4Z"/></g><rect class="cls-22" x="1366.4" y="-32.8" width="200.7" height="767.6"/><path class="cls-23" d="M1502.1,288.9c0-.1-15.6,21.5-26.4-1.7s-16.8-58.4-37.9-63.2-22.5,53.9-41,57.9-25.8-3.9-36-13.9-14.4,4.5-22.8,19.3-24.4,32.3-36.2,20.9-28.7-31.6-44.9-18.5-17.9,38.6-30.2,50.3-31.1,10.7-45-3.7-33.7-8.1-42.1,12.3-18,9.3-29.5,3.8-20.4,22-20.4,22H1502C1502.1,374.3,1501.8,339.1,1502.1,288.9Z"/><path class="cls-21" d="M1438.8,384.6s-70.1-128.5-90.3-131.4-38.4,38.6-52.1,57.7-28.5-.2-49-13.3-41-4.9-57,21.2-31.9,36-52.4,17.4-35.3-20.7-53.6,4.2-30.8,30.4-52.4,11.7-58.1,11-66.1,32.4h472.9Z"/><path class="cls-14" d="M1355.7,384.6s-3.4-100-6.5-98.4,0,98.4-3.3,98.4Z"/><path class="cls-14" d="M1346.7,301.4s-20.5-10.6-14.2-14.7S1346.7,301.4,1346.7,301.4Z"/><path class="cls-14" d="M1356.7,299s16.5-7.5,9.9-12.9S1356.7,299,1356.7,299Z"/><path class="cls-14" d="M1350.8,282.6s7.7-15.7,0-15.4S1350.8,282.6,1350.8,282.6Z"/><path class="cls-14" d="M1346.7,323.1c.2.7-25.1-9.1-20.8-17.5S1344,312.2,1346.7,323.1Z"/><path class="cls-14" d="M1347.3,348.4c.2.7-25.1-9.1-20.8-17.5S1344.5,337.5,1347.3,348.4Z"/><path class="cls-14" d="M1347.3,373.3c.2.7-25.1-9.1-20.8-17.5S1344.5,362.4,1347.3,373.3Z"/><path class="cls-14" d="M1353,323.1s11.6-25.9,19.2-19.9S1366.7,319.9,1353,323.1Z"/><path class="cls-14" d="M1353,345.8s11.6-25.9,19.2-19.9S1366.7,342.6,1353,345.8Z"/><path class="cls-14" d="M1353,373.8s11.6-25.9,19.2-19.9S1366.7,370.5,1353,373.8Z"/><path class="cls-14" d="M1232.9,383.7s-2.3-69.3-4.5-68.2,0,68.2-2.3,68.2Z"/><path class="cls-14" d="M1226.8,326.1s-14.2-7.4-9.8-10.2S1226.8,326.1,1226.8,326.1Z"/><path class="cls-14" d="M1233.7,324.4s11.4-5.2,6.8-8.9S1233.7,324.4,1233.7,324.4Z"/><path class="cls-14" d="M1229.5,313s5.3-10.9,0-10.7S1229.5,313,1229.5,313Z"/><path class="cls-14" d="M1226.8,341.1c.1.5-17.4-6.3-14.4-12.1S1224.8,333.5,1226.8,341.1Z"/><path class="cls-14" d="M1227.2,358.6c.1.5-17.4-6.3-14.4-12.1S1225.2,351.1,1227.2,358.6Z"/><path class="cls-14" d="M1227.2,375.8c.1.5-17.4-6.3-14.4-12.1S1225.2,368.3,1227.2,375.8Z"/><path class="cls-14" d="M1231.1,341.1s8-18,13.3-13.8S1240.6,338.8,1231.1,341.1Z"/><path class="cls-14" d="M1231.1,356.8s8-18,13.3-13.8S1240.6,354.6,1231.1,356.8Z"/><path class="cls-14" d="M1231.1,376.2s8-18,13.3-13.8S1240.6,373.9,1231.1,376.2Z"/><path class="cls-14" d="M1114.5,384.2s-1.4-42.4-2.8-41.7,0,41.8-1.4,41.7Z"/><path class="cls-14" d="M1110.7,348.9s-8.7-4.5-6-6.2S1110.7,348.9,1110.7,348.9Z"/><path class="cls-14" d="M1115,347.9s7-3.2,4.2-5.5S1115,347.9,1115,347.9Z"/><path class="cls-14" d="M1112.4,340.9s3.3-6.7,0-6.6S1112.4,340.9,1112.4,340.9Z"/><path class="cls-14" d="M1110.7,358.1c.1.3-10.6-3.9-8.8-7.4S1109.5,353.5,1110.7,358.1Z"/><path class="cls-14" d="M1111,368.9c.1.3-10.6-3.9-8.8-7.4S1109.8,364.2,1111,368.9Z"/><path class="cls-14" d="M1111,379.4c.1.3-10.6-3.9-8.8-7.4S1109.8,374.8,1111,379.4Z"/><path class="cls-14" d="M1113.4,358.1s4.9-11,8.1-8.5S1119.2,356.7,1113.4,358.1Z"/><path class="cls-14" d="M1113.4,367.8s4.9-11,8.1-8.5S1119.2,366.4,1113.4,367.8Z"/><path class="cls-14" d="M1113.4,379.6s4.9-11,8.1-8.5S1119.2,378.2,1113.4,379.6Z"/><path class="cls-23" d="M-134.6,288.1c0-.1,15.6,21.5,26.4-1.7s16.8-58.4,37.9-63.2,22.5,53.9,41,57.9,25.8-3.9,36-13.9,14.4,4.5,22.8,19.3,24.4,32.3,36.2,20.9,28.7-31.6,44.9-18.5,17.9,38.6,30.2,50.3,31.1,10.7,45-3.7,33.7-8.1,42.1,12.3,18,9.3,29.5,3.8,20.4,22,20.4,22H-134.5C-134.6,373.5-134.2,338.3-134.6,288.1Z"/><path class="cls-21" d="M-71.3,383.8S-1.2,255.3,19,252.4,57.4,291,71.1,310.1s28.5-.2,49-13.3,41-4.9,57,21.2,31.9,36,52.4,17.4,35.3-20.7,53.6,4.2,30.8,30.4,52.4,11.7,58.1,11,66.1,32.4H-71.3Z"/><path class="cls-14" d="M11.8,383.8s3.4-100,6.5-98.4,0,98.4,3.3,98.4Z"/><path class="cls-14" d="M20.8,300.6S41.3,290,35,285.9,20.8,300.6,20.8,300.6Z"/><path class="cls-14" d="M10.8,298.2S-5.7,290.7.9,285.3,10.8,298.2,10.8,298.2Z"/><path class="cls-14" d="M16.7,281.8s-7.7-15.7,0-15.4S16.7,281.8,16.7,281.8Z"/><path class="cls-14" d="M20.8,322.3c-.2.7,25.1-9.1,20.8-17.5S23.6,311.4,20.8,322.3Z"/><path class="cls-14" d="M20.2,347.6c-.2.7,25.1-9.1,20.8-17.5S23,336.7,20.2,347.6Z"/><path class="cls-14" d="M20.2,372.5c-.2.7,25.1-9.1,20.8-17.5S23,361.6,20.2,372.5Z"/><path class="cls-14" d="M14.5,322.3S2.9,296.4-4.7,302.4.8,319.1,14.5,322.3Z"/><path class="cls-14" d="M14.5,345S2.9,319.1-4.7,325.1.8,341.7,14.5,345Z"/><path class="cls-14" d="M14.5,372.9S2.9,347-4.7,353,.8,369.7,14.5,372.9Z"/><path class="cls-14" d="M134.6,382.9s2.3-69.3,4.5-68.2,0,68.2,2.3,68.2Z"/><path class="cls-14" d="M140.8,325.2s14.2-7.4,9.8-10.2S140.8,325.2,140.8,325.2Z"/><path class="cls-14" d="M133.8,323.6s-11.4-5.2-6.8-8.9S133.8,323.6,133.8,323.6Z"/><path class="cls-14" d="M138,312.2s-5.3-10.9,0-10.7S138,312.2,138,312.2Z"/><path class="cls-14" d="M140.8,340.3c-.1.5,17.4-6.3,14.4-12.1S142.7,332.7,140.8,340.3Z"/><path class="cls-14" d="M140.3,357.8c-.1.5,17.4-6.3,14.4-12.1S142.3,350.3,140.3,357.8Z"/><path class="cls-14" d="M140.3,375c-.1.5,17.4-6.3,14.4-12.1S142.3,367.5,140.3,375Z"/><path class="cls-14" d="M136.4,340.3s-8-18-13.3-13.8S126.9,338,136.4,340.3Z"/><path class="cls-14" d="M136.4,356s-8-18-13.3-13.8S126.9,353.7,136.4,356Z"/><path class="cls-14" d="M136.4,375.4s-8-18-13.3-13.8S126.9,373.1,136.4,375.4Z"/><path class="cls-14" d="M253,383.4s1.4-42.4,2.8-41.7,0,41.8,1.4,41.7Z"/><path class="cls-14" d="M256.8,348.1s8.7-4.5,6-6.2S256.8,348.1,256.8,348.1Z"/><path class="cls-14" d="M252.6,347.1s-7-3.2-4.2-5.5S252.6,347.1,252.6,347.1Z"/><path class="cls-14" d="M255.1,340.1s-3.3-6.7,0-6.6S255.1,340.1,255.1,340.1Z"/><path class="cls-14" d="M256.8,357.3c-.1.3,10.6-3.9,8.8-7.4S258,352.7,256.8,357.3Z"/><path class="cls-14" d="M256.5,368c-.1.3,10.6-3.9,8.8-7.4S257.7,363.4,256.5,368Z"/><path class="cls-14" d="M256.5,378.6c-.1.3,10.6-3.9,8.8-7.4S257.7,374,256.5,378.6Z"/><path class="cls-14" d="M254.1,357.3s-4.9-11-8.1-8.5S248.3,355.9,254.1,357.3Z"/><path class="cls-14" d="M254.1,366.9s-4.9-11-8.1-8.5S248.3,365.6,254.1,366.9Z"/><path class="cls-14" d="M254.1,378.8s-4.9-11-8.1-8.5S248.3,377.4,254.1,378.8Z"/><path class="cls-24" d="M482.5,704.4H.9V531c3.4-1,10.3.3,13.2.2,8.5-.3,17.1-1.2,25.6-1.7,33.4-1.9,66.9-2.7,100.2.6,47.7,4.7,95.4,18.2,135.2,46,38.1,26.7,67.9,65.8,108.3,88.5C414.5,682.1,450.7,689.1,482.5,704.4Z"/><g class="cls-25"><path class="cls-7" d="M103.4,716c22.8-13.5,45.8-36.9,69.5-63.9.1,0-19.1-19.4-13.6-23.3,0,0,14.6,13.4,26.2,9.1-.9-.8,52.6-42,65-56.9.1-.1-18.9-12.6-18.2-17.6.1-.1,21,12.2,29.2,7.9,6.2-3.5,25.6-27.6,35.8-46.6h0c0-.1.1-.1.1-.2a.76.76,0,0,0,.2-.4h0c-.1-.1-.3-.1-.4-.2s-.1-.1-.2-.1h0c-18.8-10.8-52.1-15.6-59.9-13-10.3,3.1-16.4,27.4-16.3,27.3-4.7-2.6-.2-25.6,0-25.6-21.9-3.8-97.5,27.6-96.9,28.9-11.2,10.4-4.4,29.3-4.4,29.3-6.4,4.2-17.3-20.8-17.2-20.9C61.5,566.9,26.6,594.3,8.6,622c-17.8,28,2.2,39.9-2.2,43.1-4.2,3.4-21.9-16-21.9-16-73.1,99-26.7,154.3-28.5,152.3l.9.6h0c.2.1.3.1.5.2s.3.2.4.3h0a10.37,10.37,0,0,0,1,.4c1.6,1,58.7.4,124.3-66.6,0,0-21.2-15.5-18.7-19.6C66.7,712.8,80.7,729.7,103.4,716Z"/><path class="cls-21" d="M16.8,715.9c1.6-1.9,3.2-3.7,4.7-5.6a623.53,623.53,0,0,1,68.8-69.1,66.15,66.15,0,0,0,8.9,6.9,79.66,79.66,0,0,0,10.8,5.8,112,112,0,0,0,23.4,7.5,99.55,99.55,0,0,1-21.1-10.7,68.53,68.53,0,0,1-9-7.1,48.69,48.69,0,0,1-6.7-7.7,623,623,0,0,1,75.7-54.1l8.4-5.1c3.7,5,9,8.3,14.5,10.8a75.91,75.91,0,0,0,17.8,5.1,63.7,63.7,0,0,1-15.3-8.1c-4.4-3.3-8-7.3-9.8-11.9-1.6.9-3.2,1.8-4.9,2.7a666.92,666.92,0,0,1,78.6-38.8,503,503,0,0,0-75.9,32.3,26.79,26.79,0,0,1-3.9-13.7,52.59,52.59,0,0,1,2.6-17.6,61.09,61.09,0,0,0-6.8,18.2,32.26,32.26,0,0,0,.9,16.9c-3,1.6-6,3.2-8.9,4.9A549.66,549.66,0,0,0,92.5,631a45.09,45.09,0,0,1-5.4-7,61.14,61.14,0,0,1-5.2-10.2,72.56,72.56,0,0,1-5.1-23.7,80.5,80.5,0,0,0,1.3,25.6,67.15,67.15,0,0,0,3.6,11.8,48.74,48.74,0,0,0,4.7,8.7,541.83,541.83,0,0,0-68.7,70.9c-1.6,1.9-3.1,3.9-4.6,5.9A93.52,93.52,0,0,1,0,702.4,88.2,88.2,0,0,1-12,688a94.64,94.64,0,0,0,8.8,17.4A84.64,84.64,0,0,0,8,719.5a504.81,504.81,0,0,0-45.6,72.2,661.21,661.21,0,0,1,51.3-72.1l-2.2,2.8a110.49,110.49,0,0,0,17.3,8.4,118,118,0,0,0,18.4,5.5,107.41,107.41,0,0,1-16.3-9A91.33,91.33,0,0,1,16.8,715.9Z"/></g><g class="cls-25"><path class="cls-20" d="M145.4,758.5c24-4,51.4-16.4,80.6-31.8.1,0-9.9-22.9-4-24.5,0,0,8,16.2,19.5,16.4-.5-1,58.9-18.5,74.4-27.2.1,0-12-17.1-9.7-21.1.1,0,14,17.3,22.4,16.4,6.5-.9,31-15.1,46-28.1h0a.35.35,0,0,1,.2-.1l.3-.3h0l-.3-.3c0-.1-.1-.1-.1-.2h0c-12.5-15.4-39.4-30.6-47-30.9-9.8-.8-23.1,18-22.9,18-3.1-3.8,8.3-22,8.4-21.9-17.5-10.5-92.5-8.6-92.5-7.2-13.1,5.2-13.5,23.6-13.5,23.6-6.8,1.5-7.9-23.5-7.8-23.5-40.6,1.2-79.5,13-104,30.9-24.5,18.1-11.3,34.9-16.1,36.2C74.6,684.4,65.8,662,65.8,662-29.6,722.4-8.1,785.1-9,782.8c.2.3.4.5.6.8h0l.3.3c.1.1.2.3.3.4h0a4.62,4.62,0,0,0,.7.7c1.1,1.4,50,19.7,128.3-15.9,0,0-13-20.2-9.6-22.9S121.4,762.6,145.4,758.5Z"/><path class="cls-26" d="M71.3,729.8c2-1.1,3.9-2.1,5.9-3.2a562.08,562.08,0,0,1,81.7-36.4,49,49,0,0,0,5.3,8.8,72.91,72.91,0,0,0,7.3,8.5,105.23,105.23,0,0,0,17.6,14.2,87.68,87.68,0,0,1-14.5-16.1,58.9,58.9,0,0,1-5.3-9,46.35,46.35,0,0,1-3.2-8.8,570.16,570.16,0,0,1,82.7-21.3c2.9-.5,5.9-1.1,8.8-1.6a32.35,32.35,0,0,0,8.9,14,69.51,69.51,0,0,0,13.6,10.3,58.59,58.59,0,0,1-10.4-12c-2.7-4.3-4.4-8.9-4.4-13.4-1.7.2-3.4.5-5,.7a608.26,608.26,0,0,1,80.1-7.3,476.63,476.63,0,0,0-75.6,2.5,25.44,25.44,0,0,1,1.1-13,46.35,46.35,0,0,1,8.1-14.2,57.14,57.14,0,0,0-11.8,13.4,30.15,30.15,0,0,0-4.8,14.7c-3.1.4-6.2.8-9.2,1.3a484,484,0,0,0-83.9,20.3,41.21,41.21,0,0,1-2.3-7.8,45.63,45.63,0,0,1-1-10.5,70.8,70.8,0,0,1,3.4-21.9,79,79,0,0,0-7.4,22.3,61.39,61.39,0,0,0-.8,11.3,46.12,46.12,0,0,0,1.1,9,493.37,493.37,0,0,0-82.2,38c-2,1.1-3.9,2.3-5.9,3.5a80.4,80.4,0,0,1-7.7-13.4A88.28,88.28,0,0,1,56,696.5a87.39,87.39,0,0,0,1.8,17.8A84.17,84.17,0,0,0,62.7,730,465.62,465.62,0,0,0-.2,776.7,595.12,595.12,0,0,1,67.5,732c-.9.6-1.9,1.1-2.8,1.7a98,98,0,0,0,12,12.9,120.32,120.32,0,0,0,13.9,10.8,104.58,104.58,0,0,1-11-13.1A87.43,87.43,0,0,1,71.3,729.8Z"/></g><g class="cls-25"><path class="cls-14" d="M217.6,427.6a26.72,26.72,0,0,0-6.3-.1,26.72,26.72,0,0,0,4-4.7c2.8-4.4,2.9-7.5,1.1-8.7s-4.7.1-7.5,4.5c-2.1,3.3-3.6,7.3-3.5,9.6v.1a.6.6,0,0,0-.4.1c-.2.1-5.2,2.5-13.6,7.4a17.1,17.1,0,0,0,1.3-2.3c2.9-5.7,2.6-9.6.3-10.9s-5.7.8-8.6,6.5c-2.2,4.3-3.5,9.4-3.1,12.2v.5c-6.7,4.2-14.6,9.3-23.4,15.4a28.33,28.33,0,0,0,1.6-3.6c2.8-7.3,1.9-12.1-1.1-13.3s-6.8,1.6-9.6,8.9c-2.1,5.4-3,11.8-2.1,15.2,0,.3.1.5.1.7-8,5.9-16.6,12.6-25.4,20,.5-1.3,1-2.7,1.4-4,2.6-8.9,1.1-14.4-2.5-15.6s-7.8,2.6-10.5,11.4c-1.9,6.6-2.5,14.1-1.1,18.1a1.88,1.88,0,0,0,.2.8c-5.2,4.6-10.5,9.5-15.8,14.6-2.9,2.8-5.8,5.7-8.7,8.6.7-1.8,1.4-3.7,2-5.6,2.9-10.3,1.1-16.6-3-17.9s-9,3-12,13.3c-2.2,7.6-2.7,16.3-1.1,20.9a5.56,5.56,0,0,0,1.2,3c-7.6,8.3-15.4,17.3-23.1,27a54.78,54.78,0,0,0,1.3-9.9c.6-12.1-3.1-18.8-7.9-19.2s-9.1,5.6-9.7,17.8c-.4,9,1.3,18.8,4.1,23.5a5.28,5.28,0,0,0,1.2,2.1c-7.4,10-14.7,20.6-21.7,31.9a66.91,66.91,0,0,0,.6-9c0-13.6-4.4-20.9-9.8-21s-9.8,6.7-9.8,20.4c0,10.1,2.4,21.1,5.9,26.1a10.47,10.47,0,0,0,1.8,2.7c-6,10.8-11.8,22.2-17.2,34.1.1-3,0-6.1-.2-9.1-1.3-15-6.8-22.6-12.8-22.3s-10.1,8.4-8.8,23.4c1,11.2,4.7,23.1,9,28.3a7.55,7.55,0,0,0,3,3.3c-4.9,12.6-9.3,25.9-13.2,39.6l4.3-.5c3.7-13,7.9-25.5,12.5-37.5a20.92,20.92,0,0,0,2.6.1c6.7.6,18.5-2.9,28.2-8.4,13-7.4,17.3-15.4,14.2-20.6S13.6,650,.6,657.4a74.49,74.49,0,0,0-11.9,8.4c5.9-13.5,12.4-26.4,19.1-38.5a11.08,11.08,0,0,0,2.8.4c6,1.1,17-1.2,26.1-5.4,12.4-5.7,16.8-12.5,14.4-17.4s-10.8-5.9-23.2-.2a70,70,0,0,0-10.4,5.9c7.4-12.1,15.1-23.4,22.9-34a7.22,7.22,0,0,0,2.7.5c5.4,1.2,15.2-.4,23.6-3.8,11.3-4.5,15.6-10.5,13.7-15s-9.4-5.7-20.7-1.2a47.27,47.27,0,0,0-6.8,3.3c7.2-9,14.5-17.3,21.6-25.1a1.85,1.85,0,0,0,.7.2c4.4,2.1,13.3,2.7,21.3,1.4,10.7-1.6,15.6-5.9,14.8-10.1s-7-6.7-17.8-5.1a57.36,57.36,0,0,0-8.2,1.9c3.5-3.6,6.9-7,10.3-10.2,5.2-5,10.3-9.7,15.4-14.3a7.5,7.5,0,0,0,1.8.8c3.8,1.8,11.5,2.4,18.5,1.4,9.3-1.4,13.6-5,13-8.6s-6.1-5.9-15.4-4.5a44.07,44.07,0,0,0-7.2,1.6c9.5-8,18.7-15.2,27.2-21.5a3.55,3.55,0,0,0,.9.4c3.1,1.8,9.6,2.7,15.5,2.3,8-.5,11.9-3.3,11.5-6.4s-4.7-5.3-12.7-4.8c-1.4.1-2.8.3-4.2.5,8.8-6.2,16.7-11.3,23.4-15.4,2.4,1.7,7.6,3,12.5,3.2,6.6.2,10-1.7,10-4.3s-3.4-4.7-10-5h-2.5c8.2-4.7,13-7.1,13.2-7.2a1.38,1.38,0,0,0,.4-.3c1.9,1.5,5.8,2.9,9.6,3.4,5.3.7,8.2-.6,8.4-2.6C225.5,430.3,222.9,428.3,217.6,427.6Z"/></g></g><path class="cls-27" d="M546.13,239.76l8.24-.68,8.76,121.76,8.77-123.19,8.23-.67-11.68,143H557.82Z"/><path class="cls-27" d="M622.63,379.92H614.4l-2.93-39.5L599,340.7l-2.92,39.23h-8.23l3.45-39.06-4.52.1V333.5l4.78-.12,8.24-98,10.88-.89Zm-11.69-47.06-5.58-78.6-5.84,78.9Z"/><path class="cls-27" d="M659.28,242.43v28.42l-8.5.5V243.07a4.69,4.69,0,0,0-5.31-4.67,5.72,5.72,0,0,0-5.58,5.48v124c0,2.88,2.39,5,5.58,5a5.17,5.17,0,0,0,5.31-5.1V336.63l8.5-.2v31.33c0,7.05-6.11,12.88-13.81,12.88s-14.08-5.51-14.08-12.68V244.52c0-6.94,6.38-13,14.08-13.59S659.28,235.38,659.28,242.43Z"/><path class="cls-27" d="M703.11,379.89h-8.24L692,338.61l-12.48.28-2.93,41h-8.23l3.45-40.84-4.51.1v-7.8l4.78-.13,8.23-102.42,10.89-.88Zm-11.69-49.18-5.58-82.14L680,331Z"/><path class="cls-27" d="M708.42,226.52,736,224.26v7.85l-9.83.76v147h-8.5V233.53l-9.29.72Z"/><path class="cls-27" d="M743.47,223.66l8.5-.7V379.87h-8.5Z"/><path class="cls-27" d="M792.34,232.43v134.4a13.81,13.81,0,0,1-13.81,13.81c-7.71,0-14.08-6.17-14.08-13.62V234.53c0-7.19,6.37-13.88,14.08-14.51S792.34,224.88,792.34,232.43Zm-8.5.64a4.84,4.84,0,0,0-5.31-5,5.9,5.9,0,0,0-5.58,5.85V367a5.45,5.45,0,0,0,10.89-.08Z"/><path class="cls-27" d="M831.39,230.29V379.84h-8.5V230.93a5,5,0,0,0-5.58-5.12l-5.31.41V379.84h-8.5V218.76l13.81-1.13C825,217,831.39,222.59,831.39,230.29Z"/><path class="cls-27" d="M557.37,213.35c-3.26-1.85-4.22-5.12-4.44-7.91a16.74,16.74,0,0,1,2.46-10.38,9.34,9.34,0,0,1,7-3.82,6.46,6.46,0,0,1,4,.93l-.65,1.61a6.64,6.64,0,0,0-3.24-.53,7.12,7.12,0,0,0-5.44,3,14.61,14.61,0,0,0-2,8.94c.15,1.86.76,4.77,3.37,6.27,2.28,1.31,5.29,1.93,11.24,1.46s9.72-2.08,11.88-4.35c3.66-3.95,3.53-9.62,3.36-11.78a8.54,8.54,0,0,0-3.95-6.7c-3.37-2.3-13.36-3.7-16.87-5.84-3.68-2.2-4.72-4.53-5-7.62-.2-2.56.56-6.82,2.46-9.3,2-2.65,5-4.2,11-4.67,9.13-.72,11.62,3.29,11.94,7.47a23.54,23.54,0,0,1,0,3.42l-.15,2-2,.15.15-2a25.71,25.71,0,0,0,0-3.43c-.31-3.86-2.51-6.18-9.78-5.62-5.42.43-7.88,1.79-9.36,3.77-1.62,2.15-2.19,5.78-2,8,.15,1.93.78,4,3.81,5.85,3.43,2.07,13.11,3.57,16.7,5.7a10.15,10.15,0,0,1,5.27,8.61c.3,3.87-.11,9.51-4.23,13.56-2.53,2.53-6.9,4.36-13.08,4.84C563.52,215.51,560.05,214.85,557.37,213.35Z"/><path class="cls-27" d="M595.28,204.7c-.13-1.62,0-4.28.65-12.58l1.48-19,2.39-.18-1.72,20.75c-.56,6.74-.68,9.24-.56,10.71.42,5.34,3,6,6,5.76,3.25-.25,7-2.81,10.08-7.56,3.53-5.49,4.29-8.74,4.59-12.89l1.45-18.32,2.32-.18-2.47,31.24a29.1,29.1,0,0,0-.14,4.06c.16,2.09,1.43,2.38,2.36,2.31,2.24-.18,5.9-3.11,9.36-8.6a54,54,0,0,0,4.6-9.93l1.83.56a53.78,53.78,0,0,1-4.64,10.32c-3.58,6-7.74,9.48-11.45,9.77-2.17.17-4-1-4.3-4.18a55.28,55.28,0,0,1,.46-8.05c-3,7.32-8.54,13.19-14.11,13.63C598,212.82,595.69,210,595.28,204.7Z"/><path class="cls-27" d="M637.08,170.08l2.4-.19-.35,4.54c-.12,1.41-.35,4.38-.7,6.9,2.78-7.22,7.8-12.75,13.37-13.18,4.71-.37,7.05,2.63,7.36,6.58a37.76,37.76,0,0,1-.22,5.23c2.78-7.3,7.86-13,13.5-13.43,4.72-.37,7.06,2.64,7.37,6.59a50.28,50.28,0,0,1-.24,7.87l-1.32,16.92a30.82,30.82,0,0,0-.19,3.67c.18,2.24,1.31,2.78,2.39,2.69,2.25-.18,5.91-3.11,9.37-8.6a53.62,53.62,0,0,0,4.6-9.92l1.83.55a52.68,52.68,0,0,1-4.64,10.33c-3.58,6-7.74,9.48-11.45,9.76-2.17.18-4.06-1.08-4.34-4.64a26.36,26.36,0,0,1,.1-3.74l1.34-16.76a49.05,49.05,0,0,0,.26-7.49c-.31-3.94-2.57-5.09-5.36-4.87-6.26.49-12.91,10-13.74,20.37L657,207.43l-2.33.18,2-24.74a48.49,48.49,0,0,0,.27-7.5c-.3-3.94-2.57-5.09-5.35-4.87-6.27.49-12.93,10-13.74,20.38L636.31,209l-2.31.19Z"/><path class="cls-27" d="M695.86,165.48l2.4-.19-.35,4.54c-.12,1.41-.35,4.39-.7,6.91C700,169.51,705,164,710.58,163.55c4.71-.37,7,2.64,7.35,6.58a37.47,37.47,0,0,1-.21,5.24c2.78-7.3,7.86-13,13.5-13.43,4.72-.37,7.06,2.64,7.37,6.58a53.22,53.22,0,0,1-.24,7.88L737,193.31a30.48,30.48,0,0,0-.18,3.67c.18,2.25,1.31,2.78,2.39,2.7,2.25-.18,5.91-3.11,9.37-8.6a53.85,53.85,0,0,0,4.59-9.93l1.84.56A53.24,53.24,0,0,1,750.39,192c-3.59,6-7.75,9.48-11.46,9.77-2.16.17-4-1.08-4.33-4.64a26.29,26.29,0,0,1,.09-3.75L736,176.66a50,50,0,0,0,.27-7.5c-.31-3.94-2.57-5.08-5.36-4.87-6.26.49-12.92,10-13.74,20.38l-1.45,18.17-2.33.18,2-24.75a48.37,48.37,0,0,0,.27-7.49c-.31-3.94-2.58-5.09-5.36-4.87-6.27.49-12.92,10-13.74,20.37l-1.46,18.17-2.32.18Z"/><path class="cls-27" d="M752.93,188.8c-.42-5.34-.07-17.81,4.11-24.06,2.23-3.36,5.81-5.27,10.45-5.64,4.8-.37,9.49,2,10,7.86.22,2.86-.58,9.62-4.66,13.13-2,1.71-5.35,3.22-10.3,3.6a50.89,50.89,0,0,1-7.39,0c0,1.94,0,3.65.14,4.81.61,7.74,5.57,9.45,11.45,9,11.21-.88,17.17-8.27,20-14.41a48.15,48.15,0,0,0,1.89-4.73l1.83.55c-.44,1.28-1.14,3.2-1.8,4.73a25.67,25.67,0,0,1-22.18,16C759,200.23,753.59,197.23,752.93,188.8Zm2.26-7a47.18,47.18,0,0,0,7-.08c4.11-.32,7.43-1.59,9.16-3.28,3.33-3.29,4-8.56,3.79-11.27-.39-5-4.16-6.44-8-6.14a10.18,10.18,0,0,0-8.33,4.93C756.43,169.93,755.39,176.54,755.19,181.85Z"/><path class="cls-27" d="M803.14,192.11c-.11-1.39,0-4,.84-13.21.56-6.66.75-9.32.7-10-.08-1-.35-1.37-2.62-2.52l-5.51-2.76a7.21,7.21,0,0,1-2.06-1.55A107.85,107.85,0,0,1,792.15,173c-.53,2.07-1.08,4.06-1.71,6l-1.83-.55c.56-1.76,1.12-3.59,1.59-5.5a136.1,136.1,0,0,0,3.53-18.56l2.07.54a16,16,0,0,0-.39,4.07,3,3,0,0,0,2,2.65l5.34,2.54c3.71,1.73,4.09,2.56,4.24,4.57.08,1-.13,3.2-.78,10.88-.76,9.16-.87,11.82-.83,12.36.16,1.93,1.13,2.48,2.37,2.38,2.24-.18,5.9-3.11,9.37-8.59a53.85,53.85,0,0,0,4.59-9.93l1.84.55a53.08,53.08,0,0,1-4.65,10.33c-3.58,6-7.74,9.47-11.45,9.76C805.13,196.63,803.4,195.36,803.14,192.11Z"/><rect class="cls-27" x="681.56" y="393.86" width="11.28" height="11.28" transform="translate(-81.22 602.89) rotate(-45)"/><rect class="cls-28" x="714.88" y="393.86" width="11.28" height="11.28" transform="translate(-71.47 626.45) rotate(-45)"/><rect class="cls-28" x="648.24" y="393.86" width="11.28" height="11.28" transform="translate(-90.96 579.42) rotate(-45)"/><rect class="cls-27" x="748.56" y="393.86" width="11.28" height="11.28" transform="translate(-61.6 650.26) rotate(-45)"/><rect class="cls-27" x="781.88" y="393.86" width="11.28" height="11.28" transform="translate(-51.85 673.82) rotate(-45)"/><rect class="cls-27" x="715.24" y="393.86" width="11.28" height="11.28" transform="translate(-71.33 626.8) rotate(-45)"/><rect class="cls-27" x="614.92" y="393.86" width="11.28" height="11.28" transform="translate(-100.74 555.77) rotate(-45)"/><rect class="cls-27" x="648.24" y="393.86" width="11.28" height="11.28" transform="translate(-90.98 579.33) rotate(-45)"/><rect class="cls-27" x="581.6" y="393.86" width="11.28" height="11.28" transform="translate(-110.48 532.3) rotate(-45)"/></g></svg>