<?xml version="1.0" encoding="utf-8"?>
<!-- Generator: Adobe Illustrator 22.0.1, SVG Export Plug-In . SVG Version: 6.00 Build 0)  -->
<svg version="1.1" id="Calque_1" xmlns="http://www.w3.org/2000/svg" xmlns:xlink="http://www.w3.org/1999/xlink" x="0px" y="0px"
	 viewBox="0 0 1368 704" style="enable-background:new 0 0 1368 704;" xml:space="preserve">
<style type="text/css">
	.st0{fill:#EEEEEE;}
	.st1{clip-path:url(#SVGID_2_);fill:#E5E5E5;}
	.st2{clip-path:url(#SVGID_4_);fill:#E5E5E5;}
	.st3{clip-path:url(#SVGID_6_);fill:#E5E5E5;stroke:#E5E5E5;stroke-miterlimit:10;}
	.st4{clip-path:url(#SVGID_10_);fill:#E5E5E5;}
	.st5{clip-path:url(#SVGID_12_);fill:#E5E5E5;}
	.st6{clip-path:url(#SVGID_14_);fill:#E5E5E5;stroke:#E5E5E5;stroke-miterlimit:10;}
	.st7{clip-path:url(#SVGID_16_);fill:#E5E5E5;}
	.st8{clip-path:url(#SVGID_18_);fill:#E5E5E5;}
	.st9{clip-path:url(#SVGID_20_);fill:#E5E5E5;}
	.st10{clip-path:url(#SVGID_22_);fill:#E5E5E5;stroke:#E5E5E5;stroke-miterlimit:10;}
	.st11{clip-path:url(#SVGID_24_);fill:#E5E5E5;}
	.st12{clip-path:url(#SVGID_26_);fill:#E5E5E5;stroke:#E5E5E5;stroke-miterlimit:10;}
	.st13{clip-path:url(#SVGID_28_);fill:#E5E5E5;stroke:#E5E5E5;stroke-miterlimit:10;}
	.st14{clip-path:url(#SVGID_30_);fill:#E5E5E5;stroke:#E5E5E5;stroke-miterlimit:10;}
	.st15{clip-path:url(#SVGID_32_);fill:#E5E5E5;stroke:#E5E5E5;stroke-miterlimit:10;}
	.st16{clip-path:url(#SVGID_34_);fill:#E5E5E5;stroke:#E5E5E5;stroke-miterlimit:10;}
	.st17{clip-path:url(#SVGID_36_);fill:#E5E5E5;stroke:#E5E5E5;stroke-miterlimit:10;}
	.st18{clip-path:url(#SVGID_38_);fill:#E5E5E5;stroke:#E5E5E5;stroke-miterlimit:10;}
	.st19{clip-path:url(#SVGID_40_);fill:#E5E5E5;stroke:#E5E5E5;stroke-miterlimit:10;}
	.st20{clip-path:url(#SVGID_42_);fill:#E5E5E5;stroke:#E5E5E5;stroke-miterlimit:10;}
	.st21{clip-path:url(#SVGID_44_);fill:#E5E5E5;stroke:#E5E5E5;stroke-miterlimit:10;}
	.st22{clip-path:url(#SVGID_46_);fill:#E5E5E5;stroke:#E5E5E5;stroke-miterlimit:10;}
	.st23{clip-path:url(#SVGID_48_);fill:#E5E5E5;}
	.st24{clip-path:url(#SVGID_54_);fill:#E5E5E5;stroke:#E5E5E5;stroke-miterlimit:10;}
	.st25{clip-path:url(#SVGID_56_);fill:#E5E5E5;stroke:#E5E5E5;stroke-miterlimit:10;}
	.st26{clip-path:url(#SVGID_58_);fill:#E5E5E5;stroke:#E5E5E5;stroke-miterlimit:10;}
	.st27{fill:#FFFFFF;}
	.st28{fill:#1D2542;}
	.st29{fill:#BCCEC3;}
	.st30{fill:#ADBCB2;}
	.st31{fill:#B8C1BB;}
	.st32{fill:#AAB2AC;}
	.st33{fill:#8EA899;}
	.st34{fill:#EAE6DC;}
	.st35{fill:#616160;}
	.st36{fill:#5C1D19;}
	.st37{fill:#666666;}
	.st38{font-family:'BalooChettan-Regular';}
	.st39{font-size:62.6687px;}
	.st40{clip-path:url(#SVGID_61_);}
	.st41{clip-path:url(#SVGID_62_);fill:#FAF7EE;}
	.st42{fill:none;}
	.st43{font-family:'ArialNarrow';}
	.st44{font-size:17px;}
</style>
<g id="Calque_1_1_">
</g>
<g id="Calque_2_1_">
	<g>
		<polyline class="st0" points="1368,744.6 -2.6,744.6 -2.6,-13.7 1368,-13.7 1368,744.6 		"/>
		<g>
			<g>
				<defs>
					<polyline id="SVGID_1_" points="1368,744.6 -2.6,744.6 -2.6,-13.7 1368,-13.7 1368,744.6 					"/>
				</defs>
				<clipPath id="SVGID_2_">
					<use xlink:href="#SVGID_1_"  style="overflow:visible;"/>
				</clipPath>
				<polyline class="st1" points="-2.6,-13.7 1368,-13.7 1368,744.6 -2.6,744.6 -2.6,-13.7 				"/>
			</g>
			<g>
				<defs>
					<polyline id="SVGID_3_" points="1368,744.6 -2.6,744.6 -2.6,-13.7 1368,-13.7 1368,744.6 					"/>
				</defs>
				<clipPath id="SVGID_4_">
					<use xlink:href="#SVGID_3_"  style="overflow:visible;"/>
				</clipPath>
				<path class="st2" d="M830.5,709.6c-410.6,0-743.4-180.9-743.4-403.9c0-111.5,83.2-212.5,217.7-285.6C321.6,11,339.2,2.3,357.6-6
					c9.2-4.1,18.5-8.1,28.1-12v3.6h889.6V-18c9.5,3.9,18.9,7.9,28.1,12c18.4,8.2,36,16.9,52.8,26.1c4.2,2.3,8.4,4.6,12.5,6.9
					c2.1,1.2,4.1,2.3,6.1,3.5h-5.8v550.3h5.8c-2,1.2-4.1,2.4-6.1,3.5c-4.1,2.3-8.3,4.7-12.5,6.9
					C1221.7,664.4,1035.8,709.6,830.5,709.6"/>
			</g>
			<g>
				<defs>
					<polyline id="SVGID_5_" points="1368,744.6 -2.6,744.6 -2.6,-13.7 1368,-13.7 1368,744.6 					"/>
				</defs>
				<clipPath id="SVGID_6_">
					<use xlink:href="#SVGID_5_"  style="overflow:visible;"/>
				</clipPath>
				<path class="st3" d="M830.5,695.1c-395.9,0-716.9-174.4-716.9-389.5c0-107.6,80.2-204.9,210-275.4c32.4-17.6,68-33.6,106.1-47.6
					v2.9h801.6v-2.9c38.1,14,73.7,29.9,106.1,47.6c8.1,4.4,16,8.9,23.7,13.5c3.9,2.3,7.7,4.6,11.4,7h-3.6v509.8h3.6
					c-3.8,2.4-7.6,4.7-11.4,7c-7.7,4.6-15.6,9.1-23.7,13.5C1207.7,651.6,1028.5,695.1,830.5,695.1"/>
			</g>
			<g>
				<defs>
					<polyline id="SVGID_7_" points="1368,744.6 -2.6,744.6 -2.6,-13.7 1368,-13.7 1368,744.6 					"/>
				</defs>
				<clipPath id="SVGID_8_">
					<use xlink:href="#SVGID_7_"  style="overflow:visible;"/>
				</clipPath>
			</g>
			<g>
				<defs>
					<polyline id="SVGID_9_" points="1368,744.6 -2.6,744.6 -2.6,-13.7 1368,-13.7 1368,744.6 					"/>
				</defs>
				<clipPath id="SVGID_10_">
					<use xlink:href="#SVGID_9_"  style="overflow:visible;"/>
				</clipPath>
				<path class="st4" d="M830.5,666.3c-366.6,0-663.8-161.5-663.8-360.7c0-99.6,74.3-189.8,194.4-255c30-16.3,62.9-31.1,98.2-44
					C477,0.1,495.2-5.9,514-11.5c9.4-2.8,19-5.4,28.6-8v5h575.6v-5c9.7,2.5,19.2,5.2,28.6,8c18.8,5.6,37.1,11.6,54.7,18.1
					c35.3,13,68.2,27.7,98.2,44c15,8.2,29.3,16.7,42.8,25.6c6.8,4.5,13.3,9,19.7,13.6c3.2,2.3,6.3,4.7,9.4,7h-2.9v417.6h2.9
					c-3.1,2.4-6.2,4.7-9.4,7c-6.4,4.6-12.9,9.2-19.7,13.6c-13.5,8.9-27.8,17.5-42.8,25.6C1179.8,625.9,1013.8,666.3,830.5,666.3"/>
			</g>
			<g>
				<defs>
					<polyline id="SVGID_11_" points="1368,744.6 -2.6,744.6 -2.6,-13.7 1368,-13.7 1368,744.6 					"/>
				</defs>
				<clipPath id="SVGID_12_">
					<use xlink:href="#SVGID_11_"  style="overflow:visible;"/>
				</clipPath>
				<path class="st5" d="M830.5,651.9c-351.9,0-637.2-155-637.2-346.2c0-95.6,71.3-182.2,186.6-244.8
					c57.7-31.3,126.3-56.7,202.6-74.2c9.5-2.2,19.2-4.3,28.9-6.2v5.2h438.2v-5.2c9.8,1.9,19.4,4,28.9,6.2
					c76.2,17.5,144.9,42.9,202.5,74.2c28.8,15.7,54.9,32.8,77.8,51.2c5.7,4.6,11.2,9.3,16.6,14h-6.5v359.1h6.5
					c-5.3,4.8-10.8,9.4-16.6,14c-22.9,18.4-49,35.6-77.8,51.2C1165.8,613.1,1006.5,651.9,830.5,651.9z"/>
			</g>
			<g>
				<defs>
					<polyline id="SVGID_13_" points="1368,744.6 -2.6,744.6 -2.6,-13.7 1368,-13.7 1368,744.6 					"/>
				</defs>
				<clipPath id="SVGID_14_">
					<use xlink:href="#SVGID_13_"  style="overflow:visible;"/>
				</clipPath>
				<path class="st6" d="M830.5,637.4c-337.3,0-610.7-148.6-610.7-331.8C219.8,214,288.2,131,398.7,71C454,41,519.8,16.7,592.8-0.1
					c36.5-8.4,74.9-14.9,114.6-19.3v5h246.2v-5c39.7,4.4,78.1,10.9,114.6,19.3c73.1,16.8,138.9,41.1,194.1,71.1
					c27.6,15,52.6,31.5,74.6,49.1c11,8.8,21.2,18,30.6,27.4c2.4,2.4,4.6,4.7,6.9,7.1h-5.4v302.1h5.4c-2.2,2.4-4.5,4.8-6.9,7.1
					c-9.4,9.4-19.6,18.5-30.6,27.4c-21.9,17.7-46.9,34.1-74.6,49.1C1151.8,600.3,999.2,637.4,830.5,637.4z"/>
			</g>
			<g>
				<defs>
					<polyline id="SVGID_15_" points="1368,744.6 -2.6,744.6 -2.6,-13.7 1368,-13.7 1368,744.6 					"/>
				</defs>
				<clipPath id="SVGID_16_">
					<use xlink:href="#SVGID_15_"  style="overflow:visible;"/>
				</clipPath>
				<path class="st7" d="M830.5,623c-322.6,0-584.1-142.1-584.1-317.4S507.9-11.8,830.5-11.8c161.3,0,307.3,35.5,413,93
					c52.9,28.7,95.6,62.9,125.2,100.9c1.9,2.4,3.6,4.8,5.4,7.2h-5.2V422h5.2c-1.7,2.4-3.5,4.8-5.4,7.2
					c-29.6,38-72.3,72.2-125.2,100.9C1137.9,587.5,991.8,623,830.5,623z"/>
			</g>
			<g>
				<defs>
					<polyline id="SVGID_17_" points="1368,744.6 -2.6,744.6 -2.6,-13.7 1368,-13.7 1368,744.6 					"/>
				</defs>
				<clipPath id="SVGID_18_">
					<use xlink:href="#SVGID_17_"  style="overflow:visible;"/>
				</clipPath>
				<path class="st8" d="M830.5,608.6c-307.9,0-557.6-135.6-557.6-303c0-167.3,249.6-303,557.6-303c154,0,293.4,33.9,394.3,88.7
					c50.5,27.4,91.3,60.1,119.5,96.3c7.1,9.1,13.3,18.3,18.8,27.8c2.7,4.7,5.2,9.5,7.5,14.4h-1.6v151.4h1.6
					c-2.3,4.8-4.8,9.6-7.5,14.4c-5.4,9.5-11.7,18.8-18.8,27.8c-28.2,36.2-69,68.9-119.5,96.3C1123.9,574.7,984.5,608.6,830.5,608.6z
					"/>
			</g>
			<g>
				<defs>
					<polyline id="SVGID_19_" points="1368,744.6 -2.6,744.6 -2.6,-13.7 1368,-13.7 1368,744.6 					"/>
				</defs>
				<clipPath id="SVGID_20_">
					<use xlink:href="#SVGID_19_"  style="overflow:visible;"/>
				</clipPath>
				<ellipse class="st9" cx="830.5" cy="305.6" rx="531" ry="288.5"/>
			</g>
			<g>
				<defs>
					<polyline id="SVGID_21_" points="1368,744.6 -2.6,744.6 -2.6,-13.7 1368,-13.7 1368,744.6 					"/>
				</defs>
				<clipPath id="SVGID_22_">
					<use xlink:href="#SVGID_21_"  style="overflow:visible;"/>
				</clipPath>
				<ellipse class="st10" cx="830.5" cy="305.6" rx="504.5" ry="274.1"/>
			</g>
			<g>
				<defs>
					<polyline id="SVGID_23_" points="1368,744.6 -2.6,744.6 -2.6,-13.7 1368,-13.7 1368,744.6 					"/>
				</defs>
				<clipPath id="SVGID_24_">
					<use xlink:href="#SVGID_23_"  style="overflow:visible;"/>
				</clipPath>
				<ellipse class="st11" cx="830.5" cy="305.6" rx="477.9" ry="259.7"/>
			</g>
			<g>
				<defs>
					<polyline id="SVGID_25_" points="1368,744.6 -2.6,744.6 -2.6,-13.7 1368,-13.7 1368,744.6 					"/>
				</defs>
				<clipPath id="SVGID_26_">
					<use xlink:href="#SVGID_25_"  style="overflow:visible;"/>
				</clipPath>
				<ellipse class="st12" cx="830.5" cy="305.6" rx="451.4" ry="245.3"/>
			</g>
			<g>
				<defs>
					<polyline id="SVGID_27_" points="1368,744.6 -2.6,744.6 -2.6,-13.7 1368,-13.7 1368,744.6 					"/>
				</defs>
				<clipPath id="SVGID_28_">
					<use xlink:href="#SVGID_27_"  style="overflow:visible;"/>
				</clipPath>
				<ellipse class="st13" cx="830.5" cy="305.6" rx="424.8" ry="230.8"/>
			</g>
			<g>
				<defs>
					<polyline id="SVGID_29_" points="1368,744.6 -2.6,744.6 -2.6,-13.7 1368,-13.7 1368,744.6 					"/>
				</defs>
				<clipPath id="SVGID_30_">
					<use xlink:href="#SVGID_29_"  style="overflow:visible;"/>
				</clipPath>
				<path class="st14" d="M830.5,522c-220,0-398.3-96.9-398.3-216.4S610.5,89.2,830.5,89.2s398.3,96.9,398.3,216.4
					S1050.5,522,830.5,522z"/>
			</g>
			<g>
				<defs>
					<polyline id="SVGID_31_" points="1368,744.6 -2.6,744.6 -2.6,-13.7 1368,-13.7 1368,744.6 					"/>
				</defs>
				<clipPath id="SVGID_32_">
					<use xlink:href="#SVGID_31_"  style="overflow:visible;"/>
				</clipPath>
				<path class="st15" d="M830.5,507.6c-205.3,0-371.7-90.4-371.7-202c0-111.5,166.4-202,371.7-202s371.7,90.4,371.7,202
					C1202.3,417.2,1035.8,507.6,830.5,507.6z"/>
			</g>
			<g>
				<defs>
					<polyline id="SVGID_33_" points="1368,744.6 -2.6,744.6 -2.6,-13.7 1368,-13.7 1368,744.6 					"/>
				</defs>
				<clipPath id="SVGID_34_">
					<use xlink:href="#SVGID_33_"  style="overflow:visible;"/>
				</clipPath>
				<path class="st16" d="M830.5,493.2c-190.6,0-345.2-84-345.2-187.5c0-103.6,154.5-187.5,345.2-187.5
					c190.6,0,345.2,84,345.2,187.5S1021.2,493.2,830.5,493.2z"/>
			</g>
			<g>
				<defs>
					<polyline id="SVGID_35_" points="1368,744.6 -2.6,744.6 -2.6,-13.7 1368,-13.7 1368,744.6 					"/>
				</defs>
				<clipPath id="SVGID_36_">
					<use xlink:href="#SVGID_35_"  style="overflow:visible;"/>
				</clipPath>
				<path class="st17" d="M830.5,478.7c-176,0-318.6-77.5-318.6-173.1s142.7-173.1,318.6-173.1c176,0,318.6,77.5,318.6,173.1
					S1006.5,478.7,830.5,478.7z"/>
			</g>
			<g>
				<defs>
					<polyline id="SVGID_37_" points="1368,744.6 -2.6,744.6 -2.6,-13.7 1368,-13.7 1368,744.6 					"/>
				</defs>
				<clipPath id="SVGID_38_">
					<use xlink:href="#SVGID_37_"  style="overflow:visible;"/>
				</clipPath>
				<path class="st18" d="M830.5,464.3c-161.3,0-292.1-71-292.1-158.7s130.8-158.7,292.1-158.7s292.1,71,292.1,158.7
					S991.8,464.3,830.5,464.3z"/>
			</g>
			<g>
				<defs>
					<polyline id="SVGID_39_" points="1368,744.6 -2.6,744.6 -2.6,-13.7 1368,-13.7 1368,744.6 					"/>
				</defs>
				<clipPath id="SVGID_40_">
					<use xlink:href="#SVGID_39_"  style="overflow:visible;"/>
				</clipPath>
				<ellipse class="st19" cx="830.5" cy="305.6" rx="265.5" ry="144.3"/>
			</g>
			<g>
				<defs>
					<polyline id="SVGID_41_" points="1368,744.6 -2.6,744.6 -2.6,-13.7 1368,-13.7 1368,744.6 					"/>
				</defs>
				<clipPath id="SVGID_42_">
					<use xlink:href="#SVGID_41_"  style="overflow:visible;"/>
				</clipPath>
				<path class="st20" d="M830.5,435.5c-132,0-239-58.1-239-129.8s107-129.8,239-129.8s239,58.1,239,129.8
					C1069.5,377.3,962.5,435.5,830.5,435.5z"/>
			</g>
			<g>
				<defs>
					<polyline id="SVGID_43_" points="1368,744.6 -2.6,744.6 -2.6,-13.7 1368,-13.7 1368,744.6 					"/>
				</defs>
				<clipPath id="SVGID_44_">
					<use xlink:href="#SVGID_43_"  style="overflow:visible;"/>
				</clipPath>
				<path class="st21" d="M830.5,421c-117.3,0-212.4-51.7-212.4-115.4s95.1-115.4,212.4-115.4s212.4,51.7,212.4,115.4
					C1042.9,369.4,947.8,421,830.5,421z"/>
			</g>
			<g>
				<defs>
					<polyline id="SVGID_45_" points="1368,744.6 -2.6,744.6 -2.6,-13.7 1368,-13.7 1368,744.6 					"/>
				</defs>
				<clipPath id="SVGID_46_">
					<use xlink:href="#SVGID_45_"  style="overflow:visible;"/>
				</clipPath>
				<ellipse class="st22" cx="830.5" cy="305.6" rx="185.9" ry="101"/>
			</g>
			<g>
				<defs>
					<polyline id="SVGID_47_" points="1368,744.6 -2.6,744.6 -2.6,-13.7 1368,-13.7 1368,744.6 					"/>
				</defs>
				<clipPath id="SVGID_48_">
					<use xlink:href="#SVGID_47_"  style="overflow:visible;"/>
				</clipPath>
				<path class="st23" d="M830.5,392.2c-88,0-159.3-38.8-159.3-86.6S742.5,219,830.5,219s159.3,38.8,159.3,86.6
					S918.5,392.2,830.5,392.2z"/>
			</g>
			<g>
				<defs>
					<polyline id="SVGID_49_" points="1368,744.6 -2.6,744.6 -2.6,-13.7 1368,-13.7 1368,744.6 					"/>
				</defs>
				<clipPath id="SVGID_50_">
					<use xlink:href="#SVGID_49_"  style="overflow:visible;"/>
				</clipPath>
			</g>
			<g>
				<defs>
					<polyline id="SVGID_51_" points="1368,744.6 -2.6,744.6 -2.6,-13.7 1368,-13.7 1368,744.6 					"/>
				</defs>
				<clipPath id="SVGID_52_">
					<use xlink:href="#SVGID_51_"  style="overflow:visible;"/>
				</clipPath>
			</g>
			<g>
				<defs>
					<polyline id="SVGID_53_" points="1368,744.6 -2.6,744.6 -2.6,-13.7 1368,-13.7 1368,744.6 					"/>
				</defs>
				<clipPath id="SVGID_54_">
					<use xlink:href="#SVGID_53_"  style="overflow:visible;"/>
				</clipPath>
				<path class="st24" d="M830.5,348.9c-44,0-79.7-19.4-79.7-43.3s35.7-43.3,79.7-43.3s79.7,19.4,79.7,43.3S874.5,348.9,830.5,348.9
					z"/>
			</g>
			<g>
				<defs>
					<polyline id="SVGID_55_" points="1368,744.6 -2.6,744.6 -2.6,-13.7 1368,-13.7 1368,744.6 					"/>
				</defs>
				<clipPath id="SVGID_56_">
					<use xlink:href="#SVGID_55_"  style="overflow:visible;"/>
				</clipPath>
				<path class="st25" d="M830.5,334.5c-29.3,0-53.1-12.9-53.1-28.9c0-15.9,23.8-28.9,53.1-28.9s53.1,12.9,53.1,28.9
					S859.9,334.5,830.5,334.5z"/>
			</g>
			<g>
				<defs>
					<polyline id="SVGID_57_" points="1368,744.6 -2.6,744.6 -2.6,-13.7 1368,-13.7 1368,744.6 					"/>
				</defs>
				<clipPath id="SVGID_58_">
					<use xlink:href="#SVGID_57_"  style="overflow:visible;"/>
				</clipPath>
				<path class="st26" d="M830.5,320.1c-14.7,0-26.5-6.5-26.5-14.4c0-8,11.9-14.4,26.5-14.4c14.7,0,26.6,6.5,26.6,14.4
					S845.2,320.1,830.5,320.1z"/>
			</g>
		</g>
		<path class="st27" d="M1164.6,241H858c-3.4-22.2,8.9-37.9,26.9-37.9c5.4,0,11.4,1.4,17.5,4.5c-0.8-8.2,0.5-15.5,3.3-21.9
			c12.6-28.3,55.7-37.7,81.2-15.9c-26.7-73.3,137.8-75.6,102.2,13.3c24.1-13.3,51.8-8.9,68,5.3
			C1170.8,200.6,1176.4,219.6,1164.6,241z"/>
		<path class="st28" d="M1056.6,140.2c-0.1,0-0.7-1.4-1.9-2.8c-1.1-1.6-2.9-2.8-4.3-3.8c-1.4-0.8-3.4-1.9-5.2-2.1
			c-1.8-0.4-3.3-0.3-3.3-0.4c-0.2,0-0.6-2.1-0.3-2.2c0,0.1,1.6-0.6,3.9-0.7c2.3-0.3,5.3,0.6,7.3,1.7c1.9,1.3,4,3.6,4.8,5.8
			c0.6,1,0.7,2,0.9,2.7c0.2,0.7,0.3,1.1,0.3,1.1C1058.6,139.7,1056.8,140.3,1056.6,140.2z"/>
		<path class="st28" d="M1051.8,149.4c0,0-4-2.5-6.1-4.2c-0.6-0.4-1.2-0.8-1.8-1.4c-0.6-0.5-1.2-1.1-1.8-1.4
			c-1.2-0.8-2.1-1.4-2.1-1.4c-0.1-0.1,0.4-2.2,0.6-2.2c0,0,1.2,0.2,2.9,0.6c1.7,0.3,3.5,1.4,4.8,2.3c2.5,2,5,6,5,6
			C1053.4,148.1,1052,149.4,1051.8,149.4z"/>
		<path class="st28" d="M1118.6,232c0,0-6,1-9.8,1s-9.8-1-9.8-1c-0.2-0.1-0.2-2.2,0-2.2c0,0,6-1,9.8-1s9.8,1,9.8,1
			C1118.8,230,1118.8,231.9,1118.6,232z"/>
		<path class="st28" d="M1113.7,222.1c0,0-3,1-4.9,1s-4.9-1-4.9-1c-0.1-0.1-0.1-2.2,0-2.2c0,0,3-1,4.9-1s4.9,1,4.9,1
			C1113.8,220,1113.8,221.9,1113.7,222.1z"/>
		<path class="st27" d="M549.2,182.2c4.3-25.9-19.4-38.9-45.4-30.2c23.8-110.1-155.5-127.4-138.2-19.4
			c-34.6-47.5-88.5,6.5-77.7,49.7h-2.2C372.1,182.2,469.3,182.2,549.2,182.2"/>
		<path class="st28" d="M449.4,82.3c0,0-0.3-0.6-0.6-1.2c-0.2-0.7-0.7-1.5-0.8-2.2c-0.1-0.7-0.2-1.8,0-2.7c0.1-0.9,0.3-1.6,0.3-1.6
			c0-0.1,1.9-0.1,2,0c0,0,0.3,0.5,0.6,1.2c0.3,0.7,0.8,1.5,0.9,2.3s0.1,1.9-0.1,2.8s-0.4,1.5-0.4,1.5
			C451.2,82.4,449.6,82.4,449.4,82.3z"/>
		<path class="st28" d="M459.5,88.1c0,0-1.9-4.5-2.6-7.5c-0.6-3-0.7-7.9-0.7-7.9c0-0.2,1.9-0.5,2-0.4c0,0,1.9,4.5,2.6,7.5
			c0.6,3,0.7,7.9,0.7,7.9C461.3,87.9,459.7,88.2,459.5,88.1z"/>
		<path class="st28" d="M466.2,90.2c0,0-0.9-3.7-0.9-6.1s0.9-6.1,0.9-6.1c0-0.1,1.9-0.1,2,0c0,0,0.9,3.7,0.9,6.1s-0.9,6.1-0.9,6.1
			C468,90.3,466.4,90.3,466.2,90.2z"/>
		<path class="st28" d="M344.5,177.3c0,0-3.1-1.2-4.8-2.5c-1.5-1.4-3.1-4.3-3.1-4.3c0-0.1,1.3-1.5,1.4-1.4c0,0,2.8,1.5,4.3,2.7
			s3.3,3.7,3.3,3.7C345.6,175.9,344.7,177.3,344.5,177.3z"/>
		<path class="st28" d="M355.5,178.2c0,0-4.5-3.1-7.2-5.6c-1.2-1.4-2.8-3.1-3.6-4.9c-0.9-1.7-1.5-3-1.5-3c-0.1-0.2,1.6-1.1,1.7-1
			c0,0,0.9,1,2.2,2.2c1.1,1.3,2.9,2.6,4,3.9c2.5,2.4,5.8,6.9,5.8,6.9C356.9,177.1,355.7,178.3,355.5,178.2z"/>
		<path class="st28" d="M363.4,176c0,0-2.7-1.4-4-2.6c-1.3-1.3-2.6-4-2.6-4c0-0.1,1.3-1.4,1.4-1.4c0,0,2.7,1.4,4,2.6
			c1.3,1.3,2.6,4,2.6,4C364.7,174.8,363.6,176,363.4,176z"/>
		<path class="st29" d="M513.2,431.2c0,0,0,48.9,0,73.3l-0.1,12.9c-0.7-0.2-4.2,1-4.9,1.3c-3.2,1.3-3.4-3-6.4-0.6
			c-3.6,0-7.6,0-10.9,0c-4.5,0-7.5-4.9-7.5-4.9l-0.3-81.9h30.1V431.2z"/>
		<path class="st30" d="M367.7,448.4c26.4-20.1,44.7-58.4,47.4-58.3c-6.4-0.2-18-0.5-18.4-0.8c17.7-10.8,34.9-54,28.3-54
			c-0.9-0.4-14.3-0.9-19.3-1.3c30.8-16.6,44.7-52.2,43.9-52.3c-4.4,1.6-18.3,3.1-27.1,4.6c34-23.4,44.2-54.9,37.1-54.8
			c-0.2,0.3,1-0.1-4.3,0.2c15.6-20.9,38.6-93.8,42.2-94.3c0.4-0.5,36.5,74.4,45.6,86.2c-3.3,0.3-2,0.6-4.8,0.9
			c-8.7,0,4.1,30.1,32.7,53.6c-11.1-0.9-15.9-1.7-24.6-2.5c-2.5-0.1,24.7,36.3,44.6,55.4c-6.3,0.6-10,1.2-23.6,1.8
			c-0.9,0,18.7,47.8,36,63.1c-2.8-0.3-5.9-0.6-12.8-0.8c-9,0,7.6,44.1,40.2,76.2c-1.3,0.1-31.3,12.4-58.7-4.6c1,0,5.8,12.5,17,17.4
			c10.2,0.1-21.3,9.2-43.6-15.4c-1.2,0-6.8,7.5,7.2,20.4c-0.1,0.2-27,11.6-56.1-15.7c-26.5,22.6-53.2,4.7-51.5,4.9
			c7.4-9.3,3.3-16.8,9.9-16.8c-26.6,19.7-50.1,5.1-53.1,5.2c13.6-1.5,17-11.9,24.3-11.9C398.4,465.3,363.1,448.3,367.7,448.4z"/>
		<path class="st29" d="M1342.5,514.9c0,0,0,48.9,0,73.3l-0.1,12.9c-0.7-0.2-4.2,1-4.9,1.3c-3.2,1.3-3.4-3-6.4-0.6
			c-3.6,0-7.6,0-10.9,0c-4.5,0-7.5-4.9-7.5-4.9l-0.3-81.9L1342.5,514.9L1342.5,514.9z"/>
		<path class="st30" d="M1196.9,532c26.4-20.1,44.7-58.4,47.4-58.3c-6.4-0.2-18-0.5-18.4-0.8c17.7-10.8,34.9-54,28.3-54
			c-0.9-0.4-14.3-0.9-19.3-1.3c30.8-16.6,44.7-52.2,43.9-52.3c-4.4,1.6-18.3,3.1-27.1,4.6c34-23.4,44.2-54.9,37.1-54.8
			c-0.2,0.3,1-0.1-4.3,0.2c15.6-20.9,38.6-93.8,42.2-94.3c0.4-0.5,36.5,74.4,45.6,86.2c-3.3,0.3-2,0.6-4.8,0.9
			c-8.7,0,4.1,30.1,32.7,53.6c-11.1-0.9-15.9-1.7-24.6-2.5c-2.5-0.1,24.7,36.3,44.6,55.4c-6.3,0.6-10,1.2-23.6,1.8
			c-0.9,0,18.7,47.8,36,63.1c-2.8-0.3-5.9-0.6-12.8-0.8c-9,0.1,7.6,44.1,40.2,76.2c-1.3,0.1-31.3,12.4-58.7-4.6
			c1,0,5.8,12.5,17,17.4c10.2,0.1-21.3,9.2-43.6-15.4c-1.2,0-6.8,7.5,7.2,20.4c-0.1,0.2-27,11.6-56.1-15.7
			c-26.5,22.6-53.2,4.7-51.5,4.9c7.4-9.3,3.3-16.8,9.9-16.8c-26.6,19.7-50.1,5.1-53.1,5.2c13.6-1.5,17-11.9,24.3-11.9
			C1227.6,548.9,1192.3,531.9,1196.9,532z"/>
		<path class="st29" d="M986.4,431.9c0,0,0,37.1,0,55.6v9.8c-0.5-0.2-3.2,0.8-3.8,1c-2.4,1-2.6-2.3-4.8-0.4c-2.8,0-5.8,0-8.3,0
			c-3.4,0-5.7-3.7-5.7-3.7l-0.2-62.2L986.4,431.9L986.4,431.9z"/>
		<path class="st30" d="M875.9,444.9c20-15.3,33.9-44.3,36-44.3c-4.8-0.2-13.6-0.4-14-0.6c13.5-8.2,26.5-41,21.5-41
			c-0.7-0.3-10.8-0.7-14.7-1c23.4-12.6,34-39.7,33.3-39.7c-3.4,1.2-13.9,2.4-20.6,3.5c25.8-17.8,33.5-41.7,28.1-41.6
			c-0.1,0.2,0.7-0.1-3.3,0.1c11.8-15.9,29.3-71.2,32.1-71.6c0.3-0.4,27.7,56.5,34.6,65.4c-2.5,0.2-1.5,0.5-3.6,0.7
			c-6.6,0,3.1,22.9,24.8,40.7c-8.4-0.7-12.1-1.3-18.7-1.9c-1.9,0,18.7,27.6,33.9,42c-4.8,0.5-7.6,0.9-17.9,1.4
			c-0.7,0,14.2,36.3,27.3,47.9c-2.1-0.2-4.5-0.4-9.7-0.6c-6.8,0,5.7,33.5,30.5,57.9c-1,0.1-23.8,9.4-44.6-3.5
			c0.8,0,4.4,9.5,12.9,13.2c7.7,0.1-16.2,7-33.1-11.7c-0.9,0-5.2,5.7,5.4,15.5c-0.1,0.1-20.5,8.8-42.6-11.9
			c-20.1,17.2-40.4,3.6-39.1,3.7c5.6-7,2.5-12.8,7.5-12.7c-20.2,15-38,3.8-40.3,3.9c10.3-1.1,12.9-9,18.4-9
			C899.2,457.8,872.4,444.8,875.9,444.9z"/>
		<path class="st29" d="M302.1,442.3c0,0,0,37.1,0,55.6l-0.1,9.8c-0.5-0.2-3.2,0.8-3.8,1c-2.4,1-2.6-2.3-4.8-0.4c-2.8,0-5.8,0-8.3,0
			c-3.4,0-5.7-3.7-5.7-3.7l-0.2-62.2L302.1,442.3L302.1,442.3z"/>
		<path class="st30" d="M191.6,455.4c20-15.3,33.9-44.3,36-44.3c-4.8-0.2-13.6-0.4-14-0.6c13.5-8.2,26.5-41,21.5-41
			c-0.7-0.3-10.8-0.7-14.7-1c23.4-12.6,34-39.7,33.3-39.7c-3.4,1.2-13.9,2.4-20.6,3.5c25.8-17.8,33.6-41.7,28.1-41.6
			c-0.1,0.2,0.7-0.1-3.3,0.1c11.8-15.9,29.3-71.2,32.1-71.6c0.3-0.4,27.7,56.5,34.6,65.4c-2.5,0.2-1.5,0.5-3.6,0.7
			c-6.6,0,3.1,22.9,24.8,40.7c-8.4-0.7-12.1-1.3-18.7-1.9c-1.9,0,18.7,27.6,33.9,42c-4.8,0.5-7.6,0.9-17.9,1.4
			c-0.7,0,14.2,36.3,27.3,47.9c-2.1-0.2-4.5-0.4-9.7-0.6c-6.8,0,5.7,33.5,30.5,57.9c-1,0.1-23.8,9.4-44.6-3.5
			c0.8,0,4.4,9.5,12.9,13.2c7.7,0.1-16.2,7-33.1-11.7c-0.9,0-5.2,5.7,5.4,15.5c-0.1,0.1-20.5,8.8-42.6-11.9
			c-20.1,17.2-40.4,3.6-39.1,3.7c5.6-7.1,2.5-12.8,7.5-12.7c-20.2,15-38,3.8-40.3,3.9c10.3-1.1,12.9-9,18.4-9
			C214.9,468.2,188,455.3,191.6,455.4z"/>
		<path class="st31" d="M691.5,436.2c0,0,0,60.8,0,91.3l-0.1,16c-0.9-0.3-5.2,1.2-6.2,1.6c-4,1.6-4.2-3.7-7.9-0.7
			c-4.5,0-9.5,0-13.6,0c-5.6,0-9.4-6.1-9.4-6.1l-0.3-102L691.5,436.2L691.5,436.2z"/>
		<path class="st32" d="M510.3,457.6c32.8-25.1,55.7-72.7,59-72.6c-7.9-0.3-22.4-0.6-22.9-1c22.1-13.4,43.4-67.2,35.2-67.3
			c-1.1-0.5-17.8-1.1-24.1-1.7c38.3-20.6,55.7-65,54.7-65.1c-5.5,2-22.8,3.9-33.8,5.7c42.3-29.2,55-68.3,46.2-68.3
			c-0.2,0.4,1.2-0.2-5.4,0.2c19.4-26.1,48.1-116.8,52.6-117.5c0.5-0.7,45.5,92.7,56.8,107.3c-4.1,0.4-2.5,0.8-6,1.2
			c-10.8,0.1,5.1,37.5,40.7,66.8c-13.8-1.1-19.8-2.2-30.7-3.2c-3.1-0.1,30.7,45.2,55.6,68.9c-7.8,0.7-12.5,1.5-29.4,2.3
			c-1.2-0.1,23.3,59.5,44.8,78.6c-3.5-0.4-7.3-0.7-15.9-1c-11.2,0.1,9.4,55,50.1,94.9c-1.6,0.2-39,15.5-73.1-5.7
			c1.3,0,7.2,15.6,21.2,21.6c12.7,0.2-26.6,11.5-54.3-19.2c-1.4,0-8.5,9.4,8.9,25.4c-0.1,0.2-33.6,14.4-69.8-19.5
			c-33,28.2-66.2,5.9-64.1,6.1c9.2-11.6,4.1-20.9,12.3-20.9c-33.1,24.6-62.4,6.3-66.1,6.5c16.9-1.9,21.2-14.8,30.3-14.8
			C548.5,478.6,504.5,457.4,510.3,457.6z"/>
		<path class="st31" d="M48.4,468.3c0,0,0,43.1,0,64.6l-0.1,11.3c-0.6-0.2-3.7,0.9-4.4,1.1c-2.8,1.1-3-2.6-5.6-0.5
			c-3.2,0-6.7,0-9.6,0c-3.9,0-6.7-4.3-6.7-4.3l-0.2-72.3h26.6V468.3z"/>
		<path class="st32" d="M152.2,503.4c-28.8-28.3-43.4-67.2-35.5-67.2c6.1,0.2,8.8,0.5,11.2,0.7c-15.2-13.5-32.6-55.7-31.8-55.7
			c12-0.5,15.3-1.1,20.8-1.6c-17.6-16.8-41.6-48.9-39.4-48.8c7.7,0.7,12,1.5,21.7,2.2c-25.2-20.7-36.5-47.3-28.9-47.3
			c2.5-0.3,1.3-0.6,4.2-0.8c-8-10.4-39.8-76.5-40.2-76c-3.2,0.5-23.5,64.7-37.3,83.2c4.7-0.3,3.7,0.1,3.8-0.2
			c3.5,0,2.3,8.5-4.6,19.5v202.1c8.7,2.7,23,3.9,37.3-8.3c25.6,24.1,49.4,14,49.5,13.8c-12.3-11.4-7.3-18-6.3-18
			c19.7,21.7,47.5,13.7,38.5,13.6c-9.3-4-13.6-14.1-14.8-15.2C124.7,514.3,151,503.6,152.2,503.4z"/>
		<path class="st33" d="M262.1,453.1c25-17,42.4-49.4,45-49.4c-6.1-0.2-17-0.4-17.5-0.7c16.8-9.1,33.1-45.7,26.8-45.7
			c-0.8-0.4-13.5-0.7-18.3-1.1c29.2-14,42.4-44.2,41.7-44.3c-4.2,1.3-17.4,2.6-25.7,3.9c32.2-19.8,41.9-46.4,35.2-46.4
			c-0.2,0.3,0.9-0.1-4.1,0.2c14.8-17.7,36.6-79.4,40.1-79.8c0.4-0.4,34.6,63,43.2,72.9c-3.1,0.3-1.9,0.5-4.5,0.8
			c-8.2,0,3.9,25.5,31,45.4c-10.5-0.8-15.1-1.5-23.4-2.1c-2.4-0.1,23.4,30.7,42.4,46.9c-5.9,0.5-9.5,1-22.4,1.5
			c-0.9,0,17.8,40.4,34.2,53.4c-2.7-0.3-5.6-0.5-12.1-0.7c-8.6,0,7.2,37.3,38.2,64.5c-1.3,0.1-29.7,10.5-55.7-3.9
			c1,0,5.5,10.6,16.1,14.7c9.7,0.1-20.2,7.8-41.4-13c-1.1,0-6.5,6.4,6.8,17.3c-0.1,0.2-25.6,9.8-53.2-13.3
			c-25.1,19.1-50.5,4-48.8,4.1c7-7.9,3.1-14.2,9.4-14.2c-25.2,16.7-47.5,4.3-50.3,4.4c12.9-1.3,16.1-10.1,23-10.1
			C291.2,467.4,257.7,453,262.1,453.1z"/>
		<path class="st33" d="M660.9,482.5c25-17,42.4-49.4,45-49.4c-6.1-0.2-17-0.4-17.5-0.7c16.8-9.1,33.1-45.7,26.8-45.7
			c-0.8-0.4-13.5-0.7-18.3-1.1c29.2-14,42.4-44.2,41.7-44.3c-4.2,1.3-17.4,2.6-25.7,3.9c32.2-19.8,41.9-46.4,35.2-46.4
			c-0.2,0.3,0.9-0.1-4.1,0.2c14.8-17.7,36.6-79.4,40.1-79.8c0.4-0.4,34.6,63,43.2,72.9c-3.1,0.3-1.9,0.5-4.5,0.8
			c-8.2,0,3.9,25.5,31,45.4c-10.5-0.8-15.1-1.5-23.4-2.1c-2.4-0.1,23.4,30.7,42.4,46.9c-5.9,0.5-9.5,1-22.4,1.5
			c-0.9,0,17.8,40.4,34.2,53.4c-2.7-0.2-5.6-0.5-12.1-0.7c-8.6,0,7.2,37.3,38.2,64.5c-1.3,0.1-29.7,10.5-55.7-3.9
			c1,0,5.5,10.6,16.1,14.7c9.7,0.1-20.2,7.8-41.4-13c-1.1,0-6.5,6.4,6.8,17.3c-0.1,0.2-25.6,9.8-53.2-13.3
			c-25.1,19.1-50.5,4-48.8,4.1c7-7.9,3.1-14.2,9.4-14.2c-25.2,16.7-47.5,4.3-50.3,4.4c12.9-1.3,16.1-10.1,23-10.1
			C690,496.8,656.5,482.4,660.9,482.5z"/>
		<path class="st33" d="M977.2,510.6c25-17,42.4-49.4,45-49.4c-6.1-0.2-17-0.4-17.5-0.7c16.8-9.1,33.1-45.7,26.8-45.7
			c-0.8-0.4-13.5-0.7-18.3-1.1c29.2-14,42.4-44.2,41.7-44.3c-4.2,1.3-17.4,2.6-25.7,3.9c32.2-19.8,41.9-46.4,35.2-46.4
			c-0.2,0.3,0.9-0.1-4.1,0.2c14.8-17.7,36.6-79.4,40.1-79.8c0.4-0.4,34.6,63,43.2,72.9c-3.1,0.3-1.9,0.5-4.5,0.8
			c-8.2,0,3.9,25.5,31,45.4c-10.5-0.8-15.1-1.5-23.4-2.1c-2.4-0.1,23.4,30.7,42.4,46.9c-5.9,0.5-9.5,1-22.4,1.5
			c-0.9,0,17.8,40.4,34.2,53.4c-2.7-0.2-5.6-0.5-12.1-0.7c-8.6,0,7.2,37.3,38.2,64.5c-1.3,0.1-29.7,10.5-55.7-3.9
			c1,0,5.5,10.6,16.1,14.7c9.7,0.1-20.2,7.8-41.4-13c-1.1,0-6.5,6.4,6.8,17.3c-0.1,0.2-25.6,9.8-53.2-13.3
			c-25.1,19.1-50.5,4-48.8,4.1c7-7.9,3.1-14.2,9.4-14.2c-25.2,16.7-47.5,4.3-50.3,4.4c12.9-1.3,16.1-10.1,23-10.1
			C1006.3,524.9,972.8,510.5,977.2,510.6z"/>
		<path class="st34" d="M-2.6,354.7v219.5C44.1,559.6,78,516,78,464.4C78,412.9,44.1,369.2-2.6,354.7z"/>
		<path class="st34" d="M201.2,493.2c0,47.6-38.5,86.2-86,86.2s-86-38.6-86-86.2s38.5-86.2,86-86.2
			C162.7,406.9,201.2,445.5,201.2,493.2"/>
		<path class="st34" d="M1079.7,442.5c-14.3-10.6-31.9-16.8-51-16.8c-47.5,0-86,38.6-86,86.2s38.5,86.2,86,86.2
			c19.1,0,36.7-6.2,51-16.8V442.5z"/>
		<path class="st34" d="M1413,342.6c-13.1-12-29.9-20.1-48.9-22.2c-47.2-5.1-89.7,29.2-94.8,76.6c-5.1,47.3,29.1,89.9,76.3,94.9
			c19,2,37.2-2.3,52.5-11.3L1413,342.6z"/>
		<path class="st34" d="M891.4,511.9c0,58-46.9,105.1-104.8,105.1c-57.9,0-104.9-47.1-104.9-105.1s47-105.1,104.9-105.1
			C844.4,406.8,891.4,453.9,891.4,511.9z"/>
		<path class="st34" d="M232.7,528.9c-38.1,0-68.9-30.9-68.9-69.1s30.9-69.1,68.9-69.1c38.1,0,68.9,30.9,68.9,69.1
			C301.7,498,270.8,528.9,232.7,528.9"/>
		<path class="st34" d="M639.8,588.3c-42.1,0-76.2-34.2-76.2-76.4s34.1-76.4,76.2-76.4c42.1,0,76.2,34.2,76.2,76.4
			S681.9,588.3,639.8,588.3z"/>
		<path class="st34" d="M922.2,573.4c-42.1,0-76.2-34.2-76.2-76.4s34.1-76.4,76.2-76.4c42.1,0,76.2,34.2,76.2,76.4
			S964.3,573.4,922.2,573.4z"/>
		<path class="st34" d="M1138.8,573.4c-42.1,0-76.2-34.2-76.2-76.4s34.1-76.4,76.2-76.4s76.2,34.2,76.2,76.4
			C1215.1,539.2,1180.9,573.4,1138.8,573.4z"/>
		<path class="st34" d="M392.3,647.7c-74.8,0-135.5-60.8-135.5-135.8s60.7-135.8,135.5-135.8s135.5,60.8,135.5,135.8
			S467.2,647.7,392.3,647.7z"/>
		<path class="st34" d="M521.9,562.5c-35.1,0-63.5-28.5-63.5-63.6s28.4-63.6,63.5-63.6s63.5,28.5,63.5,63.6S557,562.5,521.9,562.5z"
			/>
		<path class="st34" d="M1236.5,533.5c-35.1,0-63.5-28.5-63.5-63.6s28.4-63.6,63.5-63.6s63.5,28.5,63.5,63.6
			S1271.5,533.5,1236.5,533.5z"/>
		<polyline class="st34" points="1368,472.6 1367.7,745 -1.4,745 -1.4,465.6 		"/>
		<path class="st27" d="M-22.9,133.3c-5.1-28.3,36-48.9,50.2-20.6c-5.1-60.5,79.8-81.1,74.6-11.6c15.4-25.7,47.6-9,48.9,16.7
			c38.6-22.5,47.6,15.4,47.6,15.4S37.6,133.3-22.9,133.3"/>
		<path class="st28" d="M50,72c0,0-0.2,0.1-0.4,0.3c-0.3,0.2-0.7,0.4-1,0.8c-0.8,0.6-1.6,1.5-2.2,2.2c-0.6,0.7-1.4,1.5-1.7,2.4
			c-0.5,0.8-0.5,1.6-0.6,1.6c0,0.1-1.3,0.1-1.3,0c0.1,0-0.2-0.9,0.1-2.1c0.1-1.2,0.9-2.6,1.7-3.5s2.1-1.7,3.2-2.1
			c0.5-0.3,1-0.4,1.4-0.5c0.3-0.1,0.6-0.2,0.6-0.2C49.7,70.9,50.1,71.9,50,72z"/>
		<path class="st28" d="M52.9,77.1c0,0-0.4,0.3-0.9,0.7c-0.5,0.4-1,0.9-1.3,1.2c-0.4,0.3-0.9,0.7-1.2,1c-0.3,0.4-0.4,0.8-0.5,0.8
			h-1.3c0,0-0.2-0.6,0-1.4c0.1-0.9,0.7-1.8,1.3-2.3s1.5-0.9,2.2-1c0.7-0.2,1.2-0.2,1.2-0.2C52.6,75.9,52.9,77,52.9,77.1z"/>
		<path class="st28" d="M125.5,127.6c0,0-3.7,0.4-6.2,0.2c-2.3-0.1-5.9-1-5.9-1c-0.1,0-0.1-1.3,0-1.3c0,0,3.7-0.4,6.2-0.2
			c2.3,0.1,5.9,1,5.9,1C125.6,126.4,125.6,127.5,125.5,127.6z"/>
		<path class="st28" d="M122.7,121.8c0,0-2.4,0.6-4,0.5c-0.8-0.1-1.8-0.3-2.6-0.6c-0.8-0.3-1.4-0.6-1.4-0.6l0.4-1.2c0,0,0.6,0,1.3,0
			c0.7,0,1.7-0.1,2.4,0c1.5,0.1,3.9,0.7,3.9,0.7C122.7,120.6,122.7,121.7,122.7,121.8z"/>
		<rect x="-103.5" y="21.9" class="st35" width="100.9" height="322.2"/>
		<path class="st27" d="M1563.4,111.7h-306.7c-3.4-22.2,8.9-37.9,26.9-37.9c5.4,0,11.4,1.4,17.5,4.5c-0.8-8.2,0.5-15.5,3.3-21.9
			c12.6-28.3,55.7-37.7,81.2-15.9c-26.7-73.3,137.8-75.6,102.2,13.3c24.1-13.3,51.8-8.9,68,5.3
			C1569.6,71.3,1575.1,90.3,1563.4,111.7z"/>
		<path class="st36" d="M1455.3,10.9c-0.1,0-0.7-1.4-1.9-2.8c-1.1-1.6-2.9-2.8-4.3-3.8c-1.4-0.8-3.4-1.9-5.2-2.1
			c-1.8-0.4-3.3-0.3-3.3-0.4c-0.2,0-0.6-2.1-0.3-2.2c0,0.1,1.6-0.6,3.9-0.7c2.3-0.3,5.3,0.6,7.3,1.7c1.9,1.3,4,3.6,4.8,5.8
			c0.6,1,0.7,2,0.9,2.7c0.2,0.7,0.3,1.1,0.3,1.1C1457.3,10.4,1455.5,11,1455.3,10.9z"/>
		<path class="st36" d="M1450.6,20.1c0,0-4-2.5-6.1-4.2c-0.6-0.4-1.2-0.8-1.8-1.4c-0.6-0.5-1.2-1.1-1.8-1.4
			c-1.2-0.8-2.1-1.4-2.1-1.4c-0.1-0.1,0.4-2.2,0.6-2.2c0,0,1.2,0.2,2.9,0.6c1.7,0.3,3.5,1.4,4.8,2.3c2.5,2,5,6,5,6
			C1452.1,18.8,1450.8,20.1,1450.6,20.1z"/>
		<path class="st36" d="M1517.3,102.8c0,0-6,1-9.8,1s-9.8-1-9.8-1c-0.2-0.1-0.2-2.2,0-2.2c0,0,6-1,9.8-1s9.8,1,9.8,1
			C1517.6,100.7,1517.6,102.6,1517.3,102.8z"/>
		<path class="st36" d="M1512.4,92.8c0,0-3,1-4.9,1s-4.9-1-4.9-1c-0.1-0.1-0.1-2.2,0-2.2c0,0,3-1,4.9-1s4.9,1,4.9,1
			C1512.5,90.8,1512.5,92.6,1512.4,92.8z"/>
		<rect x="1368" y="-60.5" class="st35" width="258.5" height="711.6"/>
		<path class="st28" d="M377.2,32.5c-14-6.8-31.1-10.9-36.6,4.7l-0.2-0.1l-0.2,0.1c-5.5-15.6-22.6-11.5-36.6-4.7
			c11.8-2.5,25,0.6,34.8,7.9c-0.2,3.3,2.7,7,3.9,1.6c0.1-0.5,0.1-1,0-1.6C352.2,33.1,365.4,30,377.2,32.5z"/>
		<path class="st28" d="M886.5,373c-14-6.8-31.1-10.9-36.6,4.7l-0.2-0.1l-0.2,0.1c-5.5-15.6-22.6-11.5-36.6-4.7
			c11.8-2.5,25,0.6,34.8,7.9c-0.2,3.3,2.7,7,3.9,1.6c0.1-0.5,0.1-1,0-1.6C861.5,373.6,874.7,370.6,886.5,373z"/>
		<path class="st28" d="M431.6,333.1c-21.9-10.6-48.6-17.1-57.2,7.4c-0.1-0.1-0.2-0.2-0.3-0.2c-0.1,0.1-0.2,0.1-0.3,0.2
			c-8.5-24.4-35.2-17.9-57.2-7.4c18.4-3.8,39,0.9,54.3,12.3c-0.3,5.2,4.2,10.9,6.1,2.6c0.2-0.7,0.2-1.6,0-2.5
			C392.5,334.1,413.1,329.3,431.6,333.1z"/>
		<path class="st28" d="M1313.6,174.6c-21.9-10.6-48.6-17.1-57.2,7.4c-0.1-0.1-0.2-0.2-0.3-0.2c-0.1,0.1-0.2,0.1-0.3,0.2
			c-8.5-24.4-35.2-17.9-57.2-7.4c18.4-3.8,39,0.9,54.3,12.3c-0.3,5.2,4.2,10.9,6.1,2.6c0.2-0.7,0.2-1.6,0-2.5
			C1274.5,175.6,1295.1,170.8,1313.6,174.6z"/>
		<path class="st28" d="M1006.6,181.3c-7.1-3.4-15.7-5.5-18.5,2.4l-0.1-0.1l-0.1,0.1c-2.8-7.9-11.4-5.8-18.5-2.4
			c6-1.2,12.6,0.3,17.6,4c-0.1,1.7,1.4,3.5,2,0.8c0.1-0.2,0.1-0.5,0-0.8C994,181.6,1000.6,180.1,1006.6,181.3z"/>
		<path class="st28" d="M795.8,201.9c-7.1-3.4-15.7-5.5-18.5,2.4l-0.1-0.1l-0.1,0.1c-2.8-7.9-11.4-5.8-18.5-2.4
			c6-1.2,12.6,0.3,17.6,4c-0.1,1.7,1.4,3.5,2,0.8c0.1-0.2,0.1-0.5,0-0.8C783.1,202.2,789.8,200.6,795.8,201.9z"/>
		<path class="st28" d="M796.7,50.2c-21.9-10.6-48.6-17.1-57.2,7.4c-0.1-0.1-0.2-0.2-0.3-0.2c-0.1,0.1-0.2,0.1-0.3,0.2
			c-8.5-24.4-35.2-17.9-57.2-7.4c18.4-3.8,39,0.9,54.3,12.3c-0.3,5.2,4.2,10.9,6.1,2.6c0.2-0.7,0.2-1.6,0-2.5
			C757.6,51.1,778.2,46.3,796.7,50.2z"/>
		<text transform="matrix(0.9572 0 0 1 775.5176 531.54)" class="st37 st38 st39"> </text>
		<g>
			<g>
				<defs>
					<path id="SVGID_59_" d="M162.4,450.7"/>
				</defs>
				<defs>
					<path id="SVGID_60_" d="M162.4,450.7c-0.2,0-0.4,0.1-0.6,0.4l0.4-0.1c-1.3,0.4-0.6,6.7,1,6.8c0,0,0,0,0.1,0
						c0.2,0,0.3-0.1,0.5-0.2"/>
				</defs>
				<clipPath id="SVGID_61_">
					<use xlink:href="#SVGID_59_"  style="overflow:visible;"/>
				</clipPath>
				<clipPath id="SVGID_62_" class="st40">
					<use xlink:href="#SVGID_60_"  style="overflow:visible;"/>
				</clipPath>
				<rect x="161" y="450.7" class="st41" width="3.1" height="7.1"/>
			</g>
		</g>
		<path class="st36" d="M109.1,403.2c0,0-1.7,0.4-2.8,0.4c-1.1,0-2.8-0.4-2.8-0.4v-0.9c0,0,1.7-0.4,2.8-0.4c1.1,0,2.8,0.4,2.8,0.4
			V403.2z"/>
		<path class="st36" d="M107.2,399.4c0,0-1.1,0.4-1.9,0.4c-0.7,0-1.9-0.4-1.9-0.4v-0.9c0,0,1.1-0.4,1.9-0.4c0.7,0,1.9,0.4,1.9,0.4
			V399.4z"/>
	</g>
</g>
<g>
	<rect x="207.3" y="565" class="st42" width="205.3" height="255.9"/>
	<text transform="matrix(0.9572 0 0 1 309.9897 577.2159)" class="st37 st43 st44"> </text>
</g>
<g>
</g>
<g>
	<rect x="750.9" y="565" class="st42" width="205.3" height="255.9"/>
	<text transform="matrix(0.9572 0 0 1 853.5854 577.2159)" class="st37 st43 st44"> </text>
</g>
<g>
	<rect x="1019.7" y="565" class="st42" width="205.3" height="255.9"/>
	<text transform="matrix(0.9572 0 0 1 1122.4143 577.2159)" class="st37 st43 st44"> </text>
</g>
<text transform="matrix(0.9572 0 0 1 -224.2021 170.9424)" class="st43 st44">Lorem ipsum</text>
<polygon class="st42" points="1071.5,517 1110.6,517 1110.6,517 1071.5,517 "/>
<rect x="798.8" y="513.3" class="st42" width="211.5" height="1.2"/>
</svg>
