<?xml version="1.0" encoding="utf-8"?>
<!-- Generator: Adobe Illustrator 22.0.1, SVG Export Plug-In . SVG Version: 6.00 Build 0)  -->
<svg version="1.1" id="Calque_1" xmlns="http://www.w3.org/2000/svg" xmlns:xlink="http://www.w3.org/1999/xlink" x="0px" y="0px"
	 viewBox="0 0 151 268" style="enable-background:new 0 0 151 268;" xml:space="preserve">
<style type="text/css">
	.st0{fill:#212A49;}
	.st1{fill:#F28E79;}
	.st2{fill:#C69666;}
	.st3{fill:#FFEFDA;}
	.st4{opacity:0.15;}
	.st5{fill:#7C7C7D;}
	.st6{opacity:0.25;}
	.st7{fill:#F4C88A;}
	.st8{opacity:0.2;}
	.st9{opacity:0.4;}
	.st10{fill:#FFFFFF;}
	.st11{opacity:0.3;}
	.st12{fill:#5C1D19;}
</style>
<g>
	<g>
		<path class="st0" d="M39.3,224.6c0,0-10.4-36.3-16.7-59.7c-6.3-23.5-15.4-60-15.4-60c-0.3-1.3,1-1.6,1.3-0.4
			c0,0,10.4,36.3,16.7,59.7c6.3,23.5,15.4,60,15.4,60C40.9,225.6,39.8,225.8,39.3,224.6z"/>
	</g>
	<g>
		<path class="st0" d="M45.5,224.9c0,0-5.5-26.4-8.7-43.5c-3.1-17.1-7.4-43.7-7.4-43.7c-0.1-0.9,1.1-1.1,1.3-0.2
			c0,0,5.5,26.4,8.7,43.5c3.1,17.1,7.4,43.7,7.4,43.7C46.8,225.6,45.7,225.8,45.5,224.9z"/>
	</g>
	<g>
		<path class="st0" d="M106.3,225c0,0,7.4-31.9,12.6-52.4c5.2-20.4,13.8-52,13.8-52c0.3-1.1,1.5-0.7,1.3,0.3c0,0-7.4,31.9-12.6,52.4
			c-5.2,20.4-13.8,52-13.8,52C107.3,226.4,106.2,226.1,106.3,225z"/>
	</g>
	<g>
		<path class="st0" d="M100.2,225.2c0,0,3.9-25.2,6.7-41.3c2.9-16.1,8-41.1,8-41.1c0.2-0.9,1.4-0.6,1.3,0.2c0,0-3.9,25.2-6.7,41.3
			c-2.9,16.1-8,41.1-8,41.1C101.3,226.2,100.2,226,100.2,225.2z"/>
	</g>
	<path class="st1" d="M149.4,91.1c-2.9,13.8-9.5,26.8-18.3,38.6c-2.4,3.2-5,6.3-7.7,9.4c-0.9,1-1.8,2-2.7,2.9
		c-0.4,0.4-0.7,0.8-1.1,1.1c-1.6,1.6-3.3,3.3-5,4.8c-3.6,3.4-7.5,6.7-11.4,10c-0.8,0.7-1.6,1.4-2.4,2c-0.1,0.1-0.2,0.2-0.4,0.3
		c-4.9,4-9.8,8-14.6,12.1c-2.8,2.4-5.6,4.9-8.2,7.5c-1.2,1.2-2.4,2.4-3.5,3.5c-0.5-0.5-0.9-1-1.4-1.4c-2.4-2.5-4.8-4.9-7.3-7.3
		c-4.7-4.5-9.5-8.8-14.3-13.1c-6.6-6-13.2-12-19.4-18.4c-0.3-0.3-0.7-0.7-1-1l-0.1-0.1c-8.1-8.5-15.1-18-20.4-28.1
		C-0.5,93-3.8,69.4,7.5,45.4c2.2-4.6,5.3-9.4,9.2-14l0,0C23.9,23,33.5,15,43.9,9.3C49.8,6,55.9,3.4,61.9,1.9c2.5-0.6,5-1.1,7.5-1.3
		c2.1-0.2,4.3-0.3,6.3-0.2c4.3-0.2,8.9,0.3,13.5,1.4c6.1,1.5,12.3,4.1,18.3,7.4h0c7.3,4.1,14.2,9.2,20.2,14.9
		c2.5,2.4,4.8,4.8,6.9,7.3l0,0c3.9,4.6,7.1,9.4,9.2,14C151.3,61,152.5,76.5,149.4,91.1z"/>
	<path class="st2" d="M117,226c-0.3,7.1-0.7,16.2-2.5,24.1c-1.8,7.9-5.2,14.7-11.4,16.9c-3.6,1.3-7.2,1.3-10.7,1.3h-33
		c-3.6,0-7.2,0-10.7-1.3c-9.6-3.4-12.3-17.3-13.3-30c-0.3-3.7-0.5-7.3-0.6-10.6c0-0.2,0-0.3,0-0.5c0,0,0,0,0.1,0c0,0,0,0,0,0H117z"
		/>
	<g>
		<g>
			<path class="st3" d="M88.1,153.7c-0.8,6.7-1.5,13-2.2,18.7c-2.8,2.4-5.6,4.9-8.2,7.5c-1.2,1.2-2.4,2.4-3.5,3.5
				c-0.5-0.5-0.9-1-1.4-1.4c-2.4-2.5-4.8-4.9-7.3-7.3c-1.4-11.2-2.9-24.7-4.5-38.9C57.4,101.3,54,63,54.9,45.1
				c0.8-11.9,1.6-24,4.4-35c0.7-2.8,1.6-5.6,2.6-8.3c2.5-0.6,5-1.1,7.5-1.3c2.1-0.2,4.3-0.3,6.3-0.2c4.3-0.2,8.9,0.3,13.5,1.4
				c5.1,13.1,6.1,28.3,7.1,43.3C97.3,66.2,92.5,115.6,88.1,153.7z"/>
		</g>
		<g>
			<path class="st3" d="M51.2,161.5c-6.6-6-13.2-12-19.4-18.4C22.1,117.2,9,88.8,11,60.8c0.5-10.6,2.4-20.4,5.8-29.3l0,0
				C23.9,23,33.5,15,43.9,9.3c-9,15-12.2,33.2-12.2,52C31.1,96.3,45,128.1,51.2,161.5z"/>
		</g>
		<g>
			<path class="st3" d="M137,93.4c-3.5,14-8.6,31.2-13.6,45.6c-0.9,1-1.8,2-2.7,2.9c-0.4,0.4-0.7,0.8-1.1,1.1
				c-1.6,1.6-3.3,3.3-5,4.8c-3.6,3.4-7.5,6.7-11.4,10c-0.8,0.7-1.6,1.4-2.4,2c0.1-1.2,0.1-2.2,0.2-2.5c4.4-21.7,11.8-42.9,15.8-64.7
				c1.9-10.3,3.1-20.7,2.9-31.4c0-13.2-1.6-26.1-5.7-37.8c-1.7-5-3.9-9.7-6.6-14.2c7.3,4.1,14.2,9.2,20.2,14.9
				c2.5,2.4,4.8,4.8,6.9,7.3l0,0c3.4,9,5.3,18.7,5.8,29.3C141.3,71.7,139.7,82.6,137,93.4z"/>
		</g>
	</g>
	<g class="st4">
		<path class="st5" d="M103.3,157.9c-0.9,0.8-1.9,1.5-2.8,2.3c-4.9,4-9.8,8-14.6,12.1c-2.8,2.4-5.6,4.9-8.2,7.5
			c-1.2,1.2-2.4,2.4-3.5,3.5c-0.5-0.5-0.9-1-1.4-1.4c-2.4-2.5-4.8-4.9-7.3-7.3c-4.7-4.5-9.5-8.8-14.3-13.1c-6.6-6-13.2-12-19.4-18.4
			c-0.4-0.4-0.7-0.8-1.1-1.1C6,115.9-9.2,81,7.5,45.4c2.2-4.6,5.3-9.4,9.2-14l0,0C23.9,23,33.5,15,43.9,9.3
			C49.8,6,55.9,3.4,61.9,1.9c2.5-0.6,5-1.1,7.5-1.3c-3.7,2.9-7.1,6.1-10.1,9.6c-28.8,33.3-25.2,92.6,1.8,125.6
			c1.2,1.4,2.4,2.8,3.6,4.1c5.5,6,14.1,10.5,23.4,13.8c4.2,1.5,8.6,2.7,12.9,3.7c0.7,0.2,1.4,0.3,2.1,0.5
			C103.2,157.9,103.3,157.9,103.3,157.9z"/>
	</g>
	<g class="st6">
		<path class="st5" d="M114.4,250.1c-1.8,7.9-5.2,14.7-11.4,16.9c-3.6,1.3-7.2,1.3-10.7,1.3h-33c-3.6,0-7.2,0-10.7-1.3
			c-9.6-3.4-12.3-17.3-13.3-30c-0.3-3.7-0.5-7.3-0.6-10.6c0-0.2,0-0.3,0-0.5c0,0,0,0,0.1,0c0,0,0,0,0,0h28.8
			C45.2,253.1,85.2,275.1,114.4,250.1z"/>
	</g>
	<path class="st7" d="M116.8,232.7c-2.1,12.1-13.6,14.5-21.5,10.6c-4.1-2-7.3-5.8-7.4-10.9c-0.1,0.4-0.2,0.9-0.4,1.2
		c-0.3,0.9-0.7,1.8-1.1,2.6c-5.6,11-20.3,10.5-25.6,2.4c-0.8-1.2-1.4-2.5-1.7-4c-4.4,12.4-19.6,12.1-24,2.4
		c-1.3-2.8-1.6-6.3-0.6-10.6c0-0.2,0.1-0.3,0.1-0.5c0,0,0,0,0,0c0,0,0,0,0,0c0.3,0.6,0.6,1.1,0.9,1.6c0,0,0,0,0,0
		c6.6,10,19.3,9.7,23.9-1.6h1c0.4,0.9,0.9,1.6,1.5,2.4c7,9.7,21.1,9.6,26.5-2.4h0.9c5.9,12.2,20.9,13.1,26.4,0
		c0-0.1,0.4-0.1,0.7-0.1c0.1,0,0.1,0,0.2,0c0.1,0,0.1,0,0.2,0c0.1,0,0.2,0,0.2,0.1c0,0,0,0.1,0,0.2
		C117.2,228.6,117.1,230.8,116.8,232.7z"/>
	<g class="st8">
		<path class="st5" d="M60.5,226c0.4,0.9,0.9,1.6,1.5,2.4c-1,2.4-1.5,4.2-1.6,6.7c-0.1,0.9,0.4,2.8,0.5,3.6c-0.8-1.2-1.4-2.5-1.7-4
			c-4.4,12.4-19.6,12.1-24,2.4c-1.3-2.8-1.6-6.3-0.6-10.6c0-0.2,0.1-0.3,0.1-0.5c0,0,0,0,0,0c0,0,0,0,0,0c0.3,0.6,0.6,1.1,0.9,1.6
			c0,0,0,0,0,0c6.6,10,19.3,9.7,23.9-1.6H60.5z"/>
	</g>
	<g class="st9">
		<path class="st10" d="M116.5,224.9c0,0.3,0,0.5,0,0.8c-0.3-0.3-0.5-0.5-0.8-0.8H116.5z"/>
	</g>
	<g class="st11">
		<path class="st10" d="M116.8,232.7c-4.9,6.4-12,6-19.2,4.7c-4.7-1-8.8-6.2-9.1-11.4h0.8c5.9,12.2,20.9,13.1,26.4,0
			c0-0.1,0.4-0.1,0.7-0.1c0.1,0,0.1,0,0.2,0c0.1,0,0.1,0,0.2,0c0.1,0,0.2,0,0.2,0.1c0,0,0,0.1,0,0.2
			C117.2,228.6,117.1,230.8,116.8,232.7z"/>
	</g>
</g>
<g class="st9">
	<path class="st10" d="M149.4,91.1c-3.9,1.2-8.1,1.9-12.4,2.4c-6.7,0.6-13.6,0.4-20.1-0.8c-8.4-1.5-16.2-4.4-21.9-8.8
		c-1.9-1.4-3.5-3-4.9-4.8C75.1,60,81,40.8,95.3,30.6c5.3-3.8,11.9-6.4,18.9-7.2c4.4-0.5,9-0.3,13.6,0.7c2.5,2.4,4.8,4.8,6.9,7.3l0,0
		c3.9,4.6,7.1,9.4,9.2,14C151.3,61,152.5,76.5,149.4,91.1z"/>
</g>
<g>
	<path class="st12" d="M73.4,242.2c0,0-0.2,0-0.4,0.1c-0.3,0.1-0.7,0.2-1.1,0.2c-0.9,0.2-2.1,0-3-0.4c-0.9-0.4-1.8-1.1-2.4-1.8
		c-0.3-0.3-0.5-0.7-0.7-0.9c-0.2-0.2-0.2-0.4-0.2-0.4c0-0.1,0.6-0.6,0.7-0.6c0,0,0.1,0.1,0.3,0.3c0.2,0.2,0.5,0.4,0.8,0.6
		c0.6,0.5,1.5,0.9,2.2,1.2c0.7,0.2,1.6,0.6,2.4,0.7c0.4,0.1,0.7,0.1,1,0.1c0.3,0,0.4,0,0.4,0C73.3,241.4,73.4,242.1,73.4,242.2z"/>
</g>
<g>
	<path class="st12" d="M72.4,238.6c0,0-0.1,0-0.2,0.1c-0.1,0.1-0.3,0.2-0.6,0.3c-0.5,0.2-1.2,0.2-1.7,0.1c-0.5-0.1-1.1-0.5-1.4-0.9
		c-0.2-0.2-0.3-0.4-0.4-0.5c-0.1-0.1-0.1-0.2-0.1-0.2c0,0,0.6-0.7,0.6-0.6c0,0,0.3,0.1,0.6,0.3c0.4,0.1,0.8,0.2,1.1,0.3
		c0.3,0.1,0.7,0.2,1.1,0.3c0.4,0.1,0.7,0.1,0.7,0.1C72.2,237.8,72.5,238.6,72.4,238.6z"/>
</g>
<g>
	<path class="st12" d="M112.5,144.2c0,0-1.3-1.2-2-2.1c-0.7-0.8-1.5-2.4-1.5-2.4c0-0.1,0.6-0.7,0.6-0.6c0,0,1.5,1.1,2.2,1.9
		c0.7,0.9,1.3,2.6,1.3,2.6C113.2,143.8,112.5,144.2,112.5,144.2z"/>
</g>
<g>
	<path class="st12" d="M117,142.7c0,0-0.7-0.6-1.7-1.5c-1-0.8-2-2.1-2.8-3c-0.7-1-1.6-2.4-2.1-3.5c-0.6-1.1-1-2-1-2
		c-0.1-0.1,0.7-0.5,0.8-0.5c0,0,2.3,3,3.7,4.9c0.8,0.9,1.6,2.3,2.4,3.2c0.8,1,1.3,1.7,1.3,1.7C117.7,142.2,117.2,142.7,117,142.7z"
		/>
</g>
<g>
	<path class="st12" d="M121.2,139.8c0,0-0.4-0.2-1-0.5c-0.6-0.3-1.2-0.8-1.6-1.3c-0.4-0.5-0.8-1.2-0.9-1.9c-0.1-0.3-0.1-0.6-0.1-0.8
		c0-0.2,0-0.3,0-0.3c0-0.1,0.8-0.3,0.9-0.2c0,0,0.1,0.1,0.1,0.2c0.1,0.1,0.2,0.4,0.4,0.6c0.3,0.4,0.8,0.9,1.1,1.3
		c0.3,0.4,0.7,0.9,1.1,1.4c0.4,0.4,0.7,0.8,0.7,0.8C121.7,139.1,121.3,139.7,121.2,139.8z"/>
</g>
<g>
	<path class="st12" d="M125.7,134.1c0,0-1.2-0.8-1.9-1.5c-0.5-0.7-1.1-2-1.1-2c0,0,0.6-0.7,0.6-0.6c0,0,1.2,0.8,1.9,1.5
		c0.6,0.7,1.1,2,1.1,2C126.3,133.6,125.8,134.1,125.7,134.1z"/>
</g>
<g>
	<path class="st12" d="M89.2,8c0,0-0.6-0.5-1.5-0.9c-0.8-0.5-2-0.8-2.9-1.1c-1.8-0.6-4.9-1.4-4.9-1.4c-0.1,0,0-0.9,0.1-0.9
		c0,0,3.2,0,5.2,0.6c1,0.3,2.3,0.9,3.1,1.7c0.5,0.3,0.8,0.7,1,0.9c0.2,0.3,0.4,0.4,0.4,0.4C89.8,7.5,89.3,8,89.2,8z"/>
</g>
<g>
	<path class="st12" d="M84.6,11c0,0-0.3-0.3-0.8-0.6c-0.4-0.4-1-0.7-1.4-1C82,9,81.5,8.5,81.1,8.2c-0.4-0.3-0.8-0.6-0.8-0.6
		c0,0,0.2-0.9,0.3-0.9c0,0,0.5,0.1,1.1,0.3c0.6,0.2,1.3,0.6,1.8,0.9c0.4,0.4,1,1,1.3,1.5c0.3,0.6,0.5,1,0.5,1
		C85.3,10.5,84.7,11,84.6,11z"/>
</g>
<g>
	<path class="st12" d="M47.2,263.4c0,0-0.2-0.1-0.5-0.2c-0.3-0.1-0.7-0.3-1.1-0.5c-0.9-0.4-1.9-1.4-2.5-2.2c-0.5-0.9-1-2.2-0.9-3.3
		c0-1,0.3-1.8,0.2-1.8c0-0.1,0.9,0,0.9,0.1c0,0,0,0.7,0.2,1.5c0.1,0.9,0.7,1.7,1.1,2.4c0.5,0.6,1.1,1.5,1.8,2.1
		c0.3,0.3,0.6,0.5,0.9,0.7c0.2,0.2,0.4,0.3,0.4,0.3C47.7,262.7,47.4,263.4,47.2,263.4z"/>
</g>
<g>
	<path class="st12" d="M48.3,260.4c0,0-0.4,0-0.9-0.2c-0.5-0.2-1.1-0.6-1.4-1.1c-0.3-0.5-0.5-1.3-0.3-1.8c0.1-0.6,0.4-0.9,0.3-0.9
		c0-0.1,0.8,0.2,0.9,0.3c0,0,0,0.3,0.1,0.6c0.1,0.3,0.3,0.6,0.5,0.9c0.2,0.2,0.3,0.6,0.6,0.9c0.2,0.3,0.5,0.5,0.5,0.5
		C48.6,259.6,48.4,260.3,48.3,260.4z"/>
</g>
<g>
	<path class="st12" d="M101.4,264.3c0,0-1.1-0.5-1.5-0.9c-0.5-0.5-0.9-1.5-0.9-1.5c0,0,0.6-0.6,0.6-0.6c0,0,1.1,0.5,1.5,0.9
		c0.5,0.5,0.9,1.5,0.9,1.5C102,263.8,101.4,264.3,101.4,264.3z"/>
</g>
<g>
	<path class="st12" d="M104.3,261.7c0,0-1.2-1-1.8-1.7c-0.6-0.8-1.2-2.3-1.2-2.3c0-0.1,0.7-0.5,0.8-0.5c0,0,1.2,1,1.8,1.7
		c0.6,0.8,1.2,2.3,1.2,2.3C105.1,261.3,104.4,261.7,104.3,261.7z"/>
</g>
<g>
	<path class="st12" d="M106.4,259.2c0,0-1.2-1-1.8-1.7c-0.6-0.8-1.2-2.3-1.2-2.3c0-0.1,0.7-0.5,0.8-0.5c0,0,1.2,1,1.8,1.7
		c0.6,0.8,1.2,2.3,1.2,2.3C107.1,258.8,106.5,259.2,106.4,259.2z"/>
</g>
<g>
	<path class="st12" d="M11.3,65.3c0,0-1.7-0.4-2.7-0.7c-0.5-0.1-1.1-0.4-1.6-0.5C6.4,64,6,63.9,6,63.9C6,63.9,6,63,6,63
		c0,0,0.5-0.1,1.1-0.1c0.6-0.1,1.4,0,2,0.2c1.2,0.4,2.6,1.5,2.6,1.5C11.7,64.6,11.4,65.3,11.3,65.3z"/>
</g>
<g>
	<path class="st12" d="M13.3,63.3c0,0-0.6-0.1-1.3-0.4c-0.7-0.2-1.6-0.6-2.3-0.8c-0.6-0.3-1.4-0.7-2.1-0.9c-0.6-0.3-1.2-0.3-1.2-0.4
		c-0.1,0-0.1-0.9,0-0.9c0,0,0.2,0,0.4,0c0.3,0,0.6-0.1,1,0c0.8,0,1.8,0.3,2.5,0.6c0.7,0.3,1.5,0.8,2.1,1.2c0.6,0.4,1.1,0.7,1.1,0.7
		C13.7,62.6,13.4,63.3,13.3,63.3z"/>
</g>
<g>
	<path class="st12" d="M13.9,59.8c0,0-1.5-0.1-2.4-0.3c-0.9-0.3-2.1-1.2-2.1-1.2c0,0,0.2-0.9,0.3-0.9c0,0,1.5,0.1,2.4,0.3
		c0.9,0.3,2.1,1.2,2.1,1.2C14.2,59,14,59.7,13.9,59.8z"/>
</g>
</svg>
