<?xml version="1.0" encoding="utf-8"?>
<!-- Generator: Adobe Illustrator 22.0.1, SVG Export Plug-In . SVG Version: 6.00 Build 0)  -->
<svg version="1.1" id="Calque_1" xmlns="http://www.w3.org/2000/svg" xmlns:xlink="http://www.w3.org/1999/xlink" x="0px" y="0px"
	 viewBox="0 0 233 397" style="enable-background:new 0 0 233 397;" xml:space="preserve">
<style type="text/css">
	.st0{fill:#81C9C5;}
	.st1{fill:#212A49;}
	.st2{fill:#DFA177;}
	.st3{opacity:0.3;}
	.st4{fill:#7C7C7D;}
	.st5{fill:#FDFDFD;}
	.st6{fill:#8E5549;}
	.st7{opacity:0.15;}
	.st8{fill:#DDA172;}
	.st9{fill:#F6A976;}
	.st10{fill:#313131;}
	.st11{fill:#5C1D19;}
	.st12{opacity:0.4;}
	.st13{fill:#FFFFFF;}
</style>
<g>
	<path class="st0" d="M232.8,118.1c-1.2,31.3-17.5,64.6-38.7,93.8c-17.3,23.9-38,45-56.6,60H96.6C14.9,198.6-39.7,107.5,36.7,32.3
		C49.1,20.2,63.1,11.8,77.9,6.8c1.7-0.6,3.5-1.1,5.2-1.6c0.5-0.1,1-0.3,1.4-0.4c0.3-0.1,0.5-0.1,0.8-0.2C86,4.4,86.7,4.2,87.4,4
		c0.6-0.1,1.2-0.3,1.8-0.4c0.1,0,0.1,0,0.2,0c0.8-0.2,1.7-0.4,2.5-0.5c5-1,10-1.6,15-1.9c6.5-0.4,13.1-0.2,19.6,0.5
		c5.1,0.5,10.1,1.4,15.1,2.6h0c5.7,1.3,11.2,3.1,16.6,5.2c0,0,0,0,0,0c15,5.9,28.9,14.6,40.5,25.7c7.5,7.2,14.1,15.4,19.4,24.5
		C228,76.5,233.6,96.3,232.8,118.1z"/>
	<g>
		<path class="st1" d="M91.6,322.2c0,0,2.2-14.7,4.2-24.1c2-9.4,5.7-23.8,5.7-23.8c0.1-0.5,1.7-0.2,1.7,0.3c0,0-2.2,14.7-4.2,24.1
			c-2,9.4-5.7,23.8-5.7,23.8C93.1,323,91.6,322.7,91.6,322.2z"/>
	</g>
	<g>
		<path class="st1" d="M137.6,321.9c0,0-3.5-14.2-5.2-23.5c-1.7-9.2-3.6-23.7-3.6-23.7c-0.1-0.5,1.5-0.8,1.7-0.4
			c0,0,3.5,14.2,5.2,23.5c1.7,9.2,3.6,23.7,3.6,23.7C139.2,322.1,137.8,322.4,137.6,321.9z"/>
	</g>
	<polygon class="st2" points="155.2,336.8 154.9,338.8 148,392.9 147.4,398.1 85.6,398.1 78.1,338.8 77.8,336.8 	"/>
	<g class="st3">
		<path class="st4" d="M148,392.9l-0.7,5.3H85.6l-7.8-61.4h39.5c-10.7,8-20.7,20.4-20.4,34c0.5,19.2,15.8,23.3,32.3,23.5
			C135.5,394.4,141.8,393.8,148,392.9z"/>
	</g>
	<path class="st5" d="M148.2,179.8c-4.8,31.7-14.5,61.7-28.4,89.6h-7c-8.7-18.8-16.9-38.1-22.6-58.5c-10.6-40.3-13-83.2-7.2-124.5
		c4.6-30,11.4-58.6,24-85.3c6.5-0.4,13.1-0.2,19.6,0.5c7.8,17.3,15.1,35,20.4,53.6C157.5,95.5,154,138.5,148.2,179.8z"/>
	<path class="st5" d="M105.9,270.3l-3.2,1.1c-18.6-18.6-35.3-38.7-52.6-57.9C19.7,179.7-26.2,71.9,77.9,6.8c4.6-1.6,9.3-2.8,14-3.7
		C64.7,24.3,48.5,57,43.7,89.7c-6.4,44.1,5.3,89.2,27.1,128C80.9,235.8,91.5,255.4,105.9,270.3z"/>
	<path class="st5" d="M181.9,213.4c-17.3,19.2-34,39.3-52.6,57.9l-3.2-1.1c14.3-14.9,25-34.5,35.1-52.6
		c21.8-38.8,33.5-83.9,27.1-128c-4.7-32.1-20.3-64.2-46.7-85.4c5.7,1.3,11.2,3.1,16.6,5.2c0,0,0,0,0,0
		C257,74.8,211.8,180.2,181.9,213.4z"/>
	<g>
		<path class="st1" d="M94.3,359.5c0,0-0.6-7.5-0.6-12.4c0-4.9,0.6-12.4,0.6-12.4c0-0.3,1.2-0.3,1.3,0c0,0,0.6,7.5,0.6,12.4
			c0,4.9-0.6,12.4-0.6,12.4C95.4,359.8,94.4,359.8,94.3,359.5z"/>
	</g>
	<path class="st6" d="M101.3,376.9c-0.1,1.7-0.6,3.4-1.7,4.9c-2.4,3.5-7.5,4.7-11,2c-5-3.9-3.4-10.3-0.3-16.1c2.1-4,4.9-7.7,6.7-10
		c1.1,3.6,3.3,7,4.6,10.8C100.6,371.1,101.5,374.1,101.3,376.9z"/>
	<g>
		<path class="st1" d="M133,336.3c0,0-0.2,1-0.8,2.5c-0.7,1.5-1.7,3.5-3.3,5.5c-3.5,4.2-9.9,6.5-15,6.7c-2.5,0.1-5.5-0.2-8.2-1.2
			c-2.8-1-5.3-2.6-7.1-4.5c-1.9-1.9-2.8-4-3.5-5.5c-0.3-0.8-0.4-1.4-0.5-1.8c-0.1-0.4-0.2-0.7-0.2-0.7c-0.1-0.5,1.1-0.8,1.2-0.3
			c0,0,0.1,0.2,0.2,0.6c0.2,0.4,0.3,1,0.6,1.6c0.7,1.3,1.7,3.2,3.4,4.7c1.7,1.6,4,2.9,6.5,3.7c2.5,0.8,5.1,1,7.4,0.9
			c2.3-0.1,4.9-0.5,7.4-1.4c1.2-0.5,2.4-1,3.5-1.7l0.8-0.5l0.7-0.5c0.4-0.4,0.9-0.8,1.3-1.2c1.6-1.8,2.7-3.6,3.4-4.9
			c0.7-1.3,0.9-2.2,0.9-2.2C132,335.6,133,335.8,133,336.3z"/>
	</g>
	<g>
		<path class="st1" d="M155.2,334.8c0,0,0,0.2,0,0.5c0,0.3,0,0.8,0,1.3c-0.1,1.1-0.3,2.8-0.9,4.5c-0.6,1.8-1.8,3.7-3.5,5
			c-1.7,1.4-3.8,2.2-5.6,2.4c-1.9,0.3-4,0.1-6.1-0.7c-1-0.4-2-0.9-2.8-1.5c-0.8-0.6-1.6-1.3-2.2-2.1c-1.2-1.5-1.7-3.2-1.9-4.3
			c-0.1-0.6-0.1-1.1-0.1-1.4c0-0.3,0-0.5,0-0.5c0-0.4,1.2-0.3,1.3,0c0,0,0,0.2,0,0.4c0,0.3,0.1,0.7,0.2,1.2c0.3,1,0.8,2.3,1.9,3.4
			c0.5,0.6,1.2,1.1,1.9,1.6c0.7,0.4,1.6,0.8,2.4,1.1c1.7,0.5,3.5,0.6,5,0.4c1.5-0.2,3.2-0.8,4.6-1.8c1.4-1,2.5-2.5,3.2-3.9
			c0.7-1.5,1-2.9,1.2-4c0.1-0.5,0.1-0.9,0.1-1.2c0-0.3,0-0.5,0-0.5C154,334.4,155.1,334.4,155.2,334.8z"/>
	</g>
	<g>
		<path class="st1" d="M78.5,336.9c0,0,0,0.5,0.2,1.2c0.2,0.7,0.5,1.6,1.3,2.4c0.7,0.8,1.8,1.4,2.9,1.8c1.2,0.3,2.4,0.4,3.5,0.3
			c2.2-0.1,5-1.2,6.3-3c0.7-0.9,1.1-1.8,1.3-2.5c0.2-0.7,0.2-1.2,0.2-1.1c0-0.2,1.3-0.3,1.3,0c0,0,0,0.1,0,0.4c0,0.2,0,0.6-0.1,1
			c-0.1,0.9-0.4,2.1-1.2,3.3c-0.8,1.2-2,2.3-3.4,3.1c-1.4,0.8-2.9,1.2-4.3,1.3c-1.4,0.1-3,0-4.5-0.6c-1.5-0.6-2.9-1.6-3.7-2.8
			c-0.8-1.2-1.1-2.5-1.2-3.3c-0.1-0.9,0-1.4,0-1.4C77.3,336.7,78.4,336.7,78.5,336.9z"/>
	</g>
	<g class="st7">
		<path class="st4" d="M194.1,211.9c-17.3,23.9-38,45-56.6,60H96.6C14.9,198.6-39.7,107.5,36.7,32.3C49.1,20.2,63.1,11.8,77.9,6.8
			c3.8-1.3,7.6-2.4,11.5-3.2c-28.7,18-46.2,68-46.7,94.1c-2.2,58.8,48.8,108.4,104.8,117C163.5,217.2,179.1,215.7,194.1,211.9z"/>
	</g>
	<rect x="96.7" y="269.5" class="st8" width="40.9" height="9.3"/>
	<g>
		<path class="st1" d="M131.7,373.9c0,0-0.6-11.9-0.6-19.5c0-7.7,0.6-19.5,0.6-19.5c0-0.4,1.2-0.4,1.3,0c0,0,0.6,11.9,0.6,19.5
			c0,7.7-0.6,19.5-0.6,19.5C132.9,374.3,131.8,374.3,131.7,373.9z"/>
	</g>
	<rect x="71.7" y="321.5" class="st9" width="89.7" height="15.2"/>
	<path class="st6" d="M138.3,391.4c-0.3,1.1-0.7,2.2-1.5,3.3c-2.4,3.5-7.5,4.8-11,2c-4.9-3.8-3.4-10.1-0.5-15.8
		c2.1-4.1,5-8,6.9-10.4c1.1,3.6,3.3,7,4.6,10.8C138,384.4,139.1,388.1,138.3,391.4z"/>
	<g class="st3">
		<path class="st10" d="M101.3,376.9c-0.1,1.7-0.6,3.4-1.7,4.9c-2.4,3.5-7.5,4.7-11,2c-5-3.9-3.4-10.3-0.3-16.1
			C88.2,374.5,94.6,378.2,101.3,376.9z"/>
	</g>
	<g class="st3">
		<path class="st10" d="M138.3,391.4c-0.3,1.1-0.7,2.2-1.5,3.3c-2.4,3.5-7.5,4.8-11,2c-4.9-3.8-3.4-10.1-0.5-15.8
			c-0.4,6.3,4.7,10.7,12.8,10.5C138.2,391.4,138.2,391.4,138.3,391.4z"/>
	</g>
</g>
<g>
	<path class="st11" d="M139.6,208.4c0,0-0.8-0.5-1.8-1.2c-0.5-0.3-1.1-0.8-1.6-1.3c-0.5-0.5-1-0.9-1.4-1.4c-0.7-1-1.7-2.2-2.3-3.3
		c-0.6-1.1-1-1.9-1-1.9c-0.1-0.1,0.7-0.5,0.7-0.4c0,0,0.6,0.7,1.3,1.7c0.7,1,1.8,2,2.5,2.9c0.4,0.4,0.8,0.9,1.3,1.4
		c0.4,0.5,0.9,1,1.3,1.4c0.9,0.8,1.5,1.5,1.5,1.5C140.1,207.9,139.7,208.5,139.6,208.4z"/>
</g>
<g>
	<path class="st11" d="M142.4,203.1c0,0-2.1-1.7-3.2-3c-1.1-1.3-2.4-3.6-2.4-3.6c0-0.1,0.6-0.6,0.7-0.5c0,0,2,1.8,3,3.1
		c1.1,1.2,2.6,3.5,2.6,3.5C143.1,202.7,142.5,203.2,142.4,203.1z"/>
</g>
<g>
	<path class="st11" d="M145.8,195.4c0,0-1.4-1.2-2.1-2.2c-0.7-0.9-1.6-2.5-1.6-2.5c0-0.1,0.5-0.6,0.6-0.6c0,0,1.5,1.1,2.3,2.1
		c0.7,1,1.5,2.7,1.5,2.7C146.4,195,145.9,195.5,145.8,195.4z"/>
</g>
<g>
	<path class="st11" d="M89.3,30.9c0,0-0.2-0.2-0.6-0.5c-0.4-0.3-0.9-0.7-1.5-1.1c-1.2-0.9-2.9-1.7-4.2-2.3c-2.6-1.3-7.1-2.6-7.1-2.6
		c-0.2-0.1,0-0.8,0.2-0.8c0,0,0.3,0,0.8,0.1c0.5,0.1,1.2,0.2,1.9,0.3c1.6,0.3,3.5,0.8,4.9,1.5s3.1,1.8,4.3,2.8
		c0.6,0.5,1.1,1,1.4,1.4c0.3,0.4,0.5,0.6,0.5,0.6C90,30.4,89.5,30.9,89.3,30.9z"/>
</g>
<g>
	<path class="st11" d="M81.2,33.3c0,0-0.4-0.2-0.9-0.5c-0.5-0.3-1.2-0.6-1.6-1c-0.5-0.4-1.1-0.9-1.5-1.4c-0.4-0.5-0.7-0.9-0.7-0.9
		c0-0.1,0.5-0.6,0.6-0.6c0,0,0.4,0.2,0.9,0.5c0.5,0.3,1.2,0.6,1.6,1c0.5,0.4,1.1,0.9,1.5,1.4c0.4,0.5,0.7,0.9,0.7,0.9
		C81.8,32.8,81.3,33.3,81.2,33.3z"/>
</g>
<g class="st12">
	<path class="st13" d="M156.9,96.8c-5.5,11.4-15.7,19.4-27.5,23.4c-11.6,3.9-24.7,3.8-36.2-1c-9.2-3.7-17.4-10.4-23.2-20.4
		c-11.4-18.4-2.5-39.9,13.3-53.5c6.8-5.9,14.9-10.2,23.3-12.3c6.2-1.6,12.6-1.8,18.7-0.5l0,0l-2.8-0.7c0.7-0.1,1.3-0.1,2-0.1
		c4.9-0.1,9.5,1.3,13.6,3.6c7.5,7.2,14.1,15.4,19.4,24.5c1.7,4.4,2.7,8.9,3.2,13.1C161.7,82,160.1,90,156.9,96.8z"/>
</g>
</svg>
