<?xml version="1.0" encoding="utf-8"?>
<!-- Generator: Adobe Illustrator 22.0.1, SVG Export Plug-In . SVG Version: 6.00 Build 0)  -->
<svg version="1.1" id="Calque_1" xmlns="http://www.w3.org/2000/svg" xmlns:xlink="http://www.w3.org/1999/xlink" x="0px" y="0px"
	 viewBox="0 0 380 380" style="enable-background:new 0 0 380 380;" xml:space="preserve">
<style type="text/css">
	.st0{fill:#4CBECF;}
	.st1{fill:#80CCDB;}
	.st2{fill:#F6B8C1;}
	.st3{fill:#2DB4C3;}
	.st4{fill:#47BDD2;}
	.st5{fill:#E98EA9;}
	.st6{fill:#E67B9B;}
	.st7{fill:#B58310;}
	.st8{fill:#FFDC45;}
	.st9{fill:#E26A8E;}
	.st10{fill:#F8C499;}
	.st11{fill:#F39966;}
	.st12{fill:#F9C46A;}
	.st13{fill:#FFFFFF;}
	.st14{fill:#F6B45F;}
	.st15{fill:#591412;}
	.st16{fill:#D72419;}
	.st17{fill:#EF8A87;}
	.st18{fill:#EA5D43;}
	.st19{fill:#419D89;}
	.st20{fill:#67B0A2;}
	.st21{fill:#F09EAA;}
	.st22{fill:#FFFEF4;}
	.st23{fill:#9BD1C0;}
	.st24{fill:#EAF4FD;}
	.st25{fill:#EFF8FB;}
	.st26{opacity:0.1;fill:#241A17;enable-background:new    ;}
	.st27{clip-path:url(#SVGID_2_);fill:#F09EAA;}
	.st28{clip-path:url(#SVGID_4_);fill:#F09EAA;}
	.st29{clip-path:url(#SVGID_6_);fill:#F09EAA;}
	.st30{clip-path:url(#SVGID_8_);fill:#2895D3;}
	.st31{clip-path:url(#SVGID_10_);fill:#2895D3;}
	.st32{clip-path:url(#SVGID_12_);fill:#2895D3;}
	.st33{clip-path:url(#SVGID_14_);fill:#F09EAA;}
	.st34{clip-path:url(#SVGID_16_);fill:#F09EAA;}
	.st35{clip-path:url(#SVGID_18_);fill:#9BD1C0;}
	.st36{clip-path:url(#SVGID_20_);fill:#FCFCFC;}
	.st37{clip-path:url(#SVGID_22_);fill:#BADED4;}
	.st38{clip-path:url(#SVGID_24_);fill:#BADED4;}
	.st39{clip-path:url(#SVGID_26_);fill:#FCFCFC;}
	.st40{clip-path:url(#SVGID_28_);fill:#FCFCFC;}
	.st41{clip-path:url(#SVGID_30_);fill:#FCFCFC;}
</style>
<g id="XMLID_1_">
	<rect id="XMLID_218_" y="0" class="st0" width="380" height="384.1"/>
	<path class="st1" d="M327.9,366.1c-4.6,5.7-9.6,7-11.9,4.5c-1.8-1.9-2.2-5.8,0-11.6c0.2-0.6,0.4-1.3,0.7-1.9
		c5.9-13.7,0.3-25.7,17.6-34.7c4.5-2.3,7.1-2.2,8.4-0.6c1.8,2,1.5,6.4,0.3,11c-0.1,0.4-0.2,0.9-0.3,1.3c-0.3,1.8-0.3,3.5,0,4.9
		c1.1,5.6,5.9,8.7,8.7,11.5c2.1,2.1,3.1,4,0.7,6.6c-0.2,0.2-0.5,0.5-0.7,0.7c-2.2,1.8-5.3,1.8-8.7,2
		C337.9,360,332.4,360.4,327.9,366.1 M259.9,377c-4.4,4.4-7.6,5.9-9.3,0.6c-2.9-8.8-12-24.4-4.7-33.6c3.2-4,8.4-7.4,14-6.6
		c2.5,0.3,5,1.5,7.5,3.7c3.4,3,6.1,5.8,7.5,8.7c1,2.3,1.1,4.8,0,7.9c-0.8,2.1-2.3,4.5-4.6,7.2C266.2,369.5,262.8,373.9,259.9,377z
		 M241.8,339c-2.4,0.9-4.8,1.4-7.4,0.9c-0.8-0.2-1.8-0.4-2.6-0.7c-6.3-2.2-12.2-7.8-10-17c1.9-7.7,3.6-13.1,10-14.3
		c2.4-0.4,5.5-0.3,9.4,0.5l0.5,0.1c7.5,1.6,14.2,2.8,18.1,4.5c3.5,1.6,4.7,3.7,1.7,6.8c-0.5,0.6-1.1,1.3-1.7,1.9
		C255.1,327.3,249,336,241.8,339z M232.2,358.1c-0.1,0.2-0.3,0.3-0.4,0.5c-4.7,5.5-12.3,8.4-17.3,8.1c-2.9-0.2-5-1.5-5.1-4.1
		c-0.1-7.1-10.1-20,5.1-22.6c0.3,0,0.6-0.1,0.9-0.1c8.9-1.2,14.1,3.2,16.5,8C233.8,351.9,233.8,356.2,232.2,358.1z M201.3,325.6
		c-0.5-0.9-1.1-1.5-2.1-1.5c-2.7,0-5.5,0.7-8.2,1.8c-6.7,2.4-12.9,6-15.4,1.4c-4-7.1-1.7-26.9,1.7-31.4c6.1-8.2,8.2-1.7,13.7,0.5
		c2.4,0.9,5.4,1.2,9.7-1c0.2-0.1,0.4-0.2,0.6-0.2c3.9-1.3,9.7,4,13.2,11.4c3,6.7,4.2,15.3,0,22.9c-1,2-2.5,3.9-4.4,5.7
		C201.6,343.4,203.7,330.1,201.3,325.6z M191,365.2c-7.1,5.8-16.6,10-23.8,11c-2,0.3-3.6,0.3-5.2,0.2c-3.1-0.4-5.6-0.9-7.7-1.6
		c-6.7-2.3-7.5-6.6-1.4-16.6c0.5-0.9,0.9-1.7,1.4-2.5c5.2-11.3-4.2-17.5,4.2-24c3.3-2.6,5.7,0.2,8.6,3.3c1.9,2,3.9,4.1,6.7,5
		c7.2,2.6,12.1-3,17.1-3c2.2,0,4.4,1,6.7,4.4C203.9,349.9,199.1,358.6,191,365.2z M146.5,315.3c1.1-7-2.4-10.9-6-13.7
		c-4.3-3.3-8.6-5.3-5.4-9.7c1.2-1.7,3.2-2.5,5.4-2.9c4.2-0.9,9.3-0.7,13.9-4.1c1.4-1,2.7-2.4,3.9-4.2c2.9-4.4,6.2-6.5,8.8-6.6
		c3.9,0,6.3,4.8,3.2,14.5c-2.6,8.1-1.5,15.2-3.2,21.8c-1.2,5-4,9.8-11.1,14.4c-0.6,0.4-1.1,0.7-1.7,1
		C146.3,330.1,145.3,323.1,146.5,315.3z M140.6,362.7c-3.4,3.6-8.5,5.3-13.9,5.8c-2,0.2-3.9,0.1-5.9-0.1c-2.6-0.2-5-0.7-7.3-1.6
		c-3.8-1.3-7.1-3.3-8.7-5.7c-5.2-7.4,2.2-14.2,8.5-18.9c0.1-0.1,0.2-0.1,0.2-0.2c3.3-2.7,4.9-10.8,7.3-18.5
		c1.5-4.5,3.2-8.9,5.9-12.1c1.1-1.3,2.3-2.3,3.7-2.9c9.3-4.7,3.2,11.7,4.9,20.5c0.6,3.3,3.1,6.1,5.3,9.1c1.2,1.8,2.5,3.8,3.1,6.1
		C145.8,353.1,144.2,358.9,140.6,362.7z M58.1,354.7c-0.5-0.9-1-2.2-1.4-3.7c-1-4.2-0.3-8.3,1.4-12c3.9-8.5,13.6-14.3,20.4-12
		l0.3,0.1c9.7,3.3,17.6,8.7,19.2,19.4c2.6,18.4-10.2,18.6-17.8,13c-0.4-0.3-0.9-0.6-1.5-0.9C72.1,355.7,62.3,362.4,58.1,354.7z
		 M64.4,300c-2.3-2.5-4.2-4.7-6.3-6.7c-3.3-2.9-7.3-5.1-14-6.5c-11.1-2.2-10.1-13.3-2.8-16.5c4.3-1.9,10.5-7.8,16.7-12.7
		c4.6-3.7,9.2-6.8,13.3-7.7c4.3-0.9,6.7,0.2,7.6,2.6c0.4,1.4,0.4,3,0,5.1c-0.5,2.5-1.8,5.6-3.5,8.8c-5.8,10.6-4.9,16-1,23.5
		C78.9,298.9,70.1,306.3,64.4,300z M69.2,203c-10.9,0.3-8-23.6,5.1-35.3c1-0.9,2.7-1.6,4.7-1.9c6.7-0.9,17.2,2.5,21.8,12.6
		c1.7,3.7,2.5,8.3,2.1,13.9c-0.3,3.9-1,6.8-2.1,8.9c-4.2,8.6-13.5,5.9-21.8,3.7C75.3,203.8,72,202.9,69.2,203z M58.1,121.3
		c-0.3-0.7-0.6-1.6-0.8-2.5c-0.8-3.7-0.4-7.4,0.8-10.6c3.5-9.1,13.6-15.6,20.8-13.3c0.1,0,0.1,0,0.2,0.1c9.9,3.3,17.9,8.7,19.5,19.5
		c2.6,18.4-10.2,18.6-17.8,13c-0.6-0.4-1.4-0.9-2-1C71.8,123.7,61.9,130.5,58.1,121.3z M65,67.7c-2.4-2.7-4.5-5.1-6.9-7.1
		c-3.2-2.7-7.2-4.7-13.4-6c-11.1-2.2-10.1-13.3-2.8-16.5c4.2-1.8,10.1-7.4,16.2-12.3c4.8-3.8,9.7-7.2,13.9-8.1
		c3.5-0.7,5.8-0.1,6.9,1.5c1.2,1.8,1.1,4.6,0,8.3c-0.6,2-1.7,4.3-3,6.7c-5.8,10.6-4.9,16-1,23.5C79.4,66.6,70.6,74,65,67.7z
		 M82.9,39.1c3.8-5.2,10.7-9.5,17.9-6.2c1.1,0.5,2.3,1.3,3.4,2.2c8.3,6.8,12.8,11.7,3.7,23.8c-2.4,3.2-4.8,5.5-7.2,7
		c-6.5,4.3-12.5,2.5-14.8-3.8C82.6,53.3,75.9,48.6,82.9,39.1z M120.7,61c1.5,0.7,2.5,2.6,2.7,5.7c0.2,3.3-1,7.5-2.7,11.9
		c-2.5,6.4-5.9,13.1-7.3,17.8c-0.2,0.9-0.4,1.6-0.5,2.2c-0.8,6.1-7.4,9.5-12.2,5.3c-1-0.9-2-2.1-2.8-3.8
		c-4.7-9.3-9.6-11.4-16.5-14.9c-1.1-0.5-2-1.3-2.5-2.1c-1.2-1.9-1.1-4.2,0-6c1.5-2.4,4.7-4.1,8.8-3.2c4.9,1,8.7,1.2,13-1
		c2.3-1.2,4.6-3,7.3-5.7c1.9-1.9,3.7-3.3,5.4-4.5C116.4,60.8,118.9,60.1,120.7,61z M120.7,22.4c1.5-3,3.6-5,5.9-5.2
		c0.9-0.1,2,0.1,3,0.6c2.7,1.4,6.7,2,10.9,2.7c5.9,1.2,11.8,2.6,13.9,7.5c0.9,2.2,1,5,0,8.8c-0.3,1-0.6,2.1-1,3.3
		c-3,7.9-7.8,12.2-12.9,14c-4.9,1.8-10,1.5-13.9,0c-2.7-0.9-4.9-2.4-5.9-4c-0.2-0.3-0.4-0.6-0.5-0.9C116.4,40,117.4,28.9,120.7,22.4
		z M158.9,48.4c2.7-4.1,5.7-6.2,8.3-6.5c4.3-0.5,6.9,4.3,3.7,14.5c-2.8,8.8-1.4,16.6-3.7,23.8c-1.5,4.3-4.4,8.5-10.5,12.5
		c-0.8,0.5-1.5,0.9-2.3,1.3c-7.6,3.7-8.5-3.3-7.4-10.8c1.1-7.4-2.8-11.2-6.5-14.2c-4-3.2-7.9-5.1-4.9-9.2c1.1-1.6,2.9-2.3,4.9-2.8
		c4-0.9,9.2-0.7,13.9-3.9C156,52,157.6,50.5,158.9,48.4z M162,28.5c0.4-2,2.3-3.3,5.1-4.2c6.1-1.9,16.4-1.6,23.8-1.5
		c3.1,0,5.8,0.1,7.4-0.1c0.9-0.1,1.9-0.2,2.9-0.2c6.6,0,13.8,2.8,11.4,15.9c-1.1,6.4-5.9,11-11.4,13.4c-3.4,1.5-7.1,2.2-10.3,1.9
		c-3.8-0.3-7.1-2.1-8.5-5.2c-2.9-6.3-10.3-10-15.3-13.3C163.9,33,161.6,31,162,28.5z M214.4,98.2c-1,1.7-2.3,3.3-3.8,4.7
		c-9.1,8.7-6-7-9.3-10.4c-0.4-0.4-0.8-0.6-1.5-0.6c-2.9,0-5.9,0.9-8.8,2c-6.5,2.4-12.4,5.6-14.8,1.2c-4-7.1-1.7-26.9,1.7-31.4
		c5.9-8,8.1-2.1,13.2,0.3c2.5,1.2,5.6,1.6,10.3-0.9c3.7-1.9,9.6,2.8,13.2,10.1C218.1,80.4,219.5,90,214.4,98.2z M219.6,35.4
		c2.4-5.1,6.7-10.5,12.1-11.3c1.7-0.2,3.4-0.1,5.3,0.7c1.8,0.7,3.4,1.5,4.7,2.3c4.4,2.8,5.8,6.8,0.9,17.2c-0.3,0.6-0.6,1.3-0.9,1.9
		c-3.2,6.2-6.7,9.8-10,11.1c-3,1.2-5.6,0.2-7.3-2.8C220.9,48,214.8,46.1,219.6,35.4z M259.9,44.5c2.9-1.2,5.8-1.6,8.8-0.6
		c2.1,0.6,4.2,1.6,6,2.9c4.5,3.3,7.4,8.6,4.9,15.8c-1.5,4.2-2.8,7.8-4.9,10.1c-2.9,3.3-7.2,4.3-14.8,2.1c-0.3-0.1-0.6-0.2-0.9-0.3
		c-6.8-2.2-13.2-3.9-17.1-5.9c-4.2-2.1-5.5-4.3-2-7.4c0.6-0.5,1.2-1.2,2-1.9C246.7,54.6,252.9,47.4,259.9,44.5z M286.4,72.4
		c4.6,0,0.7,13.7,5.4,14.3c4.3,0.4,8.9-1,13-2.2c5-1.4,9.1-2.3,10.8,1.4c0.1,0.2,0.2,0.5,0.3,0.9c1.4,3.9,1,10.4,0,16.4
		c-1.1,6.2-3,12-4.9,13.9c-2.8,3-4.7,3.8-6.2,3.5c-4.2-0.9-6.4-9.3-17.1-5.1c-0.4,0.2-0.8,0.2-1.2,0.2c-4,0.1-9.2-5.9-11.7-13.6
		c-1.7-5.2-2.1-11.4,0-17.1c1.4-3.7,3.6-7.1,7.4-10.1C284,73.1,285.4,72.4,286.4,72.4z M304.8,45.9c3.4-2.2,7.3-4,11.1-5.3
		c6.7-2.4,13.5-3.3,17.8-2.4c3.8,0.9,6.8,1.8,8.9,3c4.6,2.6,4.8,6.5,0,13.5c-0.5,0.7-1,1.6-1.7,2.3c-9.1,12.1,1.5,19.8-8,25.9
		c-5.8,3.7-7.6-6.5-14.5-9.8c-0.9-0.4-1.8-0.7-2.6-0.9c-4.2-0.9-7.8,0.9-11.1,1.9c-3.5,0.9-6.7,0.9-10-4.6
		C289.4,60.3,295.6,51.8,304.8,45.9z M364.9,162c-1.9,3.6-4.4,5.9-6.9,6.1c-1,0.1-2.1-0.2-3.2-0.9c-0.9-0.6-2.1-1.2-3.3-1.6
		c-2.6-0.9-5.7-1.7-8.7-2.6c-8.5-2.6-16.1-6.5-9.4-20.1c2.6-5.3,5.9-8.7,9.4-10.8c2.8-1.7,5.8-2.4,8.7-2.6c2.3-0.1,4.6,0.2,6.5,0.7
		c2.8,0.9,5.3,2.1,6.9,3.7c1.1,1,1.9,2.1,2.2,3.2C369.8,145.5,368.2,155.7,364.9,162z M342.6,264.7c-2.7-1.3-5.9-1.6-9.9-0.1
		c-13.5,5.2-11.2-5.1-5.7-18.8c3.4-8.7,10.5-14.5,15.6-13.7c3,0.4,5.3,3,5.9,8.6c0.3,3,1.5,5.8,2.8,8.1c2,3.3,4.5,6.1,6.5,8.6
		c3.6,4.5,5.6,8.4,0,13.6c-0.2,0.2-0.4,0.4-0.7,0.6c-2,1.7-3.7,0.9-5.8-0.6C348.9,269.3,346.2,266.4,342.6,264.7z M274.7,315.5
		c1.4-3.2,3.5-6.1,6.7-8.6c2.4-1.9,3.9-2.4,4.9-2.1c3.7,1.2,0.4,13.7,4.9,14.2c4.5,0.4,9.3-1.3,13.6-2.4c4.8-1.3,8.6-2,10.3,1.6
		c0.4,0.9,0.6,1.9,0.8,3c0.5,2.9,0.4,6.6,0,10.4c-0.8,7.5-3.2,15.3-5.4,17.7c-2.4,2.7-4.2,3.6-5.7,3.5c-4.6-0.2-6.5-9.5-17.8-5.2
		c-0.2,0.1-0.5,0.1-0.7,0.2c-3.8,0.7-8.9-4.6-11.7-12C272.4,329.6,271.8,322.1,274.7,315.5z M239.2,293.5c0.8-0.7,1.7-1.5,2.5-2.4
		c4.9-4.9,11.2-12,18.1-14.5c2.7-1,5.5-1.3,8.3-0.4c2.3,0.6,4.6,1.8,6.5,3.3c4.2,3.3,6.7,8.5,4.4,15.4c-1.4,3.9-2.6,7.1-4.4,9.4
		c-2.8,3.7-6.9,5-14.8,2.9c-0.5-0.1-0.9-0.3-1.5-0.4c-6.5-2.1-12.6-3.8-16.5-5.7C237.3,299.2,235.6,296.7,239.2,293.5z M219.1,267.7
		c2.4-5.3,7.1-10.9,12.8-11.4c1.5-0.1,3.1,0.1,4.7,0.7c2.1,0.9,3.8,1.7,5.3,2.7c3.9,2.8,5,6.9,0.3,16.9c-0.1,0.2-0.2,0.5-0.3,0.7
		c-3.1,6.5-6.7,10.4-10,12c-3.2,1.5-6.1,0.6-7.9-2.5C220.3,280.3,214.2,278.4,219.1,267.7z M201.3,223.3c-0.9-2-1.8-4.5-2.4-7.9
		c-1.4-7.7-0.2-13.2,2.4-16.5c2.4-2.9,6.1-3.8,10.3-2.1c1,0.4,2,0.7,3,1c7.4,2.2,13.8,2,15.8,12.3c1.5,7.4-0.8,17-11.4,18.6
		c-1.5,0.2-3,0.4-4.4,0.5C208.4,229.8,204.1,229,201.3,223.3z M161.5,260.8c0.4-2.1,2.6-3.5,5.7-4.3c6.3-1.8,16.5-1.5,23.8-1.4
		c2.9,0,5.3,0,6.8-0.1c1.1-0.1,2.3-0.2,3.4-0.2c6.5,0.1,13.2,3.3,10.9,15.9c-1.1,6.2-5.6,10.7-10.9,13.2c-3.3,1.6-7.1,2.3-10.3,2.2
		c-4-0.2-7.5-1.9-9-5.3c-2.8-6.1-9.7-9.7-14.7-12.9C163.6,265.5,161,263.4,161.5,260.8z M201.3,233.2c1.2,2,1.9,4.4,2.6,7.2
		c0.9,3.8-0.3,6.6-2.6,8.5c-2.6,2.1-6.5,3.2-10.3,3.3c-0.1,0-0.3,0-0.4,0c-10,0.2-17.6-9.3-23.3-15.7c-0.9-0.9-1.8-1.9-2.5-2.7
		c-2.9-2.9-1.5-4.3,2.5-5c4-0.7,10.7-0.9,18.1-1c2.2-0.1,4.2,0,5.8,0.1C196.6,228.4,199.5,230.3,201.3,233.2z M154.4,211.6
		c-2-4.7-2-9.4-0.4-11.9c0.1-0.2,0.3-0.4,0.4-0.6c3.3-4.7,8-8.6,12.8-11.1c9.4-5,19.3-5.2,20.1,1.8c0.3,3.2,2.1,6.8,3.6,10.7
		c3,7.1,5.8,14.7,0,19.7c-2,1.7-5,3.2-9.3,4.1c-5.7,1.3-10.5,0.9-14.4-0.4C160.6,221.7,156.5,216.6,154.4,211.6z M154.4,251.3
		c-1.8,0.9-3.5,0.6-5-1c-2.1-2.5-5.4-4-8.9-4.9c-5.6-1.7-11.7-2.2-13.9-4.2c-0.7-0.6-1-1.4-0.7-2.4c2.3-10-3.5-13.4-5.2-18.4
		c-0.5-1.5-0.6-3,0-5c0.2-0.6,0.4-1.3,0.8-2c1.1-2.2,2.9-3.2,5.1-3.2c3.7,0,8.8,2.8,13.9,6.7c4.9,3.7,9.9,8.3,13.9,12.4
		c0.3,0.3,0.7,0.7,1,1C163.4,238.5,159.2,248.9,154.4,251.3z M120.7,282.9c-0.5-0.5-0.8-1-1.1-1.7c-3.9-9.4-2.7-21.4,1.1-27.7
		c1.5-2.7,3.6-4.3,5.9-4.3c0.8,0,1.7,0.2,2.5,0.6c2.9,1.5,7.2,2,11.4,2.8c6.4,1.3,12.9,3,13.9,9.4c0.2,1.2,0.2,2.5,0,4
		c-0.2,1.8-0.7,3.8-1.5,6c-2.9,7.7-7.5,11.9-12.2,13.9c-4.8,2-9.9,1.8-13.9,0.4C124.1,285.6,122,284.4,120.7,282.9z M87.1,306.2
		c5.1,1,9,1.2,13.5-1.4c2.1-1.2,4.3-2.9,6.7-5.3c2.1-2.1,4.2-3.8,6-4.8c3-1.8,5.6-2.3,7.3-0.9c1.1,0.9,1.9,2.6,2.1,5.3
		c0.2,2.9-0.7,6.6-2.1,10.4c-2.2,6.1-5.5,12.6-7.3,17.5c-0.5,1.5-0.9,2.8-1,4c-0.8,5.9-6.8,9.3-11.7,5.8c-1.2-0.9-2.4-2.3-3.4-4.2
		c-4.7-9.3-9.6-11.4-16.5-14.9c-0.8-0.4-1.5-0.9-2-1.5c-2.1-2.2-1.9-5.2,0-7.4C80.6,306.6,83.5,305.4,87.1,306.2z M82.4,271.4
		c3.8-5.3,11-9.8,18.4-6c0.9,0.5,1.9,1.2,2.8,1.9c8.3,6.8,12.8,11.7,3.7,23.8c-2.2,2.9-4.5,5.1-6.6,6.6c-6.7,4.8-13,3.2-15.5-3.5
		C82.1,285.6,75.3,280.9,82.4,271.4z M113.5,220.9c2.1,2.1,3.9,4.5,5.7,7.1c0.7,1.2,1.2,2.4,1.5,3.8c0.5,2.3,0.5,5,0,7.7
		c-0.9,4.7-3.5,9.5-7.3,13.1c-3.4,3.3-7.7,5.5-12.8,5.7c-15.7,0.6-7.9-16.2-15.9-22.6c-2.7-2.2-4.9-5.2-5.9-8.4
		c-0.6-2.1-0.7-4.2,0-6.2c1.4-3.8,5.6-7,14.2-8.2c2.7-0.3,5.3-0.2,7.6,0.2C105.6,214.4,109.8,217.3,113.5,220.9z M113.5,166.3
		c1.4-1.4,2.9-2.5,4.7-3.3c0.9-0.4,1.8-0.9,2.6-1.2c2.3-0.9,4.3-1.3,5.9-1.4c8.1-0.3,11,6.9,12,13.1c0.3,1.7,0.9,4.3,1.9,7.4
		c3.3,11.4,9,29.8,2.7,32.9c-0.8,0.4-1.8,0.5-2.7,0.2c-3.8-0.9-8.3-6.6-13.9-11c-1.9-1.5-3.8-2.8-5.9-3.8c-1.4-0.6-2.7-1-4.2-1.4
		c-1.1-0.2-2.2-0.6-3.1-1.2C105.5,192,104.8,175,113.5,166.3z M105.2,135.5c2.4,3.5,5.3,5.1,8.2,6c2.5,0.7,5,1,7.3,1.4
		c2.3,0.3,4.4,0.9,5.9,1.9c1.2,0.9,2.3,2.2,2.9,4.2c0.8,2.5-0.4,4.5-2.9,6.2c-1.5,1-3.5,1.9-5.9,2.6c-2.2,0.6-4.7,1.3-7.3,1.7
		c-3.9,0.7-8.3,1.3-12.8,1.7c-5.7,0.5-11.5,0.7-16.5,0.9c-2,0.1-3.7-0.1-5.4-0.4c-13.6-2.7-14.1-17.2-4.9-16.9
		c1.5,0.1,3.2-0.1,4.9-0.5c8-1.8,16.5-7.8,21.8-9.3C102.8,134.2,104.3,134.2,105.2,135.5z M154.4,151c2.6,0.7,5.6,0.6,9.1-1
		c1.4-0.7,2.6-1.2,3.7-1.6c8.9-2.6,7.5,7,3.7,19.7c-0.9,3-2.2,5.7-3.7,8c-3.8,5.6-9,8.5-12.8,6.5c-2-1-3.5-3.3-4.4-7.4
		c-1.4-6.4-5.8-10.7-9.4-14.4c-5-4.9-8.6-8.8-2-15.7c0.6-0.6,1.4-1,2-1.2C144.1,143.4,148.3,149.3,154.4,151z M214.4,140.3
		c1.8,0.5,3.5,0.9,5.3,0.7c3.6-0.3,8.1-2.1,12.1-3.7c4.5-1.7,8.3-3,10-1.6c0.8,0.7,1.1,2.1,0.6,4.4c-0.1,0.7-0.4,1.6-0.6,2.2
		c-1.7,4.3-5.6,7.9-10,11c-6.3,4.5-13.8,8.2-17.3,12.1c-0.8,0.9-1.5,1.9-1.9,2.8c-2.3,6.2-5.7,13.4-11.3,15
		c-1.7,0.4-3.6,0.4-5.8-0.4c-1.5-0.5-3-1.6-4.5-2.8c-10-9.1-16.6-34,0-41.3c2.8-1.3,6.1-1.9,10.3-2c0.1,0,0.1,0,0.2,0
		C206.2,136.6,210.4,139,214.4,140.3z M231.9,114.6c3.4,4.5,3.7,10.4,1.9,12.7c-0.6,0.7-1.2,1.4-1.9,2c-5.2,4.9-12.9,7.4-17.3,6.4
		c-2.2-0.5-3.5-1.8-3.6-3.9c-0.1-6.8-9.4-19.2,3.6-22.2c0.7-0.2,1.5-0.3,2.4-0.4C224.2,108.1,229.1,110.8,231.9,114.6z M262.1,87.5
		c-0.7,0.7-1.5,1.7-2.3,2.6c-4.8,5.7-10.9,14-18,16.8c-2.2,0.9-4.5,1.2-6.8,0.6c-1-0.2-2.1-0.5-3.2-0.9c-6.1-2.3-11.6-7.8-9.4-16.8
		c1.8-7.4,3.5-12.7,9.4-14.2c2.5-0.6,5.7-0.5,10,0.4h0.1c7.3,1.6,13.9,2.7,17.9,4.4C263.8,82.1,265.3,84.2,262.1,87.5z M274.7,126.7
		c-0.8,1.8-2.2,3.8-4,6c-4,4.9-7.8,9.5-10.8,12.6c-4,4-7.1,5-8.7,0c-2.9-8.8-12-24.4-4.7-33.6c3.1-3.9,8.1-7.1,13.4-6.6
		c2.6,0.2,5.3,1.4,8,3.8c3,2.7,5.4,5,6.8,7.7C276.4,119.4,276.7,122.6,274.7,126.7z M315.9,143.8c4.6,3.5,8.5,6.3,7.6,9.5
		c-0.7,2.4-3.6,3.6-7.6,4c-3.2,0.4-7.2,0.3-11.1,0c-7.4-0.5-14.7-1.7-18.1-1.7h-0.3c-4.3,0-9.1-0.9-11.7-4.5
		c-1.9-2.6-2.4-6.5-0.7-12.6c0.2-0.7,0.4-1.4,0.7-2.1c2.2-5,6.7-8.5,11.7-10.2c7.5-2.6,16-1.2,18.4,4.6c0.1,0.1,0.1,0.3,0.2,0.4
		C306.8,136.7,311.7,140.5,315.9,143.8z M315.9,228.5c-2.5-0.6-4-2.2-4-4.7c-0.2-8.3-11.3-23.1,4-26.9c0.9-0.2,2-0.4,3.1-0.5
		c19.9-2.5,24.5,17.1,20.4,22.1C333.3,226.2,321.9,230.1,315.9,228.5z M253.2,266.8c1-3.5,3.4-6.3,6.6-8.7c4.4-3.3,10-6,14.8-8.5
		c5.1-2.6,9.6-5,10.9-8c0.2-0.5,0.5-1,0.8-1.6c3.7-7.4,9.2-15.2,17.5-11.2c0.3,0.1,0.5,0.3,0.8,0.4c5.5,3.3,10.2,12.5,11.1,21.7
		c0.2,2.3,0.2,4.6,0,6.8c-0.8,6.7-4,12.7-11.1,15.2c-3,1-6.6,1.6-11,1.2c-2.7-0.2-5.1-1.2-7.4-2.3c-3.5-1.7-6.8-3.8-10.4-3.8
		c-0.4,0-0.8,0-1.2,0c-4.7,0.3-10.4,2.4-14.8,3.3C254.9,272.6,251.6,272.3,253.2,266.8z M274.7,166.2c3.4-1.6,7.5-2.8,11.7-3.3
		c3.8-0.4,7.8-0.3,11.6,0.5c2.4,0.5,5,3,6.8,6.6c2.9,5.6,4.2,13.6,0,21.1c-2,3.6-5.2,7-10.1,10.1c-3.2,2-5.9,3-8.3,3.5
		c-5.7,1-9.2-2-11.7-6.4c-3.3-5.9-5-14.2-8.2-18.5C263.1,175.1,267.4,169.6,274.7,166.2z M239.3,238.1c0.9-0.9,1.8-1.9,2.4-2.8
		c6.3-9.2,0.2-19.2,5.1-24.6c4.5-4.8,7.6,1.3,13,5.5c3.4,2.7,7.8,4.6,14,2.4c0.3-0.1,0.5-0.2,0.8-0.3c5.1-1.7,9.9-2.2,11.7,0.2
		c1,1.4,1.1,3.6,0,7c-0.2,0.5-0.4,1-0.6,1.6c-3,7.4-6.8,11.3-11.1,13.7c-4.5,2.5-9.6,3.5-14.8,4.9c-3.2,0.9-6.4,2-9.7,3.8
		c-3.2,1.8-6,2.7-8.3,3.2C232.7,254.3,231.3,246.1,239.3,238.1z M254,195.4c-3.6,4.8-7.2,0.3-12.1-3.3c-2.8-2-6-3.7-10-3.3
		c-1.7,0.1-3.4,0.5-5.4,1.5c-4.8,2.2-9.6,3.5-11.9,1.7c-1.8-1.3-2.3-4-0.7-9.1c0.2-0.7,0.5-1.5,0.7-2.2
		c3.9-10.7,10.2-13.9,17.3-16.7c3.2-1.2,6.5-2.3,10-3.9c1.8-0.9,3.6-1.8,5.4-3c5.6-3.8,9.9-4.8,12.6-4.1c4.5,1.2,4.9,6.9,0,13.3
		c-0.3,0.4-0.6,0.7-0.9,1.2C249.7,178.2,258.9,188.9,254,195.4z M351.3,117.6c2.5,2.3,3.8,4.3,1.4,7.2c-0.4,0.4-0.8,0.9-1.4,1
		c-2.3,1.5-5.3,1.4-8.7,1.6c-4.7,0.2-9.7,0.9-14.2,6.4c-5,6.1-10.4,7.2-12.6,3.8c-1.1-1.8-1.4-4.9,0-9.2c0.3-1,0.7-2.3,1.2-3.6
		c5.9-13.7,0.3-25.7,17.6-34.7c3.8-2,6.3-2.2,7.8-1.2c2.4,1.7,2.1,6.5,0.8,11.5C341.1,109.7,347.5,114,351.3,117.6z M159.1,99.4
		c3.1-2.4,5.4-0.2,8.1,2.7c2,2.1,4.3,4.5,7.3,5.7c6.8,2.5,11.7-2.6,16.5-3c2.4-0.2,4.8,0.9,7.4,4.4c6.2,8.7,1.1,17.5-7.4,24.2
		c-7.2,5.7-16.8,9.8-23.8,10.6c-1.7,0.2-3.2,0.2-4.6,0.1c-3.3-0.4-6.1-0.9-8.2-1.8c-6.2-2.3-6.7-6.7-0.8-16.4
		c0.3-0.4,0.5-0.9,0.8-1.4C160.8,112.6,150.5,106.1,159.1,99.4z M135.8,97.1c0.6,3,2.7,5.7,4.7,8.4c1.5,2.1,2.9,4.2,3.6,6.9
		c2.3,8.8,0.4,14.9-3.6,18.7c-3.5,3.3-8.6,4.9-13.9,5.2c-2,0.1-3.9,0.1-5.9-0.2c-2.6-0.3-5.1-0.9-7.3-1.7c-3.6-1.3-6.5-3.3-8.2-5.6
		c-5.1-7.4,1.9-13.9,8.2-18.6l0.3-0.2c3.2-2.4,4.8-9.5,6.9-16.8c1.5-4.8,3.2-9.8,5.9-13.2c1.2-1.6,2.6-2.8,4.4-3.7
		C140.2,71.8,134.1,88.4,135.8,97.1z M332.4,315.3c-5.8,3.7-7.6-6.5-14.5-9.8c-0.7-0.3-1.4-0.5-2.1-0.7c-4.2-1-7.8,0.6-11.1,1.6
		c-3.7,1-7.2,1.3-10.5-4.5c-5.6-9.5,0.9-18.1,10.5-24c3.4-2.1,7.3-3.9,11.1-5.1c6.6-2.2,13.1-3.2,17.2-2.2c4.3,0.9,7.4,2,9.6,3.3
		c3.8,2.5,3.9,6.1,0,12.4c-0.6,1-1.4,2.1-2.3,3.3C331.3,301.5,342,309.2,332.4,315.3z M380,23.7c-0.1,0-0.1,0-0.2,0.1
		c-7.3,2.8-11.9,1.9-14.8-0.6c-3.2-2.8-4.4-7.7-4.6-11.9c-0.2-2.4-1-6.5-1.9-11.2h-14.7c2.7,0.7,4.8,3.3,5.3,8.5
		c0.3,2.6,1.1,5,2.3,7.1c1.9,3.5,4.4,6.3,6.5,8.9c4,4.9,6.7,9,0,14.9l-0.1,0.1c-2.1,1.8-4.2,0.7-6.4-1c-2.4-2-5.2-4.8-8.7-6.2
		c-2.6-1-5.6-1.3-9.3,0.1c-13.5,5.1-11.2-5.2-5.7-18.9c2.9-7.3,8.3-12.5,13-13.6h-31.5c3.2,3.6,5.8,9.2,7,15.1c0.9,4.6,1,9.3,0,13.5
		C314.7,34.3,311.2,39,305,41c-2.9,0.9-6.3,1.4-10.5,0.9c-2.9-0.2-5.5-1.4-7.9-2.6c-3.3-1.7-6.4-3.5-9.9-3.6c-0.6,0-1.2,0-1.9,0.1
		c-4.7,0.4-10.5,2.6-14.8,3.5c-4.6,0.9-7.6,0.5-6-4.8c0.9-3.3,3.2-6,6-8.3c4.3-3.5,9.9-6.1,14.8-8.6c5.4-2.7,10-5.1,11.4-8.2
		l0.2-0.5c1.5-3.1,3.3-6.3,5.4-8.9h-8c-2.7,4.5-5.8,7.1-9.2,8.9c-4.5,2.4-9.6,3.3-14.8,4.7c-3,0.9-6.1,1.9-9.2,3.7
		c-3.5,1.9-6.4,2.9-8.8,3.2c-8.6,1-9.9-6.9-1.9-14.7c0.7-0.7,1.4-1.4,1.9-2.1c0.9-1.2,1.6-2.5,2.1-3.7h-13
		c-0.9,4.9-7.8,10.3-16.4,12.9c-4.2,1.3-8.7,1.9-13.2,1.6c-0.5,0-1-0.1-1.7-0.2c-2.8-0.4-6.3-3.5-8.6-8.1c-1-1.9-1.7-4-2.1-6.2h-4.7
		c-2.6,6.2-7.8,11.5-14.5,7.5c-0.9-0.5-1.8-1-2.6-1.7C164.9,4.2,163,2.4,162,0h-4.1c5.6,7.9,1.3,17.4-3.5,18.9
		c-1.5,0.5-3.1,0.2-4.4-1.4c-2.2-2.6-5.7-4.1-9.4-5.1c-6-1.7-12.5-2.2-13.9-4.7c-0.3-0.5-0.3-1-0.2-1.7c0.1-0.3,0.1-0.6,0.2-0.9
		c0.4-1.9,0.4-3.6,0.2-5.1h-5.4c0.5,2.8,0.2,6-0.7,9.1c-1.2,4.2-3.8,8.4-7.3,11.4c-3.3,2.9-7.5,4.9-12.2,5.1c-0.2,0-0.3,0-0.5,0
		C85.9,25.9,93.3,9.4,85.4,3.1c-1-0.9-2-1.9-2.9-3.1H69.9c3.6,2.9,6.9,4.6,1.6,11.6c-1.8,2.3-7.3,5.5-13.5,7.9
		c-6.7,2.5-14.2,4.2-18.6,3.2c-6.8-1.8-2.1-13-3-22.6h-4.2v75.1c0.5-0.7,1-1.5,1.5-2.2c9.3-12.5,15.7-10.1,24.4-3.9
		c0.4,0.3,0.9,0.6,1.4,0.9c9.6,6.8,6.9,17.3,2,23.7c-1.1,1.5-2.3,2.6-3.4,3.5c-6.5,5.1-12.8,0.9-21.3,0.1c-1.8-0.2-3.3-0.6-4.7-1.4
		v8.2c3.2-1.8,6.9-2.3,11.2-0.6c12.6,4.7,1.5,13.9,7.8,22.9c1.8,2.5,4.6,4.1,7.1,5.3c3.6,1.9,6.5,3.5,5,7.2c-1.2,3.2-3,4.5-5,5.2
		c-4.9,1.7-11.6-0.6-18.8,7.2c-2.8,3-5.2,5.1-7.2,6.2v11.2c1.5-1.8,3.4-3.6,6.3-5.5c8.6-5.7,15.9-11,19.6-10.6
		c1.7,0.2,2.6,1.5,2.7,4.3c0.2,8.4,3.7,23.5-2.7,31.2c-0.7,0.9-1.5,1.6-2.5,2.2c-6.1,4.1-15.8,5.8-21.3-3.6
		c-0.8-1.4-1.5-2.6-2.2-3.8v23.3c8.6-4.2,19.1-2.9,25.9,0.3c4.8,2.3,7.9,5.7,7.3,8.7c-3.3,17.2,16,12.3,6.3,25.1
		c-1.8,2.3-7.4,5.5-13.6,7.9c-6.7,2.5-14.1,4.2-18.6,3c-7.7-2-0.8-15.9-3.6-26c-0.4-1.5-1.9-1.9-3.7-1.9v83c0.3-0.4,0.6-0.9,1-1.4
		c9.6-12.7,15.9-10,25-3.6c0.3,0.2,0.5,0.4,0.8,0.6c9.6,6.8,6.9,17.3,2,23.7c-0.9,1.3-1.9,2.2-2.8,3c-6.7,5.9-13.2,1.4-21.9,0.5
		c-1.5-0.1-2.9-0.5-4-1v7.7c3.1-1.6,6.6-1.9,10.6-0.4c12.6,4.7,1.5,13.9,7.8,22.9c2,2.7,5,4.3,7.6,5.7c3.3,1.8,5.9,3.3,4.5,6.9
		c-1.1,2.8-2.7,4.2-4.5,5c-4.9,2.1-11.9-0.7-19.3,7.4c-0.2,0.2-0.3,0.3-0.5,0.5h28.9c-0.6-3.9,1.6-7.4,6.1-7.2
		c1.8,0.1,3.6-0.2,5.4-0.6c8.1-2,16.7-8.1,21.8-9.3c1.8-0.4,3.1-0.3,3.9,0.9c2.6,3.7,5.7,5.2,8.8,6.2c2.5,0.7,5,0.9,7.3,1.3
		c2.3,0.4,4.4,0.9,5.9,2.3c1,0.9,1.8,2.1,2.3,3.8c0.3,1,0.3,1.9,0,2.8h5.6c-0.1-2.1,0.9-4.4,3.6-7.1c0.8-0.9,1.7-1.2,2.6-1.2
		c3.5,0.1,7.8,5.8,13.9,7.2c2.5,0.5,5.3,0.4,8.5-1.3c1.7-0.9,3-1.4,4.3-1.7c4-1,5.7,0.6,6.1,4h7.3c0.8-5.9,4-11.1,10.4-13.7
		c2.7-1,5.9-1.7,9.9-1.8c0.1,0,0.3,0,0.4,0c4.9,0.1,9,2.6,13.2,3.8c1.5,0.4,3.1,0.7,4.7,0.6c3.8-0.3,8.5-2.3,12.6-3.9
		c4.8-1.8,8.8-3,10-0.6c0.3,0.7,0.4,2,0.1,3.6c0,0.1-0.1,0.3-0.1,0.4c-1.1,4.6-4.6,8.3-9,11.6h41.8c-2.3-2.5-3.1-6.7-1.3-13.3
		c0.3-1.2,0.7-2.2,1.4-3.3c2.5-4.6,6.9-7.7,11.7-9.2c7.6-2.4,15.9-0.7,18.1,5.3c0.1,0.3,0.2,0.6,0.4,0.9c2.2,4.9,6.9,8.6,11.1,11.7
		c3.5,2.9,6.6,5.3,6.9,7.7h7.2c0-2.4,0.8-5.4,2.6-9.1c2.7-5.6,6.2-9.1,10-11.1c2.9-1.6,5.8-2.2,8.7-2.3c2.3,0,4.6,0.3,6.5,0.9
		c2.9,0.9,5.4,2.4,6.9,4c0.8,0.9,1.4,1.8,1.7,2.6c1.5,4.8,1.6,10.2,0.9,15h12.5v-0.8c-6.7-6.9-9.7-12.2-0.3-22.7
		c0.1-0.1,0.2-0.2,0.3-0.3v-7.8c-8.5,6.8-15.3,7.8-15.1-1.2c0.2-9,11.6-23.5,13.3-30.7c0.3-1.5,1-2.7,1.8-3.7v-8.7
		c-0.4,0.3-0.9,0.5-1.3,0.8c-5.2,3.2-7.6,17.7-13.7,26.3c-1.8,2.5-3.9,4.5-6.5,5.6c-0.1,0.1-0.3,0.1-0.4,0.2
		c-9.2,2.9-1.8-12.6-2.6-21.3c-0.3-3.3-2.3-6-4-9c-1.2-2.1-2.4-4.3-2.8-6.9c-1.1-7.1,0.1-12.2,2.8-15.7c1.7-2.2,3.9-3.8,6.5-4.8
		c2.2-0.9,4.6-1.4,6.9-1.6c5.1-0.4,10.6,0.6,15.1,2.5v-7.2c-6-1.9-12.1-1.6-13.4-8.2c-1.1-4.9,4.9-7.4,13.4-8.5v-4.8
		c-0.3,0.1-0.6,0.3-0.9,0.4c-6.8,2.6-11.4,2-14.3-0.2c-3.6-2.7-4.9-7.9-5.2-12.3c-0.1-2.2-0.9-6.2-1.8-10.7
		c-1.8-9.1-3.8-20.7-1.9-26.4c-1.4,0.5-2.9,0.6-4.7,0.2c-2.6-0.5-5.6-2-8.7-4.1c-7.7-4.9-16.2-13.2-22.4-19.7
		c-2.6-2.7-3.9-5.5-4.4-8.2c-0.2-1.3-0.2-2.5,0-3.7c1.1-7.4,8.9-12.1,12.9-7.1c2.9,3.7,8.5,5.8,13.8,7.4c3.2,1,6.3,1.9,8.7,2.7
		c3,1.2,4.9,2.5,4.2,4.4c-2.3,6.8,0.2,10.9,2.5,14.6c2,3.2,3.7,6,1.8,9.8c1.7-0.2,3.4,0.7,5.2,2.4c4.1,3.7,8.9,10.9,15.2,14.4v-13.1
		c-6.5-1.9-11.3-6.7-15.2-12.8c-0.7-1.3-1.5-2.5-2.2-3.8c-2.6-4.8-1.5-11.7,2.2-17.5c3.3-5.3,8.7-9.6,15.2-10.6v-11.4
		c-6.3-6.6-8.9-11.9,0-21.9v-7.9c-8.1,6.3-14.6,6.9-14.4-1.7c0.2-9,11.6-23.5,13.3-30.7c0.2-1,0.6-1.8,1.1-2.6V76
		c-0.3,0.2-0.6,0.4-0.9,0.5c-5.4,3.3-7.7,18.7-14.3,27c-1.7,2.2-3.6,3.9-6,4.7c-0.3,0.1-0.7,0.2-1,0.3c-8.2,2.3-1-12.7-1.9-21.3
		c-0.3-3.6-2.7-6.6-4.7-10.1c-1-1.8-1.9-3.8-2.3-6c-1-6.6-0.1-11.4,2.3-14.9c1.7-2.4,3.9-4.2,6.5-5.5c2.2-0.9,4.5-1.6,6.9-1.8
		c5.2-0.3,10.7,0.7,15.3,2.5v-7c-5.8-1.8-11.6-1.6-13-8.1c-1-4.9,4.8-7.3,13-8.4v-4.4H380z"/>
	<rect id="XMLID_162_" y="0" class="st2" width="108.9" height="384.1"/>
	<path id="XMLID_161_" class="st3" d="M271.8,338.1l-2.5,0.4c-7.7,0.7-14.9-4.8-16.2-12.7l0,0c1.4,8.3-4.1,16.2-12.2,17.7
		c-8.2,1.4-16-4.3-17.5-12.5l0,0c1.4,8.3-4.1,16.3-12.4,17.7l0,0.2l-1.7,0.3c-6.4,1.1-12.5-3.2-13.6-9.7l-38.5-224.1
		c-1.6-2-2.8-4.5-3.2-7.2l-2.7-15.8c-1.5-8.6,4.2-16.7,12.7-18.2l115.2-20.2c8.5-1.5,16.5,4.3,18,12.8l2.7,15.8
		c0.4,2.5,0.2,5-0.5,7.3l38.6,224.7c1,5.9-2.5,11.6-8,13.3l0-0.1c-8.2,1.5-16.1-4.2-17.6-12.5l0,0c1.4,8.3-4.1,16.2-12.2,17.7
		c-8.2,1.4-16-4.3-17.5-12.5l0,0C284.1,328.5,279.3,336.1,271.8,338.1"/>
	<path class="st4" d="M239.2,293.5c0.8-0.7,1.7-1.5,2.5-2.4c4.9-4.9,11.2-12,18.1-14.5c2.7-1,5.5-1.3,8.3-0.4
		c2.3,0.6,4.6,1.8,6.5,3.3c4.2,3.3,6.7,8.5,4.4,15.4c-1.4,3.9-2.6,7.1-4.4,9.4c-2.8,3.7-6.9,5-14.8,2.9c-0.5-0.1-0.9-0.3-1.5-0.4
		c-6.5-2.1-12.6-3.8-16.5-5.7C237.3,299.2,235.6,296.7,239.2,293.5 M219.1,267.7c2.4-5.3,7.1-10.9,12.8-11.4
		c1.5-0.1,3.1,0.1,4.7,0.7c2.1,0.9,3.8,1.7,5.3,2.7c3.9,2.8,5,6.9,0.3,16.9c-0.1,0.2-0.2,0.5-0.3,0.7c-3.1,6.5-6.7,10.4-10,12
		c-3.2,1.5-6.1,0.6-7.9-2.5C220.3,280.3,214.2,278.4,219.1,267.7z M201.3,223.3c-0.9-2-1.8-4.5-2.4-7.9c-1.4-7.7-0.2-13.2,2.4-16.5
		c2.4-2.9,6.1-3.8,10.3-2.1c1,0.4,2,0.7,3,1c7.4,2.2,13.8,2,15.8,12.3c1.5,7.4-0.8,17-11.4,18.6c-1.5,0.2-3,0.4-4.4,0.5
		C208.4,229.8,204.1,229,201.3,223.3z M214.4,140.3c1.8,0.5,3.5,0.9,5.3,0.7c3.6-0.3,8.1-2.1,12.1-3.7c4.5-1.7,8.3-3,10-1.6
		c0.8,0.7,1.1,2.1,0.6,4.4c-0.1,0.7-0.4,1.6-0.6,2.2c-1.7,4.3-5.6,7.9-10,11c-6.3,4.5-13.8,8.2-17.3,12.1c-0.8,0.9-1.5,1.9-1.9,2.8
		c-2.3,6.2-5.7,13.4-11.3,15c-1.7,0.4-3.6,0.4-5.8-0.4c-1.5-0.5-3-1.6-4.5-2.8c-10-9.1-16.6-34,0-41.3c2.8-1.3,6.1-1.9,10.3-2
		c0.1,0,0.1,0,0.2,0C206.2,136.6,210.4,139,214.4,140.3z M231.9,114.6c3.4,4.5,3.7,10.4,1.9,12.7c-0.6,0.7-1.2,1.4-1.9,2
		c-5.2,4.9-12.9,7.4-17.3,6.4c-2.2-0.5-3.5-1.8-3.6-3.9c-0.1-6.8-9.4-19.2,3.6-22.2c0.7-0.2,1.5-0.3,2.4-0.4
		C224.2,108.1,229.1,110.8,231.9,114.6z M262.1,87.5c-0.7,0.7-1.5,1.7-2.3,2.6c-4.8,5.7-10.9,14-18,16.8c-2.2,0.9-4.5,1.2-6.8,0.6
		c-1-0.2-2.1-0.5-3.2-0.9c-6.1-2.3-11.6-7.8-9.4-16.8c1.8-7.4,3.5-12.7,9.4-14.2c2.5-0.6,5.7-0.5,10,0.4h0.1
		c7.3,1.6,13.9,2.7,17.9,4.4C263.8,82.1,265.3,84.2,262.1,87.5z M274.7,126.7c-0.8,1.8-2.2,3.8-4,6c-4,4.9-7.8,9.5-10.8,12.6
		c-4,4-7.1,5-8.7,0c-2.9-8.8-12-24.4-4.7-33.6c3.1-3.9,8.1-7.1,13.4-6.6c2.6,0.2,5.3,1.4,8,3.8c3,2.7,5.4,5,6.8,7.7
		C276.4,119.4,276.7,122.6,274.7,126.7z M253.2,266.8c1-3.5,3.4-6.3,6.6-8.7c4.4-3.3,10-6,14.8-8.5c5.1-2.6,9.6-5,10.9-8
		c0.2-0.5,0.5-1,0.8-1.6c3.7-7.4,9.2-15.2,17.5-11.2c0.3,0.1,0.5,0.3,0.8,0.4c5.5,3.3,10.2,12.5,11.1,21.7c0.2,2.3,0.2,4.6,0,6.8
		c-0.8,6.7-4,12.7-11.1,15.2c-3,1-6.6,1.6-11,1.2c-2.7-0.2-5.1-1.2-7.4-2.3c-3.5-1.7-6.8-3.8-10.4-3.8c-0.4,0-0.8,0-1.2,0
		c-4.7,0.3-10.4,2.4-14.8,3.3C254.9,272.6,251.6,272.3,253.2,266.8z M274.7,166.2c3.4-1.6,7.5-2.8,11.7-3.3
		c3.8-0.4,7.8-0.3,11.6,0.5c2.4,0.5,5,3,6.8,6.6c2.9,5.6,4.2,13.6,0,21.1c-2,3.6-5.2,7-10.1,10.1c-3.2,2-5.9,3-8.3,3.5
		c-5.7,1-9.2-2-11.7-6.4c-3.3-5.9-5-14.2-8.2-18.5C263.1,175.1,267.4,169.6,274.7,166.2z M239.3,238.1c0.9-0.9,1.8-1.9,2.4-2.8
		c6.3-9.2,0.2-19.2,5.1-24.6c4.5-4.8,7.6,1.3,13,5.5c3.4,2.7,7.8,4.6,14,2.4c0.3-0.1,0.5-0.2,0.8-0.3c5.1-1.7,9.9-2.2,11.7,0.2
		c1,1.4,1.1,3.6,0,7c-0.2,0.5-0.4,1-0.6,1.6c-3,7.4-6.8,11.3-11.1,13.7c-4.5,2.5-9.6,3.5-14.8,4.9c-3.2,0.9-6.4,2-9.7,3.8
		c-3.2,1.8-6,2.7-8.3,3.2C232.7,254.3,231.3,246.1,239.3,238.1z M254,195.4c-3.6,4.8-7.2,0.3-12.1-3.3c-2.8-2-6-3.7-10-3.3
		c-1.7,0.1-3.4,0.5-5.4,1.5c-4.8,2.2-9.6,3.5-11.9,1.7c-1.8-1.3-2.3-4-0.7-9.1c0.2-0.7,0.5-1.5,0.7-2.2
		c3.9-10.7,10.2-13.9,17.3-16.7c3.2-1.2,6.5-2.3,10-3.9c1.8-0.9,3.6-1.8,5.4-3c5.6-3.8,9.9-4.8,12.6-4.1c4.5,1.2,4.9,6.9,0,13.3
		c-0.3,0.4-0.6,0.7-0.9,1.2C249.7,178.2,258.9,188.9,254,195.4z M253.3,329.6c-0.5,6.8-5.5,12.8-12.4,14c-7.2,1.2-14.2-3-16.7-9.8
		c2,2.5,4.8,4.2,7.7,5.2c0.8,0.3,1.8,0.5,2.6,0.7c2.6,0.5,5,0.1,7.4-0.9C246,337.2,249.9,333.5,253.3,329.6z M271.8,338.1l-2.5,0.4
		c-6.7,0.5-13-3.5-15.4-9.7c2.2-2.5,4.2-5.1,6-7.2c0.5-0.6,1.1-1.3,1.7-1.9c3-3.2,1.9-5.2-1.7-6.8c-3.8-1.7-10.6-2.9-18.1-4.5
		l-0.5-0.1c-3.9-0.9-7.1-0.9-9.4-0.5c-6.3,1.2-8.1,6.6-10,14.3c-1.1,4.6-0.2,8.2,1.7,11.1c0.1,2.5-0.4,4.9-1.4,7
		c-2-0.5-4.2-0.6-6.8-0.2c-0.3,0-0.6,0.1-0.9,0.1c-7.5,1.3-8.8,5.1-8.3,9.5c-2.1-0.2-4.2-1-5.9-2.3c-0.4-1.9-1.2-3.9-2.6-5.8
		c-0.7-1-1.4-1.8-2.1-2.4l-2.4-13.9c2-0.6,4-1,5.9-1c0.9,0,1.5,0.6,2.1,1.5c2.4,4.5,0.3,17.8,8.8,9.5c1.9-1.8,3.3-3.7,4.4-5.7
		c4.2-7.5,3-16.2,0-22.9c-3.4-7.4-9.2-12.7-13.2-11.4c-0.2,0-0.4,0.1-0.6,0.2c-4.3,2.2-7.3,2-9.7,1c-1.1-0.4-2.1-1-3-1.7l-1.7-9.6
		c1.4,0.6,2.9,0.9,4.6,1c3.2,0.1,6.9-0.6,10.3-2.2c5.3-2.5,9.7-7,10.9-13.2c2.3-12.7-4.4-15.8-10.9-15.9c-1.1,0-2.3,0.1-3.4,0.2
		c-1.5,0.1-3.9,0.1-6.8,0.1c-2.9-0.1-6.4-0.1-9.8-0.1l-1.1-6.2c3.1,2,6.6,3.4,10.4,3.3c0.1,0,0.3,0,0.4,0c3.7-0.1,7.7-1.2,10.3-3.3
		c2.3-1.9,3.5-4.7,2.6-8.5c-0.7-2.8-1.4-5.2-2.6-7.2c-1.8-2.9-4.7-4.8-10.2-5.5c-1.7-0.1-3.6-0.2-5.8-0.1c-3.1,0.1-6.1,0.2-8.7,0.3
		L176,225c1.7-0.1,3.6-0.3,5.5-0.8c4.4-0.9,7.4-2.4,9.3-4.1c5.8-5,3-12.6,0-19.7c-1.5-3.9-3.3-7.5-3.6-10.7
		c-0.8-6.4-9.1-6.8-17.8-2.9l-1.9-11.3c1.4-2.2,2.6-4.7,3.4-7.5c3.7-12.7,5.2-22.3-3.7-19.7c-1.1,0.4-2.4,0.9-3.7,1.6
		c-0.1,0.1-0.2,0.1-0.3,0.1l-1.1-6.1c0.2,0,0.4,0.1,0.5,0.1c1.4,0.1,2.9,0.1,4.6-0.1c6.9-0.9,16.6-4.9,23.8-10.6
		c8.5-6.7,13.6-15.5,7.4-24.2c-2.6-3.6-5-4.6-7.4-4.4c-4.8,0.4-9.7,5.6-16.5,3c-3-1.2-5.3-3.6-7.3-5.7c-2.7-2.9-5-5.1-8.1-2.7
		c-5.9,4.6-2.9,9.1-2.5,15.4c-1.3-1.8-2.2-4-2.6-6.4l-2.3-13.5c0.8-0.1,1.7-0.4,2.8-0.9c0.7-0.3,1.5-0.7,2.3-1.3
		c6.1-4,9-8.2,10.5-12.5c0.7-2.2,1.1-4.4,1.3-6.6l6.4-1.1c-1.4,7.7-1.5,17.9,1.2,22.7c2.5,4.4,8.3,1.3,14.8-1.2c2.9-1.2,5.9-2,8.8-2
		c0.6,0,1,0.2,1.5,0.6c3.3,3.3,0.2,19.1,9.3,10.4c1.5-1.5,2.8-3,3.8-4.7c5.1-8.2,3.6-17.8,0-25c-1.4-2.7-3.1-5.1-4.8-6.9l30.5-5.3
		c-0.1,0.1-0.2,0.1-0.2,0.2c-3.5,3.2-2.2,5.3,2,7.4c3.9,2,10.3,3.7,17.1,5.9c0.3,0.1,0.6,0.2,0.9,0.3c7.7,2.2,11.9,1.2,14.8-2.1
		c2.1-2.3,3.4-5.9,4.9-10.1c1.1-3.3,1.1-6.2,0.4-8.7c5.1-0.6,10,1.3,13.3,4.9c-1,3.3-0.7,6.9,1.5,10.7c1.2,2,2.4,3.3,3.6,4.1
		l1.6,9.1c0.2,1,0.2,2,0.2,3c-2.8,0.7-5.7,1.2-8.4,0.9c-4.7-0.5-0.8-14.3-5.4-14.3c-0.9,0-2.4,0.6-4.4,2.3c-3.7,2.9-6,6.4-7.4,10.1
		c-2.1,5.7-1.7,11.9,0,17.1c2.5,7.8,7.7,13.7,11.7,13.6c0.4,0,0.8,0,1.2-0.2c10.7-4.2,13,4.2,17.1,5.1l2.6,15.3
		c-1-1.3-1.8-2.8-2.3-4.4c-0.1-0.1-0.1-0.3-0.2-0.4c-2.4-5.8-10.9-7.2-18.4-4.6c-5,1.7-9.6,5.1-11.7,10.2c-0.3,0.7-0.5,1.4-0.7,2.1
		c-1.7,6.1-1.1,10,0.7,12.6c2.6,3.7,7.5,4.5,11.7,4.5h0.3c3.3,0,10.7,1.2,18.1,1.7c2.1,0.2,4.3,0.3,6.3,0.3l6.7,38.9
		c-0.7,0.1-1.3,0.2-1.8,0.4c-15.4,3.9-4.3,18.7-4,26.9c0,2.5,1.5,4.1,4,4.7c2,0.5,4.6,0.4,7.3-0.2l3.2,18.8
		c-4.6,11.8-6.5,20.8,3.2,18.4l0.8,4.6c-4-0.2-9.3,0.8-14.6,2.6c-3.8,1.3-7.7,3-11.1,5.1c-9.6,5.9-16.1,14.5-10.5,24
		c3.3,5.8,6.7,5.6,10.5,4.5c3.3-0.9,6.9-2.6,11.1-1.6c0.7,0.2,1.4,0.4,2.1,0.7c6.9,3.3,8.7,13.4,14.5,9.8c4-2.6,4.5-5.4,4.3-8.7
		l1.4,8.2c0.4,2.2,0.1,4.3-0.6,6.2c-1,0.3-2,0.7-3.3,1.4c-3.5,1.8-6.1,3.8-8,5.8c-3.9-0.3-7.5-2.2-10.1-5c-0.1-0.7-0.1-1.3-0.2-1.9
		c-0.2-1.2-0.4-2.2-0.8-3c-0.6-1.3-1.5-2-2.6-2.3c0-0.1,0-0.2-0.1-0.3l0,0c0,0.1,0,0.2,0.1,0.3c-2-0.6-4.6,0-7.7,0.8
		c-4.3,1.2-9.1,2.8-13.6,2.4c-4.5-0.4-1.1-13-4.9-14.2c-0.9-0.3-2.5,0.2-4.9,2.1c-3.2,2.5-5.4,5.5-6.7,8.6c-2.9,6.6-2.3,14-0.1,20.2
		c0.1,0.4,0.3,0.7,0.4,1.1C274.1,337.4,273,337.8,271.8,338.1z"/>
	<path id="XMLID_147_" class="st5" d="M282.4,328.7l-2.5,0.4c-7.7,0.7-14.9-4.8-16.2-12.7l0,0c1.4,8.3-4.1,16.2-12.2,17.7
		c-8.2,1.4-16-4.3-17.5-12.5l0,0c1.4,8.3-4.1,16.3-12.4,17.7l0,0.2l-1.7,0.3c-6.4,1.1-12.5-3.2-13.6-9.7l-38.8-226.2l35.5-6.2l0,0
		l35.6-6.3l0.2,0l35.6-6.3l0,0l35.6-6.3l38.9,226.2c1,5.9-2.5,11.6-8,13.3l0-0.1c-8.2,1.5-16.1-4.2-17.6-12.5l0,0
		c1.4,8.3-4.1,16.2-12.2,17.7c-8.2,1.4-16-4.3-17.5-12.5l0,0C294.7,319.1,289.8,326.6,282.4,328.7"/>
	<path id="XMLID_146_" class="st5" d="M307.7,57.5l2.7,15.8c1.5,8.6-4.2,16.7-12.7,18.2l-115.2,20.2c-8.5,1.5-16.5-4.3-18-12.8
		l-2.7-15.8c-1.5-8.6,4.2-16.7,12.7-18.2l115.2-20.2C298.2,43.2,306.3,48.9,307.7,57.5"/>
	<path id="XMLID_145_" class="st6" d="M303.1,57.9l2.4,13.8c1.3,7.5-4.2,14.6-12.2,16l-109.2,19.2c-5.4,0.9-10.5-1-13.7-4.5
		c2.9,1.6,6.5,2.3,10.1,1.6l109.2-19.2c8-1.4,13.5-8.6,12.2-16L299.5,55c-0.4-2.5-1.5-4.6-3.1-6.4C299.9,50.6,302.5,53.9,303.1,57.9
		"/>
	<path id="XMLID_143_" class="st7" d="M222.3,217.5l-4.7-27.2l0,0L222.3,217.5L222.3,217.5"/>
	<polyline id="XMLID_142_" class="st7" points="293.5,203.3 291.6,192.4 291.6,192.4 293.5,203.3 293.5,203.3 	"/>
	<path id="XMLID_141_" class="st6" d="M194.4,127.5l3-0.5c1-0.2,2,0.5,2.2,1.6l32.5,189.3c0.2,1-0.5,2-1.5,2.2l-3,0.5
		c-1,0.2-2-0.5-2.2-1.6l-32.5-189.3C192.7,128.7,193.4,127.7,194.4,127.5"/>
	<path id="XMLID_140_" class="st6" d="M218.9,123.2l3-0.5c1-0.2,2,0.5,2.2,1.6l32.5,189.3c0.2,1-0.5,2-1.5,2.2l-3,0.5
		c-1,0.2-2-0.5-2.2-1.6l-32.5-189.3C217.2,124.4,217.9,123.4,218.9,123.2"/>
	<path id="XMLID_139_" class="st8" d="M241.8,119.2l3-0.5c1-0.2,2,0.5,2.2,1.6l32.5,189.3c0.2,1-0.5,2-1.5,2.2l-3,0.5
		c-1,0.2-2-0.5-2.2-1.6l-32.5-189.3C240.1,120.4,240.8,119.4,241.8,119.2"/>
	<path id="XMLID_138_" class="st6" d="M267.9,114.6l3-0.5c1-0.2,2,0.5,2.2,1.6L305.6,305c0.2,1-0.5,2-1.5,2.2l-3,0.5
		c-1,0.2-2-0.5-2.2-1.6l-32.5-189.3C266.2,115.8,266.9,114.8,267.9,114.6"/>
	<path id="XMLID_137_" class="st6" d="M292.4,110.3l3-0.5c1-0.2,2,0.5,2.2,1.6l32.5,189.3c0.2,1-0.5,2-1.5,2.2l-3,0.5
		c-1,0.2-2-0.5-2.2-1.6l-32.5-189.3C290.7,111.5,291.4,110.5,292.4,110.3"/>
	<path id="XMLID_225_" class="st9" d="M310,80.6c-1.7,5.5-6.2,9.8-12.2,10.9l-39.7,7c-0.1-0.4-0.1-0.7-0.2-1.1
		c0-0.2-0.1-0.5-0.1-0.7c0-0.1,0-0.1,0-0.2c0-0.2-0.1-0.4-0.1-0.5c0-0.1,0-0.1,0-0.1c0-0.2-0.1-0.5-0.1-0.7c0-0.1,0-0.1,0-0.1
		c0-0.2-0.1-0.4-0.1-0.6c0-0.1,0-0.2-0.1-0.3c0-0.1,0-0.1,0-0.2c-0.1-0.4-0.1-0.8-0.2-1.2c0,0,0-0.1,0-0.1c0-0.2-0.1-0.4-0.1-0.7
		c0,0,0-0.1,0-0.1c-0.1-0.5-0.2-1-0.2-1.5c0-0.1,0-0.1,0-0.1c0-0.2-0.1-0.5-0.1-0.7c0,0,0-0.1,0-0.1c-0.1-0.2-0.1-0.5-0.1-0.8
		c0,0,0-0.1,0-0.1c-0.1-0.2-0.1-0.4-0.1-0.7c0-0.1,0-0.1,0-0.1c-0.1-0.5-0.2-1-0.3-1.5c0-0.1,0-0.1,0-0.1c-0.1-0.2-0.1-0.4-0.2-0.6
		c0-0.1,0-0.1,0-0.1c-0.1-0.2-0.1-0.5-0.2-0.7l0,0l0,0c-0.5-1.8-1.2-3.6-2.2-5.2c-1.4-2.4-3.9-4.8-6.6-6c0.2-0.6,0.2-1.3,0.1-1.9
		c-0.6-3.5-5.6-5.6-11.2-4.6c-5.4,0.9-9.3,4.4-9,7.8v0l0,0c-5.3,4.7-5.1,12.3-4.4,16.7c0.3,1.9,0.8,3.3,1.5,4.5
		c-1.2,0.8-1.9,1.1-1.9,1.1c0.9,0,1.7,0,2.6,0c1,1.5,2.1,2.6,2.8,3.6c0.3,0.5,0.5,1.6,0.7,3.1l-45.3,8c-5.5,1-10.9-1.1-14.3-5.1
		c3.1,5.8,9.6,9.2,16.4,8l43.9-7.7c0.8,4,2.4,8.4,6.8,8.9c0,0-1.1-0.7-2.1-2.3c0-0.1-0.1-0.1-0.1-0.2c-0.1-0.1-0.1-0.2-0.1-0.2
		c0-0.1-0.1-0.1-0.1-0.2c-0.1-0.1-0.1-0.2-0.2-0.3c0-0.1-0.1-0.1-0.1-0.1c-0.1-0.2-0.1-0.3-0.2-0.5c0-0.1-0.1-0.1-0.1-0.2
		c-0.1-0.1-0.1-0.3-0.2-0.4c0-0.1-0.1-0.1-0.1-0.2c-0.1-0.2-0.1-0.4-0.2-0.6c-0.3-1.2-0.5-2.6-0.7-4.1l0.8-0.1
		c1.4,2.4,3.5,4.3,6,5.6l2.3,1.2l0.1,5.7l0.1-0.1c-0.5,9.3-21.9-5-15,41.5c0,0,0,0.1,0,0.1c0.7,4.9,1.2,9.7,1.9,14.6
		c0.1,1,0.3,2.1,0.4,3.1c0.8,5.3,1.7,10.6,2.8,15.8c0.2,0.9,0.4,1.8,0.6,2.7c1.4,5.3,2.3,11.1,9.1,14.7
		c4.9,12.6,11.3,22.1,14.9,36.1c0,0-0.3,6.1,0.5,16c0.8,10,11.2,24.9,13.5,29.9c2.2,5,2.3,10.9,1.8,12.8c-0.3,1.4,0.7,3.5,1.8,6.1
		c0.4,1,0.3,2.2,1,3.4c0.3,0.5,0.6,0.9,0.9,1.3c0.2,2.8,0.6,4.6,1.4,4.6c1.1,0.1,2.3-0.4,3.4-1.2c1.3,0.4,2.6,0.4,3.6,0
		c0.7-0.3,0.4-2.1-0.3-4.8c0.2-0.5,0.3-1,0.4-1.6c0.2-1.3-0.3-2.4-0.2-3.5c0.1-2.9,0.4-5.2-0.4-6.4c-1.1-1.6-3-7.2-2.5-12.7
		c0.4-5.5,5.3-23.1,2.7-32.8c-2.6-9.7-4.9-15.3-4.9-15.3c-1.6-18.5,3.6-31.5,1.5-51.3c0.1,0,0.3-0.1,0.4-0.1
		c-0.7-3.7-1.9-8.1-4-11.1c-1-1.4-2-2.8-3-4.3c-0.2-0.3-0.4-0.6-0.5-0.9c0,0,0,0,0,0c0,0,0,0,0,0l0,0l0,0c0.4-0.6,0.8-1.1,1.3-1.7
		c0.1-0.2,0.2-0.3,0.4-0.5c0.3-0.4,0.7-0.9,1-1.3c0.2-0.3,0.5-0.6,0.7-0.9c0.2-0.3,0.5-0.6,0.7-0.9c0.5-0.6,0.9-1.3,1.4-1.9
		c1.1-1.5,2.1-2.9,3.1-4.4c0.1-0.2,0.3-0.4,0.5-0.7c0.4-0.5,0.8-1.1,1-1.6c0,0,0-0.1,0-0.1v0c0,0,0-0.1,0-0.1v0c0-0.1,0-0.1,0-0.2v0
		c0-0.1,0-0.1,0-0.1c0,0,0,0,0-0.1c0-0.1,0-0.1,0-0.2l0,0c0-0.1,0-0.2-0.1-0.2c0,0,0-0.1,0-0.1c0-0.1,0-0.1-0.1-0.2c0,0,0,0,0-0.1
		c0-0.1-0.1-0.2-0.1-0.3c0,0,0,0,0-0.1c0-0.1,0-0.2-0.1-0.3c0,0,0-0.1,0-0.1c0-0.1-0.1-0.2-0.1-0.4l0,0c0-0.1-0.1-0.2-0.1-0.4
		c0,0,0-0.1,0-0.1c0-0.1-0.1-0.2-0.1-0.3c0,0,0,0,0-0.1c0-0.1-0.1-0.3-0.1-0.4c0,0,0-0.1,0-0.1c0-0.1-0.1-0.2-0.1-0.4
		c0,0,0-0.1,0-0.1c-0.1-0.1-0.1-0.3-0.1-0.5c0,0,0,0,0-0.1c0-0.1-0.1-0.3-0.1-0.4c0-0.1,0-0.1,0-0.1c0-0.1-0.1-0.3-0.1-0.4
		c0,0,0-0.1,0-0.1c-0.1-0.2-0.1-0.3-0.2-0.5c0-0.1,0-0.1,0-0.1c0-0.1-0.1-0.3-0.1-0.4c0-0.1,0-0.1-0.1-0.1c-0.1-0.2-0.1-0.4-0.2-0.5
		c0,0,0-0.1,0-0.1c-0.1-0.1-0.1-0.3-0.1-0.4c0-0.1,0-0.1-0.1-0.2c-0.1-0.1-0.1-0.3-0.1-0.5c0,0,0-0.1,0-0.1
		c-0.1-0.2-0.1-0.4-0.2-0.5c0-0.1-0.1-0.1-0.1-0.2c-0.1-0.1-0.1-0.3-0.1-0.4c0-0.1-0.1-0.1-0.1-0.2c-0.1-0.2-0.1-0.4-0.2-0.5
		c0-0.1-0.1-0.1-0.1-0.2c-0.1-0.1-0.1-0.2-0.1-0.4c0-0.1-0.1-0.2-0.1-0.3c-0.1-0.1-0.1-0.3-0.1-0.4c0-0.1-0.1-0.2-0.1-0.2
		c-0.1-0.2-0.1-0.4-0.2-0.5c0-0.1-0.1-0.2-0.1-0.3c0-0.1-0.1-0.2-0.1-0.3c0-0.1-0.1-0.2-0.1-0.3c-0.1-0.2-0.1-0.3-0.2-0.5
		c-0.1-0.1-0.1-0.3-0.1-0.4c0-0.1-0.1-0.2-0.1-0.3c0-0.1-0.1-0.2-0.1-0.4c0-0.1-0.1-0.2-0.1-0.2c-0.1-0.2-0.1-0.4-0.2-0.7
		c0-0.1-0.1-0.2-0.1-0.2c-0.1-0.1-0.1-0.2-0.1-0.4c0-0.1-0.1-0.1-0.1-0.2c-0.2-0.5-0.3-0.9-0.5-1.4c0,0,0-0.1,0-0.1
		c-0.1-0.2-0.1-0.3-0.2-0.5c0,0,0-0.1,0-0.1c-0.2-0.5-0.3-1-0.5-1.5c0,0,0-0.1,0-0.1c-0.2-0.5-0.3-1-0.5-1.5c0,0,0,0,0-0.1
		c-1.9-5.6-3.7-10.6-4.6-12.7c-1.5-3.5-4.7-5-8.3-6l0,0c-0.4-0.6-1.5-0.7-2.2-0.5c-4.4-0.9-8.8-1.2-10.6-3.1l-0.9-2.9l0,0l0.9,2.9
		l-1.7-5.4l1.7-1.8c1.9-2.1,3.2-4.6,3.8-7.3l1.9-0.3c0.1,0.9,0.1,1.9,0.1,2.8c0,5.5-3,8.1-3,8.1c0.9-0.3,1.8-0.8,2.5-1.4
		c0.5-0.5,1-1,1.4-1.6c1.5-2.4,1.9-5.4,1.8-8.3l41.4-7.3c5-0.9,9-4.1,11.2-8.3L310,80.6z M267.4,152.9c0.9-3,1.4-5.3,1.5-7.2l0,0
		l0,0c2.2,4.9,5.4,11.9,5.9,12.9c0,0,0,0.1,0,0.1s0,0.1,0,0.1c-1.2,1.6-2.2,3.5-3.1,5.3c-0.6,1.1-1.1,2.2-1.7,3.3l0,0
		c-0.3,0.6-0.7,1.3-1,1.9c-1.7-4-2.6-8.1-2.4-12.5C266.8,155.6,267,154.3,267.4,152.9z M233.5,185.5c0.2-6.2,0.2-12.4,0.1-18.5
		c-0.1-3.4-0.1-6.8-0.3-10.2c0-0.1,0-0.1,0-0.2c0-0.9-0.1-1.9-0.1-2.8c0.7,1.3,1.6,2.7,2.7,4.3c0.8,1.2,1.5,2.5,2.1,3.8l0,0l0,0
		c2.9,7.6,2.5,14.3,0.1,20.5c0,0-0.1,0-0.1,0c-0.4,1.6-0.9,3.1-1.4,4.6c-0.8,2.2-0.9,4.8-0.6,7.4c-0.2-0.3-0.5-0.5-0.7-0.7
		C234,192.2,233.4,187.7,233.5,185.5z M237.5,206.1c-0.4-0.7-0.4-3.9-0.7-4.8c0,0,0.2,0.1,0.4,0.3c0.5,2,1.1,3.8,1.7,5.7
		C238.3,206.8,237.7,206.4,237.5,206.1z M264.9,245.4c-0.4-4.2-0.5-8.3-0.5-12.3c1.3,3.8,2.6,7.7,3.6,11.8c0,0,3.6,24.8,5.3,39.8
		C269.7,269.9,264.9,245.4,264.9,245.4z M254.1,99.2c0-0.2,0-0.5,0-0.7l-0.2-5l0-1.2c0,0,0.4,1.4,0.8,3.4c0.2,1,0.4,2,0.6,3.2
		L254.1,99.2z"/>
	<path id="XMLID_99_" class="st10" d="M264.6,243.3c0,0,5.5,37,6,48.1c0.5,11.1-0.3,28.3,2,28.4c2.8,0.2,6.4-3,7.2-7.6
		c0.2-1.3-0.3-2.4-0.2-3.5c0.1-2.9,0.4-5.2-0.4-6.4c-1.1-1.6-3-7.2-2.5-12.7s5.3-23.1,2.7-32.8c-2.6-9.7-4.9-15.3-4.9-15.3
		c-1.7-19,3.1-35.6,0.5-56.3l-16.8-7.1l-3.3,24.5C254.8,218.7,261.4,229.8,264.6,243.3"/>
	<path id="XMLID_98_" class="st10" d="M267.6,125.1c-3.5-8.4-17.6-5.7-21.1-9.6l-3-9.7l-6.7,1.2l0.2,9.5c0.5,10.8-22.1-5.5-15,42.2
		c0,0,0,0.1,0,0.1c0.7,4.9,1.2,9.7,1.9,14.6c0.1,1,0.3,2.1,0.4,3.1c0.8,5.3,1.7,10.6,2.8,15.8c0.2,0.9,0.4,1.8,0.6,2.7
		c1.5,5.5,2.3,11.6,10,15.1c0,0,0.6-1.1-0.1-2.3c-0.7-1.2-3.1-2.3-3.5-3c-0.4-0.7-0.4-3.9-0.7-4.8c0,0,1.5,1.1,1.9,2.3
		c0.4,1.2,0.7,1.8,2.4,2c0.1,0,0.1,0,0.1,0c0,0-0.6-1.6-1.7-5.1c-1.1-3.6-3.1-5.9-4.2-6.9c-1.4-1.5-2-6-2-8.1
		c0.2-6.2,0.2-12.4,0.1-18.5c-0.1-3.4-0.1-6.8-0.3-10.2c0-0.1,0-0.1,0-0.2c-0.1-1.3-0.1-2.6-0.1-4c0,0,0-1.4,0-3
		c-0.9-1.5,4.8-2.9,4-4.4l-0.2,14.5c3,7.8,3.6,17,1,23.3l18.8-1.1l16-5.5c-3.8-6-6.1-14.8-5.7-21.9l-7.5-11.8c-0.1,1.3,9.6,1,9,2.4
		c2.2,4.9,5.8,12.6,6.3,13.7c0,0.1,0,0.2,0,0.2c-1.9,2.6-3.3,5.8-4.8,8.6c-1.2,2.4-1.7,5-2.9,7.4c-0.9,1.8-2.4,3.4-3.6,5
		c-1.5,2-3.4,3.3-5.6,4.4c-0.9,0.4-1.8,0.7-2.7,1.2c-0.4,0.2-0.8,0.5-1.1,0.9c-0.2,0.3-0.5,0.7-0.4,1.1c0.1,0.4,0.8,0.1,1.1,0
		c0.4-0.2,0.8-0.4,1.1-0.8c0.6,0,1.3,0,1.9-0.2c-0.1,0.6-0.5,1.2-0.7,1.7c-0.3,0.6-0.8,1.3-1.5,1.4c-0.7,0.1-1.4-0.3-1.8-0.8
		c-0.4,0.5-0.8,0.9-0.5,1.6c0.2,0.5,0.6,1,1.2,1.1c0.4,0.1,0.8,0.1,1,0.3c0.1,0.1,0.2,0.3,0.3,0.5c0.2,0.2,0.5,0.3,0.7,0.4
		c0.7,0.3,1.4-0.1,2.2,0.5c0.4,0.3,0.7,0.6,1.1,0.5c1.1-0.1,2.2-2,2.7-2.9c0.7-1.1,1.3-2.4,1.6-3.7c0.4-1.3,1.1-2.4,1.8-3.5
		c3.9-5.2,7.8-10.2,11.6-15.5c1.1-1.5,2.1-2.9,3.1-4.4c0.5-0.7,1.1-1.5,1.5-2.3C279.5,158.2,270,130.9,267.6,125.1"/>
	<path id="XMLID_97_" class="st10" d="M261.6,243.9c0,0,7.2,36.7,10.4,47.3c3.2,10.6,9.7,26.5,7.7,27.4c-2.6,1.1-7-0.6-9.3-4.7
		c-0.7-1.2-0.5-2.4-1-3.4c-1.1-2.6-2.1-4.7-1.8-6.1c0.5-1.9,0.4-7.8-1.8-12.8c-2.2-5-12.6-19.9-13.5-29.9c-0.8-10-0.5-16-0.5-16
		c-4.8-18.4-14.6-32.3-19.1-52.7c-1.4-5.5,1.4-8,2.1-12l11.3-0.5l11.3,21.9C262.7,217.4,260.2,230,261.6,243.9"/>
	<polygon id="XMLID_96_" class="st11" points="236.9,117.3 245.6,112.6 246.5,115.5 243.6,105.8 236.8,107 	"/>
	<path id="XMLID_95_" class="st12" d="M243.6,70.1c0.6,3.5-3.4,7.2-9,8.2s-10.6-1.1-11.2-4.6c-0.6-3.5,3.4-7.2,9-8.2
		C238,64.5,243,66.6,243.6,70.1"/>
	<path id="XMLID_94_" class="st13" d="M243.6,70.1c-2-2.1-6.4-3-11-2.2c-4.2,0.7-7.7,2.7-9.2,5c0,0.2,0,0.5,0.1,0.8
		c0.6,3.5,5.6,5.6,11.2,4.6C240.2,77.3,244.2,73.7,243.6,70.1C243.6,70.1,243.6,70.1,243.6,70.1"/>
	<path id="XMLID_93_" class="st10" d="M246.6,108.3l-3.4,3.6c-0.5,0.5-1.2,0.9-1.9,1.1c-0.8,0.2-1.7,0.1-2.4-0.3l-4.4-2.2
		c-4.2-2.1-7.2-6.2-8-10.9l-1.8-10.4c-1.1-6.7,3.3-13.1,9.9-14.2l0,0c4.6-0.8,9,1.1,11.6,4.5c1.2,1.6,2.1,3.4,2.4,5.5l1.8,10.4
		C251.3,100,249.9,104.8,246.6,108.3"/>
	<path id="XMLID_92_" class="st12" d="M241.2,71.3c0,0-5.7-4.5-14.4-0.3c-8.7,4.2-8.7,13.7-7.9,19c0.8,5.3,3.6,7.2,4.9,9.2
		c1.2,2,0.5,14.3,8,15.1c0,0-2.4-1.4-3.4-5.2c-1-3.8-1.1-10.8-1.1-10.8L241.2,71.3z"/>
	<path id="XMLID_91_" class="st14" d="M241.2,71.3c0,0-1.3-1-3.5-1.6c-1.1-0.3-3.3,1.3-4,2.2c-3.3,3.7-5.4,8.3-7.5,12.7
		c-0.4,0.9-5.2,10.3-5.6,10.2c1.3,0.6,2.7,1,4.1,1.1c0.4,4.3,0.9,8.6,2.6,12.5c0.7,1.4,1.5,2.8,2.6,4c-0.6-0.8-1.1-1.9-1.5-3.3
		c-1-3.8-1.1-10.8-1.1-10.8L241.2,71.3z"/>
	<path id="XMLID_89_" class="st11" d="M231.1,96.5c0,0,1,0.2,2.1-0.2c0.8-0.3,1.2-0.6,1.2-0.6l0.9-0.4c0,0-2.7-2-4-1.5
		c-1.4,0.5-2.1,1.7-2.1,1.7s0.5,0.2,0.8,0.4C230.2,96.1,230.7,96.5,231.1,96.5"/>
	<path id="XMLID_88_" class="st15" d="M232.3,96.8c-0.1,0.3-0.1,0.7,0,1c-0.3-0.2-0.5-0.6-0.4-1c-0.2,0-0.3,0-0.5,0
		c-0.2,0.3-0.3,0.7-0.2,1c-0.2-0.3-0.3-0.7-0.2-1.1c-0.2,0-0.4-0.1-0.6-0.1c-0.1,0.1-0.1,0.2-0.2,0.2c-0.1,0.2-0.1,0.4-0.1,0.6
		c-0.1-0.2-0.2-0.4-0.2-0.7c0-0.1,0-0.2,0.1-0.3c-0.2-0.1-0.3-0.1-0.5-0.2c-0.3,0.2-0.5,0.5-0.5,1c-0.1-0.2-0.1-0.5,0-0.8
		c0.1-0.1,0.1-0.3,0.2-0.4c-0.3-0.2-0.6-0.3-0.9-0.4c0,0,1-0.4,1.2-0.8c0.2-0.3,0.4-0.4,1-0.8c0,0-0.3,0.3-0.5,0.8
		c-0.2,0.5-0.4,0.7-0.4,0.7s1.1,1.1,2.3,0.7C239.8,93.8,232.8,96.6,232.3,96.8"/>
	<path id="XMLID_87_" class="st12" d="M241.1,90.7c0.2,0.2,0.4,0.2,0.7,0.1c0.9-0.7,3.1-2.4,4.3-2.6c1.5-0.3,3.8,0.4,3.8,0.4
		s-3.1-1.3-4.6-0.9c-1.1,0.2-3.2,1.8-4.1,2.5c-0.1,0.1-0.2,0.3-0.2,0.5C240.9,90.5,241,90.6,241.1,90.7L241.1,90.7z"/>
	<path id="XMLID_86_" class="st12" d="M235.4,91.7c-0.1,0.2-0.4,0.3-0.6,0.3c-1-0.3-3.7-1.2-4.9-1c-1.5,0.2-3.5,1.6-3.5,1.6
		s2.6-2.2,4-2.5c1.2-0.2,3.6,0.6,4.7,0.9c0.2,0.1,0.3,0.2,0.3,0.4C235.5,91.5,235.5,91.6,235.4,91.7L235.4,91.7z"/>
	<path id="XMLID_85_" class="st12" d="M242,79.9c0,0-5,16.3-23.5,15.7c0,0,4.3-1.4,9.1-9.6s7.4-14.5,11.8-14.8
		c4.3-0.3,8.6,3.2,10.7,6.7c3,5.2,3.5,12,4.5,17.9c0.7,4.1,1,9-1.3,12.6c-0.9,1.4-2.3,2.5-3.9,3c0,0,3-2.6,3-8.1
		c0-5.5-2-12.6-2-12.6l0.2,7C250.7,97.9,250.4,90.4,242,79.9"/>
	<path id="XMLID_84_" class="st12" d="M252.3,83.2c-0.8-1.6-1.8-3.1-2.9-4.5c-2-2.5-4.5-4.6-7.5-5.7c-1.4,9-7.1,17.1-14.9,21.6
		c11.5-3.5,15-14.6,15-14.6c7.5,9.2,8.5,16.1,8.7,17.9l-0.2-7c0,0,2,7.1,2,12.6c0,5.5-3,8.1-3,8.1c1.6-0.5,3-1.6,3.9-3
		c2.3-3.6,2-8.6,1.3-12.6C253.9,91.8,253.5,87.3,252.3,83.2"/>
	<path id="XMLID_83_" class="st5" d="M235.4,105.8c0,0,0.8,0.3,1.8,0.8c0.9,0.5,1.5,1.2,3.2,1c1.9-0.2,2.4-1.3,3.1-2.2
		c0.6-0.7,1.1-1.2,1.1-1.2L235.4,105.8z"/>
	<path id="XMLID_82_" class="st16" d="M235.4,105.8c0,0,3.3,0.2,5-0.4c2.7-1,4.2-1.1,4.2-1.1L235.4,105.8z"/>
	<path id="XMLID_81_" class="st9" d="M235.4,105.8c0,0,3.3-1.6,3.8-1.5c0.7,0.1,0.7,0.2,0.9,0.2c0.4,0,0.5-0.5,1.1-0.5
		c0.6,0,3.4,0.3,3.4,0.3s-2.2,1.3-4.5,1.6C238,106.3,235.4,105.8,235.4,105.8"/>
	<path id="XMLID_80_" class="st17" d="M241.4,107.2c0,0.1-0.4,0.2-0.8,0.3c-0.5,0.1-0.9,0.1-0.9,0c0-0.1,0.4-0.2,0.8-0.3
		C241,107,241.4,107,241.4,107.2"/>
	<path id="XMLID_79_" class="st18" d="M241.7,104.3c0,0.1-0.2,0.2-0.4,0.3c-0.2,0-0.4,0-0.5-0.1c0-0.1,0.2-0.2,0.4-0.3
		C241.5,104.1,241.7,104.2,241.7,104.3"/>
	<path class="st13" d="M269.3,174.8c2.1,3.3,5.4,6.6,5.6,10.6c-8.2,1.6-12.6,11.1-17.4,17.8c-0.4,0.3-0.8,0.5-1.2,0.5
		c-0.4,0-0.9,0-1.3-0.2c-6.7-4.9-13.9-11.7-22.2-10.6c-0.4-2.9-0.7-4,0.6-7.4c0.5-1.5,0.9-3,1.4-4.6
		C246.6,180.2,258.3,178.4,269.3,174.8 M247.8,148c1.1-8.1,11.3-10.5,12.6-15.3c0.5-1.7,0.1-4-0.5-6.4c-0.5-2.2-2-6.6-2.5-7.4
		c-0.3-0.1-0.6-0.2-0.6-0.2c0.7-0.4,2.1-0.4,2.5,0.3c2.6,3.7,3.7,14.5,3.7,14.5c2.6,6.5,3.8,8.7,1.1,17.9c-0.1,0.5-0.3,1-0.4,1.5
		c-3.1,4.7-9.6,5-14.1,2.5l-1.4,0.2c-3.1,4.6-10.5,5.7-14.7,2.6c-0.3-0.5-0.6-1.1-1-1.6c-5.5-7.8-5.1-10.3-4.6-17.3
		c0,0-2.4-10.5-1.1-14.9c0.3-0.8,1.5-1.3,2.3-1.1c0,0-0.3,0.1-0.5,0.3c-0.3,0.9-0.2,5.5,0,7.8c0.2,2.4,0.6,4.7,1.6,6.2
		c2.7,4.1,13.1,3.2,16.7,10.5C247.2,148.3,247.7,148.2,247.8,148z"/>
	<path id="XMLID_76_" class="st10" d="M265.6,139.4c-0.1,1.3,0.5,3.5-0.1,4.9c2.2,4.9,5.4,11.9,5.9,12.9c0,0.1,0,0.2,0,0.2
		c-1.9,2.6-3.3,5.8-4.8,8.6c-1.2,2.4-2.5,4.7-3.7,7.1c-1,1.8-1.6,3.7-2.8,5.3c-1.5,2-3.4,3.3-5.6,4.4c-0.9,0.4-1.8,0.7-2.7,1.2
		c-0.4,0.2-0.8,0.5-1.1,0.9c-0.2,0.3-0.5,0.7-0.4,1.1c0.1,0.4,0.8,0.1,1.1,0c0.4-0.2,0.8-0.4,1.1-0.8c0.6,0,1.3,0,1.9-0.2
		c-0.1,0.6-0.5,1.2-0.7,1.7c-0.3,0.6-0.8,1.3-1.5,1.4s-1.4-0.3-1.8-0.8c-0.4,0.5-0.8,0.9-0.5,1.6c0.2,0.5,0.6,1,1.2,1.1
		c0.4,0.1,0.8,0.1,1,0.3c0.1,0.1,0.2,0.3,0.3,0.5c0.2,0.2,0.5,0.3,0.7,0.4c0.7,0.3,1.4-0.1,2.2,0.5c0.4,0.3,0.7,0.6,1.1,0.5
		c1.1-0.1,2.2-2,2.7-2.9c0.7-1.1,1.3-2.4,1.6-3.7s1.1-2.4,1.8-3.5c3.9-5.2,7.8-10.2,11.6-15.5c1.1-1.5,2.1-2.9,3.1-4.4
		c0.5-0.7,1.1-1.5,1.5-2.3c0.5-1.2-4.2-15.4-7.8-25.6L265.6,139.4z"/>
	<path id="XMLID_75_" class="st11" d="M246,93.9c0,0-0.9,0.5-2.1,0.5c-0.9,0-1.3-0.1-1.3-0.1l-1-0.1c0,0,1.8-2.8,3.3-2.8
		c1.5-0.1,2.6,0.9,2.6,0.9s-0.4,0.4-0.6,0.7C246.8,93.2,246.5,93.7,246,93.9"/>
	<path id="XMLID_74_" class="st15" d="M245,94.5c0.2,0.2,0.4,0.6,0.3,1c0.2-0.3,0.2-0.7,0.1-1c0.2,0,0.3-0.1,0.4-0.1
		c0.3,0.2,0.5,0.5,0.5,0.9c0.1-0.4,0.1-0.8-0.1-1.1c0.2-0.1,0.3-0.2,0.5-0.3c0.1,0.1,0.2,0.1,0.2,0.2c0.1,0.2,0.2,0.4,0.2,0.6
		c0.1-0.2,0-0.5-0.1-0.7c-0.1-0.1-0.1-0.2-0.2-0.3c0.1-0.1,0.2-0.2,0.4-0.4c0.4,0.1,0.7,0.4,0.8,0.7c0-0.3-0.1-0.5-0.2-0.7
		c-0.1-0.1-0.2-0.2-0.3-0.3c0.2-0.3,0.5-0.5,0.7-0.7c0,0-1.1-0.1-1.4-0.3s-0.5-0.2-1.2-0.4c0,0,0.4,0.2,0.7,0.5
		c0.4,0.4,0.5,0.5,0.5,0.5s-0.6,1.4-1.9,1.5C237,94.3,244.5,94.6,245,94.5"/>
	<path id="XMLID_73_" class="st19" d="M249.2,92c0.2,2.6-1.8,4.5-2.8,5.1c-0.2,0.1-0.6,0.2-1,0.3c-0.1,0-0.2,0-0.3,0.1
		c-0.3,0.1-0.6,0.1-0.8,0.1c-0.1,0-0.3-0.1-0.4,0c-0.2,0-0.5-0.1-0.7-0.2c-0.5-0.2-1.1-0.6-1.6-1c-0.7-0.6-1.3-1.3-1.8-2.1
		c-0.3-0.6-0.7-1.5-0.3-2.2c0.4-1,0.9-1.3,1.4-1.3c0.4-0.1,0.9,0,1.4,0c0.1,0,0.1,0,0.1,0c0.5,0.1,1.1,0.1,1.5,0.1
		c0.1,0,0.1,0,0.2,0c0.3-0.1,0.5-0.1,0.7-0.3c0.1-0.1,0.2-0.1,0.3-0.1c0.3-0.1,0.6-0.3,0.9-0.4c0.2-0.1,0.5-0.1,0.7-0.2
		c0.7-0.1,1.2,0,1.6,0.2C249,90.3,249.1,91.3,249.2,92"/>
	<path id="XMLID_72_" class="st20" d="M244,90.9l-0.8,6c-0.5-0.2-1-0.5-1.5-1l0.6-5.1c0.1,0,0.1,0,0.2,0
		C243.1,90.9,243.5,91,244,90.9"/>
	<path id="XMLID_71_" class="st20" d="M246,90.1l-0.9,7c-0.3,0.1-0.5,0.1-0.8,0.1l0.8-6.7C245.4,90.4,245.7,90.3,246,90.1"/>
	<path id="XMLID_70_" class="st19" d="M236.4,94.3c0.2,2.6-1.8,4.5-2.8,5.1c-0.2,0.1-0.6,0.2-1,0.3c-0.1,0-0.2,0-0.3,0.1
		c-0.3,0.1-0.6,0.1-0.8,0.1c-0.1,0-0.3-0.1-0.4,0c-0.2,0-0.5-0.1-0.7-0.2c-0.5-0.2-1.1-0.6-1.6-1c-0.7-0.6-1.3-1.3-1.8-2.1
		c-0.3-0.6-0.7-1.5-0.3-2.2c0.4-1,0.9-1.3,1.4-1.3s0.9,0,1.4,0c0.1,0,0.1,0,0.1,0c0.5,0.1,1.1,0.1,1.5,0.1c0.1,0,0.1,0,0.2,0
		c0.3-0.1,0.5-0.1,0.7-0.3c0.1-0.1,0.2-0.1,0.3-0.1c0.3-0.1,0.6-0.3,0.9-0.4c0.2-0.1,0.5-0.1,0.7-0.2c0.7-0.1,1.2,0,1.6,0.2
		C236.1,92.6,236.3,93.5,236.4,94.3"/>
	<path id="XMLID_69_" class="st20" d="M231.2,93.2l-0.8,6c-0.5-0.2-1-0.5-1.5-1l0.6-5.1c0.1,0,0.1,0,0.2,0
		C230.2,93.1,230.7,93.2,231.2,93.2"/>
	<path id="XMLID_68_" class="st20" d="M233.1,92.4l-0.9,7c-0.3,0.1-0.5,0.1-0.8,0.1l0.8-6.7C232.6,92.6,232.9,92.5,233.1,92.4"/>
	<path id="XMLID_67_" class="st13" d="M239.2,93.9c-0.9-0.7-1.8-0.5-2.4,0.4c-0.5-0.3-0.5-0.8-1-1.1c1.3-1.3,2.4-1.5,4-0.7
		C239.5,93,239.6,93.4,239.2,93.9"/>
	<path class="st13" d="M236,94.4c0-0.7-0.2-1.6-0.7-1.9c-0.3-0.2-0.8-0.3-1.5-0.2c-0.6,0.1-1.2,0.3-1.8,0.7
		c-0.2,0.1-0.4,0.2-0.7,0.2c-0.5,0.1-1.1,0-1.6,0c-0.5,0-1-0.1-1.4-0.1c-0.4,0.1-0.9,0.3-1.2,1.2c-0.3,0.7,0,1.5,0.3,2
		c0.9,1.7,2.9,3,3.8,3.1c0.4,0.1,0.9,0.1,1.4,0c0.4-0.1,0.7-0.2,1-0.3C234.4,98.6,236.2,96.8,236,94.4 M233.6,91
		c1.6-0.3,3.3,0.3,3.5,3.3c0.2,2.8-1.9,5.1-3.2,5.8c-0.4,0.2-0.8,0.3-1.3,0.4c-0.6,0.1-1.3,0.1-1.8,0.1c-2.1-0.3-6.2-3.9-5-6.8
		c0.5-1.3,1.3-1.8,2.1-1.9c1.1-0.2,2.3,0.2,3,0.1c0.1,0,0.2-0.1,0.4-0.1C232.1,91.5,232.9,91.2,233.6,91z"/>
	<path class="st13" d="M244,97.2c0.3,0,0.6,0,1-0.1c0.5-0.1,1-0.3,1.4-0.4c0.8-0.4,2.2-2.4,2.5-4.2c0.1-0.6,0.1-1.5-0.4-2
		c-0.7-0.8-1.2-0.8-1.6-0.7c-0.4,0.1-0.9,0.3-1.3,0.5c-0.5,0.2-1,0.5-1.5,0.5c-0.2,0.1-0.5,0.1-0.7,0c-0.7-0.1-1.4-0.1-1.9,0
		c-0.7,0.1-1.1,0.4-1.3,0.7c-0.3,0.6-0.2,1.5,0,2.1C240.6,96,243,97.1,244,97.2 M243.4,89.7c0.1,0,0.2,0,0.4,0
		c0.8-0.1,1.7-0.9,2.9-1.1c0.8-0.1,1.7,0.1,2.7,1.1c2.1,2.2-0.5,7.1-2.4,8.1c-0.5,0.2-1.1,0.4-1.7,0.5c-0.5,0.1-0.9,0.1-1.3,0.1
		c-1.5-0.2-4.2-1.6-4.9-4.4c-0.8-2.9,0.6-4,2.2-4.3C241.9,89.6,242.7,89.7,243.4,89.7z"/>
	<path id="XMLID_62_" class="st21" d="M68.2,53.2c0.2,1.2,0.6,1.9,1.4,2.2c0.6,0.2,1.4,0,2.1-0.6c1.1-0.9,2.2-2.6,2.9-4.7
		c0.6-1.8,0.8-3.4,0.7-4.7c-0.1-1.3-0.6-2.3-1.4-2.6c-0.7-0.2-1.6,0.1-2.4,0.9c-1,1-1.9,2.5-2.6,4.4C68.3,50,68,51.8,68.2,53.2"/>
	<path id="XMLID_61_" class="st21" d="M80,40c-2.2,5.1-4.7,5.3-4.7,5.3c0.1,1.3-0.1,3-0.7,4.7c-0.7,2.1-1.8,3.8-2.9,4.7
		c0.1,0.1,1.4,3.2-1,7.1C77.1,56.6,80.6,48.4,80,40"/>
	<path id="XMLID_60_" class="st21" d="M38.8,21.3L38.8,21.3c-7.7,5.9-11.5,15.9-9.6,25.7c17.9,17.3,38.7,6.4,39,6.2
		c-0.2-1.4,0-3.2,0.7-5.1c0.7-1.9,1.6-3.5,2.6-4.4C71.4,43.4,64.7,22.5,38.8,21.3"/>
	<path id="XMLID_59_" class="st21" d="M35.6,52c16.1,9.9,32.3,1.3,32.6,1.2c-0.2-1.4,0-3.2,0.7-5.1c0.7-1.9,1.6-3.5,2.6-4.4
		c-0.1-0.2-5-15.7-22.9-20.8C40.4,27,34.8,35.6,34.8,45.5C34.9,47.8,35.1,49.9,35.6,52"/>
	<path id="XMLID_58_" class="st21" d="M29.2,47L29.2,47c0.3,1.4,0.7,2.7,1.1,4.1c5,13.4,19.8,20.2,33.1,15.1c2.7-1,5.1-2.5,7.2-4.3
		l0,0c2.4-3.9,1-7,1-7.1c-0.7,0.6-1.5,0.9-2.1,0.6c-0.7-0.2-1.2-1.1-1.4-2.2C67.9,53.3,47.1,64.3,29.2,47"/>
	<path id="XMLID_57_" class="st21" d="M45,66c5.7,2.3,12.3,2.5,18.5,0.1c2.7-1,5.1-2.5,7.2-4.3l0,0c2.4-3.9,1-7,1-7.1
		c-0.7,0.6-1.5,0.9-2.1,0.6c-0.7-0.2-1.2-1.1-1.4-2.2C68,53.3,51.8,61.9,35.7,52C37.1,57.7,40.5,62.6,45,66"/>
	<path id="XMLID_56_" class="st21" d="M45.4,17.6c-2.4,0.9-4.6,2.2-6.6,3.7c25.9,1.2,32.6,22.1,32.7,22.4c0.8-0.8,1.7-1.2,2.4-0.9
		c0.8,0.3,1.3,1.3,1.4,2.6c0,0,2.5-0.3,4.7-5.3c-0.2-2.4-0.7-4.9-1.6-7.3C73.4,19.3,58.6,12.5,45.4,17.6"/>
	<path id="XMLID_55_" class="st21" d="M48.6,22.9C66.4,28,71.4,43.4,71.5,43.7c0.8-0.8,1.7-1.2,2.4-0.9c0.8,0.3,1.3,1.3,1.4,2.6
		c0,0,2.5-0.3,4.7-5.3c-0.2-2.4-0.7-4.9-1.6-7.3c-1.4-3.7-3.5-6.9-6.2-9.5c-3.6-2-7.8-3.2-12.2-3.2C55.9,20.1,52.1,21.1,48.6,22.9"
		/>
	<path id="XMLID_54_" class="st22" d="M72.9,57c0.2,1.2,0.6,1.9,1.4,2.2c0.6,0.2,1.4,0,2.1-0.6c1.1-0.9,2.2-2.6,2.9-4.7
		c0.6-1.8,0.8-3.4,0.7-4.7c-0.1-1.3-0.6-2.3-1.4-2.6c-0.7-0.2-1.6,0.1-2.4,0.9c-1,1-1.9,2.5-2.6,4.4C72.9,53.8,72.7,55.7,72.9,57"/>
	<path id="XMLID_53_" class="st5" d="M84.7,43.8c-2.2,5.1-4.7,5.3-4.7,5.3c0.1,1.3-0.1,3-0.7,4.7c-0.7,2.1-1.8,3.8-2.9,4.7
		c0.1,0.1,1.4,3.2-1,7.1C81.8,60.5,85.3,52.3,84.7,43.8"/>
	<path id="XMLID_52_" class="st23" d="M43.5,25.1L43.5,25.1C35.8,31.1,32,41,33.9,50.8c17.9,17.3,38.7,6.4,39,6.2
		c-0.2-1.4,0-3.2,0.7-5.1c0.7-1.9,1.6-3.5,2.6-4.4C76.1,47.2,69.3,26.3,43.5,25.1"/>
	<path id="XMLID_51_" class="st23" d="M40.3,55.8c16.1,9.9,32.3,1.3,32.6,1.2c-0.2-1.4,0-3.2,0.7-5.1c0.7-1.9,1.6-3.5,2.6-4.4
		c-0.1-0.2-5-15.7-22.9-20.8c-8.2,4.2-13.8,12.8-13.8,22.7C39.5,51.6,39.8,53.8,40.3,55.8"/>
	<path id="XMLID_50_" class="st24" d="M33.9,50.8L33.9,50.8c0.3,1.4,0.7,2.7,1.1,4.1C40.1,68.3,54.9,75,68.2,70
		c2.7-1,5.1-2.5,7.2-4.3l0,0c2.4-3.9,1-7,1-7.1c-0.7,0.6-1.5,0.9-2.1,0.6c-0.7-0.2-1.2-1.1-1.4-2.2C72.6,57.2,51.8,68.1,33.9,50.8"
		/>
	<path id="XMLID_49_" class="st13" d="M49.7,69.9c5.7,2.3,12.3,2.5,18.5,0.1c2.7-1,5.1-2.5,7.2-4.3l0,0c2.4-3.9,1-7,1-7.1
		c-0.7,0.6-1.5,0.9-2.1,0.6c-0.7-0.2-1.2-1.1-1.4-2.2c-0.3,0.1-16.5,8.7-32.6-1.2C41.8,61.5,45.1,66.4,49.7,69.9"/>
	<path id="XMLID_48_" class="st24" d="M50.1,21.5c-2.4,0.9-4.6,2.2-6.6,3.7c25.9,1.2,32.6,22.1,32.7,22.4c0.8-0.8,1.7-1.2,2.4-0.9
		c0.8,0.3,1.3,1.3,1.4,2.6c0,0,2.5-0.3,4.7-5.3c-0.2-2.4-0.7-4.9-1.6-7.3C78.1,23.2,63.3,16.4,50.1,21.5"/>
	<path id="XMLID_47_" class="st13" d="M53.3,26.7c17.8,5.1,22.8,20.6,22.9,20.8c0.8-0.8,1.7-1.2,2.4-0.9c0.8,0.3,1.3,1.3,1.4,2.6
		c0,0,2.5-0.3,4.7-5.3c-0.2-2.4-0.7-4.9-1.6-7.3c-1.4-3.7-3.5-6.9-6.2-9.5c-3.6-2-7.8-3.2-12.2-3.2C60.6,23.9,56.7,24.9,53.3,26.7"
		/>
	<path id="XMLID_46_" class="st21" d="M71.3,171.8c0-2.2-2.8-4.8-9-6c-6.1-1.1-7.5-0.1-13.7-2.4c-6.2-2.4-11.5-5.3-13.5-0.1
		c-2.1,5.3,0.5,6.3,11,10.5c10.3,4.1,12.4,7.4,17.8,6.4C69.1,179.3,71.3,174.7,71.3,171.8"/>
	<path id="XMLID_45_" class="st21" d="M69.8,172c0-1.9-2.7-4.2-8.3-5.2c-5.6-1.1-6.9-0.2-12.6-2.3s-10.6-4.8-12.4-0.3
		c-1.8,4.5,0.6,5.3,10.2,9.1c9.5,3.7,11.5,6.5,16.4,5.8C67.9,178.3,69.8,174.5,69.8,172"/>
	<path id="XMLID_44_" class="st21" d="M44.1,170.2c1.1-0.7,2,1,3.1,2.7c1.1,1.6,2.3,2.7,4.1,3.1c1.7,0.4,6.2-1,8.4-2.4
		c2.2-1.3,3.7-1.6,0.9-5.1c-2.8-3.5-5-5.1-7.5-4.7c-2.5,0.4-6.9,2.7-7.5,1.2c-0.6-1.5,3.3-2.6,7.7-2.1c5.3,0.6,10.3,4.1,11.1,8
		c0.3,1.5,1.8,0.8,1.5,1.7c-0.2,1-1.7-0.1-2,0.4c-1.7,2.5-9.1,4.7-12.3,3.8C47.7,175.8,42.2,171.6,44.1,170.2"/>
	<path id="XMLID_43_" class="st21" d="M55.2,164.1c-0.7-0.2-1.4-0.3-2.1-0.1c-2.5,0.4-6.9,2.7-7.5,1.2c-0.6-1.5,3.3-2.6,7.7-2.1
		c0.2,0,0.5,0.1,0.7,0.1L55.2,164.1L55.2,164.1z"/>
	<path id="XMLID_42_" class="st21" d="M51.8,176.1l-1.8,0.3c-3.7-1.6-7.6-5-5.9-6.2c1.1-0.7,2,1,3.1,2.7c1.1,1.6,2.3,2.7,4.1,3.1
		C51.5,176.1,51.6,176.1,51.8,176.1"/>
	<path id="XMLID_41_" class="st21" d="M71.3,146.2c0,2.2-2.8,4.8-9,6c-6.1,1.1-7.5,0.1-13.7,2.4c-6.2,2.4-11.5,5.3-13.5,0.1
		c-2.1-5.3,0.5-6.3,11-10.5c10.3-4.1,12.4-7.4,17.8-6.4C69.1,138.7,71.3,143.3,71.3,146.2"/>
	<path id="XMLID_40_" class="st21" d="M69.8,145.9c0,1.9-2.7,4.2-8.3,5.2c-5.6,1.1-6.9,0.2-12.6,2.3c-5.7,2.1-10.6,4.8-12.4,0.3
		c-1.8-4.5,0.6-5.3,10.2-9.1c9.5-3.7,11.5-6.5,16.4-5.8C67.9,139.6,69.8,143.5,69.8,145.9"/>
	<path id="XMLID_39_" class="st21" d="M44.1,147.8c1.1,0.7,2-1,3.1-2.7c1.1-1.6,2.3-2.7,4.1-3.1c1.7-0.4,6.2,1,8.4,2.4
		c2.2,1.3,3.7,1.6,0.9,5.1c-2.8,3.5-5,5.1-7.5,4.7c-2.5-0.4-6.9-2.7-7.5-1.2c-0.6,1.5,3.3,2.6,7.7,2.1c5.3-0.6,10.3-4.1,11.1-8
		c0.3-1.5,1.8-0.8,1.5-1.7c-0.2-1-1.7,0.1-2-0.4c-1.7-2.5-9.1-4.7-12.3-3.8C47.7,142.1,42.2,146.4,44.1,147.8"/>
	<path id="XMLID_38_" class="st21" d="M55.2,153.9c-0.7,0.2-1.4,0.3-2.1,0.1c-2.5-0.4-6.9-2.7-7.5-1.2c-0.6,1.5,3.3,2.6,7.7,2.1
		c0.2,0,0.5-0.1,0.7-0.1L55.2,153.9L55.2,153.9z"/>
	<path id="XMLID_37_" class="st21" d="M51.8,141.8l-1.8-0.3c-3.7,1.6-7.6,5-5.9,6.2c1.1,0.7,2-1,3.1-2.7c1.1-1.6,2.3-2.7,4.1-3.1
		C51.5,141.9,51.6,141.9,51.8,141.8"/>
	<path id="XMLID_36_" class="st25" d="M72.6,173.4c0-2.2-2.8-4.8-9-6c-6.1-1.1-7.5-0.1-13.7-2.4c-6.2-2.4-11.5-5.3-13.5-0.1
		c-2.1,5.3,0.5,6.3,11,10.5c10.3,4.1,12.4,7.4,17.8,6.4C70.4,180.8,72.6,176.2,72.6,173.4"/>
	<path id="XMLID_35_" class="st23" d="M71.1,173.5c0-1.9-2.7-4.2-8.3-5.2c-5.6-1.1-6.9-0.2-12.6-2.3s-10.6-4.8-12.4-0.3
		c-1.8,4.5,0.6,5.3,10.2,9.1c9.5,3.7,11.5,6.5,16.4,5.8C69.2,179.9,71.1,176,71.1,173.5"/>
	<path id="XMLID_34_" class="st25" d="M45.4,171.7c1.1-0.7,2,1,3.1,2.7c1.1,1.6,2.3,2.7,4.1,3.1c1.7,0.4,6.2-1,8.4-2.4
		s3.7-1.6,0.9-5.1c-2.8-3.5-5-5.1-7.5-4.7c-2.5,0.4-6.9,2.7-7.5,1.2c-0.6-1.5,3.3-2.6,7.7-2.1c5.3,0.6,10.3,4.1,11.1,8
		c0.3,1.5,1.8,0.8,1.5,1.7c-0.2,1-1.7-0.1-2,0.4c-1.7,2.5-9.1,4.7-12.3,3.8C49,177.4,43.5,173.1,45.4,171.7"/>
	<path id="XMLID_33_" class="st25" d="M56.5,165.6c-0.7-0.2-1.4-0.3-2.1-0.1c-2.5,0.4-6.9,2.7-7.5,1.2c-0.6-1.5,3.3-2.6,7.7-2.1
		c0.2,0,0.5,0.1,0.7,0.1L56.5,165.6L56.5,165.6z"/>
	<path id="XMLID_32_" class="st25" d="M53.1,177.7l-1.8,0.3c-3.7-1.6-7.6-5-5.9-6.2c1.1-0.7,2,1,3.1,2.7c1.1,1.6,2.3,2.7,4.1,3.1
		C52.8,177.6,53,177.6,53.1,177.7"/>
	<path id="XMLID_31_" class="st25" d="M72.6,147.7c0,2.2-2.8,4.8-9,6c-6.1,1.1-7.5,0.1-13.7,2.4c-6.2,2.4-11.5,5.3-13.5,0.1
		c-2.1-5.3,0.5-6.3,11-10.5c10.3-4.1,12.4-7.4,17.8-6.4C70.4,140.3,72.6,144.8,72.6,147.7"/>
	<path id="XMLID_30_" class="st23" d="M71.1,147.5c0,1.9-2.7,4.2-8.3,5.2c-5.6,1.1-6.9,0.2-12.6,2.3c-5.7,2.1-10.6,4.8-12.4,0.3
		c-1.8-4.5,0.6-5.3,10.2-9.1c9.5-3.7,11.5-6.5,16.4-5.8C69.2,141.2,71.1,145,71.1,147.5"/>
	<path id="XMLID_29_" class="st25" d="M45.4,149.3c1.1,0.7,2-1,3.1-2.7c1.1-1.6,2.3-2.7,4.1-3.1c1.7-0.4,6.2,1,8.4,2.4
		c2.2,1.3,3.7,1.6,0.9,5.1c-2.8,3.5-5,5.1-7.5,4.7c-2.5-0.4-6.9-2.7-7.5-1.2c-0.6,1.5,3.3,2.6,7.7,2.1c5.3-0.6,10.3-4.1,11.1-8
		c0.3-1.5,1.8-0.8,1.5-1.7c-0.2-1-1.7,0.1-2-0.4c-1.7-2.5-9.1-4.7-12.3-3.8C49,143.6,43.5,147.9,45.4,149.3"/>
	<path id="XMLID_28_" class="st25" d="M56.5,155.4c-0.7,0.2-1.4,0.3-2.1,0.1c-2.5-0.4-6.9-2.7-7.5-1.2c-0.6,1.5,3.3,2.6,7.7,2.1
		c0.2,0,0.5-0.1,0.7-0.1L56.5,155.4L56.5,155.4z"/>
	<path id="XMLID_27_" class="st25" d="M53.1,143.4l-1.8-0.3c-3.7,1.6-7.6,5-5.9,6.2c1.1,0.7,2-1,3.1-2.7c1.1-1.6,2.3-2.7,4.1-3.1
		C52.8,143.4,53,143.4,53.1,143.4"/>
	<rect id="XMLID_26_" x="108.9" y="0" class="st26" width="20.1" height="384.1"/>
	<g>
		<g>
			<defs>
				<rect id="SVGID_1_" y="0" width="380" height="383.3"/>
			</defs>
			<clipPath id="SVGID_2_">
				<use xlink:href="#SVGID_1_"  style="overflow:visible;"/>
			</clipPath>
			<path id="XMLID_25_" class="st27" d="M64.1,244.5c-4.6-9-6.2-18.7-5.3-28c-9.5,0.1-19.1-2.5-27.7-8c-8.6-5.6-14.9-13.4-18.8-22.2
				c-7.9,4.5-17.1,6.8-26.8,6.4c-10.3-0.5-19.7-4.1-27.3-9.8c-4.6,8.4-11.7,15.6-20.8,20.4c-8.9,4.7-18.6,6.3-27.9,5.4
				c0.4,10.1-2.1,20.4-7.9,29.5c-5.4,8.5-12.9,14.8-21.3,18.7c4.9,8.2,7.4,17.9,6.9,28.3c-0.5,10.1-3.9,19.3-9.2,27
				c8.3,4.7,15.3,11.8,20,20.9c4.6,9,6.2,18.7,5.3,28c9.5-0.1,19.1,2.5,27.7,8c8.4,5.5,14.6,13,18.5,21.6c8.1-4.9,17.8-7.5,27.9-7.1
				c10,0.5,19.1,3.9,26.7,9.3c4.6-8.3,11.6-15.5,20.7-20.2c8.9-4.6,18.5-6.3,27.7-5.4c-0.1-9.6,2.4-19.3,7.9-28
				c5.4-8.5,12.9-14.8,21.4-18.7c-4.9-8.2-7.5-17.9-7-28.2c0.5-10.1,3.9-19.3,9.2-27C75.8,260.8,68.8,253.7,64.1,244.5"/>
		</g>
		<g>
			<defs>
				<rect id="SVGID_3_" y="0" width="380" height="383.3"/>
			</defs>
			<clipPath id="SVGID_4_">
				<use xlink:href="#SVGID_3_"  style="overflow:visible;"/>
			</clipPath>
			<path id="XMLID_24_" class="st28" d="M12.3,186.3c-7.9,4.5-17.1,6.8-26.8,6.4c-10.3-0.5-19.7-4.1-27.3-9.8l22.9,103.9L12.3,186.3
				z"/>
		</g>
		<g>
			<defs>
				<rect id="SVGID_5_" y="0" width="380" height="383.3"/>
			</defs>
			<clipPath id="SVGID_6_">
				<use xlink:href="#SVGID_5_"  style="overflow:visible;"/>
			</clipPath>
			<path id="XMLID_23_" class="st29" d="M-50.5,390.7c8.1-4.9,17.8-7.5,27.9-7.1c10,0.5,19.1,3.9,26.7,9.3l-23-106.2L-50.5,390.7z"
				/>
		</g>
		<g>
			<defs>
				<rect id="SVGID_7_" y="0" width="380" height="383.3"/>
			</defs>
			<clipPath id="SVGID_8_">
				<use xlink:href="#SVGID_7_"  style="overflow:visible;"/>
			</clipPath>
			<path class="st30" d="M-56.3,245.9l-12-13.1c9.4-8.6,21-14.7,33.7-17.5l3.9,17.5C-40.4,234.9-49.2,239.5-56.3,245.9 M22.1,249.6
				c-6.6-7.2-15.1-12.7-24.6-15.7l5.3-17.1c12.7,4,23.8,11.2,32.5,20.8L22.1,249.6z M-90.8,304.4c-1.4-6.4-2-13.1-1.7-19.9
				c0.3-6.5,1.4-12.7,3.3-18.6l17,5c-1.4,4.6-2.3,9.4-2.5,14.4c-0.2,5.1,0.2,10.1,1.2,14.8L-90.8,304.4z M-40.9,359.1
				c-12.5-4-23.5-11.2-32.2-20.6l12.9-12.3c6.5,7.2,15,12.8,24.5,15.8L-40.9,359.1z M-2.8,360.7l-3.8-17.5c9.7-2.2,18.6-7,25.7-13.7
				l11.8,13.3C21.5,351.6,9.9,357.8-2.8,360.7L-2.8,360.7z"/>
		</g>
		<g>
			<defs>
				<rect id="SVGID_9_" y="0" width="380" height="383.3"/>
			</defs>
			<clipPath id="SVGID_10_">
				<use xlink:href="#SVGID_9_"  style="overflow:visible;"/>
			</clipPath>
			<path id="XMLID_17_" class="st31" d="M44.5,310.5l-16.1-7.4c4.1-9.2,5.5-19.3,4.5-29l17.6-1.6C51.8,285.3,49.8,298.4,44.5,310.5"
				/>
		</g>
		<g>
			<defs>
				<rect id="SVGID_11_" y="0" width="380" height="383.3"/>
			</defs>
			<clipPath id="SVGID_12_">
				<use xlink:href="#SVGID_11_"  style="overflow:visible;"/>
			</clipPath>
			<path id="XMLID_16_" class="st32" d="M35.7,275.5c-2.2-9.8-6.9-18.7-13.5-25.8l13.2-11.9c8.6,9.5,14.8,21.2,17.7,34.2L35.7,275.5
				z"/>
		</g>
		<g>
			<defs>
				<rect id="SVGID_13_" y="0" width="380" height="383.3"/>
			</defs>
			<clipPath id="SVGID_14_">
				<use xlink:href="#SVGID_13_"  style="overflow:visible;"/>
			</clipPath>
			<path id="XMLID_15_" class="st33" d="M-18.9,286.8l103-21.3c-8.3-4.7-15.3-11.8-20-21c-4.6-9-6.2-18.7-5.3-28L-18.9,286.8z"/>
		</g>
		<g>
			<defs>
				<rect id="SVGID_15_" y="0" width="380" height="383.3"/>
			</defs>
			<clipPath id="SVGID_16_">
				<use xlink:href="#SVGID_15_"  style="overflow:visible;"/>
			</clipPath>
			<path id="XMLID_14_" class="st34" d="M60.5,339.4c5.4-8.5,12.9-14.8,21.4-18.7l-100.7-33.9l71.4,80.6
				C52.4,357.7,55,348,60.5,339.4"/>
		</g>
		<g>
			<defs>
				<rect id="SVGID_17_" y="0" width="380" height="383.3"/>
			</defs>
			<clipPath id="SVGID_18_">
				<use xlink:href="#SVGID_17_"  style="overflow:visible;"/>
			</clipPath>
			<path id="XMLID_13_" class="st35" d="M55.9,235.6c-4.6-9-6.2-18.7-5.3-28c-9.5,0.1-19.1-2.5-27.7-8c-8.6-5.6-14.9-13.4-18.8-22.2
				c-7.9,4.5-17.1,6.8-26.8,6.4c-10.3-0.5-19.7-4.1-27.3-9.8c-4.6,8.4-11.7,15.6-20.8,20.4c-8.9,4.7-18.6,6.3-27.9,5.4
				c0.4,10.1-2.1,20.4-7.9,29.5c-5.4,8.5-12.9,14.8-21.3,18.7c4.9,8.2,7.4,17.9,6.9,28.3c-0.5,10.1-3.9,19.3-9.2,27
				c8.3,4.7,15.3,11.8,20,20.9c4.6,9,6.2,18.7,5.3,28c9.5-0.1,19.1,2.5,27.7,8c8.4,5.5,14.6,13,18.5,21.6c8.1-4.9,17.8-7.5,27.9-7.1
				c10,0.5,19.1,3.9,26.7,9.3c4.6-8.3,11.6-15.5,20.7-20.2c8.9-4.6,18.5-6.3,27.7-5.4c-0.1-9.6,2.4-19.3,7.9-28
				c5.4-8.5,12.9-14.8,21.4-18.7c-4.9-8.2-7.5-17.9-7-28.2c0.5-10.1,3.9-19.3,9.2-27C67.6,251.9,60.6,244.8,55.9,235.6"/>
		</g>
		<g>
			<defs>
				<rect id="SVGID_19_" y="0" width="380" height="383.3"/>
			</defs>
			<clipPath id="SVGID_20_">
				<use xlink:href="#SVGID_19_"  style="overflow:visible;"/>
			</clipPath>
			<path id="XMLID_12_" class="st36" d="M4.1,177.4c-7.9,4.5-17.1,6.8-26.8,6.4c-10.3-0.5-19.7-4.1-27.3-9.8l22.9,103.9L4.1,177.4z"
				/>
		</g>
		<g>
			<defs>
				<rect id="SVGID_21_" y="0" width="380" height="383.3"/>
			</defs>
			<clipPath id="SVGID_22_">
				<use xlink:href="#SVGID_21_"  style="overflow:visible;"/>
			</clipPath>
			<path class="st37" d="M-64.5,237.1l-12-13.1c9.4-8.6,21-14.7,33.7-17.5l3.9,17.5C-48.7,226-57.4,230.6-64.5,237.1 M13.9,240.7
				c-6.6-7.2-15.1-12.7-24.6-15.7l5.3-17.1c12.7,4,23.8,11.2,32.5,20.8L13.9,240.7z M-99.1,295.5c-1.4-6.4-2-13.1-1.7-19.9
				c0.3-6.5,1.4-12.7,3.3-18.6l17,5c-1.4,4.6-2.3,9.4-2.5,14.4c-0.2,5.1,0.2,10.1,1.2,14.8L-99.1,295.5z M-49.2,350.2
				c-12.5-4-23.5-11.2-32.2-20.6l12.9-12.3c6.5,7.2,15,12.8,24.5,15.8L-49.2,350.2z M-11.1,351.8l-3.8-17.5
				c9.7-2.2,18.6-7,25.7-13.7L22.6,334C13.3,342.7,1.7,349-11.1,351.8L-11.1,351.8z"/>
		</g>
		<g>
			<defs>
				<rect id="SVGID_23_" y="0" width="380" height="383.3"/>
			</defs>
			<clipPath id="SVGID_24_">
				<use xlink:href="#SVGID_23_"  style="overflow:visible;"/>
			</clipPath>
			<path id="XMLID_6_" class="st38" d="M36.3,301.6l-16.1-7.4c4.1-9.2,5.5-19.3,4.5-29l17.6-1.6C43.5,276.4,41.6,289.5,36.3,301.6"
				/>
		</g>
		<g>
			<defs>
				<rect id="SVGID_25_" y="0" width="380" height="383.3"/>
			</defs>
			<clipPath id="SVGID_26_">
				<use xlink:href="#SVGID_25_"  style="overflow:visible;"/>
			</clipPath>
			<path id="XMLID_5_" class="st39" d="M27.4,266.6c-2.2-9.8-6.9-18.7-13.5-25.8l13.2-11.9c8.6,9.5,14.8,21.2,17.7,34.2L27.4,266.6z
				"/>
		</g>
		<g>
			<defs>
				<rect id="SVGID_27_" y="0" width="380" height="383.3"/>
			</defs>
			<clipPath id="SVGID_28_">
				<use xlink:href="#SVGID_27_"  style="overflow:visible;"/>
			</clipPath>
			<path id="XMLID_4_" class="st40" d="M-27.1,277.9l103-21.3c-8.3-4.7-15.3-11.8-20-21c-4.6-9-6.2-18.7-5.3-28L-27.1,277.9z"/>
		</g>
		<g>
			<defs>
				<rect id="SVGID_29_" y="0" width="380" height="383.3"/>
			</defs>
			<clipPath id="SVGID_30_">
				<use xlink:href="#SVGID_29_"  style="overflow:visible;"/>
			</clipPath>
			<path id="XMLID_3_" class="st41" d="M52.2,330.5c5.4-8.5,12.9-14.8,21.4-18.7l-100.7-33.9l71.4,80.6
				C44.2,348.8,46.7,339.1,52.2,330.5"/>
		</g>
	</g>
</g>
</svg>
