<?xml version="1.0" encoding="utf-8"?>
<!-- Generator: Adobe Illustrator 22.0.1, SVG Export Plug-In . SVG Version: 6.00 Build 0)  -->
<svg version="1.1" id="Calque_1" xmlns="http://www.w3.org/2000/svg" xmlns:xlink="http://www.w3.org/1999/xlink" x="0px" y="0px"
	 viewBox="0 0 50 50" style="enable-background:new 0 0 50 50;" xml:space="preserve">
<style type="text/css">
	.st0{fill:#1D262D;}
</style>
<title>Plan de travail 1</title>
<g>
	<path class="st0" d="M16.4,35.3c-0.2,1.1-0.3,2.3-0.4,3.5c-0.4,0-0.8,0-1.2-0.1c0-0.2,0-0.5,0-0.7c0-0.6,0-1.3,0-1.9
		c0-0.2,0-0.4-0.2-0.6c-0.2-0.1-0.4-0.1-0.5,0c-0.2,0.3-0.2,0.7-0.2,1c-0.1,1.8-0.2,3.6-0.2,5.5c0,0.2,0,0.4,0.1,0.5
		c0.2,0.1,0.4,0.1,0.7,0c0.1-0.6,0.1-1.1,0.1-1.7c0-0.6,0.1-1.1,0.1-1.7c0.2,0,0.4,0,0.6,0c0.2,0,0.4-0.1,0.6,0.1c0,0.2,0,0.3,0,0.5
		c0,0.8,0,1.6,0,2.4c0,0.2,0,0.4,0.1,0.6c0.2,0.1,0.4,0.1,0.6,0c0-0.1,0.1-0.2,0.1-0.4c0-0.5,0.1-1,0.1-1.6c0-0.6,0.1-1.2,0.1-1.7
		c0-1,0-2.1,0-3.1c0-0.2,0-0.4-0.1-0.6C16.8,35.1,16.7,35.1,16.4,35.3z"/>
	<path class="st0" d="M26.5,36.4c0-0.2-0.1-0.4-0.1-0.6c-0.2-0.2-0.5-0.2-0.7,0c0,0.1-0.1,0.2-0.1,0.4c-0.1,0.4-0.3,0.8-0.4,1.2
		L25,37.6c-0.2-0.7-0.3-1.4-0.6-2c-0.2-0.1-0.4-0.1-0.7,0c0,0.3-0.1,0.6-0.1,0.9c-0.1,0.9-0.1,1.8-0.1,2.7c0,0.8,0,1.6,0,2.4
		c0,0.2,0,0.5,0.1,0.7c0.1,0,0.3,0,0.4,0c0-0.1,0.1-0.2,0.1-0.2c0-0.2,0.1-0.5,0.1-0.7c0-1,0.1-2,0.1-3c0-0.1,0-0.3,0-0.4l0.1,0
		c0.1,0.3,0.2,0.6,0.3,0.9c0.3,0.2,0.5,0.2,0.8,0c0.1-0.3,0.2-0.6,0.3-0.9c0.1,0.2,0.1,0.3,0.1,0.5c0,1.3,0,2.6,0.1,3.9
		c0,0.2,0,0.4,0.1,0.6c0.1,0.1,0.3,0.1,0.5,0l0-0.2c0-0.9,0.1-1.7,0.1-2.6c0-0.6,0-1.2,0-1.8C26.6,37.7,26.5,37,26.5,36.4z"/>
	<path class="st0" d="M35.8,34.8c-0.1,0.8-0.1,1.6-0.1,2.4c0,0.8,0,1.7,0,2.5c-0.1-0.1-0.1-0.2-0.2-0.3c-0.3-1.1-0.6-2.1-0.9-3.2
		c-0.1-0.2-0.1-0.4-0.3-0.6c-0.2-0.1-0.3-0.1-0.5,0c0,0.1-0.1,0.2-0.1,0.3c0,0.5-0.1,1-0.1,1.4c0,1-0.1,2-0.1,3
		c0,0.6-0.1,1.1-0.1,1.7c0,0.1-0.1,0.3,0.1,0.4c0.2,0.1,0.3,0.1,0.5-0.1c0-1.6,0-3.3,0.2-5c0.6,1.6,0.8,3.2,1.2,4.8
		c0.3,0.1,0.5,0.1,0.7-0.1c0-0.1,0-0.3,0-0.4c0-0.7,0-1.3,0.1-2c0-1.2,0-2.3,0.1-3.5c0-0.4,0-0.8,0-1.3c0-0.1,0-0.2,0-0.3
		C36.1,34.6,36,34.7,35.8,34.8z"/>
	<path class="st0" d="M47.9,35c-0.1-0.1-0.3-0.1-0.4,0c-0.1,0.6,0,1.1,0,1.7c0,0.6,0,1.2-0.1,1.7c0,0.6,0,1.1-0.1,1.7
		c-0.1-0.1-0.1-0.2-0.2-0.4c-0.3-0.9-0.6-1.9-1-2.8c-0.1-0.3-0.2-0.6-0.4-0.9c-0.1,0-0.3,0-0.5,0c-0.1,0.2-0.1,0.3-0.2,0.4
		c-0.1,0.4-0.1,0.7-0.1,1.1c-0.1,0.7-0.1,1.5-0.2,2.2c0,0.7-0.1,1.4-0.1,2.1c0,0.2,0,0.3,0,0.5c0.2,0.1,0.3,0.1,0.5,0
		c0.2-0.8,0.2-1.7,0.3-2.5c0.1-0.9,0.1-1.7,0.2-2.6c0.6,1.5,0.9,3.1,1.5,4.5c0.2,0.1,0.4,0.1,0.7,0c0-0.1,0.1-0.3,0.1-0.4
		C48,40.5,48,35.5,47.9,35z"/>
	<path class="st0" d="M8.4,36.2c-0.1-0.4-0.4-0.6-0.8-0.6c-0.4,0-0.7,0.1-0.9,0.3c-0.4,0.4-0.7,1-0.9,1.6c-0.2,0.9-0.3,1.9-0.3,2.9
		c0,0.2,0,0.4,0.1,0.6c0.1,0.2,0.2,0.5,0.3,0.7c0.5,0.7,1.8,0.8,2.3-0.2c0.1-0.3,0.2-0.6,0.3-0.9c0.1-0.6,0.2-1.1,0.2-1.7
		c0-0.7-0.1-1.4-0.2-2.2C8.5,36.6,8.5,36.4,8.4,36.2z M7.9,40.1c-0.1,0.4-0.2,0.7-0.3,1.1c0,0.1-0.1,0.2-0.2,0.3l-0.2,0.2l-0.2-0.2
		c-0.2-0.4-0.4-0.8-0.4-1.2c-0.1-1-0.1-2,0.2-3c0.1-0.5,0.3-0.9,0.6-1.3l0.1-0.2c0.2,0.1,0.3,0.3,0.4,0.5c0.1,0.2,0.1,0.5,0.1,0.7
		C8,38.2,8,39.2,7.9,40.1z"/>
	<path class="st0" d="M32.4,35.6c0,0.1,0,0.3-0.1,0.4c-0.1,1-0.1,2-0.2,3.1c0,0.8-0.1,1.5-0.4,2.3c0,0.1-0.1,0.2-0.2,0.4
		c-0.2-0.4-0.2-0.8-0.3-1.1c-0.1-1.5-0.1-3,0-4.5c0-0.2,0-0.3,0-0.4c-0.2-0.2-0.4-0.2-0.5,0l-0.1,0.2l-0.1,0.3
		c-0.2,1.3-0.2,2.6-0.2,3.9c0,0.3,0,0.6,0.1,0.9c0.1,0.3,0.2,0.7,0.3,1c0.2,0.6,1.1,0.6,1.4,0.1c0.1-0.2,0.2-0.4,0.3-0.6
		c0.1-0.4,0.2-0.8,0.3-1.1C33,38.8,33,37.4,33,36c0-0.1,0-0.3,0-0.4C32.8,35.5,32.6,35.5,32.4,35.6z"/>
	<path class="st0" d="M29.6,36.3c-0.3-0.6-1.1-0.7-1.6-0.2c-0.2,0.2-0.3,0.4-0.4,0.7c-0.5,1.2-0.7,2.5-0.6,3.8
		c0,0.3,0.1,0.5,0.2,0.8c0.1,0.2,0.3,0.4,0.5,0.6c0.7,0.4,1.6,0.1,1.9-0.6c0.1-0.1,0.1-0.3,0.2-0.4c0.2-0.7,0.2-1.3,0.2-2
		c0-0.7,0-1.4-0.2-2.1C29.8,36.6,29.7,36.4,29.6,36.3z M29.3,40.2c-0.1,0.4-0.2,0.8-0.4,1.1c-0.1,0.2-0.1,0.2-0.4,0.4
		c-0.2-0.1-0.3-0.3-0.4-0.6c-0.2-0.5-0.2-1-0.2-1.5c0-0.9,0.1-1.7,0.3-2.5c0.1-0.3,0.2-0.5,0.3-0.8c0-0.1,0.1-0.2,0.2-0.3
		c0.2,0.1,0.3,0.3,0.4,0.5c0.1,0.4,0.2,0.7,0.2,1.1C29.4,38.5,29.5,39.4,29.3,40.2z"/>
	<path class="st0" d="M42.6,39.7c-0.1-1.2-0.4-2.4-0.8-3.5c-0.1-0.2-0.1-0.3-0.2-0.5c-0.2,0-0.3,0-0.5,0c-0.1,0.1-0.1,0.3-0.2,0.4
		c-0.1,0.3-0.2,0.7-0.3,1c-0.2,0.9-0.3,1.8-0.5,2.7c-0.1,0.6-0.3,1.2-0.4,1.9c0,0.2-0.1,0.5,0,0.7c0.1,0.1,0.2,0.2,0.4,0.1
		c0.3-0.5,0.3-1.2,0.5-1.8c0.2,0,0.5,0,0.7,0c0.2,0,0.5,0,0.7,0c0.2,0.6,0.1,1.3,0.3,1.9c0.2,0.1,0.3,0.1,0.5,0c0-0.1,0-0.2,0-0.4
		C42.7,41.3,42.7,40.5,42.6,39.7z M41.9,40.3c-0.4,0.1-0.8,0-1.2,0c0-0.4,0.3-2.3,0.6-3.5C41.6,37.3,41.9,39.5,41.9,40.3z"/>
	<path class="st0" d="M5.9,35.7c-0.1-0.2-0.3-0.2-0.5-0.2c-0.8,0-1.6-0.1-2.4-0.1c-0.3,0-0.6,0.1-0.8,0.2c-0.1,0-0.1,0.1-0.2,0.2
		c0.5,0.3,1.1,0,1.6,0.2c-0.1,0.4-0.1,0.7-0.2,1.1c-0.1,1.7-0.2,3.3,0,5c0,0.2,0.1,0.3,0.1,0.4c0.3,0.2,0.6,0.2,0.9-0.1
		c0.1-2.2,0.1-4.3,0.1-6.5l0.2,0c0.2,0,0.5,0,0.7,0C5.6,35.9,5.8,35.9,5.9,35.7z"/>
	<path class="st0" d="M20.1,41.8c-0.5,0-0.9,0-1.4,0c-0.1,0-0.2,0-0.4,0c0.1-0.9,0-1.8,0.1-2.6l0.2,0c0.3,0,0.7,0,1-0.1
		c0.1,0,0.3,0,0.4-0.2c-0.5-0.3-1.1-0.1-1.6-0.2c0-0.8,0-1.6,0-2.5c0.3-0.1,0.7-0.2,1-0.2c0.2,0,0.4,0,0.5-0.2l-0.1-0.2
		c-0.1-0.1-0.2-0.1-0.4-0.1c-0.5,0-1,0-1.5,0.2c-0.1,0-0.2,0.1-0.3,0.2c0,0.2,0.1,0.3,0.1,0.4c-0.1,0.9-0.1,1.8-0.2,2.6
		c-0.1,1-0.1,2-0.1,2.9l0,0.1c0.2,0.2,0.4,0.3,0.7,0.3c0.7,0,1.4-0.1,2.2-0.1c0.1,0,0.2,0,0.2-0.2C20.4,41.8,20.2,41.8,20.1,41.8z"
		/>
	<path class="st0" d="M13.8,35.7c-0.1-0.2-0.4-0.2-0.6-0.2c-0.8,0-1.7,0-2.5,0c-0.2,0-0.4,0-0.6,0.1l-0.2,0.2c0.5,0.3,1,0.1,1.4,0.3
		c0,0.6-0.1,1.2-0.1,1.9c0,1.2,0.1,2.3,0.2,3.5c0,0.4,0,0.8,0.2,1.1c0.2,0.1,0.4,0.1,0.6,0l0-0.2c0-0.3,0-0.7,0-1
		c-0.1-1.1-0.2-2.1-0.1-3.2c0-0.6,0.1-1.2,0.1-1.8c0-0.1,0-0.2,0-0.3c0.3,0,0.5,0,0.8,0C13.3,35.9,13.6,35.9,13.8,35.7z"/>
	<path class="st0" d="M40.1,35.6c-0.1-0.2-0.2-0.2-0.4-0.2c-0.5,0-1,0-1.5,0c-0.4,0-0.9,0.1-1.3,0.1c-0.1,0-0.2,0.1-0.3,0.1
		c0.5,0.2,1,0.1,1.4,0.1c0,0.2,0,0.3,0,0.5c0,1.5,0,3.1-0.1,4.6c0,0.4,0,0.8,0,1.3c0,0.2,0,0.3,0,0.4c0.2,0.1,0.2,0.1,0.5,0
		c0-0.7,0.1-1.4,0.1-2.1c0-1.5,0-2.9,0-4.4c0-0.1,0-0.2,0-0.3c0.3,0,0.5,0,0.7-0.1C39.7,35.7,39.9,35.8,40.1,35.6z"/>
	<path class="st0" d="M44,38.6c0-0.8,0-1.6-0.1-2.3c0-0.3,0-0.6-0.2-0.9c-0.1,0-0.2,0-0.3,0c-0.2,2.4-0.3,4.8,0,7.2
		c0.2,0.2,0.4,0.2,0.6,0c0-0.1,0-0.3,0-0.4C44,40.9,44,39.7,44,38.6z"/>
	<path class="st0" d="M44.1,12.6c-0.7-0.2-1.3,0.2-1.6,0.6c-0.1,0.1-0.1,0.2,0,0.4c0.3,0.2,0.6,0.2,1,0c0-0.1,0-0.2,0.1-0.3
		c0.1-0.1,0.3-0.2,0.4-0.3c0.3,0.2,0.3,0.3,0.3,0.5c0.1,0.6-0.2,1-0.7,1.3c-0.5,0.3-1,0.2-1.4-0.1c-0.3-0.2-0.5-0.5-0.6-0.7
		c-0.3-0.6-0.5-1.2-0.7-1.8l0-0.2c0.1-0.1,0.2-0.2,0.3-0.2c0.4-0.3,0.8-0.7,1.2-1c0.1-0.1,0.3-0.3,0.4-0.5c0.1-0.2,0.2-0.3,0-0.5
		c-0.6-0.3-1,0.1-1.6,0.3c0.4-0.7,0.6-1.3,0.8-1.9c0.2-0.5,0.3-1,0.2-1.6c0-0.2,0-0.3-0.1-0.5c-0.1-0.3-0.4-0.5-0.8-0.3
		c-0.2,0.1-0.4,0.2-0.5,0.4c-0.2,0.3-0.4,0.7-0.5,1c-0.3,0.7-0.4,1.4-0.5,2.1c-0.1,0.6-0.2,1.2-0.3,1.8c-0.4,0.6-0.9,1.3-1.4,1.9
		c-0.2,0.3-0.5,0.6-0.8,0.9c-0.1,0.1-0.2,0.2-0.3,0.3c-0.2-0.2-0.2-0.4-0.2-0.7c0-0.3,0-0.6,0-0.9c0-0.4,0.1-0.7,0.3-1
		c0.6-1,1-2.1,1.3-3.3c0.1-0.4,0.2-0.9,0.1-1.3c0-0.2,0-0.4-0.2-0.5c-0.4-0.1-0.6,0.1-0.8,0.3c-0.4,0.5-0.6,1-0.8,1.5
		c-0.3,0.9-0.6,1.8-0.7,2.8c-0.1,0.6-0.1,1.2-0.2,1.8c-0.2,0.2-0.3,0.5-0.7,0.6c0-0.3,0-0.5,0.1-0.7c0.1-0.5,0.2-1.1,0.3-1.6
		c0-0.2,0.1-0.4,0-0.6c-0.2-0.1-0.3-0.1-0.5,0c-0.1,0.1-0.2,0.2-0.3,0.3c-0.4,0-0.8,0.2-1,0.5c-0.2,0.2-0.5,0.3-0.8,0.4
		c-0.2,0-0.4,0.1-0.6,0c0-0.4,0.3-0.8,0.1-1.1c-0.4-0.1-0.6,0-0.8,0.3c-0.1,0.1-0.1,0.3-0.1,0.5c0,0.3,0.2,0.4,0.4,0.6
		c-0.3,0.8-0.7,1.6-1.1,1.9c-0.1-0.2-0.1-0.4-0.1-0.6c0.1-0.5,0.1-1.1,0.2-1.6c0-0.3,0.1-0.5,0-0.8c-0.2-0.2-0.4-0.1-0.7,0
		C30.1,10.8,30,11,30,11.1c-0.1,0.2-0.2,0.5-0.3,0.7c-0.2,0.3-0.4,0.6-0.7,0.9c0,0.1-0.1,0.1-0.2,0.2c0-0.1,0-0.2,0-0.2
		c0.1-0.5,0.1-1,0.2-1.5c0.1-0.4,0.1-0.9,0-1.3c-0.3-0.1-0.3-0.1-0.6,0c-0.4,0.5-0.6,1.1-0.7,1.8c-0.1,0.5-0.1,1,0.1,1.5
		c0.2,0.5,0.7,0.7,1.1,0.3c0.2-0.2,0.4-0.4,0.6-0.7c0.1-0.1,0.1-0.2,0.3-0.3c0,0.2,0,0.4,0,0.5c0,0.2,0.1,0.4,0.1,0.6
		c0.1,0.3,0.4,0.5,0.7,0.5c0.2,0,0.4-0.1,0.6-0.3c0.2-0.3,0.3-0.5,0.5-0.8c0.2-0.3,0.3-0.7,0.5-1c0.3,0,0.6-0.1,0.9-0.1l0.1,0
		c0,0.1-0.1,0.2-0.1,0.3c-0.1,0.2-0.1,0.4-0.2,0.7c0,0.5,0.4,0.7,0.9,0.5l0.2-0.1c0.1-0.1,0.2-0.1,0.2-0.2c0,0.1,0.1,0.2,0.1,0.3
		c0.1,0.3,0.3,0.4,0.6,0.4c0.3,0,0.5-0.1,0.7-0.2c0.1-0.1,0.2-0.2,0.3-0.2c0.1,0.2,0.1,0.4,0.2,0.6c0.2,0.4,0.7,0.6,1.1,0.4
		c0.2-0.1,0.3-0.2,0.4-0.3c0.2-0.2,0.4-0.5,0.6-0.7c0.3-0.4,0.6-0.9,0.9-1.3c0-0.1,0.1-0.1,0.2-0.2c0,0.3,0,0.5,0,0.7
		c0,0.8-0.1,1.6-0.1,2.3c0,0.3-0.1,0.7,0,1c0.4,0.2,0.4,0.2,0.8,0c0.1-1,0.1-2,0.3-3.1c0.1,0.2,0.2,0.3,0.2,0.5
		c0.1,0.4,0.3,0.9,0.6,1.2c0.5,0.7,1.1,1,1.9,0.9c0.9-0.1,1.6-0.9,1.6-1.8C44.7,13,44.5,12.7,44.1,12.6z M37.7,7.2
		c0.1-0.2,0.1-0.3,0.2-0.5c0-0.1,0.1-0.1,0.2-0.2c0,0.1,0.1,0.2,0.1,0.3c0,0.3,0,0.6,0,0.9c-0.1,0.8-0.6,2.2-1,2.8
		C37.2,9.3,37.4,8.2,37.7,7.2z M31.9,11.4c-0.2-0.3-0.2-0.3,0.1-0.6C32,11,32,11.2,31.9,11.4z M34.5,11.2c-0.1,0.2-0.1,0.4-0.2,0.7
		c-0.1,0.4-0.3,0.8-0.6,1.1l-0.1,0c0-0.7,0.5-1.6,1-2C34.5,11.1,34.5,11.2,34.5,11.2z M40.7,9.3C40.8,8.6,40.9,7.8,41,7
		c0-0.3,0.1-0.5,0.2-0.8c0.1-0.2,0.2-0.3,0.3-0.5c0.3,0.3,0.3,0.6,0.3,0.9c0,0.3-0.1,0.6-0.1,0.9c-0.2,0.8-0.5,1.6-0.9,2.4
		c0,0.1-0.1,0.1-0.2,0.3C40.6,9.8,40.6,9.5,40.7,9.3z M40.5,11.6c0-0.1,0-0.2,0-0.2c0.4-0.6,0.8-1.2,1.5-1.5c0.1,0,0.1,0,0.3-0.1
		C41.9,10.7,41.2,11.1,40.5,11.6z"/>
	<path class="st0" d="M21.1,12l-0.2,0c-1,1-1.5,1.3-2,1.4c0-0.1-0.1-0.2-0.2-0.3c0.1-0.1,0.2-0.2,0.2-0.3c0.4-0.5,0.6-1.1,0.8-1.7
		c0.1-0.3,0.1-0.5,0-0.8c-0.2-0.2-0.3-0.2-0.5-0.1c-0.1,0.1-0.3,0.2-0.4,0.3c-0.3,0.3-0.5,0.7-0.7,1.1c-0.3,0.6-0.5,1.2-0.2,1.9
		c-0.4,0.3-0.7,0.7-1.3,0.7c-0.3-0.4-0.7-0.8-0.6-1.3c0.1-0.1,0.2-0.3,0.4-0.4c0.3-0.3,0.6-0.6,0.9-0.9c0.2-0.2,0.3-0.4,0.5-0.7
		c0.1-0.2,0.2-0.4,0.1-0.6c-0.1-0.1-0.3-0.1-0.5-0.1c-0.1,0.1-0.3,0.1-0.4,0.2c-0.4,0.3-0.7,0.6-1,0.9c0,0.1-0.1,0.1-0.2,0.2
		c0-0.2,0-0.4,0-0.5c0.2-0.3,0.4-0.5,0.5-0.7c0.5-0.9,0.9-1.8,1.1-2.8c0.1-0.6,0.2-1.2,0.2-1.8c0-0.2,0-0.5-0.2-0.6
		c-0.4-0.1-0.6-0.1-0.8,0.2c-0.1,0.1-0.2,0.3-0.3,0.4C16,6.1,15.7,6.5,15.6,7c-0.3,0.9-0.5,1.8-0.6,2.7c-0.1,0.6-0.1,1.1-0.4,1.6
		c-0.3,0.7-0.7,1.3-1.2,1.9c-0.1,0.1-0.2,0.2-0.4,0.3c-0.1-0.2,0-0.4,0-0.6c0.1-0.6,0.2-1.1,0.3-1.7c0-0.2,0-0.5,0-0.7l-0.1-0.1
		c-0.1,0-0.2,0-0.4,0c-0.1,0.1-0.1,0.2-0.2,0.2c-0.5,0.1-0.6,0.1-0.9,0.5c-0.2,0.2-0.3,0.4-0.4,0.6C11,12.3,10.5,13,10,13.7
		c-0.3,0.4-0.7,0.8-1,1.2l-0.2,0.1c0-0.4,0-0.7,0.1-1c0.4-1.8,0.9-3.5,1.3-5.3c0-0.1,0.1-0.2,0.1-0.3c0.1,0,0.2,0,0.4,0.1
		c0.6,0.1,1.2,0.2,1.8,0.1c0.5,0,0.9-0.2,1.2-0.5c0.2-0.2,0.3-0.5,0.2-0.8c-0.2-0.2-0.5-0.2-0.8-0.2c-0.3,0-0.6,0.1-0.7,0.3
		c0.2,0.3,0.6,0.2,0.9,0.3c-0.1,0.4-0.3,0.6-0.7,0.7c-0.7,0.2-1.5,0-2.2-0.2c0-0.2,0.1-0.3,0.1-0.4c0.1-0.5,0.2-1,0.3-1.5
		c0-0.2,0.1-0.3,0-0.5C10.3,5.6,10,5.7,9.9,6.1C9.7,6.5,9.6,7,9.4,7.5c0,0.1-0.1,0.3-0.1,0.4C9,7.8,8.9,7.8,8.7,7.7
		C7.8,7.5,7,7.6,6.2,7.9C5.9,8.1,5.6,8.3,5.4,8.6C5.2,9,5.2,9.4,5.7,9.6c0.5,0.3,1,0.3,1.5,0.1c0.1,0,0.1-0.1,0.2-0.2
		c-0.2,0-0.4,0-0.5,0c-0.1,0-0.3,0-0.4,0C6.1,9.3,6,9,6.1,8.6C6.3,8.3,6.7,8.1,7,8c0.7-0.2,1.4-0.1,2.2,0.2C9.1,8.4,9.1,8.6,9,8.7
		c-0.4,1.5-0.8,3.1-1,4.7c0,0.5,0,1,0.1,1.5c0.1,0.5,0.6,0.7,1,0.4c0.1-0.1,0.2-0.2,0.3-0.3c0.2-0.2,0.4-0.5,0.5-0.7
		c0.3-0.4,0.5-0.8,0.7-1.1l0.2-0.2c0,0.1,0,0.2,0,0.3c0.1,0.3,0.2,0.4,0.5,0.4c0.3,0,0.5,0,0.7-0.2c0.1-0.1,0.2-0.2,0.4-0.4
		c0.1,0.2,0.1,0.3,0.2,0.5c0.3,0.2,0.5,0.1,0.8,0c0.1-0.1,0.3-0.2,0.4-0.4c0.3-0.4,0.5-0.7,0.8-1.1c0.1-0.1,0.1-0.1,0.2-0.3
		c0,0.1,0,0.2,0,0.2c-0.1,1.2-0.1,2.5-0.2,3.7c0,0.2,0,0.3,0,0.5c0.3,0.2,0.5,0.2,0.8,0c0.2-0.8,0.1-1.7,0.2-2.6
		c0.1,0.1,0.2,0.2,0.3,0.3c0.4,0.4,0.9,0.4,1.5,0.2c0.2-0.1,0.3-0.2,0.5-0.3c0.1-0.1,0.2-0.1,0.3-0.2l0.1,0c0.5,0.2,1,0.1,1.5-0.2
		c0.3-0.2,0.7-0.5,1-0.7c0.2-0.2,0.3-0.4,0.5-0.6l0-0.1L21.1,12z M19.5,10.3l0.1,0.2c0,0.1,0,0.2,0,0.3c-0.1,0.6-0.4,1.2-0.8,1.7
		C18.8,11.6,19.1,10.6,19.5,10.3z M15.8,9.4c0.1-1,0.2-2,0.5-2.9c0.1-0.3,0.2-0.6,0.4-0.9c0.1-0.1,0.1-0.3,0.3-0.3
		c0.1,0.2,0.2,0.4,0.2,0.7c0,0.6-0.1,1.2-0.2,1.8c-0.2,0.9-0.6,1.8-1.1,2.6c0,0-0.1,0.1-0.2,0.2C15.8,10,15.8,9.7,15.8,9.4z
		 M12.6,11.2c0,0.3-0.1,0.6-0.1,0.9c0,0.3-0.1,0.6-0.3,0.8c-0.1,0.2-0.3,0.4-0.5,0.5c0.2-0.8,0.4-1.6,0.9-2.3
		C12.6,11.1,12.6,11.1,12.6,11.2z M15.7,12.3c0.1-0.5,1-1.6,1.6-1.9C17,11.2,16.4,11.8,15.7,12.3z"/>
	<path class="st0" d="M25.1,12.9c0-0.2,0-0.3,0.1-0.4c0.1-0.4,0.2-0.8,0.3-1.3c0.1-0.3,0.1-0.6,0.1-0.9l-0.1-0.1c-0.1,0-0.2,0-0.3,0
		c-0.1,0.1-0.2,0.3-0.2,0.4c-0.3,0.1-0.5,0.2-0.7,0.2c-0.5,0.2-0.9,0.5-1.2,0.9c-0.2,0.2-0.3,0.5-0.3,0.8c0,0.5,0.3,0.7,0.8,0.6
		c0.2-0.1,0.4-0.2,0.6-0.3c0.1,0,0.2-0.1,0.3-0.2c0.1,0.2,0.2,0.3,0.2,0.5c0.6,0.2,0.9,0,1.1-0.5c-0.1,0-0.2,0-0.2,0
		C25.4,12.7,25.4,12.9,25.1,12.9z M24.6,11.9c0,0.1-0.1,0.2-0.2,0.3c-0.2,0.2-0.5,0.5-0.8,0.6l-0.1-0.2c0.1-0.8,0.6-1.4,1.3-1.8
		l0.1,0.1C24.8,11.3,24.7,11.6,24.6,11.9z"/>
	<path class="st0" d="M27.2,26.2c0.3-0.5,0.2-1.2,0.2-1.8h-0.1c0,0.5,0.1,1-0.2,1.5c-0.1,0.2-0.4,0.4-0.6,0.6
		c-0.3,0.3-0.5,0.6-0.7,1c-0.5,1.2-1.4,2.1-2.2,3l0.1,0.1c0.9-0.9,1.9-1.6,2.4-2.8C26.4,27.1,26.9,26.8,27.2,26.2z"/>
	<path class="st0" d="M7.4,23.4c1-0.9,2-1.7,3.1-2.6l-0.1-0.1c-1,0.8-2.2,1.6-3.1,2.6L7.4,23.4z"/>
	<path class="st0" d="M8,25.6c0.4-0.4,0.6-0.9,0.9-1.3c0.4-0.6,0.9-1.2,1.3-1.7l-0.1-0.1c-0.9,0.9-1.6,1.9-2.3,3L8,25.6z"/>
	<path class="st0" d="M7.3,22.7L7.3,22.7c-0.9,1.2-1.5,2.4-1.9,3.8l0.1,0.1C5.8,26,6,25.5,6.2,24.9C6.4,24.1,6.9,23.4,7.3,22.7z"/>
	<path class="st0" d="M7.2,23.2c-0.4,0.7-0.8,1.5-1.1,2.2c-0.3,0.7-0.6,1.4-0.5,2.2l0.1,0C6,26.1,6.5,24.6,7.2,23.2L7.2,23.2z"/>
	<path class="st0" d="M7.6,24.1c-0.5,1.4-1.2,2.9-1.3,4.4l0.1,0C6.7,27,7.2,25.5,7.6,24.1L7.6,24.1z"/>
	<path class="st0" d="M7.6,25.1c-0.3,1.2-0.9,2.5-0.9,3.8l0.1,0c0.4-1.2,0.6-2.5,0.9-3.8C7.7,25.1,7.6,25,7.6,25.1z"/>
	<path class="st0" d="M7.8,25.9c-0.2,0.7-0.3,1.5-0.5,2.2c0,0.1,0.1,0.1,0.1,0c0.1-0.7,0.3-1.5,0.5-2.2L7.8,25.9z"/>
	<path class="st0" d="M11.5,24.9c0-0.9,0-1.8,0.1-2.8c0-0.1-0.2-0.1-0.2,0c-0.1,0.9-0.3,1.9-0.1,2.8L11.5,24.9z"/>
	<path class="st0" d="M11.9,22.6c0,0.7-0.2,1.4,0,2.1l0.1,0c-0.1-0.6,0-1.4,0-2C12.1,22.5,11.9,22.5,11.9,22.6z"/>
	<path class="st0" d="M12.4,24.7c0-0.5,0-0.9-0.1-1.4h-0.1C12.2,23.8,12.3,24.3,12.4,24.7L12.4,24.7z"/>
	<path class="st0" d="M11,27.7c0-0.3-0.1-0.6-0.2-0.8c-0.1-0.4-0.2-0.8-0.3-1.2l-0.1,0c0.1,0.6,0.4,1.3,0.4,1.9H11z"/>
	<path class="st0" d="M5.1,27.8c-0.1,0.5-0.1,1.1-0.3,1.5l0.1,0c0.2-0.4,0.3-1.1,0.4-1.5C5.2,27.7,5.1,27.7,5.1,27.8z"/>
	<path class="st0" d="M4.9,26.8c-0.2,0.8-0.5,1.7-0.7,2.5l0.1,0c0.3-0.8,0.5-1.7,0.7-2.5C5.1,26.8,4.9,26.7,4.9,26.8z"/>
	<path class="st0" d="M4.3,27.1C4.2,27.4,4.1,27.7,4,28c-0.1,0.3-0.2,0.6-0.3,0.9L3.8,29c0.3-0.6,0.5-1.3,0.7-1.9
		C4.5,27.1,4.4,27,4.3,27.1z"/>
	<path class="st0" d="M3.1,28C3,28.5,2.8,29,2.7,29.6c0,0.1,0.1,0.1,0.2,0C3,29.1,3.2,28.6,3.3,28C3.4,27.9,3.1,27.8,3.1,28z"/>
	<path class="st0" d="M47.5,29.3c-0.5-0.5-1.2-0.9-1.6-1.5c-0.4-0.6-0.3-1.3-0.7-1.9c-0.7-1-1.8-1.7-2.6-2.5
		c-0.6-0.6-0.4-1.2-0.8-1.9c-0.2-0.4-0.5-0.6-0.9-0.9c-0.6-0.4-1.2-0.7-1.7-1.3c-0.3-0.3-0.6-0.6-0.7-1c-0.1-0.3-0.1-0.4-0.2-0.6
		c-0.1-0.1-0.1-0.1-0.2-0.1c-0.3,0.1-0.5,0.3-0.7,0.5c-0.4,0.4-0.9,0.5-1.4,0.7c-0.9,0.4-1.4,1-1.8,1.8c-0.7,1.1-1.5,1.5-2.7,2
		c-0.6,0.2-1.2,0.6-1.5,1.1c-0.1-0.1-0.2-0.2-0.3-0.3c-0.5-0.5-0.4-0.9-0.5-1.5c-0.1-0.7-0.7-1.3-1.3-1.6c-0.3-0.1-1-0.1-1.2-0.3
		c-0.2-0.2-0.3-1.1-0.4-1.5c-0.1-0.4-0.3-0.7-0.5-1.1c-0.3-0.6-0.4-1.1-0.5-1.7c0-0.1-0.2-0.2-0.3-0.2c-0.9,0.1-1.5,0.9-2.2,1.4
		c-0.9,0.5-1.4,1.1-1.9,2c-0.6,1-1.5,1.6-2.3,2.4c-0.4,0.4-0.8,0.7-1.2,1.1c-0.1,0.1-0.2,0.1-0.3,0.2c-0.3-0.4-0.6-0.7-1-1
		c-0.4-0.4-0.6-1-1-1.5c-0.3-0.4-0.7-0.6-1.1-0.9c-0.7-0.4-1-1-1.4-1.7c-0.2-0.3-0.6-0.2-0.7,0.1c-0.1,0.4-0.7,0.7-1,1
		c-0.5,0.4-0.9,0.8-1.2,1.3c-0.4,0.6-0.8,1-1.4,1.4c-0.5,0.3-1,0.5-1.4,1c-0.4,0.5-0.6,1.2-1.1,1.7c-0.4,0.4-0.9,0.6-1.2,1
		c-0.3,0.5-0.4,1-0.7,1.5c-0.3,0.6-0.8,1-1.1,1.5c-0.1,0.1,0.1,0.3,0.2,0.2c0.4-0.5,0.9-0.9,1.3-1.4c0.3-0.4,0.4-0.9,0.6-1.3
		C5,25,5.6,24.7,5.9,24.2L6,24.1c-0.3,0.6-0.7,1.3-0.9,1.9l0.1,0C5.8,25,6.4,23.8,7,22.7c0.5-0.4,1-0.8,1.6-1.3l0.1,0
		c0.2-0.1,0.3-0.2,0.4-0.3c0.2-0.2,0.4-0.3,0.7-0.5c-0.1,0.1-0.2,0.2-0.2,0.3l0.1,0.1c0.3-0.2,0.5-0.5,0.8-0.8l0.1-0.1l0-0.1
		c0.3-0.4,0.5-0.8,0.8-1.2c0.1-0.1,0.2-0.2,0.4-0.3l0,0.1c-0.3,0.4-0.5,0.7-0.8,1.1c-0.2,0.3-0.5,0.6-0.6,0.9l0,0
		c-0.5,0.3-1,0.6-1.5,1c-0.4,0.3-0.8,0.6-1.2,0.9l0.1,0.1c0.7-0.7,1.6-1.3,2.5-1.8L10,20.8l0.1,0.1c0.4-0.8,1-1.5,1.4-2.2
		c0,0.2,0,0.4,0,0.6l0,0c-0.2,0.3-0.5,0.7-0.7,1c-0.1,0.2-0.3,0.5-0.4,0.7c-0.7,0.5-1.3,1-1.9,1.5c-0.3,0.3-0.7,0.6-1,0.9l-0.2,0.2
		l-0.2,0c-0.3,0.7-0.6,1.5-0.8,2.2c-0.2,0.7-0.3,1.3-0.5,2L6,28c0.3-0.5,0.3-1.3,0.5-1.9c0.2-0.7,0.5-1.5,0.8-2.2l0.1,0
		c0.3-0.5,0.9-0.9,1.3-1.3c0.5-0.5,1-0.9,1.6-1.3l0,0l0.1,0.1c0.1-0.1,0.2-0.2,0.2-0.3l0.1-0.1l0-0.1c0.1-0.2,0.2-0.3,0.2-0.4
		c0.2-0.4,0.4-0.7,0.7-1c0,0.1,0,0.2,0,0.3c-0.2,0.4-0.5,0.8-0.8,1.2c-0.1,0.1-0.1,0.2-0.2,0.3l-0.1,0c-1,0.8-2.1,1.8-2.8,2.9
		l0.1,0.1c0.5-0.4,0.9-1,1.3-1.5c0.4-0.4,0.8-0.8,1.2-1.2c-0.1,0.2-0.2,0.3-0.2,0.5C9.3,23,8.5,23.9,7.7,25L7.8,25
		c0.5-0.5,0.8-1,1.3-1.5c0.5-0.5,1-1.1,1.5-1.6l-0.1-0.1l-0.1,0.1c0.2-0.4,0.5-0.7,0.7-1.1c0.2-0.3,0.4-0.6,0.6-0.9
		c0,0.1,0,0.3,0,0.4c-0.3,0.5-0.6,1-0.9,1.4l0.1,0.1c-0.4,0.5-0.7,1-0.8,1.7c-0.7,1-1.5,2-2,3.1l0.1,0.1c0.6-1,1.2-1.9,1.8-2.9
		l0,0.1c0,0.5,0.1,0.9-0.1,1.3c-0.2,0.3-0.4,0.4-0.6,0.7c-0.3,0.3-0.5,0.7-0.7,1.1c-0.3,0.7-0.6,1.2-1.2,1.8
		c-0.4,0.4-0.6,0.9-0.9,1.4c-0.1,0.1,0.1,0.2,0.2,0.1c0.4-0.6,0.7-1.1,1.2-1.7c0.4-0.4,0.6-0.8,0.8-1.3c0.3-0.7,0.7-1.2,1.2-1.8
		c0.2-0.2,0.3-0.5,0.4-0.8l0,0.2l0.1,0c0-0.9,0.1-1.9,0.4-2.7c0.1-0.1,0.2-0.2,0.3-0.3c-0.2,0.9-0.4,1.9-0.4,2.9
		c0,0.1,0.1,0.1,0.2,0c0.1-1,0.2-2,0.4-3l0-0.1c0.2-0.2,0.4-0.5,0.6-0.7c0.2-0.4,0.2-0.6,0.1-1c-0.1-0.6-0.1-1.1-0.1-1.7
		c0.2,0.4,0.5,0.7,0.8,1c0.6,0.5,1.4,0.6,1.8,1.2c0.6,0.8,1.2,1.9,2.2,2.2c-0.3,0.2-0.6,0.4-0.9,0.6C15,24,15,25.2,14,25.8
		c-0.5,0.3-1.2,0.4-1.7,0.8c0-0.2,0-0.4-0.1-0.7c0-0.1-0.2-0.1-0.2,0c0,0.3,0.1,0.5,0.1,0.8c-0.1,0.1-0.2,0.2-0.3,0.3l0,0
		c-0.1-0.4-0.2-0.9-0.3-1.3l-0.1,0c0.1,0.5,0.2,0.9,0.3,1.4c-0.1,0.1-0.2,0.3-0.2,0.5c-0.1-0.6-0.2-1.1-0.4-1.7l-0.1,0
		c0.2,0.6,0.2,1.3,0.4,1.9l0,0l0,0.1c-0.1,0.4-0.2,0.7-0.5,1c-0.2,0.2-0.4,0.4-0.7,0.6c-0.9,0.7-1.6,1.3-2.3,2.2
		c-0.1,0.2,0.1,0.4,0.2,0.2c0.7-0.8,1.5-1.4,2.4-2.1c0.4-0.3,0.7-0.6,1.1-0.9c0.3-0.3,0.4-0.6,0.5-1l0.1-0.2l0.1,0l0-0.1
		c0.5-0.7,1.3-0.9,2-1.3c0.7-0.5,1.1-1.1,1.3-1.9c0.1-0.4,0.2-0.9,0.6-1.2c0.2-0.1,0.5-0.2,0.7-0.4c-0.8,0.9-1.3,2-1.8,3.1
		c0,0.1,0.1,0.1,0.1,0c0.5-1.4,1.3-2.5,2.2-3.5c0.2-0.2,0.4-0.3,0.6-0.5c0.4-0.3,0.7-0.7,1.1-1c0.3-0.2,0.6-0.4,0.9-0.6
		c-0.4,0.5-0.8,1-1.2,1.5l-0.1-0.1c-0.5,0.1-1,0.9-1.3,1.2c-0.7,0.9-1.2,1.8-1.7,2.7l0.1,0c0.4-0.7,0.9-1.4,1.4-2
		c0.3-0.4,0.6-0.7,0.9-1.1c0.2-0.2,0.5-0.6,0.7-0.8c-0.2,0.3-0.3,0.5-0.5,0.8l0.1,0.1c0.7-1.1,1.4-2.1,2.2-3.1
		c0.2-0.2,0.3-0.4,0.5-0.6c0.1-0.1,0.2-0.2,0.3-0.3l0,0l0.1,0c0.6-0.5,1.1-1,1.7-1.6c0.1-0.1,0.3-0.2,0.4-0.3l0.2-0.1
		c-0.2,0.2-0.5,0.5-0.7,0.7c-0.5,0.5-1,1-1.4,1.6c-0.8,1-1.5,2.2-1.8,3.4l-0.1,0c-0.2,0-0.4,0.1-0.5,0.3c0.3-0.6,0.6-1.2,0.9-1.8
		c0.3-0.6,0.8-1.2,1.2-1.8l-0.1-0.1c-0.9,1.2-1.6,2.4-2.1,3.8l0.1,0.1c-0.3,0.3-0.6,0.7-0.8,0.9c-0.5,0.6-0.9,1.3-1.4,2.1l0.1,0.1
		c0.4-0.7,0.8-1.3,1.3-1.9c0.4-0.5,0.9-1.1,1.4-1.4c0,0.2-0.1,0.4-0.1,0.5l0,0.1c-0.3,0.3-0.5,0.6-0.7,0.8c-0.5,0.7-1,1.4-1.5,2
		l0.1,0c0.4-0.5,0.8-1.1,1.3-1.6c0.4-0.4,0.8-1,1.3-1.4c-0.1,0.2-0.1,0.4-0.1,0.6c-0.9,0.8-1.6,1.8-2.2,2.8l0.1,0
		c0.5-0.7,1-1.3,1.5-1.9c0.4-0.4,0.8-0.8,1.2-1.2c0,0.2-0.1,0.3-0.1,0.5c-0.8,0.5-1.5,1.5-2,2.3l0.1,0.1c0.4-0.5,0.8-1.1,1.3-1.6
		c0.2-0.2,0.4-0.4,0.6-0.5c0,0.1,0,0.2,0,0.3l0.1,0c0-0.2,0.1-0.3,0.1-0.5l0.3-0.1c-0.1,0.2-0.1,0.5-0.2,0.7c-0.7,0.7-1.3,1.3-2,2
		l0,0l0,0c-0.5,0.9-1,1.8-1.7,2.6l0.1,0.1c0.8-0.7,1.3-1.6,1.7-2.6l0,0l0,0c0.6-0.6,1.2-1.2,1.8-1.8c0,0.1,0.1,0.2,0.2,0
		c0-0.1,0.1-0.2,0.1-0.3l0,0c0,0.1-0.1,0.2-0.1,0.3l0.1,0.1c-0.4,0.3-0.7,0.6-1,0.9c-0.3,0.4-0.2,0.8-0.2,1.3c0,0.6-0.1,1-0.5,1.5
		c-0.3,0.3-0.6,0.6-0.8,0.9l0.1,0.1c0.4-0.5,1-0.9,1.3-1.4c0.3-0.6,0.1-1.3,0.3-1.9c0.4-1.2,2.4-1.5,2.1-3.1c-0.1-0.4-0.2-0.5-0.2-1
		c0-0.7,0.4-0.8,0.9-1.2c0.4-0.4,1-0.9,1.3-1.4c0.5-0.8,0.4-1.8,0.3-2.7l0,0l0-0.1c0-0.3,0-0.6,0-0.9c0.1,0.3,0.2,0.7,0.3,1
		c0.2,0.5,0.5,1,0.7,1.4c0.2,0.5,0.1,1.7,0.7,2c0.4,0.2,0.9,0.1,1.3,0.4c0.6,0.4,0.7,1,0.9,1.6c0.1,0.8,0.7,1.3,1.5,1.6
		c0.2,0.1,0.4,0.2,0.6,0.2c-0.8,0.5-1.5,1.1-2.4,1.5l0,0.1c0.9-0.3,1.6-1,2.4-1.6c0.2,0.1,0.4,0.2,0.5,0.3l0,0l0,0.1
		c-1,0.8-2.3,1.2-3.4,2c-0.1,0.1,0,0.2,0.1,0.1c0.6-0.3,1.2-0.7,1.8-1.1c0.5-0.3,1-0.5,1.5-0.9c0,0.2,0,0.3,0,0.5l-0.1,0
		c-1.2,0.7-2.4,1.3-3.6,2l0.1,0.1c1.2-0.5,2.4-1.2,3.5-2c-0.2,0.6-0.9,1.1-1.4,1.6l-0.1,0c-0.7,0.4-1.3,0.8-2,1.3
		c-0.5,0.3-1.1,0.6-1.5,1l0.1,0.1c1-0.7,2.1-1.4,3.2-2c-0.1,0.2-0.3,0.4-0.4,0.6c-1,0.8-2.2,1.4-3.3,2.1l0.1,0.1
		c0.6-0.4,1.2-0.8,1.8-1.1c0.4-0.3,0.8-0.5,1.2-0.8c-0.1,0.3-0.2,0.6-0.4,1c0,0.1,0.1,0.2,0.2,0.1c0.2-0.5,0.4-1,0.7-1.4
		c0.4-0.6,1-1,1.5-1.5c0.3-0.4,0.7-1.1,0.5-1.6l0.1,0.2c0.3,0.5,0.1,1,0.4,1.5c0.4,0.8,1.4,0.8,1.9,1.5c0.2,0.3,0.4,0.6,0.7,0.9
		c0.3,0.3,0.8,0.4,1.2,0.6c0.9,0.5,1.7,1.2,2.6,1.9c0.2,0.2,0.5-0.2,0.3-0.4c-0.7-0.7-1.4-1.2-2.2-1.8c-0.4-0.3-0.9-0.4-1.3-0.7
		c-0.1-0.1-0.2-0.2-0.4-0.3c0.2-0.4,0.3-0.9,0.5-1.4l-0.1,0l0,0.1c0.1-0.4,0.2-0.9,0.5-1.3c0.2-0.3,0.5-0.6,0.7-0.8
		c0.6-0.8,0.1-1.5,0.2-2.4c0.1-0.8,0.7-1.1,1.2-1.6c-0.1,0.2-0.3,0.5-0.4,0.7c-0.2,0.3-0.3,0.7-0.4,1l0.1,0c0.2-0.3,0.3-0.7,0.5-1
		c0.2-0.4,0.5-0.8,0.7-1.3L38,20.5c0.3-0.8,0.1-1.5,0-2.2l0,0c0.2-0.1,0.1,0,0.3,0.2c0.3,0.4,0.6,0.8,0.9,1.2c0.3,0.3,0.7,0.6,1,0.9
		c0.7,0.5,1.3,0.8,1.4,1.7c0.1,1.1,0.5,1.5,1.3,2.2c0.4,0.4,0.8,0.9,1.2,1.3c0.2,0.2,0.5,0.4,0.6,0.7c0.2,0.4,0.2,0.7,0.4,1.1
		c0.3,0.9,1.3,1.6,2,2.2C47.4,29.9,47.7,29.5,47.5,29.3z M10,20.1c-0.2,0.1-0.3,0.2-0.5,0.4l0.1-0.1c0.4-0.5,0.8-0.9,1.2-1.3
		C10.6,19.4,10.3,19.8,10,20.1z M10.4,23.4c-0.1,0.3-0.1,0.6-0.2,0.9l0-0.2c-0.1-0.6,0-1,0.4-1.5C10.5,22.9,10.4,23.1,10.4,23.4z
		 M21.6,18.7c0.2-0.3,0.4-0.5,0.7-0.7c0.1-0.1,0.2-0.1,0.3-0.2C22.2,18.1,21.9,18.4,21.6,18.7z M21.5,25c-0.1,0.1-0.2,0.2-0.4,0.3
		l0,0c0.3-0.7,0.4-1.3,0.6-2l0,0C22,23.9,22,24.5,21.5,25z M21.2,24.7c0.2-0.6,0.3-1.1,0.5-1.7l0.1,0.1l-0.1,0
		C21.5,23.7,21.4,24.2,21.2,24.7L21.2,24.7z M23.7,20.1c-0.5,0.5-1,0.9-1.4,1.3c-0.1,0.1-0.2,0.2-0.3,0.3l-0.1,0l-0.1,0.3
		c-0.1,0.2-0.2,0.4-0.2,0.5c-0.1,0.5-0.3,0.9-0.4,1.4l0,0l-0.2,0.1c0.2-0.8,0.5-1.6,0.8-2.4l0.1,0c0.9-0.8,1.7-1.7,2.4-2.7
		C24.2,19.4,24,19.8,23.7,20.1z M24.3,18.8c-0.8,1-1.7,1.9-2.5,2.7c0-0.1,0.1-0.2,0.1-0.4c0.9-0.8,1.7-1.9,2.4-2.9
		C24.4,18.5,24.3,18.7,24.3,18.8z M24.4,18.1c-0.8,0.9-1.5,1.8-2.3,2.7c0.1-0.2,0.1-0.3,0.2-0.5l0-0.1c0.8-0.8,1.5-1.7,2.2-2.6
		C24.4,17.8,24.4,18,24.4,18.1z M24.4,17.6c-0.8,1-1.7,1.9-2.5,2.9l0.1,0.1l0.1-0.1c-0.3,0.8-0.7,1.5-1,2.3
		c-0.1,0.2-0.2,0.5-0.3,0.7c-0.2,0.1-0.3,0.2-0.5,0.4c0.5-1.5,1.1-2.9,1.9-4.2l0,0c0.3-0.3,0.6-0.7,0.8-1.1c0.4-0.5,0.9-1.1,1.3-1.6
		C24.4,17.1,24.4,17.3,24.4,17.6z M24.4,16.8c-0.5,0.5-1,1.1-1.5,1.6c-0.4,0.5-0.8,0.9-1.1,1.4l0.1,0.1l0.1-0.1
		c-0.6,1-1.3,2.2-1.7,3.4c-0.1,0-0.3,0.1-0.4,0.2c0.4-1.4,1-2.8,1.9-4c0.4-0.5,0.9-1,1.3-1.4c0.2-0.2,0.4-0.5,0.6-0.7
		c0.1-0.2,0.4-0.6,0.6-0.7l0-0.1l0,0c0.1-0.1,0.2-0.2,0.3-0.2C24.5,16.5,24.5,16.6,24.4,16.8z M30.4,24l-0.2-0.1
		c0.4-0.2,0.8-0.4,1.2-0.6C31,23.5,30.7,23.7,30.4,24z M31,24.2c-0.1-0.1-0.2-0.1-0.4-0.2l0,0c0.4-0.2,0.9-0.5,1.3-0.8
		c0.2-0.1,0.3-0.2,0.5-0.3c0.2-0.1,0.4-0.1,0.5-0.2c0.5-0.2,0.8-0.5,1.1-0.8l0.1,0.1c0.4-0.5,0.8-1.1,1.2-1.7
		c0.2-0.2,0.4-0.4,0.6-0.6c0.1-0.1,0.2-0.2,0.4-0.2l0,0c-0.3,0.3-0.5,0.6-0.8,0.9c-0.3,0.4-0.8,0.9-1,1.5c-1.2,0.7-2.3,1.5-3.3,2.4
		l0.1,0.1c1-0.8,2-1.7,3.1-2.4l0,0.1c-0.5,0.4-1,0.8-1.4,1.3c-0.4,0.3-0.7,0.7-1.1,1c-0.2,0.1-0.3,0.3-0.4,0.5
		C31.5,24.5,31.3,24.4,31,24.2z M33.3,27.3l-0.1-0.1L33,27.2c0.5-0.5,0.9-1.2,1.4-1.8c0.5-0.6,1-1.2,1.6-1.8l0,0.2l0,0
		C35,24.9,34.3,26.2,33.3,27.3L33.3,27.3z M35.6,25.5c-0.3,0.4-0.5,0.8-0.6,1.2c-0.2,0.3-0.4,0.7-0.6,1.1l0.1,0.1
		c0.1-0.2,0.2-0.3,0.3-0.5l0,0.2c0,0.2,0.2,0.2,0.2,0.1c-0.1,0.3-0.2,0.5-0.3,0.8c-0.2-0.2-0.4-0.5-0.6-0.7l-0.1-0.1
		c0.6-1,1.3-1.9,2-2.8l-0.1-0.1c-0.5,0.6-1,1.2-1.4,1.9c-0.2,0.3-0.5,0.6-0.7,0.9c-0.1-0.1-0.2-0.1-0.3-0.1c0.6-0.5,0.9-1.2,1.4-1.8
		c0.4-0.5,0.8-1.1,1.2-1.6C36.2,24.6,35.9,25,35.6,25.5z M37,21.1c-0.1,0.1-0.2,0.2-0.4,0.3c0.1-0.1,0.1-0.2,0.2-0.3
		c0.3-0.5,0.6-1,0.9-1.5c0.1-0.1-0.1-0.2-0.2-0.1c-0.6,0.9-1,1.8-1.5,2.8l0,0c-0.7,0.6-1.3,1.2-1.9,1.9c-0.6,0.7-1.4,1.3-1.7,2.1
		l0.1,0.1c0.6-0.8,1.2-1.5,1.8-2.3c0.5-0.6,1-1.3,1.6-1.8l0,0c0,0.1-0.1,0.3-0.1,0.4l0,0.1l0,0c-0.5,0.6-1.1,1.2-1.6,1.8
		c-0.4,0.5-0.8,1.2-1.3,1.6l0.1,0.1c0.5-0.3,0.9-1.1,1.3-1.5c0.5-0.6,1-1.2,1.6-1.8c0,0.1,0,0.2,0.1,0.4c-1.1,1.1-2.2,2.3-3.1,3.7
		l0,0c-0.3-0.1-0.6-0.2-0.8-0.7c-0.1-0.2,0-0.5-0.1-0.7l0-0.2c0.6-0.6,1.1-1.2,1.6-1.8c0.6-0.6,1.2-1.3,1.9-1.9l-0.1-0.1
		c-0.7,0.6-1.4,1.3-2,1.9c-0.5,0.5-1.1,1-1.4,1.7c-0.1-0.2-0.1-0.3-0.2-0.5c0.4-0.7,1.2-1.1,1.7-1.7c0.4-0.4,0.7-0.7,1.1-1.1l0.1,0
		l0.1-0.1c0.1-0.1,0.2-0.2,0.3-0.3l0,0l-0.2,0.2c0.2-0.4,0.5-0.8,0.8-1.1c0.3-0.5,0.7-0.9,1.1-1.3c0.3-0.1,0.6-0.3,0.9-0.5
		c0.1-0.1,0.2-0.2,0.3-0.3C37.8,19.4,37.8,20.3,37,21.1z"/>
	<path class="st0" d="M19.2,22.6l0-0.1c-0.4,0-0.9,0.8-1.1,1.1c-0.6,0.8-1.1,1.6-1.6,2.4l0.1,0C17.3,24.8,18.1,23.4,19.2,22.6z"/>
	<path class="st0" d="M24.1,21.4c-0.3,0.9-0.7,1.7-0.7,2.6h0.1C23.5,23.1,23.8,22.3,24.1,21.4L24.1,21.4z"/>
	<path class="st0" d="M24.2,24.2c0-0.9,0.3-1.8,0.6-2.6l-0.1,0c-0.3,0.8-0.8,1.8-0.6,2.7L24.2,24.2z"/>
	<path class="st0" d="M25.3,21.7c-0.1,0.5-0.3,1-0.4,1.5c-0.1,0.3-0.1,0.6,0,0.9l0.1,0c-0.1-0.8,0.2-1.6,0.4-2.4L25.3,21.7z"/>
	<path class="st0" d="M25.7,23.9c0.1-0.3,0.2-0.6,0.2-0.9c0.1-0.3,0.1-0.6,0.2-1c0-0.1-0.1-0.1-0.1,0c-0.1,0.3-0.1,0.7-0.2,1
		c-0.1,0.3-0.2,0.6-0.2,0.9L25.7,23.9z"/>
	<path class="st0" d="M26.3,24.4c0.1-0.4,0.1-0.8,0.2-1.3l-0.1,0C26.3,23.5,26.2,23.9,26.3,24.4L26.3,24.4z"/>
	<path class="st0" d="M18,29.8c0.8-0.7,1.2-1.7,1.6-2.7l-0.1,0c-0.2,0.5-0.4,1-0.7,1.4C18.6,28.9,18.2,29.3,18,29.8L18,29.8z"/>
	<path class="st0" d="M16.1,29.9c0.4-0.3,0.7-0.7,1-1.1c0.5-0.6,0.9-1.2,1.4-1.8L18.4,27c-0.4,0.5-0.8,1.1-1.2,1.6
		c-0.3,0.4-0.6,0.9-1.1,1.2L16.1,29.9z"/>
	<path class="st0" d="M17.9,26.7c-0.5,0.6-0.9,1.2-1.4,1.8c-0.4,0.5-0.9,1-1.4,1.6l0.1,0.1c1.1-0.9,1.9-2.2,2.8-3.3L17.9,26.7z"/>
	<path class="st0" d="M16.9,26.8c-0.8,0.9-1.5,1.9-2.3,2.8l0.1,0.1c0.9-0.8,1.6-1.8,2.3-2.8C17.1,26.8,17,26.7,16.9,26.8z"/>
	<path class="st0" d="M14.2,29.3c1-0.8,1.7-1.8,2.6-2.6l-0.1-0.1c-0.9,0.9-1.8,1.7-2.6,2.7L14.2,29.3z"/>
	<path class="st0" d="M16,26.5c-0.9,0.8-1.6,1.8-2.5,2.6l0.1,0.1C14.5,28.5,15.2,27.4,16,26.5L16,26.5z"/>
	<path class="st0" d="M15.1,26.6c-0.4,0.5-0.8,0.9-1.1,1.4c-0.3,0.4-0.7,0.8-1,1.2l0.1,0.1c0.4-0.3,0.7-0.7,1-1.1
		c0.4-0.5,0.8-1,1.2-1.4L15.1,26.6z"/>
	<path class="st0" d="M14.1,26.8c-0.6,0.5-1.2,1.3-1.6,1.9l0.1,0.1c0.5-0.6,1-1.4,1.6-1.9C14.3,26.9,14.2,26.8,14.1,26.8z"/>
	<path class="st0" d="M23.1,26L23.1,26c-0.8,0.5-1.3,1.2-1.9,1.9l0.1,0.1c0.3-0.4,0.6-0.7,0.9-1.1C22.5,26.6,22.9,26.3,23.1,26z"/>
	<path class="st0" d="M23.7,26.3c0.1-0.1,0-0.2-0.1-0.2c-0.9,0.5-1.5,1.4-2.2,2.2l0.1,0.1C22.2,27.7,22.9,26.9,23.7,26.3z"/>
	<path class="st0" d="M24.5,26.3L24.5,26.3c-0.4,0.1-0.7,0.5-1,0.8c-0.4,0.3-0.7,0.7-1,1l0.1,0c0.3-0.3,0.6-0.6,1-0.9
		C23.8,26.9,24.1,26.5,24.5,26.3z"/>
	<path class="st0" d="M24.4,27.1c-0.5,0.3-1,0.7-1.4,1.1l0.1,0.1c0.4-0.4,0.9-0.8,1.4-1.1L24.4,27.1z"/>
	<path class="st0" d="M37.1,19.3L37,19.1c-0.5,0.4-0.8,0.8-1.2,1.3c-0.3,0.4-0.7,0.9-0.7,1.4l0.1,0c0.1-0.4,0.5-0.9,0.8-1.3
		C36.3,20.1,36.6,19.6,37.1,19.3z"/>
	<path class="st0" d="M37.4,19.2C36.6,20,36,21,35.6,22l0,0.1c-0.6,0.5-1.2,1.1-1.7,1.7c-0.6,0.6-1.3,1.3-1.7,2l0.1,0.1
		c1.3-1.4,2.5-2.9,3.9-4.2l0,0c-0.1,0.1-0.2,0.2-0.3,0.2c0.2-0.3,0.4-0.8,0.6-1.1c0.3-0.5,0.6-1,1-1.5L37.4,19.2z"/>
	<path class="st0" d="M38.2,21.7c0.1-0.3,0.3-0.6,0.3-1h-0.1c0,0.5-0.4,1-0.5,1.4c-0.1,0.2-0.4,0.6-0.2,0.8l0.1,0
		c0-0.1,0.1-0.3,0.1-0.4C38,22.2,38.1,21.9,38.2,21.7z"/>
	<path class="st0" d="M38.6,20.9c-0.1,0.3-0.2,0.7-0.4,1c-0.1,0.3-0.1,0.7-0.2,0.9l0.1,0.1c0.2-0.2,0.2-0.5,0.2-0.8
		c0.1-0.4,0.3-0.8,0.4-1.3C38.8,20.8,38.6,20.8,38.6,20.9z"/>
	<path class="st0" d="M38.8,22.8C39,22.4,39,22,39,21.5h-0.1C38.8,22,38.8,22.4,38.8,22.8L38.8,22.8z"/>
	<path class="st0" d="M37.5,27.2l0.1,0l0,0l0-0.1l0-0.9c0-0.4,0-0.8,0-1.3h-0.1c0,0.5,0,1,0,1.6C37.4,26.7,37.3,27,37.5,27.2z"/>
	<path class="st0" d="M38.1,27c0,0.2,0.3,0.4,0.3,0.1L38.4,27c-0.1,0.1-0.1-0.7-0.1-0.8c0-0.3-0.1-0.7-0.1-1H38
		c0,0.4,0.1,0.7,0.1,1.1C38.1,26.5,38,26.7,38.1,27z"/>
	<path class="st0" d="M38.7,26.2c-0.1-0.4-0.1-0.7-0.2-1.1l-0.1,0c0.2,0.6,0,1.5,0.5,2l0.1-0.1C38.9,26.8,38.8,26.5,38.7,26.2z"/>
	<path class="st0" d="M39.8,26.9l-0.2-0.5c-0.1-0.4-0.3-0.7-0.4-1.1l-0.1,0c0.1,0.3,0.2,0.7,0.3,1c0,0.2,0,0.4,0.1,0.6
		C39.6,27.1,39.8,27.2,39.8,26.9L39.8,26.9z"/>
	<path class="st0" d="M40.6,26.7c-0.2-0.1-0.3-0.3-0.4-0.5c-0.1-0.3-0.2-0.6-0.3-0.9l-0.1,0c0,0.2,0.3,1.8,0.8,1.5V26.7z"/>
	<path class="st0" d="M40.8,26.4L40.8,26.4l0.1-0.1l-0.1-0.3l-0.1-0.2c0-0.2-0.1-0.4-0.1-0.6c0-0.1-0.2-0.1-0.2,0
		c0.1,0.4,0.1,0.8,0.2,1.2L40.8,26.4z"/>
	<path class="st0" d="M41.3,25.3c0.1,0.3,0.2,0.7,0.3,1l0.1,0c0-0.4-0.1-0.7-0.3-1.1C41.4,25.2,41.2,25.2,41.3,25.3z"/>
	<path class="st0" d="M40.3,29.1c0-0.2-0.1-0.3-0.1-0.5c0-0.1-0.2-0.1-0.1,0c0.1,0.2,0.1,0.5,0.1,0.7c0,0.1,0,0.2,0.2,0.2l0-0.1
		L40.3,29.1z"/>
	<path class="st0" d="M40.8,28.4c0,0.2,0.1,0.4,0.1,0.6c0,0.1,0,0.4-0.1,0.5l0.1,0.1c0.3-0.3,0.1-0.9,0-1.2
		C41,28.2,40.8,28.3,40.8,28.4z"/>
	<path class="st0" d="M26.8,28.8c1.4-0.7,2.6-1.6,4-2.4c0.1-0.1,0-0.2-0.1-0.2c-1.3,0.7-2.7,1.5-4,2.4L26.8,28.8z"/>
	<path class="st0" d="M28.5,29.2c-1,0.6-2,1.2-2.9,1.9l0.1,0.1c1-0.6,1.9-1.3,2.9-1.9C28.6,29.3,28.6,29.1,28.5,29.2z"/>
	<path class="st0" d="M28.1,29.8c-0.4,0.3-0.8,0.5-1.2,0.8c-0.4,0.3-0.8,0.7-1.2,1l0.1,0.1c0.4-0.3,0.8-0.6,1.1-0.9
		C27.4,30.6,27.8,30.3,28.1,29.8L28.1,29.8z"/>
	<path class="st0" d="M27.6,31c-0.5,0.5-0.9,0.9-1.4,1.4l0.1,0.1c0.5-0.5,0.9-0.9,1.4-1.4L27.6,31z"/>
	<path class="st0" d="M32.4,27.9l-0.1-0.1c-0.3,0.4-0.7,0.7-1,1l0.1,0.1C31.7,28.6,32.1,28.3,32.4,27.9z"/>
	<path class="st0" d="M32.1,29c0.2-0.3,0.5-0.5,0.7-0.8l-0.1-0.1c-0.2,0.2-0.5,0.5-0.7,0.7c-0.2,0.2-0.4,0.5-0.6,0.7l0.1,0.1
		C31.8,29.5,31.9,29.2,32.1,29z"/>
	<path class="st0" d="M32.3,29.4c0.2-0.2,0.3-0.4,0.5-0.6l-0.1-0.1c-0.2,0.2-0.4,0.4-0.6,0.6c-0.2,0.2-0.4,0.3-0.5,0.5l0.1,0.1
		C31.9,29.8,32.1,29.6,32.3,29.4z"/>
	<path class="st0" d="M32.7,29.4c-0.2,0.5-0.5,0.8-0.9,1.1l0.1,0.1c0.5-0.3,0.8-0.7,1-1.2L32.7,29.4z"/>
	<path class="st0" d="M18.4,29.9c-0.4,0.8-0.9,1.6-1.4,2.3l0.1,0.1C17.8,31.7,18.1,30.7,18.4,29.9L18.4,29.9z"/>
	<path class="st0" d="M17.8,29.9c-0.4,0.7-0.8,1.4-1.2,2l0.1,0.1c0.5-0.6,0.9-1.3,1.3-2C18,29.9,17.8,29.9,17.8,29.9z"/>
	<path class="st0" d="M17.1,30.1c-0.4,0.7-0.8,1.4-1.2,2.1l0.1,0.1c0.5-0.7,0.9-1.4,1.3-2.1L17.1,30.1z"/>
	<path class="st0" d="M16.3,30.5c-0.3,0.5-0.7,1-1,1.5c-0.1,0.1,0.1,0.2,0.2,0.1c0.3-0.5,0.7-1,1-1.5C16.5,30.5,16.4,30.4,16.3,30.5
		z"/>
	<path class="st0" d="M15.6,30c-0.3,0.6-0.7,1.2-1.1,1.8l0.1,0.1c0.5-0.5,0.9-1.1,1.2-1.8C15.8,30,15.7,29.9,15.6,30z"/>
	<path class="st0" d="M14.7,29.9c-0.3,0.5-0.7,1-0.9,1.6l0.1,0.1c0.3-0.5,0.6-1,1-1.6C15,29.9,14.8,29.8,14.7,29.9z"/>
	<path class="st0" d="M14,30c-0.3,0.5-0.5,1-0.9,1.5l0.1,0.1c0.4-0.4,0.6-1,0.9-1.4C14.2,30,14.1,29.9,14,30z"/>
	<path class="st0" d="M12.9,30.1c-0.2,0.4-0.5,0.7-0.7,1.1l0.1,0.1c0.3-0.3,0.6-0.7,0.8-1.1C13.1,30.1,12.9,30,12.9,30.1z"/>
	<path class="st0" d="M11.1,31.2c-0.2,0.5-0.5,0.9-0.8,1.4l0.1,0.1c0.3-0.4,0.6-0.9,0.8-1.3C11.3,31.2,11.2,31.1,11.1,31.2z"/>
	<path class="st0" d="M11.5,31.7c-0.1,0.2-0.2,0.5-0.3,0.7c-0.1,0.2-0.1,0.4-0.2,0.5L11,33c0.1-0.1,0.2-0.3,0.2-0.4
		C11.3,32.3,11.4,32,11.5,31.7L11.5,31.7z"/>
	<path class="st0" d="M11.8,32.5c-0.2,0.4-0.4,0.7-0.5,1l0.1,0C11.6,33.3,11.8,32.9,11.8,32.5L11.8,32.5z"/>
	<path class="st0" d="M13.5,23.6c0-0.4-0.2-0.7-0.3-1.1l-0.1,0c0.1,0.3,0.2,0.7,0.2,1.1C13.3,23.7,13.5,23.7,13.5,23.6z"/>
	<path class="st0" d="M14,23.4l0.2-0.1c-0.1-0.1-0.1-0.3-0.1-0.4c-0.1-0.2-0.1-0.3-0.2-0.5c0-0.1-0.2-0.1-0.2,0.1
		c0.1,0.2,0.1,0.4,0.2,0.6C13.9,23.1,13.9,23.3,14,23.4z"/>
	<path class="st0" d="M35.6,27.6c0,0.2,0,0.4-0.1,0.6c-0.1,0.1-0.1,0.3-0.2,0.4l0.1,0c0.1-0.2,0.2-0.3,0.3-0.5
		c0.1-0.2,0.1-0.4,0.1-0.5C35.8,27.5,35.6,27.5,35.6,27.6z"/>
	<path class="st0" d="M36,28.3c0,0.2,0,0.4-0.2,0.6c-0.1,0.1,0.1,0.2,0.1,0.1c0.2-0.2,0.2-0.4,0.2-0.7C36.2,28.2,36,28.2,36,28.3z"
		/>
</g>
</svg>
