<svg id="Calque_1" data-name="Calque 1" xmlns="http://www.w3.org/2000/svg" xmlns:xlink="http://www.w3.org/1999/xlink" viewBox="0 0 302 181"><defs><style>.cls-1{fill:none;}.cls-2{clip-path:url(#clip-path);}.cls-3{fill:url(#Dégradé_sans_nom_74);}.cls-4{fill:#ddeaf8;}.cls-5{fill:#fbf4c3;}.cls-6{fill:#e2e7f6;opacity:0.93;}.cls-25,.cls-7{fill:#eaeef9;}.cls-7{opacity:0.69;}.cls-8{fill:#7b93b4;}.cls-9{fill:#ebedf8;}.cls-10{fill:#8d8ca5;}.cls-11{fill:#585b71;}.cls-12{fill:#a49879;}.cls-13{fill:#b5a986;}.cls-14{fill:#55504e;}.cls-15{fill:#676361;}.cls-16{fill:#76716f;}.cls-17{fill:#998d6e;}.cls-18{fill:#3f3b3a;}.cls-19{fill:#4d4948;}.cls-20{fill:#1d1f27;}.cls-21{fill:#303240;}.cls-22{fill:#ecd67f;}.cls-23{fill:#d3b86a;}.cls-24{fill:#47485e;}.cls-26{fill:#bcd2e7;}.cls-27,.cls-31,.cls-32,.cls-35,.cls-36{fill:#473943;}.cls-27{opacity:0.16;}.cls-28{fill:#f7c1a6;opacity:0.9;}.cls-29{fill:#c98a43;}.cls-30,.cls-39{fill:#e3a250;}.cls-31{opacity:0.64;}.cls-32{opacity:0.34;}.cls-33{fill:#c59e6b;}.cls-34{fill:#996847;}.cls-36{opacity:0.22;}.cls-37{fill:#444857;}.cls-38{fill:#f2b97a;}.cls-39,.cls-40{fill-rule:evenodd;}.cls-40,.cls-41,.cls-42{fill:#fff;}.cls-41{stroke:#fff;stroke-miterlimit:10;stroke-width:0.51px;}</style><clipPath id="clip-path"><rect class="cls-1" x="-0.76" width="302.76" height="181"/></clipPath><linearGradient id="Dégradé_sans_nom_74" x1="150.62" y1="151.96" x2="150.62" y2="-20.34" gradientUnits="userSpaceOnUse"><stop offset="0" stop-color="#d5c0a6"/><stop offset="0.31" stop-color="#cac5ba"/><stop offset="0.94" stop-color="#add3ed"/><stop offset="1" stop-color="#aad4f3"/></linearGradient></defs><title>Plan de travail 1</title><g class="cls-2"><rect class="cls-3" x="-0.76" width="302.76" height="181"/><rect class="cls-4" x="0.02" y="143.46" width="301.98" height="37.54"/><circle class="cls-5" cx="123.66" cy="40.03" r="8.8" transform="translate(56.02 151.03) rotate(-76.58)"/><path class="cls-6" d="M157.66,32.34h33.57c.1,0,.1-.22,0-.24-4.5-.53-15-1.85-15.79-2.6-1-1-1.26-6.52-6.38-6.47-4.82,0-5.41,2.13-5.56,4.68s-1.19-.76-4.27-.69C157.73,27.06,156.31,29,157.66,32.34Z"/><path class="cls-7" d="M217.46,58.22h-43.1c-.12,0-.13-.28,0-.3,5.78-.68,19.31-2.35,20.27-3.3,1.3-1.28,1.62-8.28,8.19-8.22,6.19.06,6.95,2.71,7.13,5.94s1.54-1,5.49-.86C217.37,51.52,219.19,54,217.46,58.22Z"/><path class="cls-7" d="M121.78,61.89H78.68c-.12,0-.13-.28,0-.29,5.77-.68,19.31-2.36,20.27-3.31,1.3-1.28,1.62-8.28,8.19-8.22,6.19.06,7,2.71,7.13,5.94s1.54-1,5.49-.86C121.69,55.2,123.51,57.69,121.78,61.89Z"/><polygon class="cls-8" points="150.83 17.02 172.51 43.95 180.69 46.4 180.69 38.51 201.15 66.8 255.01 134.27 230.25 137.02 143.12 136.36 152.26 117.4 142.65 101.08 158.2 82.44 134.06 72.79 154.51 49.94 144.7 30.62 150.83 17.02"/><polygon class="cls-9" points="150.83 16.48 127.72 44.77 126.08 57.28 123.22 41.77 97.66 72.79 95.82 85.3 89.68 77.96 77 95.91 71.27 92.38 45.93 117.4 25.81 138.45 142.65 133.45 152.26 116.86 143.24 101.53 158.2 82.44 151.85 69.8 138.36 73.33 147.97 61.09 162.08 53.47 156.35 39.05 150.42 30.35 153.49 26.54 150.83 16.48"/><polygon class="cls-9" points="180.69 38.51 172.51 43.95 180.69 46.4 180.69 38.51"/><polygon class="cls-8" points="123.22 42.32 127.72 45.31 126.08 57.83 123.22 42.32"/><polygon class="cls-8" points="97.66 72.79 89.68 77.96 95.82 85.3 97.66 72.79"/><polygon class="cls-10" points="134.38 70.21 133.84 86.09 133.29 116.17 134.38 116.17 134.38 70.21"/><polygon class="cls-10" points="133.39 69.54 134.28 73.43 134.28 74.13 133.39 69.54"/><polygon class="cls-10" points="134.96 70.6 134.38 72.43 134.38 72.75 134.96 70.6"/><path class="cls-10" d="M137.67,68.85a34.2,34.2,0,0,1-.9,4.6,38.23,38.23,0,0,1-2.4,4.47c-.19.12,0,.67,0,.67s1.23-2.26,1.61-3a10.79,10.79,0,0,0,1.18-2.85C137.24,72.23,137.67,68.85,137.67,68.85Z"/><polygon class="cls-10" points="136.39 72.1 136.34 74.4 136.19 74.68 136.39 72.1"/><path class="cls-10" d="M137.11,72.53s.59-.77.55-1.08c0,0,.08.37-.42,1.17C137,73,137.11,72.53,137.11,72.53Z"/><path class="cls-10" d="M131.08,71.7l.74,4.65.46,4.6a18.73,18.73,0,0,0,.47,3.78c.35.76,1.48,2.83,1.48,2.92a1.93,1.93,0,0,1-.18.42s-1.45-3-1.65-3.53-.5-5-.5-5Z"/><path class="cls-10" d="M129.61,75.65s1.73,4.1,1.94,4.39.47.44.47.44l0,.46a4.21,4.21,0,0,1-.92-1.27C130.81,79,129.61,75.65,129.61,75.65Z"/><path class="cls-10" d="M129.41,76.42l.8.9.08.23S129.72,76.87,129.41,76.42Z"/><path class="cls-10" d="M132.52,76.26l-.58,1.27V78S132.38,76.83,132.52,76.26Z"/><path class="cls-10" d="M130.33,81.85,132,84l.4.51.19.45A16,16,0,0,1,130.33,81.85Z"/><path class="cls-10" d="M132,88.8l1,3.9s.68,1.46,1,2,0,.43,0,.43a15.48,15.48,0,0,1-1.34-2.68A25.36,25.36,0,0,1,132,88.8Z"/><path class="cls-10" d="M134.38,94.35l.25-.49c.16-.31.35-.75.6-1.32.07-.17-.66,1.94-.85,2.42Z"/><path class="cls-10" d="M132.54,89.05l-.1,1.6.21.8S132.55,89.3,132.54,89.05Z"/><path class="cls-10" d="M136.4,80l-1,3.9s-.68,1.46-1,2,0,.43,0,.43a15.07,15.07,0,0,0,1.34-2.68A24.79,24.79,0,0,0,136.4,80Z"/><path class="cls-10" d="M135.84,80.27l.1,1.61-.21.8S135.83,80.53,135.84,80.27Z"/><path class="cls-10" d="M130.33,87.71a23.27,23.27,0,0,0,0,5.11,14.54,14.54,0,0,0,1.14,3.08,8.85,8.85,0,0,1,.71,1c.08.2.27,2,.27,2l-.47-.52s0-1.43-.19-1.58a9.79,9.79,0,0,1-1.45-2.92A15.38,15.38,0,0,1,130.33,87.71Z"/><path class="cls-10" d="M129,91.75s1,2.24,1.13,2.47a8.21,8.21,0,0,0,.67.79l.2.41a3.53,3.53,0,0,1-1.27-1.5C129.41,93.07,129,91.75,129,91.75Z"/><path class="cls-10" d="M129,94.74s3.58,4.19,3.7,4.38.4,1.39.64,1.86a1.13,1.13,0,0,0,.31.41v.68a3.69,3.69,0,0,1-.73-1.09,12.11,12.11,0,0,0-.66-1.79c-.2-.34-3.14-4.19-3.21-4.31Z"/><path class="cls-10" d="M128.8,95.54A4.28,4.28,0,0,0,130.56,97a.55.55,0,0,1,.32.36S128.91,96.36,128.8,95.54Z"/><path class="cls-10" d="M139,96.59a23.72,23.72,0,0,1-.63,5.08,15.12,15.12,0,0,1-1.51,3,8.43,8.43,0,0,0-.83.92c-.1.19-.52,2-.52,2l.53-.48s.17-1.43.39-1.56a10.54,10.54,0,0,0,1.81-2.8A16,16,0,0,0,139,96.59Z"/><path class="cls-10" d="M139.84,100.72s-1.27,2.16-1.44,2.37a7.87,7.87,0,0,1-.76.74l-.25.39a3.73,3.73,0,0,0,1.45-1.4C139.21,102,139.84,100.72,139.84,100.72Z"/><path class="cls-10" d="M139.47,103.69s-4.09,3.9-4.23,4.08-.57,1.35-.87,1.8a1.26,1.26,0,0,1-.36.39l-.09.67a3.88,3.88,0,0,0,.87-1,13.33,13.33,0,0,1,.88-1.73c.24-.32,3.64-3.93,3.73-4Z"/><path class="cls-10" d="M139.52,104.5a4.62,4.62,0,0,1-1.93,1.27.57.57,0,0,0-.36.33S139.31,105.31,139.52,104.5Z"/><path class="cls-10" d="M129.09,103.61a3.07,3.07,0,0,0,1.09,1.39.37.37,0,0,1,.17.33S129,104.29,129.09,103.61Z"/><path class="cls-10" d="M130.85,107.54a4.09,4.09,0,0,0,1.5,1.83.55.55,0,0,1,.24.44S130.74,108.45,130.85,107.54Z"/><path class="cls-10" d="M136.37,87.81s-1.25,1.63-1.4,2-.57,2.13-.57,2.13l-.13,1.48s.76-3,.85-3.37A19.44,19.44,0,0,1,136.37,87.81Z"/><path class="cls-10" d="M130.56,101.59s.55,4.92.49,4.77-.23-.47-.23-.47A31,31,0,0,1,130.56,101.59Z"/><path class="cls-10" d="M129.29,102.58s2.34,5.18,2.74,5.77,1.8,2.81,1.8,2.81l0,.76s-2.33-4.06-2.65-4.68A32.19,32.19,0,0,1,129.29,102.58Z"/><path class="cls-10" d="M138.37,91a2.87,2.87,0,0,1-.94,1.46.38.38,0,0,0-.14.34S138.55,91.63,138.37,91Z"/><path class="cls-10" d="M137,95a3.85,3.85,0,0,1-1.3,1.91.51.51,0,0,0-.19.45S137.23,95.89,137,95Z"/><path class="cls-10" d="M136.7,89.05s0,4.93,0,4.78.18-.48.18-.48A31.45,31.45,0,0,0,136.7,89.05Z"/><path class="cls-10" d="M138.07,90s-1.8,5.31-2.14,5.92-1.5,2.92-1.5,2.92l.12.76s1.89-4.2,2.14-4.84A31.66,31.66,0,0,0,138.07,90Z"/><polygon class="cls-10" points="91.51 85.86 90.97 101.75 90.43 131.82 91.51 131.82 91.51 85.86"/><polygon class="cls-10" points="90.52 85.19 91.42 89.08 91.42 89.78 90.52 85.19"/><polygon class="cls-10" points="92.1 86.25 91.51 88.08 91.51 88.4 92.1 86.25"/><path class="cls-10" d="M94.8,84.5a34.2,34.2,0,0,1-.9,4.6,36.05,36.05,0,0,1-2.4,4.47c-.19.12,0,.67,0,.67s1.24-2.26,1.61-3a10.79,10.79,0,0,0,1.18-2.85C94.38,87.88,94.8,84.5,94.8,84.5Z"/><polygon class="cls-10" points="93.52 87.75 93.47 90.05 93.33 90.33 93.52 87.75"/><path class="cls-10" d="M94.24,88.18s.59-.77.56-1.08c0,0,.07.37-.43,1.17C94.16,88.6,94.24,88.18,94.24,88.18Z"/><path class="cls-10" d="M88.22,87.35,89,92l.47,4.59a18.57,18.57,0,0,0,.46,3.78c.35.76,1.48,2.83,1.48,2.92a1.93,1.93,0,0,1-.18.42s-1.45-3-1.65-3.53-.5-5-.5-5Z"/><path class="cls-10" d="M86.74,91.31s1.73,4.1,1.94,4.38.47.44.47.44v.46a4.21,4.21,0,0,1-.92-1.27C87.94,94.65,86.74,91.31,86.74,91.31Z"/><path class="cls-10" d="M86.55,92.07l.79.9.09.23S86.86,92.52,86.55,92.07Z"/><path class="cls-10" d="M89.65,91.91l-.58,1.27v.47S89.52,92.48,89.65,91.91Z"/><path class="cls-10" d="M87.46,97.5l1.67,2.18.4.51.19.45A16,16,0,0,1,87.46,97.5Z"/><path class="cls-10" d="M89.11,104.45l1,3.9s.68,1.46,1,2,0,.43,0,.43a14.74,14.74,0,0,1-1.34-2.68A24,24,0,0,1,89.11,104.45Z"/><path class="cls-10" d="M91.51,110l.26-.49c.16-.31.35-.75.59-1.32.08-.17-.65,1.94-.85,2.42Z"/><path class="cls-10" d="M89.67,104.7l-.09,1.6.2.8S89.68,105,89.67,104.7Z"/><path class="cls-10" d="M93.54,95.68l-1,3.9s-.68,1.46-1,2,0,.43,0,.43a15.07,15.07,0,0,0,1.34-2.68A23.92,23.92,0,0,0,93.54,95.68Z"/><path class="cls-10" d="M93,95.92l.09,1.61-.2.8S93,96.18,93,95.92Z"/><path class="cls-10" d="M87.46,103.36a23.27,23.27,0,0,0,0,5.11,14.54,14.54,0,0,0,1.14,3.08,8.85,8.85,0,0,1,.71,1c.08.2.28,2,.28,2l-.47-.52s0-1.43-.2-1.58a9.79,9.79,0,0,1-1.45-2.92A15.58,15.58,0,0,1,87.46,103.36Z"/><path class="cls-10" d="M86.08,107.4s1,2.24,1.14,2.47a8.5,8.5,0,0,0,.66.79l.2.41a3.47,3.47,0,0,1-1.26-1.5C86.55,108.72,86.08,107.4,86.08,107.4Z"/><path class="cls-10" d="M86.08,110.39s3.59,4.19,3.71,4.38.4,1.39.64,1.86a1.13,1.13,0,0,0,.31.41v.68a3.86,3.86,0,0,1-.74-1.09,12.11,12.11,0,0,0-.66-1.79c-.19-.34-3.13-4.19-3.21-4.31Z"/><path class="cls-10" d="M85.93,111.19a4.37,4.37,0,0,0,1.77,1.41A.55.55,0,0,1,88,113S86,112,85.93,111.19Z"/><path class="cls-10" d="M96.1,112.24a24.15,24.15,0,0,1-.62,5.08,14.9,14.9,0,0,1-1.52,3,8.43,8.43,0,0,0-.83.92c-.1.19-.52,2-.52,2l.53-.48s.18-1.43.39-1.56a10.54,10.54,0,0,0,1.81-2.8A15.84,15.84,0,0,0,96.1,112.24Z"/><path class="cls-10" d="M97,116.37s-1.27,2.16-1.43,2.37a9,9,0,0,1-.77.74l-.25.39a3.73,3.73,0,0,0,1.45-1.4C96.35,117.64,97,116.37,97,116.37Z"/><path class="cls-10" d="M96.6,119.34s-4.09,3.9-4.23,4.08-.57,1.35-.87,1.8a1.26,1.26,0,0,1-.36.39l-.08.67a4.17,4.17,0,0,0,.87-1,11.79,11.79,0,0,1,.88-1.74c.23-.32,3.63-3.93,3.73-4Z"/><path class="cls-10" d="M96.65,120.15a4.62,4.62,0,0,1-1.93,1.27.61.61,0,0,0-.36.33S96.44,121,96.65,120.15Z"/><path class="cls-10" d="M86.22,119.26a3.07,3.07,0,0,0,1.09,1.39.4.4,0,0,1,.18.33S86.12,119.94,86.22,119.26Z"/><path class="cls-10" d="M88,123.19A4,4,0,0,0,89.48,125a.55.55,0,0,1,.24.44S87.87,124.1,88,123.19Z"/><path class="cls-10" d="M93.5,103.47s-1.24,1.62-1.4,2-.56,2.12-.56,2.12L91.4,109s.76-3.06.86-3.38A17.17,17.17,0,0,1,93.5,103.47Z"/><path class="cls-10" d="M87.69,117.24s.55,4.92.49,4.77-.22-.47-.22-.47A30.75,30.75,0,0,1,87.69,117.24Z"/><path class="cls-10" d="M86.42,118.23s2.35,5.18,2.74,5.77S91,126.81,91,126.81l0,.76s-2.33-4.06-2.65-4.68A33.38,33.38,0,0,1,86.42,118.23Z"/><path class="cls-10" d="M95.5,106.61a2.87,2.87,0,0,1-.94,1.46.38.38,0,0,0-.14.34S95.68,107.28,95.5,106.61Z"/><path class="cls-10" d="M94.16,110.65a3.85,3.85,0,0,1-1.3,1.91.51.51,0,0,0-.19.45S94.37,111.54,94.16,110.65Z"/><path class="cls-10" d="M93.83,104.7s0,4.93,0,4.78S94,109,94,109A31.45,31.45,0,0,0,93.83,104.7Z"/><path class="cls-10" d="M95.2,105.6s-1.8,5.31-2.13,5.92-1.51,2.92-1.51,2.92l.12.76s1.9-4.2,2.15-4.84A32.75,32.75,0,0,0,95.2,105.6Z"/><polygon class="cls-11" points="218.12 94.07 217.57 109.96 217.03 140.03 218.12 140.03 218.12 94.07"/><polygon class="cls-11" points="217.13 93.4 218.02 97.3 218.02 98 217.13 93.4"/><polygon class="cls-11" points="218.7 94.47 218.12 96.3 218.12 96.61 218.7 94.47"/><path class="cls-11" d="M221.41,92.71a34.54,34.54,0,0,1-.9,4.61,38,38,0,0,1-2.4,4.46c-.2.12,0,.67,0,.67s1.23-2.25,1.6-3a10.87,10.87,0,0,0,1.19-2.86C221,96.09,221.41,92.71,221.41,92.71Z"/><polygon class="cls-11" points="220.13 95.96 220.08 98.26 219.93 98.55 220.13 95.96"/><path class="cls-11" d="M220.84,96.4s.6-.78.56-1.09c0,0,.07.37-.42,1.17C220.76,96.82,220.84,96.4,220.84,96.4Z"/><path class="cls-11" d="M214.82,95.56l.74,4.66.46,4.59a18.65,18.65,0,0,0,.47,3.78c.35.76,1.47,2.83,1.47,2.92a2.12,2.12,0,0,1-.17.43s-1.46-3-1.65-3.53-.51-5-.51-5Z"/><path class="cls-11" d="M213.34,99.52s1.74,4.1,1.94,4.38.48.44.48.44l0,.47a4.21,4.21,0,0,1-.92-1.27C214.55,102.87,213.34,99.52,213.34,99.52Z"/><path class="cls-11" d="M213.15,100.28l.8.9.08.23S213.46,100.74,213.15,100.28Z"/><path class="cls-11" d="M216.26,100.13l-.58,1.26v.47S216.12,100.69,216.26,100.13Z"/><path class="cls-11" d="M214.06,105.71l1.67,2.18.41.52.19.44A16.45,16.45,0,0,1,214.06,105.71Z"/><path class="cls-11" d="M215.71,112.67l1,3.89s.68,1.46,1,2,0,.43,0,.43a15.07,15.07,0,0,1-1.34-2.68A23.92,23.92,0,0,1,215.71,112.67Z"/><path class="cls-11" d="M218.12,118.21l.25-.49c.16-.31.35-.75.6-1.31.07-.18-.66,1.93-.85,2.42Z"/><path class="cls-11" d="M216.27,112.91l-.09,1.6.2.81S216.28,113.16,216.27,112.91Z"/><path class="cls-11" d="M220.14,103.89l-1,3.9s-.68,1.46-1,2,0,.42,0,.42a14.37,14.37,0,0,0,1.34-2.68A23.71,23.71,0,0,0,220.14,103.89Z"/><path class="cls-11" d="M219.58,104.14l.09,1.6-.2.8S219.57,104.39,219.58,104.14Z"/><path class="cls-11" d="M214.06,111.57a24.24,24.24,0,0,0,0,5.11,13.73,13.73,0,0,0,1.14,3.08,8.85,8.85,0,0,1,.71,1c.07.21.27,2,.27,2l-.47-.52s0-1.43-.19-1.58a9.76,9.76,0,0,1-1.46-2.92A15.78,15.78,0,0,1,214.06,111.57Z"/><path class="cls-11" d="M212.68,115.62s1,2.24,1.14,2.47a9.16,9.16,0,0,0,.67.78l.2.41a3.46,3.46,0,0,1-1.27-1.5C213.15,116.93,212.68,115.62,212.68,115.62Z"/><path class="cls-11" d="M212.68,118.6s3.59,4.19,3.71,4.39.4,1.38.64,1.85a1,1,0,0,0,.31.41v.68a3.86,3.86,0,0,1-.74-1.09,10.84,10.84,0,0,0-.66-1.79c-.19-.33-3.13-4.19-3.21-4.31Z"/><path class="cls-11" d="M212.54,119.4a4.18,4.18,0,0,0,1.76,1.41.58.58,0,0,1,.32.36S212.64,120.22,212.54,119.4Z"/><path class="cls-11" d="M222.7,120.45a22.85,22.85,0,0,1-.62,5.09,14.9,14.9,0,0,1-1.52,3,9.31,9.31,0,0,0-.82.91c-.11.2-.53,2-.53,2l.53-.48s.18-1.42.39-1.56a10.3,10.3,0,0,0,1.81-2.8A15.6,15.6,0,0,0,222.7,120.45Z"/><path class="cls-11" d="M223.58,124.58s-1.27,2.16-1.44,2.38-.76.73-.76.73l-.25.39a3.67,3.67,0,0,0,1.44-1.4C223,125.85,223.58,124.58,223.58,124.58Z"/><path class="cls-11" d="M223.21,127.56s-4.09,3.89-4.24,4.08-.56,1.34-.86,1.8a1.13,1.13,0,0,1-.36.38l-.09.68a4.28,4.28,0,0,0,.87-1,12.16,12.16,0,0,1,.88-1.73c.23-.32,3.64-3.93,3.73-4.05Z"/><path class="cls-11" d="M223.25,128.36a4.52,4.52,0,0,1-1.93,1.27.61.61,0,0,0-.36.33S223,129.17,223.25,128.36Z"/><path class="cls-11" d="M212.83,127.47a2.93,2.93,0,0,0,1.09,1.39.4.4,0,0,1,.17.33S212.72,128.15,212.83,127.47Z"/><path class="cls-11" d="M214.59,131.41a4.11,4.11,0,0,0,1.49,1.82.52.52,0,0,1,.24.44S214.47,132.31,214.59,131.41Z"/><path class="cls-11" d="M220.1,111.68s-1.24,1.62-1.4,2-.56,2.12-.56,2.12l-.13,1.49s.76-3.06.85-3.38A18.48,18.48,0,0,1,220.1,111.68Z"/><path class="cls-11" d="M214.29,125.46s.55,4.91.5,4.77-.23-.48-.23-.48A32.2,32.2,0,0,1,214.29,125.46Z"/><path class="cls-11" d="M213,126.45s2.35,5.17,2.75,5.76,1.8,2.81,1.8,2.81l0,.76s-2.33-4.06-2.64-4.68A33.94,33.94,0,0,1,213,126.45Z"/><path class="cls-11" d="M222.11,114.82a2.91,2.91,0,0,1-1,1.46.39.39,0,0,0-.13.34S222.28,115.49,222.11,114.82Z"/><path class="cls-11" d="M220.76,118.86a3.89,3.89,0,0,1-1.3,1.92.49.49,0,0,0-.19.44S221,119.75,220.76,118.86Z"/><path class="cls-11" d="M220.43,112.91s0,4.94,0,4.79.18-.49.18-.49A30.18,30.18,0,0,0,220.43,112.91Z"/><path class="cls-11" d="M221.8,113.81s-1.79,5.31-2.13,5.93-1.5,2.91-1.5,2.91l.12.76s1.89-4.2,2.14-4.84A31.21,31.21,0,0,0,221.8,113.81Z"/><polygon class="cls-11" points="196 76.96 195.46 92.85 194.92 122.92 196 122.92 196 76.96"/><polygon class="cls-11" points="195.01 76.29 195.91 80.19 195.91 80.89 195.01 76.29"/><polygon class="cls-11" points="196.59 77.36 196 79.19 196 79.5 196.59 77.36"/><path class="cls-11" d="M199.29,75.6a34.54,34.54,0,0,1-.9,4.61,36.6,36.6,0,0,1-2.4,4.46c-.19.12,0,.67,0,.67s1.24-2.25,1.61-3a10.86,10.86,0,0,0,1.18-2.86C198.87,79,199.29,75.6,199.29,75.6Z"/><polygon class="cls-11" points="198.01 78.85 197.96 81.15 197.81 81.44 198.01 78.85"/><path class="cls-11" d="M198.73,79.29s.59-.78.56-1.09c0,0,.07.37-.43,1.17C198.65,79.71,198.73,79.29,198.73,79.29Z"/><path class="cls-11" d="M192.71,78.45l.73,4.66.47,4.59a19.24,19.24,0,0,0,.46,3.78c.35.76,1.48,2.83,1.48,2.92a2.05,2.05,0,0,1-.18.43s-1.45-3-1.64-3.53-.51-5-.51-5Z"/><path class="cls-11" d="M191.23,82.41s1.73,4.1,1.94,4.38.47.44.47.44v.46a4.26,4.26,0,0,1-.92-1.26C192.43,85.76,191.23,82.41,191.23,82.41Z"/><path class="cls-11" d="M191,83.17l.79.9.09.23S191.35,83.63,191,83.17Z"/><path class="cls-11" d="M194.14,83l-.58,1.26v.47S194,83.58,194.14,83Z"/><path class="cls-11" d="M192,88.6l1.67,2.18.41.52.19.44A16,16,0,0,1,192,88.6Z"/><path class="cls-11" d="M193.6,95.56l1,3.89s.68,1.46,1,2,0,.43,0,.43a14.37,14.37,0,0,1-1.34-2.68A23.92,23.92,0,0,1,193.6,95.56Z"/><path class="cls-11" d="M196,101.1l.26-.49c.16-.31.35-.75.59-1.31.08-.18-.65,1.93-.85,2.42Z"/><path class="cls-11" d="M194.16,95.8l-.09,1.6.2.8S194.17,96.05,194.16,95.8Z"/><path class="cls-11" d="M198,86.78l-1,3.9s-.68,1.46-1,2,0,.42,0,.42a15.07,15.07,0,0,0,1.34-2.68A23.71,23.71,0,0,0,198,86.78Z"/><path class="cls-11" d="M197.47,87l.09,1.6-.2.8S197.46,87.28,197.47,87Z"/><path class="cls-11" d="M192,94.46a23.27,23.27,0,0,0,0,5.11,14.29,14.29,0,0,0,1.14,3.08,8.85,8.85,0,0,1,.71,1c.08.21.28,2,.28,2l-.47-.52s0-1.43-.2-1.58a9.79,9.79,0,0,1-1.45-2.92A15.57,15.57,0,0,1,192,94.46Z"/><path class="cls-11" d="M190.57,98.5s1,2.25,1.14,2.47a8.5,8.5,0,0,0,.66.79l.2.41a3.47,3.47,0,0,1-1.26-1.5C191,99.82,190.57,98.5,190.57,98.5Z"/><path class="cls-11" d="M190.57,101.49s3.59,4.19,3.71,4.39.4,1.38.64,1.85a1,1,0,0,0,.31.41v.68a3.86,3.86,0,0,1-.74-1.09,11.82,11.82,0,0,0-.66-1.79c-.19-.33-3.13-4.19-3.21-4.31Z"/><path class="cls-11" d="M190.42,102.29a4.28,4.28,0,0,0,1.77,1.41.55.55,0,0,1,.31.36S190.53,103.11,190.42,102.29Z"/><path class="cls-11" d="M200.59,103.34a24.21,24.21,0,0,1-.62,5.09,15.23,15.23,0,0,1-1.52,3,9.2,9.2,0,0,0-.83.91c-.1.2-.52,2-.52,2l.53-.48s.18-1.42.39-1.56a10.54,10.54,0,0,0,1.81-2.8A15.8,15.8,0,0,0,200.59,103.34Z"/><path class="cls-11" d="M201.46,107.47s-1.27,2.16-1.43,2.37a9,9,0,0,1-.77.74L199,111a3.73,3.73,0,0,0,1.45-1.4C200.84,108.74,201.46,107.47,201.46,107.47Z"/><path class="cls-11" d="M201.09,110.45s-4.09,3.89-4.23,4.08-.57,1.34-.87,1.8a1.13,1.13,0,0,1-.36.38l-.08.68a4.28,4.28,0,0,0,.87-1,11.2,11.2,0,0,1,.88-1.73c.23-.32,3.63-3.93,3.73-4Z"/><path class="cls-11" d="M201.14,111.25a4.62,4.62,0,0,1-1.93,1.27.61.61,0,0,0-.36.33S200.93,112.06,201.14,111.25Z"/><path class="cls-11" d="M190.71,110.36a3,3,0,0,0,1.1,1.39.4.4,0,0,1,.17.33S190.61,111,190.71,110.36Z"/><path class="cls-11" d="M192.48,114.3a4,4,0,0,0,1.49,1.82.55.55,0,0,1,.24.44S192.36,115.2,192.48,114.3Z"/><path class="cls-11" d="M198,94.57s-1.24,1.62-1.4,2-.56,2.12-.56,2.12l-.14,1.49s.76-3.06.86-3.38A17.17,17.17,0,0,1,198,94.57Z"/><path class="cls-11" d="M192.18,108.35s.55,4.91.49,4.77-.22-.48-.22-.48A30.59,30.59,0,0,1,192.18,108.35Z"/><path class="cls-11" d="M190.91,109.34s2.35,5.17,2.74,5.76,1.81,2.81,1.81,2.81l0,.76s-2.33-4.06-2.65-4.68A33.79,33.79,0,0,1,190.91,109.34Z"/><path class="cls-11" d="M200,97.71a2.83,2.83,0,0,1-.94,1.46.38.38,0,0,0-.14.34S200.17,98.38,200,97.71Z"/><path class="cls-11" d="M198.65,101.75a3.85,3.85,0,0,1-1.3,1.91.51.51,0,0,0-.19.45S198.86,102.64,198.65,101.75Z"/><path class="cls-11" d="M198.32,95.8s0,4.94,0,4.78.17-.48.17-.48A31.5,31.5,0,0,0,198.32,95.8Z"/><path class="cls-11" d="M199.69,96.7s-1.8,5.31-2.13,5.93-1.51,2.91-1.51,2.91l.12.76s1.9-4.2,2.15-4.84A32.4,32.4,0,0,0,199.69,96.7Z"/><path class="cls-12" d="M54.61,133.83l-2.23,2.42-.38-.53,3.27-4.15.16-.29c.17.17.33.34.48.52Z"/><path class="cls-13" d="M59.25,126.58l-3.34,5.22c-.15-.18-.31-.35-.48-.52l3.21-5.55Z"/><path class="cls-13" d="M42.31,136.35l1.4,1.78-.41.2-2.45-2.68-.18-.14a3.51,3.51,0,0,1,.4-.27Z"/><path class="cls-13" d="M37.89,132.39l3.18,2.85a3.51,3.51,0,0,0-.4.27l-3-2.2Z"/><path class="cls-13" d="M57,126.59l.54-2,.83.86-1.41,2-2.11,3.32a2.42,2.42,0,0,0-.42-.29Z"/><path class="cls-12" d="M53.94,131.23l.52-.71a2.42,2.42,0,0,1,.42.29l-.08.12-3,4.45-.55-.55a50.35,50.35,0,0,0,2.74-4.62l.36.2Z"/><path class="cls-13" d="M54.93,123.3c0-1.51,2,.83,2,.83l-1.28,3.18-1.34,3.1-.36-.2a2.38,2.38,0,0,0,.13-.29A23.43,23.43,0,0,0,54.93,123.3Z"/><path class="cls-13" d="M51.05,125.74a12.91,12.91,0,0,0-1.28-2.92,6.88,6.88,0,0,1-.67-1.46l2.12.32s-.56.23,0,2.35a11.2,11.2,0,0,0,1.27,3.22l-.07-2.35-.2-3.11,2,.8a49.4,49.4,0,0,1-.66,4.91c-.14.55-.41,1.38-.71,2.24a8.69,8.69,0,0,0-1.42-.36c0-.17,0-.33,0-.47A10,10,0,0,0,51.05,125.74Z"/><path class="cls-12" d="M51.55,133.29l-.4,1L50.3,134a19,19,0,0,0,.72-2.11s.31-1.44.42-2.48a8.69,8.69,0,0,1,1.42.36C52.26,131.45,51.55,133.29,51.55,133.29Z"/><path class="cls-13" d="M46.73,121.75l1.35-.11.31,5.12.13,2.6-.55.09Z"/><path class="cls-13" d="M44.37,122.78l.67-.49L46.12,127l1.5,2.52-.44.1c-.53-1.11-1.37-2.45-1.37-2.45Z"/><path class="cls-12" d="M48.12,130.36l-.15-.91.55-.09.25,4.7s-.75.27-.83.08-.17-2.47-.33-3.41a5,5,0,0,0-.43-1.11l.44-.1Z"/><path class="cls-12" d="M49.88,134l-.71,0-.31-4.58.68,0Z"/><path class="cls-13" d="M49,121.59l.57,7.68-.68,0-.53-7.76Z"/><path class="cls-12" d="M43.51,131.19c.21-.13.43-.25.65-.37.13.21.21.35.22.35a3.37,3.37,0,0,0-.07-.43q.3-.17.6-.3c.21.86.35,1.46.37,1.52.07.25.77,3.57.83,3.61s-.5.5-.5.5l-1.76-4.21S43.72,131.59,43.51,131.19Z"/><path class="cls-13" d="M43.44,127.21c-.19-.38-1.14-3.4-1.14-3.4l.93-.51s1.09,4.65,1.68,7.14q-.3.13-.6.3C44.11,129.77,43.59,127.5,43.44,127.21Z"/><path class="cls-13" d="M41.79,127.4c-.31-1.07-.88-2.42-.88-2.42l.87-.62a15.78,15.78,0,0,0,.74,3.41,26.7,26.7,0,0,0,1.64,3c-.22.12-.44.24-.65.37A37.73,37.73,0,0,1,41.79,127.4Z"/><path class="cls-12" d="M47,134.74l-.41.46-1.06-5,.53-.2Z"/><path class="cls-13" d="M43.62,123.32l.55-.4,1.65,5.82.24,1.23-.53.2L45.29,129Z"/><path class="cls-13" d="M42.36,132a45.17,45.17,0,0,0-2.4-4.16,4.42,4.42,0,0,1-.62-.79l1-1.79c.07.06,1.63,3.71,2.72,6.25C42.81,131.65,42.58,131.81,42.36,132Z"/><path class="cls-12" d="M42.36,132c.22-.17.45-.33.68-.49.58,1.36,1,2.41,1,2.42s1,2.52,1,2.52l-.27.22-1.65-3.14S42.82,132.83,42.36,132Z"/><path class="cls-13" d="M41.49,132.66c-.36-.24-2.64-3-2.77-3.07a5.78,5.78,0,0,1,.55-2.43s1.1,2.27,1.72,3.47c.27.52.64,1.14,1,1.67l-.44.38Z"/><path class="cls-12" d="M41.51,132.68l.44-.38c.4.66.74,1.19.79,1.31s1.69,3.07,1.74,3.11,0,.48,0,.48S41.94,133,41.51,132.68Z"/><path class="cls-13" d="M41,134.34c-.36-.17-2.76-2.41-2.88-2.44a5.41,5.41,0,0,1,.33-2.37s2.73,3.62,3.08,4.07c-.13.14-.38.61-.5.75Z"/><path class="cls-12" d="M41,134.35c.12-.14.37-.61.5-.75.43.55,2.61,4,2.66,4.07S44,138,44,138,41.42,134.62,41,134.35Z"/><path class="cls-11" d="M115.91,128.92l-4.07-19.62-3.9.55,3.48-2.85L109,95.12h-2.37l2-.92-.94-4.33-2.58.92,2.25-2.3-3-13.82v19h0V86.28L104.1,99h0l.24-15.34V74.67l-3,13.82,2.25,2.3L101,89.87l-.94,4.33,2,.92H99.64L97.18,107l3.48,2.85-3.9-.55-4.07,19.62h10.89l.18-11.15,0,0-.22,14h.72V99.83h0V99h0V94.49h0v30.26h0v7h.88l-.05-2.85Zm-12.1-12h0L104,99.72l0,0Z"/><path class="cls-11" d="M154.92,125.87l-4.07-19.62-3.9.55,3.48-2.85L148,92.07H145.6l2-.93-.94-4.32-2.58.92,2.24-2.31-3-13.81v19h0V83.22l-.2,12.67h0l.24-15.34V71.62l-3,13.81,2.25,2.31L140,86.82l-.93,4.32,2,.93h-2.37L136.19,104l3.48,2.85-3.9-.55-4.07,19.62h10.89l.18-11.15h0l-.22,14h.72V96.78h0v-.86h0V91.44h0V121.7h0v7h.87l0-2.85Zm-12.1-12h0l.27-17.22,0,0Z"/><path class="cls-11" d="M69,134.2l-2.15-14.7-2.06.42,1.84-2.14-1.3-8.9H64l1-.69L64.57,105l-1.36.69,1.18-1.73L62.83,93.57v14.25h0v-5.56l-.11,9.49h0l.13-11.48V93.57l-1.57,10.34,1.19,1.73L61.08,105l-.49,3.24,1,.69H60.37l-1.3,8.9,1.84,2.14-2.06-.42L56.7,134.2h5.75l.09-8.35h0l-.12,10.47h.38V112.41h0v-.64h0v-3.35h0v22.67h0v5.25h.46l0-2.13Zm-6.39-9h0l.14-12.9h0Z"/><path class="cls-11" d="M176,118.54l-2.14-14.69-2.06.41,1.83-2.14-1.29-8.9H171.1l1-.69-.49-3.24-1.36.69,1.18-1.72L169.9,77.91V92.16h0V86.6l-.11,9.49h0l.13-11.49V77.91l-1.57,10.35L169.52,90l-1.37-.69-.49,3.24,1,.69h-1.25l-1.3,8.9,1.83,2.14-2.05-.41-2.15,14.69h5.75l.09-8.35h0l-.11,10.48h.38V96.75h0v-.64h0V92.76h0v22.67h0v5.26h.46l0-2.14Zm-6.38-9h0l.14-12.9,0,0Z"/><path class="cls-11" d="M211.61,130.34l-2.15-14.7-2.05.42,1.83-2.14-1.3-8.9h-1.25l1-.69-.49-3.24-1.37.69,1.19-1.72-1.57-10.35V104h0V98.4l-.1,9.49h0l.13-11.49V89.71l-1.56,10.35,1.18,1.72-1.36-.69-.49,3.24,1,.69H203l-1.29,8.9,1.83,2.14-2.06-.42-2.14,14.7h5.74l.1-8.35h0l-.12,10.48h.38V108.55h0v-.64h0v-3.36h0v22.67h0v5.26H206l0-2.14Zm-6.38-9h0l.15-12.9,0,0Z"/><path class="cls-11" d="M230.7,127.42l-2.15-14.69-2.06.42,1.83-2.14-1.29-8.9h-1.25l1-.69-.49-3.24-1.36.69,1.18-1.73L224.57,86.8v14.25h0V95.49l-.11,9.49h0l.13-11.48V86.8L223,97.14l1.19,1.73-1.37-.69-.49,3.24,1,.69h-1.25l-1.3,8.9,1.83,2.14-2-.42-2.15,14.69h5.75l.09-8.34h0l-.11,10.47h.38V105.64h0V105h0v-3.35h0V124.3h0v5.26H225l0-2.14Zm-6.39-9h0l.14-12.9h0Z"/><path class="cls-11" d="M254.62,135.68,252.48,121l-2.06.41,1.83-2.13-1.29-8.9H249.7l1-.69-.49-3.24-1.36.69,1.18-1.73L248.5,95.05v14.26h0v-5.56l-.11,9.48h0l.13-11.48v-6.7l-1.57,10.35,1.19,1.73-1.37-.69-.49,3.24,1,.69H246l-1.3,8.9,1.83,2.13-2-.41-2.15,14.69h5.75l.09-8.35,0,0-.11,10.47h.38V113.9h0v-.65h0V109.9h0v22.66h0v5.26H249l0-2.14Zm-6.38-9h0l.14-12.89h0Z"/><path class="cls-14" d="M209.48,126.45l2.94,2.2.32-.66-4.44-3.9-.24-.28a7.57,7.57,0,0,0-.42.67Z"/><path class="cls-15" d="M202.91,119.41l4.73,5.07a7.57,7.57,0,0,1,.42-.67l-4.65-5.46Z"/><path class="cls-14" d="M223.52,126.72,222.34,129l.49.14,2.16-3.44.16-.2a4.4,4.4,0,0,0-.5-.21Z"/><path class="cls-15" d="M227.57,121.47l-2.92,3.78a4.4,4.4,0,0,1,.5.21l2.81-3Z"/><path class="cls-15" d="M205.35,119l-1-2-.74,1.11,2,1.91,3,3.22a5,5,0,0,1,.4-.4Z"/><path class="cls-16" d="M209.69,123.45l-.72-.68a5,5,0,0,0-.4.4l.11.13,4.26,4.27.49-.71a57,57,0,0,1-4-4.53l-.35.29Z"/><path class="cls-17" d="M207,114.93c-.26-1.67-2,1.32-2,1.32l2,3.23,2.11,3.14.35-.29c-.08-.1-.14-.2-.2-.29A26.24,26.24,0,0,1,207,114.93Z"/><path class="cls-17" d="M211.76,116.83a13.87,13.87,0,0,1,.81-3.48,7.78,7.78,0,0,0,.44-1.74l-2.27.79s.67.13.51,2.58a12.55,12.55,0,0,1-.74,3.79l-.4-2.6-.41-3.45L207.62,114a55,55,0,0,0,1.72,5.26c.26.58.73,1.44,1.24,2.33a8.77,8.77,0,0,1,1.49-.69,5.06,5.06,0,0,1-.14-.51A10.59,10.59,0,0,1,211.76,116.83Z"/><path class="cls-16" d="M212.74,125.22l.64,1.07.87-.56a21.31,21.31,0,0,1-1.22-2.18s-.63-1.53-1-2.64a8.77,8.77,0,0,0-1.49.69C211.58,123.36,212.74,125.22,212.74,125.22Z"/><path class="cls-17" d="M215.7,111.56l-1.51.15.7,5.7.38,2.88h.62Z"/><path class="cls-17" d="M218.5,112.22l-.84-.4-.23,5.39-1.14,3.08.5,0c.37-1.33,1-3,1-3Z"/><path class="cls-16" d="M215.91,121.31l0-1h-.62l.68,5.22s.88.14.93-.08-.32-2.75-.33-3.81a6,6,0,0,1,.24-1.31l-.5,0Z"/><path class="cls-16" d="M214.7,125.62l.78-.2-.59-5.1c-.25,0-.5,0-.75.08Z"/><path class="cls-17" d="M213.21,111.84l.93,8.56c.25,0,.5-.06.75-.08l-1-8.64Z"/><path class="cls-16" d="M221.15,121.29l-.78-.28c-.11.27-.17.43-.18.44a3.81,3.81,0,0,1,0-.49l-.72-.21c-.05,1-.09,1.67-.1,1.74,0,.29-.12,4.09-.18,4.15s.66.44.66.44l1.07-5S221,121.77,221.15,121.29Z"/><path class="cls-17" d="M220.42,116.9c.14-.45.56-4,.56-4l-1.12-.37s-.26,5.34-.4,8.19l.72.21C220.21,119.85,220.32,117.25,220.42,116.9Z"/><path class="cls-17" d="M222.27,116.77c.13-1.24.48-2.83.48-2.83l-1.08-.52a17.69,17.69,0,0,1-.12,3.9,32.23,32.23,0,0,1-1.18,3.69l.78.28A40.49,40.49,0,0,0,222.27,116.77Z"/><path class="cls-16" d="M218,125.9l.53.42.15-5.75-.62-.11Z"/><path class="cls-17" d="M219.43,112.66l-.68-.33-.63,6.74,0,1.39.62.11,0-1.35Z"/><path class="cls-17" d="M222.57,121.92c.61-1.87,1.5-4.56,1.8-5.06a5.46,5.46,0,0,0,.53-1l-1.45-1.76c-.06.08-1,4.41-1.72,7.43C222,121.65,222.3,121.78,222.57,121.92Z"/><path class="cls-16" d="M222.57,121.92c-.27-.14-.56-.27-.84-.39-.37,1.61-.64,2.85-.65,2.87s-.61,3-.61,3l.35.19s1.16-3.71,1.17-3.79S222.24,123,222.57,121.92Z"/><path class="cls-15" d="M223.67,122.49c.35-.33,2.3-3.85,2.42-3.93A6.57,6.57,0,0,0,225,116s-.75,2.72-1.19,4.16c-.2.63-.47,1.38-.72,2l.56.32S223.67,122.5,223.67,122.49Z"/><path class="cls-16" d="M223.65,122.52l-.56-.32c-.3.8-.57,1.46-.6,1.59s-1.24,3.72-1.29,3.78.16.51.16.51S223.26,123,223.65,122.52Z"/><path class="cls-15" d="M224.59,124.23c.37-.25,2.55-3.2,2.68-3.26a6.18,6.18,0,0,0-.85-2.54s-2.26,4.53-2.56,5.1c.17.12.54.59.71.72C224.58,124.25,224.58,124.24,224.59,124.23Z"/><path class="cls-14" d="M224.57,124.25c-.17-.13-.54-.6-.71-.72-.36.69-2.06,4.95-2.1,5s.2.28.2.28A51,51,0,0,1,224.57,124.25Z"/><path class="cls-14" d="M186.49,122.94l2.93,2.57.32-.77-4.43-4.53-.25-.33a7.22,7.22,0,0,0-.41.78Z"/><path class="cls-15" d="M179.91,114.77l4.74,5.89a7.22,7.22,0,0,1,.41-.78l-4.65-6.34Z"/><path class="cls-14" d="M200.52,123.27l-1.17,2.6.48.16,2.16-4,.17-.23c-.17-.09-.33-.17-.5-.24Z"/><path class="cls-17" d="M204.57,117.17l-2.91,4.39c.17.07.33.15.5.24l2.8-3.5Z"/><path class="cls-15" d="M182.36,114.26l-1-2.37-.74,1.28,2,2.23,3,3.74c.13-.16.26-.32.4-.47Z"/><path class="cls-16" d="M186.69,119.46l-.72-.79c-.14.15-.27.31-.4.47l.11.15,4.26,5,.5-.83a63.41,63.41,0,0,1-4-5.26l-.34.34Z"/><path class="cls-17" d="M184,109.56c-.26-1.94-2,1.54-2,1.54l2.05,3.75,2.11,3.65.34-.34-.2-.34A34.48,34.48,0,0,1,184,109.56Z"/><path class="cls-17" d="M188.76,111.77a18.69,18.69,0,0,1,.81-4,9.89,9.89,0,0,0,.45-2l-2.27.91s.67.15.51,3a16.19,16.19,0,0,1-.75,4.4l-.39-3-.42-4-2.08,1.5s1.06,4.39,1.73,6.12c.26.67.73,1.67,1.23,2.7a8.93,8.93,0,0,1,1.49-.8c-.06-.21-.1-.42-.14-.6A14.92,14.92,0,0,1,188.76,111.77Z"/><path class="cls-16" d="M189.74,121.52l.65,1.24.86-.65a25.09,25.09,0,0,1-1.21-2.53s-.64-1.77-1-3.07a8.93,8.93,0,0,0-1.49.8C188.59,119.35,189.74,121.52,189.74,121.52Z"/><path class="cls-17" d="M192.7,105.65l-1.51.17.71,6.63.37,3.35c.21,0,.42,0,.62,0Z"/><path class="cls-17" d="M195.51,106.41l-.84-.47-.24,6.27-1.13,3.58.5,0c.36-1.55,1-3.46,1-3.46Z"/><path class="cls-16" d="M192.92,117l0-1.2c-.2,0-.41,0-.62,0l.68,6s.88.17.93-.08-.31-3.2-.32-4.44a6.54,6.54,0,0,1,.24-1.51l-.5,0Z"/><path class="cls-16" d="M191.71,122l.77-.23-.58-5.93-.76.1Z"/><path class="cls-17" d="M190.21,106l.93,10,.76-.1-1-10Z"/><path class="cls-16" d="M198.15,117l-.78-.32a5.29,5.29,0,0,1-.18.51,4.33,4.33,0,0,1,0-.58l-.73-.24c-.05,1.15-.09,2-.09,2,0,.33-.13,4.75-.18,4.82s.65.52.65.52l1.07-5.81S198,117.52,198.15,117Z"/><path class="cls-17" d="M197.43,111.85c.13-.53.56-4.61.56-4.61l-1.13-.43s-.26,6.2-.4,9.51l.73.24C197.21,115.28,197.32,112.26,197.43,111.85Z"/><path class="cls-17" d="M199.28,111.71c.13-1.45.48-3.3.48-3.3l-1.09-.6a23.94,23.94,0,0,1-.12,4.54,39.79,39.79,0,0,1-1.18,4.28l.78.32C198.52,115.5,199.18,112.75,199.28,111.71Z"/><path class="cls-16" d="M195,122.31l.54.49.14-6.68-.61-.13Z"/><path class="cls-17" d="M196.44,106.92l-.69-.38-.63,7.83V116l.61.13,0-1.57Z"/><path class="cls-17" d="M199.58,117.69c.6-2.18,1.49-5.3,1.79-5.88a7,7,0,0,0,.53-1.16l-1.45-2.05c-.06.09-1,5.12-1.72,8.63C199,117.37,199.3,117.53,199.58,117.69Z"/><path class="cls-16" d="M199.58,117.69c-.28-.16-.56-.32-.85-.46-.36,1.88-.64,3.32-.65,3.33s-.6,3.46-.6,3.46l.34.22s1.16-4.31,1.17-4.4S199.24,118.89,199.58,117.69Z"/><path class="cls-17" d="M200.68,118.35c.35-.39,2.29-4.47,2.41-4.57a7.9,7.9,0,0,0-1.09-3s-.74,3.16-1.19,4.83c-.19.74-.47,1.6-.71,2.37l.56.37Z"/><path class="cls-16" d="M200.66,118.38l-.56-.37c-.31.92-.57,1.69-.6,1.85,0,0-1.24,4.32-1.29,4.39s.15.6.15.6S200.26,119,200.66,118.38Z"/><path class="cls-17" d="M201.59,120.37c.37-.29,2.56-3.72,2.68-3.79a8,8,0,0,0-.84-3s-2.27,5.26-2.57,5.92c.18.15.54.69.71.85Z"/><path class="cls-14" d="M201.57,120.4c-.17-.16-.53-.7-.71-.85-.36.81-2.05,5.76-2.09,5.83s.19.34.19.34S201.15,120.85,201.57,120.4Z"/><path class="cls-14" d="M53.93,133.91l2.63,2,.28-.59-4-3.49-.21-.25a5.27,5.27,0,0,0-.37.59Z"/><path class="cls-15" d="M48.05,127.62l4.24,4.53a5.27,5.27,0,0,1,.37-.59l-4.16-4.89Z"/><path class="cls-14" d="M66.48,134.16l-1,2,.43.13,1.94-3.08.14-.18a3.38,3.38,0,0,0-.44-.18Z"/><path class="cls-15" d="M70.11,129.47l-2.61,3.38a3.38,3.38,0,0,1,.44.18l2.51-2.69Z"/><path class="cls-15" d="M50.24,127.23l-.89-1.82-.66,1,1.75,1.72L53.11,131l.36-.36Z"/><path class="cls-14" d="M54.12,131.24l-.65-.61-.36.36.1.11L57,134.92l.44-.64a51.06,51.06,0,0,1-3.53-4.05l-.31.26Z"/><path class="cls-15" d="M51.7,123.61c-.23-1.49-1.8,1.19-1.8,1.19l1.83,2.88,1.89,2.81.31-.26a3.1,3.1,0,0,1-.18-.26A23.52,23.52,0,0,1,51.7,123.61Z"/><path class="cls-15" d="M56,125.31a12.85,12.85,0,0,1,.73-3.11,6.91,6.91,0,0,0,.4-1.55l-2,.7s.6.12.45,2.31a11.17,11.17,0,0,1-.66,3.39l-.35-2.33-.38-3.08-1.86,1.15s1,3.38,1.55,4.71c.23.52.65,1.28,1.1,2.08a8.44,8.44,0,0,1,1.33-.62c-.05-.16-.09-.32-.12-.46A10,10,0,0,1,56,125.31Z"/><path class="cls-14" d="M56.84,132.82l.58,1,.77-.51a20.54,20.54,0,0,1-1.09-2s-.56-1.36-.86-2.36a8.44,8.44,0,0,0-1.33.62C55.81,131.15,56.84,132.82,56.84,132.82Z"/><path class="cls-15" d="M59.49,120.6l-1.35.14.63,5.09.34,2.58h.55Z"/><path class="cls-15" d="M62,121.19l-.75-.36L61,125.65l-1,2.75.45,0c.33-1.19.9-2.67.9-2.67Z"/><path class="cls-14" d="M59.68,129.32l0-.92h-.55l.61,4.66s.78.14.83-.06-.29-2.46-.3-3.41a5.12,5.12,0,0,1,.22-1.17l-.45,0Z"/><path class="cls-14" d="M58.6,133.17l.69-.18-.52-4.56-.68.08Z"/><path class="cls-15" d="M57.26,120.85l.83,7.66.68-.08-.89-7.72Z"/><path class="cls-14" d="M64.36,129.3c-.23-.08-.46-.17-.7-.24a2.94,2.94,0,0,1-.16.38,2.44,2.44,0,0,1,0-.44l-.65-.18c0,.88-.08,1.49-.08,1.56,0,.25-.12,3.66-.16,3.71s.58.39.58.39l1-4.46S64.24,129.74,64.36,129.3Z"/><path class="cls-15" d="M63.72,125.37c.12-.4.49-3.54.49-3.54l-1-.33s-.23,4.77-.36,7.32l.65.18A36.16,36.16,0,0,1,63.72,125.37Z"/><path class="cls-15" d="M65.37,125.26a25.33,25.33,0,0,1,.43-2.53l-1-.46a15.72,15.72,0,0,1-.11,3.49,28,28,0,0,1-1.06,3.3c.24.07.47.16.7.24A34.92,34.92,0,0,0,65.37,125.26Z"/><path class="cls-14" d="M61.58,133.43l.48.37.13-5.14-.55-.1Z"/><path class="cls-15" d="M62.83,121.58l-.61-.29-.57,6v1.24l.55.1,0-1.21Z"/><path class="cls-15" d="M65.64,129.87a47.09,47.09,0,0,1,1.61-4.53,6,6,0,0,0,.47-.89l-1.3-1.58c0,.07-.93,3.94-1.54,6.65C65.14,129.63,65.39,129.74,65.64,129.87Z"/><path class="cls-14" d="M65.64,129.87c-.25-.13-.5-.24-.76-.35-.32,1.44-.57,2.55-.58,2.56s-.54,2.66-.54,2.66l.31.17s1-3.32,1.05-3.39S65.34,130.79,65.64,129.87Z"/><path class="cls-15" d="M66.62,130.38c.31-.3,2-3.44,2.16-3.52a5.87,5.87,0,0,0-1-2.29s-.67,2.43-1.07,3.72c-.17.57-.42,1.24-.64,1.82l.5.29Z"/><path class="cls-14" d="M66.6,130.4l-.5-.29c-.27.72-.51,1.31-.53,1.43s-1.11,3.32-1.16,3.38.14.46.14.46S66.25,130.84,66.6,130.4Z"/><path class="cls-15" d="M67.44,131.93c.33-.22,2.28-2.86,2.4-2.92a5.68,5.68,0,0,0-.76-2.26s-2,4.05-2.29,4.55c.16.12.48.53.63.65Z"/><path class="cls-14" d="M67.42,132c-.15-.12-.47-.53-.63-.65-.32.62-1.84,4.44-1.88,4.49s.18.26.18.26A46.82,46.82,0,0,1,67.42,132Z"/><path class="cls-12" d="M106.31,128.45l-2.22,2.42-.38-.54,3.26-4.14.17-.29a3.87,3.87,0,0,1,.47.52Z"/><path class="cls-13" d="M111,121.19l-3.35,5.23a3.87,3.87,0,0,0-.47-.52l3.2-5.56Z"/><path class="cls-13" d="M94,131l1.4,1.77L95,133l-2.46-2.68-.17-.15c.13-.09.26-.18.4-.26Z"/><path class="cls-13" d="M89.6,127l3.18,2.85c-.14.08-.27.17-.4.26l-3-2.19Z"/><path class="cls-13" d="M108.74,121.2l.54-2,.83.85-1.41,2-2.11,3.32a4.43,4.43,0,0,0-.42-.29Z"/><path class="cls-12" d="M105.65,125.85l.52-.72a4.43,4.43,0,0,1,.42.29l-.08.13L103.46,130l-.55-.55a50.35,50.35,0,0,0,2.74-4.62l.36.19Z"/><path class="cls-13" d="M106.64,117.91c0-1.51,2,.84,2,.84l-1.27,3.17L106,125l-.36-.19.13-.29A23.5,23.5,0,0,0,106.64,117.91Z"/><path class="cls-13" d="M102.76,120.36a13,13,0,0,0-1.28-2.93,7.16,7.16,0,0,1-.68-1.46l2.13.33s-.57.22,0,2.35a11.2,11.2,0,0,0,1.27,3.21l-.08-2.35-.19-3.1,2,.79a49.48,49.48,0,0,1-.66,4.92c-.14.55-.41,1.38-.71,2.24a9,9,0,0,0-1.42-.36c0-.18,0-.34,0-.48A9.65,9.65,0,0,0,102.76,120.36Z"/><path class="cls-12" d="M103.25,127.9l-.39,1-.85-.35a18.77,18.77,0,0,0,.72-2.12s.3-1.44.42-2.47a9,9,0,0,1,1.42.36C104,126.07,103.25,127.9,103.25,127.9Z"/><path class="cls-13" d="M98.44,116.36l1.35-.11.3,5.13.14,2.59-.55.09Z"/><path class="cls-13" d="M96.08,117.39l.67-.48,1.08,4.7,1.5,2.52-.44.11c-.53-1.11-1.37-2.46-1.37-2.46Z"/><path class="cls-12" d="M99.83,125l-.15-.91.55-.09.25,4.7s-.75.27-.83.09-.17-2.48-.33-3.41a5.3,5.3,0,0,0-.43-1.11l.44-.11Z"/><path class="cls-12" d="M101.59,128.57l-.71-.06-.32-4.58.68-.05Z"/><path class="cls-13" d="M100.67,116.2l.57,7.68-.68.05-.53-7.75Z"/><path class="cls-12" d="M95.22,125.8l.64-.37.23.36a3.09,3.09,0,0,0-.07-.44l.6-.3c.2.86.35,1.46.37,1.52.07.25.77,3.58.83,3.62s-.51.5-.51.5l-1.75-4.22S95.42,126.21,95.22,125.8Z"/><path class="cls-13" d="M95.14,121.82c-.19-.37-1.13-3.39-1.13-3.39l.93-.51s1.09,4.65,1.68,7.13l-.6.3C95.82,124.39,95.29,122.12,95.14,121.82Z"/><path class="cls-13" d="M93.5,122c-.32-1.07-.88-2.41-.88-2.41l.87-.63a16.18,16.18,0,0,0,.73,3.41,29.2,29.2,0,0,0,1.64,3.05l-.64.37A36.74,36.74,0,0,1,93.5,122Z"/><path class="cls-12" d="M98.7,129.36l-.4.45-1.06-5,.53-.2Z"/><path class="cls-13" d="M95.33,117.93l.55-.4,1.65,5.83.24,1.22-.53.2L97,123.59Z"/><path class="cls-13" d="M94.07,126.59a47.67,47.67,0,0,0-2.4-4.16,5.18,5.18,0,0,1-.63-.79l1-1.79c.07.06,1.63,3.71,2.72,6.26C94.52,126.26,94.29,126.42,94.07,126.59Z"/><path class="cls-12" d="M94.07,126.59c.22-.17.45-.33.68-.48.58,1.36,1,2.4,1,2.42s1,2.52,1,2.52l-.27.21s-1.62-3.07-1.65-3.14Z"/><path class="cls-13" d="M93.19,127.27c-.36-.24-2.64-3-2.76-3.07a5.74,5.74,0,0,1,.55-2.42s1.09,2.27,1.72,3.46c.27.53.63,1.14,1,1.68-.15.12-.3.24-.44.37Z"/><path class="cls-12" d="M93.22,127.29c.14-.13.29-.25.44-.37.39.65.73,1.19.78,1.3s1.7,3.07,1.75,3.12,0,.47,0,.47S93.64,127.66,93.22,127.29Z"/><path class="cls-13" d="M92.67,129c-.36-.16-2.76-2.4-2.89-2.44a5.62,5.62,0,0,1,.34-2.37s2.73,3.62,3.08,4.07c-.14.14-.38.61-.51.75Z"/><path class="cls-12" d="M92.69,129c.13-.14.37-.61.51-.75.43.55,2.61,4,2.66,4.07s-.13.29-.13.29S93.13,129.24,92.69,129Z"/><path class="cls-18" d="M105,127.19l2.62,2,.28-.6-4-3.48-.22-.26a6,6,0,0,0-.37.6Z"/><path class="cls-19" d="M99.14,120.9l4.24,4.53a6,6,0,0,1,.37-.6L99.59,120Z"/><path class="cls-14" d="M117.58,127.44l-1.06,2,.44.13,1.93-3.08.15-.18a4.22,4.22,0,0,0-.45-.18Z"/><path class="cls-15" d="M121.2,122.74l-2.61,3.39a4.22,4.22,0,0,1,.45.18l2.51-2.69Z"/><path class="cls-19" d="M101.33,120.51l-.89-1.83-.66,1,1.75,1.71,2.67,2.89.36-.37Z"/><path class="cls-18" d="M105.21,124.51l-.65-.61-.36.37.11.11,3.8,3.82.45-.64a50.49,50.49,0,0,1-3.54-4l-.31.26Z"/><path class="cls-19" d="M102.79,116.89c-.23-1.49-1.79,1.18-1.79,1.18l1.82,2.89,1.89,2.81.31-.26a3.1,3.1,0,0,1-.18-.26A23.63,23.63,0,0,1,102.79,116.89Z"/><path class="cls-19" d="M107.06,118.59a12.45,12.45,0,0,1,.72-3.11,6.93,6.93,0,0,0,.4-1.56l-2,.71s.6.12.46,2.3a11.35,11.35,0,0,1-.67,3.4l-.35-2.33-.38-3.09-1.85,1.16s.94,3.38,1.54,4.71c.23.51.65,1.28,1.1,2.07a9.39,9.39,0,0,1,1.33-.61c0-.17-.09-.32-.12-.46A9.71,9.71,0,0,1,107.06,118.59Z"/><path class="cls-18" d="M107.94,126.1l.57,1,.77-.5a19.49,19.49,0,0,1-1.08-2s-.57-1.36-.87-2.36a9.39,9.39,0,0,0-1.33.61C106.9,124.43,107.94,126.1,107.94,126.1Z"/><path class="cls-19" d="M110.58,113.88l-1.35.13.63,5.1.34,2.58h.55Z"/><path class="cls-19" d="M113.09,114.46l-.75-.35-.21,4.82-1,2.75c.15,0,.3,0,.45,0,.33-1.19.91-2.67.91-2.67Z"/><path class="cls-18" d="M110.77,122.6l0-.92h-.55l.61,4.66s.78.13.83-.06-.28-2.47-.29-3.42a4.47,4.47,0,0,1,.21-1.16c-.15,0-.3,0-.45,0Z"/><path class="cls-18" d="M109.69,126.45l.7-.18-.53-4.56c-.22,0-.45,0-.67.08Z"/><path class="cls-19" d="M108.35,114.13l.84,7.66c.22,0,.45-.06.67-.08L109,114Z"/><path class="cls-14" d="M115.46,122.58l-.7-.25c-.09.24-.16.38-.16.39a3,3,0,0,1,0-.44c-.21-.07-.43-.13-.65-.18,0,.87-.07,1.49-.08,1.56,0,.25-.11,3.65-.16,3.7s.58.4.58.4l1-4.46Z"/><path class="cls-19" d="M114.81,118.65c.12-.4.5-3.54.5-3.54l-1-.34s-.23,4.78-.36,7.33c.22.05.44.11.65.18C114.61,121.29,114.72,119,114.81,118.65Z"/><path class="cls-19" d="M116.46,118.54c.12-1.11.43-2.53.43-2.53l-1-.47a16.14,16.14,0,0,1-.1,3.49,27.36,27.36,0,0,1-1.06,3.3l.7.25A36.86,36.86,0,0,0,116.46,118.54Z"/><path class="cls-18" d="M112.68,126.71l.47.37.13-5.14-.55-.1Z"/><path class="cls-19" d="M113.92,114.86l-.61-.29-.56,6,0,1.25.55.1,0-1.21Z"/><path class="cls-15" d="M116.73,123.15a47.09,47.09,0,0,1,1.61-4.53,4.81,4.81,0,0,0,.47-.89l-1.3-1.58c-.05.07-.92,3.94-1.53,6.64Q116.36,123,116.73,123.15Z"/><path class="cls-14" d="M116.73,123.15q-.37-.2-.75-.36c-.33,1.45-.58,2.56-.59,2.57s-.54,2.66-.54,2.66l.31.17s1-3.32,1-3.39S116.43,124.07,116.73,123.15Z"/><path class="cls-15" d="M117.71,123.66c.32-.3,2.05-3.45,2.17-3.52a5.7,5.7,0,0,0-1-2.29s-.67,2.43-1.07,3.72c-.17.57-.41,1.23-.64,1.82l.51.29A0,0,0,0,1,117.71,123.66Z"/><path class="cls-14" d="M117.7,123.68l-.51-.29c-.27.72-.5,1.31-.53,1.43s-1.11,3.32-1.15,3.38.14.46.14.46S117.34,124.12,117.7,123.68Z"/><path class="cls-15" d="M118.53,125.21c.33-.23,2.29-2.86,2.4-2.92a5.53,5.53,0,0,0-.75-2.27s-2,4-2.3,4.56c.16.11.48.53.63.65S118.53,125.22,118.53,125.21Z"/><path class="cls-14" d="M118.51,125.23c-.15-.12-.47-.54-.63-.65-.32.62-1.84,4.43-1.87,4.49s.17.26.17.26A46.82,46.82,0,0,1,118.51,125.23Z"/><path class="cls-20" d="M193.61,128.65l2.63,2,.28-.59-4-3.49-.21-.25c-.14.19-.26.39-.38.59Z"/><path class="cls-21" d="M187.73,122.36l4.23,4.53c.12-.2.24-.4.38-.59l-4.16-4.89Z"/><path class="cls-21" d="M206.16,128.9l-1,2,.43.13,1.93-3.08.15-.18a3.38,3.38,0,0,0-.44-.18Z"/><path class="cls-21" d="M209.79,124.21l-2.61,3.38a3.38,3.38,0,0,1,.44.18l2.51-2.69Z"/><path class="cls-21" d="M189.92,122l-.89-1.82-.66,1,1.75,1.72,2.67,2.88a4.08,4.08,0,0,1,.36-.36Z"/><path class="cls-20" d="M193.79,126l-.64-.61a4.08,4.08,0,0,0-.36.36l.1.11,3.81,3.82.44-.64a51.06,51.06,0,0,1-3.53-4.05l-.32.26Z"/><path class="cls-21" d="M191.38,118.35c-.23-1.49-1.8,1.19-1.8,1.19l1.83,2.88,1.88,2.81.32-.26a3.1,3.1,0,0,1-.18-.26A23.52,23.52,0,0,1,191.38,118.35Z"/><path class="cls-21" d="M195.64,120.05a12.85,12.85,0,0,1,.73-3.11,6.91,6.91,0,0,0,.4-1.55l-2,.7s.6.12.46,2.31a11,11,0,0,1-.67,3.39l-.35-2.33-.37-3.08-1.86,1.15s.94,3.38,1.54,4.71c.24.52.66,1.28,1.11,2.08a8,8,0,0,1,1.33-.62c0-.16-.09-.32-.12-.46A9.68,9.68,0,0,1,195.64,120.05Z"/><path class="cls-20" d="M196.52,127.56l.58,1,.77-.51a18,18,0,0,1-1.09-1.95s-.56-1.36-.86-2.36a8,8,0,0,0-1.33.62C195.49,125.89,196.52,127.56,196.52,127.56Z"/><path class="cls-21" d="M199.17,115.34l-1.35.13.63,5.1.33,2.58h.56Z"/><path class="cls-21" d="M201.68,115.93l-.76-.36-.2,4.82-1,2.75.45,0c.32-1.19.9-2.67.9-2.67Z"/><path class="cls-20" d="M199.36,124.06l0-.92h-.56l.61,4.66s.79.14.83-.06-.28-2.46-.29-3.41a5.12,5.12,0,0,1,.22-1.17l-.45,0Z"/><path class="cls-20" d="M198.28,127.91l.69-.18-.52-4.56-.68.08Z"/><path class="cls-21" d="M196.94,115.59l.83,7.66.68-.08-.89-7.72Z"/><path class="cls-20" d="M204,124c-.23-.09-.46-.17-.7-.24a2.94,2.94,0,0,1-.16.38,2.44,2.44,0,0,1,0-.44l-.65-.18c-.05.88-.08,1.49-.08,1.56,0,.25-.12,3.66-.17,3.7s.59.4.59.4l1-4.46Z"/><path class="cls-21" d="M203.39,120.11c.12-.4.5-3.54.5-3.54l-1-.33s-.23,4.77-.36,7.32l.65.18C203.2,122.76,203.3,120.43,203.39,120.11Z"/><path class="cls-21" d="M205.05,120a25.33,25.33,0,0,1,.43-2.53l-1-.46a15.72,15.72,0,0,1-.11,3.49,28,28,0,0,1-1.06,3.3c.24.07.47.15.7.24A37.11,37.11,0,0,0,205.05,120Z"/><path class="cls-20" d="M201.26,128.17l.48.37.13-5.14-.55-.1Z"/><path class="cls-21" d="M202.51,116.32l-.62-.29-.56,6v1.24l.55.1,0-1.21Z"/><path class="cls-21" d="M205.32,124.61c.54-1.68,1.34-4.08,1.6-4.53a4.81,4.81,0,0,0,.47-.89l-1.29-1.58c0,.07-.93,3.94-1.54,6.64C204.82,124.37,205.07,124.48,205.32,124.61Z"/><path class="cls-20" d="M205.32,124.61c-.25-.13-.5-.24-.76-.36-.32,1.45-.57,2.56-.58,2.57s-.54,2.66-.54,2.66l.31.17,1.05-3.39S205,125.53,205.32,124.61Z"/><path class="cls-21" d="M206.3,125.12c.31-.3,2-3.44,2.16-3.52a5.87,5.87,0,0,0-1-2.29s-.67,2.43-1.07,3.72c-.17.57-.42,1.24-.64,1.82l.5.29Z"/><path class="cls-20" d="M206.28,125.14l-.5-.29c-.27.72-.51,1.31-.54,1.43s-1.1,3.32-1.15,3.38.14.46.14.46S205.93,125.58,206.28,125.14Z"/><path class="cls-21" d="M207.12,126.67c.33-.22,2.28-2.86,2.4-2.92a5.63,5.63,0,0,0-.76-2.26s-2,4.05-2.29,4.55c.15.12.48.53.63.65S207.11,126.68,207.12,126.67Z"/><path class="cls-20" d="M207.1,126.69c-.15-.12-.48-.53-.63-.65-.33.62-1.84,4.44-1.88,4.49s.17.26.17.26A47.19,47.19,0,0,1,207.1,126.69Z"/><path class="cls-20" d="M241.88,135.21l2.62,2,.29-.59-4-3.49-.22-.25a5.87,5.87,0,0,0-.37.59Z"/><path class="cls-21" d="M236,128.92l4.24,4.53a5.87,5.87,0,0,1,.37-.59L236.45,128Z"/><path class="cls-21" d="M254.43,135.46l-1.05,2,.43.13,1.93-3.08.15-.18a3.52,3.52,0,0,0-.45-.18Z"/><path class="cls-21" d="M258.05,130.77l-2.61,3.38a3.52,3.52,0,0,1,.45.18l2.51-2.69Z"/><path class="cls-21" d="M238.18,128.53l-.89-1.83-.66,1,1.75,1.71,2.68,2.89a4.17,4.17,0,0,1,.36-.37Z"/><path class="cls-20" d="M242.06,132.53l-.64-.61a4.17,4.17,0,0,0-.36.37l.1.11,3.8,3.82.45-.64a50.49,50.49,0,0,1-3.54-4.05l-.31.26Z"/><path class="cls-21" d="M239.65,124.91c-.24-1.49-1.8,1.18-1.8,1.18l1.83,2.89,1.88,2.81.31-.26-.18-.26A23.26,23.26,0,0,1,239.65,124.91Z"/><path class="cls-21" d="M243.91,126.61a12.45,12.45,0,0,1,.72-3.11A6.6,6.6,0,0,0,245,122l-2,.7s.6.12.46,2.31a11,11,0,0,1-.67,3.39l-.35-2.33-.37-3.08-1.86,1.15s.94,3.38,1.54,4.71c.23.52.65,1.28,1.1,2.08a8.54,8.54,0,0,1,1.34-.62c-.05-.16-.1-.32-.13-.46A10,10,0,0,1,243.91,126.61Z"/><path class="cls-20" d="M244.79,134.12l.57,1,.78-.51a18,18,0,0,1-1.09-1.95s-.57-1.36-.86-2.36a8.54,8.54,0,0,0-1.34.62C243.75,132.45,244.79,134.12,244.79,134.12Z"/><path class="cls-21" d="M247.43,121.9l-1.34.13.62,5.1.34,2.58h.56Z"/><path class="cls-21" d="M249.94,122.49l-.75-.36L249,127l-1,2.75.45,0c.32-1.19.9-2.67.9-2.67Z"/><path class="cls-20" d="M247.63,130.62l0-.92h-.56l.61,4.66s.79.14.83-.06-.28-2.46-.29-3.41a5.12,5.12,0,0,1,.22-1.17l-.45,0Z"/><path class="cls-20" d="M246.55,134.47l.69-.18-.52-4.56c-.23,0-.46,0-.68.08Z"/><path class="cls-21" d="M245.21,122.15l.83,7.66c.22,0,.45-.06.68-.08l-.89-7.72Z"/><path class="cls-20" d="M252.31,130.6c-.23-.09-.47-.17-.7-.24a2.94,2.94,0,0,1-.16.38,2.44,2.44,0,0,1,0-.44l-.65-.18c-.05.88-.08,1.49-.09,1.56,0,.25-.11,3.65-.16,3.7s.59.4.59.4l1-4.46S252.18,131,252.31,130.6Z"/><path class="cls-21" d="M251.66,126.67c.12-.4.5-3.54.5-3.54l-1-.33s-.23,4.77-.35,7.32l.65.18C251.47,129.32,251.57,127,251.66,126.67Z"/><path class="cls-21" d="M253.32,126.56c.11-1.11.42-2.53.42-2.53l-1-.46a15.72,15.72,0,0,1-.11,3.49,28,28,0,0,1-1.06,3.3c.23.07.47.15.7.24A39.58,39.58,0,0,0,253.32,126.56Z"/><path class="cls-20" d="M249.53,134.73l.48.37.12-5.14-.55-.1Z"/><path class="cls-21" d="M250.77,122.88l-.61-.29-.56,6,0,1.25.55.1,0-1.21Z"/><path class="cls-21" d="M253.58,131.17a47.09,47.09,0,0,1,1.61-4.53,4.81,4.81,0,0,0,.47-.89l-1.29-1.58c-.06.07-.93,3.94-1.54,6.64C253.08,130.92,253.34,131,253.58,131.17Z"/><path class="cls-20" d="M253.58,131.17c-.24-.13-.5-.25-.75-.36-.33,1.45-.58,2.56-.58,2.57s-.54,2.66-.54,2.66l.31.17s1-3.32,1-3.39S253.28,132.09,253.58,131.17Z"/><path class="cls-21" d="M254.57,131.68c.31-.3,2.05-3.44,2.16-3.52a5.75,5.75,0,0,0-1-2.29s-.67,2.43-1.06,3.72c-.18.57-.42,1.24-.64,1.82l.5.29Z"/><path class="cls-20" d="M254.55,131.7l-.5-.29c-.27.72-.51,1.31-.54,1.43s-1.11,3.32-1.15,3.38.14.46.14.46S254.2,132.14,254.55,131.7Z"/><path class="cls-21" d="M255.39,133.23c.33-.22,2.28-2.86,2.39-2.92A5.53,5.53,0,0,0,257,128s-2,4.05-2.3,4.56c.16.12.49.53.64.65Z"/><path class="cls-20" d="M255.37,133.25c-.15-.12-.48-.53-.64-.65-.32.62-1.84,4.44-1.87,4.49s.17.26.17.26A47.19,47.19,0,0,1,255.37,133.25Z"/><path class="cls-22" d="M149.37,115s-34.84-.86-48.51,9.56c-8.17,6.23-17.73,2.87-28.08.52-7.45-1.7-23.45,2.7-30.55,6.35-6.32,3.25-9.56,1.77-27.69,2.87-17,1-18.91,5.33-20.46,8.41H149.37Z"/><path class="cls-23" d="M116.41,138.62c-.15.21,12.49-1,12.49-1s-3.36-2.21-6.79-1.86S117.3,137.38,116.41,138.62Z"/><path class="cls-23" d="M135.63,140.11c-.12.12,10.13-.56,10.13-.56a12.54,12.54,0,0,0-5.51-1.08C137.47,138.67,136.36,139.39,135.63,140.11Z"/><path class="cls-23" d="M115.86,126.74c-.12.12,10.13-.56,10.13-.56a12.7,12.7,0,0,0-5.51-1.08C117.7,125.31,116.58,126,115.86,126.74Z"/><path class="cls-23" d="M72.22,138c-.12.12,10.13-.56,10.13-.56a12.7,12.7,0,0,0-5.51-1.08C74.06,136.59,73,137.31,72.22,138Z"/><path class="cls-23" d="M133.18,123.17c-.12.12,10.13-.56,10.13-.56a12.7,12.7,0,0,0-5.51-1.08C135,121.74,133.9,122.45,133.18,123.17Z"/><path class="cls-23" d="M41.74,138.58c-.06.12,5.66-.56,5.66-.56a4.67,4.67,0,0,0-3.08-1.08A3.13,3.13,0,0,0,41.74,138.58Z"/><path class="cls-23" d="M55.54,139.79c-.06.08,5.66-.34,5.66-.34a6.55,6.55,0,0,0-3.08-.67A3.54,3.54,0,0,0,55.54,139.79Z"/><path class="cls-23" d="M29.09,140.65c-.07.07,5.65-.35,5.65-.35a6.47,6.47,0,0,0-3.08-.66A3.49,3.49,0,0,0,29.09,140.65Z"/><path class="cls-23" d="M135.42,132.35c-.07.07,5.65-.35,5.65-.35a6.45,6.45,0,0,0-3.07-.66A3.42,3.42,0,0,0,135.42,132.35Z"/><path class="cls-23" d="M92.68,139.91c-.15.2,12.5-1,12.5-1s-3.37-2.21-6.8-1.86S93.57,138.67,92.68,139.91Z"/><path class="cls-22" d="M145.76,115s37-.86,51.54,9.56c8.68,6.23,18.83,2.87,29.82.52,7.92-1.7,24.92,2.7,32.46,6.35,6.71,3.25,10.16,1.77,29.41,2.87,18,1,20.08,5.33,21.74,8.41h-165Z"/><path class="cls-23" d="M178.73,138.62c.15.21-12.5-1-12.5-1s3.37-2.21,6.8-1.86S177.84,137.38,178.73,138.62Z"/><path class="cls-23" d="M159.5,140.11c.12.12-10.13-.56-10.13-.56a12.54,12.54,0,0,1,5.51-1.08C157.67,138.67,158.78,139.39,159.5,140.11Z"/><path class="cls-23" d="M179.28,126.74c.11.12-10.13-.56-10.13-.56a12.65,12.65,0,0,1,5.51-1.08C177.44,125.31,178.55,126,179.28,126.74Z"/><path class="cls-23" d="M222.91,138c.12.12-10.12-.56-10.12-.56a12.63,12.63,0,0,1,5.5-1.08C221.08,136.59,222.19,137.31,222.91,138Z"/><path class="cls-23" d="M209.06,131.9c.12.12-10.13-.56-10.13-.56a12.6,12.6,0,0,1,5.51-1.07C207.22,130.47,208.34,131.19,209.06,131.9Z"/><path class="cls-23" d="M162,123.17c.12.12-10.13-.56-10.13-.56a12.65,12.65,0,0,1,5.51-1.08C160.12,121.74,161.23,122.45,162,123.17Z"/><path class="cls-23" d="M253.39,138.58c.07.12-5.65-.56-5.65-.56a4.66,4.66,0,0,1,3.07-1.08A3.1,3.1,0,0,1,253.39,138.58Z"/><path class="cls-23" d="M239.59,139.79c.07.08-5.65-.34-5.65-.34a6.53,6.53,0,0,1,3.07-.67A3.5,3.5,0,0,1,239.59,139.79Z"/><path class="cls-23" d="M266.05,140.65c.07.07-5.65-.35-5.65-.35a6.45,6.45,0,0,1,3.07-.66A3.5,3.5,0,0,1,266.05,140.65Z"/><path class="cls-23" d="M159.72,132.35c.07.07-5.66-.35-5.66-.35a6.51,6.51,0,0,1,3.08-.66A3.44,3.44,0,0,1,159.72,132.35Z"/><path class="cls-23" d="M202.46,139.91c.14.2-12.5-1-12.5-1s3.37-2.21,6.8-1.86S201.56,138.67,202.46,139.91Z"/><polygon class="cls-24" points="74.45 131.45 75.39 131.45 75.39 77.02 74.45 131.45"/><polygon class="cls-21" points="75.39 131.45 76.53 131.45 75.4 63.68 75.39 131.45"/><polygon class="cls-13" points="60.29 128.03 74.45 128.03 75.39 73.82 75.39 63.13 71.53 79.66 74.45 82.42 71.09 81.31 69.88 86.49 72.41 87.59 69.33 87.59 66.13 101.81 70.65 105.22 65.58 104.56 60.29 128.03"/><polygon class="cls-15" points="90.48 128.03 76.27 128.03 75.39 63.13 79.24 79.66 76.32 82.42 79.69 81.31 80.9 86.49 78.36 87.59 81.45 87.59 84.64 101.81 80.13 105.22 85.19 104.56 90.48 128.03"/><polygon class="cls-21" points="75.39 123.96 86.15 121.75 75.39 123.05 75.39 123.96"/><polygon class="cls-21" points="75.39 109.34 75.39 110.51 83.81 109.01 75.39 109.34"/><polygon class="cls-21" points="75.39 98.28 75.39 99.53 80.35 98.28 75.39 98.28"/><polygon class="cls-21" points="75.39 85.91 75.35 86.86 78.58 85.91 75.39 85.91"/><polygon class="cls-24" points="74.92 113.75 74.92 114.78 67.84 112.5 74.92 113.75"/><polygon class="cls-24" points="75.39 92.2 75.39 93.23 71.5 91.78 75.39 92.2"/><polygon class="cls-24" points="117.62 123.81 118.51 123.81 118.51 71.76 117.62 123.81"/><polygon class="cls-21" points="118.51 123.81 119.6 123.81 118.52 59.01 118.51 123.81"/><polygon class="cls-13" points="104.08 120.54 117.62 120.54 118.51 68.7 118.51 58.48 114.82 74.29 117.62 76.92 114.4 75.87 113.24 80.82 115.67 81.87 112.72 81.87 109.66 95.47 113.98 98.73 109.13 98.1 104.08 120.54"/><polygon class="cls-15" points="132.94 120.54 119.62 120.54 118.51 58.48 122.2 74.29 119.41 76.92 122.62 75.87 123.78 80.82 121.36 81.87 124.31 81.87 127.36 95.47 123.04 98.73 127.89 98.1 132.94 120.54"/><polygon class="cls-21" points="118.51 116.64 128.8 114.54 118.51 115.78 118.51 116.64"/><polygon class="cls-21" points="118.51 102.66 118.51 103.78 126.56 102.36 118.51 102.66"/><polygon class="cls-21" points="118.52 92.09 118.52 93.29 123.25 92.09 118.52 92.09"/><polygon class="cls-21" points="118.52 80.26 118.48 81.17 121.57 80.26 118.52 80.26"/><polygon class="cls-24" points="118.06 106.88 118.06 107.86 111.29 105.69 118.06 106.88"/><polygon class="cls-24" points="118.52 86.28 118.52 87.27 114.8 85.88 118.52 86.28"/><polygon class="cls-24" points="233.69 135.03 234.55 135.03 234.55 84.94 233.69 135.03"/><polygon class="cls-21" points="234.55 135.03 235.6 135.03 234.56 72.67 234.55 135.03"/><polygon class="cls-13" points="220.66 131.88 233.69 131.88 234.55 82 234.55 72.16 231 87.37 233.69 89.91 230.59 88.89 229.48 93.66 231.81 94.67 228.97 94.67 226.03 107.75 230.19 110.89 225.53 110.28 220.66 131.88"/><polygon class="cls-14" points="248.44 131.88 235.61 131.88 234.55 72.16 238.1 87.37 235.41 89.91 238.5 88.89 239.62 93.66 237.29 94.67 240.13 94.67 243.07 107.75 238.91 110.89 243.57 110.28 248.44 131.88"/><polygon class="cls-21" points="234.55 128.13 244.45 126.1 234.55 127.3 234.55 128.13"/><polygon class="cls-21" points="234.55 114.68 234.55 115.76 242.3 114.38 234.55 114.68"/><polygon class="cls-21" points="234.55 104.51 234.55 105.66 239.11 104.51 234.55 104.51"/><polygon class="cls-21" points="234.55 93.12 234.51 93.99 237.49 93.12 234.55 93.12"/><polygon class="cls-24" points="234.12 118.73 234.12 119.68 227.6 117.59 234.12 118.73"/><polygon class="cls-24" points="234.55 98.91 234.55 99.86 230.97 98.52 234.55 98.91"/><path class="cls-25" d="M91.24,35h43.1a.1.1,0,0,0,0-.19c-5.77-.44-19.31-1.52-20.27-2.12-1.3-.83-2.79-4.89-9-5.24s-7.33,1.73-6.36,3.77-3.36,0-5.78,0C91,31.23,89.51,32.33,91.24,35Z"/><path class="cls-4" d="M243.44,166.68a49.73,49.73,0,0,0-27.4,2.66c-10.78,4.23-31.35-3.64-42.68,2.06-17.55,8.84-22.74,11-48.33,8.84-18.16-1.52-16.85-18.78-39.84-9.19-14.64,6.1-9.23-4.12-33-1.71-14.67,1.48-23-4.37-27.57-12.72s-14-5.32-18.64-8a20.48,20.48,0,0,1-6.75-6H302s-6.21,8.52-10.47,11.22c-6.89,4.37-14.64-.23-16.18,2.89C270.32,167,252.71,168.26,243.44,166.68Z"/><polygon class="cls-26" points="300.28 144.57 103.28 143.57 103.28 143.57 223.51 142.68 302 142.68 300.28 144.57"/><polygon class="cls-26" points="294.43 150.15 131.31 148.69 131.31 148.69 295.59 149.17 294.43 150.15"/><polygon class="cls-26" points="268.47 160.23 114.2 158.38 114.2 158.38 270.99 158.85 268.47 160.23"/><polygon class="cls-26" points="306.57 172.78 152.31 170.92 152.31 170.92 309.09 171.39 306.57 172.78"/><polygon class="cls-26" points="25.13 155.13 25.53 155.91 88.68 156 86.61 155.56 25.13 155.13"/><polygon class="cls-26" points="81.92 177.5 82.32 178.28 145.47 178.38 143.4 177.94 81.92 177.5"/><polygon class="cls-26" points="8.71 170.82 9.11 171.61 72.26 171.7 70.19 171.26 8.71 170.82"/><polygon class="cls-26" points="201.91 175.65 202.31 176.43 265.46 176.53 263.39 176.09 201.91 175.65"/><polygon class="cls-26" points="111.92 166.36 110.93 166.71 174.08 166.8 174.66 166.36 111.92 166.36"/><polygon class="cls-26" points="93.25 150.99 93.65 151.77 156.8 151.86 154.73 151.42 93.25 150.99"/><polygon class="cls-26" points="4.73 147.06 6.07 147.69 69.22 147.78 67.14 147.34 4.73 147.06"/><polygon class="cls-26" points="-0.76 142.68 0.02 143.46 87.76 143.55 84.87 143.11 35.45 142.68 -0.76 142.68"/><path class="cls-26" d="M76.5,159.3a5.69,5.69,0,0,1-2.41.26,5.69,5.69,0,0,1-2.41-.26,5.89,5.89,0,0,1,2.41-.26A5.89,5.89,0,0,1,76.5,159.3Z"/><path class="cls-26" d="M97,157.6a5.69,5.69,0,0,1-2.41.26,5.66,5.66,0,0,1-2.41-.26,5.85,5.85,0,0,1,2.41-.26A5.89,5.89,0,0,1,97,157.6Z"/><path class="cls-26" d="M73.66,160.82c0,.24-3,.44-6.67.44s-6.68-.2-6.68-.44,3-.45,6.68-.45S73.66,160.57,73.66,160.82Z"/><path class="cls-26" d="M169.33,176.35a11.3,11.3,0,0,1-4.82,0,11.3,11.3,0,0,1,4.82,0Z"/><path class="cls-26" d="M189.82,174.65a11.3,11.3,0,0,1-4.82,0,11.3,11.3,0,0,1,4.82,0Z"/><path class="cls-26" d="M166.5,177.87c0,.24-3,.44-6.68.44s-6.67-.2-6.67-.44,3-.45,6.67-.45S166.5,177.62,166.5,177.87Z"/><path class="cls-26" d="M181,153.38a11.35,11.35,0,0,1-4.83,0,11.35,11.35,0,0,1,4.83,0Z"/><path class="cls-26" d="M201.48,151.68a10.89,10.89,0,0,1-4.82,0,11.3,11.3,0,0,1,4.82,0Z"/><path class="cls-26" d="M178.16,154.9c0,.25-3,.45-6.68.45s-6.67-.2-6.67-.45,3-.45,6.67-.45S178.16,154.65,178.16,154.9Z"/><path class="cls-26" d="M67.81,149.91a5.91,5.91,0,0,1-2.42.26,5.89,5.89,0,0,1-2.41-.26,5.69,5.69,0,0,1,2.41-.26A5.72,5.72,0,0,1,67.81,149.91Z"/><path class="cls-26" d="M88.29,148.21a5.89,5.89,0,0,1-2.41.26,5.89,5.89,0,0,1-2.41-.26,5.89,5.89,0,0,1,2.41-.26A5.89,5.89,0,0,1,88.29,148.21Z"/><path class="cls-26" d="M65,151.42c0,.25-3,.45-6.68.45s-6.67-.2-6.67-.45,3-.44,6.67-.44S65,151.18,65,151.42Z"/><path class="cls-26" d="M250,147.78a11.3,11.3,0,0,1-4.82,0,11.3,11.3,0,0,1,4.82,0Z"/><path class="cls-26" d="M270.44,146.08a11.3,11.3,0,0,1-4.82,0,11.3,11.3,0,0,1,4.82,0Z"/><path class="cls-26" d="M162.49,168.86c0,.25-3,.45-6.68.45s-6.67-.2-6.67-.45,3-.45,6.67-.45S162.49,168.61,162.49,168.86Z"/><path class="cls-26" d="M102.54,167.19c0,.25-3,.45-6.68.45s-6.67-.2-6.67-.45,3-.45,6.67-.45S102.54,166.94,102.54,167.19Z"/><polygon class="cls-27" points="183.81 130.88 207.1 132.65 181.58 132.28 183.81 130.88"/><polygon class="cls-27" points="76.68 130.19 99.97 131.97 74.45 131.6 76.68 130.19"/><polygon class="cls-27" points="119.2 122.49 139.47 124.27 117.26 123.9 119.2 122.49"/><polygon class="cls-27" points="235.62 133.59 255.89 135.36 233.68 134.99 235.62 133.59"/><path class="cls-26" d="M265.81,153.12c0,.25-3,.45-6.67.45s-6.68-.2-6.68-.45,3-.45,6.68-.45S265.81,152.87,265.81,153.12Z"/><path class="cls-28" d="M167.82,120.71a3.44,3.44,0,0,0-4.12-1.42l.16,1S165.32,118.79,167.82,120.71Z"/><polygon class="cls-29" points="151.82 64.91 151.7 64.91 151.7 78.43 151.94 78.69 151.94 64.91 151.82 64.91"/><polygon class="cls-29" points="155.42 71.23 155.33 71.1 151.94 78.34 152.01 78.52 152.09 78.69 155.51 71.37 155.42 71.23"/><polygon class="cls-30" points="148.23 70.9 148.05 71.17 151.63 78.54 151.71 78.37 151.71 78.36 151.71 78.06 148.23 70.9"/><path class="cls-29" d="M151.75,77.15l-.26.79h0v30.55l7,18.33h14.17Zm.19,31.27L160.81,120l-2,6.52Z"/><polygon class="cls-31" points="163.57 120.15 159.55 126.85 158.97 126.85 151.95 107.74 163.57 120.15"/><path class="cls-30" d="M151.75,77.15l-21,49.64h14.18l7-18.33V77.23Zm-7.14,49.41-2-6.51,8.88-11.61Z"/><polygon class="cls-32" points="139.9 119.57 144.39 126.46 151.94 107.56 139.9 119.57"/><polygon class="cls-33" points="141.84 120.56 144.54 126.79 144.91 126.79 151.95 108.52 151.94 107.56 141.84 120.56"/><polygon class="cls-34" points="162.05 120.58 159.35 126.81 158.98 126.81 151.95 108.54 151.95 107.58 162.05 120.58"/><polygon class="cls-35" points="144.91 126.79 158.97 126.85 151.95 108.52 144.91 126.79"/><polygon class="cls-36" points="130.74 126.79 174.48 126.75 178.28 130.06 130.74 126.79"/><polygon class="cls-37" points="181.58 132.28 182.59 132.28 182.59 73.8 181.58 132.28"/><polygon class="cls-21" points="182.59 132.28 183.81 132.28 182.6 59.47 182.59 132.28"/><polygon class="cls-13" points="166.37 128.62 181.58 128.62 182.59 70.37 182.59 58.88 178.44 76.64 181.58 79.6 177.97 78.42 176.67 83.98 179.39 85.17 176.07 85.17 172.64 100.44 177.5 104.11 172.05 103.4 169.72 113.74 172.88 115.76 169.23 115.93 166.37 128.62"/><polygon class="cls-14" points="198.81 128.62 183.74 128.31 182.59 58.88 186.73 76.64 183.59 79.6 187.2 78.42 188.51 83.98 185.78 85.17 189.1 85.17 192.53 100.44 187.68 104.11 193.12 103.4 198.81 128.62"/><polygon class="cls-21" points="182.59 124.23 194.15 121.87 182.59 123.26 182.59 124.23"/><polygon class="cls-21" points="182.59 108.53 182.59 109.78 191.63 108.18 182.59 108.53"/><polygon class="cls-21" points="182.59 96.65 182.59 97.99 187.91 96.65 182.59 96.65"/><polygon class="cls-21" points="182.59 83.35 182.55 84.38 186.02 83.35 182.59 83.35"/><polygon class="cls-37" points="182.08 113.26 182.08 114.37 174.48 111.92 182.08 113.26"/><polygon class="cls-37" points="182.59 90.12 182.59 91.22 178.41 89.66 182.59 90.12"/><rect class="cls-38" x="143.72" y="99.46" width="4.33" height="1.73"/><rect class="cls-38" x="142.74" y="102.35" width="2.78" height="1.73"/><polygon class="cls-10" points="36.32 94.05 35.66 109.94 34.99 140.01 36.32 140.01 36.32 94.05"/><polygon class="cls-10" points="35.11 93.38 36.2 97.28 36.2 97.97 35.11 93.38"/><polygon class="cls-10" points="37.03 94.44 36.32 96.28 36.32 96.59 37.03 94.44"/><path class="cls-10" d="M40.32,92.69a28.71,28.71,0,0,1-1.09,4.61,37.16,37.16,0,0,1-2.92,4.46c-.24.12,0,.67,0,.67s1.5-2.25,1.95-3a9.61,9.61,0,0,0,1.44-2.86C39.8,96.07,40.32,92.69,40.32,92.69Z"/><polygon class="cls-10" points="38.76 95.94 38.7 98.24 38.52 98.53 38.76 95.94"/><path class="cls-10" d="M39.64,96.38s.72-.78.68-1.09c0,0,.09.37-.52,1.17C39.54,96.8,39.64,96.38,39.64,96.38Z"/><path class="cls-10" d="M32.3,95.54l.9,4.66.57,4.59a15.66,15.66,0,0,0,.56,3.78c.43.76,1.8,2.83,1.8,2.92a1.91,1.91,0,0,1-.21.43s-1.78-3-2-3.54a48.27,48.27,0,0,1-.62-5Z"/><path class="cls-10" d="M30.5,99.5s2.11,4.1,2.37,4.38a1.27,1.27,0,0,0,.57.44l0,.46a4.43,4.43,0,0,1-1.12-1.27C32,102.85,30.5,99.5,30.5,99.5Z"/><path class="cls-10" d="M30.27,100.26l1,.9.1.23S30.64,100.71,30.27,100.26Z"/><path class="cls-10" d="M34.05,100.11l-.71,1.26v.47S33.88,100.67,34.05,100.11Z"/><path class="cls-10" d="M31.38,105.69l2,2.18.5.51.23.45S31.59,106.45,31.38,105.69Z"/><path class="cls-10" d="M33.39,112.65l1.2,3.89s.83,1.46,1.26,2,0,.43,0,.43a14.18,14.18,0,0,1-1.64-2.68A20.69,20.69,0,0,1,33.39,112.65Z"/><path class="cls-10" d="M36.32,118.19s.2-.33.31-.49c.19-.31.42-.75.72-1.31.09-.18-.8,1.93-1,2.41Z"/><path class="cls-10" d="M34.07,112.89l-.11,1.6.25.8S34.08,113.14,34.07,112.89Z"/><path class="cls-10" d="M38.78,103.87l-1.2,3.9s-.83,1.46-1.25,2,0,.42,0,.42A14.37,14.37,0,0,0,38,107.52,20.5,20.5,0,0,0,38.78,103.87Z"/><path class="cls-10" d="M38.1,104.11l.11,1.61-.24.8S38.09,104.37,38.1,104.11Z"/><path class="cls-10" d="M31.38,111.55a19.37,19.37,0,0,0,0,5.11,12.52,12.52,0,0,0,1.39,3.08,8.46,8.46,0,0,1,.86,1c.1.21.34,2,.34,2l-.57-.52s0-1.43-.24-1.58a9.16,9.16,0,0,1-1.77-2.92A12.76,12.76,0,0,1,31.38,111.55Z"/><path class="cls-10" d="M29.7,115.59s1.21,2.25,1.38,2.47a9,9,0,0,0,.81.79l.25.41a3.81,3.81,0,0,1-1.54-1.5C30.27,116.91,29.7,115.59,29.7,115.59Z"/><path class="cls-10" d="M29.7,118.58s4.37,4.19,4.51,4.38.49,1.39.78,1.86a1.13,1.13,0,0,0,.38.41v.68a4,4,0,0,1-.9-1.09,10.36,10.36,0,0,0-.8-1.79c-.24-.33-3.82-4.19-3.91-4.31Z"/><path class="cls-10" d="M29.52,119.38a5,5,0,0,0,2.15,1.41c.34.15.38.36.38.36S29.65,120.2,29.52,119.38Z"/><path class="cls-10" d="M41.91,120.43a19.9,19.9,0,0,1-.76,5.09,14.7,14.7,0,0,1-1.85,3,8.9,8.9,0,0,0-1,.91c-.13.2-.64,2-.64,2l.65-.48s.22-1.42.47-1.56a10.48,10.48,0,0,0,2.21-2.8A13.17,13.17,0,0,0,41.91,120.43Z"/><path class="cls-10" d="M43,124.56s-1.55,2.16-1.75,2.37a9.56,9.56,0,0,1-.93.74l-.3.39a4.33,4.33,0,0,0,1.76-1.4C42.2,125.83,43,124.56,43,124.56Z"/><path class="cls-10" d="M42.52,127.54s-5,3.89-5.16,4.08-.69,1.34-1.06,1.79a1.26,1.26,0,0,1-.43.39l-.11.68a4.52,4.52,0,0,0,1.06-1,11.77,11.77,0,0,1,1.07-1.73c.29-.32,4.43-3.93,4.55-4Z"/><path class="cls-10" d="M42.57,128.34a5.59,5.59,0,0,1-2.35,1.27c-.36.13-.43.33-.43.33S42.32,129.15,42.57,128.34Z"/><path class="cls-10" d="M29.87,127.45s.18.62,1.33,1.39c.24.16.21.33.21.33S29.74,128.13,29.87,127.45Z"/><path class="cls-10" d="M32,131.39s.26.81,1.82,1.82c.32.21.29.44.29.44S31.88,132.29,32,131.39Z"/><path class="cls-10" d="M38.74,111.66s-1.52,1.62-1.71,2a20.78,20.78,0,0,0-.69,2.12l-.16,1.49s.93-3.06,1-3.38A17.19,17.19,0,0,1,38.74,111.66Z"/><path class="cls-10" d="M31.66,125.44s.67,4.91.6,4.77-.27-.48-.27-.48A25.8,25.8,0,0,1,31.66,125.44Z"/><path class="cls-10" d="M30.11,126.42s2.86,5.18,3.35,5.77S35.65,135,35.65,135l0,.76s-2.84-4.06-3.23-4.68A30.3,30.3,0,0,1,30.11,126.42Z"/><path class="cls-10" d="M41.18,114.8s-.1.63-1.15,1.46c-.22.17-.17.34-.17.34S41.39,115.47,41.18,114.8Z"/><path class="cls-10" d="M39.54,118.84s-.16.82-1.58,1.91c-.3.23-.24.45-.24.45S39.8,119.73,39.54,118.84Z"/><path class="cls-10" d="M39.14,112.89s0,4.94,0,4.78.21-.48.21-.48A25.7,25.7,0,0,0,39.14,112.89Z"/><path class="cls-10" d="M40.81,113.79s-2.19,5.31-2.6,5.92-1.83,2.92-1.83,2.92l.14.76s2.31-4.2,2.62-4.84A28.47,28.47,0,0,0,40.81,113.79Z"/><polygon class="cls-13" points="283.81 92.83 283.15 108.72 282.49 138.79 283.81 138.79 283.81 92.83"/><polygon class="cls-13" points="282.61 92.16 283.69 96.06 283.69 96.76 282.61 92.16"/><polygon class="cls-13" points="284.52 93.23 283.81 95.06 283.81 95.37 284.52 93.23"/><path class="cls-13" d="M287.82,91.47a29.13,29.13,0,0,1-1.1,4.61,36,36,0,0,1-2.92,4.46c-.24.12,0,.67,0,.67s1.5-2.25,2-3a10.11,10.11,0,0,0,1.44-2.86C287.3,94.85,287.82,91.47,287.82,91.47Z"/><polygon class="cls-13" points="286.26 94.72 286.2 97.02 286.02 97.31 286.26 94.72"/><path class="cls-13" d="M287.13,95.16s.73-.78.68-1.09c0,0,.09.38-.52,1.17C287,95.58,287.13,95.16,287.13,95.16Z"/><path class="cls-13" d="M279.79,94.32l.9,4.66.57,4.6a15.22,15.22,0,0,0,.57,3.77c.42.76,1.79,2.83,1.79,2.92a1.91,1.91,0,0,1-.21.43s-1.77-3-2-3.53a48.28,48.28,0,0,1-.61-5Z"/><path class="cls-13" d="M278,98.28s2.11,4.1,2.36,4.38a1.44,1.44,0,0,0,.57.45l0,.46a4.43,4.43,0,0,1-1.12-1.27C279.46,101.63,278,98.28,278,98.28Z"/><path class="cls-13" d="M277.76,99l1,.91.1.22S278.14,99.5,277.76,99Z"/><path class="cls-13" d="M281.54,98.89l-.7,1.26v.47A17.8,17.8,0,0,0,281.54,98.89Z"/><path class="cls-13" d="M278.87,104.47l2,2.18.49.52.23.44S279.08,105.24,278.87,104.47Z"/><path class="cls-13" d="M280.88,111.43l1.21,3.9a22.53,22.53,0,0,0,1.25,2c.42.55,0,.43,0,.43a13.82,13.82,0,0,1-1.63-2.68A20.1,20.1,0,0,1,280.88,111.43Z"/><path class="cls-13" d="M283.81,117l.31-.49c.19-.31.43-.75.72-1.31.1-.18-.79,1.93-1,2.42Z"/><path class="cls-13" d="M281.57,111.67l-.12,1.61.25.8S281.58,111.93,281.57,111.67Z"/><path class="cls-13" d="M286.28,102.65l-1.21,3.9s-.83,1.46-1.25,2,0,.43,0,.43a14.76,14.76,0,0,0,1.63-2.68A20.15,20.15,0,0,0,286.28,102.65Z"/><path class="cls-13" d="M285.59,102.9l.12,1.6-.25.8S285.58,103.15,285.59,102.9Z"/><path class="cls-13" d="M278.87,110.33a19.39,19.39,0,0,0,0,5.11,13,13,0,0,0,1.39,3.08,8.72,8.72,0,0,1,.87,1c.09.2.33,2,.33,2l-.57-.51s0-1.43-.24-1.59a9.23,9.23,0,0,1-1.77-2.92A12.9,12.9,0,0,1,278.87,110.33Z"/><path class="cls-13" d="M277.19,114.38s1.21,2.24,1.38,2.47a8.76,8.76,0,0,0,.82.79l.24.41a3.79,3.79,0,0,1-1.54-1.51C277.76,115.69,277.19,114.38,277.19,114.38Z"/><path class="cls-13" d="M277.19,117.36s4.37,4.19,4.52,4.39.48,1.38.78,1.85a1.13,1.13,0,0,0,.38.42v.68a3.94,3.94,0,0,1-.9-1.1,10.39,10.39,0,0,0-.81-1.79c-.23-.33-3.81-4.18-3.91-4.31Z"/><path class="cls-13" d="M277,118.16a5,5,0,0,0,2.15,1.42c.35.14.39.35.39.35S277.14,119,277,118.16Z"/><path class="cls-13" d="M289.4,119.22a19.85,19.85,0,0,1-.76,5.08,14.38,14.38,0,0,1-1.85,3,11.22,11.22,0,0,0-1,.91c-.12.2-.63,2-.63,2l.64-.48s.22-1.42.48-1.56a10.6,10.6,0,0,0,2.2-2.79A13.23,13.23,0,0,0,289.4,119.22Z"/><path class="cls-13" d="M290.46,123.35s-1.54,2.15-1.75,2.37a10.81,10.81,0,0,1-.93.73l-.3.39a4.33,4.33,0,0,0,1.76-1.4C289.7,124.62,290.46,123.35,290.46,123.35Z"/><path class="cls-13" d="M290,126.32s-5,3.9-5.16,4.08-.69,1.34-1.05,1.8a1.25,1.25,0,0,1-.44.38l-.1.68a4.5,4.5,0,0,0,1.06-1,11.16,11.16,0,0,1,1.07-1.73c.28-.32,4.43-3.93,4.54-4Z"/><path class="cls-13" d="M290.07,127.12a5.62,5.62,0,0,1-2.35,1.28c-.37.12-.44.33-.44.33S289.81,127.93,290.07,127.12Z"/><path class="cls-13" d="M277.36,126.23s.18.62,1.34,1.4c.23.16.21.33.21.33S277.24,126.91,277.36,126.23Z"/><path class="cls-13" d="M279.51,130.17s.27.81,1.82,1.82c.33.21.3.44.3.44S279.37,131.07,279.51,130.17Z"/><path class="cls-13" d="M286.23,110.44s-1.51,1.63-1.7,2a21.61,21.61,0,0,0-.69,2.12l-.16,1.49s.92-3.06,1-3.38A18.9,18.9,0,0,1,286.23,110.44Z"/><path class="cls-13" d="M279.15,124.22s.67,4.92.6,4.77-.27-.47-.27-.47A25.84,25.84,0,0,1,279.15,124.22Z"/><path class="cls-13" d="M277.6,125.21s2.86,5.17,3.35,5.76,2.19,2.81,2.19,2.81l0,.76s-2.84-4.06-3.22-4.68A30.35,30.35,0,0,1,277.6,125.21Z"/><path class="cls-13" d="M288.67,113.59s-.1.62-1.15,1.45c-.21.18-.16.34-.16.34S288.89,114.26,288.67,113.59Z"/><path class="cls-13" d="M287,117.62s-.16.83-1.58,1.92a.48.48,0,0,0-.24.45S287.29,118.51,287,117.62Z"/><path class="cls-13" d="M286.63,111.67s0,4.94,0,4.79.21-.49.21-.49A25.7,25.7,0,0,0,286.63,111.67Z"/><path class="cls-13" d="M288.3,112.58s-2.19,5.3-2.6,5.92-1.83,2.92-1.83,2.92l.15.75s2.31-4.2,2.61-4.83A27.34,27.34,0,0,0,288.3,112.58Z"/><path class="cls-39" d="M263.43,60.22a26,26,0,0,0,18.9-31.94c-3.82-13.91-18.48-22.17-32.74-18.44a26,26,0,0,0-18.9,31.94C234.51,55.69,249.16,64,263.43,60.22Z"/><path class="cls-40" d="M249.94,11.11a25.85,25.85,0,0,1,19.26,2.48,24.78,24.78,0,0,1,11.82,15,24.17,24.17,0,0,1-2.54,18.79,25.18,25.18,0,0,1-15.41,11.53,25.82,25.82,0,0,1-19.25-2.47,24.8,24.8,0,0,1-11.83-15,24.17,24.17,0,0,1,2.54-18.79,25.23,25.23,0,0,1,15.41-11.54Zm18.75,3.33a24.82,24.82,0,0,0-18.49-2.37,24.21,24.21,0,0,0-14.79,11.07,23.2,23.2,0,0,0-2.44,18,23.8,23.8,0,0,0,11.35,14.43A24.78,24.78,0,0,0,262.81,58a24.23,24.23,0,0,0,14.8-11.08,23.21,23.21,0,0,0,2.43-18A23.82,23.82,0,0,0,268.69,14.44Z"/><path class="cls-40" d="M251.18,15.63a2.61,2.61,0,0,0-.82,2,7.11,7.11,0,0,0,.47,1.87l-2.34,3.25.29,1.06,2.71-2.53c.64,1.62,1.39,3.36,1.82,4.34l-.9,1.11.29,1.07,1.4-1.51,2,.62-.3-1.06-1.36-.53c-.13-1-.36-2.92-.64-4.64l3.64.87-.29-1.07-3.69-1.67a7.37,7.37,0,0,0-.55-1.84A2.75,2.75,0,0,0,251.18,15.63Z"/><path class="cls-40" d="M239.88,44.87a.51.51,0,0,1-.62-.35.5.5,0,0,1,.36-.61l36.07-9.43a.51.51,0,0,1,.62.35.5.5,0,0,1-.36.61Z"/><path class="cls-40" d="M241.82,51.92a.53.53,0,0,1-.63-.35.49.49,0,0,1,.36-.6l36.07-9.43a.52.52,0,0,1,.63.35.49.49,0,0,1-.36.6Z"/><path class="cls-40" d="M239.72,41.13l2.49-.66.29,1-3.84,1-1.83-6.66,1.34-.35,1.55,5.63Zm8.05-3.56-.51-1.87A2.67,2.67,0,0,0,246.1,34a2.42,2.42,0,0,0-1.92-.21A2.33,2.33,0,0,0,242.64,35a2.59,2.59,0,0,0-.15,2l.51,1.86a2.61,2.61,0,0,0,1.15,1.66,2.42,2.42,0,0,0,1.92.21,2.37,2.37,0,0,0,1.55-1.11,2.59,2.59,0,0,0,.15-2ZM245.93,36l.51,1.88a1.89,1.89,0,0,1,0,1.15,1.07,1.07,0,0,1-1.58.41,1.89,1.89,0,0,1-.56-1l-.52-1.88a1.89,1.89,0,0,1,0-1.15.89.89,0,0,1,.68-.57,1,1,0,0,1,.9.16,1.9,1.9,0,0,1,.57,1ZM255,38.23l-1.32.35-3.26-3.71h0l1.17,4.25-1.34.35-1.83-6.66,1.34-.35L253,36.18l0,0-1.16-4.24,1.32-.35L255,38.23Zm2-.52-1.83-6.66,2.06-.54a2.28,2.28,0,0,1,2,.32,3.08,3.08,0,0,1,1.24,1.82l.3,1.12a3,3,0,0,1-.13,2.17,2.24,2.24,0,0,1-1.53,1.23l-2.06.54Zm-.21-6,1.26,4.58.66-.17a1,1,0,0,0,.73-.7,2.39,2.39,0,0,0-.05-1.34L259.13,33a2.42,2.42,0,0,0-.64-1.17,1,1,0,0,0-1-.24l-.66.17Zm10.52.71a2.51,2.51,0,0,1-.15,2,2.68,2.68,0,0,1-3.46.9,2.57,2.57,0,0,1-1.15-1.66l-.52-1.86a2.59,2.59,0,0,1,.15-2,2.33,2.33,0,0,1,1.54-1.12,2.42,2.42,0,0,1,1.92.21,2.6,2.6,0,0,1,1.16,1.66l.51,1.87Zm-1.84-1.53a1.83,1.83,0,0,0-.57-1,1,1,0,0,0-.89-.16.93.93,0,0,0-.69.57,1.89,1.89,0,0,0,0,1.15l.52,1.88a1.89,1.89,0,0,0,.56,1,1,1,0,0,0,.89.16.93.93,0,0,0,.69-.57,1.78,1.78,0,0,0,0-1.16l-.51-1.87Zm9.11,2.19-1.32.35-3.26-3.72,0,0L271.19,34l-1.34.35L268,27.7l1.34-.35,3.26,3.71,0,0-1.16-4.24,1.32-.35Z"/><path class="cls-40" d="M250.48,47.57l-.82.21-.9-3.27-.77.22-.16-.57,1.52-.7,1.13,4.11Zm2.74-4.43a4.12,4.12,0,0,0-.38,1.57,9.17,9.17,0,0,0,.2,1.76l.07.41-.82.21-.07-.4a7.37,7.37,0,0,1-.13-1.78,5.12,5.12,0,0,1,.34-1.57l-1.77.46-.18-.64,2.57-.67.17.65Zm2.35,3.09-.81.22-.2-.73.81-.21.2.72Zm2.65-2.41-.24-.89a2.07,2.07,0,0,0-.68-1.15,1.11,1.11,0,0,0-1-.19,1.05,1.05,0,0,0-.78.66,2,2,0,0,0,0,1.33l.25.88a2.09,2.09,0,0,0,.67,1.16,1.15,1.15,0,0,0,1,.18,1.09,1.09,0,0,0,.78-.65,2.07,2.07,0,0,0,0-1.33Zm-1.08-.74.28,1a2.17,2.17,0,0,1,.1.76c0,.17-.11.26-.24.28h0a.32.32,0,0,1-.36-.14,2,2,0,0,1-.31-.7l-.27-1a1.74,1.74,0,0,1-.1-.75c0-.17.11-.27.24-.29h0c.12,0,.24,0,.35.13a1.85,1.85,0,0,1,.31.7Zm3.53-1.89a4,4,0,0,0-.38,1.57,9.22,9.22,0,0,0,.19,1.77l.07.4-.82.22-.07-.41a7.29,7.29,0,0,1-.12-1.77,4.9,4.9,0,0,1,.34-1.58l-1.77.47-.18-.64,2.56-.67.18.64Zm2.34,3.1-.81.21-.2-.73.81-.21.2.73Zm2.37-.62-1.12-4.11-1.53.7.16.58.77-.23.9,3.27.82-.21Zm2.11-1.18a.46.46,0,0,0,.35-.34,1.16,1.16,0,0,0,0-.69l-.05-.16a.7.7,0,0,1-.2.32.65.65,0,0,1-.3.17,1,1,0,0,1-.88-.17,1.82,1.82,0,0,1-.57-1,1.67,1.67,0,0,1,.06-1.13,1.13,1.13,0,0,1,.77-.66,1.17,1.17,0,0,1,1,.2,2.06,2.06,0,0,1,.68,1.13l.27,1a1.65,1.65,0,0,1-.08,1.25,1.3,1.3,0,0,1-.88.68,2.28,2.28,0,0,1-.39.06,1.84,1.84,0,0,1-.41,0l-.07-.62a1.32,1.32,0,0,0,.34,0,1.51,1.51,0,0,0,.35-.06Zm-.22-1.34a.57.57,0,0,0,.37-.37l-.13-.47a1.53,1.53,0,0,0-.3-.64.32.32,0,0,0-.36-.14h0c-.12,0-.19.13-.23.31a1.41,1.41,0,0,0,0,.6,1.39,1.39,0,0,0,.26.56A.35.35,0,0,0,267.27,41.15Z"/><polygon class="cls-40" points="243.68 45.07 244.59 46.37 246.16 46 245.18 47.26 246.03 48.6 244.5 48.07 243.45 49.27 243.49 47.7 242 47.09 243.55 46.65 243.68 45.07"/><polygon class="cls-40" points="272.77 37.47 273.68 38.77 275.25 38.4 274.27 39.65 275.12 41 273.59 40.47 272.54 41.67 272.58 40.09 271.09 39.49 272.64 39.04 272.77 37.47"/><path class="cls-40" d="M250.47,54.56l-.82-3,.93-.25a1.05,1.05,0,0,1,.88.15,1.37,1.37,0,0,1,.56.82l.14.51a1.36,1.36,0,0,1-.06,1,1,1,0,0,1-.69.56l-.94.24Zm-.09-2.7.57,2.07.3-.08a.47.47,0,0,0,.33-.31,1.16,1.16,0,0,0,0-.61l-.14-.51a1.17,1.17,0,0,0-.3-.53.45.45,0,0,0-.44-.11l-.3.08Zm4.24.2-1,.27.23.85,1.22-.32.13.47-1.82.48-.83-3,1.82-.48.13.47-1.22.32.21.75,1-.27.12.47Zm1.6-.16.47-.12a1,1,0,0,0,.66-.46,1,1,0,0,0,.07-.77,1,1,0,0,0-.46-.63,1,1,0,0,0-.8-.08l-1.07.28.82,3,.61-.16-.3-1.08Zm-.13-.47-.27-1,.47-.13a.35.35,0,0,1,.33.07.71.71,0,0,1,.2.71.39.39,0,0,1-.26.22l-.47.12Zm3.63,0-.82.22,0,.68-.61.16,0-3.24.63-.16,1.69,2.78-.61.16-.34-.6Zm-.82-.29.57-.15-.57-1h0l0,1.13Zm2.72-.79.43-.12a.37.37,0,0,1,.31,0,.66.66,0,0,1,.19.33l.05.2a2.09,2.09,0,0,0,.11.3.34.34,0,0,0,.15.19l.62-.16v0a.41.41,0,0,1-.16-.18,1.06,1.06,0,0,1-.1-.26l-.06-.21a.93.93,0,0,0-.23-.43.62.62,0,0,0-.41-.17.76.76,0,0,0,.24-.36.71.71,0,0,0,0-.43.88.88,0,0,0-.44-.59,1.07,1.07,0,0,0-.78,0l-1,.26.82,3,.6-.16-.32-1.19Zm-.13-.47-.24-.88.4-.1a.31.31,0,0,1,.31,0,.51.51,0,0,1,.19.3.48.48,0,0,1,0,.34.35.35,0,0,1-.25.18l-.4.11ZM265.18,48l-.69.18.7,2.54-.61.16-.69-2.54-.7.18-.13-.47,2-.52.13.47Zm2.7.6-1,.27.24.86,1.22-.32.13.47-1.83.47-.83-3,1.82-.48.13.47-1.21.32.2.75,1-.27.13.47Zm1.29,1.08.93-.24a1,1,0,0,0,.69-.56,1.35,1.35,0,0,0,.06-1l-.14-.51a1.36,1.36,0,0,0-.55-.82,1.08,1.08,0,0,0-.89-.15l-.93.25.83,3Zm-.1-2.7.3-.08a.47.47,0,0,1,.45.12,1,1,0,0,1,.29.53l.14.51a1,1,0,0,1,0,.6.45.45,0,0,1-.33.32l-.3.07Z"/><path class="cls-40" d="M238.94,28.65l-.6.16-.66-2.4-.57.16-.12-.42,1.12-.51.83,3Zm2.91-.76-1.83.48-.11-.4.56-1.26a2.44,2.44,0,0,0,.13-.47.86.86,0,0,0,0-.33.48.48,0,0,0-.16-.29.23.23,0,0,0-.25-.06.25.25,0,0,0-.19.2.93.93,0,0,0,0,.4l-.58.15h0a1,1,0,0,1,.05-.75.81.81,0,0,1,.58-.46,1,1,0,0,1,.73.06,1,1,0,0,1,.42.6,1,1,0,0,1,0,.54,4.11,4.11,0,0,1-.27.74l-.25.66,1.05-.27.13.47Zm.58-2.05.13.46.3-.08a.34.34,0,0,1,.3,0,.57.57,0,0,1,.18.33.47.47,0,0,1,0,.33.36.36,0,0,1-.22.18.33.33,0,0,1-.27-.05.47.47,0,0,1-.17-.27l-.58.16h0a.76.76,0,0,0,.43.57,1,1,0,0,0,.7.06,1.11,1.11,0,0,0,.63-.42.89.89,0,0,0,.09-.72.93.93,0,0,0-.24-.41.7.7,0,0,0-.4-.18.74.74,0,0,0,.22-.76.8.8,0,0,0-.42-.56,1,1,0,0,0-.73-.05.9.9,0,0,0-.56.38.74.74,0,0,0-.08.65h0l.58-.15a.38.38,0,0,1,0-.28.27.27,0,0,1,.18-.15.28.28,0,0,1,.25,0,.59.59,0,0,1,.16.27.61.61,0,0,1,0,.33.25.25,0,0,1-.21.17l-.3.08Zm3.58-.25.27-.07.13.47-.27.07.18.66-.6.16-.18-.66-1,.27-.13-.36.51-2.26.6-.16.52,1.88Zm-1.11.29.51-.13-.29-1h0l0,.06Z"/><path class="cls-40" d="M260.25,21.65l-.31-1.72,1.51-.39.13.48-1,.27.12.72a1,1,0,0,1,.14-.15.69.69,0,0,1,.19-.1.71.71,0,0,1,.67.11,1.29,1.29,0,0,1,.41.69,1.09,1.09,0,0,1,0,.78.85.85,0,0,1-.59.47,1,1,0,0,1-.7-.07.79.79,0,0,1-.43-.56h0l.58-.18a.55.55,0,0,0,.17.29.29.29,0,0,0,.25.06.27.27,0,0,0,.2-.21,1.18,1.18,0,0,0-.24-.81.26.26,0,0,0-.28-.09.24.24,0,0,0-.18.12.31.31,0,0,0,0,.2l-.55.1Zm2.91-2.6a1.51,1.51,0,0,1,.28-.05l.28,0,0,.47-.23,0-.22,0a.41.41,0,0,0-.3.3,1,1,0,0,0,0,.59h0a.48.48,0,0,1,.17-.21.75.75,0,0,1,.27-.13.67.67,0,0,1,.63.15,1.37,1.37,0,0,1,.4.68,1.17,1.17,0,0,1-.05.81.87.87,0,0,1-.57.47.92.92,0,0,1-.79-.14,1.49,1.49,0,0,1-.51-.82l-.17-.62a1.37,1.37,0,0,1,.06-1,1,1,0,0,1,.69-.54Zm.28,1.53a.82.82,0,0,0-.21.1.57.57,0,0,0-.11.16l.07.23a1.33,1.33,0,0,0,.24.52.31.31,0,0,0,.32.12.26.26,0,0,0,.17-.23.89.89,0,0,0,0-.42.85.85,0,0,0-.19-.38.27.27,0,0,0-.26-.1Zm2.95-1.83-.13-.47-1.88.49.13.47,1.3-.34a3.44,3.44,0,0,0-.25,1.16,4.91,4.91,0,0,0,.09,1.3l.05.3.6-.16-.05-.3a6.2,6.2,0,0,1-.14-1.3,2.83,2.83,0,0,1,.28-1.15Zm2.37-.27a.79.79,0,0,1,0,.43.69.69,0,0,1-.22.34.94.94,0,0,1,.41.21.94.94,0,0,1,.17,1.11,1.12,1.12,0,0,1-1.31.34.88.88,0,0,1-.43-.58.8.8,0,0,1,.25-.84.7.7,0,0,1-.36-.19.81.81,0,0,1-.22-.37.85.85,0,0,1,.07-.69.9.9,0,0,1,.55-.38.93.93,0,0,1,.68.06.86.86,0,0,1,.4.56ZM268.58,20a.55.55,0,0,0-.17-.3.29.29,0,0,0-.25-.06.27.27,0,0,0-.19.17.6.6,0,0,0,0,.35.61.61,0,0,0,.17.3.29.29,0,0,0,.25.06.25.25,0,0,0,.19-.17.6.6,0,0,0,0-.35Zm-.42-1.3a.61.61,0,0,0-.14-.28.21.21,0,0,0-.21-.06.19.19,0,0,0-.15.16.53.53,0,0,0,0,.3.6.6,0,0,0,.14.29.21.21,0,0,0,.21.06.19.19,0,0,0,.15-.16A.49.49,0,0,0,268.16,18.67Z"/><path class="cls-39" d="M272,24.47a5,5,0,0,0-2.23.49,4.52,4.52,0,0,0-3.57,1.91,5,5,0,0,0-2.26-.5,4.57,4.57,0,0,0-3.83,1.83,5.48,5.48,0,0,0-1.38-.18,4.58,4.58,0,0,0-3.64,1.59,5.66,5.66,0,0,0-1.34-.16,5.06,5.06,0,0,0-1.89.34,5.15,5.15,0,0,0-1.9-.34,4.52,4.52,0,0,0-4.33,2.68,5,5,0,0,0-.89-.08,5.11,5.11,0,0,0-1.71.28,4.75,4.75,0,0,0-3-1A4.58,4.58,0,0,0,235.37,35a5.59,5.59,0,0,0-.39,2.53c-.24,2.66,1.36,5.52,4.81,5.52a4.65,4.65,0,0,0,3.28-1.21,5.3,5.3,0,0,0,1.69.26,4.55,4.55,0,0,0,4.34-2.68,5,5,0,0,0,.88.08,5.05,5.05,0,0,0,1.89-.35,5.15,5.15,0,0,0,1.9.35,4.59,4.59,0,0,0,3.64-1.59,5.59,5.59,0,0,0,1.34.16,4.57,4.57,0,0,0,3.83-1.83,5.42,5.42,0,0,0,1.38.18,4.54,4.54,0,0,0,3.9-1.93,5.34,5.34,0,0,0,4.49,0C278.45,34.11,278.35,24.47,272,24.47Z"/><path class="cls-41" d="M243.73,42.21c-1-.06-2-.16-2.87-.3a1.14,1.14,0,0,0-.45,0c-1.64.34-3.41-.77-4.12-3.49s.19-4.8,2-5.28,3.53,1,4.18,3.48c.56,2.16.11,3.77-.9,4.55v.05c.74,0,1.53,0,2.14,0Zm-2.15-5.31c-.44-1.69-1.6-3.25-3.06-2.87s-1.78,2.28-1.29,4.11,1.67,3.2,3.05,2.84S242.08,38.83,241.58,36.9Z"/><path class="cls-41" d="M244.56,31.66l1.29,5c.49,1.89,1.38,2.52,2.29,2.28s1.45-1.26,1-3.13l-1.3-5,.9-.23L250,35.5c.68,2.6-.15,4-1.64,4.33s-2.71-.35-3.39-3l-1.29-5Z"/><path class="cls-41" d="M256.06,33.46l-2.66.69.79,3,3-.77.24.92-3.85,1-2.19-8.45,3.7-1,.23.92-2.81.73.69,2.67,2.66-.69Zm-1.84-6.36-.9,1.8-.74.19.57-1.71Z"/><path class="cls-41" d="M257.47,28.43a6.71,6.71,0,0,1,1.57-.6,2.49,2.49,0,0,1,2,.13,2,2,0,0,1,1,1.34,2.05,2.05,0,0,1-.68,2.15v0a2.17,2.17,0,0,1,2,1.75,2.61,2.61,0,0,1-.14,1.84,3.12,3.12,0,0,1-2.16,1.4,9,9,0,0,1-1.4.26Zm1.78,3.22.8-.21a1.41,1.41,0,0,0,1.11-1.8c-.25-1-1-1.22-1.86-1a3.29,3.29,0,0,0-.76.27Zm1.05,4.05a4.24,4.24,0,0,0,.75-.14,1.7,1.7,0,1,0-.86-3.27l-.73.19Z"/><path class="cls-41" d="M268.75,30.16l-2.66.69.79,3,3-.78.24.92-3.85,1L264,26.6l3.7-1,.23.92-2.81.73.69,2.67,2.66-.69Z"/><path class="cls-41" d="M277,31.94a3.87,3.87,0,0,1-1.7.87c-1.93.5-3.77-.62-4.49-3.39s.3-4.81,2.42-5.37A3.21,3.21,0,0,1,275,24V25a2.81,2.81,0,0,0-1.47,0c-1.6.42-2.34,2-1.76,4.18.53,2.06,1.84,3.14,3.51,2.71a3.07,3.07,0,0,0,1.35-.73Z"/><path class="cls-42" d="M24.24,9.94a1,1,0,1,0-1,1A1,1,0,0,0,24.24,9.94Z"/><path class="cls-42" d="M101.88,49a1,1,0,1,0-1,1A1,1,0,0,0,101.88,49Z"/><path class="cls-42" d="M85.32,2.18A1.23,1.23,0,1,0,84.09,3.4,1.23,1.23,0,0,0,85.32,2.18Z"/><path class="cls-42" d="M66.94,25.14a.7.7,0,0,0-.71-.7.7.7,0,0,0-.7.7.7.7,0,0,0,.7.71A.71.71,0,0,0,66.94,25.14Z"/><path class="cls-42" d="M23.93,49a.71.71,0,0,0-1.42,0,.71.71,0,0,0,1.42,0Z"/><path class="cls-42" d="M114.89,15.35a.71.71,0,1,0-.7.7A.7.7,0,0,0,114.89,15.35Z"/><path class="cls-42" d="M9.39,72.47a1,1,0,1,0-1,1A1,1,0,0,0,9.39,72.47Z"/><path class="cls-42" d="M87,111.49a1,1,0,1,0-1,1A1,1,0,0,0,87,111.49Z"/><circle class="cls-42" cx="69.24" cy="64.71" r="1.22"/><path class="cls-42" d="M52.09,87.67a.71.71,0,1,0-.71.71A.71.71,0,0,0,52.09,87.67Z"/><path class="cls-42" d="M9.08,111.49a.71.71,0,0,0-1.42,0,.71.71,0,0,0,1.42,0Z"/><path class="cls-42" d="M100,77.88a.71.71,0,1,0-.7.7A.7.7,0,0,0,100,77.88Z"/><path class="cls-42" d="M169.5,3.13a1,1,0,1,0-1,1A1,1,0,0,0,169.5,3.13Z"/><path class="cls-42" d="M247.15,42.15a1,1,0,1,0-1,1A1,1,0,0,0,247.15,42.15Z"/><path class="cls-42" d="M212.2,18.33a.7.7,0,0,0-.7-.71.71.71,0,0,0-.71.71.7.7,0,0,0,.71.7A.7.7,0,0,0,212.2,18.33Z"/><path class="cls-42" d="M169.19,42.15a.71.71,0,0,0-.71-.71.71.71,0,1,0,.71.71Z"/><path class="cls-42" d="M260.15,8.53a.7.7,0,0,0-.7-.7.7.7,0,0,0-.71.7.71.71,0,0,0,.71.71A.7.7,0,0,0,260.15,8.53Z"/><path class="cls-42" d="M154.65,65.66a1,1,0,1,0-1,1A1,1,0,0,0,154.65,65.66Z"/><path class="cls-42" d="M232.3,104.67a1,1,0,1,0-1,1A1,1,0,0,0,232.3,104.67Z"/><path class="cls-42" d="M215.73,57.89a1.23,1.23,0,1,0-1.22,1.23A1.22,1.22,0,0,0,215.73,57.89Z"/><path class="cls-42" d="M197.35,80.86a.7.7,0,0,0-.7-.71.71.71,0,0,0-.71.71.7.7,0,0,0,.71.7A.7.7,0,0,0,197.35,80.86Z"/><path class="cls-42" d="M154.34,104.67a.7.7,0,0,0-.71-.7.7.7,0,0,0-.7.7.7.7,0,0,0,.7.71A.71.71,0,0,0,154.34,104.67Z"/><path class="cls-42" d="M245.3,71.06a.7.7,0,0,0-.7-.7.7.7,0,0,0-.71.7.71.71,0,0,0,.71.71A.7.7,0,0,0,245.3,71.06Z"/><path class="cls-42" d="M52.09,122.77a1,1,0,1,0-1,1A1,1,0,0,0,52.09,122.77Z"/><path class="cls-42" d="M160,148.25a1,1,0,1,0-1,1A1,1,0,0,0,160,148.25Z"/><path class="cls-42" d="M113.17,115a1.23,1.23,0,1,0-1.23,1.22A1.23,1.23,0,0,0,113.17,115Z"/><path class="cls-42" d="M94.79,138a.7.7,0,0,0-.7-.71.71.71,0,0,0-.71.71.7.7,0,0,0,.71.7A.7.7,0,0,0,94.79,138Z"/><path class="cls-42" d="M51.78,161.79a.71.71,0,0,0-.71-.71.7.7,0,0,0-.7.71.7.7,0,0,0,.7.7A.7.7,0,0,0,51.78,161.79Z"/><path class="cls-42" d="M142.74,128.17a.7.7,0,0,0-.7-.7.71.71,0,1,0,.7.7Z"/><path class="cls-42" d="M98.32,177.54a1.23,1.23,0,1,0-1.23,1.22A1.23,1.23,0,0,0,98.32,177.54Z"/><path class="cls-42" d="M197.35,116a1,1,0,1,0-1,1A1,1,0,0,0,197.35,116Z"/><path class="cls-42" d="M275,155a1,1,0,1,0-1,1A1,1,0,0,0,275,155Z"/><path class="cls-42" d="M258.43,108.19a1.22,1.22,0,1,0-1.22,1.22A1.22,1.22,0,0,0,258.43,108.19Z"/><path class="cls-42" d="M240.05,131.15a.7.7,0,0,0-.7-.7.7.7,0,0,0-.71.7.71.71,0,0,0,.71.71A.7.7,0,0,0,240.05,131.15Z"/><path class="cls-42" d="M197,155a.7.7,0,0,0-.71-.7.7.7,0,0,0-.7.7.7.7,0,0,0,.7.71A.71.71,0,0,0,197,155Z"/><circle class="cls-42" cx="287.3" cy="121.36" r="0.71"/><path class="cls-42" d="M182.5,178.48a1,1,0,1,0-1,1A1,1,0,0,0,182.5,178.48Z"/><path class="cls-42" d="M243.58,170.72a1.22,1.22,0,1,0-1.22,1.22A1.22,1.22,0,0,0,243.58,170.72Z"/><path class="cls-42" d="M237.16,32.56a1,1,0,1,0-1,1A1,1,0,0,0,237.16,32.56Z"/><path class="cls-42" d="M287.86,3.8A1.22,1.22,0,1,0,286.64,5,1.22,1.22,0,0,0,287.86,3.8Z"/><path class="cls-42" d="M279.86,47.76a.71.71,0,1,0-1.41,0,.71.71,0,0,0,1.41,0Z"/><path class="cls-42" d="M236.85,71.58a.71.71,0,0,0-.71-.71.7.7,0,0,0-.7.71.7.7,0,0,0,.7.7A.7.7,0,0,0,236.85,71.58Z"/><circle class="cls-42" cx="292.99" cy="80.91" r="1.02"/><path class="cls-42" d="M293.7,119.93a.71.71,0,0,0-.71-.71.7.7,0,0,0-.7.71.7.7,0,0,0,.7.7A.7.7,0,0,0,293.7,119.93Z"/><path class="cls-42" d="M286,141a1,1,0,1,0,1-1A1,1,0,0,0,286,141Z"/><path class="cls-42" d="M273,174.58a.7.7,0,0,0,.7.7.7.7,0,0,0,.71-.7.71.71,0,0,0-.71-.71A.7.7,0,0,0,273,174.58Z"/><path class="cls-42" d="M185.44,163.17a1,1,0,1,0,1-1A1,1,0,0,0,185.44,163.17Z"/><path class="cls-42" d="M107.8,124.15a1,1,0,1,0,1-1A1,1,0,0,0,107.8,124.15Z"/><path class="cls-42" d="M154.65,157.39a1.22,1.22,0,1,0,1.22-1.22A1.22,1.22,0,0,0,154.65,157.39Z"/><path class="cls-42" d="M142.74,148a.7.7,0,0,0,.71.7.7.7,0,0,0,.7-.7.7.7,0,0,0-.7-.71A.71.71,0,0,0,142.74,148Z"/><path class="cls-42" d="M185.76,124.15a.7.7,0,0,0,.7.7.7.7,0,0,0,.71-.7.71.71,0,0,0-.71-.71A.7.7,0,0,0,185.76,124.15Z"/><circle class="cls-42" cx="95.5" cy="157.76" r="0.71"/><path class="cls-42" d="M112.85,168.12a1,1,0,1,0,1-1A1,1,0,0,0,112.85,168.12Z"/><path class="cls-42" d="M35.21,129.1a1,1,0,1,0,1-1A1,1,0,0,0,35.21,129.1Z"/><path class="cls-42" d="M51.78,175.89A1.22,1.22,0,1,0,53,174.66,1.22,1.22,0,0,0,51.78,175.89Z"/><path class="cls-42" d="M70.15,152.92a.71.71,0,0,0,.71.71.7.7,0,0,0,.7-.71.7.7,0,0,0-.7-.7A.7.7,0,0,0,70.15,152.92Z"/><path class="cls-42" d="M113.17,129.1a.7.7,0,0,0,.7.71.71.71,0,1,0,0-1.41A.7.7,0,0,0,113.17,129.1Z"/><path class="cls-42" d="M22.2,162.72a.7.7,0,0,0,.71.7.7.7,0,0,0,.7-.7.7.7,0,0,0-.7-.71A.71.71,0,0,0,22.2,162.72Z"/></g></svg>