<?xml version="1.0" encoding="utf-8"?>
<!-- Generator: Adobe Illustrator 22.0.1, SVG Export Plug-In . SVG Version: 6.00 Build 0)  -->
<svg version="1.1" id="Calque_1" xmlns="http://www.w3.org/2000/svg" xmlns:xlink="http://www.w3.org/1999/xlink" x="0px" y="0px"
	 viewBox="0 0 50 50" style="enable-background:new 0 0 50 50;" xml:space="preserve">
<style type="text/css">
	.st0{fill:#443333;}
</style>
<title>Plan de travail 1</title>
<g>
	<path class="st0" d="M16.8,7.4c0.2,0.2,0.5,0.2,0.8,0.2c0.3-0.1,0.5-0.2,0.7-0.4c0.2-0.2,0.2-0.5,0.2-0.8c-0.1-0.3-0.2-0.5-0.4-0.7
		c-0.2-0.2-0.5-0.2-0.8-0.2C17,5.6,16.7,5.7,16.6,6c-0.2,0.2-0.2,0.5-0.2,0.8C16.5,7,16.6,7.3,16.8,7.4z M17,6.2
		C17.1,6.1,17.2,6,17.3,6c0.2,0,0.3,0,0.4,0.1c0.1,0.1,0.2,0.2,0.2,0.4c0,0.2,0,0.3-0.1,0.4c-0.1,0.1-0.2,0.2-0.4,0.2
		c-0.2,0-0.3,0-0.4-0.1C17,7,16.9,6.8,16.9,6.7C16.9,6.5,16.9,6.3,17,6.2z"/>
	<path class="st0" d="M19.1,7.1c0.2,0.1,0.4,0.2,0.6,0.2c0.2,0,0.3-0.1,0.4-0.1c0.1-0.1,0.2-0.2,0.3-0.3c0.1-0.1,0.1-0.3,0.1-0.5
		l-0.1-1.2l-0.5,0l0.1,1.2c0,0.1,0,0.2-0.1,0.3c-0.1,0.1-0.1,0.1-0.3,0.1c-0.1,0-0.2,0-0.3-0.1c-0.1-0.1-0.1-0.2-0.1-0.3l-0.1-1.2
		l-0.5,0l0.1,1.2C18.9,6.8,19,7,19.1,7.1z"/>
	<polygon class="st0" points="21.4,5.5 21.4,7.2 21.9,7.2 21.9,5.5 22.5,5.5 22.5,5.1 20.8,5.2 20.9,5.5 	"/>
	<path class="st0" d="M24.5,7.3c0.3,0,0.5,0,0.8-0.2c0.2-0.2,0.3-0.4,0.4-0.7c0-0.3,0-0.6-0.2-0.8c-0.2-0.2-0.4-0.3-0.7-0.4
		c-0.3,0-0.5,0-0.8,0.2c-0.2,0.2-0.3,0.4-0.4,0.7c0,0.3,0,0.6,0.2,0.8C24,7.2,24.2,7.3,24.5,7.3z M24.1,6.2c0-0.2,0.1-0.3,0.2-0.4
		c0.1-0.1,0.2-0.1,0.4-0.1c0.2,0,0.3,0.1,0.4,0.2c0.1,0.1,0.1,0.3,0.1,0.4c0,0.2-0.1,0.3-0.2,0.4c-0.1,0.1-0.2,0.1-0.4,0.1
		c-0.2,0-0.3-0.1-0.4-0.2C24.1,6.6,24.1,6.4,24.1,6.2z"/>
	<polygon class="st0" points="26.5,6.8 27.1,6.9 27.2,6.5 26.6,6.4 26.6,6 27.5,6.1 27.5,5.7 26.2,5.5 25.8,7.5 26.3,7.6 	"/>
	<polygon class="st0" points="28.7,8.2 29.1,8.3 29.6,6.7 30.2,6.9 30.3,6.5 28.7,6 28.6,6.4 29.2,6.6 	"/>
	<polygon class="st0" points="30.4,8.8 30.7,8 31.4,8.3 31.1,9.1 31.5,9.3 32.3,7.4 31.9,7.2 31.6,7.9 30.8,7.6 31.2,6.9 30.7,6.7 
		29.9,8.6 	"/>
	<polygon class="st0" points="33,10 33.2,9.7 32.5,9.4 32.7,8.9 33.3,9.2 33.5,8.9 32.9,8.6 33.1,8.2 33.8,8.6 34,8.2 32.9,7.6 
		31.9,9.4 	"/>
	<path class="st0" d="M35.3,11.4c0.2,0,0.3-0.1,0.4-0.2c0.1-0.1,0.1-0.2,0.1-0.3c0-0.1-0.1-0.2-0.2-0.3c0.3,0.1,0.5,0,0.6-0.1
		c0.1-0.1,0.1-0.3,0.1-0.4c0-0.2-0.1-0.3-0.3-0.4L35.2,9L34,10.7l0.8,0.5C35,11.4,35.1,11.4,35.3,11.4z M35.4,9.6l0.3,0.2
		c0.1,0,0.1,0.1,0.1,0.1c0,0.1,0,0.1,0,0.2c0,0.1-0.1,0.1-0.1,0.1c-0.1,0-0.1,0-0.2-0.1L35.1,10L35.4,9.6z M34.9,10.3l0.3,0.2
		c0.1,0,0.1,0.1,0.1,0.1c0,0.1,0,0.1,0,0.2c0,0.1-0.1,0.1-0.2,0.1c-0.1,0-0.1,0-0.2,0l-0.3-0.2L34.9,10.3z"/>
	<path class="st0" d="M36.2,11c-0.2,0.2-0.3,0.5-0.3,0.8c0,0.3,0.1,0.5,0.4,0.7c0.2,0.2,0.5,0.3,0.8,0.3c0.3,0,0.5-0.1,0.7-0.4
		c0.2-0.2,0.3-0.5,0.3-0.8c0-0.3-0.1-0.5-0.4-0.7c-0.2-0.2-0.5-0.3-0.8-0.3C36.6,10.6,36.4,10.7,36.2,11z M36.5,11.3
		c0.1-0.1,0.2-0.2,0.4-0.2c0.1,0,0.3,0,0.4,0.1c0.1,0.1,0.2,0.2,0.2,0.4c0,0.1-0.1,0.3-0.2,0.4c-0.1,0.1-0.2,0.2-0.4,0.2
		c-0.1,0-0.3,0-0.4-0.1c-0.1-0.1-0.2-0.2-0.2-0.4C36.4,11.6,36.4,11.4,36.5,11.3z"/>
	<polygon class="st0" points="37.6,13.7 38.2,13.5 38.1,14.2 38.5,14.6 38.8,13.5 40,13.2 39.6,12.8 38.9,13 39.1,12.3 38.7,11.9 
		38.4,13 37.2,13.3 	"/>
	<path class="st0" d="M11.2,33.8c0.2,0.1,0.3,0.2,0.4,0.3c0.1,0.1,0.3,0.3,0.4,0.4c0.1,0.1,0.3,0.2,0.4,0.3c0.1,0.1,0.3,0.1,0.4,0.1
		c0.2,0,0.3-0.1,0.5-0.2c0.1-0.1,0.2-0.2,0.3-0.4c0.1-0.2,0-0.4-0.1-0.5c-0.3-0.3-0.6-0.6-0.9-0.8c-0.4-0.2-0.7-0.5-0.9-0.8
		c-0.3-0.2-0.6-0.5-0.9-0.8c-0.3-0.3-0.7-0.5-1.1-0.8c-0.4-0.3-0.8-0.5-1.2-0.6c-0.4-0.2-0.8-0.3-1.1-0.3c-0.1,0-0.2,0-0.4,0
		c-0.2,0-0.3,0-0.5,0.1c-0.2,0-0.4,0.1-0.5,0.1c-0.2,0-0.3,0.1-0.4,0.2c-0.3,0.2-0.5,0.5-0.6,0.8c-0.1,0.3,0,0.7,0.2,1.3
		c0.2,0.6,0.5,1.4,1,2.4c0.5,1,1.2,2.3,2,3.9c0,0,0,0.1,0.1,0.3c0.1,0.2,0.1,0.3,0.1,0.3l0,0.1c0,0,0,0,0,0c0,0,0,0,0,0
		c-0.1,0.1-0.3,0.1-0.6,0c-0.3-0.1-0.6-0.1-0.9-0.2c-0.3-0.1-0.6-0.2-0.9-0.4c-0.3-0.1-0.5-0.2-0.7-0.3c-0.3-0.1-0.6-0.3-0.9-0.4
		c-0.2-0.2-0.5-0.4-0.7-0.6C3.3,37.1,3,37,2.8,36.8c-0.3-0.1-0.6-0.2-1-0.2c-0.2,0.1-0.3,0.3-0.3,0.5c0,0.2,0,0.4,0.1,0.6
		C2,38.2,2.4,38.6,3,38.9c0.5,0.4,1.1,0.7,1.7,0.9c0.6,0.3,1.2,0.5,1.9,0.6c0.6,0.2,1.2,0.3,1.7,0.3c0.2,0,0.3,0,0.6-0.1
		c0.2-0.1,0.4-0.1,0.5-0.2c0.3-0.2,0.5-0.6,0.4-1.1c0-0.5-0.2-1-0.4-1.6c-0.2-0.6-0.5-1.2-0.9-1.9c-0.4-0.6-0.7-1.3-1-1.9
		c-0.3-0.6-0.6-1.1-0.8-1.6c-0.2-0.5-0.3-0.8-0.2-1l0,0c0.2-0.1,0.4-0.2,0.6-0.2c0.2,0,0.5,0.1,0.8,0.3c0.3,0.1,0.6,0.3,1,0.6
		c0.4,0.2,0.7,0.5,1.1,0.7c0,0,0.1,0.1,0.2,0.2c0.1,0.1,0.3,0.2,0.4,0.4C10.9,33.5,11.1,33.7,11.2,33.8z"/>
	<path class="st0" d="M16.4,37.9c0-0.1-0.1-0.1-0.1-0.2c0-0.1-0.1-0.1-0.1-0.2c-0.1-0.1-0.1-0.1-0.1-0.1c-0.1,0-0.2,0-0.3,0
		c-0.1,0-0.2,0.1-0.2,0.1c-0.2,0.5-0.5,1-0.7,1.5c-0.2,0.5-0.5,1-0.7,1.6c0,0-0.1,0.1-0.1,0.1c0,0.1-0.1,0.1-0.1,0.1
		c-0.4,0.3-0.8,0.6-1.1,0.8c-0.3,0.2-0.5,0.3-0.7,0.4c-0.2,0.1-0.3,0.1-0.4,0.1c-0.1,0-0.2-0.1-0.3-0.1c0-0.1,0-0.1,0-0.3
		c0-0.1,0.1-0.3,0.2-0.6c0.1-0.3,0.3-0.7,0.5-1.2c0.2-0.5,0.6-1.1,1.1-1.9l0.2-0.4c0,0,0-0.1,0-0.1c0-0.1-0.1-0.1-0.1-0.2
		c0-0.1-0.1-0.1-0.2-0.1C13.1,37,13.1,37,13,37c-0.1,0-0.2,0-0.3,0c-0.1,0-0.2,0-0.2,0.1c-0.1,0-0.1,0.1-0.2,0.2
		c0,0.1-0.1,0.2-0.1,0.3c0,0.1-0.1,0.1-0.2,0.3c-0.1,0.1-0.1,0.3-0.2,0.4c-0.1,0.2-0.2,0.3-0.3,0.5c-0.1,0.2-0.2,0.3-0.3,0.5
		c-0.1,0.2-0.2,0.3-0.2,0.4C11,39.7,11,39.8,11,39.8l-0.1,0.3c-0.1,0.2-0.2,0.4-0.3,0.7c-0.1,0.3-0.1,0.5-0.2,0.8
		c0,0.3,0,0.5,0.1,0.7c0.1,0.2,0.3,0.4,0.5,0.5c0.2,0.1,0.4,0.1,0.7,0.1c0.2,0,0.5-0.1,0.7-0.2c0.2-0.1,0.5-0.2,0.7-0.4
		c0.2-0.2,0.4-0.3,0.5-0.4c0,0.1,0,0.3-0.1,0.5c-0.1,0.2-0.1,0.4-0.2,0.7c-0.1,0.3-0.2,0.5-0.2,0.8C13,44.1,13,44.3,13,44.6
		c0,0.2,0,0.4,0,0.6c0,0.2,0.1,0.3,0.3,0.3c0.3,0.1,0.5,0,0.7-0.3l0.1-0.1c0,0,0-0.1,0.1-0.2c0-0.1,0.1-0.3,0.1-0.4
		c0-0.2,0.1-0.3,0.1-0.4c0-0.1,0.1-0.2,0.1-0.3c0.1-0.4,0.2-0.7,0.3-1.1c0.1-0.4,0.2-0.7,0.3-1.1l1.5-3.5C16.4,38,16.4,38,16.4,37.9
		z"/>
	<path class="st0" d="M23,38.5c-0.1-0.1-0.2-0.2-0.5-0.3l-0.1,0c-0.2,0.1-0.3,0.1-0.4,0.3c-0.1,0.1-0.2,0.2-0.2,0.4
		c-0.1,0.1-0.1,0.3-0.2,0.4c-0.1,0.1-0.1,0.3-0.2,0.4l-1.6,3.5l-0.1,0.1c0,0,0,0,0,0c0,0,0,0,0,0c0,0,0-0.1-0.1-0.2
		c0-0.1-0.1-0.1-0.1-0.2l-1.2-3.7c0-0.1-0.1-0.2-0.2-0.3c-0.1-0.1-0.2-0.2-0.3-0.2c-0.1,0-0.2,0-0.3,0.1c-0.1,0.1-0.1,0.2-0.2,0.3
		c0,0.1,0,0.2-0.1,0.3c0,0.2-0.1,0.3-0.1,0.5c0,0.2-0.1,0.4-0.1,0.5c0,0.2,0,0.3-0.1,0.4c-0.1,0.9-0.3,1.8-0.4,2.7
		c-0.1,0.9-0.2,1.8-0.4,2.7c0,0.1,0.1,0.3,0.2,0.3c0.1,0.1,0.2,0.1,0.3,0.1c0.1,0,0.2,0,0.3-0.1c0.1-0.1,0.1-0.1,0.2-0.2
		c0,0,0-0.1,0-0.2c0-0.1,0-0.2,0.1-0.3c0-0.1,0-0.2,0.1-0.3c0-0.1,0-0.2,0-0.2c0.1-0.5,0.1-1,0.2-1.5c0.1-0.5,0.1-1,0.2-1.5l0.2-1.1
		l0.2,0.6l1.2,2.7c0,0.1,0,0.1,0.1,0.2c0,0.1,0.1,0.1,0.1,0.2c0.1,0.1,0.1,0.1,0.2,0.1c0.1,0,0.1,0.1,0.2,0c0.1,0,0.2,0,0.3-0.1
		c0.1-0.1,0.1-0.1,0.2-0.2c0-0.1,0.1-0.2,0.1-0.3c0-0.1,0-0.2,0.1-0.3l1.5-3.4l0.1-0.1c0,0.2,0,0.3,0,0.5c0,0.2,0,0.3-0.1,0.5
		c0,0.2,0,0.3-0.1,0.5c0,0.2,0,0.3-0.1,0.5l0,0.1l-0.1,2.9l0.1,0.7c0,0,0,0.1,0.1,0.2c0.1,0.1,0.1,0.1,0.1,0.1c0,0,0,0,0.1,0
		c0,0,0.1,0,0.1,0c0.2,0,0.3,0,0.4-0.1c0.1-0.1,0.1-0.2,0.2-0.4c0,0,0-0.1,0-0.2c0-0.1,0-0.2,0-0.3c0-0.1,0-0.2,0-0.3
		c0-0.1,0-0.1,0-0.2c0-0.1,0-0.2,0-0.4c0-0.2,0-0.4,0-0.6c0-0.2,0-0.4,0-0.6c0-0.2,0-0.3,0-0.4l0,0c0,0,0-0.2,0-0.3
		c0-0.2,0-0.4,0.1-0.6c0-0.2,0-0.5,0.1-0.7c0-0.3,0-0.5,0.1-0.7c0-0.2,0-0.4,0-0.6c0-0.2,0-0.3,0-0.3c0-0.1,0-0.3,0.1-0.5
		c0-0.2,0-0.4,0-0.6C23.1,38.8,23.1,38.6,23,38.5z"/>
	<path class="st0" d="M30.6,40.3c0-0.1,0-0.2-0.1-0.3c0-0.2-0.1-0.3-0.1-0.5c0-0.2-0.1-0.4-0.1-0.5c0-0.2-0.1-0.3-0.1-0.3
		c-0.1-0.1-0.1-0.2-0.2-0.3c-0.1-0.1-0.2-0.1-0.3,0c-0.1,0-0.2,0.1-0.3,0.2c-0.1,0.1-0.1,0.2-0.2,0.4l-1,3.8c0,0,0,0.1-0.1,0.2
		c0,0.1-0.1,0.2-0.1,0.2c0,0,0,0,0,0c0,0,0,0,0,0l-0.1-0.1L26,39.5c-0.1-0.1-0.2-0.2-0.2-0.3c-0.1-0.1-0.1-0.3-0.2-0.4
		c-0.1-0.1-0.2-0.2-0.3-0.4c-0.1-0.1-0.2-0.2-0.4-0.2l-0.1,0c-0.2,0-0.4,0.1-0.4,0.3c-0.1,0.1-0.1,0.3-0.1,0.5c0,0.2,0,0.4,0.1,0.6
		c0,0.2,0.1,0.4,0.1,0.5c0,0.1,0,0.2,0.1,0.3c0,0.2,0.1,0.4,0.1,0.6c0,0.2,0.1,0.5,0.1,0.7c0,0.3,0.1,0.5,0.1,0.7
		c0,0.2,0.1,0.4,0.1,0.6c0,0.2,0,0.3,0.1,0.3l0,0c0,0.1,0,0.2,0,0.4c0,0.2,0,0.4,0,0.6c0,0.2,0,0.4,0,0.6c0,0.2,0,0.3,0,0.4
		c0,0,0,0.1,0,0.2c0,0.1,0,0.2,0,0.3c0,0.1,0,0.2,0,0.3c0,0.1,0,0.1,0,0.2c0.1,0.2,0.2,0.3,0.2,0.4c0.1,0.1,0.2,0.1,0.4,0.1
		c0,0,0.1,0,0.1,0c0,0,0.1,0,0.1,0c0,0,0.1-0.1,0.1-0.2c0.1-0.1,0.1-0.1,0.1-0.2l0-0.7l-0.3-2.8l0-0.1c0-0.1-0.1-0.3-0.1-0.5
		c0-0.2-0.1-0.3-0.1-0.5c0-0.2-0.1-0.3-0.1-0.5c0-0.2,0-0.3,0-0.5l0.1,0.1l1.7,3.3c0,0.1,0.1,0.2,0.1,0.3c0,0.1,0.1,0.2,0.1,0.3
		c0.1,0.1,0.1,0.2,0.2,0.2c0.1,0.1,0.2,0.1,0.3,0c0.1,0,0.1,0,0.2-0.1c0.1,0,0.1-0.1,0.1-0.1c0-0.1,0.1-0.1,0.1-0.2
		c0-0.1,0-0.1,0-0.2l1-2.8l0.1-0.6l0.2,1c0.1,0.5,0.2,1,0.3,1.5c0.1,0.5,0.2,1,0.3,1.5c0,0,0,0.1,0,0.2c0,0.1,0,0.2,0.1,0.3
		c0,0.1,0.1,0.2,0.1,0.3c0,0.1,0,0.2,0,0.2c0.1,0.1,0.1,0.2,0.2,0.2c0.1,0.1,0.2,0.1,0.3,0.1c0.2,0,0.3-0.1,0.3-0.2
		c0.1-0.1,0.1-0.2,0.1-0.3c-0.2-0.9-0.4-1.8-0.5-2.7C31,42.1,30.8,41.2,30.6,40.3z"/>
	<path class="st0" d="M36.9,40.9c-0.1-0.1-0.1-0.1-0.2-0.1c0,0-0.1,0-0.2,0c-0.1,0-0.1,0-0.1,0.1c0,0,0,0-0.1,0.1
		c-0.1,0.1-0.1,0.1-0.1,0.2c-0.3,0.5-0.6,1-0.7,1.3c-0.2,0.4-0.3,0.6-0.5,0.8c-0.1,0.2-0.2,0.4-0.2,0.5c0,0.1-0.1,0.2-0.1,0.2
		c0,0-0.1,0.1-0.1,0.2c-0.1,0.1-0.1,0.1-0.1,0.1l0,0c-0.1-0.3-0.1-0.6-0.2-0.9c-0.1-0.3-0.2-0.6-0.2-0.9c0,0,0-0.1,0-0.1
		c0-0.1,0-0.1,0-0.2c0,0,0-0.1,0-0.2l1.6-2c0.1-0.1,0.1-0.2,0.1-0.3c0-0.1,0-0.2,0-0.3c0-0.1-0.1-0.2-0.2-0.3
		c-0.1-0.1-0.2-0.1-0.3-0.1c0,0-0.1,0.1-0.2,0.2c-0.1,0.2-0.3,0.3-0.5,0.5c-0.2,0.2-0.3,0.4-0.5,0.6c-0.2,0.2-0.3,0.3-0.4,0.4l0,0
		l0,0c0,0,0-0.1-0.1-0.2c0-0.1-0.1-0.3-0.1-0.5c0-0.2-0.1-0.4-0.1-0.5c0-0.2-0.1-0.3-0.1-0.4c0,0,0-0.1,0-0.2c0-0.1,0-0.1,0.1-0.1
		l1.3-0.8l0-0.1l1.5-1c0.1-0.1,0.1-0.1,0.1-0.2c0-0.1,0-0.2,0-0.3c0-0.1,0-0.2-0.1-0.2c0,0-0.1-0.1-0.2-0.1c-0.1,0-0.1,0-0.2,0
		c-0.1,0-0.2,0.1-0.4,0.2c-0.2,0.1-0.5,0.3-0.8,0.5c-0.4,0.2-0.9,0.5-1.5,1c0,0,0,0-0.1,0c0,0-0.1,0-0.1,0l0,0c0,0-0.1,0-0.1-0.1
		c0,0-0.1-0.1-0.2,0c-0.3,0-0.4,0.1-0.5,0.3c-0.1,0.1-0.1,0.3-0.1,0.6c0,0.1,0.1,0.3,0.2,0.4c0.1,0.1,0.1,0.2,0.2,0.3
		c0,0.1,0.1,0.2,0.1,0.4c0,0.2,0.1,0.4,0.1,0.6c0.1,0.2,0.1,0.4,0.2,0.6c0,0.2,0.1,0.3,0.1,0.4l0,0.2c0,0.1,0,0.1,0,0.2
		c0,0.1,0,0.1-0.1,0.2c0,0.1,0,0.1-0.1,0.2c0,0.1,0,0.1,0,0.2c0,0.1,0,0.1,0.1,0.2c0,0,0.1,0.1,0.1,0.1c0,0,0.1,0,0.1,0
		c0,0,0.1,0,0.1,0.1c0.1,0.2,0.1,0.3,0.1,0.4c0,0.1,0,0.3,0.1,0.5c0.1,0.3,0.2,0.6,0.2,0.9c0.1,0.3,0.2,0.6,0.3,0.9
		c0.1,0.1,0.2,0.2,0.2,0.2c0.1,0,0.2,0,0.3,0c0.3,0,0.5-0.2,0.7-0.4c0.2-0.2,0.4-0.4,0.5-0.7c0.1-0.3,0.3-0.5,0.4-0.8
		c0.1-0.3,0.2-0.5,0.3-0.7c0.1-0.1,0.1-0.3,0.3-0.4c0.1-0.2,0.2-0.4,0.3-0.6c0.1-0.2,0.2-0.4,0.3-0.6c0.1-0.2,0.1-0.3,0.1-0.4
		C37.1,41.1,37,41,36.9,40.9z"/>
	<path class="st0" d="M48.5,37.7c-0.1-0.2-0.2-0.3-0.3-0.3c-0.1,0-0.3,0-0.4,0c-0.2,0-0.3,0.1-0.5,0.1c-0.2,0.1-0.3,0.1-0.4,0.1
		l-6.7,1.9c0.8-1.2,1.4-2.1,1.8-2.7c0.4-0.6,0.6-1,0.6-1.1c0.1-0.2,0.1-0.3,0.2-0.6c0-0.2,0.1-0.4,0.1-0.6c0-0.2,0-0.4,0-0.6
		c0-0.2-0.1-0.4-0.1-0.6c-0.1-0.2-0.2-0.3-0.3-0.4c-0.1-0.1-0.3-0.1-0.5-0.1c-0.2,0-0.4,0-0.5,0C41.2,33,41,33,40.9,33
		c-0.4,0.1-0.7,0.3-1.1,0.6c-0.3,0.2-0.6,0.5-0.8,0.8l-0.1,0l-0.7,1.2c0,0-0.1,0-0.1-0.1c0-0.1-0.1-0.2-0.2-0.2
		c-0.1-0.1-0.2-0.1-0.3-0.2c-0.1,0-0.3,0-0.5,0c-0.1,0-0.1,0.1-0.2,0.1c0,0-0.1,0.1-0.1,0.1c0,0,0,0.1,0,0.2c0,0.1,0,0.1,0,0.2l0,0
		l0,0c0,0,0,0.1,0.1,0.3c0,0.1,0.1,0.3,0.2,0.4c0.1,0.1,0.1,0.3,0.2,0.4c0.1,0.1,0.1,0.2,0.1,0.2c0,0.1,0,0.2,0,0.3
		c0,0.1,0,0.2-0.1,0.3c0,0.1-0.1,0.2-0.1,0.3c0,0.1,0,0.2,0,0.3c0,0.1,0.1,0.2,0.2,0.2c0.1,0,0.1,0.1,0.2,0.1c0.1,0,0.1,0,0.2,0
		c0.1,0,0.1,0,0.1,0c0.1,0.2,0.2,0.4,0.3,0.6c0.1,0.2,0.1,0.4,0.2,0.6c0,0.1,0,0.2,0,0.2c0,0.1,0,0.2,0,0.2c0,0.1,0.1,0.2,0.1,0.2
		c0.1,0.1,0.1,0.1,0.2,0.2l1.2,2.6c0,0.1,0.1,0.1,0.2,0.2c0.1,0,0.2,0.1,0.2,0.1c0.1,0,0.2,0,0.2,0c0.1,0,0.1,0,0.2,0
		c0.1,0,0.1-0.1,0.2-0.1c0-0.1,0.1-0.1,0.1-0.2c0-0.1,0-0.2,0-0.2c0-0.1,0-0.2-0.1-0.2c-0.1-0.3-0.3-0.6-0.4-1
		c-0.2-0.3-0.3-0.6-0.4-1c0,0,0,0,0-0.1c0,0,0-0.1,0-0.1c0.8-0.3,1.6-0.6,2.3-0.8c0.7-0.2,1.2-0.4,1.7-0.5c0.5-0.1,0.9-0.3,1.3-0.3
		c0.4-0.1,0.7-0.2,1-0.2c0.3-0.1,0.5-0.1,0.7-0.1c0.2,0,0.4-0.1,0.6-0.1l0.2-0.1l0.2-0.1c0-0.1,0-0.1,0.1-0.2c0,0,0.1-0.1,0.1-0.1
		c0,0,0-0.1,0-0.2C48.5,37.9,48.5,37.8,48.5,37.7z M39.5,38.6C39.4,38.6,39.4,38.6,39.5,38.6l-0.1,0.1c-0.1-0.2-0.2-0.4-0.3-0.6
		c-0.1-0.2-0.2-0.4-0.2-0.6l-0.1-0.2c0.3-0.6,0.6-1.1,0.8-1.4c0.2-0.4,0.5-0.7,0.7-0.9c0.2-0.2,0.4-0.4,0.5-0.5
		c0.2-0.1,0.3-0.2,0.4-0.2c0.1,0,0.1,0,0.2-0.1c0.1,0,0.1,0,0.2,0.1c0,0.1,0.1,0.3,0,0.5c0,0.2,0,0.4-0.1,0.6c0,0.2-0.1,0.4-0.2,0.6
		c-0.1,0.2-0.2,0.4-0.2,0.5c-0.4,0.6-0.7,1-1,1.3c-0.2,0.3-0.4,0.5-0.5,0.7C39.6,38.4,39.5,38.5,39.5,38.6z"/>
	<path class="st0" d="M21.6,26.1l0.7,3.1c0,0,11.6,0.4,11.9-5.9c0.3-5.6-3.7-4.8-4.5-4.6c-0.1,0-0.2,0.1-0.2,0.1
		c-1.6,0.8-1.7,1.5-1.3,2.1c0.3,0.4,0.9,0.3,1-0.2c0,0,0-0.1,0.1-0.1c0.2-0.3,0.5-0.5,0.9-0.5c3.4,0.2,2.3,3.6,2.3,3.6
		C28.9,28.1,21.6,26.1,21.6,26.1z"/>
	<path class="st0" d="M22.9,22.1c0.2,0,0.3,0,0.4,0.2c0,0,0,0,0,0.1c0.1,0.2,0.4,0.2,0.5,0c0.2-0.3,0.1-0.6-0.7-0.9c0,0-0.1,0-0.1,0
		c-0.4-0.1-2.2-0.3-1.9,2.3c0.1,0.7,0.5,1.2,1.1,1.6c2.6,1.7,7.2-0.7,7.2-0.7c-2.1,0.7-4.4,0.4-5.1,0.3c0,0,0,0,0,0c0,0,0,0,0,0
		c-0.1,0-0.2,0-0.2,0l0,0c-0.7-0.1-1.5-0.4-2-1C22,23.8,21.4,22.2,22.9,22.1z"/>
	<path class="st0" d="M32.4,27.4c-3.6,3.8-10.1,2.3-10.1,2.3l0.5,3.4c8.2,2.6,11.6-2.7,14-5.7c1.5-1.8,3.1-1.6,4.2-1.2
		c0.6,0.2,0.9,0.8,1,1.4c0,0,0,0,0,0c0.1,0.4,0.6,0.4,0.8,0.2c1.8-2.2-1.4-3-1.4-3S36,23.5,32.4,27.4z"/>
	<path class="st0" d="M39.4,20.1c-2.1,0.3-0.3,0.7-0.3,0.7s1.6-0.2-0.9,1.2c-2.5,1.4-3.7,0.4-3.7,0.4s0.4,1-0.2,2.2
		c-0.4,1,1.4,0.2,2.2-0.2c0.2-0.1,0.5-0.2,0.7-0.2c0.8-0.1,2.5-0.5,3.2-0.9C41.5,22.6,41.5,19.8,39.4,20.1z"/>
	<path class="st0" d="M1.8,16.8c1.2-0.5,2.4-0.7,3.7-0.7c1.1,0,2.1,0.3,3.1,0.7c1.1,0.4,2.1,0.8,3.2,0.9c1.1,0.1,2.2,0,3.2-0.2
		c0.9-0.2,1.8-0.5,2.5-1.2c-0.3-0.6-0.6-1.3-0.9-1.8c-0.6,0.4-1.2,0.7-1.9,0.9c-0.6,0.2-1.3,0.2-2,0.2c-0.7,0-1.4,0-2.1-0.1
		c-0.6-0.1-1.2-0.3-1.7-0.6c-1.1-0.5-2-1.4-3-2.1C5.3,12.4,4.7,12.2,4,12c0,0.1,0,0.1,0,0.2c0,0,0-0.1,0-0.2c-0.6-0.1-1.3-0.2-2-0.2
		c0,0-0.1,0-0.1,0C1.7,13.6,1.6,15.3,1.8,16.8C1.7,16.8,1.8,16.8,1.8,16.8z"/>
	<path class="st0" d="M18.6,19.8c0.1-0.1,0.2-0.1,0.3-0.1c-0.3-0.9-0.7-1.7-1-2.5c-0.7,0.7-1.7,1.1-2.7,1.2
		c-1.1,0.2-2.2,0.3-3.3,0.2c-1.2-0.1-2.2-0.4-3.3-0.8C7.6,17.3,6.5,17,5.4,17c-1.2,0-2.3,0.2-3.4,0.7c-0.1,0-0.1,0-0.2,0
		C2,19.4,2.4,21,2.9,22.3c0-0.1,0.1-0.2,0.2-0.2c0.6-0.3,1.2-0.6,1.9-0.8c0.7-0.2,1.4-0.3,2.1-0.4c1.4-0.2,2.8-0.3,4.2-0.2
		c0.7,0,1.4,0.2,2,0.4c0.7,0.1,1.4,0.1,2,0.1c0.5-0.1,1.1-0.2,1.7-0.3c-0.6-1.4-1.1-2.2-1.1-2.2c0.5,0.7,1,1.4,1.4,2.1
		C17.7,20.5,18.3,20.2,18.6,19.8z"/>
	<path class="st0" d="M6.4,4.9c0,0-2.1,2.2-2.3,6.2c0.6,0.1,1.2,0.3,1.8,0.6c1.1,0.6,1.9,1.5,2.9,2.1c0.5,0.3,1.1,0.6,1.7,0.7
		c0.6,0.2,1.3,0.2,2,0.2c0.7,0,1.3,0,2-0.1c0.7-0.2,1.3-0.5,1.8-0.9c0,0,0,0,0,0c-0.5-0.9-1-1.7-1.5-2.5c2.5-1.2,5.2-1.9,7.9-1.9
		c7,0,13.4,4.2,16.2,10.6l1.1-0.5c-3-6.9-9.8-11.3-17.3-11.3c-3,0-6,0.7-8.6,2.1c-4.5-6.1-8.9-7-8.9-7C3.6,6,2.6,8.6,2.1,11
		c0.6,0,1.2,0,1.8,0.1C4,9.6,4.2,6.9,6.4,4.9z"/>
	<path class="st0" d="M6.6,28.2c3.2,1.3,6.3,3.2,9,5.4c1.8,1.5,4.2,2.2,6.6,1.8l0.6-0.1c-0.8-6-2.1-10.9-3.5-14.8
		c-0.5,0.5-1,0.8-1.6,1c3,6.3,1.1,12.4,1.1,12.4c0.8-5.2-0.3-9.6-1.4-12.3c-0.4,0.1-0.8,0.2-1.2,0.3C15.4,22,14.7,22,13.9,22
		c-0.7,0-1.4-0.2-2.1-0.4c-1.4-0.3-2.9-0.1-4.3,0.1c-1.4,0.2-2.8,0.5-4.1,1.1c-0.2,0.1-0.3,0.1-0.5,0c1.3,3.3,3,5.2,3,5.2L6.6,28.2z
		"/>
</g>
</svg>
