<svg xmlns="http://www.w3.org/2000/svg" xmlns:xlink="http://www.w3.org/1999/xlink" viewBox="0 0 302 181"><defs><style>.cls-1{fill:none;}.cls-2{clip-path:url(#clip-path);}.cls-3{fill:#5f8ea0;}.cls-4{fill:#b6b1bc;}.cls-10,.cls-11,.cls-13,.cls-14,.cls-15,.cls-16,.cls-19,.cls-20,.cls-21,.cls-22,.cls-4,.cls-5,.cls-7{fill-rule:evenodd;}.cls-5{fill:#d0ccd6;opacity:0.86;}.cls-6,.cls-7{fill:#97949b;}.cls-10,.cls-8{fill:#dc8060;}.cls-11,.cls-9{fill:#203350;}.cls-12{fill:#d5812e;}.cls-13{fill:#355364;}.cls-14{fill:#c16f4e;}.cls-15,.cls-17{fill:#fff;}.cls-16{fill:#8bc09b;}.cls-18,.cls-19{fill:#cbe1d0;}.cls-20{fill:#849fb2;}.cls-21{fill:#93b3bc;}.cls-22{fill:#8e8d99;}</style><clipPath id="clip-path"><rect class="cls-1" x="0.19" y="-0.13" width="301.81" height="181.13"/></clipPath></defs><title>Plan de travail 1</title><g id="Calque_1" data-name="Calque 1"><g class="cls-2"><rect class="cls-3" x="0.19" y="-0.13" width="301.81" height="181.13"/><polygon class="cls-4" points="0.19 -0.13 302 -0.13 302 102.82 185.22 100.25 116.2 124.09 0.19 124.09 0.19 -0.13"/><path class="cls-5" d="M133.37,32h-2a1.05,1.05,0,0,1-1.07-1h0a1.06,1.06,0,0,1,1.07-1h15.48a1.05,1.05,0,0,0,1.06-1h0a1.05,1.05,0,0,0-1.06-1H129.27a1.06,1.06,0,0,1-1.07-1h0a1.06,1.06,0,0,1,1.07-1h21.07a1.06,1.06,0,0,0,1.07-1h0a1.06,1.06,0,0,0-1.07-1H111.4a1.06,1.06,0,0,1-1.07-1h0a1.05,1.05,0,0,1,1.07-1h11.5a1.06,1.06,0,0,0,1.07-1h0a1.06,1.06,0,0,0-1.07-1H90.58a1,1,0,0,1-1.06-1h0a1.06,1.06,0,0,1,1.06-1h2.71a1.06,1.06,0,0,0,1.07-1h0a1.06,1.06,0,0,0-1.07-1H70.71a1.07,1.07,0,0,1-1.07-1h0a1.07,1.07,0,0,1,1.07-1h40.36a1.06,1.06,0,0,0,1.07-1h0a1.06,1.06,0,0,0-1.07-1H60.58a1.06,1.06,0,0,1-1.06-1h0a1.06,1.06,0,0,1,1.06-1h64.67a1.06,1.06,0,0,1,1.06,1h0a1.06,1.06,0,0,1-1.06,1h-4a1.06,1.06,0,0,0-1.06,1h0a1.06,1.06,0,0,0,1.06,1h9.83a1.06,1.06,0,0,1,1.07,1h0a1.06,1.06,0,0,1-1.07,1H101.7a1.06,1.06,0,0,0-1.07,1h0a1.06,1.06,0,0,0,1.07,1h68a1.05,1.05,0,0,1,1.06,1h0a1,1,0,0,1-1.06,1H139.58a1.06,1.06,0,0,0-1.07,1h0a1.06,1.06,0,0,0,1.07,1h42.7a1.06,1.06,0,0,1,1.07,1h0a1.07,1.07,0,0,1-1.07,1H159.36a1.06,1.06,0,0,0-1.07,1h0a1.06,1.06,0,0,0,1.07,1h25.76a1.06,1.06,0,0,1,1.07,1h0a1.06,1.06,0,0,1-1.07,1H162.65a1.06,1.06,0,0,0-1.06,1h0a1.06,1.06,0,0,0,1.06,1h4a1.06,1.06,0,0,1,1.07,1h0a1.05,1.05,0,0,1-1.07,1H133.37Zm60.86-6.24h-5a1.06,1.06,0,0,0-1.07,1h0a1.06,1.06,0,0,0,1.07,1h5a1.06,1.06,0,0,0,1.07-1h0a1.06,1.06,0,0,0-1.07-1Zm-58.5-12.49a1.06,1.06,0,0,0-1.06,1h0a1.06,1.06,0,0,0,1.06,1h7.09a1.06,1.06,0,0,0,1.06-1h0a1.06,1.06,0,0,0-1.06-1Z"/><path class="cls-5" d="M204.32,10.14h13a1.06,1.06,0,0,1,1.07,1h0a1.06,1.06,0,0,1-1.07,1h-4a1.06,1.06,0,0,0-1.07,1h0a1.05,1.05,0,0,0,1.07,1H219a1,1,0,1,1,0,2.09h-.85a1.05,1.05,0,0,0-1.07,1h0a1.06,1.06,0,0,0,1.07,1h15a1.06,1.06,0,0,1,1.06,1h0a1.06,1.06,0,0,1-1.06,1h-4.63a1.06,1.06,0,0,0-1.07,1h0a1.06,1.06,0,0,0,1.07,1h21.82a1.06,1.06,0,0,1,1.07,1h0a1.06,1.06,0,0,1-1.07,1h-7.21a1.06,1.06,0,0,0-1.07,1h0a1.06,1.06,0,0,0,1.07,1h4.56a1.05,1.05,0,0,1,1.06,1h0a1,1,0,0,1-1.06,1H238.9a1.06,1.06,0,0,0-1.06,1.05h0a1.06,1.06,0,0,0,1.06,1h4A1.05,1.05,0,0,1,244,32h0a1.06,1.06,0,0,1-1.07,1H228.59a1.06,1.06,0,0,1-1.06-1h0a1,1,0,0,1,1.06-1h1.52a1.06,1.06,0,0,0,1.07-1h0a1.06,1.06,0,0,0-1.07-1.05h-3.58a1.05,1.05,0,0,1-1.07-1h0a1.06,1.06,0,0,1,1.07-1H227a1.06,1.06,0,0,0,1.07-1h0a1.06,1.06,0,0,0-1.07-1H219.9a1.06,1.06,0,0,1-1.06-1h0a1.06,1.06,0,0,1,1.06-1h1.81a1.05,1.05,0,0,0,1.06-1h0a1.05,1.05,0,0,0-1.06-1H209.63a1.06,1.06,0,0,1-1.07-1h0a1.05,1.05,0,0,1,1.07-1h1.8a1.06,1.06,0,0,0,1.07-1h0a1.05,1.05,0,0,0-1.07-1h-4.74a1.06,1.06,0,0,1-1.07-1.05h0a1.06,1.06,0,0,1,1.07-1H209a1.05,1.05,0,0,0,1.07-1h0a1.06,1.06,0,0,0-1.07-1h-4.65a1.06,1.06,0,0,1-1.07-1h0a1.06,1.06,0,0,1,1.07-1Zm16.29,5.2"/><path class="cls-5" d="M279,64.38h13a1.06,1.06,0,0,1,1.07,1h0a1.06,1.06,0,0,1-1.07,1h-4a1.06,1.06,0,0,0-1.07,1h0a1.06,1.06,0,0,0,1.07,1h5.63a1,1,0,1,1,0,2.08h-.85a1.06,1.06,0,0,0-1.07,1h0a1.05,1.05,0,0,0,1.07,1h15a1.06,1.06,0,0,1,1.06,1h0a1.06,1.06,0,0,1-1.06,1h-4.63a1.06,1.06,0,0,0-1.07,1h0a1.06,1.06,0,0,0,1.07,1H325a1.06,1.06,0,0,1,1.07,1h0A1.06,1.06,0,0,1,325,79h-7.21a1.06,1.06,0,0,0-1.07,1h0a1.06,1.06,0,0,0,1.07,1h4.56a1.06,1.06,0,0,1,1.06,1h0a1.06,1.06,0,0,1-1.06,1h-8.83a1.06,1.06,0,0,0-1.06,1h0a1,1,0,0,0,1.06,1h4a1.06,1.06,0,0,1,1.07,1h0a1.06,1.06,0,0,1-1.07,1H303.24a1.06,1.06,0,0,1-1.06-1h0a1.06,1.06,0,0,1,1.06-1h1.52a1.05,1.05,0,0,0,1.07-1h0a1.06,1.06,0,0,0-1.07-1h-3.59a1.06,1.06,0,0,1-1.06-1h0a1.06,1.06,0,0,1,1.06-1h.49a1.06,1.06,0,0,0,1.07-1h0a1.06,1.06,0,0,0-1.07-1h-7.11a1.06,1.06,0,0,1-1.06-1h0a1.06,1.06,0,0,1,1.06-1h1.81a1.06,1.06,0,0,0,1.06-1h0a1.06,1.06,0,0,0-1.06-1H284.27a1.06,1.06,0,0,1-1.06-1h0a1.06,1.06,0,0,1,1.06-1h1.81a1.05,1.05,0,0,0,1.07-1h0a1.06,1.06,0,0,0-1.07-1h-4.74a1.05,1.05,0,0,1-1.07-1h0a1.06,1.06,0,0,1,1.07-1h2.28a1.06,1.06,0,0,0,1.07-1h0a1.06,1.06,0,0,0-1.07-1H279a1.06,1.06,0,0,1-1.07-1h0a1.06,1.06,0,0,1,1.07-1Zm16.29,5.2"/><path class="cls-5" d="M2.93,50.07h13a1.06,1.06,0,0,1,1.07,1h0a1.06,1.06,0,0,1-1.07,1H12a1.05,1.05,0,0,0-1.07,1h0a1.06,1.06,0,0,0,1.07,1h5.63a1,1,0,1,1,0,2.08h-.85a1.06,1.06,0,0,0-1.06,1h0a1.06,1.06,0,0,0,1.06,1H57.14a1.06,1.06,0,0,1,1.06,1h0a1.06,1.06,0,0,1-1.06,1H52.51a1.06,1.06,0,0,0-1.07,1h0a1.06,1.06,0,0,0,1.07,1h9a1.06,1.06,0,0,1,1.07,1h0a1.05,1.05,0,0,1-1.07,1H54.32a1.06,1.06,0,0,0-1.07,1h0a1.06,1.06,0,0,0,1.07,1h4.56a1.05,1.05,0,0,1,1.07,1h0a1.06,1.06,0,0,1-1.07,1H50.05a1.06,1.06,0,0,0-1.06,1h0a1.06,1.06,0,0,0,1.06,1h4a1.06,1.06,0,0,1,1.07,1h0A1.06,1.06,0,0,1,54,73H39.75a1.06,1.06,0,0,1-1.07-1h0a1.06,1.06,0,0,1,1.07-1h1.51a1.06,1.06,0,0,0,1.07-1h0a1.06,1.06,0,0,0-1.07-1H37.68a1.06,1.06,0,0,1-1.07-1h0a1.05,1.05,0,0,1,1.07-1h.48a1.06,1.06,0,0,0,1.07-1h0a1.06,1.06,0,0,0-1.07-1h-7.1a1.05,1.05,0,0,1-1.07-1h0a1.06,1.06,0,0,1,1.07-1h1.8a1.06,1.06,0,0,0,1.07-1h0a1.06,1.06,0,0,0-1.07-1H8.24a1.06,1.06,0,0,1-1.07-1h0a1.06,1.06,0,0,1,1.07-1H10a1.06,1.06,0,0,0,1.07-1h0a1.06,1.06,0,0,0-1.07-1H5.3a1.06,1.06,0,0,1-1.06-1h0a1,1,0,0,1,1.06-1H7.58a1.06,1.06,0,0,0,1.07-1h0a1.05,1.05,0,0,0-1.07-1H2.93a1.06,1.06,0,0,1-1.07-1h0a1.06,1.06,0,0,1,1.07-1Zm16.29,5.21"/><path class="cls-5" d="M172.35,63h2a1.06,1.06,0,0,0,1.07-1h0a1.05,1.05,0,0,0-1.07-1h-1.52a1.06,1.06,0,0,1-1.06-1h0a1,1,0,0,1,1.06-1h3.59a1.06,1.06,0,0,0,1.07-1h0a1.06,1.06,0,0,0-1.07-1H176a1.05,1.05,0,0,1-1.07-1h0a1.06,1.06,0,0,1,1.07-1h18.35a1.06,1.06,0,0,0,1.07-1h0a1.06,1.06,0,0,0-1.07-1h-1.81a1.06,1.06,0,0,1-1.06-1h0a1.06,1.06,0,0,1,1.06-1h14.35a1.06,1.06,0,0,0,1.07-1h0a1.06,1.06,0,0,0-1.07-1h-1.8a1.06,1.06,0,0,1-1.07-1h0a1.05,1.05,0,0,1,1.07-1h4.73a1.06,1.06,0,0,0,1.07-1h0a1.05,1.05,0,0,0-1.07-1h-2.28a1.06,1.06,0,0,1-1.06-1h0a1.06,1.06,0,0,1,1.06-1h4.66a1,1,0,0,0,1.06-1h0a1.06,1.06,0,0,0-1.06-1h-31.7a1.07,1.07,0,0,0-1.07,1h0a1.06,1.06,0,0,0,1.07,1h4a1.06,1.06,0,0,1,1.06,1h0a1.06,1.06,0,0,1-1.06,1H174.6a1,1,0,0,0-1.06,1h0a1.06,1.06,0,0,0,1.06,1h5.05a1.05,1.05,0,0,1,1.07,1h0a1.06,1.06,0,0,1-1.07,1H136a1.06,1.06,0,0,0-1.07,1h0a1.06,1.06,0,0,0,1.07,1h4.63a1.07,1.07,0,0,1,1.07,1h0a1.07,1.07,0,0,1-1.07,1H123.44a1.06,1.06,0,0,0-1.07,1h0a1.06,1.06,0,0,0,1.07,1h7.21a1.06,1.06,0,0,1,1.07,1h0a1.05,1.05,0,0,1-1.07,1H120.6a1.06,1.06,0,0,0-1.07,1h0a1.06,1.06,0,0,0,1.07,1h22.46a1.05,1.05,0,0,1,1.07,1h0a1.06,1.06,0,0,1-1.07,1h-4A1.05,1.05,0,0,0,138,62h0a1.06,1.06,0,0,0,1.07,1h33.26Zm-60.87-6.25h5a1.06,1.06,0,0,1,1.07,1h0a1.06,1.06,0,0,1-1.07,1h-5a1.06,1.06,0,0,1-1.06-1h0a1.06,1.06,0,0,1,1.06-1ZM170,44.3a1.05,1.05,0,0,1,1.07,1h0a1.06,1.06,0,0,1-1.07,1H162.9a1.06,1.06,0,0,1-1.06-1h0a1,1,0,0,1,1.06-1Z"/><path class="cls-5" d="M340.93,47.42h2a1.06,1.06,0,0,0,1.06-1h0a1,1,0,0,0-1.06-1h-1.52a1.06,1.06,0,0,1-1.07-1.05h0a1.06,1.06,0,0,1,1.07-1H345a1.05,1.05,0,0,0,1.07-1h0a1.06,1.06,0,0,0-1.07-1h-.48a1.06,1.06,0,0,1-1.07-1h0a1.06,1.06,0,0,1,1.07-1H362.9a1.06,1.06,0,0,0,1.07-1h0a1.06,1.06,0,0,0-1.07-1h-1.8A1.06,1.06,0,0,1,360,36h0a1.06,1.06,0,0,1,1.07-1h14.34a1.06,1.06,0,0,0,1.07-1h0a1.05,1.05,0,0,0-1.07-1h-1.8a1.06,1.06,0,0,1-1.07-1h0a1.05,1.05,0,0,1,1.07-1h4.74a1.06,1.06,0,0,0,1.07-1.05h0a1.06,1.06,0,0,0-1.07-1H376.1a1.06,1.06,0,0,1-1.07-1h0a1.06,1.06,0,0,1,1.07-1h4.65a1.06,1.06,0,0,0,1.07-1h0a1.06,1.06,0,0,0-1.07-1H349.06a1.06,1.06,0,0,0-1.07,1h0a1.06,1.06,0,0,0,1.07,1h4a1.06,1.06,0,0,1,1.07,1h0a1.06,1.06,0,0,1-1.07,1h-9.83a1.06,1.06,0,0,0-1.07,1h0a1.06,1.06,0,0,0,1.07,1.05h5.05a1,1,0,0,1,1.06,1h0a1.06,1.06,0,0,1-1.06,1H304.56a1,1,0,0,0-1.06,1h0a1.06,1.06,0,0,0,1.06,1h4.63a1.06,1.06,0,0,1,1.07,1h0a1.06,1.06,0,0,1-1.07,1H292a1.06,1.06,0,0,0-1.06,1h0a1.06,1.06,0,0,0,1.06,1h7.22a1.06,1.06,0,0,1,1.06,1h0a1.06,1.06,0,0,1-1.06,1H289.18a1.07,1.07,0,0,0-1.07,1h0a1.06,1.06,0,0,0,1.07,1h22.47a1.06,1.06,0,0,1,1.06,1h0a1.06,1.06,0,0,1-1.06,1.05h-4a1.05,1.05,0,0,0-1.07,1h0a1.06,1.06,0,0,0,1.07,1h33.26Zm-60.86-6.25h5a1.06,1.06,0,0,1,1.07,1h0a1.05,1.05,0,0,1-1.07,1h-5a1.05,1.05,0,0,1-1.07-1h0a1.06,1.06,0,0,1,1.07-1Zm58.5-12.49a1.07,1.07,0,0,1,1.07,1h0a1.07,1.07,0,0,1-1.07,1.05h-7.08a1.06,1.06,0,0,1-1.07-1.05h0a1.06,1.06,0,0,1,1.07-1Z"/><path class="cls-5" d="M79.46,54.7h-2a1.05,1.05,0,0,1-1.06-1h0a1.05,1.05,0,0,1,1.06-1h1.52a1.06,1.06,0,0,0,1.07-1h0a1.06,1.06,0,0,0-1.07-1H75.35a1.06,1.06,0,0,1-1.06-1h0a1.06,1.06,0,0,1,1.06-1h.49a1.06,1.06,0,0,0,1.06-1h0a1,1,0,0,0-1.06-1H57.48a1.06,1.06,0,0,1-1.06-1h0a1,1,0,0,1,1.06-1h1.81a1.05,1.05,0,0,0,1.06-1h0a1.05,1.05,0,0,0-1.06-1H36.67a1.05,1.05,0,0,1-1.07-1h0a1.06,1.06,0,0,1,1.07-1h2.71a1.05,1.05,0,0,0,1.06-1h0a1.05,1.05,0,0,0-1.06-1H16.8a1.06,1.06,0,0,1-1.07-1h0a1.06,1.06,0,0,1,1.07-1H57.15a1.06,1.06,0,0,0,1.07-1h0a1.06,1.06,0,0,0-1.07-1H6.67a1.06,1.06,0,0,1-1.07-1h0a1.05,1.05,0,0,1,1.07-1H71.33a1.05,1.05,0,0,1,1.07,1h0a1.06,1.06,0,0,1-1.07,1h-4a1.06,1.06,0,0,0-1.07,1h0a1.06,1.06,0,0,0,1.07,1H77.2a1.06,1.06,0,0,1,1.07,1h0a1.06,1.06,0,0,1-1.07,1H47.78a1.06,1.06,0,0,0-1.07,1h0a1.06,1.06,0,0,0,1.07,1h68a1.06,1.06,0,0,1,1.07,1h0a1.05,1.05,0,0,1-1.07,1h-4.63a1.06,1.06,0,0,0-1.06,1h0a1.06,1.06,0,0,0,1.06,1h17.17a1.05,1.05,0,0,1,1.07,1h0a1.06,1.06,0,0,1-1.07,1h-7.21a1.05,1.05,0,0,0-1.07,1h0a1.06,1.06,0,0,0,1.07,1h10a1.06,1.06,0,0,1,1.07,1h0a1.06,1.06,0,0,1-1.07,1H108.74a1.06,1.06,0,0,0-1.07,1h0a1.06,1.06,0,0,0,1.07,1h4a1.06,1.06,0,0,1,1.06,1h0a1.06,1.06,0,0,1-1.06,1H79.46Zm60.86-6.24h-5a1.06,1.06,0,0,0-1.06,1h0a1.06,1.06,0,0,0,1.06,1h5a1.06,1.06,0,0,0,1.07-1h0a1.06,1.06,0,0,0-1.07-1ZM81.82,36a1.06,1.06,0,0,0-1.07,1h0a1.06,1.06,0,0,0,1.07,1H88.9A1.06,1.06,0,0,0,90,37h0a1.06,1.06,0,0,0-1.07-1Z"/><rect class="cls-6" x="118.95" y="45.97" width="13.29" height="30.45"/><rect class="cls-6" x="119.88" y="42.58" width="11.43" height="4.02"/><rect class="cls-6" x="122.19" y="41.39" width="6.81" height="1.88"/><rect class="cls-6" x="57.75" y="63.63" width="5.96" height="3"/><rect class="cls-6" x="56.09" y="64.5" width="18.04" height="10.23"/><rect class="cls-6" x="57.75" y="61.03" width="3.04" height="3.48"/><rect class="cls-6" x="57.75" y="59.97" width="3.85" height="1.48"/><rect class="cls-6" x="57.75" y="58.2" width="2.53" height="2.89"/><rect class="cls-6" x="57.75" y="57.32" width="3.2" height="1.23"/><rect class="cls-6" x="83.64" y="47.58" width="10.25" height="22.91"/><rect class="cls-6" x="85.37" y="45.03" width="6.79" height="3.89"/><rect class="cls-6" x="86.27" y="42.08" width="4.99" height="3.47"/><rect class="cls-6" x="87.27" y="41.1" width="2.99" height="1.45"/><rect class="cls-6" x="80.58" y="58.98" width="1.99" height="12.67"/><rect class="cls-6" x="73.86" y="58.98" width="7.5" height="12.67"/><path class="cls-7" d="M75.72,64.91v8.94H100V68.79a1,1,0,0,0,0-.29,1.28,1.28,0,0,0-.91-1.15,1,1,0,0,0,.15-.54A1.39,1.39,0,0,0,98,65.56a1.44,1.44,0,0,0,.21-.75,2,2,0,0,0-2.12-1.73,2.27,2.27,0,0,0-1.83.84,1.86,1.86,0,0,0-.89-.22,1.67,1.67,0,0,0-1.36.64,1.23,1.23,0,0,0-.39-.06,1.13,1.13,0,0,0-.77.29,1.71,1.71,0,0,0-2.37.17,1.1,1.1,0,0,0-.82-.33,1.23,1.23,0,0,0-.67.2,1.66,1.66,0,0,0-1.64-1,1.69,1.69,0,0,0-.56.08,2.25,2.25,0,0,0-4,0,1.3,1.3,0,0,0-.49-.1,1.12,1.12,0,0,0-.92.45A1.54,1.54,0,0,0,79,64a1.51,1.51,0,0,0-.48.08,1.62,1.62,0,0,0-3.17,0A1.18,1.18,0,0,0,75.72,64.91Z"/><rect class="cls-6" x="73.86" y="67.17" width="21.07" height="7.84"/><rect class="cls-6" x="62.4" y="56.53" width="6.24" height="16.87"/><rect class="cls-6" x="63.45" y="54.65" width="4.14" height="2.87"/><rect class="cls-6" x="64" y="52.47" width="3.04" height="2.55"/><rect class="cls-6" x="64.61" y="51.75" width="1.82" height="1.07"/><rect class="cls-6" x="62.4" y="60.73" width="13.74" height="12.67"/><rect class="cls-6" x="61.19" y="56.53" width="6.24" height="16.87"/><rect class="cls-6" x="62.25" y="54.65" width="4.13" height="2.87"/><rect class="cls-6" x="62.8" y="52.47" width="3.04" height="2.55"/><rect class="cls-6" x="63.4" y="51.75" width="1.82" height="1.07"/><rect class="cls-6" x="62.04" y="57.3" width="0.83" height="7.35"/><rect class="cls-6" x="63.9" y="57.3" width="0.83" height="7.35"/><rect class="cls-6" x="65.72" y="57.3" width="0.83" height="7.35"/><rect class="cls-6" x="74.15" y="60.73" width="1.99" height="12.67"/><rect class="cls-6" x="69.34" y="60.73" width="5.59" height="12.67"/><rect class="cls-6" x="70.38" y="61.52" width="0.83" height="7.35"/><rect class="cls-6" x="73.3" y="61.52" width="0.83" height="7.35"/><rect class="cls-6" x="100.97" y="60.05" width="4.94" height="13.35"/><rect class="cls-6" x="101.8" y="58.56" width="3.27" height="2.27"/><rect class="cls-6" x="102.23" y="56.84" width="2.4" height="2.02"/><rect class="cls-6" x="102.71" y="56.27" width="1.44" height="0.85"/><rect class="cls-6" x="100.97" y="63.37" width="10.87" height="10.56"/><rect class="cls-6" x="100.01" y="60.05" width="4.94" height="13.35"/><rect class="cls-6" x="100.85" y="58.56" width="3.27" height="2.27"/><rect class="cls-6" x="101.28" y="56.84" width="2.4" height="2.02"/><rect class="cls-6" x="101.76" y="56.27" width="1.44" height="0.85"/><rect class="cls-6" x="100.68" y="60.66" width="0.66" height="5.81"/><rect class="cls-6" x="102.16" y="60.66" width="0.66" height="5.81"/><rect class="cls-6" x="103.6" y="60.66" width="0.66" height="5.81"/><rect class="cls-6" x="109.05" y="45.97" width="5.4" height="28.89"/><rect class="cls-6" x="107.66" y="45.97" width="2.8" height="28.89"/><rect class="cls-6" x="108.7" y="47.68" width="0.83" height="15.9"/><rect class="cls-6" x="114.45" y="45.97" width="13.29" height="39.86"/><rect class="cls-6" x="116.4" y="57.24" width="4.46" height="17.02"/><rect class="cls-6" x="116.4" y="51.77" width="4.46" height="2.57"/><rect class="cls-6" x="121.65" y="47.68" width="4.46" height="2.57"/><rect class="cls-6" x="115.38" y="42.58" width="11.43" height="4.02"/><rect class="cls-6" x="117.69" y="41.39" width="6.81" height="1.88"/><rect class="cls-6" x="51.79" y="63.63" width="5.96" height="3"/><rect class="cls-6" x="53" y="64.5" width="4.74" height="10.23"/><rect class="cls-6" x="54.71" y="61.03" width="3.04" height="3.48"/><rect class="cls-6" x="53.9" y="59.97" width="3.85" height="1.48"/><rect class="cls-6" x="55.22" y="58.2" width="2.53" height="2.89"/><rect class="cls-6" x="54.55" y="57.32" width="3.2" height="1.23"/><rect class="cls-6" x="54.66" y="67.25" width="1.54" height="1.25"/><rect class="cls-6" x="54.66" y="69.61" width="1.54" height="1.25"/><rect class="cls-6" x="54.66" y="71.96" width="1.54" height="1.25"/><rect class="cls-6" x="55.53" y="61.91" width="1.54" height="1.25"/><rect class="cls-6" x="77.1" y="68.1" width="0.83" height="4.26"/><rect class="cls-6" x="80.02" y="68.1" width="0.83" height="4.26"/><rect class="cls-6" x="83.19" y="68.1" width="0.83" height="4.26"/><rect class="cls-6" x="86.1" y="68.1" width="0.83" height="4.26"/><rect class="cls-6" x="89.26" y="68.1" width="0.83" height="4.26"/><rect class="cls-6" x="92.18" y="68.1" width="0.83" height="4.26"/><rect class="cls-6" x="136.89" y="64.05" width="11.52" height="5.8"/><rect class="cls-6" x="133.68" y="65.74" width="34.88" height="19.78"/><rect class="cls-6" x="136.89" y="59.02" width="5.88" height="6.72"/><rect class="cls-6" x="136.89" y="56.98" width="7.44" height="2.87"/><rect class="cls-6" x="136.89" y="53.55" width="4.89" height="5.59"/><rect class="cls-6" x="136.89" y="51.86" width="6.19" height="2.38"/><rect class="cls-6" x="186.96" y="33.03" width="19.81" height="44.29"/><rect class="cls-6" x="190.3" y="28.1" width="13.12" height="7.53"/><rect class="cls-6" x="192.04" y="22.39" width="9.64" height="6.7"/><rect class="cls-6" x="193.97" y="20.49" width="5.78" height="2.81"/><rect class="cls-6" x="181.03" y="55.06" width="3.84" height="24.49"/><rect class="cls-6" x="184.87" y="33.03" width="19.81" height="44.29"/><rect class="cls-6" x="188.21" y="28.1" width="13.12" height="7.53"/><rect class="cls-6" x="189.95" y="22.39" width="9.64" height="6.7"/><rect class="cls-6" x="191.88" y="20.49" width="5.78" height="2.81"/><rect class="cls-6" x="187.55" y="35.06" width="2.63" height="40.07"/><rect class="cls-6" x="193.46" y="35.06" width="2.63" height="40.07"/><rect class="cls-6" x="199.23" y="35.06" width="2.63" height="40.07"/><rect class="cls-6" x="168.05" y="55.06" width="14.5" height="24.49"/><path class="cls-7" d="M171.64,66.52V83.81h47V74a1.7,1.7,0,0,0,.08-.55,2.47,2.47,0,0,0-1.76-2.23,2.1,2.1,0,0,0,.28-1,2.68,2.68,0,0,0-2.56-2.43,2.83,2.83,0,0,0,.41-1.45c0-1.85-1.85-3.35-4.12-3.35a4.38,4.38,0,0,0-3.54,1.64,3.5,3.5,0,0,0-1.71-.43,3.19,3.19,0,0,0-2.62,1.24,2.32,2.32,0,0,0-.75-.13,2.17,2.17,0,0,0-1.49.56,3.23,3.23,0,0,0-2.14-.77,3.08,3.08,0,0,0-2.45,1.12,2.11,2.11,0,0,0-1.58-.65,2.17,2.17,0,0,0-1.29.4,3.23,3.23,0,0,0-3.18-2,3.88,3.88,0,0,0-1.09.15,4.34,4.34,0,0,0-7.63,0,2.4,2.4,0,0,0-1-.19,2.1,2.1,0,0,0-1.78.86,3.18,3.18,0,0,0-.82-.11,2.85,2.85,0,0,0-.94.15,3.13,3.13,0,0,0-6.12,0A2.23,2.23,0,0,0,171.64,66.52Z"/><rect class="cls-6" x="168.05" y="70.9" width="40.74" height="15.16"/><rect class="cls-6" x="145.88" y="50.32" width="12.07" height="32.61"/><rect class="cls-6" x="147.92" y="46.69" width="7.99" height="5.54"/><rect class="cls-6" x="148.97" y="42.49" width="5.88" height="4.94"/><rect class="cls-6" x="150.15" y="41.08" width="3.52" height="2.07"/><rect class="cls-6" x="145.88" y="58.44" width="26.56" height="24.49"/><rect class="cls-6" x="143.56" y="50.32" width="12.07" height="32.61"/><rect class="cls-6" x="145.59" y="46.69" width="7.99" height="5.54"/><rect class="cls-6" x="146.65" y="42.49" width="5.87" height="4.94"/><rect class="cls-6" x="147.83" y="41.08" width="3.52" height="2.07"/><rect class="cls-6" x="145.19" y="51.81" width="1.6" height="14.2"/><rect class="cls-6" x="148.79" y="51.81" width="1.6" height="14.2"/><rect class="cls-6" x="152.31" y="51.81" width="1.6" height="14.2"/><rect class="cls-6" x="168.6" y="58.44" width="3.84" height="24.49"/><rect class="cls-6" x="159.3" y="58.44" width="10.81" height="24.49"/><rect class="cls-6" x="161.32" y="59.96" width="1.6" height="14.2"/><rect class="cls-6" x="166.96" y="59.96" width="1.6" height="14.2"/><rect class="cls-6" x="220.44" y="57.13" width="9.55" height="25.8"/><rect class="cls-6" x="222.05" y="54.26" width="6.32" height="4.38"/><rect class="cls-6" x="222.89" y="50.93" width="4.65" height="3.91"/><rect class="cls-6" x="223.82" y="49.82" width="2.79" height="1.64"/><rect class="cls-6" x="220.44" y="63.55" width="21.01" height="20.42"/><rect class="cls-6" x="218.6" y="57.13" width="9.55" height="25.8"/><rect class="cls-6" x="220.22" y="54.26" width="6.32" height="4.38"/><rect class="cls-6" x="221.05" y="50.93" width="4.65" height="3.91"/><rect class="cls-6" x="221.99" y="49.82" width="2.79" height="1.64"/><rect class="cls-6" x="219.9" y="58.31" width="1.27" height="11.24"/><rect class="cls-6" x="222.74" y="58.31" width="1.27" height="11.24"/><rect class="cls-6" x="225.53" y="58.31" width="1.27" height="11.24"/><rect class="cls-6" x="236.08" y="29.92" width="10.43" height="55.86"/><rect class="cls-6" x="233.38" y="29.92" width="5.41" height="55.86"/><rect class="cls-6" x="235.39" y="33.22" width="1.6" height="30.75"/><rect class="cls-6" x="246.51" y="29.92" width="25.7" height="58.86"/><rect class="cls-6" x="250.27" y="51.7" width="8.62" height="32.91"/><rect class="cls-6" x="250.27" y="41.12" width="8.62" height="4.97"/><rect class="cls-6" x="260.43" y="33.23" width="8.62" height="4.97"/><rect class="cls-6" x="248.32" y="23.35" width="22.09" height="7.77"/><rect class="cls-6" x="252.78" y="21.06" width="13.16" height="3.63"/><rect class="cls-6" x="125.37" y="64.05" width="11.52" height="5.8"/><rect class="cls-6" x="127.73" y="65.74" width="9.17" height="19.78"/><rect class="cls-6" x="131.02" y="59.02" width="5.88" height="6.72"/><rect class="cls-6" x="129.45" y="56.98" width="7.44" height="2.87"/><rect class="cls-6" x="132.01" y="53.55" width="4.89" height="5.59"/><rect class="cls-6" x="130.7" y="51.86" width="6.19" height="2.38"/><rect class="cls-6" x="130.92" y="71.06" width="2.98" height="2.42"/><rect class="cls-6" x="130.92" y="75.61" width="2.98" height="2.42"/><rect class="cls-6" x="130.92" y="80.16" width="2.98" height="2.42"/><rect class="cls-6" x="132.6" y="60.74" width="2.98" height="2.42"/><rect class="cls-6" x="174.32" y="72.7" width="1.6" height="8.24"/><rect class="cls-6" x="179.96" y="72.7" width="1.6" height="8.24"/><rect class="cls-6" x="186.07" y="72.7" width="1.6" height="8.24"/><rect class="cls-6" x="191.71" y="72.7" width="1.6" height="8.24"/><rect class="cls-6" x="197.82" y="72.7" width="1.6" height="8.24"/><rect class="cls-6" x="203.46" y="72.7" width="1.6" height="8.24"/><path class="cls-7" d="M129.67,79.19a2.26,2.26,0,0,1,2.11,1.21,2.51,2.51,0,0,1,1.38-.39,2.43,2.43,0,0,1,1.72.66A2.11,2.11,0,0,1,137.12,79a2.27,2.27,0,0,1,2.13,1.25,2.74,2.74,0,0,1,1-.18,2.11,2.11,0,0,1,2.23,1.65,2.41,2.41,0,0,1,1.88-.83,2.46,2.46,0,0,1,1.81.75A2.12,2.12,0,0,1,148.37,80a2.52,2.52,0,0,1,1.51.48,2.22,2.22,0,0,1,0-.37,3.25,3.25,0,0,1,6.37,0s0,.11,0,.16h.17a2.13,2.13,0,0,1,1.87,1A3.34,3.34,0,0,1,161,79.93a3.3,3.3,0,0,1,2.84,1.43,2.48,2.48,0,0,1,1.66-.6,2.57,2.57,0,0,1,1.46.43,2,2,0,0,1,2-1.42,2.15,2.15,0,0,1,.68.1,2.25,2.25,0,0,1-.07-.58c0-1.43,1.41-2.58,3.2-2.58A2.91,2.91,0,0,1,176,79.29a2.63,2.63,0,0,1-.05.49,3.19,3.19,0,0,1,.45,0A2.23,2.23,0,0,1,178.53,81a3.65,3.65,0,0,1,1.89-.51,3.24,3.24,0,0,1,3,1.68,2.55,2.55,0,0,1,1.5-.47,2.6,2.6,0,0,1,.56.06.2.2,0,0,1,0-.07,1.36,1.36,0,0,1,2.66,0,.91.91,0,0,1,0,.17,3.55,3.55,0,0,1,1-.16,3.23,3.23,0,0,1,1.8.52,3.47,3.47,0,0,1,6,0,3,3,0,0,1,1.27-.27,2.88,2.88,0,0,1,1.75.56,2.28,2.28,0,0,1,1-.38,2.74,2.74,0,0,1,.7,0,1.84,1.84,0,0,1-.21-.55c-.33-1.41.79-2.75,2.55-3a3.19,3.19,0,0,1,3.7,2,2.14,2.14,0,0,1,.06.5,3,3,0,0,1,.43-.11,2.45,2.45,0,0,1,2.39.92,3.38,3.38,0,0,1,1.74-.79,3.48,3.48,0,0,1,3.32,1.2,2.36,2.36,0,0,1,1.37-.69,2.67,2.67,0,0,1,.56,0l0-.07a1.11,1.11,0,0,1,1.06-1.26,1.33,1.33,0,0,1,1.55.86,1.13,1.13,0,0,1,0,.18,2.88,2.88,0,0,1,1-.32,3.42,3.42,0,0,1,1.89.23,2.93,2.93,0,0,1,2.56-2.16,3.22,3.22,0,0,1,3.72,2.06,2,2,0,0,1,0,.42,1.4,1.4,0,0,1,.28-.06,2.59,2.59,0,0,1,3,1.66,1.55,1.55,0,0,1,0,.21,2.43,2.43,0,0,1,.63-.18,2.61,2.61,0,0,1,1.6.25,1.84,1.84,0,0,1,1.75-2,2.28,2.28,0,0,1,2.51,1.24,2.7,2.7,0,0,1,.59-.17,2.6,2.6,0,0,1,1.6.26,3,3,0,0,1,1.89-1,3.43,3.43,0,0,1,2.37.49,2.4,2.4,0,0,1,1.19-.52,2.54,2.54,0,0,1,.55,0l0-.07a1.11,1.11,0,0,1,1.06-1.26,1.33,1.33,0,0,1,1.55.86.57.57,0,0,1,0,.18,2.87,2.87,0,0,1,1-.32,3.38,3.38,0,0,1,1.88.23,2.93,2.93,0,0,1,2.56-2.16,3.22,3.22,0,0,1,3.72,2.06,2,2,0,0,1,0,.42,1.4,1.4,0,0,1,.28-.06,2.59,2.59,0,0,1,3,1.66,1.55,1.55,0,0,1,0,.21,2.43,2.43,0,0,1,.63-.18,2.19,2.19,0,0,1,.51,0A1.87,1.87,0,0,1,265,81.67a4.75,4.75,0,0,1,4.09-3.34,6.1,6.1,0,0,1,3.14.33V90.53C231.38,90,125.68,90,125.68,90l.44-6.09,2-1.62a1.67,1.67,0,0,1-.66-1.3A2.06,2.06,0,0,1,129.67,79.19Z"/><path class="cls-7" d="M129.67,79.19a2.26,2.26,0,0,1,2.11,1.21,2.51,2.51,0,0,1,1.38-.39,2.43,2.43,0,0,1,1.72.66A2.11,2.11,0,0,1,137.12,79a2.27,2.27,0,0,1,2.13,1.25,2.74,2.74,0,0,1,1-.18,2.11,2.11,0,0,1,2.23,1.65,2.41,2.41,0,0,1,1.88-.83,2.46,2.46,0,0,1,1.81.75A2.12,2.12,0,0,1,148.37,80a2.52,2.52,0,0,1,1.51.48,2.22,2.22,0,0,1,0-.37,3.25,3.25,0,0,1,6.37,0s0,.11,0,.16h.17a2.13,2.13,0,0,1,1.87,1A3.34,3.34,0,0,1,161,79.93a3.3,3.3,0,0,1,2.84,1.43,2.48,2.48,0,0,1,1.66-.6,2.57,2.57,0,0,1,1.46.43,2,2,0,0,1,2-1.42,2.15,2.15,0,0,1,.68.1,2.25,2.25,0,0,1-.07-.58c0-1.43,1.41-2.58,3.2-2.58A2.91,2.91,0,0,1,176,79.29a2.63,2.63,0,0,1-.05.49,3.19,3.19,0,0,1,.45,0A2.23,2.23,0,0,1,178.53,81a3.65,3.65,0,0,1,1.89-.51,3.24,3.24,0,0,1,3,1.68,2.55,2.55,0,0,1,1.5-.47,2.6,2.6,0,0,1,.56.06.2.2,0,0,1,0-.07,1.36,1.36,0,0,1,2.66,0,.91.91,0,0,1,0,.17,3.55,3.55,0,0,1,1-.16,3.23,3.23,0,0,1,1.8.52,3.47,3.47,0,0,1,6,0,3,3,0,0,1,1.27-.27,2.88,2.88,0,0,1,1.75.56,2.28,2.28,0,0,1,1-.38,3.25,3.25,0,0,1,.44,0,2.11,2.11,0,0,0,.05.66,1.8,1.8,0,0,0,.21.56,2.74,2.74,0,0,0-.7,0,2.28,2.28,0,0,0-1,.38,2.89,2.89,0,0,0-1.75-.57,3,3,0,0,0-1.27.28,3.48,3.48,0,0,0-6,0,3.31,3.31,0,0,0-1.8-.51,3.55,3.55,0,0,0-1,.16,1,1,0,0,0,0-.18,1.36,1.36,0,0,0-2.66,0,.22.22,0,0,0,0,.08,2.6,2.6,0,0,0-.56-.06,2.55,2.55,0,0,0-1.5.47,3.24,3.24,0,0,0-3-1.68,3.65,3.65,0,0,0-1.89.5A2.24,2.24,0,0,0,176.4,81a3.19,3.19,0,0,0-.45,0,2.63,2.63,0,0,0,.05-.49,2.91,2.91,0,0,0-3.16-2.58c-1.79,0-3.2,1.15-3.2,2.58a2.25,2.25,0,0,0,.07.58A2.15,2.15,0,0,0,169,81a2,2,0,0,0-2,1.42,2.57,2.57,0,0,0-1.46-.44,2.53,2.53,0,0,0-1.66.6,3.57,3.57,0,0,0-5.62-.1,2.13,2.13,0,0,0-1.87-1h-.17s0-.11,0-.16a3.25,3.25,0,0,0-6.37,0,2.31,2.31,0,0,0,0,.37,2.52,2.52,0,0,0-1.51-.48,2.12,2.12,0,0,0-2.23,1.62,2.45,2.45,0,0,0-1.81-.74,2.41,2.41,0,0,0-1.88.83,2.11,2.11,0,0,0-2.23-1.65,2.74,2.74,0,0,0-1,.18,2.25,2.25,0,0,0-2.13-1.25,2.11,2.11,0,0,0-2.24,1.67,2.43,2.43,0,0,0-1.72-.66,2.51,2.51,0,0,0-1.38.39,2.45,2.45,0,0,0-4.23,0,1.53,1.53,0,0,1-.12-.6,2.06,2.06,0,0,1,2.24-1.82Zm71.79,2.49A3,3,0,0,1,204,79.75a3.18,3.18,0,0,1,3.7,2,2.12,2.12,0,0,1,.06.49,3,3,0,0,1,.43-.1,2.46,2.46,0,0,1,2.39.91,3.65,3.65,0,0,1,5.06.42,2.36,2.36,0,0,1,1.37-.69,2.67,2.67,0,0,1,.56,0l0-.07a1.11,1.11,0,0,1,1.06-1.26,1.32,1.32,0,0,1,1.55.86,1.22,1.22,0,0,1,0,.17,3.1,3.1,0,0,1,1-.31,3.42,3.42,0,0,1,1.89.23,2.91,2.91,0,0,1,2.56-2.16,3.22,3.22,0,0,1,3.72,2.06,2,2,0,0,1,0,.42,1.4,1.4,0,0,1,.28-.06,2.58,2.58,0,0,1,3,1.66,1.55,1.55,0,0,1,0,.21,2.43,2.43,0,0,1,.63-.18,2.61,2.61,0,0,1,1.6.25,1.84,1.84,0,0,1,1.75-2,2.27,2.27,0,0,1,2.51,1.24,2.6,2.6,0,0,1,2.19.08,3,3,0,0,1,1.89-1,3.43,3.43,0,0,1,2.37.49,2.4,2.4,0,0,1,1.19-.52,2.54,2.54,0,0,1,.55,0l0-.07a1.11,1.11,0,0,1,1.06-1.26,1.32,1.32,0,0,1,1.55.86.55.55,0,0,1,0,.17,3.08,3.08,0,0,1,1-.31,3.38,3.38,0,0,1,1.88.23,2.91,2.91,0,0,1,2.56-2.16,3.22,3.22,0,0,1,3.72,2.06,2,2,0,0,1,0,.42,1.4,1.4,0,0,1,.28-.06,2.58,2.58,0,0,1,3,1.66,1.55,1.55,0,0,1,0,.21,2.43,2.43,0,0,1,.63-.18,2.19,2.19,0,0,1,.51,0A1.85,1.85,0,0,1,265,82.87a4.75,4.75,0,0,1,4.09-3.34,6.1,6.1,0,0,1,3.14.33v-1.2a6.1,6.1,0,0,0-3.14-.33A4.75,4.75,0,0,0,265,81.67a1.87,1.87,0,0,0-1.31,1.47,2.19,2.19,0,0,0-.51,0,2.43,2.43,0,0,0-.63.18,1.55,1.55,0,0,0,0-.21,2.59,2.59,0,0,0-3-1.66,1.4,1.4,0,0,0-.28.06,2,2,0,0,0,0-.42,3.22,3.22,0,0,0-3.72-2.06,2.93,2.93,0,0,0-2.56,2.16A3.38,3.38,0,0,0,251,81a2.87,2.87,0,0,0-1,.32.57.57,0,0,0,0-.18,1.33,1.33,0,0,0-1.55-.86,1.11,1.11,0,0,0-1.06,1.26l0,.07a2.54,2.54,0,0,0-.55,0,2.4,2.4,0,0,0-1.19.52,3.43,3.43,0,0,0-2.37-.49,3,3,0,0,0-1.89,1,2.6,2.6,0,0,0-1.6-.26,2.7,2.7,0,0,0-.59.17,2.28,2.28,0,0,0-2.51-1.24,1.84,1.84,0,0,0-1.75,2,2.61,2.61,0,0,0-1.6-.25,2.43,2.43,0,0,0-.63.18,1.55,1.55,0,0,0,0-.21,2.59,2.59,0,0,0-3-1.66,1.4,1.4,0,0,0-.28.06,2,2,0,0,0,0-.42,3.22,3.22,0,0,0-3.72-2.06,2.93,2.93,0,0,0-2.56,2.16,3.42,3.42,0,0,0-1.89-.23,2.88,2.88,0,0,0-1,.32,1.13,1.13,0,0,0,0-.18,1.33,1.33,0,0,0-1.55-.86,1.11,1.11,0,0,0-1.06,1.26l0,.07a2.67,2.67,0,0,0-.56,0,2.36,2.36,0,0,0-1.37.69,3.48,3.48,0,0,0-3.32-1.2,3.38,3.38,0,0,0-1.74.79,2.45,2.45,0,0,0-2.39-.92,3,3,0,0,0-.43.11,2.14,2.14,0,0,0-.06-.5,3.19,3.19,0,0,0-3.7-2c-1.76.27-2.88,1.61-2.55,3l0,.11ZM125.77,90l.35-4.89,2-1.62a2,2,0,0,1-.56-.74l-1.41,1.16L125.68,90Z"/><rect class="cls-6" x="53" y="69.62" width="74.85" height="20.4"/><rect class="cls-8" x="0.19" y="90.3" width="48.8" height="17.88"/><rect class="cls-8" x="0.19" y="86.84" width="18.91" height="21.34"/><rect class="cls-9" x="0.19" y="95.29" width="48.8" height="12.89"/><path class="cls-10" d="M26.68,83.48a1.43,1.43,0,1,1,0-2.86H272.21v2.86Z"/><path class="cls-10" d="M26.69,55.9a.73.73,0,0,1-.74-.71.74.74,0,0,1,.73-.72c.15,0,53-.63,89.79,27a.7.7,0,0,1,.13,1,.74.74,0,0,1-1,.13C79.19,55.27,26.84,55.9,26.69,55.9Z"/><path class="cls-10" d="M26.69,47.45a.72.72,0,1,1,0-1.43c.2,0,66.15-1.39,127.1,35.43a.7.7,0,0,1,.24,1,.75.75,0,0,1-1,.23C92.42,46.07,26.88,47.45,26.69,47.45Z"/><path class="cls-10" d="M29.42,46.73a.37.37,0,0,1,.73,0V82.05a.37.37,0,0,1-.73,0Z"/><path class="cls-10" d="M26.32,46.73a.36.36,0,0,1,.36-.35.37.37,0,0,1,.37.35V82.05a.37.37,0,0,1-.37.36.36.36,0,0,1-.36-.36Z"/><path class="cls-10" d="M37.5,47a.37.37,0,0,1,.74,0V82.05a.37.37,0,0,1-.74,0Z"/><path class="cls-10" d="M34.4,47a.37.37,0,0,1,.74,0V82.05a.37.37,0,0,1-.74,0Z"/><path class="cls-10" d="M45.84,47.55a.37.37,0,0,1,.37-.36.36.36,0,0,1,.36.36v34.5a.36.36,0,0,1-.36.36.37.37,0,0,1-.37-.36Z"/><path class="cls-10" d="M42.74,47.55a.37.37,0,0,1,.37-.36.36.36,0,0,1,.36.36v34.5a.36.36,0,0,1-.36.36.37.37,0,0,1-.37-.36Z"/><path class="cls-10" d="M54.12,48.48a.37.37,0,0,1,.73,0V82.05a.37.37,0,0,1-.73,0Z"/><path class="cls-10" d="M51.79,48.48a.37.37,0,0,1,.73,0V82.05a.37.37,0,0,1-.73,0Z"/><path class="cls-10" d="M62.71,49.89a.37.37,0,0,1,.74,0V82.05a.37.37,0,0,1-.74,0Z"/><path class="cls-10" d="M60.39,49.89a.37.37,0,0,1,.73,0V82.05a.37.37,0,0,1-.73,0Z"/><path class="cls-10" d="M71.05,51.07a.37.37,0,0,1,.74,0v31a.37.37,0,0,1-.74,0Z"/><path class="cls-10" d="M68.73,51.07a.36.36,0,0,1,.36-.36.37.37,0,0,1,.37.36v31a.37.37,0,0,1-.37.36.36.36,0,0,1-.36-.36Z"/><path class="cls-10" d="M79.52,52.94a.37.37,0,0,1,.73,0V82.05a.37.37,0,0,1-.73,0Z"/><path class="cls-10" d="M77.57,52.94a.36.36,0,0,1,.36-.36.37.37,0,0,1,.37.36V82.05a.37.37,0,0,1-.37.36.36.36,0,0,1-.36-.36Z"/><path class="cls-10" d="M87.68,54.85a.37.37,0,0,1,.74,0v27.2a.37.37,0,0,1-.74,0Z"/><path class="cls-10" d="M85.9,54.85a.37.37,0,0,1,.74,0v27.2a.37.37,0,0,1-.74,0Z"/><path class="cls-10" d="M96.22,57.29a.36.36,0,0,1,.36-.36.37.37,0,0,1,.37.36V82.05a.37.37,0,0,1-.37.36.36.36,0,0,1-.36-.36Z"/><path class="cls-10" d="M94.76,57.29a.37.37,0,0,1,.37-.36.36.36,0,0,1,.36.36V82.05a.36.36,0,0,1-.36.36.37.37,0,0,1-.37-.36Z"/><path class="cls-10" d="M104.43,60a.37.37,0,0,1,.73,0V82.05a.37.37,0,0,1-.73,0Z"/><path class="cls-10" d="M103,60a.37.37,0,0,1,.74,0V82.05a.37.37,0,0,1-.74,0Z"/><path class="cls-10" d="M112.86,62.92a.37.37,0,0,1,.74,0V82.05a.37.37,0,0,1-.74,0Z"/><path class="cls-10" d="M111.6,62.92a.37.37,0,0,1,.74,0V82.05a.37.37,0,0,1-.74,0Z"/><path class="cls-10" d="M121.29,82.05a.37.37,0,0,1-.37.36.36.36,0,0,1-.36-.36V67L112,79.18a.36.36,0,0,1-.5.09.36.36,0,0,1-.1-.5l9.23-13.07a.37.37,0,0,1,.31-.17.36.36,0,0,1,.37.35Z"/><path class="cls-10" d="M129.25,69.93a.36.36,0,0,1,.37-.35.35.35,0,0,1,.36.35V82.05a.36.36,0,0,1-.36.36.37.37,0,0,1-.37-.36Z"/><path class="cls-10" d="M129.32,69.73a.38.38,0,0,1,.51-.09.36.36,0,0,1,.09.5l-8.7,12.12a.38.38,0,0,1-.51.09.37.37,0,0,1-.09-.5Z"/><path class="cls-10" d="M113.53,80.23a.38.38,0,0,1-.51.1.35.35,0,0,1-.09-.5l7.69-11.11a.38.38,0,0,1,.51-.1.37.37,0,0,1,.1.5Z"/><path class="cls-10" d="M111.68,62.7a.39.39,0,0,1,.51-.07.37.37,0,0,1,.07.51l-8.63,11a.37.37,0,0,1-.51.06.35.35,0,0,1-.07-.5Z"/><path class="cls-10" d="M112.94,63.34a.37.37,0,0,1,.51-.06.35.35,0,0,1,.07.5l-8.63,11a.39.39,0,0,1-.51.07.37.37,0,0,1-.07-.51Z"/><path class="cls-10" d="M103,59.23a.38.38,0,0,1,.52-.07.35.35,0,0,1,.07.5L95.42,70a.37.37,0,0,1-.51.07.35.35,0,0,1-.07-.5Z"/><path class="cls-10" d="M104.31,60.38a.39.39,0,0,1,.51-.07.35.35,0,0,1,.07.5L96.76,71.16a.37.37,0,0,1-.51.06.35.35,0,0,1-.07-.5Z"/><path class="cls-10" d="M86,54.6a.37.37,0,0,1,.51,0,.35.35,0,0,1,0,.51L78.2,63.52a.37.37,0,0,1-.52,0,.34.34,0,0,1,0-.5Z"/><path class="cls-10" d="M87.78,54.88a.37.37,0,0,1,.52,0,.35.35,0,0,1,0,.5l-8.16,8.78a.38.38,0,0,1-.52,0,.35.35,0,0,1,0-.51Z"/><path class="cls-10" d="M94.87,57a.36.36,0,0,1,.51,0,.34.34,0,0,1,0,.5L86.92,66l1,.39,8.8-9a.37.37,0,0,1,.51,0,.35.35,0,0,1,0,.51l-9,9.2a.36.36,0,0,1-.41.1l-1.78-.68a.24.24,0,0,1-.12-.07.35.35,0,0,1,0-.51Z"/><path class="cls-10" d="M77.69,52.67a.36.36,0,0,1,.51,0,.34.34,0,0,1,0,.5l-8.35,7.42,1.49.39L80,53a.37.37,0,0,1,.52,0,.34.34,0,0,1,0,.5l-8.78,8.16a.37.37,0,0,1-.35.1L69,61.15a.37.37,0,0,1-.19-.11.35.35,0,0,1,0-.5Z"/><path class="cls-10" d="M68.84,50.81a.37.37,0,0,1,.52,0,.35.35,0,0,1,0,.5L61.5,58.7,63,59l8.2-7.87a.38.38,0,0,1,.52,0,.35.35,0,0,1,0,.5l-8.33,8a.41.41,0,0,1-.35.11l-2.32-.49a.35.35,0,0,1-.19-.1.34.34,0,0,1,0-.5Z"/><path class="cls-10" d="M60.8,49.35a.37.37,0,0,1,.52,0,.36.36,0,0,1,0,.51L53,57.15l1.39.22,8.47-7.74a.37.37,0,0,1,.52,0,.34.34,0,0,1,0,.5L54.73,58a.38.38,0,0,1-.31.1l-2.32-.38a.39.39,0,0,1-.22-.11.36.36,0,0,1,0-.51Z"/><path class="cls-10" d="M51.92,48.21a.37.37,0,0,1,.51,0,.36.36,0,0,1,0,.51L44,55.93l2.11.24,8.15-7.74a.36.36,0,0,1,.51,0,.34.34,0,0,1,0,.5l-8.27,7.85a.34.34,0,0,1-.3.11l-3.1-.36a.39.39,0,0,1-.24-.12.35.35,0,0,1,0-.5Z"/><path class="cls-10" d="M42.85,47.3a.37.37,0,0,1,.52,0,.35.35,0,0,1,0,.51l-7.75,7.36,2.12.16L46,47.5a.37.37,0,0,1,.52,0,.34.34,0,0,1,0,.5l-8.33,7.93a.36.36,0,0,1-.29.11l-3.1-.22a.36.36,0,0,1-.23-.11.35.35,0,0,1,0-.5Z"/><path class="cls-10" d="M34.51,46.75a.37.37,0,0,1,.51,0,.35.35,0,0,1,0,.51l-7.49,7.58h2.09l8-8a.37.37,0,0,1,.51,0,.35.35,0,0,1,0,.51l-8.07,8.08a.36.36,0,0,1-.28.12h-3.1a.35.35,0,0,1-.25-.1.34.34,0,0,1,0-.5Z"/><path class="cls-10" d="M31.86,82.05a.3.3,0,0,1-.59,0V76.79a1,1,0,0,1,.31-.73,1.08,1.08,0,0,1,.75-.31,1,1,0,0,1,.75.31,1,1,0,0,1,.32.73.29.29,0,0,1-.3.28.28.28,0,0,1-.29-.28.44.44,0,0,0-.14-.33.52.52,0,0,0-.34-.14.48.48,0,0,0-.33.14.44.44,0,0,0-.14.33Z"/><path class="cls-10" d="M33.1,76.53h0a.87.87,0,0,1,.88.86v.69H32.22v-.69A.88.88,0,0,1,33.1,76.53Z"/><path class="cls-10" d="M39.85,82.05a.29.29,0,0,1-.29.29.3.3,0,0,1-.3-.29V76.79a1,1,0,0,1,.32-.73,1,1,0,0,1,.74-.31,1.09,1.09,0,0,1,.76.31,1,1,0,0,1,.31.73.3.3,0,0,1-.59,0,.44.44,0,0,0-.14-.33.48.48,0,0,0-.34-.14.52.52,0,0,0-.33.14.44.44,0,0,0-.14.33Z"/><path class="cls-10" d="M41.09,76.53h0a.87.87,0,0,1,.88.86v.69H40.21v-.69A.88.88,0,0,1,41.09,76.53Z"/><path class="cls-10" d="M48.41,82.05a.3.3,0,0,1-.59,0V76.79a1,1,0,0,1,.31-.73,1.06,1.06,0,0,1,1.5,0,1,1,0,0,1,.31.73.29.29,0,0,1-.58,0,.48.48,0,0,0-.14-.33.52.52,0,0,0-.34-.14.48.48,0,0,0-.33.14.44.44,0,0,0-.14.33Z"/><path class="cls-10" d="M49.65,76.53h0a.87.87,0,0,1,.88.86v.69H48.77v-.69A.88.88,0,0,1,49.65,76.53Z"/><path class="cls-10" d="M57,82.05a.29.29,0,1,1-.58,0V76.79a1,1,0,0,1,.31-.73,1.06,1.06,0,0,1,1.5,0,1,1,0,0,1,.31.73.29.29,0,0,1-.58,0,.48.48,0,0,0-.14-.33.48.48,0,0,0-.68,0,.48.48,0,0,0-.14.33Z"/><path class="cls-10" d="M58.25,76.53h0a.88.88,0,0,1,.88.86v.69H57.37v-.69A.88.88,0,0,1,58.25,76.53Z"/><path class="cls-10" d="M65.54,82.05a.3.3,0,0,1-.59,0V76.79a1,1,0,0,1,.31-.73,1.07,1.07,0,0,1,.75-.31,1,1,0,0,1,.75.31,1,1,0,0,1,.31.73.29.29,0,0,1-.58,0,.48.48,0,0,0-.14-.33.52.52,0,0,0-.34-.14.48.48,0,0,0-.33.14.44.44,0,0,0-.14.33Z"/><path class="cls-10" d="M66.78,76.53h0a.87.87,0,0,1,.88.86v.69H65.9v-.69A.88.88,0,0,1,66.78,76.53Z"/><path class="cls-10" d="M73.94,82.05a.29.29,0,0,1-.58,0V76.79a1,1,0,0,1,.31-.73,1,1,0,0,1,.75-.31,1.07,1.07,0,0,1,.75.31,1,1,0,0,1,.31.73.3.3,0,0,1-.59,0,.44.44,0,0,0-.14-.33.48.48,0,0,0-.33-.14.52.52,0,0,0-.34.14.48.48,0,0,0-.14.33Z"/><path class="cls-10" d="M75.19,76.53h0a.88.88,0,0,1,.88.86v.69H74.31v-.69A.87.87,0,0,1,75.19,76.53Z"/><path class="cls-10" d="M82.6,82.05a.29.29,0,0,1-.58,0V76.79a1,1,0,0,1,.31-.73,1.06,1.06,0,0,1,1.5,0,1,1,0,0,1,.31.73.28.28,0,0,1-.29.28.29.29,0,0,1-.3-.28.47.47,0,0,0-.13-.33.48.48,0,0,0-.68,0,.48.48,0,0,0-.14.33Z"/><path class="cls-10" d="M83.85,76.53h0a.88.88,0,0,1,.88.86v.69H83v-.69A.87.87,0,0,1,83.85,76.53Z"/><path class="cls-10" d="M90.88,82.05a.3.3,0,0,1-.59,0V76.79a1,1,0,0,1,.31-.73,1.08,1.08,0,0,1,.75-.31,1,1,0,0,1,.75.31,1,1,0,0,1,.32.73.29.29,0,0,1-.3.28.28.28,0,0,1-.29-.28.44.44,0,0,0-.14-.33.52.52,0,0,0-.34-.14.48.48,0,0,0-.33.14.44.44,0,0,0-.14.33Z"/><path class="cls-10" d="M92.12,76.53h0a.87.87,0,0,1,.88.86v.69H91.24v-.69A.88.88,0,0,1,92.12,76.53Z"/><path class="cls-10" d="M99.15,82.05a.29.29,0,0,1-.58,0V76.79a1,1,0,0,1,.31-.73,1.06,1.06,0,0,1,1.5,0,1,1,0,0,1,.31.73.3.3,0,0,1-.59,0,.44.44,0,0,0-.14-.33.48.48,0,0,0-.33-.14.52.52,0,0,0-.34.14.48.48,0,0,0-.14.33Z"/><path class="cls-10" d="M100.4,76.53h0a.88.88,0,0,1,.88.86v.69H99.52v-.69A.87.87,0,0,1,100.4,76.53Z"/><path class="cls-10" d="M26.68,80.62a1.43,1.43,0,1,1,0,2.86H.19V80.62Z"/><path class="cls-10" d="M26.68,54.47a.73.73,0,0,1,.73.72.72.72,0,0,1-.73.71A171.38,171.38,0,0,0,.19,58.25V56.81A172.26,172.26,0,0,1,26.68,54.47Z"/><path class="cls-10" d="M26.69,46a.73.73,0,0,1,.72.73.72.72,0,0,1-.74.7A202.62,202.62,0,0,0,.19,49.23V47.79A206.09,206.09,0,0,1,26.69,46Z"/><path class="cls-10" d="M23.22,46.73a.36.36,0,0,1,.36-.35.37.37,0,0,1,.37.35V82.05a.37.37,0,0,1-.37.36.36.36,0,0,1-.36-.36Z"/><path class="cls-10" d="M26.32,37.8a.36.36,0,0,1,.36-.36.37.37,0,0,1,.37.36V82.05a.37.37,0,0,1-.37.36.36.36,0,0,1-.36-.36Z"/><path class="cls-10" d="M15.13,47a.37.37,0,0,1,.73,0V82.05a.37.37,0,0,1-.73,0Z"/><path class="cls-10" d="M18.23,47A.37.37,0,0,1,19,47V82.05a.37.37,0,0,1-.73,0Z"/><path class="cls-10" d="M6.79,47.55a.37.37,0,0,1,.73,0v34.5a.37.37,0,0,1-.73,0Z"/><path class="cls-10" d="M9.89,47.55a.37.37,0,0,1,.73,0v34.5a.37.37,0,0,1-.73,0Z"/><path class="cls-10" d="M.84,48.48a.37.37,0,0,1,.74,0V82.05a.37.37,0,0,1-.74,0Z"/><path class="cls-10" d="M.19,56l1.26,1.1a.35.35,0,0,1,0,.51.36.36,0,0,1-.21.11L.19,57.9v-.72l.21,0L.19,57Z"/><path class="cls-10" d="M1,48.75a.36.36,0,0,1,0-.51.39.39,0,0,1,.52,0l9.05,7.71a.35.35,0,0,1,0,.5.35.35,0,0,1-.23.12l-3.1.36a.36.36,0,0,1-.31-.11L.19,50.43v-1l7.1,6.73,2.11-.24Z"/><path class="cls-10" d="M10,47.81a.36.36,0,0,1,0-.51.37.37,0,0,1,.52,0l8.34,7.92a.34.34,0,0,1,0,.5.38.38,0,0,1-.24.11l-3.1.22a.38.38,0,0,1-.29-.11L6.9,48a.35.35,0,0,1,0-.5.37.37,0,0,1,.52,0l8.22,7.83,2.13-.16Z"/><path class="cls-10" d="M18.33,47.25a.36.36,0,0,1,0-.51.38.38,0,0,1,.52,0L27,54.94a.36.36,0,0,1,0,.5.39.39,0,0,1-.26.1h-3.1a.36.36,0,0,1-.28-.12l-8.07-8.08a.36.36,0,0,1,0-.51.38.38,0,0,1,.52,0l8,8h2.08Z"/><path class="cls-10" d="M4,82.05a.29.29,0,0,1-.58,0V76.79a1,1,0,0,1,.31-.73,1.06,1.06,0,0,1,1.5,0,1,1,0,0,1,.31.73.3.3,0,0,1-.59,0,.44.44,0,0,0-.14-.33.48.48,0,0,0-.33-.14.52.52,0,0,0-.34.14.48.48,0,0,0-.14.33Z"/><path class="cls-10" d="M5.24,76.53h0a.88.88,0,0,1,.88.86v.69H4.36v-.69A.87.87,0,0,1,5.24,76.53Z"/><path class="cls-10" d="M12.27,82.05a.3.3,0,0,1-.3.29.29.29,0,0,1-.29-.29V76.79a1,1,0,0,1,.31-.73,1.06,1.06,0,0,1,1.5,0,1,1,0,0,1,.31.73.29.29,0,0,1-.58,0,.48.48,0,0,0-.14-.33.52.52,0,0,0-.34-.14.48.48,0,0,0-.33.14.44.44,0,0,0-.14.33Z"/><path class="cls-10" d="M13.51,76.53h0a.88.88,0,0,1,.88.86v.69H12.63v-.69A.88.88,0,0,1,13.51,76.53Z"/><path class="cls-10" d="M20.54,82.05a.29.29,0,0,1-.29.29.3.3,0,0,1-.3-.29V76.79a1,1,0,0,1,.32-.73,1,1,0,0,1,.75-.31,1.08,1.08,0,0,1,.75.31,1,1,0,0,1,.31.73.3.3,0,0,1-.59,0,.44.44,0,0,0-.14-.33.48.48,0,0,0-.33-.14.52.52,0,0,0-.34.14.44.44,0,0,0-.14.33Z"/><path class="cls-10" d="M21.78,76.53h0a.87.87,0,0,1,.88.86v.69H20.9v-.69A.88.88,0,0,1,21.78,76.53Z"/><path class="cls-10" d="M26.68,40.24c2.28,1.93,5.36.63,5.49,4.07V41.62C32,38.17,29,39.48,26.68,37.55Z"/><path class="cls-11" d="M160.11,101.24S262.63,98.18,302,117.36V98.18H155.41Z"/><rect class="cls-9" x="144.52" y="53.63" width="11.08" height="30.45"/><rect class="cls-9" x="145.3" y="50.24" width="9.52" height="4.02"/><rect class="cls-9" x="147.22" y="49.05" width="5.67" height="1.88"/><rect class="cls-9" x="93.53" y="71.29" width="4.96" height="3"/><rect class="cls-9" x="92.14" y="72.16" width="15.03" height="10.23"/><rect class="cls-9" x="93.53" y="68.68" width="2.53" height="3.48"/><rect class="cls-9" x="93.53" y="67.63" width="3.21" height="1.48"/><rect class="cls-9" x="93.53" y="65.86" width="2.11" height="2.89"/><rect class="cls-9" x="93.53" y="64.98" width="2.67" height="1.23"/><rect class="cls-9" x="115.11" y="55.24" width="8.54" height="22.91"/><rect class="cls-9" x="116.55" y="52.69" width="5.65" height="3.89"/><rect class="cls-9" x="117.3" y="49.74" width="4.16" height="3.47"/><rect class="cls-9" x="118.13" y="48.75" width="2.49" height="1.45"/><rect class="cls-9" x="112.55" y="66.64" width="1.65" height="12.67"/><rect class="cls-8" x="114.21" y="55.24" width="8.54" height="22.91"/><rect class="cls-8" x="115.65" y="52.69" width="5.65" height="3.89"/><rect class="cls-8" x="116.4" y="49.74" width="4.16" height="3.47"/><rect class="cls-8" x="117.23" y="48.75" width="2.49" height="1.45"/><rect class="cls-9" x="115.36" y="56.29" width="1.14" height="20.73"/><rect class="cls-9" x="117.91" y="56.29" width="1.13" height="20.73"/><rect class="cls-9" x="120.4" y="56.29" width="1.13" height="20.73"/><rect class="cls-12" x="106.96" y="66.64" width="6.25" height="12.67"/><path class="cls-11" d="M108.5,72.56v9h20.25V76.44A1.27,1.27,0,0,0,128,75a1.18,1.18,0,0,0,.12-.53,1.28,1.28,0,0,0-1.1-1.25,1.74,1.74,0,0,0-1.6-2.49,1.79,1.79,0,0,0-1.53.85,1.32,1.32,0,0,0-1.86.42.92.92,0,0,0-.33-.06.87.87,0,0,0-.64.28,1.28,1.28,0,0,0-.92-.39,1.26,1.26,0,0,0-1.06.57.87.87,0,0,0-1.24-.13,1.4,1.4,0,0,0-1.36-1,1.51,1.51,0,0,0-.48.08,1.73,1.73,0,0,0-3.28,0,.92.92,0,0,0-.41-.1.88.88,0,0,0-.77.45,1,1,0,0,0-.36-.06,1.1,1.1,0,0,0-.4.08,1.32,1.32,0,0,0-2.63,0A1.22,1.22,0,0,0,108.5,72.56Z"/><rect class="cls-12" x="106.96" y="74.83" width="17.56" height="7.84"/><rect class="cls-9" x="97.4" y="64.18" width="5.2" height="16.87"/><rect class="cls-9" x="98.28" y="62.31" width="3.45" height="2.87"/><rect class="cls-9" x="98.74" y="60.13" width="2.53" height="2.55"/><rect class="cls-9" x="99.24" y="59.41" width="1.52" height="1.07"/><rect class="cls-9" x="97.4" y="68.38" width="11.45" height="12.67"/><rect class="cls-12" x="96.4" y="64.18" width="5.2" height="16.87"/><rect class="cls-12" x="97.28" y="62.31" width="3.44" height="2.87"/><rect class="cls-12" x="97.74" y="60.13" width="2.53" height="2.55"/><rect class="cls-12" x="98.24" y="59.41" width="1.52" height="1.07"/><rect class="cls-9" x="97.11" y="64.96" width="0.69" height="7.35"/><rect class="cls-9" x="98.66" y="64.96" width="0.69" height="7.35"/><rect class="cls-9" x="100.17" y="64.96" width="0.69" height="7.35"/><rect class="cls-9" x="107.19" y="68.38" width="1.65" height="12.67"/><rect class="cls-12" x="103.19" y="68.38" width="4.66" height="12.67"/><rect class="cls-9" x="104.06" y="69.17" width="0.69" height="7.35"/><rect class="cls-9" x="106.49" y="69.17" width="0.69" height="7.35"/><rect class="cls-9" x="129.54" y="67.71" width="4.11" height="13.35"/><rect class="cls-9" x="130.23" y="66.22" width="2.73" height="2.27"/><rect class="cls-9" x="130.59" y="64.5" width="2" height="2.02"/><rect class="cls-9" x="130.99" y="63.93" width="1.2" height="0.85"/><rect class="cls-9" x="129.54" y="71.03" width="9.06" height="10.56"/><rect class="cls-8" x="128.75" y="67.71" width="4.11" height="13.35"/><rect class="cls-8" x="129.44" y="66.22" width="2.73" height="2.27"/><rect class="cls-8" x="129.8" y="64.5" width="2" height="2.02"/><rect class="cls-8" x="130.2" y="63.93" width="1.2" height="0.85"/><rect class="cls-9" x="129.3" y="68.32" width="0.55" height="5.81"/><rect class="cls-9" x="130.53" y="68.32" width="0.55" height="5.81"/><rect class="cls-9" x="131.73" y="68.32" width="0.55" height="5.81"/><rect class="cls-9" x="136.28" y="53.63" width="4.5" height="28.89"/><rect class="cls-8" x="135.11" y="53.63" width="2.33" height="28.89"/><rect class="cls-9" x="135.98" y="55.34" width="0.69" height="15.9"/><rect class="cls-8" x="140.77" y="53.63" width="11.08" height="39.86"/><rect class="cls-9" x="142.39" y="64.9" width="3.71" height="17.02"/><rect class="cls-9" x="142.39" y="59.43" width="3.71" height="2.57"/><rect class="cls-9" x="146.77" y="55.34" width="3.72" height="2.57"/><rect class="cls-8" x="141.55" y="50.24" width="9.52" height="4.02"/><rect class="cls-8" x="143.47" y="49.05" width="5.67" height="1.88"/><rect class="cls-12" x="88.57" y="71.29" width="4.96" height="3"/><rect class="cls-12" x="89.58" y="72.16" width="3.95" height="10.23"/><rect class="cls-12" x="91" y="68.68" width="2.53" height="3.48"/><rect class="cls-12" x="90.32" y="67.63" width="3.21" height="1.48"/><rect class="cls-12" x="91.42" y="65.86" width="2.11" height="2.89"/><rect class="cls-12" x="90.86" y="64.98" width="2.67" height="1.23"/><rect class="cls-9" x="90.95" y="74.91" width="1.28" height="1.25"/><rect class="cls-9" x="90.95" y="77.27" width="1.28" height="1.25"/><rect class="cls-9" x="90.95" y="79.62" width="1.28" height="1.25"/><rect class="cls-9" x="91.68" y="69.57" width="1.28" height="1.25"/><rect class="cls-9" x="109.66" y="75.76" width="0.69" height="4.26"/><rect class="cls-9" x="112.09" y="75.76" width="0.69" height="4.26"/><rect class="cls-9" x="114.72" y="75.76" width="0.69" height="4.26"/><rect class="cls-9" x="117.16" y="75.76" width="0.69" height="4.26"/><rect class="cls-9" x="119.79" y="75.76" width="0.69" height="4.26"/><rect class="cls-9" x="122.22" y="75.76" width="0.69" height="4.26"/><rect class="cls-9" x="159.47" y="71.71" width="9.6" height="5.8"/><rect class="cls-9" x="156.79" y="73.4" width="29.06" height="19.78"/><rect class="cls-9" x="159.47" y="66.68" width="4.9" height="6.72"/><rect class="cls-9" x="159.47" y="64.64" width="6.2" height="2.87"/><rect class="cls-9" x="159.47" y="61.21" width="4.07" height="5.59"/><rect class="cls-9" x="159.47" y="59.52" width="5.16" height="2.38"/><rect class="cls-9" x="201.18" y="40.69" width="16.5" height="44.29"/><rect class="cls-9" x="203.97" y="35.76" width="10.93" height="7.53"/><rect class="cls-9" x="205.41" y="30.05" width="8.04" height="6.7"/><rect class="cls-9" x="207.02" y="28.15" width="4.81" height="2.81"/><rect class="cls-9" x="196.24" y="62.72" width="3.2" height="24.49"/><rect class="cls-8" x="199.44" y="40.69" width="16.5" height="44.29"/><rect class="cls-8" x="202.23" y="35.76" width="10.93" height="7.53"/><rect class="cls-8" x="203.67" y="30.05" width="8.04" height="6.7"/><rect class="cls-8" x="205.28" y="28.15" width="4.82" height="2.81"/><rect class="cls-9" x="201.68" y="42.72" width="2.19" height="40.07"/><rect class="cls-9" x="206.59" y="42.72" width="2.19" height="40.07"/><rect class="cls-9" x="211.41" y="42.72" width="2.19" height="40.07"/><rect class="cls-8" x="185.43" y="62.72" width="12.08" height="24.49"/><path class="cls-11" d="M188.42,74.18V91.46h39.13V81.68a2.51,2.51,0,0,0,.06-.55,2.47,2.47,0,0,0-1.46-2.24,2.43,2.43,0,0,0-1.91-3.45,3.27,3.27,0,0,0,.34-1.46,3.38,3.38,0,0,0-3.42-3.34,3.45,3.45,0,0,0-2.95,1.64,2.59,2.59,0,0,0-1.43-.43,2.51,2.51,0,0,0-2.18,1.23A1.9,1.9,0,0,0,214,73a1.65,1.65,0,0,0-1.24.56,2.43,2.43,0,0,0-3.82.35,1.64,1.64,0,0,0-1.32-.65,1.7,1.7,0,0,0-1.08.39A2.76,2.76,0,0,0,203,71.76a3.36,3.36,0,0,0-6.36,0,1.72,1.72,0,0,0-2.28.68,2.15,2.15,0,0,0-.68-.11,2.21,2.21,0,0,0-.78.14,2.55,2.55,0,0,0-5.1,0A2.42,2.42,0,0,0,188.42,74.18Z"/><rect class="cls-8" x="185.43" y="78.56" width="33.95" height="15.16"/><rect class="cls-9" x="166.96" y="57.98" width="10.05" height="32.61"/><rect class="cls-9" x="168.65" y="54.35" width="6.66" height="5.54"/><rect class="cls-9" x="169.54" y="50.14" width="4.9" height="4.94"/><rect class="cls-9" x="170.52" y="48.74" width="2.93" height="2.07"/><rect class="cls-9" x="166.96" y="66.1" width="22.13" height="24.49"/><rect class="cls-8" x="165.02" y="57.98" width="10.05" height="32.61"/><rect class="cls-8" x="166.72" y="54.35" width="6.66" height="5.54"/><rect class="cls-8" x="167.6" y="50.14" width="4.9" height="4.94"/><rect class="cls-8" x="168.58" y="48.74" width="2.93" height="2.07"/><rect class="cls-9" x="166.38" y="59.47" width="1.34" height="14.2"/><rect class="cls-9" x="169.38" y="59.47" width="1.34" height="14.2"/><rect class="cls-9" x="172.31" y="59.47" width="1.34" height="14.2"/><rect class="cls-9" x="185.88" y="66.1" width="3.2" height="24.49"/><rect class="cls-8" x="178.14" y="66.1" width="9.01" height="24.49"/><rect class="cls-9" x="179.82" y="67.62" width="1.34" height="14.2"/><rect class="cls-9" x="184.52" y="67.62" width="1.34" height="14.2"/><rect class="cls-9" x="229.08" y="64.79" width="7.96" height="25.8"/><rect class="cls-9" x="230.42" y="61.91" width="5.27" height="4.39"/><rect class="cls-9" x="231.12" y="58.59" width="3.87" height="3.91"/><rect class="cls-9" x="231.9" y="57.48" width="2.32" height="1.64"/><rect class="cls-9" x="229.08" y="71.21" width="17.51" height="20.42"/><rect class="cls-8" x="227.55" y="64.79" width="7.95" height="25.8"/><rect class="cls-8" x="228.89" y="61.91" width="5.27" height="4.39"/><rect class="cls-8" x="229.59" y="58.59" width="3.87" height="3.91"/><rect class="cls-8" x="230.37" y="57.48" width="2.32" height="1.64"/><rect class="cls-9" x="228.63" y="65.97" width="1.06" height="11.24"/><rect class="cls-9" x="231" y="65.97" width="1.06" height="11.24"/><rect class="cls-9" x="233.32" y="65.97" width="1.06" height="11.24"/><rect class="cls-9" x="242.11" y="37.57" width="8.69" height="55.86"/><rect class="cls-8" x="239.86" y="37.57" width="4.5" height="55.86"/><rect class="cls-9" x="241.54" y="40.87" width="1.34" height="30.75"/><rect class="cls-8" x="250.8" y="37.57" width="21.41" height="58.86"/><rect class="cls-9" x="253.93" y="59.35" width="7.18" height="32.91"/><rect class="cls-9" x="253.93" y="48.78" width="7.18" height="4.97"/><rect class="cls-9" x="262.39" y="40.88" width="7.18" height="4.97"/><rect class="cls-8" x="252.3" y="31.01" width="18.41" height="7.77"/><rect class="cls-8" x="256.02" y="28.72" width="10.97" height="3.63"/><rect class="cls-12" x="149.87" y="71.71" width="9.6" height="5.8"/><rect class="cls-8" x="151.83" y="73.4" width="7.64" height="19.78"/><rect class="cls-8" x="154.57" y="66.68" width="4.9" height="6.72"/><rect class="cls-8" x="153.27" y="64.64" width="6.2" height="2.87"/><rect class="cls-8" x="155.4" y="61.21" width="4.07" height="5.59"/><rect class="cls-8" x="154.31" y="59.52" width="5.16" height="2.38"/><rect class="cls-9" x="154.49" y="78.71" width="2.48" height="2.42"/><rect class="cls-9" x="154.49" y="83.27" width="2.48" height="2.42"/><rect class="cls-9" x="154.49" y="87.82" width="2.48" height="2.42"/><rect class="cls-9" x="155.89" y="68.4" width="2.48" height="2.42"/><rect class="cls-9" x="190.65" y="80.36" width="1.34" height="8.24"/><rect class="cls-9" x="195.35" y="80.36" width="1.34" height="8.24"/><rect class="cls-9" x="200.44" y="80.36" width="1.34" height="8.24"/><rect class="cls-9" x="205.14" y="80.36" width="1.34" height="8.24"/><rect class="cls-9" x="210.23" y="80.36" width="1.34" height="8.24"/><rect class="cls-9" x="214.93" y="80.36" width="1.34" height="8.24"/><path class="cls-11" d="M154.26,86.85a2.36,2.36,0,0,1,2.19,1.2,2.74,2.74,0,0,1,1.43-.38,2.59,2.59,0,0,1,1.79.66A2.17,2.17,0,0,1,162,86.66a2.35,2.35,0,0,1,2.21,1.25,3,3,0,0,1,1-.18,2.18,2.18,0,0,1,2.31,1.65,2.72,2.72,0,0,1,3.82-.09,2.19,2.19,0,0,1,2.31-1.62,2.66,2.66,0,0,1,1.57.48,2.31,2.31,0,0,1,0-.37c0-1.43,1.48-2.59,3.3-2.59s3.3,1.16,3.3,2.59c0,0,0,.11,0,.16h.17a2.2,2.2,0,0,1,1.94,1,3.54,3.54,0,0,1,2.88-1.32,3.49,3.49,0,0,1,3,1.42,2.64,2.64,0,0,1,1.72-.6,2.72,2.72,0,0,1,1.51.44,2,2,0,0,1,2.11-1.42,2.84,2.84,0,0,1,.72.09,1.79,1.79,0,0,1-.08-.57c0-1.43,1.46-2.58,3.31-2.58s3.28,1.15,3.28,2.58a2,2,0,0,1-.06.49,3.71,3.71,0,0,1,.47,0,2.33,2.33,0,0,1,2.21,1.25,3.91,3.91,0,0,1,2-.5,3.38,3.38,0,0,1,3.1,1.68,2.72,2.72,0,0,1,1.56-.47,2.62,2.62,0,0,1,.57.06v-.08a1.42,1.42,0,0,1,2.76,0,1.1,1.1,0,0,1,0,.18,3.77,3.77,0,0,1,1.09-.16,3.58,3.58,0,0,1,1.87.51,3.68,3.68,0,0,1,6.22,0,3.26,3.26,0,0,1,1.31-.27,3.1,3.1,0,0,1,1.82.57,2.36,2.36,0,0,1,1-.38,2.49,2.49,0,0,1,.72,0,2.09,2.09,0,0,1-.21-.56c-.34-1.4.82-2.74,2.64-3s3.5.65,3.84,2.05a2.12,2.12,0,0,1,.06.49,3,3,0,0,1,.45-.1,2.59,2.59,0,0,1,2.47.91,3.53,3.53,0,0,1,1.81-.78,3.69,3.69,0,0,1,3.44,1.2,2.45,2.45,0,0,1,1.42-.69,2.73,2.73,0,0,1,.57,0l0-.07c-.14-.59.35-1.15,1.1-1.26a1.38,1.38,0,0,1,1.61.86,1.22,1.22,0,0,1,0,.17,3.26,3.26,0,0,1,1-.31,3.65,3.65,0,0,1,2,.23,3,3,0,0,1,2.64-2.16c1.79-.26,3.52.66,3.86,2.06a3.12,3.12,0,0,1,.06.41l.29,0A2.7,2.7,0,0,1,261,90.8a1.52,1.52,0,0,1,0,.21,2.66,2.66,0,0,1,.66-.18,2.75,2.75,0,0,1,1.65.25c-.2-1,.6-1.86,1.82-2a2.37,2.37,0,0,1,2.6,1.24,2.46,2.46,0,0,1,.62-.17,2.84,2.84,0,0,1,1.65.25,3.15,3.15,0,0,1,2-1,3.65,3.65,0,0,1,2.45.49,2.5,2.5,0,0,1,1.23-.52,2.73,2.73,0,0,1,.57,0l0-.07c-.14-.59.35-1.15,1.1-1.26a1.38,1.38,0,0,1,1.61.86.52.52,0,0,1,0,.17,3.41,3.41,0,0,1,1-.31,3.67,3.67,0,0,1,2,.23,3,3,0,0,1,2.64-2.16c1.79-.26,3.52.66,3.86,2.06a3.12,3.12,0,0,1,.06.41l.29,0a2.7,2.7,0,0,1,3.11,1.66,1.52,1.52,0,0,1,0,.21,2.66,2.66,0,0,1,.66-.18,2.36,2.36,0,0,1,.53,0,1.86,1.86,0,0,1,1.36-1.47A4.84,4.84,0,0,1,298.74,86a6.56,6.56,0,0,1,3.26.33V98.19c-42.32-.57-151.87-.51-151.87-.51l.45-6.09,2-1.62a1.66,1.66,0,0,1-.69-1.3A2.11,2.11,0,0,1,154.26,86.85Z"/><path class="cls-13" d="M154.26,86.85a2.36,2.36,0,0,1,2.19,1.2,2.74,2.74,0,0,1,1.43-.38,2.59,2.59,0,0,1,1.79.66A2.17,2.17,0,0,1,162,86.66a2.35,2.35,0,0,1,2.21,1.25,3,3,0,0,1,1-.18,2.18,2.18,0,0,1,2.31,1.65,2.72,2.72,0,0,1,3.82-.09,2.19,2.19,0,0,1,2.31-1.62,2.66,2.66,0,0,1,1.57.48,2.31,2.31,0,0,1,0-.37c0-1.43,1.48-2.59,3.3-2.59s3.3,1.16,3.3,2.59c0,0,0,.11,0,.16h.17a2.2,2.2,0,0,1,1.94,1,3.54,3.54,0,0,1,2.88-1.32,3.49,3.49,0,0,1,3,1.42,2.64,2.64,0,0,1,1.72-.6,2.72,2.72,0,0,1,1.51.44,2,2,0,0,1,2.11-1.42,2.84,2.84,0,0,1,.72.09,1.79,1.79,0,0,1-.08-.57c0-1.43,1.46-2.58,3.31-2.58s3.28,1.15,3.28,2.58a2,2,0,0,1-.06.49,3.71,3.71,0,0,1,.47,0,2.33,2.33,0,0,1,2.21,1.25,3.91,3.91,0,0,1,2-.5,3.38,3.38,0,0,1,3.1,1.68,2.72,2.72,0,0,1,1.56-.47,2.62,2.62,0,0,1,.57.06v-.08a1.42,1.42,0,0,1,2.76,0,1.1,1.1,0,0,1,0,.18,3.77,3.77,0,0,1,1.09-.16,3.58,3.58,0,0,1,1.87.51,3.68,3.68,0,0,1,6.22,0,3.26,3.26,0,0,1,1.31-.27,3.1,3.1,0,0,1,1.82.57,2.36,2.36,0,0,1,1-.38,3.52,3.52,0,0,1,.45,0,2.11,2.11,0,0,0,.06.66,2.09,2.09,0,0,0,.21.56,2.6,2.6,0,0,0-1.71.38,3.1,3.1,0,0,0-1.82-.56,3.26,3.26,0,0,0-1.31.27,3.67,3.67,0,0,0-6.22,0,3.58,3.58,0,0,0-1.87-.51,3.77,3.77,0,0,0-1.09.16,1.1,1.1,0,0,0,0-.18,1.42,1.42,0,0,0-2.76,0v.07a3.45,3.45,0,0,0-.57-.05A2.72,2.72,0,0,0,210,91a3.39,3.39,0,0,0-3.1-1.69,3.91,3.91,0,0,0-2,.51,2.34,2.34,0,0,0-2.21-1.26,3.73,3.73,0,0,0-.47,0,2.07,2.07,0,0,0,.06-.5c0-1.42-1.46-2.57-3.28-2.57s-3.31,1.15-3.31,2.57a1.85,1.85,0,0,0,.08.58,2.84,2.84,0,0,0-.72-.09,2,2,0,0,0-2.11,1.42,2.72,2.72,0,0,0-1.51-.44,2.64,2.64,0,0,0-1.72.6,3.49,3.49,0,0,0-3-1.42,3.54,3.54,0,0,0-2.88,1.32,2.2,2.2,0,0,0-1.94-1h-.17c0-.06,0-.11,0-.16,0-1.43-1.48-2.59-3.3-2.59s-3.3,1.16-3.3,2.59a2.4,2.4,0,0,0,0,.37,2.66,2.66,0,0,0-1.57-.48,2.19,2.19,0,0,0-2.31,1.62,2.72,2.72,0,0,0-3.82.09,2.17,2.17,0,0,0-2.31-1.65,2.79,2.79,0,0,0-1,.18A2.35,2.35,0,0,0,162,87.86a2.17,2.17,0,0,0-2.31,1.66,2.63,2.63,0,0,0-1.79-.65,2.74,2.74,0,0,0-1.43.38,2.59,2.59,0,0,0-4.38,0,1.38,1.38,0,0,1-.13-.6,2.11,2.11,0,0,1,2.32-1.82Zm74.41,2.49a3.05,3.05,0,0,1,2.61-1.93c1.79-.27,3.5.64,3.84,2a2.05,2.05,0,0,1,.06.49,3,3,0,0,1,.45-.1,2.59,2.59,0,0,1,2.47.91,3.53,3.53,0,0,1,1.81-.78,3.69,3.69,0,0,1,3.44,1.2,2.45,2.45,0,0,1,1.42-.69,2.73,2.73,0,0,1,.57,0l0-.07c-.14-.59.35-1.15,1.1-1.27A1.4,1.4,0,0,1,248,90a1.13,1.13,0,0,1,0,.18,3.55,3.55,0,0,1,1-.32,3.75,3.75,0,0,1,2,.24,3,3,0,0,1,2.64-2.16c1.79-.27,3.52.66,3.86,2.06a3.12,3.12,0,0,1,.06.41l.29,0A2.7,2.7,0,0,1,261,92a1.52,1.52,0,0,1,0,.21,2.29,2.29,0,0,1,.66-.18,2.75,2.75,0,0,1,1.65.25c-.2-1,.6-1.86,1.82-2a2.37,2.37,0,0,1,2.6,1.24,2.46,2.46,0,0,1,.62-.17,2.76,2.76,0,0,1,1.65.25,3.15,3.15,0,0,1,2-1,3.65,3.65,0,0,1,2.45.48,2.59,2.59,0,0,1,1.23-.51,2.73,2.73,0,0,1,.57,0l0-.07c-.14-.59.35-1.15,1.1-1.27A1.4,1.4,0,0,1,279,90a.55.55,0,0,1,0,.18,3.72,3.72,0,0,1,1-.32,3.77,3.77,0,0,1,2,.24,3,3,0,0,1,2.64-2.16c1.79-.27,3.52.66,3.86,2.06a3.12,3.12,0,0,1,.06.41l.29,0A2.7,2.7,0,0,1,291.93,92a1.52,1.52,0,0,1,0,.21,2.29,2.29,0,0,1,.66-.18,2.36,2.36,0,0,1,.53,0,1.84,1.84,0,0,1,1.36-1.47,4.83,4.83,0,0,1,4.23-3.34,6.56,6.56,0,0,1,3.26.33v-1.2a6.56,6.56,0,0,0-3.26-.33,4.84,4.84,0,0,0-4.23,3.34,1.86,1.86,0,0,0-1.36,1.47,2.36,2.36,0,0,0-.53,0A2.66,2.66,0,0,0,292,91a1.52,1.52,0,0,0,0-.21,2.7,2.7,0,0,0-3.11-1.66l-.29,0a3.12,3.12,0,0,0-.06-.41c-.34-1.4-2.07-2.32-3.86-2.06A3,3,0,0,0,282,88.88a3.67,3.67,0,0,0-2-.23,3.41,3.41,0,0,0-1,.31.52.52,0,0,0,0-.17,1.38,1.38,0,0,0-1.61-.86c-.75.11-1.24.67-1.1,1.26l0,.07a2.73,2.73,0,0,0-.57,0,2.5,2.5,0,0,0-1.23.52,3.65,3.65,0,0,0-2.45-.49,3.15,3.15,0,0,0-2,1,2.84,2.84,0,0,0-1.65-.25,2.46,2.46,0,0,0-.62.17,2.37,2.37,0,0,0-2.6-1.24c-1.22.18-2,1.09-1.82,2a2.75,2.75,0,0,0-1.65-.25A2.66,2.66,0,0,0,261,91a1.52,1.52,0,0,0,0-.21,2.7,2.7,0,0,0-3.11-1.66l-.29,0a3.12,3.12,0,0,0-.06-.41c-.34-1.4-2.07-2.32-3.86-2.06a3,3,0,0,0-2.64,2.16,3.65,3.65,0,0,0-2-.23,3.26,3.26,0,0,0-1,.31,1.22,1.22,0,0,0,0-.17,1.38,1.38,0,0,0-1.61-.86c-.75.11-1.24.67-1.1,1.26l0,.07a2.73,2.73,0,0,0-.57,0,2.45,2.45,0,0,0-1.42.69,3.69,3.69,0,0,0-3.44-1.2,3.53,3.53,0,0,0-1.81.78,2.59,2.59,0,0,0-2.47-.91,3,3,0,0,0-.45.1,2.12,2.12,0,0,0-.06-.49c-.34-1.4-2.05-2.32-3.84-2.05s-3,1.61-2.64,3l0,.12Zm-78.45,8.34.36-4.89,2-1.63a1.73,1.73,0,0,1-.58-.74l-1.47,1.17-.45,6.09Z"/><path class="cls-14" d="M160.11,100S266.36,97.68,302,110.54V96.92H155.41Z"/><path class="cls-15" d="M.19,94.49c5.24,3.22,10,8.76,11.75,18.23C14,123.93,7.73,124.08.19,120.86Z"/><path class="cls-15" d="M23.53,106.78a46.74,46.74,0,0,0-6.84-6.15S21.77,90.2,21.55,89c0,0-12.3-1.1-21.36,6.58v25.3C9.79,117.91,23.53,106.78,23.53,106.78Z"/><path class="cls-16" d="M23.53,106.78a46.74,46.74,0,0,0-6.84-6.15S21.77,90.2,21.55,89C10.06,94.58,3.76,107.72,3.76,107.72s4.78,3,9.85,6.22C19.15,110.33,23.53,106.78,23.53,106.78Z"/><path class="cls-11" d="M6,106.62S12.42,95,19.36,91.45c0,0-4.22,6.1-4.91,9.12a49.47,49.47,0,0,1,6.68,5.79C23.26,108.86,6,106.62,6,106.62Z"/><path class="cls-11" d="M159.58,68s-8,11.52-10.6,18.2a15.36,15.36,0,0,0,2.83,5h5.77l2.22,2.16v11.91l-22.73-4.32s7.15-19.6,7.15-20.65S159.58,68,159.58,68Z"/><path class="cls-15" d="M101.4,67a70.87,70.87,0,0,1,27.94-9.38s-4,9.75-4.7,15.64A88.52,88.52,0,0,1,159.58,68s-19.23,17.31-20,32.63l-10.47,17.7H99c9.31-3.56,28.94.19,7.67-14.72S101.4,67,101.4,67Z"/><path class="cls-16" d="M141.07,93.61a24.75,24.75,0,0,0-1.47,7l-3.7,6.26c-1.69.57-2.94.79-3.29.5-2-1.61-12.76-10-12.76-10L121.49,88l1.08,2.17S121.66,92.69,141.07,93.61Z"/><path class="cls-15" d="M59.3,82.87S73.19,49,109.09,40.44c-9.34,23-11.29,39.51,1.51,62.4,3.85,6.89-2.32,11.89-11.63,15.45H52.47C51.94,100.12,59.3,82.87,59.3,82.87Z"/><path class="cls-16" d="M59.3,82.87s.53-1.29,1.64-3.42c4.93,13.75,18.51,26,18.51,26s-20.77,16.12-27,10.82C52.46,98.88,59.3,82.87,59.3,82.87Z"/><path class="cls-16" d="M109.09,40.44c-9.34,23-11.29,39.51,1.51,62.4,3.85,6.89-2.32,11.89-11.63,15.45H86.91a31.33,31.33,0,0,1-1.31-5.49C79.83,74.28,109.09,40.44,109.09,40.44Z"/><path class="cls-15" d="M108,112.27a9.31,9.31,0,0,0,2.31-3,15,15,0,0,0-2.23-5.34C97.4,86,99.54,70.44,99.54,70.44c-12.08,21.71-11.11,35-11.11,35S102.34,113,108,112.27Z"/><path class="cls-11" d="M110.22,109.48a2,2,0,0,0,.1-.21,15,15,0,0,0-2.23-5.34,64,64,0,0,1-5.35-11.34l-13.8,6.26a32.29,32.29,0,0,0-.51,6.63s.38.21,1.06.55c4.85.76,12.76,2,18.33,3.21A9.44,9.44,0,0,0,110.22,109.48Z"/><path class="cls-11" d="M106,45.87c-.26.35-.51.71-.76,1.06a120.57,120.57,0,0,0-9.35,15.72l-.84,1.73a64.37,64.37,0,0,0,5.61,5.28C101,62.08,102.92,54.39,106,45.87Z"/><path class="cls-16" d="M129.34,57.59s-4,9.75-4.7,15.64c-2.22,11-2.59,27.05-2.59,27.05L112.22,104C113.08,78,129.34,57.59,129.34,57.59Z"/><path class="cls-11" d="M118.91,78.7a78.82,78.82,0,0,0-5.08,19.44L116,96.53c.48-7,3.72-16.26,3.72-16.26A13.91,13.91,0,0,1,118.91,78.7Z"/><path class="cls-11" d="M125.16,65.92q-1.64,2.79-3.07,5.67c-.82,1.65-1.6,3.32-2.32,5A28.35,28.35,0,0,0,122.28,81c.32-2.65.7-5.29,1.23-7.9a37.64,37.64,0,0,1,1.38-6.21Z"/><path class="cls-15" d="M28.63,107.06S23,91.52,20.4,77.56c0,0,17.63-7.51,38.9,5.31l16.36,23.88C79,111.68,63.38,119,52.47,118.29H33.6Z"/><path class="cls-16" d="M57.11,81.62c.73.39,1.46.81,2.19,1.25l16.36,23.88a2.74,2.74,0,0,1,.45,1.17c-7.22,5-23.71,15.31-25.3,5.09-2-13.11,5.13-26.59,5.13-26.59L42.05,94.19Z"/><polygon class="cls-11" points="136.05 97.21 132.79 90.43 119.14 94 116.57 103.35 136.05 97.21"/><path class="cls-15" d="M58.3,84.36l9.93,14.1L67.48,102l-14.1.86S53.22,95.88,58.3,84.36Z"/><polygon class="cls-11" points="31.15 106.54 36.12 100.65 51.19 102.79 51.19 107.01 31.15 106.54"/><polygon class="cls-11" points="54.5 107.11 53.38 102.84 68.23 98.46 73.89 106.75 54.5 107.11"/><polygon class="cls-15" points="0.19 105.48 90.13 105.48 96.61 102.37 111.98 102.37 124.14 94.98 138 94.98 144.01 98.36 157.23 98.36 158.67 99.76 158.67 103.35 160.65 103.35 162.62 106.67 162.62 112.32 0.19 113.31 0.19 105.48"/><rect class="cls-17" x="0.19" y="110.08" width="164.94" height="12.72"/><rect class="cls-17" x="0.19" y="119.04" width="196.79" height="7.09"/><rect class="cls-18" x="0.19" y="117.08" width="164.94" height="1.97"/><rect class="cls-18" x="0.19" y="109.09" width="162.42" height="0.98"/><polygon class="cls-19" points="94.56 103.35 158.67 103.35 158.67 102.37 111.98 102.37 96.61 102.37 94.56 103.35"/><rect class="cls-18" x="5.26" y="112.78" width="1.63" height="1.59"/><rect class="cls-18" x="30.77" y="112.78" width="1.63" height="1.59"/><rect class="cls-18" x="56.27" y="112.78" width="1.63" height="1.59"/><rect class="cls-18" x="81.78" y="112.78" width="1.63" height="1.59"/><rect class="cls-18" x="107.28" y="112.78" width="1.63" height="1.59"/><rect class="cls-18" x="132.79" y="112.78" width="1.63" height="1.59"/><rect class="cls-18" x="158.3" y="112.78" width="1.63" height="1.59"/><rect class="cls-18" x="9.14" y="121.79" width="1.63" height="1.59"/><rect class="cls-18" x="34.65" y="121.79" width="1.63" height="1.59"/><rect class="cls-18" x="60.15" y="121.79" width="1.63" height="1.59"/><rect class="cls-18" x="85.66" y="121.79" width="1.63" height="1.59"/><rect class="cls-18" x="111.16" y="121.79" width="1.63" height="1.59"/><rect class="cls-18" x="136.67" y="121.79" width="1.63" height="1.59"/><rect class="cls-18" x="162.18" y="121.79" width="1.63" height="1.59"/><rect class="cls-18" x="187.68" y="121.79" width="1.63" height="1.59"/><path class="cls-20" d="M17.58,128.07H204.4a1.05,1.05,0,0,0,1.07-1h0a1.06,1.06,0,0,0-1.07-1h-2a1,1,0,0,1-1.06-1h0a1.06,1.06,0,0,1,1.06-1h1.52a1.06,1.06,0,0,0,1.07-1h0a1.06,1.06,0,0,0-1.07-1H200.3a1.06,1.06,0,0,1-1.07-1h0a1.06,1.06,0,0,1,1.07-1h.48a1.06,1.06,0,0,0,1.07-1h0a1.06,1.06,0,0,0-1.07-1H182.43a1.06,1.06,0,0,1-1.07-1h0a1.05,1.05,0,0,1,1.07-1h1.8a1.06,1.06,0,0,0,1.07-1h0a1.06,1.06,0,0,0-1.07-1H169.89a1.05,1.05,0,0,1-1.07-1h0a1.06,1.06,0,0,1,1.07-1h1.8a1.06,1.06,0,0,0,1.07-1h0a1.06,1.06,0,0,0-1.07-1H167a1.06,1.06,0,0,1-1.07-1h0a1.06,1.06,0,0,1,1.07-1h2.29a1.06,1.06,0,0,0,1.06-1h0a1.06,1.06,0,0,0-1.06-1h-4.66a1.06,1.06,0,0,1-1.07-1h0a1.06,1.06,0,0,1,1.07-1h31.69a1.06,1.06,0,0,1,1.07,1h0a1.06,1.06,0,0,1-1.07,1h-4a1.06,1.06,0,0,0-1.07,1h0a1.06,1.06,0,0,0,1.07,1h9.83a1.06,1.06,0,0,1,1.07,1h0a1.06,1.06,0,0,1-1.07,1h-5a1.06,1.06,0,0,0-1.06,1h0a1.06,1.06,0,0,0,1.06,1h43.68a1.06,1.06,0,0,1,1.06,1h0a1,1,0,0,1-1.06,1h-4.63a1.06,1.06,0,0,0-1.07,1h0a1.06,1.06,0,0,0,1.07,1h17.17a1,1,0,0,1,1.06,1h0a1.06,1.06,0,0,1-1.06,1h-7.22a1.06,1.06,0,0,0-1.06,1h0a1.06,1.06,0,0,0,1.06,1h10.06a1.06,1.06,0,0,1,1.07,1h0a1.06,1.06,0,0,1-1.07,1H233.68a1.06,1.06,0,0,0-1.06,1h0a1.06,1.06,0,0,0,1.06,1h4a1.06,1.06,0,0,1,1.07,1h0a1.05,1.05,0,0,1-1.07,1H222.5a1.06,1.06,0,0,0-1.07,1h0a1.05,1.05,0,0,0,1.07,1h2.39a1.06,1.06,0,0,1,1.07,1h0a1.06,1.06,0,0,1-1.07,1h-2.84a1.05,1.05,0,0,0-1.07,1h0a1.06,1.06,0,0,0,1.07,1H240a1.06,1.06,0,0,1,1.07,1h0a1.06,1.06,0,0,1-1.07,1h-20.4a1.06,1.06,0,0,0-1.07,1h0a1.06,1.06,0,0,0,1.07,1h3.53a1.05,1.05,0,0,1,1.06,1h0a1.05,1.05,0,0,1-1.06,1H206.27a1.06,1.06,0,0,0-1.06,1h0a1,1,0,0,0,1.06,1h7.9a1.06,1.06,0,0,1,1.06,1h0a1,1,0,0,1-1.06,1H201.74a1.06,1.06,0,0,0-1.06,1.05h0a1.06,1.06,0,0,0,1.06,1H209a1,1,0,0,1,1.06,1h0a1.06,1.06,0,0,1-1.06,1h-3.63a1.06,1.06,0,0,0-1.07,1h0a1.06,1.06,0,0,0,1.07,1h20.18a1.06,1.06,0,0,1,1.06,1h0a1.06,1.06,0,0,1-1.06,1h-6a1.06,1.06,0,0,0-1.07,1h0a1.06,1.06,0,0,0,1.07,1h3.53a1.05,1.05,0,0,1,1.06,1h0a1,1,0,0,1-1.06,1H206.27a1.06,1.06,0,0,0-1.06,1h0a1.06,1.06,0,0,0,1.06,1.05h7.9a1,1,0,0,1,1.06,1h0a1.06,1.06,0,0,1-1.06,1H190.82a1.05,1.05,0,0,0-1.07,1h0a1.06,1.06,0,0,0,1.07,1H214a1.07,1.07,0,0,1,1.07,1h0a1.07,1.07,0,0,1-1.07,1h-4a1.06,1.06,0,0,0-1.07,1h0a1.06,1.06,0,0,0,1.07,1h1.27a1.06,1.06,0,0,1,1.07,1h0a1.06,1.06,0,0,1-1.07,1H37.1a1.06,1.06,0,0,1-1.07-1h0a1.06,1.06,0,0,1,1.07-1H51.19a1.06,1.06,0,0,0,1.07-1h0a1.06,1.06,0,0,0-1.07-1H48.13a1.06,1.06,0,0,1-1.07-1h0a1.06,1.06,0,0,1,1.07-1h8a1.06,1.06,0,0,0,1.06-1h0a1.06,1.06,0,0,0-1.06-1h-14a1.07,1.07,0,0,1-1.07-1h0a1.06,1.06,0,0,1,1.07-1h5.27a1.06,1.06,0,0,0,1.06-1.05h0a1.06,1.06,0,0,0-1.06-1H21.37a1.05,1.05,0,0,1-1.07-1h0a1.06,1.06,0,0,1,1.07-1h2.68a1.06,1.06,0,0,0,1.06-1h0a1.06,1.06,0,0,0-1.06-1H13.45a1.06,1.06,0,0,1-1.07-1h0a1.06,1.06,0,0,1,1.07-1H35.16a1.06,1.06,0,0,0,1.07-1h0a1.06,1.06,0,0,0-1.07-1H33.48a1.06,1.06,0,0,1-1.07-1h0a1.05,1.05,0,0,1,1.07-1h9.44a1.07,1.07,0,0,0,1.07-1h0a1.07,1.07,0,0,0-1.07-1.05h-.74a1.06,1.06,0,0,1-1.07-1h0a1.07,1.07,0,0,1,1.07-1h5.27a1.06,1.06,0,0,0,1.06-1h0a1.06,1.06,0,0,0-1.06-1H21.37a1.06,1.06,0,0,1-1.07-1h0a1.06,1.06,0,0,1,1.07-1h2.68a1.06,1.06,0,0,0,1.06-1h0a1.06,1.06,0,0,0-1.06-1H11a1.06,1.06,0,0,1-1.06-1h0a1.06,1.06,0,0,1,1.06-1H21.59a1.06,1.06,0,0,0,1.07-1h0a1.05,1.05,0,0,0-1.07-1h-4a1.06,1.06,0,0,1-1.07-1h0a1.06,1.06,0,0,1,1.07-1Zm247.68-8.32h-5a1.06,1.06,0,0,0-1.07,1h0a1.06,1.06,0,0,0,1.07,1h5a1.06,1.06,0,0,0,1.07-1h0a1.06,1.06,0,0,0-1.07-1Zm-35.54,8.32a1.06,1.06,0,0,0-1.06,1h0a1.06,1.06,0,0,0,1.06,1h32a1.06,1.06,0,0,0,1.07-1h0a1.06,1.06,0,0,0-1.07-1Zm14.36,4.17a1.06,1.06,0,0,0-1.06,1h0a1.06,1.06,0,0,0,1.06,1H256a1.06,1.06,0,0,0,1.07-1h0a1.06,1.06,0,0,0-1.07-1ZM28.8,140.56a1.06,1.06,0,0,0-1.07,1h0a1.05,1.05,0,0,0,1.07,1h8.86a1,1,0,0,0,1.06-1h0a1.06,1.06,0,0,0-1.06-1Zm-16.87,0a1.06,1.06,0,0,0-1.07,1h0a1.05,1.05,0,0,0,1.07,1H23.69a1.05,1.05,0,0,0,1.07-1h0a1.06,1.06,0,0,0-1.07-1Zm21.2,16.66a1.05,1.05,0,0,0-1.07,1h0a1.06,1.06,0,0,0,1.07,1h2.78a1.06,1.06,0,0,0,1.07-1h0a1.05,1.05,0,0,0-1.07-1Zm-16.87,0a1.05,1.05,0,0,0-1.07,1h0a1.06,1.06,0,0,0,1.07,1H28a1.06,1.06,0,0,0,1.07-1h0a1.05,1.05,0,0,0-1.07-1Zm234.07-4.17a1.06,1.06,0,0,0-1.07,1h0a1.05,1.05,0,0,0,1.07,1h2.78a1.05,1.05,0,0,0,1.07-1h0a1.06,1.06,0,0,0-1.07-1Zm-21.73,0a1.06,1.06,0,0,0-1.06,1h0a1,1,0,0,0,1.06,1h16.62a1.05,1.05,0,0,0,1.07-1h0a1.06,1.06,0,0,0-1.07-1Zm-10.47,8.33a1.06,1.06,0,0,0-1.07,1h0a1.06,1.06,0,0,0,1.07,1h29.29a1.06,1.06,0,0,0,1.07-1h0a1.06,1.06,0,0,0-1.07-1Zm10.13-25a1.06,1.06,0,0,0-1.07,1h0a1.06,1.06,0,0,0,1.07,1h2.47a1.06,1.06,0,0,0,1.07-1h0a1.06,1.06,0,0,0-1.07-1Zm-21.5-29.14a1.06,1.06,0,0,0-1.06,1h0a1.06,1.06,0,0,0,1.06,1h7.08a1.06,1.06,0,0,0,1.07-1h0a1.06,1.06,0,0,0-1.07-1Z"/><path class="cls-21" d="M174.62,103.1h13a1.05,1.05,0,0,1,1.06,1h0a1.06,1.06,0,0,1-1.06,1h-4a1.06,1.06,0,0,0-1.06,1h0a1.06,1.06,0,0,0,1.06,1h5.64a1,1,0,1,1,0,2.08h-.85a1.06,1.06,0,0,0-1.07,1h0a1.06,1.06,0,0,0,1.07,1h40.37a1.06,1.06,0,0,1,1.07,1h0a1.05,1.05,0,0,1-1.07,1H224.2a1.06,1.06,0,0,0-1.07,1h0a1.06,1.06,0,0,0,1.07,1h9a1.05,1.05,0,0,1,1.07,1h0a1.06,1.06,0,0,1-1.07,1H226a1.06,1.06,0,0,0-1.07,1h0a1.06,1.06,0,0,0,1.07,1h4.56a1.06,1.06,0,0,1,1.06,1h0a1.06,1.06,0,0,1-1.06,1h-8.83a1.06,1.06,0,0,0-1.07,1h0a1.06,1.06,0,0,0,1.07,1h4a1.05,1.05,0,0,1,1.06,1h0a1.06,1.06,0,0,1-1.06,1H211.43a1.06,1.06,0,0,1-1.07-1h0a1.07,1.07,0,0,1,1.07-1H213a1.06,1.06,0,0,0,1.07-1h0a1.06,1.06,0,0,0-1.07-1h-3.59a1.06,1.06,0,0,1-1.06-1h0a1.06,1.06,0,0,1,1.06-1h.49a1.06,1.06,0,0,0,1.06-1h0a1.06,1.06,0,0,0-1.06-1h-7.11a1.06,1.06,0,0,1-1.07-1h0a1.05,1.05,0,0,1,1.07-1h1.81a1.06,1.06,0,0,0,1.06-1h0a1.06,1.06,0,0,0-1.06-1H179.92a1.06,1.06,0,0,1-1.07-1h0a1.07,1.07,0,0,1,1.07-1h1.81a1.06,1.06,0,0,0,1.06-1h0a1.06,1.06,0,0,0-1.06-1H177a1.06,1.06,0,0,1-1.07-1h0a1.06,1.06,0,0,1,1.07-1h2.28a1.06,1.06,0,0,0,1.07-1h0a1.06,1.06,0,0,0-1.07-1h-4.65a1.06,1.06,0,0,1-1.07-1h0a1.06,1.06,0,0,1,1.07-1Zm16.29,5.2"/><path class="cls-21" d="M55.2,130.17H176.94a1,1,0,0,1,.95.93h0a1,1,0,0,1-.95.93h-2.55a1,1,0,0,0-.95.93h0a1,1,0,0,0,.95.93h16.05a1,1,0,0,1,.95.93h0a1,1,0,0,1-.95.93H172.2a.94.94,0,0,0-.95.93h0a.94.94,0,0,0,.95.93h3.15a1,1,0,0,1,1,.93h0a.94.94,0,0,1-1,.93H160.29a1,1,0,0,0-.95.93h0a1,1,0,0,0,.95.94h7.06a.94.94,0,0,1,1,.93h0a1,1,0,0,1-1,.93H156.24a1,1,0,0,0-1,.93h0a1,1,0,0,0,1,.93h6.49a1,1,0,0,1,1,.93h0a1,1,0,0,1-1,.93h-3.25a1,1,0,0,0-.95.93h0a1,1,0,0,0,.95.93h18a1,1,0,0,1,1,.93h0a1,1,0,0,1-1,.93H172.2a.94.94,0,0,0-.95.93h0a.94.94,0,0,0,.95.93h3.15a1,1,0,0,1,1,.93h0a1,1,0,0,1-1,.93H160.29a1,1,0,0,0-.95.93h0a1,1,0,0,0,.95.93h7.06a1,1,0,0,1,1,.93h0a1,1,0,0,1-1,.93H146.47a1,1,0,0,0-.95.93h0a.94.94,0,0,0,.95.93h20.77a1,1,0,0,1,.95.93h0a1,1,0,0,1-.95.94h-3.6a.94.94,0,0,0-.95.93h0a1,1,0,0,0,.95.93h1.14a.94.94,0,0,1,.95.93h0a1,1,0,0,1-.95.93H72.65a1,1,0,0,1-1-.93h0a.94.94,0,0,1,1-.93h12.6a1,1,0,0,0,1-.93h0a.94.94,0,0,0-1-.93H82.51a1,1,0,0,1-1-.94h0a1,1,0,0,1,1-.93H89.7a1,1,0,0,0,1-.93h0a1,1,0,0,0-1-.93H77.19a1,1,0,0,1-1-.93h0a1,1,0,0,1,1-.93H81.9a1,1,0,0,0,1-.93h0a1,1,0,0,0-1-.93H58.59a1,1,0,0,1-1-.93h0a1,1,0,0,1,1-.93H61a.94.94,0,0,0,1-.93h0a.94.94,0,0,0-1-.93H51.51a1,1,0,0,1-1-.93h0a1,1,0,0,1,1-.93H70.92a.94.94,0,0,0,1-.93h0a.94.94,0,0,0-1-.93H69.41a1,1,0,0,1-1-.93h0a1,1,0,0,1,1-.93h8.44a1,1,0,0,0,1-.93h0a1,1,0,0,0-1-.93h-.66a1,1,0,0,1-1-.93h0a.94.94,0,0,1,1-.93H81.9a1,1,0,0,0,1-.94h0a1,1,0,0,0-1-.93H58.59a.94.94,0,0,1-1-.93h0a1,1,0,0,1,1-.93H61a.94.94,0,0,0,1-.93h0a.94.94,0,0,0-1-.93H49.34a1,1,0,0,1-1-.93h0a1,1,0,0,1,1-.93h9.44a1,1,0,0,0,1-.93h0a1,1,0,0,0-1-.93H55.2a1,1,0,0,1-1-.93h0a1,1,0,0,1,1-.93Zm138.9,3.72h10.67a1,1,0,0,1,.95.93h0a1,1,0,0,1-.95.93H194.1a.94.94,0,0,1-.95-.93h0a.94.94,0,0,1,.95-.93ZM65.23,141.34a.94.94,0,0,0-1,.93h0a1,1,0,0,0,1,.93h7.92a1,1,0,0,0,.95-.93h0a.94.94,0,0,0-.95-.93Zm-15.08,0a.94.94,0,0,0-1,.93h0a1,1,0,0,0,1,.93H60.67a1,1,0,0,0,.95-.93h0a.94.94,0,0,0-.95-.93ZM69.1,156.22a1,1,0,0,0-.95.93h0a1,1,0,0,0,.95.93h2.49a1,1,0,0,0,1-.93h0a1,1,0,0,0-1-.93Zm-15.08,0a1,1,0,0,0-1,.93h0a1,1,0,0,0,1,.93H64.54a1,1,0,0,0,.95-.93h0a1,1,0,0,0-.95-.93Zm145.66-3.72h2.49a1,1,0,0,1,1,.93h0a1,1,0,0,1-1,.93h-2.49a1,1,0,0,1-1-.93h0a1,1,0,0,1,1-.93Zm-19.43,0a1,1,0,0,0-.95.93h0a1,1,0,0,0,.95.93h14.87a1,1,0,0,0,.95-.93h0a1,1,0,0,0-.95-.93Zm-9.36,7.44a1,1,0,0,0-.95.93h0a1,1,0,0,0,.95.94h26.19a.94.94,0,0,0,.95-.94h0a.94.94,0,0,0-.95-.93ZM180,137.61a1,1,0,0,0-1,.93h0a.94.94,0,0,0,1,.93h2.21a.94.94,0,0,0,1-.93h0a1,1,0,0,0-1-.93Z"/><path class="cls-15" d="M.19,94.49c5.24,3.22,10,8.76,11.75,18.23.11.6.19,1.17.25,1.71H.19Z"/><path class="cls-15" d="M23.53,106.78a46.74,46.74,0,0,0-6.84-6.15S21.77,90.2,21.55,89c0,0-12.3-1.1-21.36,6.58v18.9H12.86C18.75,110.65,23.53,106.78,23.53,106.78Z"/><path class="cls-16" d="M23.53,106.78a46.74,46.74,0,0,0-6.84-6.15S21.77,90.2,21.55,89C10.06,94.58,3.76,107.72,3.76,107.72s4.78,3,9.85,6.22C19.15,110.33,23.53,106.78,23.53,106.78Z"/><path class="cls-11" d="M6,106.62S12.42,95,19.36,91.45c-8.16,11.79-4.6,7.45,1.77,14.91C23.26,108.86,6,106.62,6,106.62Z"/><path class="cls-11" d="M159.58,68s-8,11.52-10.6,18.2a15.36,15.36,0,0,0,2.83,5h5.77l2.22,2.16v.06l-20.66,7.92-2.07-.39s7.15-19.6,7.15-20.65S159.58,68,159.58,68Z"/><path class="cls-15" d="M101.4,67a70.87,70.87,0,0,1,27.94-9.38s-4,9.75-4.7,15.64A88.52,88.52,0,0,1,159.58,68s-19.23,17.31-20,32.63l-.36.62-24.3,9.32c-1.38-1.71-4-4-8.3-7C85.38,88.66,101.4,67,101.4,67Z"/><path class="cls-16" d="M141.07,93.61a24.75,24.75,0,0,0-1.47,7l-.36.62-9.7,3.72c-3.87-3-9.69-7.54-9.69-7.54L121.49,88l1.08,2.17S121.66,92.69,141.07,93.61Z"/><path class="cls-15" d="M59.3,82.87S73.19,49,109.09,40.44c-9.34,23-11.29,39.51,1.51,62.4,2.22,4,1.1,7.32-2,10.12l-3.83,1.47H52.47C53,97.75,59.3,82.87,59.3,82.87Z"/><path class="cls-16" d="M59.3,82.87s.53-1.29,1.64-3.42c4.93,13.75,18.51,26,18.51,26a97.66,97.66,0,0,1-14.08,9H52.47C53,97.75,59.3,82.87,59.3,82.87Z"/><path class="cls-16" d="M109.09,40.44c-9.34,23-11.29,39.51,1.51,62.4,2.22,4,1.1,7.32-2,10.12l-3.83,1.47H85.88c-.1-.53-.2-1.07-.28-1.63C79.83,74.28,109.09,40.44,109.09,40.44Z"/><path class="cls-15" d="M108,112.27a9.31,9.31,0,0,0,2.31-3,15,15,0,0,0-2.23-5.34C97.4,86,99.54,70.44,99.54,70.44c-12.08,21.71-11.11,35-11.11,35S102.34,113,108,112.27Z"/><path class="cls-11" d="M110.22,109.48a2,2,0,0,0,.1-.21c-.16-1.28-.37-2.21-2.23-5.34s.36,2-.91-1.56c-8.06,0-14.19-6.78-14.42-17.43-4.64,11.48-4.33,20.54-4.33,20.54s.38.21,1.06.55c4.85.76,12.76,2,18.33,3.21A9.44,9.44,0,0,0,110.22,109.48Z"/><path class="cls-11" d="M106,45.87c-.26.35-.51.71-.76,1.06C96.78,59,95.09,62.38,100.69,69.66,101,62.08,102.92,54.39,106,45.87Z"/><path class="cls-16" d="M129.34,57.59s-4,9.75-4.7,15.64c-2.22,11-2.59,27.05-2.59,27.05L112.22,104C113.08,78,129.34,57.59,129.34,57.59Z"/><path class="cls-11" d="M118.91,78.7a78.82,78.82,0,0,0-5.08,19.44C117.1,95.76,120.53,82.07,118.91,78.7Z"/><path class="cls-11" d="M125.16,65.92c-3,3-6.79,11.1-2.88,15,.32-2.65.7-5.29,1.23-7.9a37.64,37.64,0,0,1,1.38-6.21Z"/><path class="cls-15" d="M28.63,107.06S23,91.52,20.4,77.56c0,0,17.63-7.51,38.9,5.31l16.36,23.88c1.63,2.39-1.2,5.35-5.8,7.68h-38Z"/><path class="cls-16" d="M57.11,81.62c.73.39,1.46.81,2.19,1.25l16.36,23.88a2.74,2.74,0,0,1,.45,1.17,89.75,89.75,0,0,1-10.74,6.51H51.17a7.54,7.54,0,0,1-.36-1.42c-2-13.11,5.13-26.59,5.13-26.59L42.05,94.19Z"/><path class="cls-11" d="M112.3,102.37c2.63-3.29,6.54-7.29,7.53-12.35,6.48,6.87,16.78-.47,19.21,10.5Z"/><path class="cls-15" d="M58.3,84.36l9.93,14.1L67.48,102l-14.1.86S53.22,95.88,58.3,84.36Z"/><path class="cls-11" d="M31.15,106.54l5.44-8.61c1.45,5.3,9.34,4.81,14.25,4.81l.35,4.27Z"/><path class="cls-11" d="M54.5,107.11l-1.12-4.27c4.15,0,9.48-2.8,12.72-7.41l7.79,11.32Z"/><polygon class="cls-15" points="0.19 105.48 90.13 105.48 96.61 102.37 111.98 102.37 124.14 94.98 138 94.98 144.01 98.36 146.66 98.36 109.4 112.65 0.19 113.31 0.19 105.48"/><polygon class="cls-15" points="0.19 110.08 116.1 110.08 104.75 114.43 0.19 114.43 0.19 110.08"/><polygon class="cls-19" points="0.19 110.08 116.1 110.08 118.67 109.09 0.19 109.09 0.19 110.08"/><polygon class="cls-19" points="94.56 103.35 133.65 103.35 136.21 102.37 111.98 102.37 96.61 102.37 94.56 103.35"/><rect class="cls-18" x="5.26" y="112.78" width="1.63" height="1.59"/><rect class="cls-18" x="30.77" y="112.78" width="1.63" height="1.59"/><rect class="cls-18" x="56.27" y="112.78" width="1.63" height="1.59"/><rect class="cls-18" x="81.78" y="112.78" width="1.63" height="1.59"/><polygon class="cls-19" points="107.28 112.78 108.92 112.78 108.92 112.83 107.28 113.46 107.28 112.78"/><path class="cls-5" d="M6.14,4h13a1.06,1.06,0,0,1,1.07,1h0a1.06,1.06,0,0,1-1.07,1h-4a1.06,1.06,0,0,0-1.07,1h0a1.06,1.06,0,0,0,1.07,1h5.63a1,1,0,1,1,0,2.08H20a1.06,1.06,0,0,0-1.07,1.05h0a1.06,1.06,0,0,0,1.07,1H35a1.06,1.06,0,0,1,1.06,1h0a1.06,1.06,0,0,1-1.06,1H30.38a1.06,1.06,0,0,0-1.07,1h0a1.06,1.06,0,0,0,1.07,1H52.2a1.06,1.06,0,0,1,1.07,1h0a1.06,1.06,0,0,1-1.07,1H45a1.06,1.06,0,0,0-1.07,1h0a1.06,1.06,0,0,0,1.07,1h4.56a1.07,1.07,0,0,1,1.07,1h0a1.07,1.07,0,0,1-1.07,1H40.72a1.05,1.05,0,0,0-1.06,1h0a1.05,1.05,0,0,0,1.06,1.05h4a1.05,1.05,0,0,1,1.07,1h0a1.06,1.06,0,0,1-1.07,1H30.41a1.06,1.06,0,0,1-1.06-1h0a1,1,0,0,1,1.06-1h1.52A1.06,1.06,0,0,0,33,23.8h0a1.06,1.06,0,0,0-1.07-1H28.35a1.06,1.06,0,0,1-1.07-1h0a1.06,1.06,0,0,1,1.07-1h.48a1.06,1.06,0,0,0,1.07-1h0a1.06,1.06,0,0,0-1.07-1H21.72a1.06,1.06,0,0,1-1.06-1h0a1.06,1.06,0,0,1,1.06-1h1.81a1.05,1.05,0,0,0,1.06-1h0a1.05,1.05,0,0,0-1.06-1H11.45a1.06,1.06,0,0,1-1.07-1h0a1.05,1.05,0,0,1,1.07-1h1.8a1.06,1.06,0,0,0,1.07-1h0a1.06,1.06,0,0,0-1.07-1.05H8.51a1.05,1.05,0,0,1-1.07-1h0a1.06,1.06,0,0,1,1.07-1h2.28a1.06,1.06,0,0,0,1.07-1h0a1.06,1.06,0,0,0-1.07-1H6.14a1.06,1.06,0,0,1-1.07-1h0A1.06,1.06,0,0,1,6.14,4Zm16.29,5.2"/><path class="cls-15" d="M119.88,176.7h-1.53l-.31,1.21H116.9l1.63-5.66h1.18l1.63,5.66H120.2l-.32-1.21Zm-1.3-.88h1.07l-.52-2h0l-.52,2Zm7-3.57v3.85a1.79,1.79,0,0,1-.54,1.4,2.05,2.05,0,0,1-1.43.49,2,2,0,0,1-1.42-.49,1.81,1.81,0,0,1-.55-1.4v-3.85h1.14v3.85a1.08,1.08,0,0,0,.22.76.75.75,0,0,0,.61.25.81.81,0,0,0,.63-.24,1.13,1.13,0,0,0,.21-.77v-3.85Zm3.39,4.18a.73.73,0,0,0-.18-.52,1.75,1.75,0,0,0-.62-.38,4,4,0,0,1-1.35-.69,1.38,1.38,0,0,1-.45-1.1,1.4,1.4,0,0,1,.52-1.13,2,2,0,0,1,1.35-.44,1.89,1.89,0,0,1,1.34.49,1.57,1.57,0,0,1,.5,1.24v0H129a.94.94,0,0,0-.2-.62.7.7,0,0,0-.56-.24.67.67,0,0,0-.72.69.57.57,0,0,0,.21.46,3,3,0,0,0,.73.4,3,3,0,0,1,1.24.69,1.52,1.52,0,0,1,.42,1.13,1.43,1.43,0,0,1-.5,1.15,2.08,2.08,0,0,1-1.34.41,2.28,2.28,0,0,1-1.43-.47,1.58,1.58,0,0,1-.59-1.36v0h1.1a1,1,0,0,0,.23.75.89.89,0,0,0,.68.23.69.69,0,0,0,.53-.18.72.72,0,0,0,.18-.51Zm5.25-3.29h-1.31v4.77h-1.13v-4.77h-1.3v-.89h3.74v.89Zm1.68,2.53v2.24h-1.13v-5.65h1.89a1.93,1.93,0,0,1,1.34.44,1.58,1.58,0,0,1,.49,1.23,1.43,1.43,0,0,1-.2.76,1.48,1.48,0,0,1-.59.51,1.12,1.12,0,0,1,.64.49,1.7,1.7,0,0,1,.2.85v.4a2.18,2.18,0,0,0,0,.5.66.66,0,0,0,.2.39v.08h-1.17a.62.62,0,0,1-.18-.4,5.44,5.44,0,0,1,0-.57v-.39a1,1,0,0,0-.18-.65.59.59,0,0,0-.51-.23Zm0-.89h.76a.67.67,0,0,0,.52-.2.87.87,0,0,0,.18-.59,1,1,0,0,0-.18-.62.62.62,0,0,0-.52-.22h-.76v1.63Zm6.1,1.92h-1.53l-.31,1.21H139l1.63-5.66h1.18l1.63,5.66h-1.14L142,176.7Zm-1.3-.88h1.07l-.52-2h0l-.52,2Zm4.34,1.21h2.12v.88h-3.25v-5.66h1.13V177Zm3.87.88H147.8v-5.66h1.12v5.66Zm3.62-1.21H151l-.31,1.21h-1.14l1.63-5.66h1.18l1.63,5.66h-1.14l-.32-1.21Zm-1.3-.88h1.07l-.52-2h0Z"/><path class="cls-10" d="M88.47,164.16h3.21v1.56h4.79v-6.24H91L88.47,157v-7.5L91,147h6.07l2.57,2.5v2.19H96.47v-1.56H91.68v6.24h5.43l2.57,2.5v7.5l-2.57,2.5H91l-2.57-2.5v-2.19Zm14.4-14V147h6.42v3.13h-1.6l2.4,5.2,2.41-5.2h-1.61V147h6.38v3.13h-1.59l-4,7.81v7.8h1.6v3.13h-6.42v-3.13h1.6v-7.8l-4-7.81Zm17.59,18.74v-3.13h1.6V150.11h-1.6V147h10.28l2.56,2.5v16.87l-2.56,2.5Zm4.81-3.13h4.82V150.11h-4.82v15.61Zm11.2,3.13v-3.13h1.6V150.11h-1.6V147h4.81L147.67,161V150.11h-1.6V147h6.42v3.13h-1.61v18.74h-3.21l-6.39-14.06v10.93h1.6v3.13Zm19.21,0v-3.13h1.6V150.11h-1.6V147h12.84v4.69h-3.21v-1.56h-4.82v6.24h4.82v3.13h-4.82v6.24h4.82v-1.56h3.21v4.69Zm16-18.74V147h6.41v3.13h-1.6l2.4,5.2,2.41-5.2h-1.6V147h6.38v3.13h-1.6l-4,7.81v7.8h1.6v3.13h-6.41v-3.13h1.6v-7.8l-4-7.81Z"/><path class="cls-15" d="M87.39,163.55H90.6v1.56h4.78v-6.23H90l-2.56-2.51v-7.49L90,146.37H96l2.57,2.51v2.19H95.38v-1.56H90.6v6.23H96l2.57,2.51v7.49L96,168.25H90l-2.56-2.51v-2.19Zm14.4-14v-3.14h6.41v3.14h-1.6l2.4,5.19,2.41-5.19h-1.6v-3.14h6.38v3.14h-1.6l-4,7.8v7.8h1.6v3.14H105.8v-3.14h1.6v-7.8l-4-7.8Zm17.58,18.74v-3.14H121v-15.6h-1.6v-3.14h10.28l2.57,2.51v16.86l-2.57,2.51Zm4.82-3.14H129v-15.6h-4.82v15.6Zm11.19,3.14v-3.14H137v-15.6h-1.6v-3.14h4.81l6.4,14.06V149.51H145v-3.14h6.41v3.14h-1.6v18.74h-3.21l-6.4-14.06v10.92h1.61v3.14Zm19.21,0v-3.14h1.6v-15.6h-1.6v-3.14h12.85v4.7h-3.22v-1.56H159.4v6.23h4.82v3.14H159.4v6.23h4.82v-1.56h3.22v4.7Zm16-18.74v-3.14H177v3.14h-1.6l2.41,5.19,2.41-5.19h-1.61v-3.14H185v3.14h-1.59l-4,7.8v7.8H181v3.14h-6.41v-3.14h1.6v-7.8l-4-7.8Z"/><path class="cls-22" d="M264.84,167.54a25.86,25.86,0,0,0,18.8-31.77c-3.8-13.84-18.38-22.05-32.56-18.34a25.87,25.87,0,0,0-18.8,31.77C236.08,163,250.66,171.25,264.84,167.54Z"/><path class="cls-15" d="M251.43,118.7a25.71,25.71,0,0,1,19.15,2.46,24.59,24.59,0,0,1,11.76,15,24,24,0,0,1-2.52,18.69,25.11,25.11,0,0,1-15.33,11.48,25.71,25.71,0,0,1-19.15-2.46,24.64,24.64,0,0,1-11.76-15,24,24,0,0,1,2.52-18.69,25.1,25.1,0,0,1,15.33-11.47ZM270.08,122a24.67,24.67,0,0,0-18.39-2.36,24.07,24.07,0,0,0-14.72,11,23.1,23.1,0,0,0-2.42,18A23.64,23.64,0,0,0,245.84,163a24.67,24.67,0,0,0,18.39,2.37,24.08,24.08,0,0,0,14.72-11,23.08,23.08,0,0,0,2.42-17.94A23.66,23.66,0,0,0,270.08,122Z"/><path class="cls-15" d="M252.66,123.19a2.62,2.62,0,0,0-.81,2,7.25,7.25,0,0,0,.46,1.86L250,130.26l.29,1.06L253,128.8c.64,1.62,1.39,3.34,1.82,4.31l-.91,1.11.29,1.07,1.4-1.51,2,.63-.29-1.07-1.35-.52c-.13-1-.37-2.91-.65-4.62l3.63.87L258.6,128l-3.68-1.67a7.07,7.07,0,0,0-.54-1.83A2.73,2.73,0,0,0,252.66,123.19Z"/><path class="cls-15" d="M241.42,152.27a.5.5,0,0,1-.62-.34.5.5,0,0,1,.36-.61L277,141.94a.51.51,0,0,1,.62.35.49.49,0,0,1-.36.6Z"/><path class="cls-15" d="M243.35,159.29a.51.51,0,0,1-.62-.35.49.49,0,0,1,.36-.6L279,149a.5.5,0,0,1,.61.35.48.48,0,0,1-.35.6Z"/><path class="cls-15" d="M243.33,147.26a.92.92,0,0,0-.37-.56,2.21,2.21,0,0,0-.84-.25,5.24,5.24,0,0,1-1.82-.4,1.84,1.84,0,0,1-.63-2.63,2.41,2.41,0,0,1,1.44-.92,2.27,2.27,0,0,1,1.73.16,1.88,1.88,0,0,1,1,1.29v0l-1.28.33a1.2,1.2,0,0,0-.44-.67.83.83,0,0,0-.73-.1.85.85,0,0,0-.56.39.87.87,0,0,0-.06.64.69.69,0,0,0,.39.47,3.55,3.55,0,0,0,1,.24,4,4,0,0,1,1.68.43,1.92,1.92,0,0,1,.85,1.2,1.73,1.73,0,0,1-.22,1.5,2.44,2.44,0,0,1-1.43.89,2.78,2.78,0,0,1-1.83-.11,1.94,1.94,0,0,1-1.13-1.41v0l1.3-.33a1.34,1.34,0,0,0,.5.81,1.17,1.17,0,0,0,.88.06.83.83,0,0,0,.56-.38.85.85,0,0,0,0-.65Zm4.65-3.42-1.9-2.54-1.45.37,3.06,3.69.67,2.44,1.32-.34L249,145.1l.77-4.78-1.44.38-.35,3.14Zm5.16,2.71-1.83-6.62,2.06-.54a2.34,2.34,0,0,1,1.94.32,3.06,3.06,0,0,1,1.22,1.81l.31,1.11a3,3,0,0,1-.14,2.17,2.22,2.22,0,0,1-1.51,1.22l-2.05.53Zm-.21-5.94,1.25,4.56.65-.17a1,1,0,0,0,.73-.69,2.35,2.35,0,0,0-.05-1.33l-.3-1.13a2.44,2.44,0,0,0-.65-1.16,1,1,0,0,0-1-.25l-.65.17Zm11.29,3-1.32.34-3.24-3.69h0l1.16,4.23-1.33.35-1.82-6.63,1.33-.35,3.24,3.69h0l-1.16-4.23,1.32-.34,1.82,6.63Zm4.82-4.38-2.29.6.52,1.87,2.68-.7.29,1-4,1-1.82-6.62,4-1,.28,1-2.67.7.45,1.65,2.28-.59.29,1Zm3.9-2-1.9-2.55-1.45.38,3.06,3.69.67,2.44,1.32-.35-.65-2.36.77-4.77-1.44.37-.35,3.14Z"/><path class="cls-15" d="M252,155l-.81.21-.89-3.25-.78.22-.15-.58,1.51-.69L252,155Zm2.95-2.42.36-.09.18.64-.37.09.25.9-.81.21-.25-.9-1.39.37-.18-.49.69-3.06.82-.22.7,2.55Zm-1.5.4.69-.18-.39-1.41h0l0,.08-.26,1.51Zm3.62.69-.81.21-.2-.72.81-.21.2.72Zm2.64-2.4-.24-.88a2.07,2.07,0,0,0-.68-1.15,1.1,1.1,0,0,0-1-.19,1.07,1.07,0,0,0-.77.66,2,2,0,0,0,0,1.32l.24.88a2.11,2.11,0,0,0,.68,1.15,1.13,1.13,0,0,0,1,.18,1.06,1.06,0,0,0,.77-.65,2,2,0,0,0,0-1.32Zm-1.08-.74.28,1a1.86,1.86,0,0,1,.09.75c0,.17-.1.27-.23.29h0c-.12,0-.24,0-.36-.13a2,2,0,0,1-.3-.7l-.28-1a1.86,1.86,0,0,1-.09-.75c0-.17.1-.27.23-.29h0c.13,0,.24,0,.36.13a2,2,0,0,1,.3.69Zm3.51-1.88a4.21,4.21,0,0,0-.38,1.57,9.08,9.08,0,0,0,.2,1.75l.07.41-.82.21-.07-.4a7.32,7.32,0,0,1-.13-1.77,5.07,5.07,0,0,1,.35-1.56l-1.77.46-.17-.64,2.54-.66.18.63Zm2.33,3.09-.8.21-.2-.73.81-.21.19.73Zm2.36-.62L265.67,147l-1.52.69.16.57.77-.22.89,3.25.82-.21Zm2.1-1.17a.5.5,0,0,0,.35-.34,1.17,1.17,0,0,0,0-.69l0-.15a.87.87,0,0,1-.2.32.9.9,0,0,1-.3.17,1,1,0,0,1-.88-.18,1.74,1.74,0,0,1-.56-.95,1.67,1.67,0,0,1,.06-1.13,1.1,1.1,0,0,1,.76-.65,1.12,1.12,0,0,1,1,.2,2,2,0,0,1,.68,1.12l.27,1a1.61,1.61,0,0,1-.08,1.25,1.31,1.31,0,0,1-.87.68,1.6,1.6,0,0,1-.39,0,1.39,1.39,0,0,1-.41,0l-.07-.62a2,2,0,0,0,.34,0l.35-.06Zm-.23-1.34a.47.47,0,0,0,.24-.13.72.72,0,0,0,.14-.24l-.13-.46a1.53,1.53,0,0,0-.3-.64.34.34,0,0,0-.36-.14h0c-.12,0-.19.12-.22.3a1.4,1.4,0,0,0,0,.6,1.46,1.46,0,0,0,.26.56A.34.34,0,0,0,268.66,148.57Z"/><polygon class="cls-15" points="245.2 152.48 246.11 153.77 247.67 153.4 246.69 154.65 247.53 155.99 246.02 155.46 244.97 156.66 245.01 155.09 243.53 154.49 245.07 154.04 245.2 152.48"/><polygon class="cls-15" points="274.13 144.91 275.04 146.21 276.61 145.84 275.63 147.08 276.47 148.42 274.95 147.9 273.91 149.09 273.95 147.52 272.46 146.92 274.01 146.48 274.13 144.91"/><path class="cls-15" d="M252,161.92l-.82-3,.92-.25a1.05,1.05,0,0,1,.88.15,1.37,1.37,0,0,1,.56.82l.14.5a1.31,1.31,0,0,1-.07,1,1,1,0,0,1-.68.55l-.93.25Zm-.09-2.69.56,2.06.3-.08a.47.47,0,0,0,.33-.31,1.13,1.13,0,0,0,0-.6l-.14-.51a1.11,1.11,0,0,0-.29-.53.46.46,0,0,0-.45-.11l-.29.08Zm4.22.2-1,.27.23.84,1.21-.31.13.46-1.81.48-.83-3,1.81-.47.13.46-1.21.32.21.75,1-.27.13.47Zm1.59-.16.46-.12a1,1,0,0,0,.65-.46.94.94,0,0,0,.08-.76,1,1,0,0,0-.46-.63,1,1,0,0,0-.8-.08l-1.06.28.82,3,.6-.16-.29-1.07Zm-.13-.47-.27-1,.46-.12a.37.37,0,0,1,.34.07.6.6,0,0,1,.19.32.61.61,0,0,1,0,.38.37.37,0,0,1-.26.22l-.46.12Zm3.61,0-.82.22,0,.68-.61.16,0-3.23.63-.16,1.68,2.77-.6.16-.34-.6Zm-.82-.28.56-.15-.56-1h0l0,1.14Zm2.7-.8.44-.11a.35.35,0,0,1,.3.05.6.6,0,0,1,.19.32l.06.21a1.42,1.42,0,0,0,.1.29.34.34,0,0,0,.15.19l.62-.16v0a.36.36,0,0,1-.16-.18.93.93,0,0,1-.1-.26l-.06-.21a.94.94,0,0,0-.23-.42.57.57,0,0,0-.41-.17.76.76,0,0,0,.24-.36.71.71,0,0,0,0-.43.85.85,0,0,0-.43-.58,1.08,1.08,0,0,0-.78,0l-1,.26.82,3,.6-.16-.33-1.19Zm-.13-.47-.23-.86.4-.11a.37.37,0,0,1,.31,0,.53.53,0,0,1,.18.3.49.49,0,0,1,0,.34.37.37,0,0,1-.25.18l-.41.1Zm3.68-1.89-.69.18.7,2.53-.6.16-.7-2.53-.69.17-.13-.46,2-.52.13.47Zm2.69.6-1,.27.24.85,1.21-.32.13.47-1.82.47-.82-3,1.81-.47.13.47-1.21.31.2.75,1-.27.13.47Zm1.28,1.07.93-.24a1,1,0,0,0,.68-.55,1.36,1.36,0,0,0,.06-1l-.14-.5a1.36,1.36,0,0,0-.55-.82,1.05,1.05,0,0,0-.88-.15l-.93.24.83,3Zm-.1-2.68.3-.08a.45.45,0,0,1,.44.11,1,1,0,0,1,.29.53l.14.51a1,1,0,0,1,0,.6.43.43,0,0,1-.33.31l-.29.08Z"/><path class="cls-15" d="M240.49,136.14l-.6.16-.66-2.39-.57.16-.11-.42,1.11-.51.83,3Zm2.89-.75-1.82.47-.11-.4.56-1.25a2.37,2.37,0,0,0,.13-.46.93.93,0,0,0,0-.34.55.55,0,0,0-.16-.28.23.23,0,0,0-.25-.06.25.25,0,0,0-.19.2.77.77,0,0,0,0,.39l-.59.15h0a1,1,0,0,1,.05-.75.82.82,0,0,1,.58-.45,1,1,0,0,1,.73.06,1,1,0,0,1,.41.59,1.14,1.14,0,0,1,0,.55,6.61,6.61,0,0,1-.27.73l-.25.66,1-.27.13.47Zm.58-2,.13.45.29-.08a.38.38,0,0,1,.3,0,.64.64,0,0,1,.19.33.52.52,0,0,1,0,.33.31.31,0,0,1-.22.18.31.31,0,0,1-.26,0,.47.47,0,0,1-.17-.27l-.58.16h0a.77.77,0,0,0,.42.57,1,1,0,0,0,.7,0,1,1,0,0,0,.63-.41.88.88,0,0,0,.09-.72.84.84,0,0,0-.24-.4.62.62,0,0,0-.4-.18.77.77,0,0,0,.22-.35.81.81,0,0,0,0-.41.84.84,0,0,0-.43-.56,1,1,0,0,0-.72,0,.88.88,0,0,0-.56.39.75.75,0,0,0-.08.64h0l.58-.15a.38.38,0,0,1,0-.28.23.23,0,0,1,.17-.15.3.3,0,0,1,.26.05.51.51,0,0,1,.15.27.54.54,0,0,1,0,.33.29.29,0,0,1-.21.17l-.3.08Zm3.56-.25.26-.07.13.47-.26.07.18.65-.6.16-.18-.66-1,.27-.13-.36.5-2.25.6-.16.52,1.88Zm-1.11.29.51-.14-.28-1h0v.06Z"/><path class="cls-15" d="M261.68,129.18l-.3-1.71,1.5-.4.13.49-1,.26.13.72a.58.58,0,0,1,.13-.15l.19-.1a.72.72,0,0,1,.66.11,1.18,1.18,0,0,1,.41.69,1.15,1.15,0,0,1,0,.78.86.86,0,0,1-.59.46,1,1,0,0,1-.7-.07.79.79,0,0,1-.43-.55h0l.57-.19a.54.54,0,0,0,.17.3.28.28,0,0,0,.25.05.24.24,0,0,0,.19-.21,1,1,0,0,0,0-.4,1,1,0,0,0-.2-.4.26.26,0,0,0-.28-.09.27.27,0,0,0-.18.12.31.31,0,0,0,0,.2l-.55.1Zm2.89-2.59a1,1,0,0,1,.29,0l.27,0,0,.47-.22,0-.23,0a.42.42,0,0,0-.29.29.93.93,0,0,0,0,.59h0a.46.46,0,0,1,.17-.2.68.68,0,0,1,.27-.13.66.66,0,0,1,.62.14,1.39,1.39,0,0,1,.4.68,1.17,1.17,0,0,1-.05.81.81.81,0,0,1-.57.46.87.87,0,0,1-.78-.14,1.37,1.37,0,0,1-.5-.81l-.17-.62a1.35,1.35,0,0,1,.05-1,1,1,0,0,1,.68-.54Zm.28,1.53a.53.53,0,0,0-.2.09.42.42,0,0,0-.11.16l.07.23a1.2,1.2,0,0,0,.24.52.34.34,0,0,0,.31.12.28.28,0,0,0,.18-.23,1,1,0,0,0,0-.42.91.91,0,0,0-.2-.38.25.25,0,0,0-.26-.09Zm2.94-1.82-.13-.47-1.87.48.13.47,1.29-.34a4,4,0,0,0-.25,1.15,5.89,5.89,0,0,0,.09,1.3l.05.29.61-.15-.06-.3a7.71,7.71,0,0,1-.14-1.29,2.92,2.92,0,0,1,.28-1.14Zm2.36-.28a.9.9,0,0,1,0,.43.72.72,0,0,1-.22.35.83.83,0,0,1,.41.2.77.77,0,0,1,.23.39.82.82,0,0,1-.07.71.94.94,0,0,1-.59.39,1,1,0,0,1-.71-.05.84.84,0,0,1-.42-.57.72.72,0,0,1,0-.46A.77.77,0,0,1,269,127a.7.7,0,0,1-.36-.19.8.8,0,0,1-.21-.37.86.86,0,0,1,.06-.68.89.89,0,0,1,.56-.38.85.85,0,0,1,.67.06.84.84,0,0,1,.4.55Zm-.18,1.49a.49.49,0,0,0-.17-.3.24.24,0,0,0-.25-.06.24.24,0,0,0-.18.17.57.57,0,0,0,0,.34.61.61,0,0,0,.16.31.27.27,0,0,0,.26.05.26.26,0,0,0,.18-.17.57.57,0,0,0,0-.34Zm-.41-1.3a.58.58,0,0,0-.15-.27.21.21,0,0,0-.36.09.69.69,0,0,0,0,.31.62.62,0,0,0,.15.28.21.21,0,0,0,.21.06.21.21,0,0,0,.15-.16A.69.69,0,0,0,269.56,126.21Z"/></g></g></svg>