<svg xmlns="http://www.w3.org/2000/svg" xmlns:xlink="http://www.w3.org/1999/xlink" viewBox="0 0 302 181"><defs><style>.cls-1,.cls-13,.cls-14,.cls-9{fill:none;}.cls-2{clip-path:url(#clip-path);}.cls-10,.cls-3{fill:#92d3ce;}.cls-4{fill:#e5cad2;}.cls-15,.cls-5{fill:#f9ab5e;}.cls-5{opacity:0.93;}.cls-6{fill:#0d0e1f;}.cls-7{fill:#fcc490;}.cls-12,.cls-8{fill:#136784;}.cls-10,.cls-12,.cls-13,.cls-14,.cls-9{stroke:#231f20;stroke-linejoin:round;}.cls-12,.cls-14,.cls-9{stroke-width:1.41px;}.cls-10,.cls-13{stroke-width:0.71px;}.cls-11,.cls-16{fill:#fff;}.cls-14{stroke-linecap:round;}.cls-15,.cls-16{fill-rule:evenodd;}</style><clipPath id="clip-path"><rect class="cls-1" width="302" height="181"/></clipPath></defs><title>Plan de travail 1</title><g id="Calque_1" data-name="Calque 1"><g class="cls-2"><path class="cls-3" d="M316.13-13.42H-18V149.49H.28c-.08,2.25-.1,4.53,0,6.81a29.9,29.9,0,0,0-3,7.54c-.88,3.26,1.39,5.68,4.34,6.25v0c1,5.57,5.33,11.76,11.74,8.74,3.44-1.62,5.61-6,6.81-10.32,1.35-.42,2.69-.88,4-1.43s2.73-1.18,4.15-1.92c6.76-.18,13.56-1.84,18.42-5.88a10.6,10.6,0,0,0,2.19-2.49A56.6,56.6,0,0,0,60.24,152a4.58,4.58,0,0,0,2.06-2.47H245.58l1.78.92a4.08,4.08,0,0,0,3.59,3.72,68.65,68.65,0,0,1,7.85,1.94q14.85,7.08,30.26,13c3,1.14,5.48-1.21,6.14-3.87.67.8,1.34,1.6,2,2.41,3,3.76,8.15.26,8.54-3.54.22-2.14.32-4.29.35-6.42a5.34,5.34,0,0,0,1.39-4.46c-.17-1.25-.42-2.45-.7-3.65h9.36Z"/><path class="cls-4" d="M322,180.88a145.3,145.3,0,0,0-33.39-19.72c-11.06-6.88-49.46-12.83-49.46-12.83l-46.71.53-.38,2.29-20.58-.75,42.4,18.91.07,5a7.47,7.47,0,0,0,.9.26,5.77,5.77,0,0,0-.23,2.15l-.44,2.55a5.37,5.37,0,0,0,.5,3.85,5.1,5.1,0,0,0,3,2.3,5.72,5.72,0,0,0,4.67-1.07,5.26,5.26,0,0,0,4.34.49c.37.93.76,1.86,1.22,2.79,2.15,4.39,9.67,2.35,9.31-2.53a12.55,12.55,0,0,1,0-1.33,4.54,4.54,0,0,0,.71-.08c4-.71,8-1.31,12-1.86.4,2.29,2.09,4.39,4.8,4.29a356.14,356.14,0,0,1,41.07.81,36,36,0,0,0,14.6,1.43,5.78,5.78,0,0,0,3.18-1.41l1.27,1C319.91,191.88,327,184.85,322,180.88Z"/><path class="cls-4" d="M53.78,151s-15,1.69-25.35,3.14a3.7,3.7,0,0,0-.47,0c-11.38,1.19-22.22,4.34-33.1,7.77-4.64,1.46-4.25,7.36-1.11,9.28-1.7,3,1,7.41,4.78,7.37,1.2,6,7.9,6.86,12.74,4.82.73-.31,1.46-.64,2.19-1A5.31,5.31,0,0,0,19,185.08,118.75,118.75,0,0,0,31.09,182,4.4,4.4,0,0,0,34,184.33a22.44,22.44,0,0,0,2.23.43,7.71,7.71,0,0,0,1.28,2c3.78,4.31,10.24,2,11.45-3a11.5,11.5,0,0,0,2.41-.69,5.15,5.15,0,0,0,3.25,1.54A12,12,0,0,0,60,184a15.84,15.84,0,0,0,4.23-2,4.13,4.13,0,0,0,2.06,1.92,9.66,9.66,0,0,0,7.25.59l9.14-.18a6,6,0,0,0,.86-.08l.55,0a6.08,6.08,0,0,0,.61,0l.19,0,.38-.06.21-.06c.1,0,.21,0,.31-.09l.21-.08c.09,0,.19-.07.28-.12l.19-.1a1.35,1.35,0,0,0,.26-.15l.17-.11.24-.18.14-.12a2.39,2.39,0,0,0,.23-.22l.12-.12.21-.25.09-.12a3.28,3.28,0,0,0,.2-.31l.06-.09a3.72,3.72,0,0,0,.21-.39v0a5.51,5.51,0,0,0,.47-3h0c.68-.22,1.09-.37,1.09-.37v-9L136.79,151Z"/><circle class="cls-5" cx="209.59" cy="69.33" r="28.42"/><path class="cls-6" d="M31.15,141l.27-.14a10.78,10.78,0,0,1-1.18-.36,18.21,18.21,0,0,0,3.09-1.05s-.6-.12-1.46-.37h0l-.48-.13c-.33-.1-.69-.23-1.06-.37a15.42,15.42,0,0,0,2.4-.85,18.33,18.33,0,0,1-2.88-.86,15.08,15.08,0,0,0,2.21-.78,16.23,16.23,0,0,1-2.3-.66,15.33,15.33,0,0,0,2.29-.8,16.87,16.87,0,0,1-2.29-.67,12.29,12.29,0,0,0,1.71-.62,14.5,14.5,0,0,1-2.26-.68l.21-.08A12.12,12.12,0,0,0,31.2,132a12.42,12.42,0,0,1-1.86-.54c.17-.07.35-.15.52-.24h0a9.09,9.09,0,0,0,.89-.35,11.39,11.39,0,0,1-1.7-.5,3.21,3.21,0,0,0,.46-.22l-.26-.07a9.91,9.91,0,0,0,1-.38,10.64,10.64,0,0,1-1.33-.38l.27-.14s-.19,0-.47-.13a10.7,10.7,0,0,0,1.15-.41,9,9,0,0,1-1.12-.32,7.44,7.44,0,0,0,1-.35,8,8,0,0,1-1.37-.41,6,6,0,0,0,1-.34,6.84,6.84,0,0,1-1-.3,5.07,5.07,0,0,0,1-.34,7.1,7.1,0,0,1-1-.29l.16-.08h0a4.78,4.78,0,0,0,.68-.25,6.58,6.58,0,0,1-1-.29,4.53,4.53,0,0,0,.78-.27,5.29,5.29,0,0,1-1.05-.34l.07,0-.33-.11a4,4,0,0,0,.93-.28,4.18,4.18,0,0,1-1-.33,3.48,3.48,0,0,0,.68-.21,3.39,3.39,0,0,1-.81-.29,2.36,2.36,0,0,0,.52-.16,1.77,1.77,0,0,1-.8-.37,1.72,1.72,0,0,1-.76.37,1.49,1.49,0,0,0,.44.16,1.84,1.84,0,0,1-.73.29,2,2,0,0,0,.59.2,2,2,0,0,1-.88.34,2.44,2.44,0,0,0,.79.27,1.07,1.07,0,0,1-.34.12l.09,0a2.47,2.47,0,0,1-.92.32,2.7,2.7,0,0,0,.7.28,2.24,2.24,0,0,1-.9.28,3,3,0,0,0,.57.25h-.07a1.35,1.35,0,0,0,.2.11,2.42,2.42,0,0,1-.89.26,2.66,2.66,0,0,0,.7.3,2.85,2.85,0,0,1-1.06.34,3.54,3.54,0,0,0,.87.35,3.31,3.31,0,0,1-1.25.4,3.47,3.47,0,0,0,.88.38,3.13,3.13,0,0,1-1.05.29,4.35,4.35,0,0,0,1.06.43,1.68,1.68,0,0,1-.47.11,2.31,2.31,0,0,0,.27.17,3.63,3.63,0,0,1-1.25.35,4.9,4.9,0,0,0,.94.41,1.27,1.27,0,0,1-.26,0,2.39,2.39,0,0,0,.42.25,4.31,4.31,0,0,1-1.58.47,4.59,4.59,0,0,0,.82.39,4.46,4.46,0,0,0,.43.24,4.59,4.59,0,0,1-1.73.51,6.55,6.55,0,0,0,1.61.66l.18.08a5.62,5.62,0,0,1-2.08.65A6.48,6.48,0,0,0,24,134a5.82,5.82,0,0,1-2.13.64,8,8,0,0,0,1.89.78,6.14,6.14,0,0,1-2.27.68,7.92,7.92,0,0,0,2,.81,7.05,7.05,0,0,1-2.66.83,9.17,9.17,0,0,0,2.18.9c-.3.14-.61.28-.91.39l-.41.06.08.06a5.74,5.74,0,0,1-1.52.32,10.8,10.8,0,0,0,3,1.14,3.61,3.61,0,0,1-1.1.27l.29.19a5.71,5.71,0,0,1-1.59.35,8.54,8.54,0,0,0,1.87.81h0a4.22,4.22,0,0,0,.45.28,5.26,5.26,0,0,1-1.6.39,8.43,8.43,0,0,0,2.64,1,3.61,3.61,0,0,1-1.1.27,6.93,6.93,0,0,0,3.13.85l-.07,1.77h1.32l0-1.8a10.09,10.09,0,0,0,3.06-.82,10.14,10.14,0,0,1-1.2-.33,14.17,14.17,0,0,0,2.74-.91s-.7-.14-1.63-.43c.16-.08.32-.15.48-.24l-.21-.05a18.45,18.45,0,0,0,2-.76A15.13,15.13,0,0,1,31.15,141Z"/><path class="cls-6" d="M59.41,139.72l.62-.31a25.8,25.8,0,0,1-2.7-.81,41.59,41.59,0,0,0,7-2.42s-1.35-.26-3.32-.83l0,0s-.41-.09-1.1-.29-1.57-.52-2.42-.84a37.3,37.3,0,0,0,5.47-1.95,42.88,42.88,0,0,1-6.56-2,33.91,33.91,0,0,0,5-1.78A36.56,36.56,0,0,1,56.28,127a33.29,33.29,0,0,0,5.23-1.81,36.53,36.53,0,0,1-5.22-1.53,28.51,28.51,0,0,0,3.9-1.41A32.87,32.87,0,0,1,55,120.67l.47-.18a26.85,26.85,0,0,0,4-1.43,30.67,30.67,0,0,1-4.24-1.23c.39-.17.78-.35,1.18-.56l-.07,0c.66-.22,1.34-.49,2-.79a26.74,26.74,0,0,1-3.89-1.14c.35-.15.7-.32,1.06-.5l-.61-.17a21.86,21.86,0,0,0,2.34-.87,23.29,23.29,0,0,1-3.05-.87l.64-.31s-.44-.1-1.08-.31a18.38,18.38,0,0,0,2.61-.94,20.86,20.86,0,0,1-2.56-.71,18.71,18.71,0,0,0,2.17-.8A19.94,19.94,0,0,1,53,108.9a15.38,15.38,0,0,0,2.23-.79,15.87,15.87,0,0,1-2.31-.67,12.86,12.86,0,0,0,2.26-.77,15.36,15.36,0,0,1-2.29-.68l.36-.18h-.06a14,14,0,0,0,1.55-.57,14.67,14.67,0,0,1-2.22-.67,12.23,12.23,0,0,0,1.78-.62,13.06,13.06,0,0,1-2.4-.77l.15-.08a5.43,5.43,0,0,1-.75-.25,8.21,8.21,0,0,0,2.12-.63,9.42,9.42,0,0,1-2.21-.77,6.59,6.59,0,0,0,1.55-.47,7.44,7.44,0,0,1-1.84-.66,4.63,4.63,0,0,0,1.18-.36,4.2,4.2,0,0,1-1.83-.84,4,4,0,0,1-1.73.84,2.91,2.91,0,0,0,1,.35,4,4,0,0,1-1.67.67,4.27,4.27,0,0,0,1.35.47,4.79,4.79,0,0,1-2,.77,5.33,5.33,0,0,0,1.79.62,1.9,1.9,0,0,1-.77.26,1.12,1.12,0,0,0,.21.13,5.21,5.21,0,0,1-2.1.72,6.16,6.16,0,0,0,1.6.64,5.38,5.38,0,0,1-2,.65,6.27,6.27,0,0,0,1.29.56l-.16,0a3.14,3.14,0,0,0,.44.26,5.54,5.54,0,0,1-2,.6,6.78,6.78,0,0,0,1.6.68,6.39,6.39,0,0,1-2.43.76,8.11,8.11,0,0,0,2,.82,7.53,7.53,0,0,1-2.88.91,9,9,0,0,0,2,.86,6.8,6.8,0,0,1-2.39.65,9.77,9.77,0,0,0,2.43,1,3.8,3.8,0,0,1-1.09.25,5.22,5.22,0,0,0,.63.37,8.27,8.27,0,0,1-2.85.81,10.32,10.32,0,0,0,2.15.94,4.83,4.83,0,0,1-.61.1,7,7,0,0,0,1,.56,10.17,10.17,0,0,1-3.61,1.08,10.84,10.84,0,0,0,1.87.87,8,8,0,0,0,1,.56,10.93,10.93,0,0,1-4,1.17,14.74,14.74,0,0,0,3.67,1.49l.42.18a12.53,12.53,0,0,1-4.75,1.5,15.58,15.58,0,0,0,3.55,1.49,13.64,13.64,0,0,1-4.87,1.45,17.8,17.8,0,0,0,4.31,1.77,14.21,14.21,0,0,1-5.17,1.56A18.24,18.24,0,0,0,42,130.36a16.2,16.2,0,0,1-6.08,1.88,20.79,20.79,0,0,0,5,2c-.69.34-1.4.64-2.1.91a7.8,7.8,0,0,1-.94.12l.21.14a12.94,12.94,0,0,1-3.48.72,24.23,24.23,0,0,0,6.86,2.62,8.07,8.07,0,0,1-2.5.61,6.56,6.56,0,0,0,.65.42,12.14,12.14,0,0,1-3.62.82,20,20,0,0,0,4.27,1.84h-.09a9.09,9.09,0,0,0,1,.62,11.4,11.4,0,0,1-3.65.9,19.6,19.6,0,0,0,6,2.22,8.09,8.09,0,0,1-2.52.6,15.68,15.68,0,0,0,7.16,1.95l-.16,4h3l-.08-4.11a22.19,22.19,0,0,0,7-1.88,25.27,25.27,0,0,1-2.75-.74A33.8,33.8,0,0,0,61.45,144a36.65,36.65,0,0,1-3.72-1c.36-.17.72-.34,1.09-.53l-.48-.13A38.1,38.1,0,0,0,63,140.65S61.49,140.36,59.41,139.72Z"/><path class="cls-7" d="M160.55,83.78v6.47h8.06v4.08h1.55v5.24h-1.74v1.73l7.43,17.17h9.5v11.94h-.79l6.37,17.68.83,1.4h49.5v-43.3C236.22,82,160.55,83.78,160.55,83.78Z"/><path class="cls-8" d="M160.55,83.78v6.47h8.06v4.08h1.55v5.24h-1.74v1.73l1.34,3.1s2.47-.18,6.54-.3V95.62l4.58.32V104c2.09,0,4.4,0,6.88,0v-7.7l4.06.28v7.51c2,.06,4.14.15,6.3.28V97.12l3.59.5v7c2,.16,4.08.34,6.15.57V98.57l3.58.51v6.54c1.57.21,3.14.44,4.7.7v-6.16l3.29.72v6c1.35.26,2.67.54,4,.85v-5.5l2.21.46v5.58c1.13.29,2.24.6,3.33.92V104l2.2.72v5.24c1,.33,2,.69,2.91,1.06v-5.13l1.79.58v5.29c.75.32,1.49.66,2.2,1v-4.7l1.79.94v4.69c.49.27,1,.55,1.42.83v-8.32C236.22,82,160.55,83.78,160.55,83.78Z"/><path class="cls-9" d="M160.55,83.78v6.47h8.06v4.08h1.55v5.24h-1.74v1.73l7.43,17.17h9.5v11.94h-.79l6.37,17.68.83,1.4h49.5v-43.3C236.22,82,160.55,83.78,160.55,83.78Z"/><path class="cls-6" d="M230.86,148.86V137.48c0-1.73-1-3.13-2.12-3.13s-2.11,1.4-2.11,3.13v11.38Z"/><path class="cls-6" d="M225,148.86v-12c0-1.72-.95-3.12-2.12-3.12s-2.11,1.4-2.11,3.12v12Z"/><path class="cls-6" d="M235.74,148.86V138.05c0-1.44-.79-2.62-1.77-2.62s-1.77,1.18-1.77,2.62v10.81Z"/><path class="cls-6" d="M239.93,148.86v-10.3c0-1.17-.64-2.12-1.43-2.12s-1.44.95-1.44,2.12v10.3Z"/><path class="cls-6" d="M189.79,148.86V135.44a3.13,3.13,0,0,0-6.26,0v13.42Z"/><path class="cls-6" d="M218.07,148.86V136.47a2.65,2.65,0,1,0-5.21,0v12.39Z"/><path class="cls-6" d="M198.66,148.86V135.44a3.13,3.13,0,1,0-6.25,0v13.42Z"/><path class="cls-6" d="M209.59,148.86V135.44a3.13,3.13,0,1,0-6.25,0v13.42Z"/><path class="cls-6" d="M230.05,127.51v-9.05c0-1.84-1-3.42-2.22-3.54s-2.21,1.27-2.21,3.11v8.7C227.13,127,228.61,127.24,230.05,127.51Z"/><path class="cls-6" d="M235.16,128.6v-9c0-1.54-.83-2.87-1.85-3s-1.85,1.06-1.85,2.6v8.58C232.73,128.05,234,128.32,235.16,128.6Z"/><path class="cls-6" d="M239.56,129.74v-9.19c0-1.25-.68-2.33-1.51-2.41s-1.5.86-1.5,2.11v8.68C237.59,129.19,238.6,129.46,239.56,129.74Z"/><path class="cls-6" d="M223.92,126.45v-9.23c0-1.84-1-3.43-2.21-3.55s-2.22,1.28-2.22,3.12v9C221,126,222.47,126.22,223.92,126.45Z"/><path class="cls-6" d="M208.26,124.45V113.57a3.72,3.72,0,0,0-3.27-3.65,2.94,2.94,0,0,0-3.28,3v10.89C203.87,124,206.07,124.22,208.26,124.45Z"/><path class="cls-6" d="M188.41,122.8V112.07a3.74,3.74,0,0,0-3.28-3.65,3,3,0,0,0-3.28,3v11C183.89,122.52,186.09,122.65,188.41,122.8Z"/><path class="cls-6" d="M176.67,122.15V110.54a3.74,3.74,0,0,0-3.28-3.65,3,3,0,0,0-3.28,3v12C171.58,121.93,173.84,122,176.67,122.15Z"/><path class="cls-6" d="M216.65,125.42v-9.34a3.46,3.46,0,0,0-2.73-3.6c-1.5-.15-2.72,1.22-2.72,3.06v9.23C213,125,214.85,125.19,216.65,125.42Z"/><path class="cls-6" d="M198.48,123.54V112.83a3.73,3.73,0,0,0-3.28-3.65,2.94,2.94,0,0,0-3.28,3V123Q195.1,123.26,198.48,123.54Z"/><path class="cls-9" d="M160.55,83.78v6.47h8.06v4.08h1.55v5.24h-1.74v1.73l1.34,3.1s2.47-.18,6.54-.3V95.62l4.58.32V104c2.09,0,4.4,0,6.88,0v-7.7l4.06.28v7.51c2,.06,4.14.15,6.3.28V97.12l3.59.5v7c2,.16,4.08.34,6.15.57V98.57l3.58.51v6.54c1.57.21,3.14.44,4.7.7v-6.16l3.29.72v6c1.35.26,2.67.54,4,.85v-5.5l2.21.46v5.58c1.13.29,2.24.6,3.33.92V104l2.2.72v5.24c1,.33,2,.69,2.91,1.06v-5.13l1.79.58v5.29c.75.32,1.49.66,2.2,1v-4.7l1.79.94v4.69c.49.27,1,.55,1.42.83v-8.32C236.22,82,160.55,83.78,160.55,83.78Z"/><path class="cls-7" d="M62.56,68s6.72-22.6,40.35-34.19l3.18,2.62v1.68L110,41.05l4.49,15,1.87-.19L119.92,59V69.32h-1.87v3.36l1.87.75,3.73,11.21h3v-2h5.42L139,90.25h29.64v4.08h1.55v5.24h-1.74v1.73l7.43,17.17h9.5v11.94h-.79L192,151.15H56.44v-3.27H57.7V132.8a2.58,2.58,0,0,1,.56-4.07l1-13.73s-1.21-.75-.75-3.83a9.68,9.68,0,0,1,2.15-4.86l.37-9.15S59,93.42,62.37,87.35l.75-11.58s1.77-1,1.68-2.53a28.51,28.51,0,0,1,0-3H62.93Z"/><polygon class="cls-8" points="184.56 130.41 185.35 130.41 185.35 118.47 175.85 118.47 168.42 101.3 168.42 99.57 170.16 99.57 170.16 94.33 168.61 94.33 168.61 90.25 138.97 90.25 132.06 82.58 132.06 97.83 137.84 114.68 148.2 114.68 150.99 117.31 150.99 125.35 148.78 125.35 148.78 128.91 150.99 128.91 150.99 132.31 159.03 151.15 192.03 151.15 184.56 130.41"/><polygon class="cls-10" points="150.99 125.35 150.99 128.91 185.35 128.91 185.35 118.47 175.85 118.47 150.99 118.47 150.99 125.35"/><polygon class="cls-10" points="168.42 99.57 170.16 99.57 170.16 94.33 168.61 94.33 168.61 90.25 138.97 90.25 133.76 84.47 133.76 95.56 140 99.57 168.42 99.57"/><path class="cls-6" d="M180.92,150.4V136.92c0-3.44-2.52-6.23-5.61-6.23s-5.61,2.79-5.61,6.23V150.4Z"/><path class="cls-6" d="M163.84,115.52v-9.39c0-2.39-2.51-4.32-5.61-4.32s-5.61,1.93-5.61,4.32v9.39Z"/><path class="cls-6" d="M143.36,103.17a4.56,4.56,0,0,0-4.76,4.33v7.18h9.53V107.5A4.57,4.57,0,0,0,143.36,103.17Z"/><path class="cls-6" d="M163.82,136.92c0-3.44-2.51-6.23-5.61-6.23a5.87,5.87,0,0,0-5.57,5.5l6.07,14.21h5.11Z"/><path class="cls-9" d="M62.56,68s6.72-22.6,40.35-34.19l3.18,2.62v1.68L110,41.05l4.49,15,1.87-.19L119.92,59V69.32h-1.87v3.36l1.87.75,3.73,11.21h3v-2h5.42L139,90.25h29.64v4.08h1.55v5.24h-1.74v1.73l7.43,17.17h9.5v11.94h-.79L192,151.15H56.44v-3.27H57.7V132.8a2.58,2.58,0,0,1,.56-4.07l1-13.73s-1.21-.75-.75-3.83a9.68,9.68,0,0,1,2.15-4.86l.37-9.15S59,93.42,62.37,87.35l.75-11.58s1.77-1,1.68-2.53a28.51,28.51,0,0,1,0-3H62.93Z"/><path class="cls-11" d="M118.94,37.91h18.33s-.19-2.51-2.46-2.27c0,0-.49-1.41-1.6-1.29,0,0,.74-4.36-2.33-4.6a3.51,3.51,0,0,0-3.81,2.39s-2-1.78-3.62-.49a3,3,0,0,0-1,3.19A1.77,1.77,0,0,0,120.55,36s-2.21.23-2.35,1.93Z"/><path class="cls-11" d="M172,71.65h19.84s-.1-3.86-3.86-3.21c0,0-.64-4.16-3.67-2.91,0,0-1-2.69-3.49-1.59,0,0-.09-7.07-5.33-6.8s-5.14,6.61-5.14,6.61a2.74,2.74,0,0,0-2.78,3.55,1.8,1.8,0,0,0-1,1.67,2.51,2.51,0,0,0-1.8,2.68Z"/><path class="cls-11" d="M240.62,105.32h14.66s-.07-2.85-2.85-2.38c0,0-.48-3.07-2.72-2.14a1.9,1.9,0,0,0-2.57-1.18s-.07-5.23-3.94-5-3.8,4.89-3.8,4.89a2,2,0,0,0-2.06,2.62,1.34,1.34,0,0,0-.74,1.23,1.86,1.86,0,0,0-1.33,2Z"/><path class="cls-11" d="M217.13,31.74h13.44s-.26-1.72-1.86-1.59c0,0-.6-1.33-1.66-.73,0,0-.4-2.79-2.79-1.92,0,0-.59-4.25-4.44-4.25s-4.19,4.58-4.19,4.58A1.47,1.47,0,0,0,213.84,29s-1.59-.73-2.19,1.26c0,0-1.72.33-2,1.52Z"/><polygon class="cls-9" points="184.56 130.41 185.35 130.41 185.35 118.47 175.85 118.47 168.42 101.3 168.42 99.57 170.16 99.57 170.16 94.33 168.61 94.33 168.61 90.25 138.97 90.25 132.06 82.58 132.06 97.83 137.84 114.68 148.2 114.68 150.99 117.31 150.99 125.35 148.78 125.35 148.78 128.91 150.99 128.91 150.99 132.31 159.03 151.15 192.03 151.15 184.56 130.41"/><polyline class="cls-9" points="150.99 132.31 150.99 149.24 151.67 149.24 151.67 151.15"/><path class="cls-9" d="M151,125.35s-68.35,1.93-78.86,3.76S57.7,132.8,57.7,132.8"/><path class="cls-9" d="M151.33,118.88s-50.75,1.68-68.27,3.78-24.8,6.07-24.8,6.07"/><path class="cls-9" d="M59.29,115s-1-3.69,13.12-10.84S132.06,93.8,132.06,93.8"/><path class="cls-9" d="M60.69,106.31s7.52-6.77,25.74-11.67,45.63-7.15,45.63-7.15"/><polygon class="cls-8" points="118.05 69.32 119.92 69.32 119.92 59.05 116.37 55.87 116.37 65.91 118.05 71.86 118.05 69.32"/><polygon class="cls-8" points="106.32 41.81 107.44 57.22 114.5 56.06 110.01 41.05 106.09 38.12 106.09 36.44 102.91 33.82 102.91 38.59 106.32 41.81"/><polygon class="cls-8" points="118.31 72.79 121.6 84.41 123.58 84.41 119.92 73.43 118.31 72.79"/><path class="cls-9" d="M61.06,97.16s.14-8,15.14-16.68,39.51-14.57,39.51-14.57l4.21,2.52V63.67L115.85,61s-36.62,6.3-53.48,26.34C59,93.42,61.06,97.16,61.06,97.16Z"/><polygon class="cls-9" points="118.05 69.32 119.92 69.32 119.92 59.05 116.37 55.87 116.37 65.91 118.05 71.86 118.05 69.32"/><polygon class="cls-9" points="106.32 41.81 107.44 57.22 114.5 56.06 110.01 41.05 106.09 38.12 106.09 36.44 102.91 33.82 102.91 38.59 106.32 41.81"/><polygon class="cls-9" points="118.31 72.79 121.6 84.41 123.58 84.41 119.92 73.43 118.31 72.79"/><path class="cls-9" d="M64.8,70.25S69,53.58,102.91,38.59"/><path class="cls-12" d="M133.7,84.41h0l-1.64-1.82V97.83l5.78,16.85h2.81l-7-17.52S134.15,84.9,133.7,84.41Z"/><polygon class="cls-9" points="168.42 99.57 170.16 99.57 170.16 94.33 168.61 94.33 168.61 90.25 138.97 90.25 133.76 84.47 133.76 95.56 140 99.57 168.42 99.57"/><polygon class="cls-9" points="150.99 125.35 150.99 128.91 185.35 128.91 185.35 118.47 175.85 118.47 150.99 118.47 150.99 125.35"/><path class="cls-9" d="M126.45,126.18a7.86,7.86,0,0,1,0,1.11H131V126Z"/><path class="cls-9" d="M109.64,126.81a7.86,7.86,0,0,1,0,1.11h4.52v-1.27Z"/><path class="cls-9" d="M95.07,127.44c0,.32,0,1.12,0,1.12h3.15v-1.27Z"/><path class="cls-9" d="M84,128.07c0,.28,0,1,0,1h3.15v-1.16Z"/><path class="cls-9" d="M74.5,128.79a6.39,6.39,0,0,1,0,.9h2.92v-1.18Z"/><path class="cls-9" d="M67.07,130.27a1.73,1.73,0,0,1,0,.45H70V129.5Z"/><path class="cls-9" d="M144.21,125.57a8.29,8.29,0,0,1,0,1.14h4.63v-1.3Z"/><rect class="cls-6" x="165.44" y="129.99" width="2.4" height="16.58"/><rect class="cls-9" x="164.45" y="128.91" width="4.48" height="1.08"/><rect class="cls-6" x="181.62" y="129.99" width="2.4" height="16.58"/><rect class="cls-9" x="180.63" y="128.91" width="4.48" height="1.08"/><path class="cls-6" d="M144.21,149.49V134.91a6.32,6.32,0,1,0-12.62,0v14.58Z"/><path class="cls-6" d="M126.07,149.49V134.91a6,6,0,1,0-11.91,0v14.58Z"/><path class="cls-6" d="M109.55,149.49V135.36c0-3.89-2.5-6.28-5.58-6.28s-5.58,2.39-5.58,6.28v14.13Z"/><path class="cls-6" d="M95.07,149.49V135.36c0-3.89-1.76-5.37-3.92-5.37s-3.92,1.48-3.92,5.37v14.13Z"/><path class="cls-6" d="M84,149.49V136.78c0-3.5-1.6-4.82-3.57-4.82s-3.57,1.32-3.57,4.82v12.71Z"/><path class="cls-6" d="M74.84,149.49v-12c0-3.22-1.22-4.44-2.72-4.44s-2.73,1.22-2.73,4.44v12Z"/><path class="cls-6" d="M67.79,149.49v-11.7c0-3-.82-4.18-1.84-4.18s-1.84,1.15-1.84,4.18v11.7Z"/><path class="cls-6" d="M62.6,149.49v-11c0-2.72-.74-3.75-1.65-3.75s-1.65,1-1.65,3.75v11Z"/><rect class="cls-6" x="127.54" y="127.29" width="2.34" height="22.21"/><rect class="cls-6" x="145.32" y="126.71" width="2.4" height="22.78"/><rect class="cls-6" x="110.63" y="127.92" width="2.34" height="21.57"/><rect class="cls-6" x="95.8" y="128.56" width="1.69" height="20.94"/><rect class="cls-6" x="84.73" y="129.08" width="1.69" height="20.42"/><rect class="cls-6" x="75.12" y="129.69" width="1.58" height="19.8"/><rect class="cls-6" x="67.73" y="130.72" width="1.58" height="18.77"/><path class="cls-6" d="M61.85,131.26a1.73,1.73,0,0,1,0,.45h2.92v-1.22Z"/><rect class="cls-6" x="62.52" y="131.71" width="1.58" height="17.78"/><polygon class="cls-6" points="126.82 94.42 126.82 95.51 130.6 95.51 130.6 93.91 126.82 94.42"/><rect class="cls-6" x="127.57" y="95.51" width="2.34" height="24.25"/><polygon class="cls-6" points="110.4 96.02 110.4 97.11 114.18 97.11 114.18 95.51 110.4 96.02"/><polygon class="cls-6" points="113.49 120.48 111.15 120.57 111.15 97.11 113.49 97.11 113.49 120.48"/><polygon class="cls-6" points="95.79 98.01 95.79 99.1 99.58 99.1 99.58 97.5 95.79 98.01"/><polygon class="cls-6" points="98.88 121.36 96.54 121.45 96.54 99.1 98.88 99.1 98.88 121.36"/><polygon class="cls-6" points="84.55 100.24 84.55 100.91 88.34 100.91 88.34 99.4 84.55 100.24"/><polygon class="cls-6" points="87.3 122.22 85.3 122.41 85.3 100.91 87.3 100.91 87.3 122.22"/><polygon class="cls-6" points="75.86 102.74 75.86 103.36 78.63 103.36 78.63 101.78 75.86 102.74"/><polygon class="cls-6" points="77.87 123.41 76.41 123.55 76.41 103.36 77.87 103.36 77.87 123.41"/><polygon class="cls-6" points="69.39 105.77 69.39 106.19 71.41 106.19 71.41 104.72 69.39 105.77"/><polygon class="cls-6" points="70.86 124.7 69.79 124.94 69.79 106.19 70.86 106.19 70.86 124.7"/><polygon class="cls-6" points="64.18 109.03 64.18 109.4 66.2 109.4 66.2 107.66 64.18 109.03"/><polygon class="cls-6" points="65.64 126.06 64.58 126.3 64.58 109.4 65.64 109.4 65.64 126.06"/><path class="cls-6" d="M95.8,116.71v-9.63c0-2.62-1.81-4.74-4-4.74s-4.05,2.12-4.05,4.74v10.64C90.22,117.35,92.91,117,95.8,116.71Z"/><path class="cls-6" d="M109.55,115.7V104.59c0-3.12-2.17-5.66-4.83-5.66s-4.84,2.54-4.84,5.66v11.74C102.91,116.07,106.12,115.86,109.55,115.7Z"/><path class="cls-6" d="M125.78,115.4V103.52a5.67,5.67,0,0,0-11.33,0v12C118,115.41,121.79,115.37,125.78,115.4Z"/><path class="cls-6" d="M84.73,118.19V109c0-2.35-1.44-4.27-3.2-4.27s-3.2,1.92-3.2,4.27V119.4Q81.27,118.77,84.73,118.19Z"/><path class="cls-6" d="M61.65,124.54v-6.4c0-2.16-.34-3.91-.76-3.91s-.76,1.75-.76,3.91v7.14C60.53,125.07,61,124.82,61.65,124.54Z"/><path class="cls-6" d="M76,119.93v-8.88c0-2.36-1-4.27-2.33-4.27s-2.32,1.91-2.32,4.27v10.07C72.72,120.72,74.27,120.32,76,119.93Z"/><path class="cls-6" d="M64.46,123.36v-7.62c0-2.36-.51-4.27-1.15-4.27s-1.16,1.91-1.16,4.27v8.57C62.82,124,63.58,123.7,64.46,123.36Z"/><path class="cls-6" d="M69.39,121.68V113c0-2.36-.72-4.27-1.6-4.27S66.2,110.61,66.2,113v9.76C67.16,122.39,68.22,122,69.39,121.68Z"/><polygon class="cls-6" points="111.98 66.82 111.98 67.92 115.77 67.92 115.77 65.91 111.98 66.82"/><polygon class="cls-6" points="115.07 89.35 112.73 89.67 112.73 67.92 115.07 67.92 115.07 89.35"/><polygon class="cls-6" points="97.84 71.17 97.84 72.26 101.63 72.26 101.63 69.92 97.84 71.17"/><polygon class="cls-6" points="100.93 91.59 98.59 91.91 98.59 72.26 100.93 72.26 100.93 91.59"/><polygon class="cls-6" points="86.44 75.47 86.44 76.47 89.64 76.47 89.64 74.17 86.44 75.47"/><polygon class="cls-6" points="89.11 93.95 87.14 94.43 87.08 76.47 89.06 76.47 89.11 93.95"/><polygon class="cls-6" points="77.69 79.65 77.69 80.06 80.55 80.06 80.55 78.16 77.69 79.65"/><polygon class="cls-6" points="80.08 96.55 78.31 97.16 78.26 80.06 80.03 80.06 80.08 96.55"/><polygon class="cls-6" points="71.14 83.77 71.14 83.97 73.78 83.97 73.78 81.96 71.14 83.77"/><polygon class="cls-6" points="73.34 99.15 71.71 99.71 71.66 83.97 73.29 83.97 73.34 99.15"/><polygon class="cls-6" points="66.19 87.99 66.19 88.16 68.47 88.16 68.47 85.89 66.19 87.99"/><polygon class="cls-6" points="68.09 101.58 66.69 102.34 66.64 88.16 68.05 88.16 68.09 101.58"/><path class="cls-6" d="M97.69,88.44v-9.7c0-2.55-1.73-4.24-3.93-3.77s-4,2.93-4,5.48l-.13,10.39C92.05,90,94.83,89.34,97.69,88.44Z"/><path class="cls-6" d="M111.18,85.62l.28-11.39c.08-2.86-2-4.72-4.62-4.15a6.71,6.71,0,0,0-4.92,6.19l-.29,11.64C104.5,87.07,107.5,86.56,111.18,85.62Z"/><path class="cls-6" d="M86.6,91.84,86.74,83c0-2.27-1.35-3.81-3.09-3.44s-3.19,2.52-3.22,4.78l-.16,10Q83.18,93.14,86.6,91.84Z"/><path class="cls-6" d="M63.67,102.57l.16-5.85c.06-2-.23-3.5-.65-3.41s-.79,1.76-.84,3.73l-.19,6.52C62.56,103.29,63.06,103,63.67,102.57Z"/><path class="cls-6" d="M77.92,95.33l.23-8.11c.06-2.16-.92-3.68-2.19-3.41s-2.35,2.24-2.41,4.39l-.26,9.21Q75.41,96.41,77.92,95.33Z"/><path class="cls-6" d="M66.48,100.9l.19-7c.06-2.15-.4-3.79-1-3.66s-1.19,2-1.25,4.15l-.21,7.84C64.84,101.85,65.6,101.4,66.48,100.9Z"/><path class="cls-6" d="M71.38,98.32l.23-8c.06-2.15-.6-3.75-1.47-3.56S68.52,88.88,68.46,91L68.21,100C69.16,99.44,70.22,98.9,71.38,98.32Z"/><path class="cls-9" d="M107.44,57.22S79.17,62.79,62.68,82.59"/><polygon class="cls-6" points="84.72 55.87 88.1 53.85 88.1 60.3 84.72 62.09 84.72 55.87"/><polygon class="cls-6" points="71.61 64.82 73.29 62.8 73.29 69.25 71.61 71.03 71.61 64.82"/><polygon class="cls-9" points="159.03 151.15 192.03 151.15 190.38 146.57 157.08 146.57 159.03 151.15"/><rect class="cls-9" x="153.55" y="118.47" width="9.67" height="8.18"/><path class="cls-9" d="M170.16,94.33c-1.55,0-31.38-.18-31.56,0s-4.84-4.66-4.84-4.66"/><path class="cls-6" d="M272.86,134.62l.27-.13s-.49-.12-1.18-.36a18.29,18.29,0,0,0,3.09-1.06s-.59-.11-1.45-.37h0l-.48-.12c-.33-.11-.69-.23-1.06-.37a17,17,0,0,0,2.39-.86,19,19,0,0,1-2.87-.85,16.23,16.23,0,0,0,2.2-.78,17.21,17.21,0,0,1-2.3-.67,13.07,13.07,0,0,0,2.29-.8,15.62,15.62,0,0,1-2.28-.66,13.72,13.72,0,0,0,1.71-.62,14.23,14.23,0,0,1-2.27-.69l.21-.08a12.55,12.55,0,0,0,1.77-.62,14.05,14.05,0,0,1-1.86-.54c.17-.07.34-.16.52-.25h0c.29-.1.58-.22.89-.35a12.91,12.91,0,0,1-1.71-.5l.47-.22-.27-.07a8.89,8.89,0,0,0,1-.39,8.82,8.82,0,0,1-1.34-.38l.28-.13-.47-.14a7.52,7.52,0,0,0,1.14-.41,7.93,7.93,0,0,1-1.12-.31,8.54,8.54,0,0,0,.95-.35,9.33,9.33,0,0,1-1.36-.41,7.78,7.78,0,0,0,1-.35,7.42,7.42,0,0,1-1-.29,6.12,6.12,0,0,0,1-.34,6.21,6.21,0,0,1-1-.3l.16-.08h0a7.08,7.08,0,0,0,.68-.25,5.76,5.76,0,0,1-1-.3,4.53,4.53,0,0,0,.78-.27,5.09,5.09,0,0,1-1.05-.34l.06,0a1.75,1.75,0,0,1-.33-.11,3.69,3.69,0,0,0,.93-.27,3.94,3.94,0,0,1-1-.34,3,3,0,0,0,.67-.21,3.24,3.24,0,0,1-.8-.29,2,2,0,0,0,.52-.15,1.91,1.91,0,0,1-.81-.37,1.85,1.85,0,0,1-.75.37,1.34,1.34,0,0,0,.44.15,1.75,1.75,0,0,1-.73.29,1.7,1.7,0,0,0,.58.21,2.14,2.14,0,0,1-.87.34,2.44,2.44,0,0,0,.78.27.76.76,0,0,1-.34.11l.09.06a2.23,2.23,0,0,1-.92.31,2.9,2.9,0,0,0,.71.28,2.55,2.55,0,0,1-.9.29,2.62,2.62,0,0,0,.57.25h-.07l.19.12a2.38,2.38,0,0,1-.88.26,3.15,3.15,0,0,0,.7.3,2.82,2.82,0,0,1-1.06.33,3.53,3.53,0,0,0,.87.36,3.3,3.3,0,0,1-1.26.4,4,4,0,0,0,.88.37,2.86,2.86,0,0,1-1.05.29,4.29,4.29,0,0,0,1.07.44,1.83,1.83,0,0,1-.48.11,2.81,2.81,0,0,0,.27.16,3.58,3.58,0,0,1-1.24.35,4.2,4.2,0,0,0,.94.42l-.27,0a2.75,2.75,0,0,0,.43.24,4.39,4.39,0,0,1-1.58.48,5.26,5.26,0,0,0,.81.38,3.68,3.68,0,0,0,.44.25,5,5,0,0,1-1.74.51,6.34,6.34,0,0,0,1.61.65l.18.08a5.36,5.36,0,0,1-2.08.66,7,7,0,0,0,1.56.65,5.8,5.8,0,0,1-2.13.63,7.52,7.52,0,0,0,1.89.78,6.27,6.27,0,0,1-2.27.69,8.41,8.41,0,0,0,2,.81,7.07,7.07,0,0,1-2.67.82,9.15,9.15,0,0,0,2.19.9c-.3.15-.61.28-.92.4a2,2,0,0,1-.41.05l.09.07a5.79,5.79,0,0,1-1.52.31,10.44,10.44,0,0,0,3,1.15,3.55,3.55,0,0,1-1.09.27,2.74,2.74,0,0,0,.28.18,5.28,5.28,0,0,1-1.58.36,8.28,8.28,0,0,0,1.87.8h0a5.28,5.28,0,0,0,.46.27,5,5,0,0,1-1.61.39,8.71,8.71,0,0,0,2.65,1,3.64,3.64,0,0,1-1.11.26,6.85,6.85,0,0,0,3.14.85l-.07,1.77h1.32l0-1.79a9.83,9.83,0,0,0,3.07-.83,11.7,11.7,0,0,1-1.21-.32,14.55,14.55,0,0,0,2.75-.92,14.56,14.56,0,0,1-1.63-.43l.48-.23-.22-.06a15.94,15.94,0,0,0,2-.75S273.78,134.9,272.86,134.62Z"/><path class="cls-6" d="M260.51,147.35l.33-.16s-.59-.14-1.42-.43a23,23,0,0,0,3.71-1.27s-.71-.14-1.75-.44l0,0-.58-.15c-.4-.13-.83-.27-1.27-.44a20.53,20.53,0,0,0,2.88-1,23.32,23.32,0,0,1-3.46-1,18.44,18.44,0,0,0,2.65-.94,18.86,18.86,0,0,1-2.77-.8,17.42,17.42,0,0,0,2.76-.95,19.13,19.13,0,0,1-2.75-.81,15,15,0,0,0,2.05-.74,17,17,0,0,1-2.71-.82l.24-.1a14,14,0,0,0,2.13-.75,15.85,15.85,0,0,1-2.24-.65c.21-.09.41-.18.62-.29h0c.35-.12.7-.26,1.07-.42a13.44,13.44,0,0,1-2.05-.6l.56-.26-.32-.09a9.82,9.82,0,0,0,1.23-.46,11.82,11.82,0,0,1-1.6-.46l.33-.16a4.81,4.81,0,0,1-.56-.17,9.9,9.9,0,0,0,1.37-.49,10.21,10.21,0,0,1-1.35-.37,10,10,0,0,0,1.14-.42,9.83,9.83,0,0,1-1.63-.5,8.23,8.23,0,0,0,1.17-.41,9.28,9.28,0,0,1-1.21-.35,8.33,8.33,0,0,0,1.18-.41,7.85,7.85,0,0,1-1.2-.36l.19-.09h0a8.14,8.14,0,0,0,.81-.3,8,8,0,0,1-1.17-.35,7.09,7.09,0,0,0,.94-.33,6.16,6.16,0,0,1-1.26-.41l.08,0a2.76,2.76,0,0,1-.4-.13,4.22,4.22,0,0,0,1.12-.33,4.92,4.92,0,0,1-1.16-.4A4.35,4.35,0,0,0,257,127a4.06,4.06,0,0,1-1-.35,2.41,2.41,0,0,0,.62-.19,2.26,2.26,0,0,1-1-.44,2.19,2.19,0,0,1-.91.44,1.57,1.57,0,0,0,.53.19,2.09,2.09,0,0,1-.88.35,2.34,2.34,0,0,0,.71.25,2.56,2.56,0,0,1-1,.4,2.79,2.79,0,0,0,.94.33,1,1,0,0,1-.41.13l.11.07a2.88,2.88,0,0,1-1.11.38,3.63,3.63,0,0,0,.85.34,2.94,2.94,0,0,1-1.08.34,4,4,0,0,0,.68.3H254a1.41,1.41,0,0,0,.23.13,3,3,0,0,1-1.06.32,3.89,3.89,0,0,0,.84.36,3.4,3.4,0,0,1-1.27.4,4.14,4.14,0,0,0,1.05.43,4.19,4.19,0,0,1-1.52.48,4.83,4.83,0,0,0,1.06.45,3.39,3.39,0,0,1-1.26.34,5,5,0,0,0,1.28.53,2.11,2.11,0,0,1-.57.13,3.33,3.33,0,0,0,.33.2,4.25,4.25,0,0,1-1.5.42,5.28,5.28,0,0,0,1.13.5l-.32.05a3.74,3.74,0,0,0,.51.29,5.09,5.09,0,0,1-1.9.57,6.08,6.08,0,0,0,1,.46,4.83,4.83,0,0,0,.53.3,5.75,5.75,0,0,1-2.09.61,7.64,7.64,0,0,0,1.93.79l.22.09a6.54,6.54,0,0,1-2.5.79,7.81,7.81,0,0,0,1.87.78,7.06,7.06,0,0,1-2.56.77,9.36,9.36,0,0,0,2.27.93,7.4,7.4,0,0,1-2.73.82,9.91,9.91,0,0,0,2.39,1,8.63,8.63,0,0,1-3.19,1,10.8,10.8,0,0,0,2.62,1.08,11.82,11.82,0,0,1-1.1.48l-.5.06.11.08a7,7,0,0,1-1.83.38,12.92,12.92,0,0,0,3.61,1.37,4.48,4.48,0,0,1-1.32.33l.35.22a6.55,6.55,0,0,1-1.91.43,10.44,10.44,0,0,0,2.25,1h0a5.1,5.1,0,0,0,.54.33,6.19,6.19,0,0,1-1.92.47,10.44,10.44,0,0,0,3.17,1.17,4.23,4.23,0,0,1-1.32.32,8.34,8.34,0,0,0,3.76,1l-.08,2.13h1.58l0-2.16a12.1,12.1,0,0,0,3.67-1,13.5,13.5,0,0,1-1.45-.39,17.49,17.49,0,0,0,3.3-1.1,18.56,18.56,0,0,1-1.95-.52l.57-.28-.25-.07a20.51,20.51,0,0,0,2.45-.9S261.61,147.68,260.51,147.35Z"/><path class="cls-6" d="M248.38,141.45l.33-.16s-.59-.14-1.42-.43a22.68,22.68,0,0,0,3.71-1.27s-.71-.14-1.75-.44l0,0-.58-.15c-.4-.13-.83-.27-1.27-.44a20.53,20.53,0,0,0,2.88-1,23.32,23.32,0,0,1-3.46-1,18,18,0,0,0,2.65-.94,18.94,18.94,0,0,1-2.76-.8,17.68,17.68,0,0,0,2.75-1,19.13,19.13,0,0,1-2.75-.81,15.15,15.15,0,0,0,2.06-.74,17,17,0,0,1-2.72-.82l.25-.1a14.28,14.28,0,0,0,2.12-.75,15.85,15.85,0,0,1-2.24-.65c.21-.08.41-.18.63-.29h0c.35-.12.71-.26,1.07-.42a13.81,13.81,0,0,1-2.05-.6c.19-.08.37-.16.56-.26l-.32-.09a9.82,9.82,0,0,0,1.23-.46,11.82,11.82,0,0,1-1.6-.46l.33-.16a4.81,4.81,0,0,1-.56-.17,9.9,9.9,0,0,0,1.37-.49,10.21,10.21,0,0,1-1.35-.37,10.84,10.84,0,0,0,1.15-.42,9.78,9.78,0,0,1-1.64-.5,7.82,7.82,0,0,0,1.17-.41,9.28,9.28,0,0,1-1.21-.35,8.43,8.43,0,0,0,1.19-.41,7.78,7.78,0,0,1-1.21-.36l.19-.09h0a8.14,8.14,0,0,0,.81-.3,7.66,7.66,0,0,1-1.16-.35,7,7,0,0,0,.93-.33,6.16,6.16,0,0,1-1.26-.41l.08,0a2.76,2.76,0,0,1-.4-.13,4.12,4.12,0,0,0,1.12-.33,4.92,4.92,0,0,1-1.16-.4,4.35,4.35,0,0,0,.81-.25,4.22,4.22,0,0,1-1-.35,2.48,2.48,0,0,0,.63-.19,2.28,2.28,0,0,1-1-.44,2.19,2.19,0,0,1-.91.44,1.57,1.57,0,0,0,.53.19,2.09,2.09,0,0,1-.88.35,2.34,2.34,0,0,0,.71.25,2.43,2.43,0,0,1-1.05.4,2.79,2.79,0,0,0,.94.33,1,1,0,0,1-.41.13l.11.07a2.89,2.89,0,0,1-1.1.38,3,3,0,0,0,.84.34,2.88,2.88,0,0,1-1.08.34,3.93,3.93,0,0,0,.69.3h-.09a1.41,1.41,0,0,0,.23.13,2.93,2.93,0,0,1-1.06.32,3.89,3.89,0,0,0,.84.36,3.4,3.4,0,0,1-1.27.4,4.37,4.37,0,0,0,1,.43,4.2,4.2,0,0,1-1.51.48,4.58,4.58,0,0,0,1.05.45,3.39,3.39,0,0,1-1.26.34,5,5,0,0,0,1.28.53,2.11,2.11,0,0,1-.57.13,1.93,1.93,0,0,0,.33.2,4.25,4.25,0,0,1-1.5.42,5.28,5.28,0,0,0,1.13.5l-.32.05a3.74,3.74,0,0,0,.51.29,5.09,5.09,0,0,1-1.9.57,6.08,6.08,0,0,0,1,.46,4.83,4.83,0,0,0,.53.3,5.75,5.75,0,0,1-2.09.61,7.64,7.64,0,0,0,1.93.79l.22.09a6.55,6.55,0,0,1-2.49.79,7.83,7.83,0,0,0,1.86.78,7,7,0,0,1-2.56.77,9.36,9.36,0,0,0,2.27.93,7.41,7.41,0,0,1-2.72.82,9.67,9.67,0,0,0,2.39,1,8.55,8.55,0,0,1-3.2,1,10.8,10.8,0,0,0,2.62,1.08,11.82,11.82,0,0,1-1.1.48,4.26,4.26,0,0,1-.5.06l.11.08a7,7,0,0,1-1.83.38,12.92,12.92,0,0,0,3.61,1.37,4.5,4.5,0,0,1-1.31.33l.34.22a6.55,6.55,0,0,1-1.91.43,10.72,10.72,0,0,0,2.25,1h-.05a5.1,5.1,0,0,0,.54.33,6.12,6.12,0,0,1-1.92.47,10.44,10.44,0,0,0,3.17,1.17,4.17,4.17,0,0,1-1.32.32,8.34,8.34,0,0,0,3.76,1l-.08,2.13H244l0-2.16a12.16,12.16,0,0,0,3.68-1,12.83,12.83,0,0,1-1.45-.39,18,18,0,0,0,3.3-1.1,18.32,18.32,0,0,1-2-.52l.57-.28-.25-.07a20.51,20.51,0,0,0,2.45-.9S249.48,141.78,248.38,141.45Z"/><path class="cls-6" d="M247.88,144.93a2.1,2.1,0,0,0,.3-.15,13.32,13.32,0,0,1-1.28-.38,19.9,19.9,0,0,0,3.35-1.15s-.64-.13-1.58-.4h0l-.53-.14c-.36-.12-.75-.25-1.15-.4a19.2,19.2,0,0,0,2.61-.93,21.11,21.11,0,0,1-3.13-.93,16.85,16.85,0,0,0,2.39-.85,17.94,17.94,0,0,1-2.5-.72,15.9,15.9,0,0,0,2.5-.87,16.59,16.59,0,0,1-2.49-.73,13.12,13.12,0,0,0,1.86-.67,15.8,15.8,0,0,1-2.46-.74l.22-.09a11.67,11.67,0,0,0,1.92-.68,14.34,14.34,0,0,1-2-.59,4.67,4.67,0,0,0,.56-.26h0c.32-.11.64-.23,1-.38a13.7,13.7,0,0,1-1.85-.54c.17-.07.33-.15.51-.24l-.29-.08a9.58,9.58,0,0,0,1.11-.42,9.76,9.76,0,0,1-1.45-.41,2.1,2.1,0,0,0,.3-.15,3.6,3.6,0,0,1-.51-.15,7.72,7.72,0,0,0,1.24-.44,9,9,0,0,1-1.22-.34,8.87,8.87,0,0,0,1-.38,9.24,9.24,0,0,1-1.48-.45,7.94,7.94,0,0,0,1.06-.37,7.84,7.84,0,0,1-1.1-.32,6.5,6.5,0,0,0,1.07-.37,7.53,7.53,0,0,1-1.09-.32l.17-.09h0a4.76,4.76,0,0,0,.74-.27,5.85,5.85,0,0,1-1.06-.32,4.5,4.5,0,0,0,.85-.29,5.71,5.71,0,0,1-1.14-.37l.07,0a3.11,3.11,0,0,1-.36-.12,4.06,4.06,0,0,0,1-.3,4.35,4.35,0,0,1-1-.37,3,3,0,0,0,.74-.23,3.4,3.4,0,0,1-.88-.31,2.28,2.28,0,0,0,.57-.17,2,2,0,0,1-.88-.4,1.93,1.93,0,0,1-.82.4,1.6,1.6,0,0,0,.48.17,1.89,1.89,0,0,1-.79.31,2,2,0,0,0,.64.23,2.42,2.42,0,0,1-1,.37,2.54,2.54,0,0,0,.85.29.93.93,0,0,1-.36.13l.1.06a2.75,2.75,0,0,1-1,.34,2.75,2.75,0,0,0,.77.3,2.38,2.38,0,0,1-1,.31,3.32,3.32,0,0,0,.62.27H242a1.57,1.57,0,0,0,.22.13,2.66,2.66,0,0,1-1,.28,3.44,3.44,0,0,0,.76.32,3,3,0,0,1-1.16.37,3.75,3.75,0,0,0,.95.39,3.75,3.75,0,0,1-1.37.43,4.45,4.45,0,0,0,1,.41,3.36,3.36,0,0,1-1.14.31,4.7,4.7,0,0,0,1.16.48,2.11,2.11,0,0,1-.52.11,1.84,1.84,0,0,0,.3.18,3.83,3.83,0,0,1-1.36.38,5,5,0,0,0,1,.46l-.29,0a4,4,0,0,0,.47.27,4.73,4.73,0,0,1-1.72.51,5.18,5.18,0,0,0,.89.42,3.83,3.83,0,0,0,.47.27,5.39,5.39,0,0,1-1.89.55,7.06,7.06,0,0,0,1.75.71l.2.09a6,6,0,0,1-2.26.71,7.21,7.21,0,0,0,1.69.71,6.26,6.26,0,0,1-2.32.69,8.4,8.4,0,0,0,2.06.84,6.78,6.78,0,0,1-2.47.75,8.55,8.55,0,0,0,2.16.88,7.55,7.55,0,0,1-2.89.9,10,10,0,0,0,2.37,1c-.33.16-.66.3-1,.43l-.44.06.09.06a6.33,6.33,0,0,1-1.65.35,11.66,11.66,0,0,0,3.27,1.24,3.69,3.69,0,0,1-1.19.29,2,2,0,0,0,.31.21,6.31,6.31,0,0,1-1.73.39,9.47,9.47,0,0,0,2,.87h-.05a3.87,3.87,0,0,0,.49.3,5.54,5.54,0,0,1-1.74.43,9.46,9.46,0,0,0,2.87,1.06,4,4,0,0,1-1.2.29,7.48,7.48,0,0,0,3.41.92l-.08,1.92h1.44l0-1.95a10.7,10.7,0,0,0,3.33-.89,11.79,11.79,0,0,1-1.31-.36,16.32,16.32,0,0,0,3-1s-.76-.15-1.78-.47l.52-.26-.23-.05a20.9,20.9,0,0,0,2.22-.82S248.88,145.24,247.88,144.93Z"/><path class="cls-13" d="M165.44,62.71a.62.62,0,0,1-.62.62h-1a.63.63,0,0,1-.63-.62h0a.62.62,0,0,1,.63-.62h1a.62.62,0,0,1,.62.62Z"/><path class="cls-13" d="M60.13,156.53a.9.9,0,0,1-.9.9H45.59a.9.9,0,0,1-.9-.9h0a.9.9,0,0,1,.9-.91H59.23a.9.9,0,0,1,.9.91Z"/><path class="cls-6" d="M44.69,146.72a.4.4,0,0,1-.39.39H37.63a.4.4,0,0,1-.39-.39h0a.39.39,0,0,1,.39-.39H44.3a.39.39,0,0,1,.39.39Z"/><path class="cls-6" d="M261,147.45a.88.88,0,0,1-.88.88H254a.87.87,0,0,1-.87-.88h0a.88.88,0,0,1,.87-.88h6.1a.89.89,0,0,1,.88.88Z"/><path class="cls-6" d="M269.71,147.31a.23.23,0,0,1-.23.23h-1.94a.23.23,0,0,1-.23-.23h0a.24.24,0,0,1,.23-.23h1.94a.24.24,0,0,1,.23.23Z"/><path class="cls-13" d="M145.43,69.33a.41.41,0,0,1-.42.41h-3.3a.41.41,0,0,1-.42-.41h0a.42.42,0,0,1,.42-.42H145a.41.41,0,0,1,.42.42Z"/><path class="cls-6" d="M178.31,52.51A1.34,1.34,0,0,1,177,53.85H154a1.34,1.34,0,0,1-1.34-1.34h0A1.34,1.34,0,0,1,154,51.17h23a1.34,1.34,0,0,1,1.34,1.34Z"/><path class="cls-6" d="M127.73,20.54a.56.56,0,0,1-.56.56H120a.56.56,0,0,1-.56-.56h0A.56.56,0,0,1,120,20h7.19a.56.56,0,0,1,.56.56Z"/><path class="cls-6" d="M181.74,26.59a.91.91,0,0,1-.91.91H162.07a.91.91,0,0,1-.91-.91h0a.91.91,0,0,1,.91-.91h18.76a.91.91,0,0,1,.91.91Z"/><path class="cls-6" d="M246.83,63.59a.79.79,0,0,1-.8.8H233a.8.8,0,0,1-.8-.8h0a.8.8,0,0,1,.8-.8h13a.8.8,0,0,1,.8.8Z"/><path class="cls-6" d="M245.29,88.1a.93.93,0,0,1-.93.93h-2.17a.93.93,0,0,1-.93-.93h0a.93.93,0,0,1,.93-.92h2.17a.93.93,0,0,1,.93.92Z"/><path class="cls-6" d="M253.14,63.33a.54.54,0,0,1-.54.53h-1.81a.54.54,0,0,1-.54-.53h0a.54.54,0,0,1,.54-.54h1.81a.54.54,0,0,1,.54.54Z"/><path class="cls-6" d="M131,56.55a.67.67,0,0,1-.68.67h-3.54a.68.68,0,0,1-.68-.67h0a.68.68,0,0,1,.68-.68h3.54a.67.67,0,0,1,.68.68Z"/><path class="cls-6" d="M57.7,80.6a1.49,1.49,0,0,1-1.49,1.49H37.67a1.49,1.49,0,0,1-1.49-1.49h0a1.48,1.48,0,0,1,1.49-1.49H56.21A1.49,1.49,0,0,1,57.7,80.6Z"/><path class="cls-6" d="M38.7,97.34a.39.39,0,0,1-.4.4H36.58a.39.39,0,0,1-.4-.4h0a.39.39,0,0,1,.4-.39H38.3a.39.39,0,0,1,.4.39Z"/><path class="cls-6" d="M248.16,96.83a.51.51,0,0,1-.51.51h-3.86a.52.52,0,0,1-.52-.51h0a.52.52,0,0,1,.52-.52h3.86a.51.51,0,0,1,.51.52Z"/><path class="cls-6" d="M223.92,76.06a.4.4,0,0,1-.4.41h-2.34a.4.4,0,0,1-.4-.41h0a.4.4,0,0,1,.4-.4h2.34a.4.4,0,0,1,.4.4Z"/><path class="cls-6" d="M34.33,84.71a.74.74,0,0,1-.74.74H31.06a.74.74,0,0,1-.73-.74h0a.74.74,0,0,1,.73-.74h2.53a.74.74,0,0,1,.74.74Z"/><path class="cls-6" d="M64.08,47.13A1.13,1.13,0,0,1,63,48.27H58.6a1.14,1.14,0,0,1-1.13-1.14h0A1.14,1.14,0,0,1,58.6,46H63a1.13,1.13,0,0,1,1.13,1.13Z"/><polyline class="cls-14" points="89.97 179.79 89.97 169.31 140.19 149.71 140.19 157.19"/><line class="cls-14" x1="94.1" y1="168.53" x2="94.1" y2="177.17"/><line class="cls-14" x1="96.85" y1="167.43" x2="96.85" y2="176.01"/><line class="cls-14" x1="99.6" y1="166.34" x2="99.6" y2="174.85"/><line class="cls-14" x1="102.35" y1="165.25" x2="102.35" y2="173.68"/><line class="cls-14" x1="105.1" y1="164.15" x2="105.1" y2="172.52"/><line class="cls-14" x1="107.85" y1="163.06" x2="107.85" y2="171.36"/><line class="cls-14" x1="110.6" y1="161.97" x2="110.6" y2="170.2"/><line class="cls-14" x1="113.35" y1="160.87" x2="113.35" y2="169.04"/><line class="cls-14" x1="116.09" y1="159.78" x2="116.09" y2="167.87"/><line class="cls-14" x1="118.84" y1="158.69" x2="118.84" y2="166.71"/><line class="cls-14" x1="121.59" y1="157.59" x2="121.59" y2="165.55"/><line class="cls-14" x1="124.34" y1="156.5" x2="124.34" y2="164.39"/><line class="cls-14" x1="127.09" y1="155.41" x2="127.09" y2="163.23"/><line class="cls-14" x1="129.84" y1="154.31" x2="129.84" y2="162.06"/><line class="cls-14" x1="132.59" y1="153.22" x2="132.59" y2="160.9"/><line class="cls-14" x1="135.34" y1="152.13" x2="135.34" y2="159.74"/><line class="cls-14" x1="138.09" y1="151.03" x2="138.09" y2="158.58"/><polyline class="cls-14" points="213.85 179.79 213.85 169.31 169.89 149.71 169.89 157.19"/><line class="cls-14" x1="210.23" y1="168.53" x2="210.23" y2="177.17"/><line class="cls-14" x1="207.83" y1="167.43" x2="207.83" y2="176.01"/><line class="cls-14" x1="205.42" y1="166.34" x2="205.42" y2="174.85"/><line class="cls-14" x1="203.01" y1="165.25" x2="203.01" y2="173.68"/><line class="cls-14" x1="200.61" y1="164.15" x2="200.61" y2="172.52"/><line class="cls-14" x1="198.2" y1="163.06" x2="198.2" y2="171.36"/><line class="cls-14" x1="195.79" y1="161.97" x2="195.79" y2="170.2"/><line class="cls-14" x1="193.39" y1="160.87" x2="193.39" y2="169.04"/><line class="cls-14" x1="190.98" y1="159.78" x2="190.98" y2="167.87"/><line class="cls-14" x1="188.58" y1="158.69" x2="188.58" y2="166.71"/><line class="cls-14" x1="186.17" y1="157.59" x2="186.17" y2="165.55"/><line class="cls-14" x1="183.76" y1="156.5" x2="183.76" y2="164.39"/><line class="cls-14" x1="181.36" y1="155.41" x2="181.36" y2="163.23"/><line class="cls-14" x1="178.95" y1="154.31" x2="178.95" y2="162.06"/><line class="cls-14" x1="176.54" y1="153.22" x2="176.54" y2="160.9"/><line class="cls-14" x1="174.14" y1="152.13" x2="174.14" y2="159.74"/><line class="cls-14" x1="171.73" y1="151.03" x2="171.73" y2="158.58"/><path class="cls-11" d="M50.63,67.44H79.45s-.29-4-3.86-3.57c0,0-.77-2.22-2.51-2,0,0,1.16-6.86-3.67-7.24a5.52,5.52,0,0,0-6,3.76s-3.18-2.8-5.69-.77a4.81,4.81,0,0,0-1.55,5,2.78,2.78,0,0,0-3,1.79s-3.48.36-3.7,3Z"/><path class="cls-13" d="M94.1,160.51a1,1,0,0,1-1,1H90.14a1,1,0,0,1-1-1h0a1,1,0,0,1,1-1h2.93a1,1,0,0,1,1,1Z"/><path class="cls-13" d="M239.93,160.51a1,1,0,0,1-1,1H226.65a1,1,0,0,1-1-1h0a1,1,0,0,1,1-1H238.9a1,1,0,0,1,1,1Z"/><path class="cls-13" d="M251,157.05a.38.38,0,0,1-.37.38h0a.38.38,0,0,1-.38-.38v-.15a.37.37,0,0,1,.38-.37h0a.37.37,0,0,1,.37.37Z"/><path class="cls-13" d="M206.46,153.47a.82.82,0,0,1-.81.82h-3.93a.82.82,0,0,1-.81-.82h0a.81.81,0,0,1,.81-.81h3.93a.81.81,0,0,1,.81.81Z"/><path class="cls-13" d="M72.12,157.55a1,1,0,0,1-1,1H66.21a1,1,0,0,1-1-1h0a1,1,0,0,1,1-1h4.88a1,1,0,0,1,1,1Z"/><path class="cls-13" d="M220.12,157.55a1,1,0,0,1-1,1h-4.88a1,1,0,0,1-1-1h0a1,1,0,0,1,1-1h4.88a1,1,0,0,1,1,1Z"/></g></g><g id="Calque_2" data-name="Calque 2"><path class="cls-15" d="M268.66,172.21a25.88,25.88,0,0,0,18.8-31.77c-3.8-13.84-18.38-22-32.57-18.34a25.88,25.88,0,0,0-18.8,31.77C239.89,167.71,254.47,175.92,268.66,172.21Z"/><path class="cls-16" d="M255.24,123.37a25.74,25.74,0,0,1,19.16,2.46,24.66,24.66,0,0,1,11.76,15,24.05,24.05,0,0,1-2.52,18.69,25.09,25.09,0,0,1-15.33,11.47,25.69,25.69,0,0,1-19.16-2.46,24.63,24.63,0,0,1-11.76-14.95,24.05,24.05,0,0,1,2.52-18.69,25.09,25.09,0,0,1,15.33-11.47Zm18.65,3.31a24.66,24.66,0,0,0-18.39-2.36,24.12,24.12,0,0,0-14.72,11,23.1,23.1,0,0,0-2.42,17.95,23.69,23.69,0,0,0,11.3,14.35A24.66,24.66,0,0,0,268.05,170a24.13,24.13,0,0,0,14.71-11A23,23,0,0,0,285.18,141,23.64,23.64,0,0,0,273.89,126.68Z"/><path class="cls-16" d="M256.47,127.86a2.62,2.62,0,0,0-.81,2,6.93,6.93,0,0,0,.47,1.85l-2.33,3.24.29,1.06,2.7-2.52c.63,1.61,1.38,3.34,1.81,4.31l-.91,1.11L258,140l1.39-1.51,2,.62-.29-1.06-1.35-.52c-.13-1.05-.36-2.91-.64-4.62l3.62.87-.29-1.07L258.74,131a7.36,7.36,0,0,0-.54-1.83A2.71,2.71,0,0,0,256.47,127.86Z"/><path class="cls-16" d="M245.23,156.94a.49.49,0,0,1-.61-.34A.48.48,0,0,1,245,156l35.88-9.38a.51.51,0,0,1,.62.35.49.49,0,0,1-.36.6Z"/><path class="cls-11" d="M242.82,145.21l3.2,7.25-1,.42-3.2-7.25Z"/><path class="cls-11" d="M248.84,144.5l-2.38.62-.22-.84,5.79-1.52.22.84-2.39.63,1.78,6.83-1,.27Z"/><path class="cls-11" d="M255.84,147.38l-.18,2.63-1,.27.65-8.36,1.22-.32,4.68,7-1.08.28-1.47-2.19Zm2.36-1.44-1.34-2c-.31-.45-.54-.88-.77-1.29h0c0,.49,0,1,0,1.49l-.19,2.42Z"/><path class="cls-11" d="M261.46,140.3l1-.27,1.79,6.84,3.34-.87.22.83L263.46,148Z"/><path class="cls-11" d="M269.12,138.29l2,7.67-1,.27-2-7.67Z"/><path class="cls-11" d="M277.16,140.54l-3,.8.72,2.77,3.39-.89.22.83L274,145.2l-2-7.67,4.23-1.11.21.84-3.21.84.63,2.42,3-.79Z"/><path class="cls-16" d="M247.16,164a.51.51,0,0,1-.62-.35.49.49,0,0,1,.36-.6l35.88-9.38a.5.5,0,0,1,.62.35.49.49,0,0,1-.36.6Z"/><path class="cls-16" d="M255.78,159.63l-.82.21-.89-3.25-.77.22-.16-.58,1.52-.69,1.12,4.09Zm2.94-2.42.37-.09.17.63-.36.1.24.9-.81.21-.25-.9-1.38.37-.18-.49.69-3.07.81-.21.7,2.55Zm-1.5.39.69-.17-.39-1.41h0l0,.08-.26,1.5Zm3.62.7-.81.21-.2-.72.81-.21.2.72Zm2.64-2.4-.24-.88a2.06,2.06,0,0,0-.67-1.15,1.12,1.12,0,0,0-1-.19,1.06,1.06,0,0,0-.77.65,2,2,0,0,0,0,1.33l.24.88a2.1,2.1,0,0,0,.67,1.15,1.13,1.13,0,0,0,1,.18,1.08,1.08,0,0,0,.78-.65,2,2,0,0,0,0-1.32Zm-1.08-.74.28,1a2,2,0,0,1,.1.76c0,.17-.11.27-.24.29h0a.31.31,0,0,1-.36-.13,2,2,0,0,1-.31-.7l-.28-1a1.86,1.86,0,0,1-.09-.75c0-.17.11-.27.24-.29h0a.33.33,0,0,1,.36.14,1.88,1.88,0,0,1,.3.69Zm3.51-1.88a4.18,4.18,0,0,0-.37,1.57,9,9,0,0,0,.19,1.75l.07.41-.82.21-.07-.4a7.83,7.83,0,0,1-.12-1.77,5.06,5.06,0,0,1,.34-1.56l-1.77.46-.17-.64,2.55-.67.17.64Zm2.34,3.09-.81.21-.2-.73.81-.21.2.73Zm2.36-.62-1.13-4.08-1.51.69.15.57.78-.22.89,3.25.82-.21Zm2.09-1.17a.48.48,0,0,0,.35-.34,1.16,1.16,0,0,0,0-.69l-.05-.15a.72.72,0,0,1-.2.31.6.6,0,0,1-.3.17,1,1,0,0,1-.88-.17,1.8,1.8,0,0,1-.56-1,1.67,1.67,0,0,1,.06-1.13,1.12,1.12,0,0,1,.76-.65,1.14,1.14,0,0,1,1,.2,2,2,0,0,1,.67,1.12l.28,1a1.67,1.67,0,0,1-.08,1.24,1.37,1.37,0,0,1-.88.69,1.6,1.6,0,0,1-.39.05,2.6,2.6,0,0,1-.4,0l-.07-.62.34,0,.34-.06Zm-.22-1.34a.44.44,0,0,0,.23-.13.58.58,0,0,0,.14-.24l-.13-.46a1.53,1.53,0,0,0-.3-.64.33.33,0,0,0-.36-.14h0c-.11,0-.19.12-.22.3a1.27,1.27,0,0,0,.05.6,1.33,1.33,0,0,0,.26.56A.33.33,0,0,0,272.48,153.24Z"/><polygon class="cls-16" points="249.01 157.15 249.92 158.44 251.49 158.07 250.5 159.32 251.35 160.66 249.83 160.13 248.78 161.33 248.83 159.76 247.34 159.16 248.88 158.71 249.01 157.15"/><polygon class="cls-16" points="277.95 149.58 278.86 150.88 280.42 150.51 279.44 151.75 280.28 153.09 278.77 152.57 277.72 153.76 277.77 152.19 276.28 151.59 277.82 151.15 277.95 149.58"/><path class="cls-16" d="M255.77,166.58l-.82-3,.93-.25a1.06,1.06,0,0,1,.88.15,1.36,1.36,0,0,1,.55.82l.14.5a1.36,1.36,0,0,1-.06,1,1,1,0,0,1-.69.55l-.93.24Zm-.09-2.68.57,2.06.29-.08a.43.43,0,0,0,.33-.31,1.13,1.13,0,0,0,0-.6l-.14-.51a1,1,0,0,0-.29-.53.46.46,0,0,0-.45-.11l-.29.08Zm4.22.19-1,.27.23.85,1.22-.32.12.47-1.81.48-.82-3,1.81-.47.13.46-1.21.32.2.75,1-.27.13.46Zm1.59-.15.47-.12a1,1,0,0,0,.65-.46,1.09,1.09,0,0,0-.38-1.39,1,1,0,0,0-.8-.08l-1.07.28.82,3,.6-.16-.29-1.07Zm-.13-.47-.27-1,.47-.12a.37.37,0,0,1,.33.06.68.68,0,0,1,.2.33.61.61,0,0,1,0,.38.37.37,0,0,1-.25.22l-.47.12Zm3.61,0-.81.22v.68l-.61.16.05-3.23.62-.16,1.69,2.77-.61.16-.34-.6Zm-.82-.29.57-.14-.57-1h0v1.13Zm2.71-.79.43-.11a.34.34,0,0,1,.3,0,.56.56,0,0,1,.19.32l.06.21a2.47,2.47,0,0,0,.1.29.34.34,0,0,0,.15.19l.62-.16v0a.41.41,0,0,1-.16-.18,1.39,1.39,0,0,1-.1-.26l-.06-.21a.85.85,0,0,0-.23-.42.57.57,0,0,0-.41-.17.82.82,0,0,0,.24-.36.78.78,0,0,0,0-.43.86.86,0,0,0-.44-.58,1.07,1.07,0,0,0-.78-.05l-1,.26.82,3,.6-.16-.32-1.19Zm-.13-.47-.24-.86.4-.11a.36.36,0,0,1,.31.05.51.51,0,0,1,.19.3.55.55,0,0,1,0,.34.37.37,0,0,1-.25.18l-.4.1Zm3.68-1.89-.7.18.7,2.53-.6.16-.7-2.54-.68.18-.13-.46,2-.52.13.47Zm2.68.6-1,.27.23.85,1.21-.32.13.47-1.81.47-.83-3,1.81-.47.13.47-1.21.31.21.75,1-.27.13.47Zm1.28,1.07.93-.24a1,1,0,0,0,.68-.55,1.31,1.31,0,0,0,.07-1l-.14-.51a1.38,1.38,0,0,0-.56-.81,1,1,0,0,0-.87-.15l-.93.24.82,3Zm-.09-2.69.29-.07a.44.44,0,0,1,.45.11,1.11,1.11,0,0,1,.29.53l.14.51a1.13,1.13,0,0,1,0,.6.47.47,0,0,1-.33.31l-.3.08Z"/><path class="cls-16" d="M244.3,140.81l-.6.16-.66-2.39-.56.16-.12-.42,1.12-.51.82,3Zm2.89-.75-1.81.47-.11-.4.55-1.25a2.26,2.26,0,0,0,.13-.47.9.9,0,0,0,0-.33.64.64,0,0,0-.17-.29.28.28,0,0,0-.25-.06.25.25,0,0,0-.18.21.76.76,0,0,0,0,.39l-.59.15h0a1,1,0,0,1,0-.75.86.86,0,0,1,.58-.45.9.9,0,0,1,.73.06.93.93,0,0,1,.41.59.94.94,0,0,1,0,.55,4.06,4.06,0,0,1-.27.73l-.25.66,1-.27.13.47Zm.58-2,.13.45.3-.08a.32.32,0,0,1,.29,0,.58.58,0,0,1,.19.33.46.46,0,0,1,0,.33.32.32,0,0,1-.21.18.37.37,0,0,1-.27-.05A.47.47,0,0,1,248,139l-.58.15v0a.81.81,0,0,0,.43.57,1,1,0,0,0,.69.05,1,1,0,0,0,.63-.41.82.82,0,0,0,.09-.72.76.76,0,0,0-.23-.4.68.68,0,0,0-.4-.19.77.77,0,0,0,.22-.34.72.72,0,0,0,0-.41.8.8,0,0,0-.42-.56,1,1,0,0,0-.73-.05.88.88,0,0,0-.55.38.71.71,0,0,0-.08.65h0l.58-.15a.38.38,0,0,1,0-.28.27.27,0,0,1,.18-.15.28.28,0,0,1,.25,0,.59.59,0,0,1,.16.27.61.61,0,0,1,0,.33.29.29,0,0,1-.21.17l-.3.08Zm3.56-.25.27-.07.13.47-.27.07.18.65-.6.16-.18-.66-1,.27-.13-.36.51-2.25.6-.16.51,1.88Zm-1.1.29.5-.14-.28-1h0l0,.06Z"/><path class="cls-16" d="M265.5,133.85l-.31-1.71,1.5-.4.13.48-1,.27.13.72a.87.87,0,0,1,.13-.15.75.75,0,0,1,.2-.1.73.73,0,0,1,.66.11,1.29,1.29,0,0,1,.41.69,1.15,1.15,0,0,1,0,.78.84.84,0,0,1-.59.46,1,1,0,0,1-.69-.07.76.76,0,0,1-.43-.55h0l.57-.19a.53.53,0,0,0,.17.29.27.27,0,0,0,.26.06.26.26,0,0,0,.19-.21.84.84,0,0,0,0-.4,1,1,0,0,0-.19-.4.27.27,0,0,0-.29-.09.25.25,0,0,0-.17.12.31.31,0,0,0,0,.2l-.54.1Zm2.89-2.59a1,1,0,0,1,.28,0,.9.9,0,0,1,.28,0l0,.47-.23,0-.22,0a.42.42,0,0,0-.3.29,1,1,0,0,0,0,.59h0a.47.47,0,0,1,.17-.2.68.68,0,0,1,.27-.13.64.64,0,0,1,.62.14,1.28,1.28,0,0,1,.4.68,1.12,1.12,0,0,1-.05.81.82.82,0,0,1-.56.46.86.86,0,0,1-.78-.14,1.39,1.39,0,0,1-.51-.81l-.17-.62a1.35,1.35,0,0,1,.05-1,1,1,0,0,1,.69-.54Zm.28,1.53a.53.53,0,0,0-.2.09.42.42,0,0,0-.11.16l.06.23a1.2,1.2,0,0,0,.25.52.3.3,0,0,0,.31.11c.09,0,.14-.09.17-.22a1,1,0,0,0,0-.42.9.9,0,0,0-.19-.38c-.09-.08-.17-.12-.26-.09ZM271.6,131l-.13-.47-1.87.49.13.47,1.3-.34a3.7,3.7,0,0,0-.26,1.15,5.37,5.37,0,0,0,.1,1.3l.05.29.6-.15,0-.3a7,7,0,0,1-.15-1.29,3.2,3.2,0,0,1,.28-1.15Zm2.37-.27a.78.78,0,0,1,0,.43.75.75,0,0,1-.21.34.86.86,0,0,1,.4.21.78.78,0,0,1,.24.39.89.89,0,0,1-.07.71,1,1,0,0,1-.59.39,1,1,0,0,1-.72,0,.9.9,0,0,1-.42-.58.8.8,0,0,1,0-.46.9.9,0,0,1,.25-.37.78.78,0,0,1-.36-.19.91.91,0,0,1-.22-.37.82.82,0,0,1,.07-.68.87.87,0,0,1,.55-.38.83.83,0,0,1,1.08.61Zm-.18,1.49a.61.61,0,0,0-.17-.3.24.24,0,0,0-.25-.06.25.25,0,0,0-.19.17.57.57,0,0,0,0,.34.54.54,0,0,0,.17.3.24.24,0,0,0,.25.06.24.24,0,0,0,.18-.17.56.56,0,0,0,0-.34Zm-.42-1.3a.57.57,0,0,0-.14-.27.21.21,0,0,0-.21-.06.19.19,0,0,0-.15.15.57.57,0,0,0,0,.31.61.61,0,0,0,.14.28.21.21,0,0,0,.21.06.19.19,0,0,0,.15-.16A.69.69,0,0,0,273.37,130.88Z"/></g></svg>