<?xml version="1.0" encoding="utf-8"?>
<!-- Generator: Adobe Illustrator 22.0.1, SVG Export Plug-In . SVG Version: 6.00 Build 0)  -->
<svg version="1.1" id="Calque_1" xmlns="http://www.w3.org/2000/svg" xmlns:xlink="http://www.w3.org/1999/xlink" x="0px" y="0px"
	 viewBox="0 0 50 50" style="enable-background:new 0 0 50 50;" xml:space="preserve">
<style type="text/css">
	.st0{fill:#443333;}
</style>
<title>Plan de travail 1</title>
<g>
	<path class="st0" d="M34.3,22.2c-0.1,0.1-0.1,0.2-0.2,0.3c-0.2,0.7-0.5,1.3-0.7,2c-0.2,0.4-0.4,0.8-0.7,1.2
		c-1.1,1.5-3.4,1.5-4.6-0.1c-0.3-0.4-0.5-0.8-0.6-1.3c0-0.1,0-0.1-0.1-0.2c-0.1,0-0.1,0.1-0.1,0.2c-0.3,1.1-0.7,2.1-1.1,3.2
		c-0.1,0.3-0.3,0.6-0.5,0.9c-0.6,0.9-1.5,1.4-2.6,1.4c-1.2-0.1-2-0.7-2.5-1.7c-0.4-0.8-0.5-1.6-0.6-2.5c-0.2-1.9,0.1-3.8,0.8-5.6
		c0.1-0.4,0.3-0.8,0.6-1.1c0.7-1,1.6-1.3,2.7-1c0.7,0.2,1.2,0.7,1.3,1.5c0.1,0.9,0.1,1.9-0.1,2.8c-0.1,0.7-0.4,1.3-0.9,1.9
		c-0.4,0.4-0.8,0.7-1.4,0.7c-0.2,0-0.2,0.1-0.2,0.2c0,1,0,2,0.4,3c0.1,0.2,0.2,0.5,0.4,0.7c0.2,0.2,0.3,0.2,0.6,0.1
		c0.2-0.1,0.5-0.3,0.6-0.5c0.3-0.4,0.6-0.8,0.8-1.3c0.6-1.3,1.1-2.7,1.6-4.2c0.1-0.2,0-0.4,0-0.5c-0.1-1.7,0.3-3.3,1.1-4.8
		c0.3-0.5,0.6-0.9,0.9-1.2c0.9-0.8,2.3-0.8,3.2,0c0.4,0.4,0.6,0.9,0.6,1.4c0,0.8-0.1,1.6-0.6,2.3c-0.4,0.7-0.9,1.1-1.7,1.2
		c-0.2,0-0.5,0-0.7-0.1c-0.3-0.1-0.3-0.1-0.3,0.2c-0.1,1,0,2.1,0.3,3.1c0.1,0.3,0.3,0.7,0.5,0.9c0.1,0.1,0.1,0.2,0.2,0.2
		c0.2,0.2,0.2,0.2,0.4,0.1c0.3-0.1,0.5-0.3,0.6-0.6c0.3-0.4,0.6-0.7,0.7-1.2c0.4-0.9,0.8-1.9,1.1-2.9c0-0.1,0.1-0.2,0-0.3
		c-0.5-1.8-0.6-3.6-0.5-5.4c0-1,0.1-2,0.2-2.9c0-0.1,0-0.2,0-0.3c-0.1,0-0.2,0.1-0.3,0.1c-1.7,0.9-3.4,1.5-5.3,1.8
		c-1.3,0.2-2.5,0.2-3.8-0.1c-0.5-0.1-1.1-0.3-1.5-0.6c-0.1-0.1-0.2-0.1-0.3-0.2c0,0-0.1-0.1,0-0.1c0,0,0.1-0.1,0.1-0.1
		c0.1,0,0.2,0.1,0.2,0.1c0.8,0.5,1.8,0.8,2.7,0.8c1.5,0.1,2.9-0.2,4.3-0.6c1.2-0.4,2.4-0.9,3.6-1.5c0.3-0.2,0.4-0.4,0.4-0.7
		c0.2-1.5,0.4-3.1,0.8-4.6C34.6,4.7,35,3.3,35.7,2c0.1-0.3,0.3-0.6,0.5-0.8c0.1-0.2,0.2-0.3,0.4-0.5c0.6-0.6,1.2-0.9,2-0.6
		C39.4,0.4,39.9,1,40,1.9c0.1,1.2-0.1,2.4-0.6,3.5c-0.6,1.5-1.5,2.8-2.7,4c-0.2,0.2-0.3,0.4-0.3,0.7c-0.2,2.1-0.3,4.2-0.4,6.4
		c0,1.3,0,2.6,0.1,3.8c0,0.2,0,0.3,0,0.5c0.1-0.1,0.1-0.3,0.1-0.4c0.2-1.1,0.3-2.1,0.6-3.2c0.3-1.3,0.8-2.5,1.6-3.5
		c0.3-0.4,0.6-0.7,1-1c0.2-0.2,0.4-0.3,0.6-0.4c0.2-0.1,0.4-0.1,0.5-0.1c0.4,0,0.6,0.3,0.6,0.7c0,0.4-0.1,0.8-0.3,1.1
		c-0.2,0.4-0.5,0.8-0.8,1.2c-0.4,0.6-0.9,1.1-1.4,1.7c-0.1,0.1-0.2,0.2-0.2,0.3c0.1,0.1,0.2,0.1,0.2,0.1c1.5,0.3,2.5,1.3,2.7,2.8
		c0.1,0.8,0.1,1.7,0,2.5c-0.1,1.2-0.1,2.3-0.2,3.5c0,0.7,0,1.4,0.2,2.1c0,0.1,0,0.4,0.2,0.4c0.2,0.1,0.3-0.1,0.4-0.3
		c0.5-0.5,0.8-1,1-1.6c0.4-0.9,0.7-1.9,1-2.9c0.4-1.4,0.8-2.9,1-4.4c0-0.2,0.1-0.4,0-0.6c0-0.2,0.1-0.2,0.2-0.2
		c0.2,0,0.4,0.1,0.5,0.3c0.1,0.2,0.1,0.4,0,0.6c-0.1,1-0.3,1.9-0.5,2.9c-0.3,1.5-0.7,3-1.2,4.5c-0.2,0.5-0.3,0.9-0.6,1.4
		c-0.2,0.4-0.5,0.8-0.9,1.1c-0.8,0.6-1.9,0.7-2.7,0.1c-0.3-0.2-0.6-0.5-0.8-0.9c-0.3-0.6-0.5-1.3-0.6-1.9c-0.2-1.3-0.1-2.5,0-3.8
		c0.1-1,0.1-1.9,0.1-2.9c0-0.5-0.1-1-0.2-1.4c-0.1-0.2-0.2-0.5-0.4-0.6c0,0-0.1-0.1-0.1-0.1c-0.2-0.2-0.2-0.4,0-0.6
		c0.5-0.6,1-1.2,1.5-1.8c0.4-0.5,0.8-1,1-1.6c0.1-0.3,0.2-0.6,0.3-0.9c0-0.1,0-0.3-0.1-0.4c-0.1-0.1-0.2,0-0.4,0.1
		c-0.4,0.2-0.7,0.5-1,0.9c-0.8,0.9-1.3,2-1.6,3.2c-0.3,1.1-0.4,2.2-0.5,3.4c-0.1,0.7-0.1,1.3-0.2,2c0,0.2-0.1,0.4-0.1,0.5
		c-0.1,0.4-0.4,0.6-0.8,0.7c-0.6,0.1-1.1-0.2-1.5-0.7C34.5,22.6,34.4,22.4,34.3,22.2z M38.8,1.5c-0.2,0.2-0.3,0.3-0.5,0.5
		c-0.3,0.5-0.4,1-0.6,1.5c-0.4,1.5-0.7,3.1-1,4.7c0,0.1-0.1,0.1,0,0.2c0.1,0,0.1-0.1,0.2-0.2c0.7-0.9,1.3-1.9,1.6-3
		c0.3-0.9,0.5-1.8,0.4-2.7C39,2.1,38.9,1.8,38.8,1.5z M23.9,19.6c-0.1,0.3-0.2,0.6-0.3,0.8c-0.3,0.9-0.5,1.9-0.7,2.8
		c0,0.3-0.1,0.6-0.1,0.9c0,0.2,0,0.2,0.2,0.2c0.1,0,0.2-0.1,0.3-0.2c0.3-0.2,0.5-0.4,0.7-0.7c0.7-1.2,0.7-2.5,0.1-3.7
		C24,19.6,24,19.6,23.9,19.6z M31.2,17.1c-0.1,0.1-0.2,0.2-0.2,0.3c-0.5,0.8-0.8,1.7-1.1,2.6c-0.1,0.2,0,0.3,0.2,0.4
		c0.2,0.1,0.3,0.1,0.5,0c0.3-0.1,0.5-0.4,0.6-0.7c0.4-0.8,0.5-1.5,0.2-2.3C31.3,17.3,31.3,17.2,31.2,17.1z"/>
	<path class="st0" d="M22.7,41.7c-0.1,0.1-0.1,0.2-0.2,0.3c-0.3,0.8-0.5,1.5-0.8,2.3c-0.2,0.4-0.3,0.8-0.6,1.1
		c-0.9,1.1-2.5,1.2-3.5,0.3c-0.4-0.3-0.7-0.7-0.9-1.2c-0.2-0.4-0.2-0.3-0.5-0.2c-1.4,0.4-2.6,0-3.6-1c-0.2-0.2-0.4-0.4-0.5-0.7
		c-0.1-0.2-0.1-0.3,0.1-0.4c0.2-0.1,0.4,0,0.4,0.2c0,0.2,0.1,0.3,0.2,0.4c0.7,1,2.2,1.4,3.3,1c0.2-0.1,0.2-0.1,0.2-0.3
		c-0.6-1.8-0.5-3.6-0.1-5.4c0.1-0.5,0.3-1,0.6-1.4c0.6-0.9,1.7-1.3,2.7-1c0.8,0.2,1.1,0.7,1.1,1.3c0.1,2-0.4,3.9-1.8,5.4
		c-0.1,0.1-0.2,0.3-0.1,0.4c0.1,0.5,0.2,0.9,0.4,1.4c0.1,0.2,0.2,0.4,0.4,0.6c0.1,0.2,0.2,0.2,0.3,0c0.4-0.3,0.6-0.7,0.9-1.2
		c0.4-0.9,0.8-1.8,1.1-2.7c0,0,0,0,0,0c0.2-0.6,0.4-1.2,0.2-1.9c-0.1-0.7-0.1-1.5,0-2.2c0-0.2,0.1-0.4,0.1-0.6
		c0.2-0.6,0.8-0.8,1.4-0.6c0.3,0.1,0.5,0.3,0.5,0.7c0.1,0.6,0.1,1.1,0.2,1.7c0.1,0.7,0.2,1.4,0.3,2.1c0,0.1,0,0.1,0.1,0.2
		c0-0.1,0.1-0.3,0.1-0.4c0.1-0.9,0.3-1.8,0.5-2.6c0.2-1,0.5-2,0.9-2.9c0.2-0.5,0.5-1,0.8-1.4c0.2-0.3,0.4-0.4,0.7-0.4
		c0.9-0.1,1.6,0.4,2,1.2c0.2,0.4,0.2,0.8,0.3,1.3c0,0.8,0,1.7,0,2.5c0,1.1,0,2.2,0,3.3c0,0.9,0.1,1.8,0.4,2.6
		c0.1,0.3,0.2,0.5,0.3,0.7c0.1,0.2,0.2,0.2,0.3,0c0.2-0.3,0.3-0.5,0.4-0.8c0.2-0.6,0.3-1.3,0.4-1.9c0.2-1.2,0.3-2.5,0.4-3.7
		c0-0.2,0-0.3-0.1-0.5c-0.5-1.3-0.5-2.6,0.1-3.9c0.3-0.7,0.9-1.3,1.7-1.5c0.4-0.1,0.7-0.1,1.1-0.1c0.1,0,0.2,0,0.2-0.2
		c-0.1-0.9-0.1-1.7-0.1-2.6c0,0,0,0,0-0.1c-0.1,0-0.1,0-0.2,0c-1,0.4-2,0.6-3.1,0.7c-1.2,0.2-2.5,0.2-3.7,0.4
		c-1.4,0.2-2.7,0.7-3.8,1.5c-0.8,0.5-1.3,1.2-1.8,2c-0.1,0.2-0.2,0.4-0.2,0.6c0,0.2,0,0.2-0.2,0.2c-0.2,0-0.3,0-0.3-0.2
		c0-0.1,0-0.3,0-0.4c0.1-0.2,0.2-0.4,0.3-0.6c0.6-1,1.4-1.8,2.5-2.4c1.2-0.7,2.5-1,3.8-1.2c1.3-0.2,2.5-0.2,3.8-0.4
		c0.9-0.1,1.8-0.4,2.7-0.7c0.3-0.1,0.4-0.3,0.4-0.6c0-1.1,0.3-2.1,0.7-3c0.1-0.2,0.2-0.5,0.4-0.7c0.5-0.7,1.6-0.4,1.8,0.3
		c0.2,0.5,0.2,1,0,1.4c-0.1,0.3-0.2,0.5-0.4,0.8c-0.1,0.2-0.2,0.3-0.2,0.5c-0.1,1.1,0,2.1,0.2,3.2c0.2,1.8,0.5,3.6,0.9,5.3
		c0.2,0.8,0.4,1.7,0.9,2.4c0.2,0.4,0.2,0.4,0.5,0.1c0.7-0.5,1.1-1.2,1.5-1.9c0.4-0.8,0.7-1.7,1-2.5c0.1-0.2,0.1-0.4,0.2-0.6
		c0.1-0.1,0.2-0.2,0.3-0.2c0.2,0,0.2,0.1,0.1,0.2c-0.4,1.3-0.8,2.6-1.3,3.9c-0.2,0.6-0.5,1.2-0.9,1.8c-0.3,0.5-0.8,0.8-1.4,0.8
		c-0.6,0-1.1-0.1-1.5-0.5c-0.7-0.5-1.1-1.1-1.5-1.9c-0.1-0.3-0.2-0.5-0.3-0.8c-0.1,0-0.1,0.1-0.1,0.2c-0.1,0.3-0.3,0.6-0.4,0.9
		c-0.6,1-2,1.1-2.6,0.4c0,0,0,0-0.1,0c-0.1,0.1-0.1,0.1-0.1,0.2c-0.1,1.2-0.2,2.3-0.3,3.5c-0.1,0.5-0.1,1.1-0.3,1.6
		c-0.1,0.3-0.2,0.6-0.4,0.8c-0.5,0.7-1.4,0.8-2,0.1c-0.4-0.4-0.6-0.8-0.8-1.3c-0.8-1.6-1.2-3.2-1.3-5c-0.1-1.3,0-2.6,0-3.9
		c0-0.1,0-0.2,0-0.4c-0.2,0.2-0.3,0.3-0.3,0.5c-0.4,0.6-0.6,1.3-0.8,2c-0.3,1-0.4,2-0.5,3c0,0.6-0.1,1.3-0.1,1.9c0,0.1,0,0.2,0,0.3
		c-0.1,0.8-0.7,1.2-1.5,1c-0.4-0.1-0.7-0.2-0.9-0.5C23,42.2,22.8,42,22.7,41.7z M33.5,36.3c0,0.4,0,0.7,0.1,1.1
		c0.1,0.2,0.1,0.4,0.2,0.6c0.1,0.2,0.2,0.2,0.3,0c0.2-0.2,0.3-0.4,0.4-0.6c0.4-0.6,0.6-1.3,0.8-2c0-0.1,0-0.2,0-0.3
		c-0.1-0.5-0.2-1-0.2-1.5c0-0.2-0.2-0.3-0.4-0.4c-0.2-0.1-0.2,0.1-0.3,0.2c-0.1,0.1-0.1,0.2-0.2,0.3C33.8,34.5,33.6,35.4,33.5,36.3z
		 M19.3,37.2c-0.6,0.7-1.1,4.1-0.7,4.7c0.9-1.3,1.2-2.8,0.8-4.3C19.4,37.4,19.4,37.3,19.3,37.2z"/>
	<path class="st0" d="M9.1,20.7c-0.2,0.2-0.3,0.4-0.3,0.6c-0.3,0.7-0.3,1.5-0.4,2.3c-0.1,1.6-0.1,3.2-0.2,4.8
		c-0.1,1.5-0.3,3-0.7,4.5c-0.2,0.7-0.4,1.3-0.8,1.9c-0.4,0.5-0.8,1-1.4,1.2c-1.1,0.4-2.1,0-2.8-1c-0.4-0.6-0.7-1.3-0.9-2.1
		c-0.4-1.6-0.7-3.3-0.8-5c-0.1-1.8-0.1-3.6-0.1-5.3c0-1.4-0.1-2.8-0.5-4.1c-0.1-0.3,0-0.5,0.4-0.5c0.4-0.1,0.8,0,1.1,0.2
		c0.6,0.3,1,0.7,1.3,1.3c0.3,0.6,0.4,1.2,0.5,1.9c0.2,1.4,0.2,2.8,0.3,4.2c0.1,1.7,0.1,3.5,0.2,5.2c0.1,1,0.2,2.1,0.5,3.1
		c0.1,0.3,0.2,0.5,0.3,0.8c0.1,0.1,0.1,0.2,0.2,0.3c0.2,0.2,0.2,0.2,0.4,0c0.3-0.3,0.6-0.6,0.8-1c0.4-0.8,0.7-1.7,0.9-2.5
		c0.3-1.5,0.5-2.9,0.6-4.4c0.1-1.6,0.2-3.2,0.3-4.8c0-0.6,0.1-1.2,0.3-1.7c0.2-0.7,0.6-0.9,1.3-0.9c1.1,0,2,0.5,2.5,1.5
		c0.3,0.6,0.5,1.3,0.6,2c0.2,1.2,0.2,2.4,0.3,3.6c0.2,2.1,0.4,4.2,0.9,6.2c0.2,0.7,0.4,1.5,0.7,2.2c0.1,0.3,0.3,0.5,0.5,0.8
		c0.2,0.2,0.2,0.2,0.4,0c0.3-0.3,0.4-0.6,0.6-0.9c0.4-0.8,0.7-1.6,0.9-2.4c0.6-2.1,1-4.2,1.3-6.3c0.4-2.1,0.6-4.2,0.7-6.3
		c0.2-2.5,0.2-5-0.1-7.5c0-0.1,0-0.1,0-0.2c0,0,0-0.1,0-0.1c-0.1,0-0.2,0.1-0.3,0.1c-0.9,0.5-1.8,0.9-2.8,1.2c-1,0.3-2,0.4-3,0.2
		c-1.3-0.3-2.4-0.9-3.1-2c-0.8-1.1-1.2-2.4-1.4-3.7C8,5.8,8.3,3.9,9.4,2.2c0.3-0.5,0.7-1,1.2-1.3c0.8-0.6,1.6-0.7,2.5-0.4
		c0.6,0.2,1,0.5,1.5,0.9c0.6,0.6,1.2,1.2,1.7,1.9c1.5,2,2.4,4.2,2.9,6.6c0.1,0.3,0.1,0.6,0.2,0.9c0.1,0.3,0.1,0.3,0.3,0.1
		c0.5-0.3,1.1-0.6,1.6-0.9c1.6-0.9,3.4-1.4,5.2-1.8c0.3-0.1,0.6-0.1,0.9-0.1c0.2,0,0.3,0,0.5,0.2c0.1,0.1,0.1,0.2,0.1,0.3
		c-0.1,0.1-0.2,0.1-0.3,0c-0.3-0.2-0.5-0.1-0.8-0.1c-1.7,0.4-3.3,0.9-4.8,1.7c-0.8,0.4-1.5,0.8-2.3,1.3c-0.1,0.1-0.2,0.2-0.2,0.3
		c0.3,2.2,0.4,4.3,0.3,6.5c-0.1,1.9-0.2,3.9-0.5,5.8c-0.3,2.1-0.6,4.2-1,6.2c-0.3,1.3-0.5,2.5-1,3.7c-0.2,0.5-0.4,1-0.7,1.5
		c-0.4,0.6-0.8,1.1-1.5,1.4c-0.8,0.3-1.5,0.2-2.2-0.3c-0.6-0.4-1-1-1.3-1.7c-0.6-1.2-1-2.4-1.3-3.7c-0.3-1.4-0.4-2.8-0.5-4.2
		c-0.1-1.3-0.2-2.7-0.3-4c0-0.7-0.2-1.4-0.4-2C9.2,21,9.2,20.9,9.1,20.7C9.1,20.8,9.1,20.8,9.1,20.7z M13.7,13.2
		c0.8,0,1.5-0.2,2.2-0.4c0.9-0.3,1.7-0.8,2.6-1.2c0.3-0.2,0.3-0.2,0.2-0.5c-0.2-1.1-0.4-2.1-0.8-3.2c-0.6-2-1.6-3.8-2.9-5.4
		c-0.4-0.5-0.9-1-1.5-1.4c-0.8-0.5-1.6-0.5-2.4,0.1c-0.1,0.1-0.2,0.2-0.3,0.3c-0.4,0.4-0.7,0.8-1,1.3c-1,1.9-1.2,4-0.7,6.1
		c0.3,1.1,0.7,2.1,1.5,3C11.5,12.8,12.5,13.2,13.7,13.2z"/>
	<path class="st0" d="M34.1,45.1c-0.2,0-0.4-0.2-0.5-0.3c-0.1-0.2,0-0.3,0.1-0.5c0.2-0.3,0.5-0.5,0.8-0.7c0.6-0.4,1.3-0.8,2-1.1
		c1.2-0.6,2.4-1.2,3.6-1.7c0.9-0.4,1.8-0.7,2.8-0.8c0.2,0,0.4-0.1,0.7-0.1c0.4-0.1,0.7,0.2,0.9,0.5c0,0.1,0,0.2-0.1,0.3
		c0,0,0,0-0.1,0c-0.8,0.5-1.7,1.1-2.6,1.4c-1.8,0.6-3.5,1.3-5.2,2c-0.6,0.3-1.3,0.5-1.9,0.8C34.4,45,34.3,45.1,34.1,45.1z"/>
	<path class="st0" d="M5.4,12.5c-0.3,0-0.5-0.1-0.6-0.3c-0.3-0.4-0.6-0.7-0.9-1.1c-0.7-0.9-1.2-1.8-1.8-2.8c-0.5-0.9-1-1.7-1.5-2.6
		C0.6,5.6,0.4,5.5,0.6,5.4c0.1-0.1,0.3-0.1,0.4-0.1c0.2,0,0.3,0.1,0.4,0.3C1.7,6,2,6.4,2.3,6.8C3.2,8.1,4.2,9.4,5,10.7
		c0.2,0.3,0.3,0.6,0.5,0.8c0.1,0.1,0.1,0.2,0.2,0.3c0.1,0.1,0.2,0.2,0.2,0.4C5.8,12.5,5.6,12.5,5.4,12.5z"/>
	<path class="st0" d="M40.5,44.9c-0.2,0-0.4,0-0.7-0.1c-0.3,0-0.5-0.2-0.6-0.5c-0.1-0.2-0.1-0.4,0.2-0.5c0.1-0.1,0.3-0.1,0.4-0.1
		c0.8-0.2,1.7-0.3,2.5-0.4c0.5-0.1,1,0,1.4,0c0.2,0,0.3,0.2,0.4,0.3c0.1,0.2,0.1,0.3-0.1,0.5c-0.7,0.5-1.4,0.5-2.2,0.6
		C41.5,44.8,41,44.9,40.5,44.9z"/>
	<path class="st0" d="M21,7.6c-0.7,0.1-0.6,0-0.5,0.6c0,0.1,0,0.2,0,0.3c0,0.2-0.2,0.3-0.3,0.4c-0.2,0-0.3-0.1-0.4-0.2
		c0,0,0-0.1,0-0.2c-0.1-0.6-0.2-1.2-0.2-1.8c0-0.1,0-0.1,0-0.2c0-0.3,0.2-0.4,0.4-0.4c0.2,0,0.4,0.2,0.4,0.4c0,0.1,0,0.2,0,0.3
		c0,0.2,0,0.2,0.2,0.2c0.1,0,0.1,0,0.2-0.1c0.1,0,0.2-0.1,0.2-0.2c0-0.1,0-0.3-0.1-0.4c0-0.1,0-0.2,0-0.3c0.1-0.1,0.2-0.2,0.4-0.2
		c0.2,0,0.3,0.1,0.4,0.3c0,0.2,0.1,0.4,0.1,0.6c0.1,0.4,0.1,0.9,0.1,1.3c0,0.1,0,0.2-0.1,0.3c-0.1,0.1-0.2,0.1-0.4,0.1
		C21.1,8.2,21,8.1,21,8C21,7.9,21,7.7,21,7.6z"/>
	<path class="st0" d="M45.3,14.8c-0.2,0-0.4-0.1-0.5-0.2c-0.2-0.2-0.2-0.3,0-0.4c0.1-0.1,0.3-0.2,0.4-0.2c0.7-0.3,1.3-0.6,2-0.8
		c0.6-0.2,1.2-0.4,1.8-0.6c0.2-0.1,0.5-0.1,0.7,0.1c0.1,0.1,0.1,0.2,0,0.3c0,0-0.1,0-0.1,0c-1.2,0.5-2.3,1.1-3.5,1.6
		C45.8,14.6,45.5,14.7,45.3,14.8z"/>
	<path class="st0" d="M22,7.5c0-0.2,0.1-0.5,0.1-0.8c0.1-0.3,0.2-0.7,0.2-1c0-0.1,0.1-0.2,0.1-0.4C22.7,5,23.1,5,23.4,5.2
		c0.1,0.1,0.2,0.2,0.3,0.3c0.3,0.4,0.5,0.9,0.7,1.3c0,0.1,0,0.2,0,0.3c0,0.2-0.1,0.3-0.3,0.4c-0.2,0.1-0.4,0-0.4-0.2
		C23.6,7,23.5,7,23.3,7.1c0,0-0.1,0-0.1,0c-0.3,0-0.4,0.2-0.4,0.5c0,0,0,0.1,0,0.1c0,0.2-0.2,0.3-0.3,0.3c-0.2,0-0.3-0.1-0.4-0.2
		C22,7.7,22,7.6,22,7.5z M23.2,6.2C23.2,6.2,23.2,6.1,23.2,6.2c-0.1-0.1-0.1,0-0.1,0C23.1,6.3,23.1,6.3,23.2,6.2
		C23.2,6.3,23.2,6.3,23.2,6.2z"/>
	<path class="st0" d="M2.8,46.9c0,0-0.1,0-0.2,0c-0.2-0.1-0.2-0.2-0.1-0.4c0.2-0.2,0.4-0.4,0.6-0.6c1.2-1.1,2.6-2,3.9-2.9
		c0.1-0.1,0.2-0.1,0.3-0.2c0.1-0.1,0.3,0,0.4,0c0.1,0.1,0.2,0.2,0,0.3c-1.3,1-2.5,2.1-3.8,3.1c-0.3,0.2-0.5,0.4-0.8,0.6
		C3.1,46.8,3,46.9,2.8,46.9z"/>
	<path class="st0" d="M24.6,5.3c0-0.6,0.2-0.9,0.7-1c0.4-0.1,0.7,0,1,0.2c0.4,0.3,0.4,0.9,0.1,1.2C26.2,6,26,6.1,25.7,6.1
		c-0.1,0-0.2,0.1-0.2,0.2c0,0.1,0,0.2,0,0.4c0,0.2-0.1,0.4-0.3,0.4c-0.2,0-0.4-0.1-0.4-0.3c0-0.2-0.1-0.4-0.1-0.6
		C24.7,5.9,24.7,5.5,24.6,5.3z M25.8,5.2c-0.1-0.1-0.2-0.1-0.3-0.1c-0.1,0-0.2,0.1-0.1,0.2c0,0.1,0.1,0.1,0.1,0.1
		C25.7,5.3,25.8,5.3,25.8,5.2z"/>
	<path class="st0" d="M27,5.3c0-0.3,0-0.6,0.2-0.8c0.3-0.3,0.8-0.5,1.2-0.3c0.4,0.2,0.6,0.6,0.5,1.1c-0.1,0.3-0.4,0.5-0.7,0.6
		c-0.4,0.1-0.4,0.1-0.3,0.5c0,0.1,0,0.1,0,0.2c0,0.2-0.1,0.4-0.3,0.4c-0.2,0-0.4,0-0.5-0.2c0-0.1-0.1-0.1-0.1-0.2
		C27,6.1,27,5.7,27,5.3z M27.8,5.1c0.1,0,0.2,0,0.2-0.1c0-0.1,0-0.1-0.1-0.1C27.8,4.9,27.8,4.9,27.8,5.1z"/>
	<path class="st0" d="M1.5,12.2c0.4,0,0.9,0.2,1.3,0.5C3.2,13,3.6,13.3,4,13.6c0.2,0.2,0.2,0.3-0.1,0.4c-0.2,0.1-0.4,0.1-0.6,0
		c-0.7-0.3-1.4-0.6-2.1-0.9C1,13,0.9,12.9,0.8,12.8c-0.2-0.2-0.2-0.4,0-0.6C0.9,12.2,1.2,12.2,1.5,12.2z"/>
	<path class="st0" d="M30,4.8c0.2-0.1,0.3-0.2,0.4-0.3c0.2-0.2,0.4-0.2,0.6,0c0.2,0.2,0.1,0.4-0.1,0.6c-0.2,0.2-0.3,0.3-0.5,0.4
		c-0.1,0.1-0.2,0.2-0.2,0.4c0,0.3,0,0.5-0.1,0.8c0,0.3-0.2,0.4-0.4,0.4c-0.2,0-0.4-0.2-0.4-0.4c0-0.2,0-0.3,0.1-0.5
		c0.1-0.4,0-0.8-0.2-1.1c0,0,0-0.1-0.1-0.1c-0.1-0.2-0.1-0.4,0.1-0.5c0.2-0.1,0.4-0.1,0.6,0C29.9,4.6,29.9,4.7,30,4.8z"/>
	<path class="st0" d="M44,13c-0.2,0-0.3-0.1-0.4-0.2c-0.1-0.1-0.1-0.2,0-0.3c0-0.1,0.1-0.1,0.1-0.2c0.5-0.5,1-1,1.6-1.4
		c0.2-0.2,0.5-0.2,0.7,0.1c0.1,0.1,0.1,0.2,0,0.3c-0.3,0.2-0.5,0.6-0.8,0.9c-0.2,0.3-0.5,0.6-0.8,0.8C44.3,12.9,44.2,13,44,13z"/>
	<path class="st0" d="M7.2,10.2c-0.1,0-0.3-0.1-0.4-0.2C6.8,9.9,6.7,9.8,6.6,9.6c-0.3-0.5-0.5-1-0.8-1.5C5.8,8,5.7,8,5.7,7.9
		c0-0.1,0.1-0.2,0.2-0.2c0.3-0.1,0.5,0,0.7,0.3C6.8,8.5,7,9,7.2,9.5c0.1,0.1,0.1,0.2,0.2,0.4C7.5,10.1,7.5,10.2,7.2,10.2z"/>
	<path class="st0" d="M41.8,10.9c0-0.1,0-0.1,0.1-0.2c0.2-0.4,0.3-0.8,0.5-1.2c0-0.1,0.1-0.2,0.2-0.3c0.1-0.1,0.2-0.1,0.4,0
		c0.1,0.1,0.1,0.2,0.1,0.3c-0.2,0.5-0.3,1.1-0.5,1.6c-0.1,0.2-0.1,0.3-0.3,0.2C41.9,11.3,41.8,11.1,41.8,10.9z"/>
	<path class="st0" d="M7.1,46.8c0,0-0.1,0-0.2,0c-0.2-0.1-0.2-0.2-0.1-0.4c0.4-0.4,0.9-0.7,1.3-1.1c0.1-0.1,0.1-0.1,0.2-0.1
		c0.2,0,0.3,0.2,0.2,0.4c-0.3,0.4-0.7,0.8-1.1,1.1C7.3,46.8,7.2,46.8,7.1,46.8z"/>
	<path class="st0" d="M4.4,42.3c-0.2,0-0.4-0.1-0.5-0.2c-0.1-0.1-0.1-0.2,0-0.3c0,0,0.1,0,0.1,0c0.5-0.2,1-0.3,1.5-0.3
		c0.1,0,0.3,0,0.3,0.1c0.1,0.1,0.1,0.2,0,0.2c0,0-0.1,0-0.1,0.1C5.4,42,5,42.2,4.6,42.3C4.5,42.3,4.4,42.3,4.4,42.3z"/>
	<path class="st0" d="M46.5,16.3c-0.2,0-0.3,0-0.5-0.2c-0.1-0.1-0.1-0.2,0.1-0.3c0.1,0,0.2,0,0.2-0.1c0.4,0,0.7-0.1,1.1-0.1
		c0.1,0,0.3,0,0.4-0.1c0.1-0.1,0.2,0,0.2,0c0.1,0,0.2,0.1,0.2,0.2c0,0.1-0.1,0.2-0.1,0.2c0,0-0.1,0.1-0.1,0.1
		C47.5,16.2,47,16.2,46.5,16.3z"/>
	<path class="st0" d="M9.9,48.8c-0.2,0-0.3-0.1-0.3-0.3c0.1-0.4,0.3-0.8,0.4-1.1c0.1-0.2,0.2-0.2,0.4-0.1c0.2,0.1,0.2,0.1,0.1,0.3
		c-0.2,0.4-0.3,0.7-0.5,1.1C10,48.7,10,48.8,9.9,48.8z"/>
	<path class="st0" d="M13.3,48.7c0,0.3-0.1,0.5-0.1,0.8c0,0.1,0,0.2-0.2,0.2c-0.1,0-0.2,0-0.3-0.2c0-0.1,0-0.2,0-0.3
		c0-0.2,0-0.4,0.1-0.6c0-0.2,0.1-0.2,0.3-0.2C13.2,48.4,13.3,48.5,13.3,48.7z"/>
	<path class="st0" d="M3.8,39.5c0.2,0,0.4,0.1,0.6,0c0,0,0.1,0,0.2,0c0.1,0,0.2,0,0.2,0.1c0,0.1-0.1,0.1-0.2,0.2
		c-0.1,0-0.2,0.1-0.3,0.1c-0.3,0-0.5,0-0.8,0c0,0,0,0-0.1,0c-0.2,0-0.4-0.1-0.3-0.2c0.1-0.2,0.2-0.1,0.4-0.1
		C3.6,39.4,3.7,39.5,3.8,39.5z"/>
</g>
</svg>
